<svg width="211" height="174" viewBox="0 0 211 174" fill="none" xmlns="http://www.w3.org/2000/svg">
<path d="M203.799 107.351H65.6406V170.868H203.799V107.351Z" fill="#21409A"/>
<path d="M144.898 102.346H90.0575V77.3725C90.0568 75.0058 90.5224 72.6621 91.4277 70.4754C92.3331 68.2888 93.6605 66.3019 95.334 64.6284C97.0075 62.9549 98.9944 61.6275 101.181 60.7221C103.368 59.8168 105.711 59.3512 108.078 59.3519H125.987C128.471 59.3519 130.93 59.841 133.224 60.7914C135.519 61.7417 137.603 63.1346 139.359 64.8906C141.115 66.6467 142.508 68.7313 143.458 71.0257C144.409 73.32 144.898 75.779 144.898 78.2624V102.346Z" fill="#EBEDF6"/>
<path d="M203.076 81.9333H136.488C136.075 81.9335 135.666 81.8455 135.288 81.6752C134.911 81.505 134.575 81.2564 134.301 80.9459C134.027 80.6355 133.823 80.2703 133.702 79.8748C133.58 79.4792 133.544 79.0623 133.596 78.6518L137.211 47.8944C137.303 47.1904 137.646 46.5433 138.178 46.073C138.71 45.6026 139.394 45.3408 140.104 45.3359H207.125C207.539 45.3349 207.948 45.4223 208.326 45.5922C208.704 45.7622 209.04 46.0108 209.314 46.3214C209.588 46.6321 209.792 46.9976 209.914 47.3936C210.035 47.7895 210.07 48.2068 210.017 48.6175L206.012 79.3748C205.909 80.0816 205.556 80.7281 205.017 81.1973C204.479 81.6665 203.79 81.9276 203.076 81.9333Z" fill="#A6B3D7"/>
<path d="M180.828 92.1671H171.261C171.048 92.1442 170.849 92.0489 170.697 91.8972C170.545 91.7454 170.45 91.5462 170.427 91.3328L166.923 64.8025C166.899 64.6707 166.901 64.5354 166.93 64.4045C166.959 64.2736 167.014 64.1499 167.092 64.0409C167.17 63.9318 167.269 63.8396 167.383 63.7698C167.498 63.6999 167.625 63.6539 167.757 63.6345H177.769C177.99 63.6615 178.195 63.7654 178.348 63.9281C178.5 64.0907 178.591 64.3018 178.603 64.5244L181.662 91.0547C181.682 91.1827 181.676 91.3133 181.644 91.4389C181.613 91.5645 181.557 91.6826 181.479 91.7862C181.401 91.8898 181.304 91.9768 181.192 92.0422C181.08 92.1076 180.956 92.1501 180.828 92.1671Z" fill="#CDD7E3"/>
<path d="M197.67 94.7811H152.117V92.7788C152.122 92.2934 152.317 91.8291 152.66 91.4858C153.003 91.1425 153.467 90.9478 153.953 90.9434H195.667C195.93 90.9427 196.191 90.994 196.434 91.0943C196.678 91.1947 196.899 91.3421 197.085 91.5282C197.271 91.7143 197.418 91.9353 197.519 92.1786C197.619 92.4218 197.67 92.6825 197.67 92.9457V94.7811Z" fill="#CDD7E3"/>
<path d="M88.5557 49.6184H52.2364C52.0319 49.6184 51.8294 49.5781 51.6404 49.4999C51.4515 49.4216 51.2798 49.3069 51.1352 49.1623C50.9906 49.0177 50.8759 48.846 50.7976 48.6571C50.7194 48.4681 50.6791 48.2656 50.6791 48.0611V4.56692C50.6791 4.36241 50.7194 4.1599 50.7976 3.97095C50.8759 3.78201 50.9906 3.61033 51.1352 3.46571C51.2798 3.3211 51.4515 3.20639 51.6404 3.12813C51.8294 3.04986 52.0319 3.00958 52.2364 3.00958H88.5557C88.9688 3.00958 89.3649 3.17366 89.6569 3.46571C89.949 3.75777 90.1131 4.15389 90.1131 4.56692V48.1167C90.0933 48.5182 89.9212 48.897 89.6318 49.176C89.3425 49.455 88.9576 49.6133 88.5557 49.6184Z" fill="#F7F9FF"/>
<path d="M62.9153 10.7408H59.3556V7.57055C59.3579 7.46767 59.3393 7.3654 59.301 7.2699C59.2627 7.17439 59.2054 7.08765 59.1326 7.01488C59.0599 6.94211 58.9731 6.88484 58.8776 6.84652C58.7821 6.80819 58.6799 6.78961 58.577 6.79189H58.1876C57.9858 6.80613 57.7959 6.89273 57.6529 7.03579C57.5098 7.17885 57.4232 7.36874 57.409 7.57055V10.7408H54.0718C53.9689 10.7386 53.8667 10.7572 53.7712 10.7955C53.6757 10.8338 53.5889 10.8911 53.5161 10.9638C53.4434 11.0366 53.3861 11.1234 53.3478 11.2189C53.3095 11.3144 53.2909 11.4166 53.2932 11.5195V11.9088C53.2909 12.0117 53.3095 12.114 53.3478 12.2095C53.3861 12.305 53.4434 12.3918 53.5161 12.4645C53.5889 12.5373 53.6757 12.5946 53.7712 12.6329C53.8667 12.6712 53.9689 12.6898 54.0718 12.6875H57.409V16.414C57.4067 16.5169 57.4253 16.6192 57.4636 16.7147C57.5019 16.8102 57.5592 16.8969 57.632 16.9697C57.7047 17.0424 57.7915 17.0997 57.887 17.138C57.9825 17.1764 58.0848 17.1949 58.1876 17.1927H58.577C58.6799 17.1949 58.7821 17.1764 58.8776 17.138C58.9731 17.0997 59.0599 17.0424 59.1326 16.9697C59.2054 16.8969 59.2627 16.8102 59.301 16.7147C59.3393 16.6192 59.3579 16.5169 59.3556 16.414V12.6875H62.9153C63.0182 12.6898 63.1204 12.6712 63.2159 12.6329C63.3114 12.5946 63.3982 12.5373 63.4709 12.4645C63.5437 12.3918 63.601 12.305 63.6393 12.2095C63.6776 12.114 63.6962 12.0117 63.6939 11.9088V11.5195C63.6962 11.4166 63.6776 11.3144 63.6393 11.2189C63.601 11.1234 63.5437 11.0366 63.4709 10.9638C63.3982 10.8911 63.3114 10.8338 63.2159 10.7955C63.1204 10.7572 63.0182 10.7386 62.9153 10.7408Z" fill="#A6B3D7"/>
<path d="M86.9985 7.90418H76.9314V8.18228H86.9985V7.90418Z" fill="#A6B3D7"/>
<path d="M86.9986 9.90654H74.4843V10.1846H86.9986V9.90654Z" fill="#A6B3D7"/>
<path d="M86.0528 22.9213H53.738V23.7H86.0528V22.9213Z" fill="#A6B3D7"/>
<path d="M86.0528 25.2018H53.738V25.9805H86.0528V25.2018Z" fill="#A6B3D7"/>
<path d="M86.0528 27.5378H53.738V28.3165H86.0528V27.5378Z" fill="#A6B3D7"/>
<path d="M80.0459 39.4404H53.738V40.2191H80.0459V39.4404Z" fill="#A6B3D7"/>
<path d="M80.0459 41.7206H53.738V42.4993H80.0459V41.7206Z" fill="#A6B3D7"/>
<path d="M183.813 25.1682C187.189 18.2707 184.401 9.97521 177.586 6.63966C170.772 3.30411 162.51 6.19163 159.134 13.0891C155.758 19.9866 158.546 28.2821 165.361 31.6177C172.175 34.9532 180.436 32.0657 183.813 25.1682Z" fill="#A6B3D7"/>
<path d="M181.817 24.1905C184.639 18.4242 182.297 11.4836 176.586 8.6882C170.875 5.89282 163.957 8.30123 161.135 14.0675C158.313 19.8338 160.654 26.7745 166.366 29.5698C172.077 32.3652 178.994 29.9568 181.817 24.1905Z" fill="white"/>
<path d="M171.873 18.5273L171.706 18.4161C171.656 18.3935 171.611 18.3604 171.575 18.319C171.539 18.2776 171.512 18.2289 171.496 18.1761C171.48 18.1234 171.476 18.0678 171.483 18.0132C171.491 17.9587 171.51 17.9064 171.54 17.8599L174.376 12.0755C174.399 12.0252 174.432 11.9804 174.473 11.944C174.515 11.9077 174.563 11.8807 174.616 11.8648C174.669 11.849 174.724 11.8447 174.779 11.8523C174.834 11.8598 174.886 11.8791 174.932 11.9086L175.099 12.0199C175.149 12.0424 175.194 12.0755 175.231 12.1169C175.267 12.1583 175.294 12.207 175.31 12.2598C175.326 12.3126 175.33 12.3681 175.322 12.4227C175.315 12.4773 175.296 12.5296 175.266 12.5761L172.429 18.3604C172.365 18.442 172.277 18.5017 172.178 18.5316C172.078 18.5614 171.972 18.5599 171.873 18.5273Z" fill="#A6B3D7"/>
<path d="M172.819 19.8067C172.734 19.9915 172.612 20.1573 172.462 20.2943C172.311 20.4312 172.135 20.5366 171.943 20.604C171.751 20.6715 171.547 20.6996 171.344 20.6869C171.141 20.6741 170.943 20.6207 170.761 20.5297C170.397 20.3476 170.118 20.031 169.983 19.647C169.848 19.263 169.868 18.8416 170.038 18.4718C170.123 18.287 170.244 18.1212 170.395 17.9842C170.545 17.8472 170.722 17.7419 170.914 17.6745C171.106 17.607 171.309 17.5788 171.512 17.5916C171.715 17.6044 171.914 17.6578 172.096 17.7488C172.285 17.8287 172.455 17.9473 172.596 18.097C172.737 18.2466 172.844 18.424 172.912 18.6178C172.981 18.8115 173.007 19.0174 172.991 19.2221C172.975 19.4269 172.916 19.626 172.819 19.8067Z" fill="#A6B3D7"/>
<path d="M175.422 11.1855L175.311 11.1299C175.255 11.0972 175.213 11.0453 175.192 10.984C175.172 10.9226 175.174 10.8559 175.199 10.7962L175.922 9.3501C175.955 9.29427 176.007 9.25221 176.068 9.23175C176.13 9.21129 176.197 9.21381 176.256 9.23886L176.367 9.29448C176.423 9.32718 176.465 9.37904 176.486 9.44043C176.506 9.50181 176.504 9.56854 176.479 9.6282L175.756 11.0743C175.72 11.1269 175.668 11.1664 175.608 11.1865C175.547 11.2066 175.482 11.2063 175.422 11.1855Z" fill="#A6B3D7"/>
<path d="M166.812 28.8726L166.701 28.817C166.645 28.7843 166.603 28.7324 166.582 28.671C166.562 28.6096 166.564 28.5429 166.59 28.4833L167.313 27.0372C167.345 26.9813 167.397 26.9393 167.459 26.9188C167.52 26.8983 167.587 26.9009 167.646 26.9259L167.758 26.9815C167.813 27.0142 167.855 27.0661 167.876 27.1275C167.896 27.1889 167.894 27.2556 167.869 27.3153L167.146 28.7613C167.11 28.814 167.058 28.8534 166.998 28.8735C166.937 28.8936 166.872 28.8933 166.812 28.8726Z" fill="#A6B3D7"/>
<path d="M179.382 22.9769L179.437 22.8656C179.47 22.8098 179.522 22.7677 179.583 22.7473C179.645 22.7268 179.711 22.7293 179.771 22.7544L181.217 23.4774C181.273 23.5101 181.315 23.562 181.336 23.6234C181.356 23.6848 181.353 23.7515 181.328 23.8111L181.273 23.9224C181.24 23.9782 181.188 24.0203 181.127 24.0407C181.066 24.0612 180.999 24.0587 180.939 24.0336L179.493 23.3106C179.437 23.2779 179.395 23.226 179.375 23.1646C179.354 23.1032 179.357 23.0365 179.382 22.9769Z" fill="#A6B3D7"/>
<path d="M161.695 14.356L161.751 14.2448C161.783 14.1915 161.833 14.1512 161.892 14.1309C161.951 14.1106 162.015 14.1115 162.073 14.1335L163.519 14.8566C163.575 14.8893 163.617 14.9411 163.638 15.0025C163.658 15.0639 163.655 15.1306 163.63 15.1903L163.575 15.3015C163.542 15.3574 163.49 15.3994 163.429 15.4199C163.367 15.4403 163.301 15.4378 163.241 15.4128L161.795 14.6897C161.741 14.6553 161.701 14.6027 161.683 14.5414C161.665 14.4802 161.669 14.4144 161.695 14.356Z" fill="#A6B3D7"/>
<path d="M180.216 16.1357L180.16 16.0245C180.147 15.9918 180.142 15.9567 180.143 15.9215C180.145 15.8863 180.153 15.8518 180.169 15.8203C180.185 15.7888 180.207 15.761 180.234 15.7387C180.262 15.7164 180.293 15.7001 180.327 15.6908L181.162 15.4127C181.194 15.3997 181.229 15.3938 181.265 15.3953C181.3 15.3968 181.334 15.4058 181.366 15.4215C181.397 15.4373 181.425 15.4595 181.447 15.4867C181.47 15.5139 181.486 15.5456 181.495 15.5796L181.551 15.6908C181.564 15.7235 181.57 15.7586 181.568 15.7938C181.567 15.829 181.558 15.8635 181.542 15.895C181.526 15.9265 181.504 15.9543 181.477 15.9766C181.45 15.9989 181.418 16.0152 181.384 16.0245L180.55 16.3026C180.484 16.3112 180.417 16.2999 180.357 16.2702C180.298 16.2404 180.249 16.1936 180.216 16.1357Z" fill="#A6B3D7"/>
<path d="M161.517 22.5876L161.461 22.4764C161.448 22.4436 161.442 22.4085 161.444 22.3733C161.445 22.3382 161.454 22.3037 161.47 22.2722C161.486 22.2407 161.508 22.2129 161.535 22.1906C161.563 22.1682 161.594 22.1519 161.628 22.1427L162.629 21.8089C162.662 21.796 162.697 21.79 162.732 21.7916C162.768 21.7931 162.802 21.802 162.834 21.8177C162.865 21.8335 162.893 21.8557 162.915 21.8829C162.937 21.9102 162.954 21.9418 162.963 21.9758L163.019 22.087C163.032 22.1198 163.038 22.1549 163.036 22.1901C163.035 22.2252 163.026 22.2597 163.01 22.2912C162.994 22.3227 162.972 22.3505 162.945 22.3728C162.917 22.3952 162.886 22.4115 162.852 22.4207L161.851 22.7545C161.785 22.763 161.718 22.7518 161.658 22.722C161.599 22.6923 161.55 22.6455 161.517 22.5876Z" fill="#A6B3D7"/>
<path d="M174.432 27.7601L174.543 27.7044C174.576 27.6915 174.611 27.6855 174.646 27.6871C174.681 27.6886 174.716 27.6975 174.747 27.7132C174.779 27.729 174.806 27.7512 174.829 27.7785C174.851 27.8057 174.867 27.8373 174.877 27.8713L175.155 28.7056C175.168 28.7383 175.174 28.7734 175.172 28.8086C175.171 28.8438 175.162 28.8783 175.146 28.9098C175.13 28.9413 175.108 28.9691 175.081 28.9914C175.053 29.0137 175.022 29.03 174.988 29.0393L174.877 29.0949C174.844 29.1079 174.809 29.1138 174.774 29.1123C174.738 29.1108 174.704 29.1019 174.672 29.0861C174.641 29.0704 174.613 29.0481 174.591 29.0209C174.568 28.9937 174.552 28.962 174.543 28.9281L174.265 28.0938C174.263 28.0287 174.277 27.9642 174.306 27.906C174.335 27.8477 174.378 27.7976 174.432 27.7601Z" fill="#A6B3D7"/>
<path d="M167.98 9.1276L168.091 9.07198C168.124 9.05901 168.159 9.05308 168.194 9.0546C168.229 9.05612 168.264 9.06504 168.295 9.08079C168.327 9.09654 168.355 9.11876 168.377 9.14599C168.399 9.17323 168.416 9.20486 168.425 9.23884L168.747 10.24C168.76 10.2727 168.766 10.3078 168.765 10.343C168.763 10.3782 168.754 10.4127 168.739 10.4442C168.723 10.4757 168.701 10.5035 168.673 10.5258C168.646 10.5481 168.615 10.5644 168.581 10.5737L168.469 10.6293C168.437 10.6423 168.402 10.6482 168.366 10.6467C168.331 10.6452 168.297 10.6363 168.265 10.6205C168.234 10.6048 168.206 10.5826 168.184 10.5553C168.161 10.5281 168.145 10.4964 168.136 10.4625L167.802 9.46132C167.787 9.39359 167.796 9.32261 167.829 9.26134C167.862 9.20007 167.915 9.1526 167.98 9.1276Z" fill="#A6B3D7"/>
<path d="M171.595 26.6477H171.373C171.321 26.6493 171.27 26.6403 171.222 26.6212C171.174 26.6022 171.13 26.5736 171.094 26.5371C171.057 26.5007 171.029 26.4571 171.01 26.4092C170.991 26.3613 170.982 26.3099 170.983 26.2584V19.8066C170.982 19.755 170.991 19.7037 171.01 19.6558C171.029 19.6079 171.057 19.5643 171.094 19.5279C171.13 19.4914 171.174 19.4628 171.222 19.4438C171.27 19.4247 171.321 19.4157 171.373 19.4173H171.595C171.647 19.4157 171.698 19.4247 171.746 19.4438C171.794 19.4628 171.837 19.4914 171.874 19.5279C171.91 19.5643 171.939 19.6079 171.958 19.6558C171.977 19.7037 171.986 19.755 171.984 19.8066V26.2584C171.986 26.3099 171.977 26.3613 171.958 26.4092C171.939 26.4571 171.91 26.5007 171.874 26.5371C171.837 26.5736 171.794 26.6022 171.746 26.6212C171.698 26.6403 171.647 26.6493 171.595 26.6477Z" fill="#A6B3D7"/>
<path fill-rule="evenodd" clip-rule="evenodd" d="M39.3858 43.5904C37.9099 49.0301 34.9155 55.2071 28.8425 58.3443L28.836 58.3476L28.836 58.3476C28.8171 58.357 28.7966 58.3674 28.7744 58.3785C28.1384 58.6975 26.1599 59.69 23.6497 60.2293C23.3383 60.2963 23.0177 60.3564 22.6895 60.4075C22.3761 61.0284 22.0277 61.6203 21.6476 62.1707L21.6464 62.1724C19.1164 65.8075 15.3616 67.3745 12.2311 68.0305C9.10226 68.6862 6.53466 68.4465 6.27063 68.4135L6.4086 67.3097C6.58952 67.3323 9.02765 67.5653 12.003 66.9418C14.9765 66.3186 18.4241 64.8545 20.7329 61.5377C20.9486 61.2252 21.1537 60.8976 21.3471 60.5577C19.2747 60.6958 17.0081 60.3977 14.9035 59.1653C13.3821 58.2871 11.8133 56.834 10.7693 55.1621C9.72921 53.4966 9.15647 51.5202 9.81996 49.6552C10.5745 47.5182 12.7568 46.114 15.0565 45.5138C17.3604 44.9124 19.9883 45.0611 21.7784 46.2648L21.7811 46.2666C23.9402 47.7373 24.683 50.6034 24.5333 53.547C24.4386 55.409 23.9865 57.3729 23.2497 59.1766C23.3053 59.1653 23.3608 59.1537 23.416 59.1418C25.7861 58.6325 27.6609 57.6924 28.2804 57.3818C28.2999 57.372 28.3181 57.3629 28.3352 57.3544C33.9958 54.4285 36.8684 48.6208 38.3122 43.2991C39.7536 37.9865 39.7375 33.2773 39.7117 32.7367L40.8229 32.6838C40.8527 33.3113 40.8644 38.1407 39.3858 43.5904ZM21.9468 59.3863C22.7953 57.5374 23.3227 55.4503 23.4224 53.4905C23.5646 50.6923 22.834 48.3307 21.1563 47.1869C19.7204 46.2222 17.4546 46.0375 15.3374 46.5901C13.2156 47.1439 11.4492 48.3813 10.8687 50.0261L10.8682 50.0275C10.3641 51.4438 10.7646 53.0545 11.7128 54.573C12.6568 56.0847 14.0907 57.4121 15.461 58.2027L15.4642 58.2045C17.5495 59.4262 19.8478 59.63 21.9468 59.3863Z" fill="#A6B3D7"/>
<path d="M203.799 100.677H65.6406V114.137H203.799V100.677Z" fill="#19234D"/>
<path d="M207.803 106.517H61.9141C61.5995 106.519 61.2875 106.459 60.9963 106.339C60.7051 106.22 60.4406 106.044 60.2181 105.821C59.9955 105.599 59.8195 105.334 59.7001 105.043C59.5807 104.752 59.5203 104.44 59.5225 104.125V97.1727C59.5203 96.858 59.5807 96.546 59.7001 96.2548C59.8195 95.9637 59.9955 95.6992 60.2181 95.4766C60.4406 95.2541 60.7051 95.078 60.9963 94.9586C61.2875 94.8392 61.5995 94.7789 61.9141 94.7811H207.803C208.118 94.7789 208.43 94.8392 208.721 94.9586C209.012 95.078 209.277 95.2541 209.499 95.4766C209.722 95.6992 209.898 95.9637 210.017 96.2548C210.137 96.546 210.197 96.858 210.195 97.1727V104.125C210.197 104.44 210.137 104.752 210.017 105.043C209.898 105.334 209.722 105.599 209.499 105.821C209.277 106.044 209.012 106.22 208.721 106.339C208.43 106.459 208.118 106.519 207.803 106.517Z" fill="#21409A"/>
<path d="M207.125 170.924H62.1922C62.0679 170.925 61.9446 170.901 61.8295 170.853C61.7145 170.806 61.61 170.737 61.522 170.649C61.4341 170.561 61.3644 170.456 61.3172 170.341C61.2699 170.226 61.246 170.103 61.2467 169.978V168.755C61.246 168.63 61.2699 168.507 61.3172 168.392C61.3644 168.277 61.4341 168.172 61.522 168.085C61.61 167.997 61.7145 167.927 61.8295 167.88C61.9446 167.832 62.0679 167.808 62.1922 167.809H207.125C207.249 167.808 207.372 167.832 207.487 167.88C207.602 167.927 207.707 167.997 207.795 168.085C207.883 168.172 207.952 168.277 208 168.392C208.047 168.507 208.071 168.63 208.07 168.755V169.923C208.075 170.18 207.978 170.429 207.802 170.616C207.625 170.803 207.382 170.914 207.125 170.924Z" fill="#19234D"/>
<path d="M203.743 128.264H65.585V149.956H203.743V128.264Z" fill="#00A79D"/>
<path d="M185.111 146.841H184.321C184.123 146.842 183.928 146.803 183.745 146.728C183.563 146.653 183.397 146.542 183.257 146.403C183.118 146.263 183.007 146.097 182.932 145.915C182.857 145.732 182.818 145.537 182.819 145.339V132.269C182.818 132.071 182.857 131.876 182.932 131.693C183.007 131.511 183.118 131.345 183.257 131.205C183.397 131.066 183.563 130.955 183.745 130.88C183.928 130.805 184.123 130.766 184.321 130.767H185.099C185.297 130.766 185.493 130.805 185.675 130.88C185.858 130.955 186.023 131.066 186.163 131.205C186.303 131.345 186.413 131.511 186.488 131.693C186.564 131.876 186.602 132.071 186.601 132.269V145.339C186.602 145.536 186.564 145.73 186.489 145.912C186.415 146.094 186.305 146.259 186.167 146.399C186.029 146.538 185.864 146.649 185.683 146.725C185.502 146.801 185.307 146.84 185.111 146.841Z" fill="#EBEDF6"/>
<path d="M192.786 138.442V139.221C192.787 139.418 192.748 139.614 192.673 139.797C192.598 139.979 192.487 140.145 192.348 140.285C192.208 140.424 192.042 140.535 191.86 140.61C191.677 140.685 191.482 140.723 191.284 140.723H178.203C178.005 140.723 177.81 140.685 177.627 140.61C177.445 140.535 177.279 140.424 177.139 140.285C177 140.145 176.889 139.979 176.814 139.797C176.739 139.614 176.7 139.418 176.701 139.221V138.442C176.7 138.245 176.739 138.049 176.814 137.867C176.889 137.684 177 137.518 177.139 137.379C177.279 137.239 177.445 137.129 177.627 137.053C177.81 136.978 178.005 136.94 178.203 136.941H191.273C191.472 136.938 191.668 136.976 191.852 137.05C192.036 137.125 192.203 137.235 192.344 137.375C192.485 137.515 192.596 137.681 192.672 137.864C192.748 138.047 192.787 138.244 192.786 138.442Z" fill="#EBEDF6"/>
<path d="M77.1593 132.046H83.5611C84.9622 132.017 86.3508 132.316 87.6157 132.919C88.7344 133.466 89.674 134.321 90.3244 135.383C90.9634 136.512 91.2993 137.787 91.2993 139.085C91.2993 140.382 90.9634 141.657 90.3244 142.786C89.6665 143.852 88.7168 144.707 87.5879 145.25C86.323 145.853 84.9344 146.152 83.5333 146.123H77.1593V132.046ZM83.3998 143.454C84.634 143.515 85.8435 143.092 86.7703 142.274C87.5789 141.409 88.0286 140.269 88.0286 139.085C88.0286 137.9 87.5789 136.76 86.7703 135.895C85.8435 135.077 84.634 134.654 83.3998 134.716H80.4241V143.448H83.3998V143.454Z" fill="white"/>
<path d="M96.6484 145.439C95.4983 144.843 94.5357 143.94 93.8674 142.831C93.215 141.695 92.8717 140.408 92.8717 139.099C92.8717 137.789 93.215 136.502 93.8674 135.367C94.536 134.257 95.4985 133.354 96.6484 132.758C97.8721 132.137 99.2251 131.813 100.597 131.813C101.97 131.813 103.323 132.137 104.546 132.758C105.694 133.371 106.654 134.285 107.323 135.401C107.992 136.517 108.345 137.794 108.345 139.096C108.345 140.397 107.992 141.674 107.323 142.79C106.654 143.907 105.694 144.82 104.546 145.434C103.323 146.056 101.97 146.381 100.598 146.382C99.2256 146.383 97.8723 146.06 96.6484 145.439ZM102.855 143.036C103.521 142.66 104.067 142.105 104.435 141.435C104.812 140.715 105.008 139.914 105.008 139.101C105.008 138.289 104.812 137.488 104.435 136.768C104.067 136.098 103.521 135.543 102.855 135.166C102.164 134.79 101.39 134.594 100.603 134.594C99.816 134.594 99.0416 134.79 98.3503 135.166C97.6853 135.543 97.1383 136.098 96.7707 136.768C96.3941 137.488 96.1973 138.289 96.1973 139.101C96.1973 139.914 96.3941 140.715 96.7707 141.435C97.1383 142.105 97.6853 142.66 98.3503 143.036C99.0416 143.412 99.816 143.609 100.603 143.609C101.39 143.609 102.164 143.412 102.855 143.036Z" fill="white"/>
<path d="M113.612 145.45C112.479 144.852 111.532 143.954 110.876 142.853C110.223 141.71 109.88 140.417 109.88 139.101C109.88 137.786 110.223 136.493 110.876 135.35C111.532 134.249 112.479 133.351 113.612 132.753C114.726 132.19 115.948 131.872 117.195 131.821C118.443 131.771 119.686 131.988 120.843 132.458C121.806 132.87 122.658 133.505 123.329 134.31L121.238 136.24C120.811 135.713 120.271 135.289 119.657 135C119.044 134.711 118.373 134.564 117.695 134.571C116.881 134.551 116.076 134.743 115.359 135.127C114.684 135.499 114.129 136.055 113.757 136.729C113.38 137.449 113.183 138.25 113.183 139.062C113.183 139.875 113.38 140.676 113.757 141.396C114.129 142.07 114.684 142.626 115.359 142.998C116.076 143.382 116.881 143.574 117.695 143.554C118.373 143.562 119.044 143.416 119.658 143.127C120.272 142.838 120.812 142.414 121.238 141.885L123.329 143.815C122.66 144.633 121.803 145.276 120.832 145.69C119.776 146.133 118.639 146.353 117.494 146.335C116.147 146.368 114.812 146.064 113.612 145.45Z" fill="white"/>
<path d="M128.29 134.71H123.785V132.046H136.06V134.705H131.555V146.135H128.296V134.71H128.29Z" fill="white"/>
<path d="M140.476 145.439C139.326 144.843 138.363 143.94 137.695 142.831C137.043 141.695 136.699 140.408 136.699 139.099C136.699 137.789 137.043 136.502 137.695 135.367C138.364 134.257 139.326 133.354 140.476 132.758C141.7 132.137 143.053 131.813 144.425 131.813C145.797 131.813 147.15 132.137 148.374 132.758C149.522 133.371 150.482 134.285 151.151 135.401C151.82 136.517 152.173 137.794 152.173 139.096C152.173 140.397 151.82 141.674 151.151 142.79C150.482 143.907 149.522 144.82 148.374 145.434C147.151 146.056 145.798 146.381 144.426 146.382C143.053 146.383 141.7 146.06 140.476 145.439ZM146.683 143.036C147.348 142.66 147.895 142.105 148.263 141.435C148.64 140.715 148.836 139.914 148.836 139.101C148.836 138.289 148.64 137.488 148.263 136.768C147.895 136.098 147.348 135.543 146.683 135.166C145.992 134.79 145.218 134.594 144.431 134.594C143.644 134.594 142.869 134.79 142.178 135.166C141.513 135.543 140.966 136.098 140.599 136.768C140.222 137.488 140.025 138.289 140.025 139.101C140.025 139.914 140.222 140.715 140.599 141.435C140.966 142.105 141.513 142.66 142.178 143.036C142.869 143.412 143.644 143.609 144.431 143.609C145.218 143.609 145.992 143.412 146.683 143.036Z" fill="white"/>
<path d="M163.569 146.145L160.855 142.224H157.857V146.145H154.598V132.046H160.716C161.831 132.02 162.938 132.232 163.964 132.669C164.83 133.039 165.568 133.654 166.089 134.438C166.598 135.25 166.857 136.194 166.834 137.152C166.872 138.102 166.613 139.041 166.094 139.838C165.575 140.635 164.821 141.252 163.936 141.601L167.096 146.129H163.597L163.569 146.145ZM162.746 135.35C162.1 134.887 161.314 134.663 160.521 134.716H157.863V139.627H160.521C161.316 139.68 162.104 139.452 162.746 138.982C162.988 138.745 163.18 138.463 163.311 138.151C163.442 137.839 163.509 137.504 163.509 137.166C163.509 136.827 163.442 136.493 163.311 136.181C163.18 135.869 162.988 135.586 162.746 135.35Z" fill="white"/>
<path d="M45.7012 144.282H3.70874V92.0001C3.70874 87.5747 5.4667 83.3307 8.59588 80.2015C11.7251 77.0723 15.9691 75.3143 20.3945 75.3143H29.1823C31.3516 75.3143 33.4996 75.7416 35.5038 76.5718C37.508 77.4019 39.329 78.6187 40.8629 80.1526C42.3968 81.6865 43.6136 83.5075 44.4438 85.5117C45.2739 87.5159 45.7012 89.6639 45.7012 91.8332V144.282Z" fill="#CDD7E3"/>
<path d="M42.7534 140.778H0.705322V92.0002C0.705322 87.5749 2.46328 83.3308 5.59246 80.2016C8.72165 77.0724 12.9657 75.3145 17.3911 75.3145H26.1789C30.56 75.3145 34.7616 77.0548 37.8595 80.1527C40.9574 83.2506 42.6978 87.4523 42.6978 91.8334V140.778H42.7534Z" fill="#F7F9FF"/>
<path d="M44.5332 143.448L2.59637 143.559L0.705322 140.778H42.7534L44.5332 143.448Z" fill="#CDD7E3"/>
<path d="M72.0646 148.12H3.93117C3.57849 148.115 3.24147 147.973 2.99207 147.724C2.74267 147.475 2.60064 147.138 2.59631 146.785V143.503H72.0646C72.1531 143.5 72.2413 143.515 72.3237 143.548C72.4061 143.58 72.4809 143.629 72.5435 143.692C72.6061 143.755 72.6551 143.829 72.6876 143.912C72.72 143.994 72.7352 144.082 72.7321 144.171V147.452C72.7203 147.625 72.6463 147.788 72.5235 147.911C72.4008 148.034 72.2378 148.108 72.0646 148.12Z" fill="#F7F9FF"/>
<path d="M72.7321 145.116H42.7534V139.11H71.5085C71.8321 139.112 72.1417 139.242 72.3705 139.471C72.5994 139.7 72.7292 140.01 72.7321 140.333V145.116Z" fill="#CDD7E3"/>
<path d="M38.3039 98.1738H5.09924V99.4531H38.3039V98.1738Z" fill="#CDD7E3"/>
<path d="M39.1938 112.245H5.98914V113.525H39.1938V112.245Z" fill="#CDD7E3"/>
<path d="M38.3039 125.149H5.09924V126.428H38.3039V125.149Z" fill="#CDD7E3"/>
<path d="M61.6083 139.109H57.0475L60.8296 122.146H65.3347L61.6083 139.109Z" fill="#CDD7E3"/>
<path d="M59.4947 139.109H54.8783L58.716 122.146H63.1656L59.4947 139.109Z" fill="#F7F9FF"/>
<path d="M72.0646 122.424H51.8749V121.033C51.8749 119.632 52.4316 118.288 53.4225 117.297C54.4134 116.306 55.7573 115.75 57.1587 115.75H66.7252C68.1266 115.75 69.4705 116.306 70.4614 117.297C71.4523 118.288 72.009 119.632 72.009 121.033V122.424H72.0646Z" fill="#CDD7E3"/>
<path d="M48.4266 148.12H28.2368V149.51C28.2368 150.911 28.7935 152.255 29.7844 153.246C30.7753 154.237 32.1193 154.794 33.5206 154.794H43.0871C44.4885 154.794 45.8324 154.237 46.8234 153.246C47.8143 152.255 48.3709 150.911 48.3709 149.51V148.12H48.4266Z" fill="#CDD7E3"/>
<path d="M41.1404 154.794H35.5228V171.146H41.1404V154.794Z" fill="#F7F9FF"/>
<path d="M41.5297 163.86H35.0779V171.202H41.5297V163.86Z" fill="#CDD7E3"/>
<path d="M34.8555 171.202C34.8555 170.287 35.2188 169.41 35.8655 168.763C36.5122 168.117 37.3893 167.753 38.3039 167.753C39.2184 167.753 40.0955 168.117 40.7422 168.763C41.3889 169.41 41.7522 170.287 41.7522 171.202" fill="#F7F9FF"/>
<path d="M63.1656 171.202H41.5298V167.086H59.9397C60.7953 167.086 61.6158 167.426 62.2208 168.031C62.8258 168.636 63.1656 169.456 63.1656 170.312V171.202Z" fill="#F7F9FF"/>
<path d="M13.442 171.202H35.0779V167.086H16.7235C15.868 167.086 15.0475 167.426 14.4425 168.031C13.8375 168.636 13.4976 169.456 13.4976 170.312V171.202H13.442Z" fill="#F7F9FF"/>
<path d="M18.0029 173.315C19.1702 173.315 20.1165 172.369 20.1165 171.202C20.1165 170.034 19.1702 169.088 18.0029 169.088C16.8357 169.088 15.8894 170.034 15.8894 171.202C15.8894 172.369 16.8357 173.315 18.0029 173.315Z" fill="#CDD7E3"/>
<path d="M38.3038 173.315C39.4711 173.315 40.4174 172.369 40.4174 171.202C40.4174 170.034 39.4711 169.088 38.3038 169.088C37.1366 169.088 36.1903 170.034 36.1903 171.202C36.1903 172.369 37.1366 173.315 38.3038 173.315Z" fill="#CDD7E3"/>
<path d="M58.9386 173.315C60.1059 173.315 61.0521 172.369 61.0521 171.202C61.0521 170.034 60.1059 169.088 58.9386 169.088C57.7713 169.088 56.8251 170.034 56.8251 171.202C56.8251 172.369 57.7713 173.315 58.9386 173.315Z" fill="#CDD7E3"/>
</svg>
