<svg width="227" height="221" viewBox="0 0 227 221" fill="none" xmlns="http://www.w3.org/2000/svg">
<path d="M159.432 180.89C184.908 140.772 173.039 87.5956 132.921 62.1192C92.8023 36.6429 39.6263 48.5124 14.15 88.6307C-11.3264 128.749 0.543198 181.925 40.6615 207.401C80.7797 232.878 133.956 221.008 159.432 180.89Z" fill="#EAECF4"/>
<path d="M206.574 102.4C226.269 71.391 217.094 30.2856 186.081 10.594C155.072 -9.09758 113.97 0.0746207 94.2754 31.0867C74.5808 62.0958 83.756 103.201 114.768 122.893C145.777 142.584 186.88 133.412 206.574 102.4Z" fill="#EAECF4"/>
<path d="M217.271 164.884C234.676 137.478 226.566 101.153 199.16 83.7504C171.755 66.3451 135.429 74.4552 118.027 101.861C100.621 129.266 108.731 165.592 136.137 182.994C163.543 200.4 199.868 192.29 217.271 164.884Z" fill="#EAECF4"/>
<path d="M114.126 204.011C175.807 204.011 225.81 198.061 225.81 190.722C225.81 183.383 175.807 177.434 114.126 177.434C52.4447 177.434 2.44226 183.383 2.44226 190.722C2.44226 198.061 52.4447 204.011 114.126 204.011Z" fill="#D1D2D3"/>
<path d="M58.8558 125.506H45.057L48.5735 135.149H60.9351L58.8558 125.506Z" fill="#21428A"/>
<path d="M7.70813 190.723H11.5456L31.7923 135.153L35.3088 125.51H21.5099L19.4307 135.153L7.70813 190.723Z" fill="#13A79F"/>
<path d="M17.0844 128.489H66.6899C68.3401 128.489 69.6723 127.157 69.6723 125.507C69.6723 123.857 68.3401 122.525 66.6899 122.525H22.095L15.7552 86.1868C15.4881 84.5876 13.9429 83.4684 12.2927 83.7895C10.6935 84.0565 9.57437 85.6017 9.89542 87.2519L17.0874 128.489H17.0844Z" fill="#13A79F"/>
<path d="M84.0592 189.604C82.7811 189.763 48.1475 181.665 47.0284 180.599C46.8694 180.491 48.5196 173.834 48.5196 173.834C49.0536 171.115 58.1088 148.738 58.1088 148.738L80.7528 154.331L71.1605 175.058C71.1605 175.058 75.4751 177.989 79.2046 180.758C81.4969 182.463 83.4682 184.008 83.8942 184.488C84.9594 185.82 85.3314 189.442 84.0532 189.604H84.0592Z" fill="#EB9482"/>
<path d="M84.0592 189.603C82.7811 189.762 48.1475 181.664 47.0284 180.599C46.8694 180.49 48.5196 173.833 48.5196 173.833C48.6786 172.927 49.7977 169.89 51.1839 166.266L72.8678 171.327L71.1635 175.057C71.1635 175.057 75.4781 177.988 79.2076 180.758C81.4999 182.462 83.4712 184.007 83.8972 184.487C84.9623 185.819 85.3344 189.444 84.0562 189.603H84.0592Z" fill="#EBEBEB"/>
<path d="M84.1641 189.654C82.832 189.813 47.9344 181.982 46.8152 180.808C46.3892 180.382 49.4796 169.14 49.4796 169.086L71.8565 174.04L71.7485 174.415C71.7485 174.415 82.991 183.047 84.1101 184.43C85.1753 185.816 85.4963 189.546 84.1641 189.654Z" fill="#30302F"/>
<path d="M84.059 188.217C78.1993 186.777 54.4362 181.397 48.5734 180.383C48.5374 180.383 48.5374 180.401 48.5734 180.437C54.3281 182.036 78.1423 187.149 84.059 188.322C84.1671 188.376 84.2181 188.268 84.059 188.214V188.217Z" fill="white"/>
<path d="M73.5098 174.31C71.2715 173.35 68.3941 173.086 66.2098 174.31C66.1048 174.364 66.2098 174.469 66.2638 174.469C68.7151 174.256 70.9534 174.256 73.4048 174.574C73.6178 174.628 73.6718 174.361 73.5128 174.307L73.5098 174.31Z" fill="white"/>
<path d="M74.9469 175.697C72.7086 174.737 69.8312 174.473 67.6469 175.697C67.5389 175.751 67.6469 175.856 67.7009 175.856C70.1523 175.643 72.3905 175.643 74.8419 175.961C75.0549 176.015 75.1089 175.748 74.9469 175.694V175.697Z" fill="white"/>
<path d="M76.384 177.084C74.1457 176.124 71.2683 175.86 69.0841 177.084C68.976 177.138 69.0841 177.243 69.1381 177.243C71.5894 177.03 73.8277 177.03 76.276 177.348C76.489 177.402 76.543 177.135 76.384 177.081V177.084Z" fill="white"/>
<path d="M72.9216 174.257L48.7324 168.824C48.7324 168.824 68.658 122.576 66.8998 120.232C65.9937 119.059 43.6168 118.741 36.5298 112.665C27.2586 104.831 33.4934 92.8448 33.4934 92.8448L58.4807 92.0977C58.4807 92.0977 58.1597 97.3183 59.1738 98.1194C59.8129 98.6535 89.5978 101.156 92.9012 111.174C96.8438 123.536 72.9216 174.257 72.9216 174.257Z" fill="#21409A"/>
<path d="M73.6147 169.836C72.9756 169.569 66.7408 167.811 65.3576 167.439C62.5343 166.695 59.7109 165.999 56.8875 165.363C55.3963 165.045 52.2519 164.244 52.0389 164.298C51.9309 164.298 51.9309 164.406 52.0389 164.457C54.8083 165.309 57.5806 166.056 60.35 166.8C63.1194 167.544 72.7116 169.89 73.5637 169.998C73.6147 169.998 73.6687 169.89 73.6147 169.839V169.836Z" fill="black"/>
<path d="M71.1634 118.207C70.6833 117.781 69.8852 117.727 69.2971 117.622C65.6726 117.037 62.1052 116.395 58.4807 115.81C55.1233 115.225 51.7148 114.745 48.3574 114.106C45.588 113.571 42.7616 112.824 40.3133 111.336C37.916 109.845 36.2628 107.553 35.4107 104.888C34.5586 102.224 34.5046 99.4006 34.7716 96.6283C34.8256 95.9352 34.9846 95.2961 35.0926 94.603C35.0926 94.549 35.0386 94.549 34.9846 94.603C34.0785 99.7157 33.9735 105.683 37.808 109.734C39.6742 111.705 42.2306 112.878 44.8949 113.625C47.8773 114.478 50.9677 114.904 54.0071 115.384C57.6316 115.969 61.1991 116.608 64.8235 117.196C66.5818 117.463 68.34 117.727 70.0442 118.048C70.3653 118.102 70.7373 118.207 71.0043 118.474C71.3254 118.792 71.2174 119.326 71.1634 119.698C71.0043 120.55 70.7373 121.403 70.5243 122.204C68.553 128.916 55.2853 160.993 54.8592 161.737C54.8052 161.791 54.9642 161.896 54.9642 161.791C58.2677 155.877 67.9109 131.1 70.0952 124.76C70.6293 123.161 71.1604 121.511 71.5324 119.806C71.6404 119.326 71.6914 118.633 71.1604 118.207H71.1634Z" fill="black"/>
<path d="M131.264 189.976C130.037 190.402 95.3527 189.871 94.0746 189.07C93.5405 188.59 93.1684 184.168 92.8504 178.626L86.8286 154.917L109.155 154.758L115.707 178.254C115.707 178.254 120.502 180.279 124.712 182.25C127.322 183.478 129.56 184.594 130.04 185.02C131.372 186.085 132.438 189.547 131.267 189.973L131.264 189.976Z" fill="#EB9482"/>
<path d="M131.957 189.975C130.679 190.401 94.9266 190.242 93.5434 189.336C93.0093 189.015 92.7453 183.795 92.5833 177.509V177.296L115.653 177.137V177.509C115.653 177.509 129.347 183.69 130.733 184.809C132.119 185.979 133.185 189.549 131.957 189.975Z" fill="#30302F"/>
<path d="M131.585 188.589C125.564 188.43 101.215 188.271 95.2477 188.538C95.1937 188.538 95.1937 188.589 95.2477 188.589C101.215 188.91 125.564 188.856 131.585 188.697C131.69 188.697 131.69 188.589 131.585 188.589Z" fill="white"/>
<path d="M119.968 178.306C117.571 177.826 114.693 178.198 112.881 179.906C112.827 179.96 112.881 180.065 112.989 180.065C115.332 179.321 117.517 178.892 119.968 178.624C120.127 178.573 120.127 178.306 119.968 178.306Z" fill="white"/>
<path d="M121.675 179.322C119.278 178.842 116.4 179.214 114.588 180.921C114.537 180.975 114.588 181.08 114.696 181.08C117.039 180.336 119.224 179.91 121.675 179.64C121.834 179.586 121.834 179.373 121.675 179.322Z" fill="white"/>
<path d="M117.892 177.4H91.8392C91.8392 177.4 80.7047 133.177 78.7334 130.675C76.1231 127.318 39.3053 127.372 31.4202 116.447C24.3333 106.591 30.3011 92.6842 30.3011 92.6842L58.1658 91.832C58.1658 91.832 57.3136 96.2546 55.6094 100.569C55.6094 100.569 89.1778 106.75 98.554 117.032C104.894 124.011 117.895 177.4 117.895 177.4H117.892Z" fill="#21409A"/>
<path d="M60.4549 98.7061C59.6568 98.8651 58.8557 99.1832 58.1116 99.4502C57.3135 99.7683 56.5124 100.089 55.7683 100.464C54.2231 101.208 52.7859 102.064 51.3457 102.967C51.2917 103.021 51.3457 103.075 51.3997 103.021C52.8909 102.223 54.4361 101.529 56.0354 100.89C56.7824 100.569 57.5265 100.251 58.2736 99.9303C59.0207 99.6122 59.8188 99.3452 60.5659 98.9162C60.62 98.8621 60.566 98.7031 60.4579 98.7031L60.4549 98.7061Z" fill="#37474F"/>
<path d="M58.8018 91.8325C58.4808 93.1106 58.2168 94.3888 57.8417 95.616C57.6827 96.2011 57.5207 96.7891 57.3076 97.3232C57.1486 97.8033 56.8276 98.3343 56.2965 98.4423C55.6574 98.5504 55.4984 98.0163 55.5494 97.4822C55.6034 96.8971 55.7624 96.3091 55.8704 95.724C55.9785 95.0849 56.1375 94.3918 56.2425 93.7527C56.2965 93.4347 56.3505 93.1136 56.4015 92.7416C56.4015 92.6336 56.4555 92.0485 56.5065 91.8355C56.5065 91.8355 56.5065 91.8895 56.5605 91.8895C56.5605 91.8895 56.6145 91.8895 56.6145 91.8355C56.6145 91.7815 56.6145 91.7815 56.5605 91.7305H56.5065C56.4015 91.7845 56.4015 91.9435 56.3475 92.1025C56.2395 92.4236 56.1345 92.7416 56.0265 93.0626C55.8674 93.6477 55.6544 94.2868 55.5464 94.8749C55.3874 95.46 55.2254 96.099 55.0663 96.6871C54.9613 97.1672 54.7993 97.6472 54.9613 98.0733C55.1203 98.6074 55.4954 98.8714 55.9725 98.8714C55.9725 98.9254 55.9185 98.9794 55.9185 98.9794C55.8644 99.0874 55.8134 99.2465 55.7594 99.3515C55.7054 99.4565 55.6514 99.6185 55.6514 99.7235C55.6514 99.7775 55.5974 99.8315 55.5974 99.9365V100.15C55.5974 100.258 55.7564 100.309 55.8104 100.204C55.8644 100.15 55.9155 100.096 55.9155 100.045C55.9695 99.9906 55.9695 99.8855 56.0235 99.8315C56.0775 99.7235 56.0775 99.5645 56.1315 99.4595C56.1855 99.3515 56.1855 99.1925 56.2365 99.0874V98.8744C56.5035 98.8744 56.7706 98.7664 56.9836 98.6074C57.3556 98.3403 57.5687 97.8603 57.7307 97.4342C57.9437 96.9031 58.0517 96.3691 58.2108 95.835C58.5828 94.5028 58.9038 93.1167 59.0089 91.7335C59.0089 91.7875 58.7958 91.7335 58.7958 91.8385L58.8018 91.8325Z" fill="#37474F"/>
<path d="M115.173 172.765C114.48 172.66 113.787 172.66 113.097 172.66C112.353 172.606 111.657 172.606 110.913 172.552C109.472 172.498 108.035 172.498 106.595 172.498C103.667 172.498 100.786 172.498 97.8579 172.552C96.3667 172.552 93.1143 172.606 92.9043 172.66C92.7963 172.714 92.8503 172.819 92.9043 172.819C95.7817 172.978 98.659 173.032 101.533 173.086C104.411 173.14 107.288 173.191 110.166 173.14C110.967 173.14 111.765 173.086 112.563 173.086C113.415 173.086 114.267 173.086 115.068 172.978C115.227 172.87 115.281 172.765 115.173 172.765Z" fill="black"/>
<path d="M81.7668 131.047C81.4487 130.303 81.2327 129.448 80.7016 128.809C80.1675 128.17 79.3694 127.903 78.5683 127.69C71.6434 125.772 64.4485 124.92 57.4156 123.588C53.9531 122.949 50.4907 122.151 47.1332 121.086C43.7758 120.021 40.3673 118.634 37.3819 116.717C35.8907 115.757 34.6636 114.479 33.8115 112.934C33.0134 111.494 32.4793 109.843 32.1072 108.193C31.3091 104.464 31.3601 100.521 32.1072 96.7376C32.3203 95.7775 32.5333 94.8714 32.8003 93.9682C32.8003 93.9142 32.7463 93.9142 32.6953 93.9682C31.4172 97.5927 30.8291 101.481 31.1501 105.316C31.4172 108.673 32.2153 112.19 34.3995 114.854C35.4647 116.186 36.9049 117.146 38.3961 117.998C39.9953 118.85 41.6455 119.649 43.2987 120.291C46.5481 121.623 49.9596 122.529 53.422 123.327C60.455 124.872 67.6469 125.67 74.6798 127.216C75.5319 127.429 76.438 127.591 77.2902 127.855C78.1423 128.068 79.1024 128.227 79.8495 128.653C80.7016 129.187 80.9686 130.198 81.2867 131.05C81.6617 132.01 92.9552 170.319 93.2223 171.276C93.2763 171.435 93.4893 171.384 93.4353 171.222C92.4241 167.331 82.5139 132.913 81.7668 131.05V131.047Z" fill="white"/>
<path d="M79.6906 132.059C79.4235 131.207 79.2105 130.301 78.4124 129.821C77.6653 129.341 66.4768 127.796 65.2527 127.637C65.1987 127.637 65.1447 127.691 65.2527 127.745C66.3178 127.904 76.6032 129.77 77.5063 130.088C77.8783 130.196 78.2504 130.406 78.5174 130.727C78.8384 131.153 78.9435 131.633 79.1025 132.113C79.4205 133.124 79.7416 134.085 80.0626 135.096C80.7017 137.121 81.3408 139.092 81.9289 141.118C82.622 143.41 83.42 145.804 84.0051 148.096C84.0591 148.255 84.3262 148.204 84.2722 147.988C83.4711 143.674 80.0086 133.124 79.6906 132.059Z" fill="black"/>
<path d="M55.7115 100.678C60.8272 101.263 65.9399 102.382 70.8965 103.768C75.9042 105.208 80.8068 106.967 85.5475 109.097C88.2118 110.27 90.7681 111.656 93.3275 113.039C93.3815 113.093 93.3275 113.144 93.2735 113.093C88.6919 110.696 83.8972 108.617 78.9946 106.859C74.146 105.1 69.1923 103.66 64.1306 102.544C61.3073 101.905 58.4299 101.425 55.5525 100.945C55.4985 100.996 55.5525 100.678 55.7115 100.678Z" fill="black"/>
<path d="M54.8083 68.3358C57.4726 74.1956 67.755 93.1101 74.0948 94.2292C78.2503 94.9763 94.8215 92.684 97.5369 88.6365C98.71 86.8783 96.1507 74.9967 93.9124 75.5818C91.7281 76.1669 78.4634 78.4592 76.8102 78.0331C75.1599 77.6071 62.3182 63.9673 57.5746 60.6638C49.4226 54.9091 53.4191 65.1914 54.8053 68.3358H54.8083Z" fill="#EB9482"/>
<path d="M88.8537 74.89L89.9188 92.8443C89.9188 92.8443 76.8131 95.7757 71.1124 93.8044C64.1875 91.4611 53.9561 69.9873 52.5189 66.4709C50.2266 60.6621 50.8147 57.1456 54.0641 57.9977C55.3423 58.3188 56.9955 59.2759 59.0178 61.0881C61.1481 62.9544 73.3507 74.941 77.1852 77.2333C79.3695 78.5114 88.8537 74.89 88.8537 74.89Z" fill="#FFC829"/>
<path d="M88.8537 74.89L89.9188 92.8443C89.9188 92.8443 76.8131 95.7757 71.1124 93.8044C64.1875 91.4611 53.9561 69.9873 52.5189 66.4709C50.2266 60.6621 50.8147 57.1456 54.0641 57.9977C55.3423 58.3188 56.9955 59.2759 59.0178 61.0881C61.1481 62.9544 73.3507 74.941 77.1852 77.2333C79.3695 78.5114 88.8537 74.89 88.8537 74.89Z" fill="white"/>
<path d="M86.5615 92.2055C86.3485 89.5411 85.7604 78.6707 85.7604 76.3274C85.7604 76.1684 85.8684 76.1144 85.8684 76.2734C86.7745 84.2124 86.5075 89.5411 86.6155 92.1515C86.6665 92.2565 86.5615 92.3105 86.5615 92.2055Z" fill="#263238"/>
<path d="M84.3771 93.8589C80.1166 94.498 74.4158 94.978 71.1124 93.8589C64.1845 91.4616 53.9561 70.0418 52.5189 66.5253C50.2266 60.7166 50.8147 57.2001 54.0641 58.0552C54.1722 58.0552 54.2772 58.1092 54.3852 58.1632L84.3801 93.8619L84.3771 93.8589Z" fill="white"/>
<path d="M63.5455 98.121C62.7474 98.8651 29.02 102.382 28.861 102.172C28.4349 101.532 34.7207 69.8843 48.2555 58.9599C50.6528 57.0426 54.5953 57.8407 56.4076 59.0139C57.3137 59.5989 59.816 64.1295 60.5091 68.1771C61.2022 72.2276 64.0256 97.6409 63.5455 98.121Z" fill="#21409A"/>
<path d="M49.1046 58.1602C49.1046 58.1602 52.7801 77.2877 52.8881 78.0858C52.9931 78.8839 52.4621 100.145 52.4621 100.145L27.4208 103.235C27.4208 103.235 30.2441 92.6317 30.4032 92.1546C30.5622 91.6205 35.8369 74.0922 41.5376 66.2072C46.8123 59.0153 49.1046 58.1632 49.1046 58.1632V58.1602Z" fill="#FFC829"/>
<path d="M46.8423 59.9154C48.3935 58.4272 49.1076 58.1602 49.1076 58.1602C49.1076 58.1602 52.783 77.2877 52.8911 78.0858C52.9961 78.8839 52.465 100.145 52.465 100.145L27.4237 103.235C27.4237 103.235 30.2471 92.6317 30.4061 92.1546C30.5651 91.6205 35.8398 74.0922 41.5406 66.2072C43.8689 63.0328 45.6151 61.0915 46.8423 59.9154Z" fill="white"/>
<path d="M56.8845 59.2793C56.8845 59.2793 59.3898 76.2765 59.4949 77.3417C59.5489 78.4068 61.4661 99.0795 61.4661 99.0795L64.5565 97.9064C64.5565 97.9064 62.8523 84.4796 62.6393 83.3064C62.4262 82.1333 60.9891 69.6667 60.455 67.3234C59.6029 63.5939 56.8845 59.2793 56.8845 59.2793Z" fill="#FFC829"/>
<path d="M56.8845 59.2793C56.8845 59.2793 59.3898 76.2765 59.4949 77.3417C59.5489 78.4068 61.4661 99.0795 61.4661 99.0795L64.5565 97.9064C64.5565 97.9064 62.8523 84.4796 62.6393 83.3064C62.4262 82.1333 60.9891 69.6667 60.455 67.3234C59.6029 63.5939 56.8845 59.2793 56.8845 59.2793Z" fill="white"/>
<path d="M88.1067 92.3931L67.329 94.4694L74.3079 66.8178L95.0886 64.6875L88.1097 92.3931H88.1067Z" fill="#1F4698"/>
<path d="M95.4066 69.7734C96.5798 72.0117 99.4031 74.7271 99.7212 76.5393C99.9882 78.1895 98.602 78.8316 98.602 78.8316C98.602 78.8316 100.468 79.6837 100.468 81.388C100.468 82.2941 99.0281 83.0382 99.0281 83.0382C99.0281 83.0382 100.519 83.7853 100.414 85.3305C100.36 86.5546 98.9231 87.1427 98.9231 87.1427C98.9231 87.1427 99.9882 88.5289 99.5082 89.7531C98.548 92.2044 88.1067 92.6304 86.2944 88.8469C85.4423 87.0887 88.0527 87.1427 88.0527 87.1427C88.0527 87.1427 84.3772 86.1826 84.2182 84.0523C84.0591 81.922 87.4166 82.1351 87.4166 82.1351C87.4166 82.1351 83.8461 81.1749 83.9511 78.9396C84.0051 76.5963 87.3086 77.3944 87.3086 77.3944C87.3086 77.3944 84.9112 75.9032 85.3913 74.199C86.1384 71.3756 90.666 74.6791 92.9583 74.04L94.0775 70.2025L95.4096 69.7764L95.4066 69.7734Z" fill="#FAAF86"/>
<path d="M97.6449 72.9724C96.7388 70.7881 99.4032 67.9107 98.8181 65.6724C98.02 62.636 94.7165 65.7804 94.1315 70.254L94.2905 73.7705L97.6479 72.9724H97.6449Z" fill="#FAAF86"/>
<path d="M41.4325 65.2454C31.3632 76.5929 20.1207 95.6694 25.0743 99.6629C29.6019 103.287 45.9601 99.6119 56.1914 95.4534C58.1627 94.6553 53.5811 77.232 51.4508 77.8171C47.7213 78.8822 41.8075 81.3876 41.5405 81.4416C40.9554 81.6006 43.6708 74.8347 46.9742 66.6286C50.6497 57.5164 47.1872 58.7976 41.4325 65.2424V65.2454Z" fill="#FAAF86"/>
<path d="M73.2937 77.3946C73.1347 78.8858 71.9075 79.4739 71.9075 79.4739C71.9075 79.4739 73.0267 80.272 73.2937 81.6041C73.5607 83.0953 71.3224 84.2145 71.3224 84.2145C71.3224 84.2145 72.2826 85.2796 72.3876 86.6658C72.4956 88.157 70.3623 89.5432 70.3623 89.5432C70.3623 89.5432 70.7344 91.0344 69.9363 92.3126C68.6041 94.4968 55.6034 96.2011 53.7911 96.3631L50.6467 78.1927C50.6467 78.1927 61.7302 72.651 64.6586 73.026C67.2149 73.3981 73.5547 74.7302 73.2907 77.3946H73.2937Z" fill="#F8AF84"/>
<path d="M98.7638 87.3056C98.8148 87.3056 98.8148 87.3597 98.7638 87.3597C95.3524 88.3198 91.3048 88.3708 87.9474 87.1466C87.8394 87.0926 87.8394 86.9336 87.9984 86.9336C91.7279 87.5187 95.0313 87.7317 98.7608 87.3056H98.7638Z" fill="#CC8358"/>
<path d="M99.1358 83.0953C99.1898 83.0953 99.1898 83.1493 99.1358 83.1493C95.6193 84.1604 91.0917 84.0554 87.3592 82.1891C87.2512 82.1351 87.2002 81.9221 87.3592 82.0301C89.9155 83.0953 95.7783 83.5213 99.1358 83.0953Z" fill="#CC8358"/>
<path d="M87.1465 77.182C90.771 78.8352 94.5545 79.1532 98.443 78.8862C98.497 78.8862 98.497 78.9402 98.443 78.9942C96.5767 79.6333 94.0204 79.5283 92.1032 79.2612C90.2369 78.9942 88.5867 78.4091 87.0955 77.29C87.0445 77.29 87.0955 77.131 87.1495 77.182H87.1465Z" fill="#CC8358"/>
<path d="M71.8567 79.4703C69.3003 78.5102 66.4739 78.1921 63.8126 77.8711C63.7586 77.8711 63.7586 77.9761 63.8126 77.9761C66.4769 78.2431 69.1953 79.2003 71.8567 79.5753C71.9107 79.5753 71.9617 79.4673 71.8567 79.4673V79.4703Z" fill="#CC8358"/>
<path d="M71.2176 84.0011C70.6325 83.7881 69.9934 83.7881 69.3513 83.7881C68.7122 83.7341 68.0191 83.7341 67.38 83.6831C66.0479 83.6291 64.7157 83.6291 63.3835 83.6831C63.3295 83.6831 63.3295 83.7881 63.3835 83.7881C64.7157 83.8421 66.0479 83.8961 67.326 83.9471C67.9651 84.0011 68.6582 84.0551 69.2973 84.1061C69.9364 84.1601 70.5755 84.2652 71.1635 84.1601C71.3226 84.2142 71.3226 84.0551 71.2176 84.0011Z" fill="#CC8358"/>
<path d="M70.3115 89.5939C69.8314 89.3809 69.1383 89.4859 68.6072 89.4859H66.795C65.5708 89.4859 64.3977 89.4319 63.1705 89.3809C63.1165 89.3809 63.1165 89.4859 63.1705 89.4859C64.3947 89.5399 65.6218 89.6449 66.846 89.6989C67.4311 89.7529 68.0702 89.7529 68.6582 89.7529C69.1923 89.7529 69.8314 89.8579 70.3084 89.6989C70.3625 89.6449 70.3084 89.5909 70.3084 89.5909L70.3115 89.5939Z" fill="#CC8358"/>
<path d="M46.3892 60.2387C39.0892 64.7663 20.2287 91.3018 23.6912 98.6018C27.1536 105.902 50.7577 97.8547 50.7577 97.8547L48.6785 78.0341C48.6785 78.0341 42.4976 81.5505 42.2846 81.2325C42.0716 80.9114 45.6931 71.8563 47.1873 68.1778C48.6244 64.5023 50.2777 57.8414 46.3892 60.2387Z" fill="#FFC829"/>
<path d="M46.3892 60.2387C39.0892 64.7663 20.2287 91.3018 23.6912 98.6018C27.1536 105.902 50.7577 97.8547 50.7577 97.8547L48.6785 78.0341C48.6785 78.0341 42.4976 81.5505 42.2846 81.2325C42.0716 80.9114 45.6931 71.8563 47.1873 68.1778C48.6244 64.5023 50.2777 57.8414 46.3892 60.2387Z" fill="white"/>
<path d="M36.5209 70.5332C32.8154 75.8109 21.2129 92.5981 23.8052 98.6649C24.1022 99.292 24.5763 99.835 25.1434 100.255C24.5433 99.886 24.0182 99.367 23.6762 98.7309C20.5828 92.202 32.1493 75.6489 36.5209 70.5332Z" fill="#21409A"/>
<path d="M47.7724 96.7889C47.3463 94.1785 45.9602 83.3621 45.8011 81.0188C45.8011 80.8598 45.9092 80.8058 45.9092 80.9648C47.4004 88.7958 47.5594 94.1785 47.8804 96.7349C47.8804 96.8429 47.7724 96.8429 47.7724 96.7889Z" fill="#21409A"/>
<path d="M48.5195 78.0878C47.8264 78.3008 47.1873 78.6729 46.5482 78.9939C45.9631 79.2609 45.3751 79.579 44.79 79.9C43.5118 80.5391 42.2846 81.2322 41.0605 81.9253C39.8363 82.6184 38.6092 83.3115 37.385 84.0556C36.1608 84.8027 34.9877 85.5468 33.7605 86.2939C33.7065 86.3479 33.7605 86.4019 33.8145 86.4019C35.0387 85.7088 36.3199 85.0697 37.598 84.4306C38.8222 83.7915 40.0494 83.0984 41.2735 82.4594C42.4977 81.8203 43.7248 81.1272 44.949 80.4881C45.5341 80.1671 46.1221 79.849 46.7612 79.528C47.4003 79.2069 48.0934 78.8349 48.6785 78.4088C48.7835 78.2498 48.6785 78.0368 48.5195 78.0878Z" fill="#21409A"/>
<path d="M46.4432 72.3849C46.0712 72.865 45.6961 73.345 45.3241 73.8761C45.2701 73.9841 45.2191 74.0891 45.111 74.1431C45.2191 73.8761 45.3241 73.6091 45.3781 73.345C45.6991 72.4389 46.1252 71.5328 46.3382 70.5757C46.3382 70.5217 46.2842 70.5217 46.2842 70.5757C45.8041 71.4818 45.4321 72.4419 45.06 73.345C44.688 74.2511 44.2619 75.1573 43.8869 76.1144C43.5148 77.0205 43.1398 77.9806 42.7677 78.8837C42.4467 79.7899 42.0206 80.696 41.8076 81.6531C41.8076 81.7071 41.8616 81.7071 41.9156 81.7071C42.4497 80.855 42.8217 79.8439 43.1938 78.9378C43.5658 78.0316 43.9409 77.0715 44.3129 76.1684C44.472 75.7963 44.634 75.3703 44.739 74.9952C44.793 74.8872 44.847 74.8362 44.952 74.7282C45.111 74.4612 45.2731 74.2481 45.4861 73.9811C45.8581 73.447 46.1792 72.916 46.4462 72.3819L46.4432 72.3849Z" fill="#21409A"/>
<path d="M50.8118 97.4799C50.8118 97.3719 50.7068 97.3209 50.7068 97.4799C50.7068 97.5339 50.7068 97.693 50.6528 97.798C49.8547 98.011 46.9233 98.9171 46.1762 99.1302C44.685 99.5562 43.1398 99.9853 41.5946 100.303C40.0494 100.621 38.5042 100.942 36.959 101.155C35.4138 101.422 33.8686 101.635 32.2694 101.741C32.2154 101.741 32.2154 101.846 32.2694 101.846C33.8686 101.741 35.4648 101.741 37.01 101.527C38.5552 101.368 40.1004 101.101 41.6456 100.783C43.1908 100.465 44.736 100.036 46.2812 99.6102C47.0283 99.3972 47.8264 99.1302 48.5735 98.8661C49.2666 98.5991 50.0647 98.3861 50.7038 98.014C50.7578 97.96 50.7578 97.906 50.7578 97.855C50.8118 97.696 50.8118 97.588 50.8118 97.4829V97.4799Z" fill="#263238"/>
<path d="M55.2853 64.3947C53.3141 64.8208 50.0647 61.7844 48.7865 59.3871C48.6785 59.2281 49.4796 52.6722 49.5336 51.343C49.5336 51.076 57.7907 53.4733 57.7907 53.4733C57.7907 53.4733 56.9386 56.2427 56.8846 58.535C56.8846 58.694 57.2056 63.9687 55.2853 64.3947Z" fill="#FAAF86"/>
<path d="M57.7907 53.4689C57.7907 53.5229 57.7367 53.6819 57.6317 53.9489C57.5237 54.375 57.3106 55.1221 57.1516 55.9202C56.9926 56.7183 56.8846 57.6784 56.8846 58.5305V59.1696C56.6176 59.2236 56.3505 59.2236 56.0865 59.2236C51.6099 59.0646 50.1727 53.5229 49.8007 51.3926C49.8547 51.3926 49.9087 51.3926 49.9597 51.4466C50.1727 51.5006 50.4397 51.5546 50.8118 51.6056C50.9198 51.6056 50.9708 51.6596 51.0788 51.6596C51.6129 51.8186 52.303 51.9807 52.9451 52.1397C53.1581 52.1937 53.3711 52.2477 53.6382 52.3527C54.1182 52.5117 54.5983 52.6197 55.0783 52.7788C55.2914 52.8328 55.4504 52.8838 55.6634 52.9378C55.8765 52.9918 56.0895 53.0458 56.2485 53.0968C56.3535 53.1508 56.4075 53.1508 56.5155 53.1508C56.5695 53.1508 56.6206 53.2048 56.6206 53.2048C56.8876 53.2588 57.1006 53.3638 57.3136 53.4178C57.4727 53.4719 57.5807 53.4719 57.6347 53.5229C57.6887 53.4178 57.7427 53.4178 57.7937 53.4689C57.7577 53.4689 57.7577 53.4689 57.7937 53.4689H57.7907Z" fill="#CC8358"/>
<path d="M62.1593 51.7109C61.9463 53.1481 61.5742 54.3753 60.9351 55.1734C58.3248 58.5818 53.4221 57.8917 50.5988 54.9063C49.8007 54.0002 49.1616 51.9749 48.7865 49.6316C48.3065 46.5412 48.3065 43.0788 48.9996 41.4256C50.7038 37.216 56.8306 35.9378 60.029 38.7612C61.7332 40.2524 62.8524 47.0723 62.1593 51.7079V51.7109Z" fill="#FAAF86"/>
<path d="M61.3611 42.2303C58.4297 44.3096 54.3822 41.2702 54.3822 41.2702C53.476 43.5625 51.1327 43.3495 51.1327 43.3495C51.1327 43.3495 50.5987 48.3571 49.2665 48.3571C47.2412 48.3571 46.5481 41.5912 47.1872 40.205C47.8263 38.8729 49.4795 38.5008 49.4795 38.5008C49.4795 38.5008 49.5845 37.4897 50.8117 36.5296C52.1979 35.4644 56.9385 36.8506 56.9385 36.8506C56.9385 36.8506 57.2595 35.9445 58.1117 35.2004C58.6457 34.7203 59.4438 34.8283 59.9239 35.3594C59.7109 35.6804 59.5518 36.1065 59.4438 36.5836C59.2308 38.0208 60.4039 38.0208 60.4039 36.6916C60.4039 36.1065 60.1909 35.6264 59.9239 35.3054C60.509 34.4533 61.4691 34.1322 62.0542 34.6123C63.1733 35.4104 63.8124 40.5261 61.3611 42.2303Z" fill="black"/>
<path d="M50.3317 48.4618C50.3317 48.4618 48.5735 45.5844 47.2953 46.2235C46.0172 46.8086 47.1873 50.8591 48.6275 51.4982C50.0647 52.1373 50.6528 50.8051 50.6528 50.8051L50.3317 48.4618Z" fill="#FAAF86"/>
<path d="M47.7213 47.3965C47.6853 47.3965 47.6853 47.3965 47.7213 47.3965C48.6815 47.9306 49.1585 48.8877 49.4796 49.9018C49.2125 49.5298 48.7865 49.2627 48.2554 49.5808C48.2014 49.5808 48.2554 49.6348 48.2554 49.6348C48.6815 49.5808 49.0025 49.6888 49.2155 50.0068C49.3746 50.2739 49.5366 50.5409 49.6416 50.8589C49.6956 50.9669 49.8546 50.9129 49.8006 50.8049C49.9596 49.4728 49.1075 47.6095 47.7213 47.3965Z" fill="black"/>
<path d="M56.2994 46.5449C55.3393 46.5989 55.5013 48.4622 56.4045 48.4112C57.2026 48.4112 57.0975 46.5449 56.2994 46.5449Z" fill="black"/>
<path d="M60.722 46.2772C61.6281 46.1182 61.8952 47.9814 60.9891 48.1404C60.1369 48.2485 59.9239 46.3822 60.722 46.2772Z" fill="black"/>
<path d="M55.4983 45.7476C55.7654 45.6396 55.9784 45.5346 56.1914 45.4266C56.4585 45.3185 56.6715 45.2135 56.8305 44.9465C56.9385 44.7875 56.8305 44.5744 56.7225 44.4664C56.4015 44.2534 56.0834 44.3074 55.7114 44.4664C55.3393 44.6254 55.1263 44.8385 54.9133 45.1595C54.8082 45.5316 55.1803 45.9066 55.4983 45.7446V45.7476Z" fill="black"/>
<path d="M61.3611 45.266C61.0941 45.266 60.881 45.158 60.614 45.158C60.347 45.104 60.0799 45.104 59.8669 44.8909C59.7589 44.7859 59.7589 44.5189 59.8669 44.4109C60.0799 44.1438 60.452 44.0898 60.827 44.1439C61.1991 44.1979 61.4661 44.3569 61.7331 44.6239C61.9462 44.8909 61.6791 45.317 61.3611 45.263V45.266Z" fill="black"/>
<path d="M58.5887 52.0871C58.5887 52.0871 58.0037 53.0472 57.0975 53.4193C56.7765 53.5783 56.4045 53.6323 56.0324 53.5783C55.2343 53.4193 55.1803 52.7262 55.2343 52.0871C55.2883 51.553 55.5013 51.127 55.5013 51.127C55.5013 51.127 56.7255 52.0871 58.5917 52.0871H58.5887Z" fill="black"/>
<path d="M57.0975 53.4181C56.7765 53.5771 56.4045 53.6311 56.0324 53.5771C55.2343 53.4181 55.1803 52.725 55.2343 52.0859C56.0864 52.0859 56.9385 52.62 57.1005 53.4181H57.0975Z" fill="#E871A6"/>
<path d="M58.5377 45.7983C58.9098 46.6504 59.4979 47.9286 59.8699 48.7807C59.9239 48.9397 60.242 49.5788 60.296 49.6868C60.776 50.752 59.4979 51.073 58.6968 51.286C58.6428 51.286 58.6428 51.232 58.6428 51.232C58.9098 50.911 59.2278 50.647 59.6029 50.4339C59.7109 50.3799 59.7109 50.3259 59.7619 50.2209C59.8699 50.0619 59.7079 49.8488 59.6539 49.6868L59.4409 48.8887C59.1738 47.9826 58.7478 46.7044 58.5347 45.7983C58.4807 45.7443 58.5347 45.7443 58.5347 45.7983H58.5377Z" fill="black"/>
<path d="M48.3064 76.5946C48.2524 76.5946 48.1984 76.5946 48.1474 76.4896C48.0934 76.3816 48.0934 76.2765 48.2014 76.2225C48.2554 76.2225 50.6527 74.4643 50.1187 65.8322C50.1187 65.7242 50.1727 65.6191 50.2777 65.6191C50.3827 65.6191 50.4367 65.6731 50.4907 65.7782C51.0248 74.6773 48.5195 76.4356 48.4114 76.4866C48.3574 76.5916 48.3064 76.5916 48.3064 76.5916V76.5946Z" fill="#A6B3D7"/>
<path d="M48.2524 76.594L47.9854 76.648C47.8804 76.648 47.7723 76.594 47.7723 76.435C47.7723 76.327 47.8264 76.222 47.9854 76.222L48.2524 76.168C48.3604 76.168 48.4654 76.222 48.4654 76.381C48.4654 76.486 48.3574 76.594 48.2524 76.594Z" fill="#13A79F"/>
<path d="M51.6099 76.0092H51.5019C48.7325 74.9441 47.1333 66.633 47.0253 66.2579C47.0253 66.1499 47.0793 66.0449 47.1843 66.0449C47.2893 66.0449 47.3973 66.0989 47.3973 66.2039C47.3973 66.309 49.0475 74.674 51.6069 75.6342C51.7119 75.6882 51.7659 75.7932 51.7119 75.8472C51.7659 75.9552 51.7119 76.0062 51.6069 76.0062L51.6099 76.0092Z" fill="#A6B3D7"/>
<path d="M51.931 76.0081L51.664 76.0621C51.5559 76.0621 51.4509 76.0081 51.4509 75.8491C51.4509 75.741 51.5049 75.636 51.664 75.636L51.931 75.582C52.036 75.582 52.144 75.636 52.144 75.7951C52.144 75.8491 52.036 75.9541 51.931 76.0081Z" fill="#13A79F"/>
<path d="M48.4145 63.7548C48.3095 63.7548 48.2015 63.7008 48.2015 63.5958C48.0934 63.0107 47.1903 57.736 48.8945 57.2019C48.9996 57.1479 49.1076 57.2019 49.1616 57.361C49.2156 57.469 49.1616 57.574 49.0026 57.628C47.9914 57.949 48.2555 61.4115 48.6305 63.5418C48.6305 63.6498 48.5765 63.7548 48.4175 63.7548H48.4145Z" fill="#30302F"/>
<path d="M47.2952 66.4711C47.1872 66.4711 47.0822 66.4171 47.0822 66.3121C47.0822 66.2581 46.8152 64.9259 47.4542 64.1278C47.7213 63.8068 48.0933 63.5938 48.5734 63.5938C49.1075 63.5938 49.5335 63.7018 49.8516 64.0198C50.5447 64.6589 50.4906 65.832 50.4906 65.8831C50.4906 65.9911 50.3826 66.0961 50.2776 66.0961C50.1726 66.0961 50.0646 65.9881 50.0646 65.8831C50.0646 65.8831 50.1186 64.8719 49.5305 64.3379C49.3175 64.1248 48.9964 64.0168 48.5704 64.0168C48.1983 64.0168 47.9313 64.1758 47.7183 64.3889C47.2382 65.0279 47.4513 66.2011 47.4513 66.2551C47.5053 66.3091 47.3972 66.4681 47.2922 66.4681L47.2952 66.4711Z" fill="#21409A"/>
<path d="M59.4529 74.1487C60.245 73.3566 60.245 72.0754 59.4529 71.2863C58.6608 70.4972 57.3796 70.4942 56.5905 71.2863C55.8014 72.0784 55.7984 73.3596 56.5905 74.1487C57.3826 74.9408 58.6638 74.9408 59.4529 74.1487Z" fill="#CCD5E4"/>
<path d="M58.0578 72.2257C57.8988 72.2257 57.8448 72.0667 57.8448 71.9586C59.9751 60.4491 57.0467 58.1058 56.9927 58.1058C56.8847 58.0518 56.8847 57.8928 56.9387 57.7848C56.9927 57.6768 57.1517 57.6768 57.2597 57.7308C57.3677 57.8358 60.4551 60.2361 58.2708 72.0097C58.2708 72.1177 58.1628 72.2227 58.0578 72.2227V72.2257Z" fill="#30302F"/>
<path d="M58.9099 72.759C58.9099 73.293 58.4838 73.7191 57.9498 73.7191C57.4157 73.7191 56.9896 73.293 56.9896 72.759C56.9896 72.2249 57.4157 71.7988 57.9498 71.7988C58.4838 71.7988 58.9099 72.2249 58.9099 72.759Z" fill="#95A1B6"/>
<path d="M172.823 96.8945H133.248V188.536H172.823V96.8945Z" fill="#A6B3D7"/>
<path d="M172.775 96.8945H167.767V188.536H172.775V96.8945Z" fill="#8D98B2"/>
<path d="M118.264 177.242C115.866 176.762 112.989 177.134 111.177 178.841C111.123 178.895 111.177 179 111.285 179C113.628 178.253 115.812 177.827 118.264 177.56C118.423 177.506 118.423 177.293 118.264 177.242Z" fill="white"/>
<path d="M121.354 172.073C120.448 170.795 118.69 171.38 117.679 172.181C116.079 173.513 114.642 175.589 114.003 177.614C114.003 177.65 114.021 177.685 114.057 177.719C114.057 177.878 114.216 178.094 114.429 178.04C116.4 177.347 118.585 176.813 120.289 175.481C121.249 174.683 122.26 173.297 121.354 172.073ZM117.198 176.282C116.238 176.654 115.281 176.975 114.321 177.401C115.065 176.336 115.707 175.271 116.559 174.311C116.931 173.831 117.357 173.351 117.838 172.979C118.531 172.34 121.354 171.008 120.928 173.564C120.661 175.001 118.372 175.856 117.198 176.282Z" fill="white"/>
<path d="M107.981 176.975C109.952 177.827 112.191 177.773 114.267 177.986C114.48 177.986 114.585 177.773 114.534 177.614C114.588 177.614 114.588 177.56 114.588 177.506C113.469 175.748 111.552 174.044 109.685 173.138C108.512 172.604 106.703 172.445 106.115 173.936C105.581 175.376 106.859 176.492 107.981 176.972V176.975ZM106.916 175.271C105.851 172.874 108.887 173.459 109.739 173.939C110.274 174.206 110.805 174.578 111.285 174.953C112.35 175.697 113.256 176.603 114.213 177.404C113.199 177.245 112.188 177.137 111.177 177.032C109.952 176.873 107.501 176.606 106.913 175.274L106.916 175.271Z" fill="white"/>
<path d="M77.6653 169.943C77.0262 168.503 75.2139 168.662 74.0408 169.25C72.1776 170.21 70.3653 171.968 69.3002 173.726C69.3002 173.78 69.3002 173.834 69.3542 173.834C69.3002 173.993 69.4622 174.207 69.6752 174.207C71.7545 173.939 73.9928 173.888 75.91 172.982C77.0292 172.502 78.2533 171.332 77.6683 169.946L77.6653 169.943ZM72.7116 173.141C71.7005 173.3 70.6864 173.408 69.6752 173.618C70.5813 172.766 71.4875 171.809 72.4986 171.062C72.9787 170.69 73.5127 170.318 74.0438 169.997C74.8989 169.517 77.8813 168.824 76.9212 171.275C76.3361 172.607 73.8848 172.979 72.7116 173.141Z" fill="white"/>
<path d="M63.5454 171.86C65.2496 173.087 67.4879 173.567 69.4592 174.203C69.6722 174.257 69.8312 174.095 69.8312 173.885C69.8852 173.885 69.8852 173.831 69.8852 173.777C69.1381 171.806 67.701 169.781 66.0477 168.502C65.0366 167.704 63.2784 167.17 62.3723 168.502C61.5201 169.727 62.5313 171.113 63.5454 171.86ZM62.8523 169.943C62.3182 167.332 65.1956 168.61 65.8887 169.25C66.3688 169.622 66.7948 170.102 67.2209 170.582C68.073 171.542 68.7661 172.607 69.5642 173.618C68.6041 173.246 67.6469 172.925 66.6328 172.607C65.5137 172.181 63.1704 171.38 62.8493 169.943H62.8523Z" fill="white"/>
<path d="M67.329 96.8945H26.3556V188.536H67.329V96.8945Z" fill="#A6B3D7"/>
<path d="M172.826 96.8945V109.628H67.1339V188.563H64.8956V96.9185H67.1159V96.8945H172.826Z" fill="#8D98B2"/>
<path d="M73.3178 96.8221C70.8904 96.9421 67.368 97.0651 64.8987 97.1251L65.1057 96.9181C65.1447 98.7903 65.1537 101.515 65.1657 103.417C65.1867 109.856 65.1327 116.481 64.8957 122.914C64.6226 115.401 64.5896 107.687 64.6466 100.165C64.6556 99.0124 64.6676 97.8572 64.6916 96.7051H64.8927C67.371 96.7351 70.8724 96.7321 73.3148 96.8191L73.3178 96.8221Z" fill="black"/>
<path d="M216.842 190.735H213.031L193.22 136.197L189.736 126.725H203.343L205.302 136.197L216.839 190.735H216.842Z" fill="#64758B"/>
<path d="M209.248 154.85C211.228 162.885 212.962 171.076 214.405 179.225C212.425 171.19 210.694 162.999 209.248 154.85Z" fill="black"/>
<path d="M205.302 136.199H193.22L189.736 126.727H203.343L205.302 136.199Z" fill="#334154"/>
<path d="M138.849 190.167C140.071 190.503 181.053 189.867 182.409 189.192C182.952 188.967 183.498 184.19 183.633 179.029L177.453 179.11L154.599 179.617V179.953C154.599 179.953 141.295 185.117 139.939 186.011C138.579 186.908 137.631 189.825 138.849 190.161V190.167Z" fill="#30302F"/>
<path d="M152.177 180.071C154.484 179.621 157.335 179.957 159.099 181.304C159.099 181.304 159.099 181.418 158.964 181.418C156.657 180.857 154.484 180.518 152.042 180.407C151.907 180.296 151.907 180.071 152.177 180.071Z" fill="white"/>
<path d="M150.551 180.966C152.858 180.516 155.709 180.852 157.473 182.199C157.473 182.199 157.473 182.313 157.338 182.313C155.031 181.752 152.858 181.413 150.416 181.302C150.281 181.191 150.281 180.966 150.551 180.966Z" fill="white"/>
<path d="M148.787 181.751C151.094 181.301 153.944 181.637 155.709 182.984C155.709 182.984 155.709 183.098 155.574 183.098C153.266 182.537 151.094 182.198 148.652 182.087C148.652 182.087 148.652 181.751 148.787 181.751Z" fill="white"/>
<path d="M157.197 115.83C154.41 117.858 153.317 179.624 153.317 179.624L183.894 179.03L176.51 138.186L171.68 112.887C164.425 113.964 158.253 115.068 157.197 115.836H157.2L157.197 115.83Z" fill="#1B417F"/>
<path d="M179.082 152.412C177.717 146.489 176.673 140.461 175.796 134.451C177.219 140.356 178.263 146.39 179.082 152.412Z" fill="black"/>
<path d="M170.213 129.566C170.552 131.46 170.858 133.365 171.185 135.261L172.103 140.965C172.709 144.769 173.27 148.577 173.855 152.378C174.401 156.189 174.968 159.996 175.493 163.81L176.27 169.532C176.513 171.443 176.768 173.348 176.993 175.262C176.654 173.369 176.348 171.464 176.021 169.568L175.103 163.864C174.5 160.059 173.936 156.252 173.351 152.45C172.808 148.64 172.238 144.832 171.713 141.019L170.936 135.297C170.693 133.386 170.438 131.481 170.213 129.566Z" fill="white"/>
<path d="M174.578 128.072C172.433 128.792 170.543 130.755 169.439 131.97C169.433 131.97 169.43 131.976 169.427 131.979C169.108 132.246 168.838 132.573 168.601 132.945C167.911 134.004 167.452 135.387 166.84 136.534C165.913 138.268 160.023 152.01 159.75 152.655L166.642 131.988C167.713 130.059 169.664 128.774 171.863 128.558C172.643 128.483 173.456 128.336 174.575 128.066L174.578 128.072Z" fill="black"/>
<path d="M182.82 126.26L179.337 135.732L159.525 190.27H155.715L167.254 135.732L169.325 126.26H182.823H182.82Z" fill="#64758B"/>
<path d="M178.446 138.18C175.277 147.697 171.815 157.232 168.133 166.563C171.299 157.043 174.764 147.511 178.446 138.18Z" fill="black"/>
<path d="M169.321 126.26H182.82L179.337 135.732H167.254L169.324 126.26H169.321Z" fill="#334154"/>
<path d="M213.262 129.172H164.605C162.973 129.172 161.664 127.867 161.664 126.232C161.664 124.597 162.97 123.292 164.605 123.292H208.366L214.57 87.5868C214.897 85.9546 216.314 84.9735 217.946 85.1925C219.581 85.5196 220.559 86.9357 220.34 88.568L213.265 129.172H213.262Z" fill="#64758B"/>
<path d="M209.641 115.942C210.49 109.437 211.624 102.899 213.022 96.4902C212.176 102.995 211.036 109.533 209.641 115.942Z" fill="black"/>
<path d="M180.441 89.3998C180.441 89.3998 180.435 89.4148 180.435 89.4178C178.83 94.9805 177.21 99.2261 175.976 100.525C173.285 103.478 159.552 108.656 154.845 110.244C154.023 110.52 153.473 110.691 153.308 110.718C152.045 110.931 150.56 107.579 149.45 103.802C149.42 103.706 149.393 103.607 149.363 103.511C148.682 101.146 148.16 98.647 147.935 96.7777C147.734 95.0915 147.773 93.9184 148.166 93.8104C149.225 93.5583 150.629 93.1623 152.177 92.6882C157.608 91.029 164.863 88.4096 165.568 87.6055C165.934 87.1375 166.876 85.5623 168.298 83.183C168.298 83.177 168.304 83.171 168.31 83.168L172.547 85.3132L180.435 89.3998H180.441Z" fill="#F8A9A0"/>
<path d="M154.857 110.291C153.002 111.107 142.732 115.809 139.957 116.139C137.181 116.472 129.323 116.682 128.939 114.587C128.552 112.493 130.772 112.256 130.772 112.256C130.772 112.256 127.367 111.851 127.115 109.769C126.866 107.686 130.463 107.416 130.463 107.416C130.463 107.416 127.079 106.738 126.968 104.668C126.854 102.598 130.544 102.886 130.544 102.886C130.544 102.886 127.421 102.367 128.105 100.63C128.96 98.4963 134.613 100.038 137.55 99.4444C138.243 99.3604 151.028 95.9609 151.028 95.9609L154.86 110.288L154.857 110.291Z" fill="#F8A9A0"/>
<path d="M153.05 92.9545C153.05 92.9545 147.815 91.3073 145.504 90.9892C143.044 90.7972 133.641 93.2245 134.025 95.3188C134.505 97.9681 140.311 97.5991 143.098 97.128C143.098 97.128 144.268 103.273 148.484 103.876C152.552 104.608 153.053 92.9575 153.053 92.9575L153.05 92.9545Z" fill="#F8A9A0"/>
<path d="M136.425 97.1936C136.98 97.2746 137.538 97.3136 138.093 97.3286C138.651 97.3406 139.207 97.3346 139.762 97.3076C140.317 97.2716 140.869 97.2386 141.418 97.1576C141.967 97.0916 142.513 97.0016 143.056 96.8966L143.281 96.8516L143.332 97.0886C143.527 98.0007 143.848 98.9188 144.259 99.7679C144.673 100.62 145.201 101.412 145.873 102.06C146.554 102.699 147.395 103.158 148.325 103.323C149.255 103.497 150.23 103.389 151.172 103.155C150.941 103.233 150.716 103.329 150.482 103.395C150.245 103.455 150.011 103.527 149.768 103.56C149.285 103.653 148.784 103.668 148.286 103.617C147.788 103.572 147.296 103.425 146.837 103.218C146.38 103.011 145.948 102.729 145.573 102.393C144.817 101.724 144.244 100.878 143.806 99.99C143.584 99.5459 143.404 99.0839 143.245 98.6158C143.089 98.1447 142.954 97.6767 142.864 97.1726L143.14 97.3646C142.582 97.4546 142.021 97.5327 141.46 97.5747C140.896 97.6227 140.332 97.6407 139.768 97.6347C139.204 97.6227 138.642 97.5897 138.081 97.5177C137.523 97.4456 136.965 97.3556 136.428 97.1966L136.425 97.1936Z" fill="#E59B9A"/>
<path d="M130.544 102.883C131.336 102.937 132.123 102.991 132.906 103.033C133.686 103.072 134.469 103.102 135.249 103.105C136.029 103.105 136.806 103.075 137.58 103.015C138.357 102.94 139.126 102.826 139.906 102.664C139.195 103.024 138.42 103.258 137.634 103.408C136.845 103.546 136.044 103.603 135.246 103.609C134.448 103.597 133.65 103.543 132.864 103.423C132.078 103.303 131.297 103.141 130.541 102.88H130.544V102.883Z" fill="#E59B9A"/>
<path d="M130.463 107.42C131.339 107.54 132.212 107.642 133.083 107.732C133.953 107.813 134.823 107.891 135.69 107.897C135.906 107.912 136.122 107.906 136.338 107.903C136.554 107.903 136.77 107.903 136.989 107.888L137.637 107.858C137.85 107.834 138.066 107.81 138.282 107.792C139.137 107.678 139.987 107.498 140.812 107.174C140.086 107.687 139.218 107.996 138.345 108.182C137.466 108.377 136.566 108.41 135.678 108.404C134.784 108.383 133.899 108.284 133.026 108.122C132.155 107.96 131.291 107.741 130.466 107.42H130.463Z" fill="#E59B9A"/>
<path d="M130.772 112.256C132.246 112.154 133.701 112.145 135.153 112.076C135.879 112.055 136.599 112.004 137.322 111.941C138.039 111.866 138.759 111.788 139.468 111.578C138.841 111.986 138.102 112.184 137.379 112.334C136.65 112.481 135.912 112.553 135.174 112.586C134.436 112.61 133.698 112.607 132.963 112.553C132.228 112.499 131.496 112.418 130.772 112.259V112.256Z" fill="#E59B9A"/>
<path d="M185.043 69.0514C183.858 75.9943 182.157 83.4473 180.441 89.4L172.553 85.3105L168.316 83.1652C170.435 79.6188 173.615 74.29 177.545 68.1872C182.085 61.1183 186.514 60.7763 185.04 69.0484H185.043V69.0514Z" fill="#13A79F"/>
<path d="M177.372 71.9883L175.211 86.8132L173.465 87.4133L177.372 71.9883Z" fill="#078D84"/>
<path d="M173.555 109.06C174.608 109.927 210.001 112.127 210.211 111.953C210.841 111.26 212.845 75.5428 193.934 63.0402C190.573 60.7839 185.107 61.651 182.586 63.0402C181.323 63.7333 177.963 68.945 176.913 73.6316C175.862 78.1472 172.922 108.538 173.552 109.057L173.555 109.06Z" fill="#13A79F"/>
<path d="M210.259 98.6894C209.212 89.1871 207.066 79.5228 201.954 71.3228L200.877 69.7266L202.002 71.2898C207.363 79.3638 209.524 89.1421 210.253 98.6864H210.256L210.259 98.6894Z" fill="#078D84"/>
<path d="M184.518 67.2237C186.772 67.7937 190.843 65.1924 192.538 63.0381C192.553 62.8941 192.091 56.4852 192.25 55.1741C192.286 54.883 182.442 56.4822 182.442 56.4822C182.442 56.4822 183.177 59.2306 183.084 61.4359C183.069 61.5799 182.445 66.6716 184.518 67.2237Z" fill="#F8A9A0"/>
<path d="M182.241 56.3377C182.241 56.3377 182.226 56.4817 182.364 56.7968C182.484 57.2558 182.574 58.0029 182.835 58.774C182.922 59.5241 182.973 60.5622 183.06 61.3123L183.045 61.4564L182.991 61.8914C183.345 61.9364 183.696 61.9784 183.87 61.9994C189.187 62.3535 191.272 56.9978 191.875 55.0055L191.701 54.9845C191.527 54.9635 191.155 55.0655 190.804 55.0235L190.45 54.9785C189.73 55.0355 189.004 55.0985 188.089 55.2816C187.915 55.2606 187.543 55.3626 187.369 55.3386C186.823 55.4196 186.277 55.5006 185.731 55.5786C185.557 55.5576 185.185 55.6596 185.011 55.6356C184.837 55.6146 184.464 55.7166 184.29 55.6926C184.29 55.6926 184.113 55.6716 183.936 55.6476L183.762 55.6266C183.408 55.5816 183.216 55.7076 183.042 55.6836C182.619 56.2207 182.442 56.1997 182.25 56.3257V56.3377H182.241Z" fill="#E59B9A"/>
<path d="M194.006 46.6763C194.726 49.5686 191.947 57.6487 189.268 59.0919C185.428 61.2792 179.583 60.8591 177.191 57.0216C174.962 53.3521 178.92 42.9108 181.758 41.6296C186.094 39.7994 192.937 42.2627 194.006 46.6763Z" fill="#F8A9A0"/>
<path d="M183.075 47.7669C184.134 47.8959 183.741 49.6211 182.862 49.5101C181.806 49.3811 182.196 47.6558 183.075 47.7669Z" fill="black"/>
<path d="M178.185 46.8755C177.146 46.5995 176.756 48.3247 177.618 48.5797C178.482 48.8318 179.046 47.1305 178.185 46.8755Z" fill="black"/>
<path d="M180.144 52.7247C180.144 52.7247 180.705 53.9759 182.061 54.582C182.571 54.792 182.907 54.981 183.627 54.921C184.701 54.903 184.983 54.0539 184.896 53.3038C184.968 52.7217 184.683 52.0977 184.683 52.0977C184.683 52.0977 182.586 53.1718 180.141 52.7217L180.144 52.7247Z" fill="black"/>
<path d="M181.887 54.5614C182.397 54.7715 182.73 54.9605 183.453 54.9005C184.527 54.8825 184.81 54.0334 184.723 53.2833C183.471 53.2773 182.343 53.7303 181.884 54.5584L181.887 54.5614Z" fill="#DB4242"/>
<path d="M180.699 46.7363C180.441 47.2374 180.15 47.7145 179.844 48.1825C179.541 48.6506 179.214 49.1036 178.887 49.5537L178.632 49.8867C178.593 49.9407 178.542 50.0038 178.512 50.0458C178.482 50.0878 178.458 50.1358 178.437 50.1808C178.347 50.3728 178.368 50.6068 178.473 50.8049C178.527 50.9009 178.608 50.9879 178.701 51.0539L179.049 51.2879C179.28 51.45 179.508 51.609 179.73 51.786C179.46 51.696 179.202 51.588 178.944 51.483L178.557 51.3149C178.41 51.2459 178.281 51.1349 178.179 51.0029C177.972 50.7329 177.921 50.3578 178.035 50.0308C178.059 49.9468 178.104 49.8687 178.152 49.7967C178.203 49.7217 178.236 49.6767 178.278 49.6197L178.524 49.2807C178.86 48.8366 179.199 48.3955 179.562 47.9725C179.922 47.5464 180.294 47.1294 180.705 46.7423H180.699V46.7363Z" fill="black"/>
<path d="M177.969 43.3824C181.521 46.4758 187.897 44.0095 187.897 44.0095C188.614 46.9018 191.959 47.3129 191.959 47.3129C191.959 47.3129 191.599 53.1757 193.166 53.5147C195.947 54.1508 198.668 46.5088 197.987 44.8016C197.48 43.1153 195.086 42.2302 195.086 42.2302C195.086 42.2302 195.227 41.0661 193.631 39.5389C191.854 37.9907 185.196 38.3567 185.196 38.3567C185.196 38.3567 184.968 37.2946 184.02 36.2925C183.387 35.6234 182.157 35.4734 181.554 35.9894C181.854 36.4695 181.977 36.9255 181.902 37.5106C181.884 39.1338 180.123 38.9178 180.492 37.3396C180.564 36.7575 180.987 36.2205 181.395 35.8244C180.816 34.7203 179.637 34.1322 178.701 34.4592C177.362 35.1793 175.238 40.829 177.966 43.3764H177.963L177.969 43.3824Z" fill="black"/>
<path d="M190.897 53.0886C190.897 53.0886 193.508 50.7513 194.825 51.6484C196.163 52.4015 193.922 56.116 192.106 56.335C190.276 56.7011 189.907 55.3269 189.907 55.3269L190.897 53.0856V53.0886Z" fill="#F8A9A0"/>
<path d="M194.348 52.6263C193.061 52.9113 192.424 53.7184 191.773 54.6725C192.178 54.2795 192.725 54.1985 193.199 54.6995C192.671 54.6365 192.319 54.5915 191.932 54.8376C191.737 54.9636 191.509 55.3746 191.314 55.5006L191.14 55.4796C191.122 54.1475 192.571 52.5543 194.351 52.6233L194.348 52.6263Z" fill="black"/>
<path d="M210.115 110.624C210.157 108.238 210.01 106.408 210.01 106.408C210.292 107.731 210.49 109.376 210.115 110.624Z" fill="#1E4796"/>
<path d="M208.423 111.863C208.444 111.983 208.219 111.98 208.219 111.98L208.423 111.863Z" fill="#13A79F"/>
<path d="M178.278 106.558L178.302 106.543C178.302 106.543 178.293 106.552 178.287 106.555C178.281 106.555 178.278 106.555 178.272 106.561H178.275L178.278 106.558Z" fill="#F8A9A0"/>
<path d="M178.278 106.558L178.302 106.543C178.302 106.543 178.293 106.552 178.287 106.555C178.281 106.555 178.278 106.555 178.272 106.561H178.275L178.278 106.558Z" fill="#F8A9A0"/>
<path d="M160.239 79.4853L150.959 95.4864C150.632 95.3244 150.302 95.1654 149.969 95.0004C148.259 92.516 155.088 81.3966 158.811 79.1043C158.811 79.1043 158.82 79.1043 158.823 79.0983C158.895 79.0533 158.961 79.0143 159.03 78.9783C159.03 78.9783 159.036 78.9783 159.039 78.9723C159.327 78.8162 159.594 78.7232 159.831 78.6992C160.092 79.1883 160.242 79.4793 160.242 79.4793H160.239V79.4853Z" fill="#F8A9A0"/>
<path d="M208.423 111.863C208.444 111.983 208.219 111.98 208.219 111.98L208.423 111.863Z" fill="#13A79F"/>
<path d="M210.115 110.623C210.067 113.552 210.055 117.269 208.105 119.664C205.917 122.352 202.368 123.24 199.052 123.435C192.575 123.813 186.424 124.431 180.228 126.444C176.775 127.567 173.756 128.377 171.869 128.563C169.67 128.779 167.719 130.06 166.648 131.989L159.756 152.656L159.744 152.68L150.929 179.113H121.432C121.432 179.113 146.645 113.606 149.432 111.578C152.219 109.549 189.349 102.072 189.349 102.072L209.356 104.101C209.356 104.101 209.725 105.1 210.007 106.408C210.007 106.408 210.154 108.241 210.112 110.626H210.115V110.623Z" fill="#1B417F"/>
<path d="M187.243 124.695C184.494 125.223 181.806 125.979 179.163 126.892C176.51 127.771 173.783 128.488 171.017 128.869C169.243 129.292 167.686 130.483 166.81 132.079C163.999 140.636 159.897 152.827 156.936 161.456C156.192 163.622 154.665 168.021 153.908 170.184C155.619 164.781 157.653 158.522 159.408 153.148C161.166 147.822 164.65 137.336 166.474 131.932C167.395 130.243 169.057 128.971 170.939 128.551C173.72 128.203 176.426 127.537 179.097 126.694C181.758 125.838 184.479 125.136 187.243 124.695Z" fill="black"/>
<path d="M105.656 190.573C106.877 190.912 147.86 190.717 149.216 190.045C149.759 189.82 149.894 184.308 150.032 179.147H143.881L121.435 179.111L121.405 180.363C121.405 180.363 108.104 185.523 106.745 186.42C105.386 187.317 104.438 190.234 105.659 190.57L105.656 190.573Z" fill="#30302F"/>
<path d="M116.644 182.234C114.747 183.104 111.951 184.266 110.004 185.091C108.917 185.556 107.756 185.988 106.736 186.567C105.809 187.266 105.203 188.445 105.089 189.606C105.086 188.391 105.653 187.161 106.601 186.381C107.633 185.727 108.779 185.322 109.887 184.818C112.116 183.9 114.36 183.014 116.644 182.237V182.234Z" fill="black"/>
<path d="M118.957 180.139C121.264 179.689 124.115 180.025 125.879 181.373C125.879 181.373 125.879 181.487 125.744 181.487C123.436 180.926 121.264 180.587 118.822 180.475C118.687 180.364 118.687 180.139 118.957 180.139Z" fill="white"/>
<path d="M117.331 181.038C119.638 180.588 122.488 180.924 124.252 182.271C124.252 182.271 124.252 182.385 124.117 182.385C121.81 181.824 119.638 181.488 117.195 181.377C117.06 181.266 117.06 181.041 117.331 181.041V181.038Z" fill="white"/>
<path d="M115.566 181.821C117.874 181.371 120.724 181.707 122.488 183.054C122.488 183.054 122.488 183.168 122.353 183.168C120.046 182.607 117.874 182.268 115.431 182.157C115.431 182.157 115.431 181.821 115.566 181.821Z" fill="white"/>
<path d="M209.65 104.072L209.356 98.0592L191.893 97.7441C190.417 99.2083 188.833 100.565 187.183 101.828C187.045 101.933 186.904 102.041 186.76 102.14C188.767 102.557 190.531 104.81 199.934 108.198C201.51 108.768 202.8 109.245 203.853 109.659L210.316 113.604C210.316 113.604 210.58 108.222 210.586 107.078C210.592 106.208 209.95 104.726 209.65 104.075V104.072ZM208.216 111.981L208.42 111.864C208.441 111.984 208.216 111.981 208.216 111.981Z" fill="#13A79F"/>
<path d="M160.239 79.4854C160.143 79.4404 160.026 79.3894 159.897 79.3324C159.642 79.2214 159.354 79.1014 159.036 78.9754C158.253 78.6603 157.296 78.2973 156.243 77.8982C156.228 77.8922 156.219 77.8892 156.204 77.8832C153.59 76.8991 150.365 75.7079 147.587 74.5468C147.737 74.5708 147.863 74.5858 147.983 74.5858C148.838 74.5858 148.772 73.9017 147.395 72.4765C145.828 70.8593 138.486 65.7736 140.461 63.3463C142.438 60.925 152.813 68.207 155.1 71.1413C156.897 73.3316 158.964 77.0821 159.825 78.6993C160.086 79.1884 160.236 79.4794 160.236 79.4794L160.239 79.4854Z" fill="#F8A9A0"/>
<path d="M194.582 93.3843C194.393 94.0234 194.222 94.5545 194.087 94.9625C194.087 94.9625 194.087 94.9685 194.081 94.9715C193.91 95.2806 193.739 95.5896 193.598 95.8326C193.472 96.0457 193.376 96.2077 193.319 96.2677C192.86 96.7718 192.382 97.2668 191.896 97.7469C190.417 99.2111 188.833 100.567 187.183 101.83C187.045 101.935 186.904 102.043 186.763 102.142C185.815 102.854 184.842 103.532 183.861 104.186C182.628 105.011 181.152 105.923 179.7 106.286C177.801 106.76 175.226 105.944 173.351 105.506C171.275 105.02 169.225 104.399 167.212 103.694C163.354 102.337 159.597 100.672 155.985 98.752C153.998 97.6989 152.063 96.5587 150.218 95.2686C150.167 95.2326 150.122 95.1935 150.08 95.1455C150.038 95.1005 150.005 95.0555 149.972 95.0105C143.794 92.0011 136.236 88.5897 132.045 82.1928C131.189 80.9087 131.33 79.6785 131.33 79.6785C129.311 76.6871 130.097 74.8809 130.097 74.8809C129.05 71.5264 130.115 69.7322 130.115 69.7322C130.115 69.7322 127.775 66.2487 129.62 64.4875C131.691 62.4653 134.592 67.794 137.994 69.7652C140.935 71.4634 144.529 73.1257 147.986 74.5928C151.016 75.88 153.935 77.0142 156.207 77.8933C156.222 77.8933 156.231 77.9023 156.246 77.9083C157.35 78.3373 158.301 78.7004 159.03 78.9914C159.369 79.1234 159.66 79.2435 159.897 79.3455C160.029 79.3995 160.14 79.4505 160.236 79.4955C160.221 79.4595 160.074 79.1744 159.828 78.7154C160.068 78.6884 160.275 78.7274 160.452 78.8414C160.617 78.9494 160.8 79.0604 160.995 79.1804C165.757 82.0968 178.008 88.0556 179.724 88.7517L180.153 88.4457L183.582 85.9973L184.32 86.4834C184.32 86.4834 192.632 92.0791 194.579 93.3963L194.585 93.3903L194.582 93.3843Z" fill="#F8A9A0"/>
<path d="M169.453 104.431C162.694 102.517 156.159 99.6036 150.356 95.6251C150.152 95.4871 149.933 95.334 149.792 95.124L149.876 95.196C147.908 94.1909 145.921 93.2188 144.004 92.1146C143.365 91.7516 142.729 91.3735 142.108 90.9805C142.762 91.3195 143.416 91.6556 144.076 91.9826C146.074 92.9607 148.088 93.8939 150.104 94.83C150.125 94.86 150.209 94.956 150.236 94.992C150.347 95.094 150.479 95.178 150.608 95.265C156.447 99.1085 162.895 102.04 169.456 104.437L169.453 104.431Z" fill="#E59B9A"/>
<path d="M130.112 69.7296C131.315 71.3048 132.549 72.832 133.881 74.2692L134.379 74.8062L134.898 75.3283C135.063 75.5083 135.246 75.6733 135.423 75.8414C135.603 76.0064 135.771 76.1864 135.957 76.3454C136.677 77.0115 137.442 77.6206 138.228 78.2297C137.334 77.8006 136.485 77.2636 135.702 76.6425C134.922 76.0214 134.187 75.3433 133.512 74.6082C132.84 73.8701 132.204 73.102 131.637 72.2859C131.063 71.4698 130.538 70.6237 130.112 69.7266V69.7296Z" fill="#E59B9A"/>
<path d="M130.094 74.878C130.919 76.1592 131.741 77.4043 132.663 78.5805C132.894 78.8745 133.125 79.1656 133.374 79.4416C133.605 79.7356 133.872 79.9937 134.121 80.2727C134.637 80.8128 135.192 81.3079 135.777 81.7999C135.081 81.4879 134.433 81.0618 133.848 80.5608C133.269 80.0567 132.741 79.4926 132.267 78.8925C131.801 78.2835 131.372 77.6474 131.009 76.9723C130.643 76.3002 130.322 75.6071 130.1 74.875H130.094V74.878Z" fill="#E59B9A"/>
<path d="M131.327 79.669C132.141 80.7222 132.906 81.7753 133.719 82.7924C134.118 83.3085 134.541 83.8006 134.961 84.2986C135.39 84.7937 135.834 85.2648 136.287 85.7538C135.705 85.4298 135.168 85.0247 134.676 84.5717C134.187 84.1186 133.737 83.6265 133.32 83.1045C132.912 82.5764 132.528 82.0333 132.192 81.4603C131.856 80.8902 131.552 80.2961 131.324 79.666H131.327V79.669Z" fill="#E59B9A"/>
<path d="M194.624 93.379C194.435 94.021 194.264 94.5521 194.129 94.9602C194.129 94.9602 194.129 94.9662 194.123 94.9692C193.946 95.5032 193.817 95.8213 193.781 95.8903C193.775 95.9023 193.772 95.9053 193.772 95.9053L193.637 95.8303L191.281 94.4621L180.192 88.4343L179.961 88.3083L185.638 79.1151C188.566 73.9574 192.154 68.5957 194.438 68.5957C195.308 68.5957 195.992 69.3818 196.373 71.2601C198.059 79.5831 195.917 88.9834 194.621 93.379H194.624Z" fill="#13A79F"/>
<path d="M194.987 95.2826C193.64 94.6345 192.307 93.9564 190.993 93.2543C189.676 92.5552 188.368 91.8321 187.069 91.103C185.77 90.3649 184.479 89.6208 183.198 88.8557C181.917 88.0936 180.648 87.3015 179.4 86.4824C180.747 87.1305 182.079 87.8056 183.393 88.5107C184.71 89.2098 186.019 89.9329 187.318 90.662C188.614 91.4001 189.907 92.1442 191.188 92.9123C192.469 93.6744 193.739 94.4665 194.987 95.2826Z" fill="#078D84"/>
<path d="M195.872 107.773C195.434 108.416 194.96 109.019 194.471 109.616C193.982 110.216 193.457 110.756 193.286 111.44C193.181 111.782 193.139 112.148 193.103 112.523L193.001 113.663C192.935 114.425 192.881 115.178 192.926 115.952C192.674 115.214 192.614 114.422 192.608 113.648C192.599 113.261 192.617 112.88 192.629 112.49C192.65 112.1 192.692 111.698 192.803 111.302C192.92 110.903 193.13 110.522 193.382 110.213C193.64 109.898 193.91 109.628 194.18 109.355C194.723 108.812 195.278 108.278 195.872 107.779V107.773Z" fill="white"/>
<path d="M144.574 173.931L148.652 163.708L152.777 153.504L161.103 133.128L162.157 130.584C162.334 130.161 162.499 129.738 162.706 129.306C162.91 128.883 163.165 128.478 163.438 128.093C163.993 127.328 164.689 126.665 165.472 126.14C165.865 125.879 166.279 125.648 166.711 125.459C167.143 125.27 167.602 125.126 168.034 124.997C171.545 123.923 175.046 122.834 178.56 121.781L189.094 118.597L199.643 115.465L189.166 118.834L178.674 122.156C175.178 123.269 171.671 124.346 168.169 125.441C167.725 125.576 167.308 125.711 166.9 125.891C166.492 126.071 166.105 126.29 165.736 126.536C164.998 127.034 164.35 127.658 163.828 128.382C163.57 128.742 163.336 129.123 163.144 129.525C162.955 129.921 162.79 130.356 162.616 130.779L161.571 133.323L153.137 153.654L148.883 163.804L144.577 173.934L144.574 173.931Z" fill="white"/>
<path d="M147.518 190.258C148.037 190.156 148.574 190.093 149.066 189.961C149.093 189.952 149.12 189.94 149.144 189.934C149.174 189.919 149.156 189.919 149.168 189.913C149.189 189.883 149.21 189.829 149.225 189.778C149.261 189.667 149.285 189.541 149.303 189.415C149.342 189.163 149.372 188.902 149.393 188.641C149.432 188.119 149.471 187.596 149.495 187.068L149.57 185.487C149.624 184.434 149.672 183.375 149.741 182.319C149.81 181.263 149.894 180.207 150.026 179.15C150.104 180.21 150.131 181.269 150.137 182.331C150.146 183.39 150.122 184.449 150.074 185.511C150.017 186.57 149.948 187.63 149.786 188.689C149.741 188.953 149.699 189.22 149.63 189.481C149.594 189.616 149.558 189.745 149.498 189.88C149.468 189.949 149.432 190.018 149.369 190.09C149.336 190.123 149.267 190.171 149.234 190.177C149.195 190.192 149.156 190.198 149.123 190.204C148.574 190.276 148.052 190.27 147.515 190.258H147.521H147.518Z" fill="black"/>
<path d="M181.869 85.1543C182.445 84.1192 183.048 83.1021 183.636 82.0759L184.536 80.5457L185.44 79.0185L185.632 78.6945L185.77 79.0485L185.434 79.0245C186.412 77.2363 187.447 75.4751 188.59 73.7768C189.163 72.9307 189.76 72.0966 190.411 71.3045C191.065 70.5124 191.761 69.7413 192.602 69.1052C193.025 68.7962 193.493 68.5051 194.063 68.4061C194.207 68.3881 194.348 68.3641 194.498 68.3851C194.57 68.3941 194.648 68.3911 194.717 68.4121L194.93 68.4781C195.005 68.4931 195.062 68.5382 195.131 68.5742C195.194 68.6132 195.263 68.6462 195.32 68.6912C195.422 68.7932 195.545 68.8772 195.626 68.9912C195.98 69.4263 196.181 69.9333 196.316 70.4374C196.457 70.9415 196.553 71.4485 196.625 71.9526C196.931 73.9809 196.961 76.0391 196.781 78.0644C196.805 76.0301 196.667 73.9959 196.289 72.0066C196.193 71.5115 196.094 71.0135 195.941 70.5454C195.8 70.0744 195.593 69.6183 195.296 69.2703C195.005 68.9072 194.579 68.7692 194.141 68.8532C193.7 68.9342 193.274 69.1952 192.89 69.4893C192.109 70.0894 191.431 70.8395 190.798 71.6196C190.162 72.4027 189.565 73.2158 188.992 74.0529C187.849 75.7241 186.784 77.4553 185.752 79.2076L185.551 79.5496L185.419 79.1805L185.749 79.2135L184.788 80.7047L183.822 82.1929C183.171 83.1801 182.526 84.1732 181.86 85.1513H181.863L181.869 85.1543Z" fill="#078D84"/>
<path d="M166.645 170.662C165.361 175.016 163.816 179.276 162.007 183.438C163.288 179.084 164.839 174.824 166.645 170.662Z" fill="black"/>
<path d="M219.617 86.1172C220.367 86.7323 220.673 87.8424 220.496 88.7935L220.343 89.7297C220.232 90.3507 220.112 90.9718 219.974 91.5869C219.836 92.202 219.683 92.8201 219.491 93.4261C219.515 92.7901 219.581 92.163 219.659 91.5359C219.734 90.9088 219.836 90.2877 219.941 89.6666L220.115 88.7365C220.322 87.8304 220.16 86.9033 219.617 86.1172Z" fill="black"/>
<path d="M177.666 45.6265C177.837 45.6715 178.008 45.6865 178.14 45.6805C178.446 45.6595 178.773 45.5935 179.076 45.5485C179.355 45.5035 179.799 45.2694 179.685 44.9094C179.559 44.5163 178.83 44.4593 178.497 44.4803C178.038 44.5043 177.582 44.5343 177.27 44.7894C176.763 45.2064 177.198 45.5125 177.66 45.6325L177.666 45.6265Z" fill="black"/>
<path d="M184.23 46.2727C184.059 46.3057 183.885 46.3117 183.753 46.2937C183.444 46.2517 183.126 46.1677 182.823 46.1017C182.547 46.0417 182.118 45.7776 182.253 45.4266C182.403 45.0426 183.132 45.0335 183.465 45.0756C183.918 45.1296 184.377 45.1836 184.671 45.4596C185.152 45.9067 184.698 46.1857 184.227 46.2757L184.23 46.2727Z" fill="black"/>
<path d="M74.9468 26.1875H99.574C101.221 26.1875 102.556 27.5227 102.556 29.1699V41.8646C102.556 43.5118 101.221 44.847 99.574 44.847H85.5052C85.5052 44.847 82.4478 50.9798 78.0072 51.3428C73.6386 51.6998 80.5215 48.3634 78.1362 44.847H74.9438C73.2966 44.847 71.9614 43.5118 71.9614 41.8646V29.1699C71.9614 27.5227 73.2966 26.1875 74.9438 26.1875H74.9468Z" fill="#172D6C"/>
<path d="M79.9336 37.4053C81.1814 37.4053 82.1929 36.3938 82.1929 35.146C82.1929 33.8982 81.1814 32.8867 79.9336 32.8867C78.6858 32.8867 77.6743 33.8982 77.6743 35.146C77.6743 36.3938 78.6858 37.4053 79.9336 37.4053Z" fill="#FEFEFE"/>
<path d="M87.2606 37.4053C88.5084 37.4053 89.5199 36.3938 89.5199 35.146C89.5199 33.8982 88.5084 32.8867 87.2606 32.8867C86.0129 32.8867 85.0013 33.8982 85.0013 35.146C85.0013 36.3938 86.0129 37.4053 87.2606 37.4053Z" fill="#FEFEFE"/>
<path d="M94.5877 37.4053C95.8354 37.4053 96.847 36.3938 96.847 35.146C96.847 33.8982 95.8354 32.8867 94.5877 32.8867C93.3399 32.8867 92.3284 33.8982 92.3284 35.146C92.3284 36.3938 93.3399 37.4053 94.5877 37.4053Z" fill="#FEFEFE"/>
<path d="M167.17 22.5566H142.543C140.896 22.5566 139.56 23.8918 139.56 25.539V38.2337C139.56 39.8809 140.896 41.2161 142.543 41.2161H156.612C156.612 41.2161 159.669 47.3489 164.11 47.7119C168.478 48.069 161.595 44.7325 163.981 41.2161H167.173C168.82 41.2161 170.155 39.8809 170.155 38.2337V25.539C170.155 23.8918 168.82 22.5566 167.173 22.5566H167.17Z" fill="#13A79F"/>
<path d="M162.183 33.7745C163.431 33.7745 164.443 32.7629 164.443 31.5152C164.443 30.2674 163.431 29.2559 162.183 29.2559C160.936 29.2559 159.924 30.2674 159.924 31.5152C159.924 32.7629 160.936 33.7745 162.183 33.7745Z" fill="#FEFEFE"/>
<path d="M154.857 33.7745C156.104 33.7745 157.116 32.7629 157.116 31.5152C157.116 30.2674 156.104 29.2559 154.857 29.2559C153.609 29.2559 152.597 30.2674 152.597 31.5152C152.597 32.7629 153.609 33.7745 154.857 33.7745Z" fill="#FEFEFE"/>
<path d="M147.532 33.7745C148.78 33.7745 149.792 32.7629 149.792 31.5152C149.792 30.2674 148.78 29.2559 147.532 29.2559C146.285 29.2559 145.273 30.2674 145.273 31.5152C145.273 32.7629 146.285 33.7745 147.532 33.7745Z" fill="#FEFEFE"/>
<path d="M21.8699 60.7664H22.434C22.653 60.7664 22.8301 60.5864 22.8301 60.3704V59.6773C22.8301 59.4583 23.0101 59.2812 23.2261 59.2812H24.3543C24.5733 59.2812 24.7503 59.4613 24.7503 59.6773V60.3704C24.7503 60.5894 24.9303 60.7664 25.1464 60.7664H25.7104C25.9295 60.7664 26.1065 60.9465 26.1065 61.1625V62.2906C26.1065 62.5097 25.9265 62.6867 25.7104 62.6867H25.1464C24.9273 62.6867 24.7503 62.8667 24.7503 63.0828V63.7128C24.7503 63.9319 24.5703 64.1089 24.3543 64.1089H23.2261C23.0071 64.1089 22.8301 63.9289 22.8301 63.7128V63.0828C22.8301 62.8637 22.65 62.6867 22.434 62.6867H21.8699C21.6509 62.6867 21.4739 62.5067 21.4739 62.2906V61.1625C21.4739 60.9435 21.6539 60.7664 21.8699 60.7664Z" fill="#01B4AB"/>
<path d="M207.408 24.6469H208.341C208.704 24.6469 208.998 24.3499 208.998 23.9898V22.8407C208.998 22.4776 209.295 22.1836 209.655 22.1836H211.522C211.885 22.1836 212.179 22.4806 212.179 22.8407V23.9898C212.179 24.3529 212.476 24.6469 212.836 24.6469H213.769C214.132 24.6469 214.426 24.944 214.426 25.307V27.1733C214.426 27.5363 214.129 27.8333 213.769 27.8333H212.836C212.473 27.8333 212.179 28.1304 212.179 28.4934V29.5346C212.179 29.8976 211.882 30.1946 211.522 30.1946H209.655C209.292 30.1946 208.998 29.8976 208.998 29.5346V28.4934C208.998 28.1304 208.701 27.8333 208.341 27.8333H207.408C207.045 27.8333 206.751 27.5363 206.751 27.1733V25.307C206.751 24.944 207.048 24.6469 207.408 24.6469Z" fill="#01B4AB"/>
</svg>
