<svg width="176" height="170" viewBox="0 0 176 170" fill="none" xmlns="http://www.w3.org/2000/svg">
<path d="M55.9246 90.8667L39.2379 102.414L27.4484 85.3045L55.9246 90.8667L27.4484 85.3045L0 104.349L44.9211 169.524L89.1771 138.75L55.9246 90.8667Z" fill="#ECEFF6"/>
<path d="M39.2378 102.414L55.9244 90.8666L27.4482 85.3043L39.2378 102.414Z" fill="#A8B4D9"/>
<path d="M73.8204 7.07071L72.9135 5.3174L66.6258 3.9873L20.0118 28.1105L46.2511 80.1657L97.8831 53.2614L73.8204 7.07071Z" fill="#E9ECF5"/>
<path d="M64.6919 4.90614L25.9194 25.0923L34.2675 41.1268L73.0399 20.9407L64.6919 4.90614Z" fill="#A8B4D9"/>
<path d="M33.7239 21.0578L25.948 25.1062L34.2961 41.1407L42.072 37.0923L33.7239 21.0578Z" fill="#1F4796"/>
<path d="M60.988 9.74866L58.1993 11.2005L64.3138 22.9448L67.1024 21.493L60.988 9.74866Z" fill="#1F4796"/>
<path d="M79.2417 32.8265L40.4692 53.0126L41.8932 55.7476L80.6656 35.5615L79.2417 32.8265Z" fill="#1F4796"/>
<path d="M80.2746 34.8281L41.5022 55.0142L52.8377 76.7868L91.6101 56.6007L80.2746 34.8281Z" fill="#F7F9FF"/>
<path d="M80.4168 41.0087L46.3099 58.7658L46.3937 58.9266L80.5006 41.1695L80.4168 41.0087Z" fill="#E9ECF5"/>
<path d="M82.112 44.3299L48.0051 62.087L48.0889 62.2479L82.1958 44.4908L82.112 44.3299Z" fill="#E9ECF5"/>
<path d="M83.9892 47.8418L49.8823 65.5989L49.9661 65.7598L84.073 48.0027L83.9892 47.8418Z" fill="#E9ECF5"/>
<path d="M85.6845 51.1633L51.5776 68.9204L51.6614 69.0813L85.7683 51.3242L85.6845 51.1633Z" fill="#E9ECF5"/>
<path d="M48.1406 71.6429L44.4403 73.5694L46.3668 77.2697L50.0671 75.3432L48.1406 71.6429Z" fill="#94A2B6"/>
<path d="M93.4832 48.0431L89.783 49.9695L91.7094 53.6698L95.4097 51.7433L93.4832 48.0431Z" fill="#94A2B6"/>
<path d="M154.17 108.702L94.3764 96.7919C92.5626 96.4291 91.3535 94.6154 91.7162 92.8016L109.491 3.62455C109.854 1.81078 111.668 0.601595 113.481 0.96435L173.275 12.8748C175.089 13.2375 176.298 15.0513 175.936 16.8651L158.161 106.042C157.798 107.856 155.984 109.065 154.17 108.702Z" fill="#E9ECF5"/>
<path d="M124.727 27.4453L111.849 24.906L112.333 22.6086C112.877 20.0088 115.417 18.2555 118.016 18.7997L121.221 19.4647C123.941 20.0088 125.695 22.669 125.15 25.3897L124.727 27.4453Z" fill="#21409A"/>
<path d="M121.281 17.2883C122.951 17.2883 124.304 15.9349 124.304 14.2654C124.304 12.5959 122.951 11.2424 121.281 11.2424C119.612 11.2424 118.258 12.5959 118.258 14.2654C118.258 15.9349 119.612 17.2883 121.281 17.2883Z" fill="#21409A"/>
<path d="M166.206 22.0976L133.889 15.6657L133.747 16.3773L166.065 22.8091L166.206 22.0976Z" fill="#A6B3D7"/>
<path d="M167.99 24.7996L133.419 17.9193L133.277 18.6309L167.848 25.5112L167.99 24.7996Z" fill="#A6B3D7"/>
<path d="M156.244 32.1576L131.576 27.2482L131.434 27.9597L156.102 32.8692L156.244 32.1576Z" fill="#A6B3D7"/>
<path d="M165.071 43.4722L111.109 32.7328L110.991 33.3257L164.952 44.0652L165.071 43.4722Z" fill="#A6B3D7"/>
<path d="M164.345 47.1625L110.384 36.423L110.266 37.016L164.227 47.7555L164.345 47.1625Z" fill="#A6B3D7"/>
<path d="M163.495 51.2039L109.534 40.4645L109.416 41.0575L163.377 51.7969L163.495 51.2039Z" fill="#A6B3D7"/>
<path d="M160.472 66.4419L106.511 55.7025L106.393 56.2954L160.354 67.0349L160.472 66.4419Z" fill="#A6B3D7"/>
<path d="M159.748 70.1319L105.786 59.3925L105.668 59.9854L159.629 70.7249L159.748 70.1319Z" fill="#A6B3D7"/>
<path d="M158.968 74.1261L105.007 63.3867L104.889 63.9796L158.85 74.7191L158.968 74.1261Z" fill="#A6B3D7"/>
<path d="M129.573 18.3637L126.191 13.7886C126.077 13.6252 126.096 13.4005 126.248 13.278L126.419 13.135C126.571 13.0124 126.78 13.0329 126.894 13.1963L130.276 17.7714C130.39 17.9348 130.371 18.1594 130.219 18.282L130.048 18.425C129.915 18.5475 129.687 18.5067 129.573 18.3637Z" fill="#00A79D"/>
<path d="M130.815 14.4371L126.245 17.8195C126.082 17.9335 125.857 17.9145 125.735 17.7625L125.592 17.5915C125.47 17.4395 125.49 17.2304 125.653 17.1164L130.223 13.734C130.386 13.62 130.611 13.639 130.733 13.791L130.876 13.962C130.998 14.095 130.978 14.304 130.815 14.4371Z" fill="#00A79D"/>
<path d="M96.916 86.3324L86.2752 140.927L84.8846 148.061L155.803 147.698C159.007 147.698 161.789 144.857 162.816 140.685L175.392 89.1135C176.178 85.9092 174.485 82.584 172.067 82.6444L100.302 82.7049C98.6693 82.7653 97.3392 84.2164 96.916 86.3324Z" fill="#1F4796"/>
<path d="M148.971 137.239L141.474 76.7799C141.172 74.3011 139.177 72.4269 136.879 72.4874L120.434 72.5478C119.225 72.5478 118.077 73.0919 117.17 73.9988L109.37 82.2817L63.603 82.5235C60.8219 82.5235 58.6454 85.1837 59.0081 88.1462L65.9609 144.071C66.2632 146.55 68.2583 148.363 70.5558 148.363L150.362 148.182C159.249 148.363 160.096 145.764 160.096 145.764C149.878 148.001 148.971 137.239 148.971 137.239Z" fill="#A8B4D9"/>
<path opacity="0.72" d="M108.191 150.785C98.8413 150.785 91.2621 143.206 91.2621 133.856C91.2621 124.507 98.8413 116.928 108.191 116.928C117.54 116.928 125.119 124.507 125.119 133.856C125.119 143.206 117.54 150.785 108.191 150.785Z" fill="#B7E2E0"/>
<path fill-rule="evenodd" clip-rule="evenodd" d="M108.191 118.137C116.872 118.137 123.91 125.175 123.91 133.856C123.91 142.538 116.872 149.576 108.191 149.576C99.5091 149.576 92.4713 142.538 92.4713 133.856C92.4713 125.175 99.5091 118.137 108.191 118.137ZM126.328 133.856C126.328 123.839 118.208 115.719 108.191 115.719C98.1735 115.719 90.0529 123.839 90.0529 133.856C90.0529 143.873 98.1735 151.994 108.191 151.994C118.208 151.994 126.328 143.873 126.328 133.856Z" fill="#00A79D"/>
<path d="M113.174 149.152L122.484 167.048C122.968 167.955 124.056 168.318 124.963 167.834L126.898 166.867C127.744 166.444 128.107 165.355 127.623 164.509L118.252 146.492L113.174 149.152Z" fill="#00A79D"/>
</svg>
