<svg width="184" height="168" viewBox="0 0 184 168" fill="none" xmlns="http://www.w3.org/2000/svg">
<path d="M102.61 73.9846H21.9863C10.3591 73.9846 0.904053 83.4397 0.904053 95.0669V127.648C0.904053 134.165 3.84279 139.915 8.57032 143.875L0.904053 167.641L26.3305 148.731H102.482C114.109 148.731 123.564 139.276 123.564 127.648V95.0669C123.564 83.4397 114.109 73.9846 102.61 73.9846Z" fill="#B7E2E0"/>
<path d="M118.709 104.138H11.5092V106.822H118.709V104.138Z" fill="white"/>
<path d="M118.709 124.837H11.5092V127.52H118.709V124.837Z" fill="white"/>
<path d="M178.25 127.521L169.434 100.05C174.545 95.5778 177.867 89.0614 177.867 81.7785V44.4693C177.867 31.1811 167.007 20.3206 153.718 20.3206H61.7232C48.435 20.3206 37.5745 31.1811 37.5745 44.4693V81.7785C37.5745 95.0667 48.435 105.927 61.7232 105.927H149.246L178.25 127.521Z" fill="#204997"/>
<path d="M159.596 46.897H52.3959V49.5802H159.596V46.897Z" fill="white"/>
<path d="M159.596 72.5791H52.3959V75.2623H159.596V72.5791Z" fill="white"/>
<path d="M19.0473 60.3133C19.0473 60.3133 17.3862 59.8023 16.7474 59.4189C13.4253 57.6301 10.8699 54.0526 10.1033 49.5806C9.46443 53.9248 6.909 57.6301 3.45918 59.4189C2.82033 59.8023 1.1593 60.3133 1.1593 60.3133C1.1593 60.3133 2.82033 60.8244 3.45918 61.2077C6.78123 62.9965 9.33665 66.5741 10.1033 71.0461C10.7421 66.7019 13.2976 62.9965 16.7474 61.2077C17.3862 60.8244 19.0473 60.3133 19.0473 60.3133Z" fill="#204997"/>
<path d="M21.8583 67.7241C21.8583 67.7241 21.3472 67.4686 21.0916 67.4686C20.0695 66.9575 19.3028 65.8076 19.0473 64.4021C18.7918 65.8076 18.0251 66.9575 17.003 67.4686C16.7474 67.5964 16.2363 67.7241 16.2363 67.7241C16.2363 67.7241 16.7474 67.9797 17.003 67.9797C18.0251 68.4908 18.7918 69.6407 19.0473 71.0462C19.3028 69.6407 20.0695 68.4908 21.0916 67.9797C21.3472 67.8519 21.8583 67.7241 21.8583 67.7241Z" fill="#204997"/>
<path d="M130.975 120.749C130.975 120.749 132.636 121.26 133.275 121.644C136.597 123.432 139.152 127.01 139.919 131.482C140.558 127.138 143.113 123.432 146.563 121.644C147.202 121.26 148.863 120.749 148.863 120.749C148.863 120.749 147.202 120.238 146.563 119.855C143.241 118.066 140.685 114.488 139.919 110.016C139.28 114.361 136.724 118.066 133.275 119.855C132.636 120.238 130.975 120.749 130.975 120.749Z" fill="#204997"/>
<path d="M128.164 113.338C128.164 113.338 128.675 113.594 128.931 113.594C129.953 114.105 130.719 115.255 130.975 116.66C131.231 115.255 131.997 114.105 133.019 113.594C133.275 113.466 133.786 113.338 133.786 113.338C133.786 113.338 133.275 113.083 133.019 113.083C131.997 112.572 131.231 111.422 130.975 110.016C130.719 111.422 129.953 112.572 128.931 113.083C128.675 113.211 128.164 113.338 128.164 113.338Z" fill="#204997"/>
<path d="M165.729 11.6327C165.729 11.6327 167.39 12.1438 168.029 12.5271C171.351 14.3159 173.906 17.8935 174.673 22.3654C175.312 18.0212 177.867 14.3159 181.317 12.5271C181.956 12.1438 183.617 11.6327 183.617 11.6327C183.617 11.6327 181.956 11.1216 181.317 10.7383C177.995 8.94948 175.439 5.37189 174.673 0.899902C174.034 5.24412 171.478 8.94948 168.029 10.7383C167.262 10.9938 165.729 11.6327 165.729 11.6327Z" fill="#204997"/>
<path d="M162.918 4.22195C162.918 4.22195 163.429 4.47749 163.684 4.47749C164.707 4.98858 165.473 6.13852 165.729 7.544C165.984 6.13852 166.751 4.98858 167.773 4.47749C168.029 4.34972 168.54 4.22195 168.54 4.22195C168.54 4.22195 168.029 3.96641 167.773 3.96641C166.751 3.45532 165.984 2.30538 165.729 0.899902C165.473 2.30538 164.707 3.45532 163.684 3.96641C163.429 4.09418 162.918 4.22195 162.918 4.22195Z" fill="#204997"/>
</svg>
