<svg width="24" height="24" viewBox="0 0 24 24" fill="none" xmlns="http://www.w3.org/2000/svg">
    <g clip-path="url(#clip0_2537_59873)">
        <path d="M12.8483 1.71126C18.9795 1.66421 24.0035 6.70604 24.0006 12.855C23.9978 19.004 18.9816 24.0081 12.8405 23.9988C6.6993 23.9895 1.69312 18.9798 1.70167 12.8336C1.70951 6.70889 6.70785 1.67277 12.8483 1.71126ZM22.2418 12.8515C22.1819 7.60646 18.1069 3.47219 12.8511 3.47433C7.59544 3.47647 3.47258 7.61716 3.4733 12.8515C3.47401 18.0858 7.58832 22.2265 12.8511 22.2293C18.1026 22.2315 22.1819 18.0965 22.2418 12.8515Z" fill="#21409A"/>
        <path d="M2.58008 5.17016C1.10504 5.17016 0.000712928 4.06369 0 2.58651C0 1.09578 1.10575 -0.00284617 2.6029 5.53884e-06C4.07438 5.53884e-06 5.16944 1.11217 5.16944 2.59649C5.16944 4.0808 4.06084 5.17087 2.58008 5.17016ZM2.59007 3.41778C2.75482 3.41693 2.91561 3.36723 3.0521 3.27496C3.1886 3.1827 3.29465 3.05202 3.35685 2.89946C3.41905 2.74689 3.43459 2.57931 3.40151 2.41792C3.36844 2.25652 3.28823 2.10856 3.17103 1.99276C3.05384 1.87697 2.90493 1.79854 2.74315 1.7674C2.58137 1.73626 2.41398 1.75382 2.26218 1.81784C2.11037 1.88186 1.98098 1.98948 1.89035 2.12707C1.79973 2.26466 1.75196 2.42604 1.75309 2.59078C1.7525 2.70036 1.77383 2.80895 1.81582 2.91017C1.8578 3.01138 1.9196 3.10319 1.99759 3.18017C2.07557 3.25716 2.16815 3.31777 2.2699 3.35845C2.37165 3.39914 2.4805 3.41906 2.59007 3.41707V3.41778Z" fill="#21409A"/>
        <path d="M15.4356 6.87098C15.4356 8.34532 14.3277 9.4475 12.8491 9.4475C11.3704 9.4475 10.2626 8.33961 10.2661 6.84033C10.2661 5.37027 11.3797 4.27379 12.8662 4.27735C14.3391 4.2802 15.4356 5.39095 15.4356 6.87098ZM13.6825 6.85815C13.6815 6.69363 13.6317 6.5331 13.5395 6.39685C13.4473 6.2606 13.3168 6.15474 13.1644 6.09267C13.0121 6.03059 12.8447 6.01507 12.6836 6.04809C12.5224 6.0811 12.3746 6.16115 12.2589 6.27813C12.1432 6.39511 12.0648 6.54376 12.0336 6.70529C12.0024 6.86683 12.0198 7.03399 12.0836 7.18564C12.1473 7.3373 12.2546 7.46665 12.3919 7.55733C12.5292 7.64802 12.6902 7.69597 12.8548 7.69513C12.9645 7.6961 13.0734 7.67505 13.1749 7.63323C13.2764 7.5914 13.3685 7.52965 13.4458 7.45162C13.523 7.37359 13.5838 7.28086 13.6246 7.17893C13.6654 7.077 13.6853 6.96792 13.6832 6.85815H13.6825Z" fill="#21409A"/>
        <path d="M4.27734 12.8484C4.27734 11.3712 5.38167 10.2676 6.85885 10.2676C8.34959 10.2676 9.44963 11.3719 9.44678 12.8691C9.44678 14.3405 8.33462 15.4356 6.85173 15.4356C5.36884 15.4356 4.27734 14.3277 4.27734 12.8484ZM7.69369 12.8612C7.69552 12.6967 7.64851 12.5353 7.55861 12.3975C7.46872 12.2596 7.33998 12.1516 7.18866 12.0869C7.03735 12.0223 6.87026 12.0039 6.70853 12.0342C6.5468 12.0645 6.39768 12.1421 6.28004 12.2572C6.1624 12.3722 6.08152 12.5196 6.04762 12.6806C6.01372 12.8416 6.02833 13.0091 6.08959 13.1618C6.15086 13.3145 6.25604 13.4456 6.39182 13.5385C6.52761 13.6315 6.6879 13.6821 6.85244 13.6839C6.96214 13.6867 7.07128 13.6674 7.17342 13.6273C7.27556 13.5872 7.36862 13.527 7.4471 13.4503C7.52559 13.3736 7.58791 13.282 7.63039 13.1808C7.67286 13.0796 7.69463 12.9709 7.69441 12.8612H7.69369Z" fill="#21409A"/>
        <path d="M15.4358 12.8443C15.4358 14.325 14.3364 15.4336 12.8635 15.4351C11.37 15.4351 10.2649 14.3336 10.2656 12.8429C10.2656 11.3678 11.3721 10.2656 12.8514 10.2656C14.3307 10.2656 15.4358 11.3671 15.4358 12.8443ZM12.8564 13.6827C13.0212 13.6818 13.1819 13.6321 13.3184 13.5399C13.4549 13.4476 13.561 13.3169 13.6232 13.1644C13.6854 13.0118 13.7009 12.8442 13.6679 12.6828C13.6348 12.5214 13.5546 12.3735 13.4374 12.2577C13.3202 12.1419 13.1713 12.0634 13.0095 12.0323C12.8477 12.0012 12.6803 12.0187 12.5285 12.0827C12.3767 12.1468 12.2473 12.2544 12.1567 12.392C12.0661 12.5296 12.0183 12.6909 12.0194 12.8557C12.0187 12.9653 12.04 13.074 12.0819 13.1753C12.1239 13.2766 12.1857 13.3685 12.2637 13.4455C12.3417 13.5226 12.4343 13.5833 12.5361 13.624C12.6379 13.6647 12.7468 13.6847 12.8564 13.6827Z" fill="#21409A"/>
        <path d="M21.4243 12.8498C21.4243 14.3284 20.3229 15.4356 18.8485 15.437C17.3564 15.437 16.2535 14.3341 16.2549 12.8405C16.2549 11.3669 17.3635 10.2662 18.8442 10.2676C20.325 10.269 21.4243 11.3712 21.4243 12.8498ZM19.6712 12.8576C19.6722 12.6931 19.6244 12.532 19.5338 12.3947C19.4433 12.2573 19.314 12.1499 19.1624 12.086C19.0108 12.0221 18.8437 12.0046 18.6821 12.0357C18.5205 12.0667 18.3718 12.145 18.2548 12.2606C18.1377 12.3762 18.0575 12.5239 18.0243 12.685C17.9912 12.8462 18.0066 13.0135 18.0685 13.1659C18.1305 13.3184 18.2362 13.449 18.3724 13.5413C18.5085 13.6336 18.669 13.6835 18.8335 13.6846C18.9433 13.6869 19.0524 13.6672 19.1544 13.6266C19.2564 13.586 19.3493 13.5253 19.4274 13.4482C19.5056 13.3711 19.5675 13.2791 19.6095 13.1777C19.6515 13.0763 19.6727 12.9674 19.6719 12.8576H19.6712Z" fill="#21409A"/>
        <path d="M12.8465 16.2539C14.3286 16.2539 15.4344 17.3518 15.4365 18.8269C15.4365 20.324 14.3358 21.4248 12.8436 21.4241C11.3693 21.4241 10.2664 20.3162 10.2671 18.8376C10.2678 17.3589 11.3721 16.2546 12.8465 16.2539ZM12.8465 18.0063C12.6817 18.0064 12.5207 18.0554 12.3838 18.1471C12.2469 18.2388 12.1403 18.369 12.0775 18.5213C12.0146 18.6736 11.9983 18.8411 12.0307 19.0027C12.0631 19.1642 12.1427 19.3125 12.2594 19.4288C12.3761 19.5451 12.5247 19.6242 12.6863 19.656C12.848 19.6878 13.0154 19.671 13.1675 19.6076C13.3196 19.5442 13.4494 19.4372 13.5406 19.3C13.6318 19.1628 13.6803 19.0016 13.6799 18.8368C13.6806 18.7278 13.6597 18.6196 13.6182 18.5187C13.5768 18.4178 13.5156 18.3261 13.4384 18.2491C13.3611 18.1721 13.2693 18.1112 13.1683 18.07C13.0673 18.0288 12.9591 18.0081 12.85 18.0091L12.8465 18.0063Z" fill="#21409A"/>
    </g>
    <defs>
        <clipPath id="clip0_2537_59873">
            <rect width="24" height="24" fill="white"/>
        </clipPath>
    </defs>
</svg>
