<svg width="24" height="24" viewBox="0 0 24 24" fill="none" xmlns="http://www.w3.org/2000/svg">
    <g clip-path="url(#clip0_2537_46502)">
        <path d="M12.8483 1.71126C18.9795 1.66421 24.0035 6.70604 24.0006 12.855C23.9978 19.004 18.9816 24.0081 12.8405 23.9988C6.6993 23.9895 1.69312 18.9798 1.70167 12.8336C1.70951 6.70889 6.70785 1.67277 12.8483 1.71126ZM22.2418 12.8515C22.1819 7.60646 18.1069 3.47219 12.8511 3.47433C7.59544 3.47647 3.47258 7.61716 3.4733 12.8515C3.47401 18.0858 7.58832 22.2265 12.8511 22.2293C18.1026 22.2315 22.1819 18.0965 22.2418 12.8515Z" fill="#475569"/>
        <path d="M2.58008 5.17016C1.10504 5.17016 0.000712928 4.06369 0 2.58651C0 1.09578 1.10575 -0.00284617 2.6029 5.53884e-06C4.07438 5.53884e-06 5.16944 1.11217 5.16944 2.59649C5.16944 4.0808 4.06084 5.17087 2.58008 5.17016ZM2.59007 3.41778C2.75482 3.41693 2.91561 3.36723 3.0521 3.27496C3.1886 3.1827 3.29465 3.05202 3.35685 2.89946C3.41905 2.74689 3.43459 2.57931 3.40151 2.41792C3.36844 2.25652 3.28823 2.10856 3.17103 1.99276C3.05384 1.87697 2.90493 1.79854 2.74315 1.7674C2.58137 1.73626 2.41398 1.75382 2.26218 1.81784C2.11037 1.88186 1.98098 1.98948 1.89035 2.12707C1.79973 2.26466 1.75196 2.42604 1.75309 2.59078C1.7525 2.70036 1.77383 2.80895 1.81582 2.91017C1.8578 3.01138 1.9196 3.10319 1.99759 3.18017C2.07557 3.25716 2.16815 3.31777 2.2699 3.35845C2.37165 3.39914 2.4805 3.41906 2.59007 3.41707V3.41778Z" fill="#475569"/>
        <path d="M15.4356 6.87098C15.4356 8.34532 14.3277 9.4475 12.8491 9.4475C11.3704 9.4475 10.2626 8.33961 10.2661 6.84033C10.2661 5.37027 11.3797 4.27379 12.8662 4.27735C14.3391 4.2802 15.4356 5.39095 15.4356 6.87098ZM13.6825 6.85815C13.6815 6.69363 13.6317 6.5331 13.5395 6.39685C13.4473 6.2606 13.3168 6.15474 13.1644 6.09267C13.0121 6.03059 12.8447 6.01507 12.6836 6.04809C12.5224 6.0811 12.3746 6.16115 12.2589 6.27813C12.1432 6.39511 12.0648 6.54376 12.0336 6.70529C12.0024 6.86683 12.0198 7.03399 12.0836 7.18564C12.1473 7.3373 12.2546 7.46665 12.3919 7.55733C12.5292 7.64802 12.6902 7.69597 12.8548 7.69513C12.9645 7.6961 13.0734 7.67505 13.1749 7.63323C13.2764 7.5914 13.3685 7.52965 13.4458 7.45162C13.523 7.37359 13.5838 7.28086 13.6246 7.17893C13.6654 7.077 13.6853 6.96792 13.6832 6.85815H13.6825Z" fill="#475569"/>
        <path d="M4.27759 12.8474C4.27759 11.3702 5.38191 10.2666 6.8591 10.2666C8.34983 10.2666 9.44988 11.3709 9.44703 12.8681C9.44703 14.3396 8.33486 15.4346 6.85197 15.4346C5.36908 15.4346 4.27759 14.3267 4.27759 12.8474ZM7.69394 12.8602C7.69576 12.6957 7.64875 12.5343 7.55886 12.3965C7.46896 12.2587 7.34022 12.1506 7.18891 12.0859C7.0376 12.0213 6.87051 12.003 6.70878 12.0333C6.54704 12.0636 6.39793 12.1411 6.28029 12.2562C6.16265 12.3712 6.08176 12.5186 6.04786 12.6796C6.01396 12.8406 6.02857 13.0081 6.08984 13.1608C6.15111 13.3135 6.25628 13.4446 6.39207 13.5376C6.52785 13.6305 6.68815 13.6811 6.85268 13.683C6.96238 13.6857 7.07153 13.6665 7.17366 13.6263C7.2758 13.5862 7.36886 13.526 7.44735 13.4493C7.52583 13.3726 7.58816 13.281 7.63063 13.1798C7.67311 13.0786 7.69488 12.97 7.69465 12.8602H7.69394Z" fill="#475569"/>
        <path d="M15.4355 12.8453C15.4355 14.326 14.3362 15.4346 12.8633 15.436C11.3697 15.436 10.2647 14.3346 10.2654 12.8438C10.2654 11.3688 11.3718 10.2666 12.8512 10.2666C14.3305 10.2666 15.4355 11.3681 15.4355 12.8453ZM12.8562 13.6837C13.0209 13.6828 13.1817 13.6331 13.3182 13.5408C13.4547 13.4486 13.5607 13.3179 13.6229 13.1653C13.6851 13.0128 13.7007 12.8452 13.6676 12.6838C13.6345 12.5224 13.5543 12.3744 13.4371 12.2586C13.3199 12.1428 13.171 12.0644 13.0092 12.0333C12.8475 12.0021 12.6801 12.0197 12.5283 12.0837C12.3765 12.1477 12.2471 12.2554 12.1564 12.393C12.0658 12.5305 12.0181 12.6919 12.0192 12.8567C12.0185 12.9663 12.0398 13.075 12.0817 13.1763C12.1236 13.2776 12.1854 13.3695 12.2634 13.4465C12.3414 13.5236 12.434 13.5843 12.5358 13.625C12.6376 13.6657 12.7465 13.6857 12.8562 13.6837Z" fill="#475569"/>
        <path d="M21.4241 12.8488C21.4241 14.3274 20.3226 15.4346 18.8483 15.436C17.3561 15.436 16.2532 14.3331 16.2546 12.8396C16.2546 11.3659 17.3632 10.2652 18.844 10.2666C20.3247 10.268 21.4241 11.3702 21.4241 12.8488ZM19.671 12.8567C19.672 12.6922 19.6242 12.531 19.5336 12.3937C19.443 12.2563 19.3138 12.1489 19.1622 12.085C19.0106 12.0211 18.8434 12.0036 18.6819 12.0347C18.5203 12.0658 18.3716 12.144 18.2545 12.2596C18.1374 12.3752 18.0572 12.5229 18.0241 12.6841C17.9909 12.8452 18.0063 13.0126 18.0683 13.165C18.1302 13.3174 18.236 13.448 18.3721 13.5403C18.5083 13.6327 18.6688 13.6825 18.8333 13.6837C18.9431 13.686 19.0522 13.6662 19.1542 13.6256C19.2562 13.585 19.349 13.5244 19.4272 13.4473C19.5053 13.3702 19.5673 13.2782 19.6093 13.1767C19.6513 13.0753 19.6725 12.9665 19.6717 12.8567H19.671Z" fill="#475569"/>
        <path d="M12.8462 16.2549C14.3284 16.2549 15.4341 17.3528 15.4363 18.8278C15.4363 20.325 14.3355 21.4257 12.8434 21.425C11.369 21.425 10.2661 20.3171 10.2668 18.8385C10.2676 17.3599 11.3719 16.2556 12.8462 16.2549ZM12.8462 18.0073C12.6815 18.0074 12.5205 18.0564 12.3836 18.1481C12.2467 18.2398 12.1401 18.37 12.0772 18.5223C12.0144 18.6746 11.9981 18.8421 12.0305 19.0036C12.0629 19.1652 12.1424 19.3135 12.2591 19.4298C12.3758 19.5461 12.5244 19.6251 12.6861 19.657C12.8477 19.6888 13.0152 19.672 13.1672 19.6086C13.3193 19.5452 13.4492 19.4382 13.5404 19.301C13.6316 19.1637 13.6801 19.0026 13.6796 18.8378C13.6804 18.7287 13.6594 18.6206 13.618 18.5197C13.5765 18.4188 13.5154 18.3271 13.4381 18.2501C13.3609 18.173 13.2691 18.1121 13.1681 18.0709C13.0671 18.0297 12.9589 18.0091 12.8498 18.0101L12.8462 18.0073Z" fill="#475569"/>
    </g>
    <defs>
        <clipPath id="clip0_2537_46502">
            <rect width="24" height="24" fill="white"/>
        </clipPath>
    </defs>
</svg>
