<svg width="24" height="25" viewBox="0 0 24 25" fill="none" xmlns="http://www.w3.org/2000/svg">
<path d="M10.3744 13.8728C10.306 13.7699 10.2131 13.6856 10.1042 13.6272C9.99528 13.5689 9.87362 13.5383 9.75005 13.5383C9.62647 13.5383 9.50481 13.5689 9.39589 13.6272C9.28696 13.6856 9.19413 13.7699 9.12567 13.8728L7.17098 16.8063L6.25599 15.3831C6.18808 15.2775 6.09472 15.1905 5.98448 15.1303C5.87424 15.0702 5.75065 15.0386 5.62505 15.0386C5.49944 15.0386 5.37585 15.0702 5.26561 15.1303C5.15537 15.1905 5.06202 15.2775 4.99411 15.3831L1.61911 20.6331C1.54618 20.7464 1.50512 20.8773 1.50025 21.012C1.49538 21.1466 1.52688 21.2801 1.59144 21.3984C1.656 21.5167 1.75123 21.6154 1.86712 21.6841C1.98302 21.7529 2.1153 21.7891 2.25005 21.7891H14.25C14.3859 21.7892 14.5192 21.7524 14.6357 21.6826C14.7522 21.6129 14.8476 21.5128 14.9117 21.3931C14.9758 21.2733 15.0062 21.1384 14.9997 21.0028C14.9931 20.8671 14.9498 20.7358 14.8744 20.6228L10.3744 13.8728ZM3.62348 20.2891L5.62505 17.1756L6.52786 18.5819C6.59519 18.6867 6.68758 18.7731 6.79668 18.8333C6.90578 18.8934 7.02814 18.9255 7.15273 18.9265C7.27731 18.9275 7.40019 18.8975 7.51026 18.8391C7.62033 18.7808 7.71412 18.6959 7.78317 18.5922L9.75192 15.6419L12.8485 20.2891H3.62348ZM20.0297 7.75844L14.7797 2.50844C14.6392 2.36805 14.4487 2.28915 14.25 2.28906H5.25005C4.85222 2.28906 4.47069 2.4471 4.18939 2.7284C3.90808 3.00971 3.75005 3.39124 3.75005 3.78906V12.7891C3.75005 12.988 3.82906 13.1787 3.96972 13.3194C4.11037 13.46 4.30114 13.5391 4.50005 13.5391C4.69896 13.5391 4.88972 13.46 5.03038 13.3194C5.17103 13.1787 5.25005 12.988 5.25005 12.7891V3.78906H13.5V8.28906C13.5 8.48797 13.5791 8.67874 13.7197 8.81939C13.8604 8.96004 14.0511 9.03906 14.25 9.03906H18.75V20.2891H18C17.8011 20.2891 17.6104 20.3681 17.4697 20.5087C17.3291 20.6494 17.25 20.8402 17.25 21.0391C17.25 21.238 17.3291 21.4287 17.4697 21.5694C17.6104 21.71 17.8011 21.7891 18 21.7891H18.75C19.1479 21.7891 19.5294 21.631 19.8107 21.3497C20.092 21.0684 20.25 20.6869 20.25 20.2891V8.28906C20.2501 8.19054 20.2308 8.09297 20.1931 8.00193C20.1555 7.91088 20.1003 7.82814 20.0307 7.75844H20.0297ZM15 4.84938L17.6897 7.53906H15V4.84938Z" fill="#21409A"/>
</svg>



