<svg width="24" height="18" viewBox="0 0 24 18" fill="none" xmlns="http://www.w3.org/2000/svg">
<path d="M19.5 3.79001H2.25V1.54001C2.25 1.3411 2.17098 1.15033 2.03033 1.00968C1.88968 0.869026 1.69891 0.790009 1.5 0.790009C1.30109 0.790009 1.11032 0.869026 0.96967 1.00968C0.829018 1.15033 0.75 1.3411 0.75 1.54001V16.54C0.75 16.7389 0.829018 16.9297 0.96967 17.0703C1.11032 17.211 1.30109 17.29 1.5 17.29C1.69891 17.29 1.88968 17.211 2.03033 17.0703C2.17098 16.9297 2.25 16.7389 2.25 16.54V13.54H21.75V16.54C21.75 16.7389 21.829 16.9297 21.9697 17.0703C22.1103 17.211 22.3011 17.29 22.5 17.29C22.6989 17.29 22.8897 17.211 23.0303 17.0703C23.171 16.9297 23.25 16.7389 23.25 16.54V7.54001C23.25 6.54545 22.8549 5.59162 22.1516 4.88836C21.4484 4.1851 20.4946 3.79001 19.5 3.79001ZM2.25 5.29001H9V12.04H2.25V5.29001ZM10.5 12.04V5.29001H19.5C20.0967 5.29001 20.669 5.52706 21.091 5.94902C21.5129 6.37098 21.75 6.94327 21.75 7.54001V12.04H10.5Z" fill="#21409A"/>
</svg>
