<svg width="22" height="22" viewBox="0 0 22 22" fill="none" xmlns="http://www.w3.org/2000/svg">
    <g clip-path="url(#clip0_2535_25205)">
        <path d="M0.500606 11.9497C0.500606 9.77161 0.500606 7.5935 0.500606 5.41539C0.500606 3.47929 1.92908 2.05505 3.87183 2.05021C4.2046 2.05021 4.53737 2.04537 4.87013 2.05021C5.02018 2.05324 5.07887 2.00665 5.09339 1.84692C5.18475 0.814135 5.90837 0.152837 6.9472 0.149207C8.95873 0.145577 10.9703 0.145577 12.9818 0.149207C14.0019 0.149207 14.7007 0.760893 14.8277 1.77311C14.8556 1.99394 14.9378 2.05626 15.1569 2.05505C15.6627 2.05142 16.1691 2.01935 16.6743 2.09135C18.0792 2.29101 19.268 3.53072 19.409 4.94468C19.4328 5.19282 19.4441 5.44201 19.4429 5.69128C19.4429 6.78034 19.4429 7.86939 19.4429 8.95845C19.4429 9.40859 19.144 9.73652 18.7556 9.73531C18.3672 9.7341 18.0731 9.41343 18.0719 8.95663C18.0677 7.73145 18.0755 6.50626 18.0665 5.28107C18.0598 4.39349 17.4699 3.64749 16.6071 3.46598C16.0795 3.35587 15.5368 3.42847 15.0008 3.42424C14.8943 3.42424 14.8664 3.49926 14.8531 3.59001C14.8369 3.7326 14.8119 3.87405 14.7781 4.01354C14.6809 4.38265 14.4636 4.70892 14.1605 4.94094C13.8574 5.17295 13.4857 5.29751 13.104 5.29499C11.0469 5.29902 8.98979 5.29902 6.93268 5.29499C5.92954 5.29499 5.21561 4.67423 5.10428 3.68198C5.07887 3.4557 4.99356 3.40669 4.79269 3.41456C4.49018 3.42726 4.18766 3.4321 3.88515 3.41456C2.79186 3.35405 1.83591 4.18536 1.84619 5.47166C1.85285 6.35621 1.84619 7.24137 1.84619 8.12593C1.84619 11.5367 1.84619 14.9472 1.84619 18.3576C1.84619 18.6771 1.86797 18.9977 2.00169 19.2906C2.33869 20.0287 2.90923 20.4619 3.73207 20.4698C5.3354 20.4843 6.93873 20.4752 8.54146 20.4746C8.67756 20.4687 8.81374 20.4842 8.94501 20.5206C9.07996 20.5621 9.19836 20.6452 9.28337 20.7579C9.36838 20.8706 9.41565 21.0073 9.41847 21.1485C9.42128 21.2897 9.37949 21.4281 9.29905 21.5441C9.21861 21.6602 9.10361 21.7479 8.97043 21.7948C8.83365 21.8382 8.69023 21.8568 8.5469 21.8498C6.99682 21.8498 5.44653 21.8498 3.89604 21.8498C2.13842 21.8498 0.821271 20.7348 0.530251 18.9995C0.50674 18.8273 0.497431 18.6535 0.502419 18.4798C0.499999 16.3045 0.499395 14.1278 0.500606 11.9497ZM9.97659 1.52505C8.96377 1.52505 7.95095 1.52505 6.93813 1.52505C6.58055 1.52505 6.46499 1.64242 6.46257 2.00302C6.45935 2.48704 6.45935 2.97107 6.46257 3.45509C6.46257 3.80661 6.60657 3.9488 6.95809 3.95243C7.32111 3.95606 7.68413 3.95243 8.04715 3.95243C9.67952 3.95243 11.3121 3.95243 12.9449 3.95243C13.34 3.95243 13.4809 3.81085 13.4821 3.42484C13.4821 2.96381 13.4821 2.50277 13.4821 2.04174C13.4821 1.64545 13.3611 1.52626 12.9703 1.52565C11.9724 1.52525 10.9745 1.52505 9.97659 1.52505Z" fill="#21409A"/>
        <path d="M19.0973 11.2974C20.1198 11.3264 20.8736 11.7814 21.299 12.7234C21.4901 13.1553 21.5462 13.6349 21.4598 14.0992C21.3735 14.5635 21.1486 14.9909 20.8149 15.3251C18.8821 17.2725 16.9427 19.2138 14.997 21.1491C14.7884 21.35 14.5215 21.4797 14.2346 21.5194C13.6544 21.6198 13.0748 21.7251 12.4921 21.8104C11.4969 21.9562 10.792 21.2411 10.9505 20.2524C11.0449 19.6637 11.1538 19.0769 11.253 18.4888C11.301 18.1955 11.4421 17.9255 11.6554 17.7186C13.558 15.8151 15.4612 13.9125 17.365 12.0107C17.5891 11.779 17.8587 11.5961 18.1567 11.4733C18.4548 11.3506 18.775 11.2907 19.0973 11.2974ZM12.3088 20.3837C12.2737 20.5295 12.3608 20.5126 12.4643 20.4914C12.9374 20.3952 13.4112 20.299 13.8861 20.2125C14.0128 20.1893 14.1285 20.1256 14.2159 20.031C15.4832 18.7552 16.7522 17.4812 18.0227 16.209C18.154 16.0777 18.1383 16.0009 18.0149 15.8811C17.624 15.5027 17.2394 15.1179 16.8611 14.7267C16.7401 14.599 16.6681 14.6184 16.5531 14.734C15.2797 16.0146 14.0035 17.2924 12.7245 18.5674C12.6549 18.637 12.5787 18.703 12.5617 18.8094C12.4776 19.331 12.3947 19.8525 12.3088 20.3837ZM20.1397 13.66C20.1083 13.2365 19.9304 12.8977 19.5317 12.7265C19.1329 12.5552 18.7451 12.5994 18.4118 12.8922C18.1915 13.0865 17.9949 13.3073 17.7819 13.51C17.6893 13.5983 17.6906 13.6612 17.7819 13.752C18.1905 14.1553 18.5959 14.5607 18.998 14.9681C19.0918 15.0637 19.162 15.0752 19.2582 14.9735C19.4554 14.7654 19.6624 14.567 19.8632 14.3619C20.0508 14.1664 20.1198 13.9226 20.1403 13.66H20.1397Z" fill="#21409A"/>
        <path d="M9.18385 9.82682H5.87313C5.34554 9.82682 5.00552 9.55577 5.00733 9.1389C5.00915 8.72204 5.34736 8.4534 5.87676 8.4534C8.08391 8.4534 10.2911 8.4534 12.4982 8.4534C12.6039 8.45143 12.7095 8.45995 12.8134 8.47881C13.151 8.54718 13.3634 8.80069 13.3688 9.12862C13.3743 9.45654 13.1619 9.71308 12.8328 9.79778C12.6513 9.84376 12.4698 9.82501 12.2883 9.82501C11.2545 9.82743 10.2197 9.82803 9.18385 9.82682Z" fill="#21409A"/>
        <path d="M7.27658 12.1723C7.79025 12.1723 8.30513 12.1656 8.81759 12.1723C9.20905 12.1789 9.49462 12.45 9.51156 12.81C9.5285 13.17 9.27862 13.464 8.89261 13.5179C8.82559 13.5291 8.75787 13.5358 8.68993 13.5378C7.74568 13.5378 6.80143 13.5378 5.85718 13.5378C5.78174 13.5354 5.70655 13.5279 5.63211 13.5154C5.25578 13.464 4.99864 13.1803 5.01014 12.8293C5.01638 12.6535 5.09042 12.4869 5.21673 12.3644C5.34304 12.242 5.51183 12.1731 5.68777 12.1723C6.21838 12.1626 6.74778 12.1723 7.27658 12.1723Z" fill="#21409A"/>
    </g>
    <defs>
        <clipPath id="clip0_2535_25205">
            <rect width="21" height="21.7049" fill="white" transform="translate(0.5 0.148438)"/>
        </clipPath>
    </defs>
</svg>
