<svg width="22" height="22" viewBox="0 0 22 22" fill="none" xmlns="http://www.w3.org/2000/svg">
    <g clip-path="url(#clip0_103_210)">
        <path d="M0.500606 11.949C0.500606 9.77085 0.500606 7.59274 0.500606 5.41463C0.500606 3.47853 1.92908 2.05429 3.87183 2.04945C4.2046 2.04945 4.53737 2.04461 4.87013 2.04945C5.02018 2.05247 5.07887 2.00589 5.09339 1.84616C5.18475 0.813372 5.90837 0.152074 6.9472 0.148444C8.95873 0.144814 10.9703 0.144814 12.9818 0.148444C14.0019 0.148444 14.7007 0.76013 14.8277 1.77235C14.8556 1.99318 14.9378 2.0555 15.1569 2.05429C15.6627 2.05066 16.1691 2.01859 16.6743 2.09059C18.0792 2.29025 19.268 3.52996 19.409 4.94391C19.4328 5.19206 19.4441 5.44124 19.4429 5.69052C19.4429 6.77958 19.4429 7.86863 19.4429 8.95768C19.4429 9.40783 19.144 9.73576 18.7556 9.73455C18.3672 9.73334 18.0731 9.41267 18.0719 8.95587C18.0677 7.73068 18.0755 6.5055 18.0665 5.28031C18.0598 4.39273 17.4699 3.64673 16.6071 3.46522C16.0795 3.3551 15.5368 3.42771 15.0008 3.42347C14.8943 3.42347 14.8664 3.4985 14.8531 3.58925C14.8369 3.73184 14.8119 3.87329 14.7781 4.01277C14.6809 4.38189 14.4636 4.70816 14.1605 4.94017C13.8574 5.17218 13.4857 5.29674 13.104 5.29423C11.0469 5.29826 8.98979 5.29826 6.93268 5.29423C5.92954 5.29423 5.21561 4.67347 5.10428 3.68122C5.07887 3.45493 4.99356 3.40593 4.79269 3.41379C4.49018 3.4265 4.18766 3.43134 3.88515 3.41379C2.79186 3.35329 1.83591 4.1846 1.84619 5.4709C1.85285 6.35545 1.84619 7.24061 1.84619 8.12516C1.84619 11.5359 1.84619 14.9465 1.84619 18.3568C1.84619 18.6763 1.86797 18.997 2.00169 19.2898C2.33869 20.0279 2.90923 20.4611 3.73207 20.469C5.3354 20.4835 6.93873 20.4744 8.54146 20.4738C8.67755 20.4679 8.81374 20.4834 8.94502 20.5198C9.07996 20.5614 9.19836 20.6444 9.28337 20.7571C9.36838 20.8699 9.41565 21.0066 9.41847 21.1477C9.42128 21.2889 9.37949 21.4273 9.29905 21.5434C9.21861 21.6594 9.10361 21.7471 8.97043 21.794C8.83365 21.8374 8.69023 21.8561 8.5469 21.8491C6.99682 21.8491 5.44653 21.8491 3.89604 21.8491C2.13842 21.8491 0.821271 20.734 0.530251 18.9988C0.50674 18.8266 0.497431 18.6528 0.502419 18.479C0.499999 16.3038 0.499395 14.1271 0.500606 11.949ZM9.97659 1.52428C8.96377 1.52428 7.95095 1.52428 6.93813 1.52428C6.58055 1.52428 6.46499 1.64166 6.46257 2.00226C6.45935 2.48628 6.45935 2.9703 6.46257 3.45433C6.46257 3.80585 6.60657 3.94803 6.95809 3.95166C7.32111 3.95529 7.68413 3.95166 8.04715 3.95166C9.67952 3.95166 11.3121 3.95166 12.9449 3.95166C13.34 3.95166 13.4809 3.81009 13.4821 3.42408C13.4821 2.96304 13.4821 2.50201 13.4821 2.04098C13.4821 1.64468 13.3611 1.52549 12.9703 1.52489C11.9724 1.52448 10.9745 1.52428 9.97659 1.52428Z" fill="black"/>
        <path d="M19.0974 11.2967C20.1199 11.3258 20.8738 11.7808 21.2991 12.7228C21.4903 13.1547 21.5464 13.6343 21.46 14.0986C21.3736 14.5629 21.1488 14.9902 20.8151 15.3244C18.8822 17.2718 16.9429 19.2132 14.9971 21.1485C14.7886 21.3494 14.5217 21.479 14.2348 21.5187C13.6546 21.6192 13.075 21.7244 12.4923 21.8098C11.497 21.9556 10.7922 21.2404 10.9507 20.2518C11.0451 19.6631 11.154 19.0762 11.2532 18.4881C11.3012 18.1949 11.4423 17.9249 11.6556 17.7179C13.5582 15.8145 15.4614 13.9119 17.3652 12.0101C17.5893 11.7784 17.8588 11.5954 18.1569 11.4727C18.455 11.3499 18.7752 11.29 19.0974 11.2967ZM12.309 20.3831C12.2739 20.5289 12.361 20.512 12.4645 20.4908C12.9376 20.3946 13.4114 20.2984 13.8863 20.2119C14.013 20.1887 14.1287 20.125 14.216 20.0304C15.4834 18.7545 16.7523 17.4806 18.0229 16.2084C18.1542 16.0771 18.1385 16.0002 18.015 15.8805C17.6242 15.5021 17.2396 15.1173 16.8612 14.7261C16.7402 14.5984 16.6682 14.6178 16.5533 14.7333C15.2799 16.014 14.0037 17.2918 12.7247 18.5668C12.6551 18.6364 12.5788 18.7023 12.5619 18.8088C12.4778 19.3303 12.3949 19.8519 12.309 20.3831ZM20.1399 13.6594C20.1084 13.2359 19.9306 12.897 19.5318 12.7258C19.1331 12.5546 18.7453 12.5988 18.4119 12.8916C18.1917 13.0858 17.9951 13.3067 17.7821 13.5093C17.6895 13.5977 17.6907 13.6606 17.7821 13.7513C18.1907 14.1547 18.5961 14.5601 18.9982 14.9675C19.092 15.0631 19.1622 15.0746 19.2584 14.9729C19.4556 14.7648 19.6625 14.5663 19.8634 14.3612C20.051 14.1658 20.1199 13.922 20.1405 13.6594H20.1399Z" fill="black"/>
        <path d="M9.18401 9.82652H5.87328C5.3457 9.82652 5.00567 9.55546 5.00748 9.1386C5.0093 8.72173 5.34751 8.4531 5.87691 8.4531C8.08406 8.4531 10.2912 8.4531 12.4984 8.4531C12.604 8.45113 12.7096 8.45964 12.8136 8.47851C13.1512 8.54688 13.3636 8.80039 13.369 9.12831C13.3744 9.45624 13.1621 9.71277 12.8329 9.79748C12.6514 9.84346 12.4699 9.8247 12.2884 9.8247C11.2546 9.82712 10.2198 9.82773 9.18401 9.82652Z" fill="black"/>
        <path d="M7.27634 12.1728C7.79001 12.1728 8.30489 12.1662 8.81735 12.1728C9.2088 12.1795 9.49438 12.4505 9.51132 12.8105C9.52826 13.1705 9.27838 13.4646 8.89237 13.5184C8.82534 13.5297 8.75762 13.5363 8.68969 13.5384C7.74544 13.5384 6.80119 13.5384 5.85693 13.5384C5.7815 13.5359 5.70631 13.5284 5.63186 13.516C5.25554 13.4646 4.9984 13.1808 5.00989 12.8299C5.01614 12.6541 5.09017 12.4875 5.21648 12.365C5.34279 12.2425 5.51159 12.1736 5.68753 12.1728C6.21814 12.1631 6.74754 12.1728 7.27634 12.1728Z" fill="black"/>
    </g>
    <defs>
        <clipPath id="clip0_103_210">
            <rect width="21" height="21.7049" fill="white" transform="translate(0.5 0.148438)"/>
        </clipPath>
    </defs>
</svg>
