<svg width="24" height="25" viewBox="0 0 24 25" fill="none" xmlns="http://www.w3.org/2000/svg">
    <path fill-rule="evenodd" clip-rule="evenodd" d="M11.3931 4.46207C11.7515 4.18854 12.2485 4.18859 12.6068 4.46219L23 12.3988L21.79 13.9788L20 12.6188V20.9988C20 21.5511 19.5523 21.9988 19 21.9988H5C4.44772 21.9988 4 21.5511 4 20.9988V12.6188L2.21 13.9888L1 12.3988L4 10.1088L6 8.57882L11.3931 4.46207ZM17 19.9988C17.5523 19.9988 18 19.5511 18 18.9988V11.0988L12.6068 6.98198C12.2485 6.70849 11.7515 6.70849 11.3932 6.98198L6 11.0988V18.9988C6 19.5511 6.44772 19.9988 7 19.9988H11V15.9988C11 15.4465 11.4477 14.9988 12 14.9988C12.5523 14.9988 13 15.4465 13 15.9988V19.9988H17Z" fill="black"/>
    <mask id="mask0_2535_54" style="mask-type:luminance" maskUnits="userSpaceOnUse" x="1" y="4" width="22" height="18">
        <path fill-rule="evenodd" clip-rule="evenodd" d="M11.3931 4.46207C11.7515 4.18854 12.2485 4.18859 12.6068 4.46219L23 12.3988L21.79 13.9788L20 12.6188V20.9988C20 21.5511 19.5523 21.9988 19 21.9988H5C4.44772 21.9988 4 21.5511 4 20.9988V12.6188L2.21 13.9888L1 12.3988L4 10.1088L6 8.57882L11.3931 4.46207ZM17 19.9988C17.5523 19.9988 18 19.5511 18 18.9988V11.0988L12.6068 6.98198C12.2485 6.70849 11.7515 6.70849 11.3932 6.98198L6 11.0988V18.9988C6 19.5511 6.44772 19.9988 7 19.9988H11V15.9988C11 15.4465 11.4477 14.9988 12 14.9988C12.5523 14.9988 13 15.4465 13 15.9988V19.9988H17Z" fill="white"/>
    </mask>
    <g mask="url(#mask0_2535_54)">
        <rect y="0.998779" width="24" height="24" fill="#101010"/>
    </g>
</svg>
