<svg width="24" height="24" viewBox="0 0 24 24" fill="none" xmlns="http://www.w3.org/2000/svg">
    <path fill-rule="evenodd" clip-rule="evenodd" d="M11.3931 3.46317C11.7515 3.18964 12.2485 3.18969 12.6068 3.46329L23 11.3999L21.79 12.9799L20 11.6199V19.9999C20 20.5522 19.5523 20.9999 19 20.9999H5C4.44772 20.9999 4 20.5522 4 19.9999V11.6199L2.21 12.9899L1 11.3999L4 9.10992L6 7.57992L11.3931 3.46317ZM17 18.9999C17.5523 18.9999 18 18.5522 18 17.9999V10.0999L12.6068 5.98308C12.2485 5.70959 11.7515 5.70959 11.3932 5.98308L6 10.0999V17.9999C6 18.5522 6.44772 18.9999 7 18.9999H11V14.9999C11 14.4476 11.4477 13.9999 12 13.9999C12.5523 13.9999 13 14.4476 13 14.9999V18.9999H17Z" fill="black"/>
    <mask id="mask0_2535_5865" style="mask-type:luminance" maskUnits="userSpaceOnUse" x="1" y="3" width="22" height="18">
        <path fill-rule="evenodd" clip-rule="evenodd" d="M11.3931 3.46317C11.7515 3.18964 12.2485 3.18969 12.6068 3.46329L23 11.3999L21.79 12.9799L20 11.6199V19.9999C20 20.5522 19.5523 20.9999 19 20.9999H5C4.44772 20.9999 4 20.5522 4 19.9999V11.6199L2.21 12.9899L1 11.3999L4 9.10992L6 7.57992L11.3931 3.46317ZM17 18.9999C17.5523 18.9999 18 18.5522 18 17.9999V10.0999L12.6068 5.98308C12.2485 5.70959 11.7515 5.70959 11.3932 5.98308L6 10.0999V17.9999C6 18.5522 6.44772 18.9999 7 18.9999H11V14.9999C11 14.4476 11.4477 13.9999 12 13.9999C12.5523 13.9999 13 14.4476 13 14.9999V18.9999H17Z" fill="white"/>
    </mask>
    <g mask="url(#mask0_2535_5865)">
        <rect width="24" height="24" fill="#21409A"/>
    </g>
</svg>
