<svg width="26" height="20" viewBox="0 0 26 20" fill="none" xmlns="http://www.w3.org/2000/svg">
    <g clip-path="url(#clip0_2537_59841)">
        <path d="M26.0001 2.94363V17.0603C25.9703 17.1595 25.9425 17.2593 25.9107 17.3579C25.5722 18.4185 24.5227 19.1746 23.3588 19.1746C16.4525 19.1776 9.54628 19.1776 2.64003 19.1746C2.32603 19.1756 2.01485 19.119 1.72393 19.008C0.776016 18.6481 0.226224 17.9785 -0.00195312 17.0571C-0.00195312 12.3516 -0.00195312 7.646 -0.00195312 2.94045C0.0136198 2.88703 0.0291925 2.83362 0.0454425 2.7802C0.413099 1.54977 1.42872 0.824219 2.79169 0.824219C9.60451 0.824219 16.4173 0.824219 23.2301 0.824219C23.979 0.824219 24.6222 1.04869 25.1686 1.52369C25.6108 1.90968 25.8653 2.39422 26.0001 2.94363ZM12.9832 18.1006C16.3934 18.1006 19.8034 18.1006 23.2132 18.1006C24.2221 18.1006 24.8727 17.4959 24.8734 16.5554C24.877 12.1847 24.877 7.81388 24.8734 3.4428C24.8734 2.5125 24.2241 1.90268 23.2342 1.90205C16.4142 1.89908 9.5939 1.89908 2.77341 1.90205C1.76997 1.90205 1.12607 2.51186 1.12539 3.45869C1.12223 7.82172 1.12223 12.1845 1.12539 16.5471C1.11813 16.6979 1.13271 16.849 1.16872 16.9961C1.37185 17.6816 1.96565 18.0993 2.77815 18.1C6.17982 18.1038 9.58148 18.104 12.9832 18.1006Z" fill="#475569"/>
        <path fill-rule="evenodd" clip-rule="evenodd" d="M17.97 5C17.9864 5 17.9997 5.0133 17.9997 5.0297V7.5C17.9997 7.77614 17.7759 8 17.4997 8C17.2236 8 16.9997 7.77614 16.9997 7.5V6H15.4997C15.2236 6 14.9997 5.77614 14.9997 5.5C14.9997 5.22386 15.2236 5 15.4997 5H17.97ZM18 9.99917C18 9.72303 17.7761 9.49917 17.5 9.49917H8.5C8.22386 9.49917 8 9.72303 8 9.99917C8 10.2753 8.22386 10.4992 8.5 10.4992H17.5C17.7761 10.4992 18 10.2753 18 9.99917ZM8.50024 11.999C8.77639 11.999 9.00024 12.2228 9.00024 12.499V13.9995H10.4997C10.7759 13.9995 10.9997 14.2233 10.9997 14.4995C10.9997 14.7756 10.7759 14.9995 10.4997 14.9995H8.02994C8.01354 14.9995 8.00024 14.9862 8.00024 14.9698V12.499C8.00024 12.2228 8.2241 11.999 8.50024 11.999ZM17.4997 11.9995C17.7759 11.9995 17.9997 12.2233 17.9997 12.4995V14.9698C17.9997 14.9862 17.9864 14.9995 17.97 14.9995H15.4992C15.2231 14.9995 14.9992 14.7756 14.9992 14.4995C14.9992 14.2233 15.2231 13.9995 15.4992 13.9995H16.9997V12.4995C16.9997 12.2233 17.2236 11.9995 17.4997 11.9995ZM11.0002 5.5C11.0002 5.22386 10.7764 5 10.5002 5H8.02994C8.01354 5 8.00024 5.0133 8.00024 5.0297V7.4995C8.00024 7.77564 8.2241 7.9995 8.50024 7.9995C8.77639 7.9995 9.00024 7.77564 9.00024 7.4995V6H10.5002C10.7764 6 11.0002 5.77614 11.0002 5.5Z" fill="#475569"/>
        <mask id="mask0_2537_59841" style="mask-type:luminance" maskUnits="userSpaceOnUse" x="8" y="5" width="10" height="10">
            <path fill-rule="evenodd" clip-rule="evenodd" d="M17.97 5C17.9864 5 17.9997 5.0133 17.9997 5.0297V7.5C17.9997 7.77614 17.7759 8 17.4997 8C17.2236 8 16.9997 7.77614 16.9997 7.5V6H15.4997C15.2236 6 14.9997 5.77614 14.9997 5.5C14.9997 5.22386 15.2236 5 15.4997 5H17.97ZM18 9.99917C18 9.72303 17.7761 9.49917 17.5 9.49917H8.5C8.22386 9.49917 8 9.72303 8 9.99917C8 10.2753 8.22386 10.4992 8.5 10.4992H17.5C17.7761 10.4992 18 10.2753 18 9.99917ZM8.50024 11.999C8.77639 11.999 9.00024 12.2228 9.00024 12.499V13.9995H10.4997C10.7759 13.9995 10.9997 14.2233 10.9997 14.4995C10.9997 14.7756 10.7759 14.9995 10.4997 14.9995H8.02994C8.01354 14.9995 8.00024 14.9862 8.00024 14.9698V12.499C8.00024 12.2228 8.2241 11.999 8.50024 11.999ZM17.4997 11.9995C17.7759 11.9995 17.9997 12.2233 17.9997 12.4995V14.9698C17.9997 14.9862 17.9864 14.9995 17.97 14.9995H15.4992C15.2231 14.9995 14.9992 14.7756 14.9992 14.4995C14.9992 14.2233 15.2231 13.9995 15.4992 13.9995H16.9997V12.4995C16.9997 12.2233 17.2236 11.9995 17.4997 11.9995ZM11.0002 5.5C11.0002 5.22386 10.7764 5 10.5002 5H8.02994C8.01354 5 8.00024 5.0133 8.00024 5.0297V7.4995C8.00024 7.77564 8.2241 7.9995 8.50024 7.9995C8.77639 7.9995 9.00024 7.77564 9.00024 7.4995V6H10.5002C10.7764 6 11.0002 5.77614 11.0002 5.5Z" fill="white"/>
        </mask>
        <g mask="url(#mask0_2537_59841)">
            <rect x="7.00049" y="4" width="12" height="12" fill="#475569"/>
        </g>
    </g>
    <defs>
        <clipPath id="clip0_2537_59841">
            <rect width="26" height="18.3529" fill="white" transform="translate(0 0.824219)"/>
        </clipPath>
    </defs>
</svg>
