<svg width="26" height="20" viewBox="0 0 26 20" fill="none" xmlns="http://www.w3.org/2000/svg">
    <g clip-path="url(#clip0_2537_46443)">
        <path d="M26.0001 2.94265V17.0593C25.9703 17.1585 25.9425 17.2584 25.9107 17.3569C25.5722 18.4176 24.5227 19.1736 23.3588 19.1736C16.4525 19.1766 9.54628 19.1766 2.64003 19.1736C2.32603 19.1746 2.01485 19.118 1.72393 19.007C0.776016 18.6471 0.226224 17.9775 -0.00195312 17.0561C-0.00195312 12.3506 -0.00195312 7.64503 -0.00195312 2.93947C0.0136198 2.88606 0.0291925 2.83264 0.0454425 2.77923C0.413099 1.54879 1.42872 0.823242 2.79169 0.823242C9.60451 0.823242 16.4173 0.823242 23.2301 0.823242C23.979 0.823242 24.6222 1.04771 25.1686 1.52272C25.6108 1.9087 25.8653 2.39325 26.0001 2.94265ZM12.9832 18.0996C16.3934 18.0996 19.8034 18.0996 23.2132 18.0996C24.2221 18.0996 24.8727 17.4949 24.8734 16.5544C24.877 12.1838 24.877 7.8129 24.8734 3.44182C24.8734 2.51152 24.2241 1.90171 23.2342 1.90107C16.4142 1.8981 9.5939 1.8981 2.77341 1.90107C1.76997 1.90107 1.12607 2.51088 1.12539 3.45772C1.12223 7.82074 1.12223 12.1836 1.12539 16.5462C1.11813 16.697 1.13271 16.848 1.16872 16.9951C1.37185 17.6806 1.96565 18.0984 2.77815 18.099C6.17982 18.1028 9.58148 18.103 12.9832 18.0996Z" fill="#21409A"/>
        <path fill-rule="evenodd" clip-rule="evenodd" d="M17.97 4.99902C17.9864 4.99902 17.9997 5.01232 17.9997 5.02873V7.49902C17.9997 7.77517 17.7759 7.99902 17.4997 7.99902C17.2236 7.99902 16.9997 7.77517 16.9997 7.49902V5.99902H15.4997C15.2236 5.99902 14.9997 5.77517 14.9997 5.49902C14.9997 5.22288 15.2236 4.99902 15.4997 4.99902H17.97ZM18 9.9982C18 9.72206 17.7761 9.4982 17.5 9.4982H8.5C8.22386 9.4982 8 9.72206 8 9.9982C8 10.2743 8.22386 10.4982 8.5 10.4982H17.5C17.7761 10.4982 18 10.2743 18 9.9982ZM8.50024 11.998C8.77639 11.998 9.00024 12.2219 9.00024 12.498V13.9985H10.4997C10.7759 13.9985 10.9997 14.2224 10.9997 14.4985C10.9997 14.7747 10.7759 14.9985 10.4997 14.9985H8.02994C8.01354 14.9985 8.00024 14.9852 8.00024 14.9688V12.498C8.00024 12.2219 8.2241 11.998 8.50024 11.998ZM17.4997 11.9985C17.7759 11.9985 17.9997 12.2224 17.9997 12.4985V14.9688C17.9997 14.9852 17.9864 14.9985 17.97 14.9985H15.4992C15.2231 14.9985 14.9992 14.7746 14.9992 14.4985C14.9992 14.2224 15.2231 13.9985 15.4992 13.9985H16.9997V12.4985C16.9997 12.2224 17.2236 11.9985 17.4997 11.9985ZM11.0002 5.49902C11.0002 5.22288 10.7764 4.99902 10.5002 4.99902H8.02994C8.01354 4.99902 8.00024 5.01232 8.00024 5.02872V7.49852C8.00024 7.77467 8.2241 7.99852 8.50024 7.99852C8.77639 7.99852 9.00024 7.77467 9.00024 7.49852V5.99902H10.5002C10.7764 5.99902 11.0002 5.77517 11.0002 5.49902Z" fill="#21409A"/>
        <mask id="mask0_2537_46443" style="mask-type:luminance" maskUnits="userSpaceOnUse" x="8" y="4" width="10" height="11">
            <path fill-rule="evenodd" clip-rule="evenodd" d="M17.97 4.99902C17.9864 4.99902 17.9997 5.01232 17.9997 5.02873V7.49902C17.9997 7.77517 17.7759 7.99902 17.4997 7.99902C17.2236 7.99902 16.9997 7.77517 16.9997 7.49902V5.99902H15.4997C15.2236 5.99902 14.9997 5.77517 14.9997 5.49902C14.9997 5.22288 15.2236 4.99902 15.4997 4.99902H17.97ZM18 9.9982C18 9.72206 17.7761 9.4982 17.5 9.4982H8.5C8.22386 9.4982 8 9.72206 8 9.9982C8 10.2743 8.22386 10.4982 8.5 10.4982H17.5C17.7761 10.4982 18 10.2743 18 9.9982ZM8.50024 11.998C8.77639 11.998 9.00024 12.2219 9.00024 12.498V13.9985H10.4997C10.7759 13.9985 10.9997 14.2224 10.9997 14.4985C10.9997 14.7747 10.7759 14.9985 10.4997 14.9985H8.02994C8.01354 14.9985 8.00024 14.9852 8.00024 14.9688V12.498C8.00024 12.2219 8.2241 11.998 8.50024 11.998ZM17.4997 11.9985C17.7759 11.9985 17.9997 12.2224 17.9997 12.4985V14.9688C17.9997 14.9852 17.9864 14.9985 17.97 14.9985H15.4992C15.2231 14.9985 14.9992 14.7746 14.9992 14.4985C14.9992 14.2224 15.2231 13.9985 15.4992 13.9985H16.9997V12.4985C16.9997 12.2224 17.2236 11.9985 17.4997 11.9985ZM11.0002 5.49902C11.0002 5.22288 10.7764 4.99902 10.5002 4.99902H8.02994C8.01354 4.99902 8.00024 5.01232 8.00024 5.02872V7.49852C8.00024 7.77467 8.2241 7.99852 8.50024 7.99852C8.77639 7.99852 9.00024 7.77467 9.00024 7.49852V5.99902H10.5002C10.7764 5.99902 11.0002 5.77517 11.0002 5.49902Z" fill="white"/>
        </mask>
        <g mask="url(#mask0_2537_46443)">
            <rect x="7.00049" y="3.99902" width="12" height="12" fill="#21409A"/>
        </g>
    </g>
    <defs>
        <clipPath id="clip0_2537_46443">
            <rect width="26" height="18.3529" fill="white" transform="translate(0 0.823242)"/>
        </clipPath>
    </defs>
</svg>
