<svg width="24" height="25" viewBox="0 0 24 25" fill="none" xmlns="http://www.w3.org/2000/svg">
<path d="M20.25 6.78906H12.2503L9.64969 4.83906C9.38967 4.64505 9.07411 4.53987 8.74969 4.53906H3.75C3.35218 4.53906 2.97064 4.6971 2.68934 4.9784C2.40804 5.25971 2.25 5.64124 2.25 6.03906V18.7891C2.25 19.1869 2.40804 19.5684 2.68934 19.8497C2.97064 20.131 3.35218 20.2891 3.75 20.2891H20.3334C20.709 20.2886 21.069 20.1392 21.3346 19.8736C21.6001 19.6081 21.7495 19.248 21.75 18.8725V8.28906C21.75 7.89124 21.592 7.50971 21.3107 7.2284C21.0294 6.9471 20.6478 6.78906 20.25 6.78906ZM20.25 18.7891H3.75V6.03906H8.74969L11.3503 7.98906C11.6103 8.18307 11.9259 8.28826 12.2503 8.28906H20.25V18.7891Z" fill="#475569"/>
</svg>
