<svg width="24" height="17" viewBox="0 0 24 17" fill="none" xmlns="http://www.w3.org/2000/svg">
<path d="M19.5 3.29004H2.25V1.04004C2.25 0.841127 2.17098 0.650361 2.03033 0.509709C1.88968 0.369057 1.69891 0.290039 1.5 0.290039C1.30109 0.290039 1.11032 0.369057 0.96967 0.509709C0.829018 0.650361 0.75 0.841127 0.75 1.04004V16.04C0.75 16.239 0.829018 16.4297 0.96967 16.5704C1.11032 16.711 1.30109 16.79 1.5 16.79C1.69891 16.79 1.88968 16.711 2.03033 16.5704C2.17098 16.4297 2.25 16.239 2.25 16.04V13.04H21.75V16.04C21.75 16.239 21.829 16.4297 21.9697 16.5704C22.1103 16.711 22.3011 16.79 22.5 16.79C22.6989 16.79 22.8897 16.711 23.0303 16.5704C23.171 16.4297 23.25 16.239 23.25 16.04V7.04004C23.25 6.04548 22.8549 5.09165 22.1516 4.38839C21.4484 3.68513 20.4946 3.29004 19.5 3.29004ZM2.25 4.79004H9V11.54H2.25V4.79004ZM10.5 11.54V4.79004H19.5C20.0967 4.79004 20.669 5.02709 21.091 5.44905C21.5129 5.87101 21.75 6.4433 21.75 7.04004V11.54H10.5Z" fill="#475569"/>
</svg>
