<svg width="22" height="22" viewBox="0 0 22 22" fill="none" xmlns="http://www.w3.org/2000/svg">
<path fill-rule="evenodd" clip-rule="evenodd" d="M9.698 0.290039H11.802C12.701 0.290039 13.45 0.290039 14.044 0.370039C14.672 0.454039 15.239 0.640039 15.694 1.09504C16.15 1.55104 16.336 2.11804 16.42 2.74504C16.443 2.91504 16.46 3.09604 16.47 3.29004C17.06 3.29004 17.558 3.29404 17.969 3.33604C18.442 3.38404 18.882 3.48904 19.278 3.75304C19.578 3.95404 19.836 4.21204 20.037 4.51304C20.301 4.90804 20.406 5.34804 20.454 5.82104C20.5 6.27304 20.5 6.83204 20.5 7.50104V20.29H20.75C20.9489 20.29 21.1397 20.3691 21.2803 20.5097C21.421 20.6504 21.5 20.8411 21.5 21.04C21.5 21.239 21.421 21.4297 21.2803 21.5704C21.1397 21.711 20.9489 21.79 20.75 21.79H0.75C0.551088 21.79 0.360322 21.711 0.21967 21.5704C0.0790177 21.4297 0 21.239 0 21.04C0 20.8411 0.0790177 20.6504 0.21967 20.5097C0.360322 20.3691 0.551088 20.29 0.75 20.29H1V7.50204C1 6.83204 1 6.27304 1.046 5.82104C1.094 5.34804 1.199 4.90804 1.463 4.51204C1.664 4.21204 1.922 3.95404 2.223 3.75304C2.618 3.48904 3.058 3.38404 3.531 3.33604C3.941 3.29404 4.44 3.29004 5.029 3.29004C5.041 3.09604 5.057 2.91504 5.079 2.74604C5.164 2.11804 5.35 1.55104 5.805 1.09604C6.261 0.640039 6.828 0.454039 7.455 0.370039C8.05 0.290039 8.8 0.290039 9.698 0.290039ZM5 4.79004C4.417 4.79004 4.006 4.79504 3.683 4.82804C3.328 4.86404 3.164 4.92804 3.056 5.00104C2.91946 5.09226 2.80222 5.20949 2.711 5.34604C2.638 5.45404 2.574 5.61804 2.538 5.97304C2.501 6.34004 2.5 6.82304 2.5 7.54004V20.29H5V13.79H4.25C4.05109 13.79 3.86032 13.711 3.71967 13.5704C3.57902 13.4297 3.5 13.239 3.5 13.04C3.5 12.8411 3.57902 12.6504 3.71967 12.5097C3.86032 12.3691 4.05109 12.29 4.25 12.29H5V10.79H4.25C4.05109 10.79 3.86032 10.711 3.71967 10.5704C3.57902 10.4297 3.5 10.239 3.5 10.04C3.5 9.84113 3.57902 9.65036 3.71967 9.50971C3.86032 9.36906 4.05109 9.29004 4.25 9.29004H5V7.79004H4.25C4.05109 7.79004 3.86032 7.71102 3.71967 7.57037C3.57902 7.42972 3.5 7.23895 3.5 7.04004C3.5 6.84113 3.57902 6.65036 3.71967 6.50971C3.86032 6.36906 4.05109 6.29004 4.25 6.29004H5V4.98804V4.79004ZM6.5 20.29H10V18.04C10 17.8411 10.079 17.6504 10.2197 17.5097C10.3603 17.3691 10.5511 17.29 10.75 17.29C10.9489 17.29 11.1397 17.3691 11.2803 17.5097C11.421 17.6504 11.5 17.8411 11.5 18.04V20.29H15V5.04004C15 4.07604 14.998 3.42804 14.933 2.94504C14.871 2.48404 14.764 2.28604 14.633 2.15604C14.503 2.02604 14.306 1.91904 13.845 1.85604C13.362 1.79204 12.714 1.79004 11.75 1.79004H9.75C8.786 1.79004 8.138 1.79204 7.655 1.85704C7.194 1.91904 6.996 2.02604 6.866 2.15704C6.736 2.28704 6.629 2.48404 6.566 2.94504C6.503 3.42804 6.5 4.07604 6.5 5.04004V20.29ZM16.5 7.79004H17.25C17.4489 7.79004 17.6397 7.71102 17.7803 7.57037C17.921 7.42972 18 7.23895 18 7.04004C18 6.84113 17.921 6.65036 17.7803 6.50971C17.6397 6.36906 17.4489 6.29004 17.25 6.29004H16.5V4.79004C17.083 4.79004 17.494 4.79504 17.817 4.82804C18.172 4.86404 18.336 4.92804 18.445 5.00104C18.581 5.09104 18.698 5.20904 18.789 5.34604C18.862 5.45404 18.926 5.61804 18.962 5.97304C18.999 6.34004 19 6.82304 19 7.54004V20.29H16.5V13.79H17.25C17.4489 13.79 17.6397 13.711 17.7803 13.5704C17.921 13.4297 18 13.239 18 13.04C18 12.8411 17.921 12.6504 17.7803 12.5097C17.6397 12.3691 17.4489 12.29 17.25 12.29H16.5V10.79H17.25C17.4489 10.79 17.6397 10.711 17.7803 10.5704C17.921 10.4297 18 10.239 18 10.04C18 9.84113 17.921 9.65036 17.7803 9.50971C17.6397 9.36906 17.4489 9.29004 17.25 9.29004H16.5V7.79004ZM10.75 3.29004C10.9489 3.29004 11.1397 3.36906 11.2803 3.50971C11.421 3.65036 11.5 3.84113 11.5 4.04004V5.29004H12.75C12.9489 5.29004 13.1397 5.36906 13.2803 5.50971C13.421 5.65036 13.5 5.84113 13.5 6.04004C13.5 6.23895 13.421 6.42972 13.2803 6.57037C13.1397 6.71102 12.9489 6.79004 12.75 6.79004H11.5V8.04004C11.5 8.23895 11.421 8.42972 11.2803 8.57037C11.1397 8.71102 10.9489 8.79004 10.75 8.79004C10.5511 8.79004 10.3603 8.71102 10.2197 8.57037C10.079 8.42972 10 8.23895 10 8.04004V6.79004H8.75C8.55109 6.79004 8.36032 6.71102 8.21967 6.57037C8.07902 6.42972 8 6.23895 8 6.04004C8 5.84113 8.07902 5.65036 8.21967 5.50971C8.36032 5.36906 8.55109 5.29004 8.75 5.29004H10V4.04004C10 3.84113 10.079 3.65036 10.2197 3.50971C10.3603 3.36906 10.5511 3.29004 10.75 3.29004ZM8 11.04C8 10.8411 8.07902 10.6504 8.21967 10.5097C8.36032 10.3691 8.55109 10.29 8.75 10.29H12.75C12.9489 10.29 13.1397 10.3691 13.2803 10.5097C13.421 10.6504 13.5 10.8411 13.5 11.04C13.5 11.239 13.421 11.4297 13.2803 11.5704C13.1397 11.711 12.9489 11.79 12.75 11.79H8.75C8.55109 11.79 8.36032 11.711 8.21967 11.5704C8.07902 11.4297 8 11.239 8 11.04ZM8 14.04C8 13.8411 8.07902 13.6504 8.21967 13.5097C8.36032 13.3691 8.55109 13.29 8.75 13.29H12.75C12.9489 13.29 13.1397 13.3691 13.2803 13.5097C13.421 13.6504 13.5 13.8411 13.5 14.04C13.5 14.239 13.421 14.4297 13.2803 14.5704C13.1397 14.711 12.9489 14.79 12.75 14.79H8.75C8.55109 14.79 8.36032 14.711 8.21967 14.5704C8.07902 14.4297 8 14.239 8 14.04Z" fill="#475569"/>
</svg>
