<svg width="22" height="18" viewBox="0 0 22 18" fill="none" xmlns="http://www.w3.org/2000/svg">
    <g clip-path="url(#clip0_2537_64380)">
        <path d="M0.5 5.32475C0.641641 4.70949 0.92164 4.17644 1.43461 3.78659C1.86818 3.44724 2.40452 3.26432 2.95602 3.2677C6.29815 3.27061 9.64029 3.27061 12.9824 3.2677C13.2821 3.2677 13.2821 3.2677 13.2821 2.96715C13.2821 2.6067 13.2755 2.24571 13.2848 1.88526C13.2892 1.72192 13.2433 1.64896 13.0661 1.65985C12.8621 1.67237 12.6559 1.66584 12.4514 1.65985C12.2346 1.65684 12.0278 1.56849 11.8763 1.41412C11.7247 1.25975 11.6407 1.05191 11.6426 0.836051C11.6426 0.374875 11.9882 0.00626153 12.4454 0.00408361C13.5596 -0.0013612 14.6735 -0.0013612 15.7873 0.00408361C16.2451 0.00408361 16.5923 0.37433 16.5918 0.834961C16.5932 0.942217 16.5735 1.04871 16.5336 1.14835C16.4937 1.24799 16.4344 1.33883 16.3593 1.41568C16.2841 1.49253 16.1945 1.55389 16.0955 1.59626C15.9965 1.63862 15.8902 1.66115 15.7824 1.66257C15.5708 1.66693 15.358 1.67128 15.147 1.66257C14.9905 1.65495 14.9342 1.71702 14.9512 1.86566C14.9531 1.89957 14.9531 1.93357 14.9512 1.96748C14.9512 6.65619 14.9512 11.3447 14.9512 16.0331C14.9512 16.3363 14.9512 16.3363 15.2476 16.3369C15.4253 16.3369 15.603 16.3369 15.7808 16.3369C15.8886 16.3381 15.995 16.3604 16.0941 16.4026C16.1932 16.4448 16.283 16.5061 16.3583 16.5828C16.4336 16.6596 16.493 16.7504 16.5331 16.85C16.5731 16.9496 16.5931 17.0561 16.5918 17.1634C16.5918 17.624 16.2456 17.9932 15.7884 17.9954C14.6743 18.0008 13.5603 18.0008 12.4465 17.9954C11.9893 17.9954 11.642 17.6246 11.6426 17.1639C11.6408 17.0566 11.6603 16.95 11.7001 16.8502C11.7399 16.7505 11.7991 16.6595 11.8743 16.5826C11.9495 16.5057 12.0393 16.4445 12.1385 16.4023C12.2376 16.3601 12.3441 16.3379 12.452 16.3369C12.6636 16.3325 12.8758 16.3303 13.0874 16.3369C13.2225 16.3412 13.2876 16.3042 13.2848 16.1545C13.2777 15.7396 13.2788 15.3241 13.2848 14.9093C13.2848 14.7786 13.2422 14.7252 13.1071 14.7285C12.8473 14.735 12.5876 14.7285 12.3278 14.7285C9.25875 14.7285 6.18969 14.7045 3.12172 14.7394C1.795 14.7546 0.738984 13.8709 0.521875 12.7291C0.516439 12.7095 0.509303 12.6904 0.500547 12.672C0.500182 10.224 0.5 7.77492 0.5 5.32475ZM8.04688 4.93055C6.39313 4.93055 4.73938 4.93055 3.08563 4.93055C2.48406 4.93055 2.15594 5.25724 2.15594 5.85616C2.15594 7.95169 2.15594 10.0474 2.15594 12.1433C2.15594 12.7422 2.48406 13.0689 3.08125 13.0689C6.4026 13.0689 9.72396 13.0704 13.0453 13.0733C13.2367 13.0733 13.287 13.015 13.2865 12.8293C13.281 10.2779 13.281 7.72646 13.2865 5.17502C13.2865 4.97193 13.2192 4.92674 13.0284 4.92728C11.3675 4.93599 9.70719 4.93055 8.04633 4.93055H8.04688Z" fill="#475569"/>
        <path d="M21.5002 12.6758C21.3361 13.4048 20.9665 13.9956 20.3108 14.386C19.9492 14.6089 19.5329 14.7283 19.1076 14.7312C18.5471 14.7312 17.9871 14.7312 17.4265 14.7312C16.919 14.7312 16.5647 14.3805 16.5674 13.8921C16.5674 13.4179 16.9267 13.0754 17.4238 13.0705C17.9209 13.0656 18.4219 13.0705 18.9206 13.0705C19.5222 13.0705 19.847 12.7438 19.8503 12.1449C19.8503 10.0494 19.8503 7.95366 19.8503 5.85777C19.8503 5.25884 19.5222 4.93542 18.9206 4.93215C18.4219 4.93215 17.9226 4.93215 17.4238 4.93215C16.9251 4.93215 16.5707 4.58368 16.5685 4.10944C16.5685 3.61941 16.9212 3.27366 17.4287 3.27148C17.9548 3.27148 18.4809 3.27148 19.0076 3.27148C20.2008 3.27148 21.1464 4.00054 21.4548 5.15103C21.4707 5.20984 21.4876 5.26864 21.5046 5.32744V12.6779L21.5002 12.6758Z" fill="#475569"/>
        <path d="M6.26279 6.53475C6.79545 6.53475 7.32865 6.53475 7.86131 6.53475C8.35733 6.53475 8.71443 6.88267 8.71662 7.35637C8.71662 7.8464 8.36443 8.19106 7.85748 8.19541C7.66607 8.19541 7.47467 8.20467 7.28381 8.19541C7.11975 8.18507 7.07217 8.24986 7.07381 8.40722C7.08037 9.14825 7.07873 9.88984 7.07381 10.6314C7.07673 10.8165 7.01713 10.9972 6.90458 11.1445C6.79202 11.2918 6.63303 11.3972 6.45311 11.4438C6.327 11.4775 6.19469 11.4813 6.06686 11.4547C5.93903 11.4281 5.81926 11.372 5.71722 11.2909C5.61519 11.2098 5.53374 11.1059 5.47946 10.9876C5.42518 10.8694 5.39959 10.7401 5.40475 10.6102C5.40475 9.88222 5.40037 9.15479 5.40912 8.42682C5.40912 8.24877 5.35936 8.1818 5.17725 8.19487C4.98037 8.20848 4.78131 8.20031 4.58334 8.19487C4.3623 8.19523 4.15017 8.10815 3.99361 7.95279C3.83705 7.79743 3.7489 7.58651 3.74854 7.36644C3.74817 7.14637 3.83563 6.93516 3.99168 6.77929C4.14772 6.62342 4.35956 6.53565 4.58061 6.53529C5.14225 6.53094 5.70225 6.53475 6.26279 6.53475Z" fill="#475569"/>
    </g>
    <defs>
        <clipPath id="clip0_2537_64380">
            <rect width="21" height="18" fill="white" transform="translate(0.5)"/>
        </clipPath>
    </defs>
</svg>
