<svg width="22" height="18" viewBox="0 0 22 18" fill="none" xmlns="http://www.w3.org/2000/svg">
    <g clip-path="url(#clip0_2535_25221)">
        <path d="M0 5.32475C0.148385 4.70949 0.441719 4.17644 0.979114 3.78659C1.43333 3.44724 1.99521 3.26432 2.57297 3.2677C6.07425 3.27061 9.57554 3.27061 13.0768 3.2677C13.3908 3.2677 13.3908 3.2677 13.3908 2.96715C13.3908 2.6067 13.3839 2.24571 13.3936 1.88526C13.3982 1.72192 13.3501 1.64896 13.1645 1.65985C12.9508 1.67237 12.7348 1.66584 12.5205 1.65985C12.2934 1.65684 12.0768 1.56849 11.918 1.41412C11.7592 1.25975 11.6712 1.05191 11.6732 0.836051C11.6732 0.374875 12.0353 0.00626153 12.5142 0.00408361C13.6814 -0.0013612 14.8485 -0.0013612 16.0153 0.00408361C16.4948 0.00408361 16.8586 0.37433 16.8581 0.834961C16.8596 0.942217 16.8389 1.04871 16.7971 1.14835C16.7553 1.24799 16.6932 1.33883 16.6145 1.41568C16.5358 1.49253 16.4419 1.55389 16.3382 1.59626C16.2345 1.63862 16.123 1.66115 16.0102 1.66257C15.7884 1.66693 15.5656 1.67128 15.3444 1.66257C15.1806 1.65495 15.1216 1.71702 15.1393 1.86566C15.1414 1.89957 15.1414 1.93357 15.1393 1.96748C15.1393 6.65619 15.1393 11.3447 15.1393 16.0331C15.1393 16.3363 15.1393 16.3363 15.4498 16.3369C15.636 16.3369 15.8222 16.3369 16.0084 16.3369C16.1213 16.3381 16.2329 16.3604 16.3367 16.4026C16.4405 16.4448 16.5346 16.5061 16.6135 16.5828C16.6924 16.6596 16.7546 16.7504 16.7966 16.85C16.8385 16.9496 16.8594 17.0561 16.8581 17.1634C16.8581 17.624 16.4954 17.9932 16.0165 17.9954C14.8492 18.0008 13.6822 18.0008 12.5154 17.9954C12.0364 17.9954 11.6726 17.6246 11.6732 17.1639C11.6713 17.0566 11.6918 16.95 11.7334 16.8502C11.7751 16.7505 11.8371 16.6595 11.9159 16.5826C11.9948 16.5057 12.0888 16.4445 12.1927 16.4023C12.2965 16.3601 12.4082 16.3379 12.5211 16.3369C12.7428 16.3325 12.9651 16.3303 13.1868 16.3369C13.3283 16.3412 13.3965 16.3042 13.3936 16.1545C13.3862 15.7396 13.3873 15.3241 13.3936 14.9093C13.3936 14.7786 13.349 14.7252 13.2074 14.7285C12.9353 14.735 12.6632 14.7285 12.391 14.7285C9.17583 14.7285 5.96063 14.7045 2.74656 14.7394C1.35667 14.7546 0.250365 13.8709 0.0229168 12.7291C0.0172218 12.7095 0.00974593 12.6904 0.000573039 12.672C0.000191095 10.224 0 7.77492 0 5.32475ZM7.90625 4.93055C6.17375 4.93055 4.44125 4.93055 2.70875 4.93055C2.07854 4.93055 1.73479 5.25724 1.73479 5.85616C1.73479 7.95169 1.73479 10.0474 1.73479 12.1433C1.73479 12.7422 2.07854 13.0689 2.70417 13.0689C6.18368 13.0689 9.66319 13.0704 13.1427 13.0733C13.3432 13.0733 13.3959 13.015 13.3954 12.8293C13.3896 10.2779 13.3896 7.72646 13.3954 5.17502C13.3954 4.97193 13.3249 4.92674 13.1249 4.92728C11.385 4.93599 9.64563 4.93055 7.90568 4.93055H7.90625Z" fill="#21409A"/>
        <path d="M21.9998 12.6758C21.8279 13.4048 21.4406 13.9956 20.7537 14.386C20.3749 14.6089 19.9388 14.7283 19.4932 14.7312C18.906 14.7312 18.3193 14.7312 17.7321 14.7312C17.2004 14.7312 16.8292 14.3805 16.832 13.8921C16.832 13.4179 17.2085 13.0754 17.7292 13.0705C18.25 13.0656 18.7748 13.0705 19.2973 13.0705C19.9275 13.0705 20.2678 12.7438 20.2713 12.1449C20.2713 10.0494 20.2713 7.95366 20.2713 5.85777C20.2713 5.25884 19.9275 4.93542 19.2973 4.93215C18.7748 4.93215 18.2517 4.93215 17.7292 4.93215C17.2067 4.93215 16.8355 4.58368 16.8332 4.10944C16.8332 3.61941 17.2027 3.27366 17.7344 3.27148C18.2855 3.27148 18.8367 3.27148 19.3884 3.27148C20.6385 3.27148 21.6291 4.00054 21.9522 5.15103C21.9688 5.20984 21.9866 5.26864 22.0043 5.32744V12.6779L21.9998 12.6758Z" fill="#21409A"/>
        <path d="M6.03731 6.53475C6.59533 6.53475 7.15392 6.53475 7.71194 6.53475C8.23158 6.53475 8.60569 6.88267 8.60798 7.35637C8.60798 7.8464 8.23902 8.19106 7.70793 8.19541C7.50741 8.19541 7.30689 8.20467 7.10694 8.19541C6.93507 8.18507 6.88522 8.24986 6.88694 8.40722C6.89382 9.14825 6.8921 9.88984 6.88694 10.6314C6.89 10.8165 6.82757 10.9972 6.70965 11.1445C6.59173 11.2918 6.42517 11.3972 6.23668 11.4438C6.10456 11.4775 5.96595 11.4813 5.83204 11.4547C5.69812 11.4281 5.57265 11.372 5.46576 11.2909C5.35886 11.2098 5.27354 11.1059 5.21667 10.9876C5.15981 10.8694 5.133 10.7401 5.1384 10.6102C5.1384 9.88222 5.13382 9.15479 5.14298 8.42682C5.14298 8.24877 5.09085 8.1818 4.90007 8.19487C4.69382 8.20848 4.48527 8.20031 4.27788 8.19487C4.04631 8.19523 3.82408 8.10815 3.66007 7.95279C3.49606 7.79743 3.4037 7.58651 3.40332 7.36644C3.40294 7.14637 3.49457 6.93516 3.65804 6.77929C3.82152 6.62342 4.04345 6.53565 4.27501 6.53529C4.8634 6.53094 5.45007 6.53475 6.03731 6.53475Z" fill="#21409A"/>
    </g>
    <defs>
        <clipPath id="clip0_2535_25221">
            <rect width="22" height="18" fill="white"/>
        </clipPath>
    </defs>
</svg>
