<svg width="20" height="19" viewBox="0 0 20 19" fill="none" xmlns="http://www.w3.org/2000/svg">
<path d="M18.25 3.54004H14.5V2.79004C14.5 2.1933 14.2629 1.62101 13.841 1.19905C13.419 0.777092 12.8467 0.540039 12.25 0.540039H7.75C7.15326 0.540039 6.58097 0.777092 6.15901 1.19905C5.73705 1.62101 5.5 2.1933 5.5 2.79004V3.54004H1.75C1.35218 3.54004 0.970644 3.69807 0.68934 3.97938C0.408035 4.26068 0.25 4.64221 0.25 5.04004V17.04C0.25 17.4379 0.408035 17.8194 0.68934 18.1007C0.970644 18.382 1.35218 18.54 1.75 18.54H18.25C18.6478 18.54 19.0294 18.382 19.3107 18.1007C19.592 17.8194 19.75 17.4379 19.75 17.04V5.04004C19.75 4.64221 19.592 4.26068 19.3107 3.97938C19.0294 3.69807 18.6478 3.54004 18.25 3.54004ZM7 2.79004C7 2.59113 7.07902 2.40036 7.21967 2.25971C7.36032 2.11906 7.55109 2.04004 7.75 2.04004H12.25C12.4489 2.04004 12.6397 2.11906 12.7803 2.25971C12.921 2.40036 13 2.59113 13 2.79004V3.54004H7V2.79004ZM18.25 17.04H1.75V5.04004H18.25V17.04ZM13 11.04C13 11.239 12.921 11.4297 12.7803 11.5704C12.6397 11.711 12.4489 11.79 12.25 11.79H10.75V13.29C10.75 13.489 10.671 13.6797 10.5303 13.8204C10.3897 13.961 10.1989 14.04 10 14.04C9.80109 14.04 9.61032 13.961 9.46967 13.8204C9.32902 13.6797 9.25 13.489 9.25 13.29V11.79H7.75C7.55109 11.79 7.36032 11.711 7.21967 11.5704C7.07902 11.4297 7 11.239 7 11.04C7 10.8411 7.07902 10.6504 7.21967 10.5097C7.36032 10.3691 7.55109 10.29 7.75 10.29H9.25V8.79004C9.25 8.59113 9.32902 8.40036 9.46967 8.25971C9.61032 8.11906 9.80109 8.04004 10 8.04004C10.1989 8.04004 10.3897 8.11906 10.5303 8.25971C10.671 8.40036 10.75 8.59113 10.75 8.79004V10.29H12.25C12.4489 10.29 12.6397 10.3691 12.7803 10.5097C12.921 10.6504 13 10.8411 13 11.04Z" fill="#475569"/>
</svg>
