<svg width="26" height="20" viewBox="0 0 26 20" fill="none" xmlns="http://www.w3.org/2000/svg">
    <g clip-path="url(#clip0_2537_55454)">
        <path d="M26.0001 2.9429V17.0596C25.9703 17.1588 25.9425 17.2586 25.9107 17.3572C25.5722 18.4178 24.5227 19.1739 23.3588 19.1739C16.4525 19.1768 9.54628 19.1768 2.64003 19.1739C2.32603 19.1748 2.01485 19.1182 1.72393 19.0073C0.776016 18.6474 0.226224 17.9778 -0.00195312 17.0564C-0.00195312 12.3508 -0.00195312 7.64527 -0.00195312 2.93971C0.0136198 2.8863 0.0291925 2.83289 0.0454425 2.77947C0.413099 1.54903 1.42872 0.823486 2.79169 0.823486C9.60451 0.823486 16.4173 0.823486 23.2301 0.823486C23.979 0.823486 24.6222 1.04795 25.1686 1.52296C25.6108 1.90894 25.8653 2.39349 26.0001 2.9429ZM12.9832 18.0999C16.3934 18.0999 19.8034 18.0999 23.2132 18.0999C24.2221 18.0999 24.8727 17.4951 24.8734 16.5547C24.877 12.184 24.877 7.81314 24.8734 3.44206C24.8734 2.51176 24.2241 1.90195 23.2342 1.90131C16.4142 1.89835 9.5939 1.89835 2.77341 1.90131C1.76997 1.90131 1.12607 2.51113 1.12539 3.45796C1.12223 7.82099 1.12223 12.1838 1.12539 16.5464C1.11813 16.6972 1.13271 16.8482 1.16872 16.9953C1.37185 17.6808 1.96565 18.0986 2.77815 18.0992C6.17982 18.103 9.58148 18.1033 12.9832 18.0999Z" fill="#21409A"/>
        <path d="M8.27301 14.5154C8.08579 14.5201 7.89951 14.4876 7.72495 14.4198C7.55038 14.352 7.39101 14.2503 7.25604 14.1205C7.12108 13.9907 7.01322 13.8355 6.93869 13.6637C6.86417 13.492 6.82446 13.3072 6.82188 13.12C6.81132 12.7832 6.80545 12.4452 6.82188 12.1095C6.83714 11.8102 6.73383 11.6776 6.42036 11.6952C6.08458 11.714 5.74645 11.7058 5.4095 11.6952C5.22216 11.6943 5.03687 11.6562 4.86435 11.5832C4.69184 11.5102 4.53553 11.4037 4.40449 11.2699C4.27344 11.136 4.17027 10.9775 4.10095 10.8036C4.03163 10.6296 3.99754 10.4436 4.00064 10.2563C3.99493 10.0686 4.02727 9.8817 4.09572 9.70681C4.16416 9.53193 4.2673 9.3727 4.39893 9.2387C4.53055 9.10471 4.68794 8.99873 4.86161 8.92714C5.03529 8.85556 5.22166 8.81984 5.4095 8.82214C5.76172 8.81276 6.11393 8.80923 6.46615 8.82214C6.735 8.83153 6.83245 8.71769 6.82423 8.45597C6.81249 8.0898 6.81131 7.72245 6.82423 7.35745C6.84447 6.98924 7.0056 6.64292 7.27423 6.39019C7.54287 6.13745 7.89844 5.99767 8.26733 5.99978C8.63622 6.00189 8.99017 6.14573 9.25589 6.40153C9.52161 6.65732 9.67875 7.00546 9.69478 7.37388C9.71384 7.68107 9.71384 7.98916 9.69478 8.29636C9.66073 8.68835 9.78048 8.86909 10.2043 8.82684C10.5264 8.80355 10.8497 8.80355 11.1717 8.82684C11.5341 8.84346 11.8761 8.99914 12.1265 9.26148C12.3769 9.52382 12.5164 9.8726 12.516 10.2352C12.5254 11.0297 11.9572 11.6576 11.1788 11.694C10.7984 11.7116 10.4168 11.7069 10.0353 11.694C9.78987 11.694 9.69243 11.7926 9.6983 12.0356C9.70769 12.4017 9.70887 12.7691 9.6983 13.1341C9.69617 13.3185 9.65752 13.5008 9.5846 13.6702C9.51168 13.8397 9.40592 13.9931 9.27343 14.1215C9.14093 14.2499 8.98431 14.3508 8.81261 14.4184C8.64091 14.486 8.45752 14.519 8.27301 14.5154Z" fill="#21409A"/>
        <path d="M18.9752 9.98331C20.041 9.98331 21.1067 9.98331 22.1724 9.98331C22.5347 9.98331 22.7649 10.1906 22.7696 10.4996C22.7763 10.6163 22.7393 10.7314 22.6651 10.8251C22.5909 10.9188 22.4842 10.9852 22.3633 11.0128C22.2404 11.0413 22.1142 11.055 21.9876 11.0535C19.9658 11.056 17.9443 11.056 15.9229 11.0535C15.8385 11.0552 15.7541 11.0507 15.6704 11.0402C15.3373 10.9906 15.1192 10.7521 15.1443 10.4679C15.1707 10.1734 15.4016 9.98013 15.7537 9.97949C16.8248 9.9814 17.8987 9.98331 18.9752 9.98331Z" fill="#21409A"/>
        <path d="M18.9407 15.1189H15.8938C15.7585 15.1289 15.6223 15.112 15.4944 15.0693C15.3901 15.0294 15.301 14.961 15.2386 14.873C15.1761 14.785 15.1431 14.6815 15.1439 14.5758C15.1447 14.47 15.1793 14.3669 15.2431 14.2798C15.3068 14.1927 15.397 14.1255 15.5018 14.0869C15.6372 14.0322 15.7835 14.0405 15.927 14.0405H21.9923C22.4995 14.0405 22.7608 14.2211 22.7656 14.5714C22.7703 14.9339 22.5076 15.1189 21.9849 15.1196H18.938L18.9407 15.1189Z" fill="#21409A"/>
        <path d="M18.9576 6.9668C17.9194 6.9668 16.879 6.9668 15.8363 6.9668C15.3989 6.9668 15.1423 6.76967 15.1416 6.43837C15.1416 6.12043 15.4124 5.89723 15.837 5.89533C17.1986 5.89024 18.5602 5.89533 19.9225 5.89533C20.6415 5.89533 21.3606 5.89151 22.079 5.89533C22.4974 5.89978 22.7412 6.08609 22.7662 6.39068C22.7926 6.72071 22.555 6.96298 22.1806 6.96298C21.106 6.97188 20.0315 6.9668 18.9576 6.9668Z" fill="#21409A"/>
    </g>
    <defs>
        <clipPath id="clip0_2537_55454">
            <rect width="26" height="18.3529" fill="white" transform="translate(0 0.823486)"/>
        </clipPath>
    </defs>
</svg>
