<svg width="26" height="20" viewBox="0 0 26 20" fill="none" xmlns="http://www.w3.org/2000/svg">
    <g clip-path="url(#clip0_2537_46488)">
        <path d="M26.0001 2.94265V17.0593C25.9703 17.1585 25.9425 17.2584 25.9107 17.3569C25.5722 18.4176 24.5227 19.1736 23.3588 19.1736C16.4525 19.1766 9.54628 19.1766 2.64003 19.1736C2.32603 19.1746 2.01485 19.118 1.72393 19.007C0.776016 18.6471 0.226224 17.9775 -0.00195312 17.0561C-0.00195312 12.3506 -0.00195312 7.64503 -0.00195312 2.93947C0.0136198 2.88606 0.0291925 2.83264 0.0454425 2.77923C0.413099 1.54879 1.42872 0.823242 2.79169 0.823242C9.60451 0.823242 16.4173 0.823242 23.2301 0.823242C23.979 0.823242 24.6222 1.04771 25.1686 1.52272C25.6108 1.9087 25.8653 2.39325 26.0001 2.94265ZM12.9832 18.0996C16.3934 18.0996 19.8034 18.0996 23.2132 18.0996C24.2221 18.0996 24.8727 17.4949 24.8734 16.5544C24.877 12.1838 24.877 7.8129 24.8734 3.44182C24.8734 2.51152 24.2241 1.90171 23.2342 1.90107C16.4142 1.8981 9.5939 1.8981 2.77341 1.90107C1.76997 1.90107 1.12607 2.51088 1.12539 3.45772C1.12223 7.82074 1.12223 12.1836 1.12539 16.5462C1.11813 16.697 1.13271 16.848 1.16872 16.9951C1.37185 17.6806 1.96565 18.0984 2.77815 18.099C6.17982 18.1028 9.58148 18.103 12.9832 18.0996Z" fill="#475569"/>
        <path d="M8.27301 14.5157C8.08579 14.5204 7.89951 14.4879 7.72495 14.4201C7.55038 14.3523 7.39101 14.2506 7.25604 14.1208C7.12108 13.991 7.01322 13.8357 6.93869 13.664C6.86417 13.4922 6.82446 13.3074 6.82188 13.1202C6.81132 12.7834 6.80545 12.4454 6.82188 12.1097C6.83714 11.8105 6.73383 11.6778 6.42036 11.6954C6.08458 11.7142 5.74645 11.706 5.4095 11.6954C5.22216 11.6945 5.03687 11.6565 4.86435 11.5835C4.69184 11.5105 4.53553 11.4039 4.40449 11.2701C4.27344 11.1363 4.17027 10.9778 4.10095 10.8038C4.03163 10.6298 3.99754 10.4438 4.00064 10.2566C3.99493 10.0689 4.02727 9.88194 4.09572 9.70706C4.16416 9.53217 4.2673 9.37294 4.39893 9.23895C4.53055 9.10496 4.68794 8.99898 4.86161 8.92739C5.03529 8.8558 5.22166 8.82009 5.4095 8.82239C5.76172 8.813 6.11393 8.80948 6.46615 8.82239C6.735 8.83178 6.83245 8.71794 6.82423 8.45622C6.81249 8.09004 6.81131 7.7227 6.82423 7.3577C6.84447 6.98949 7.0056 6.64316 7.27423 6.39043C7.54287 6.1377 7.89844 5.99791 8.26733 6.00002C8.63622 6.00214 8.99017 6.14598 9.25589 6.40177C9.52161 6.65756 9.67875 7.00571 9.69478 7.37412C9.71384 7.68132 9.71384 7.98941 9.69478 8.2966C9.66073 8.6886 9.78048 8.86933 10.2043 8.82708C10.5264 8.8038 10.8497 8.8038 11.1717 8.82708C11.5341 8.8437 11.8761 8.99939 12.1265 9.26173C12.3769 9.52407 12.5164 9.87284 12.516 10.2354C12.5254 11.03 11.9572 11.6579 11.1788 11.6943C10.7984 11.7119 10.4168 11.7072 10.0353 11.6943C9.78987 11.6943 9.69243 11.7929 9.6983 12.0358C9.70769 12.402 9.70887 12.7693 9.6983 13.1343C9.69617 13.3188 9.65752 13.501 9.5846 13.6705C9.51168 13.8399 9.40592 13.9933 9.27343 14.1217C9.14093 14.2501 8.98431 14.3511 8.81261 14.4187C8.64091 14.4863 8.45752 14.5193 8.27301 14.5157Z" fill="#475569"/>
        <path d="M18.9752 9.98331C20.041 9.98331 21.1067 9.98331 22.1724 9.98331C22.5347 9.98331 22.7649 10.1906 22.7696 10.4996C22.7763 10.6163 22.7393 10.7314 22.6651 10.8251C22.5909 10.9188 22.4842 10.9852 22.3633 11.0128C22.2404 11.0413 22.1142 11.055 21.9876 11.0535C19.9658 11.056 17.9443 11.056 15.9229 11.0535C15.8385 11.0552 15.7541 11.0507 15.6704 11.0402C15.3373 10.9906 15.1192 10.7521 15.1443 10.4679C15.1707 10.1734 15.4016 9.98013 15.7537 9.97949C16.8248 9.9814 17.8987 9.98331 18.9752 9.98331Z" fill="#475569"/>
        <path d="M18.9407 15.1189H15.8938C15.7585 15.1289 15.6223 15.112 15.4944 15.0693C15.3901 15.0294 15.301 14.961 15.2386 14.873C15.1761 14.785 15.1431 14.6815 15.1439 14.5758C15.1447 14.47 15.1793 14.3669 15.2431 14.2798C15.3068 14.1927 15.397 14.1255 15.5018 14.0869C15.6372 14.0322 15.7835 14.0405 15.927 14.0405H21.9923C22.4995 14.0405 22.7608 14.2211 22.7656 14.5714C22.7703 14.9339 22.5076 15.1189 21.9849 15.1196H18.938L18.9407 15.1189Z" fill="#475569"/>
        <path d="M18.9576 6.96631C17.9194 6.96631 16.879 6.96631 15.8363 6.96631C15.3989 6.96631 15.1423 6.76918 15.1416 6.43788C15.1416 6.11994 15.4124 5.89675 15.837 5.89484C17.1986 5.88975 18.5602 5.89484 19.9225 5.89484C20.6415 5.89484 21.3606 5.89102 22.079 5.89484C22.4974 5.89929 22.7412 6.0856 22.7662 6.39019C22.7926 6.72022 22.555 6.96249 22.1806 6.96249C21.106 6.97139 20.0315 6.96631 18.9576 6.96631Z" fill="#475569"/>
    </g>
    <defs>
        <clipPath id="clip0_2537_46488">
            <rect width="26" height="18.3529" fill="white" transform="translate(0 0.823242)"/>
        </clipPath>
    </defs>
</svg>
