<svg width="26" height="20" viewBox="0 0 26 20" fill="none" xmlns="http://www.w3.org/2000/svg">
    <g clip-path="url(#clip0_2537_46472)">
        <path d="M26.0001 2.94363V17.0603C25.9703 17.1595 25.9425 17.2593 25.9107 17.3579C25.5722 18.4185 24.5227 19.1746 23.3588 19.1746C16.4525 19.1776 9.54628 19.1776 2.64003 19.1746C2.32603 19.1756 2.01485 19.119 1.72393 19.008C0.776016 18.6481 0.226224 17.9785 -0.00195312 17.0571C-0.00195312 12.3516 -0.00195312 7.646 -0.00195312 2.94045C0.0136198 2.88703 0.0291925 2.83362 0.0454425 2.7802C0.413099 1.54977 1.42872 0.824219 2.79169 0.824219C9.60451 0.824219 16.4173 0.824219 23.2301 0.824219C23.979 0.824219 24.6222 1.04869 25.1686 1.52369C25.6108 1.90968 25.8653 2.39422 26.0001 2.94363ZM12.9832 18.1006C16.3934 18.1006 19.8034 18.1006 23.2132 18.1006C24.2221 18.1006 24.8727 17.4959 24.8734 16.5554C24.877 12.1847 24.877 7.81388 24.8734 3.4428C24.8734 2.5125 24.2241 1.90268 23.2342 1.90205C16.4142 1.89908 9.5939 1.89908 2.77341 1.90205C1.76997 1.90205 1.12607 2.51186 1.12539 3.45869C1.12223 7.82172 1.12223 12.1845 1.12539 16.5471C1.11813 16.6979 1.13271 16.849 1.16872 16.9961C1.37185 17.6816 1.96565 18.0993 2.77815 18.1C6.17982 18.1038 9.58148 18.104 12.9832 18.1006Z" fill="#21409A"/>
        <path d="M13.0168 13.9523C13.0168 14.1666 13.0243 14.3815 13.0168 14.5958C13.0166 14.7273 12.9638 14.8539 12.8688 14.9505C12.7738 15.0471 12.6436 15.1067 12.5041 15.1173C12.3645 15.128 12.2258 15.0889 12.1155 15.008C12.0051 14.9271 11.9312 14.8101 11.9084 14.6804C11.8407 14.3586 11.861 14.0292 11.882 13.7062C11.9497 12.7028 11.0898 12.0319 10.1277 12.0586C8.76745 12.0961 7.40449 12.0663 6.04287 12.0688C5.04756 12.0688 4.38808 12.685 4.37589 13.6153C4.37183 13.9408 4.39079 14.2683 4.35896 14.5914C4.31495 15.0301 3.86131 15.2489 3.49433 15.0288C3.35146 14.943 3.24313 14.8209 3.24245 14.6619C3.24245 14.1151 3.17136 13.5644 3.28917 13.0226C3.53698 11.8812 4.62912 11.0107 5.87089 10.9948C7.37605 10.9763 8.88188 10.9725 10.387 10.9948C11.8367 11.0164 13.0094 12.1629 13.0202 13.5218C13.0202 13.6649 13.0202 13.8079 13.0202 13.951L13.0168 13.9523Z" fill="#21409A"/>
        <path d="M8.11427 10.0196C7.39094 10.0182 6.69754 9.7482 6.18543 9.26845C5.67333 8.78869 5.3841 8.13816 5.38088 7.45884C5.37479 6.05544 6.63281 4.88033 8.13593 4.88478C9.62552 4.88923 10.8713 6.05926 10.8686 7.45566C10.8675 7.79398 10.7953 8.12877 10.6562 8.44084C10.517 8.75291 10.3137 9.03613 10.0579 9.2743C9.802 9.51246 9.49862 9.70088 9.16511 9.82876C8.8316 9.95665 8.4745 10.0215 8.11427 10.0196ZM8.12239 8.94364C8.54246 8.94721 8.94695 8.79442 9.24741 8.51868C9.54786 8.24294 9.71984 7.86669 9.72572 7.4722C9.73724 6.65763 9.00328 5.96515 8.12781 5.96388C7.70381 5.96621 7.29785 6.12525 6.99778 6.40658C6.69771 6.68792 6.52767 7.06892 6.52448 7.46711C6.52912 7.86155 6.69978 8.23823 6.99918 8.51488C7.29857 8.79154 7.70238 8.94568 8.12239 8.94364Z" fill="#21409A"/>
        <path d="M18.9752 9.98428C20.041 9.98428 21.1067 9.98428 22.1724 9.98428C22.5347 9.98428 22.7649 10.1916 22.7696 10.5006C22.7763 10.6172 22.7393 10.7324 22.6651 10.8261C22.5909 10.9198 22.4842 10.9862 22.3633 11.0138C22.2404 11.0423 22.1142 11.056 21.9876 11.0545C19.9658 11.057 17.9443 11.057 15.9229 11.0545C15.8385 11.0562 15.7541 11.0517 15.6704 11.0411C15.3373 10.9915 15.1192 10.7531 15.1443 10.4688C15.1707 10.1744 15.4016 9.9811 15.7537 9.98047C16.8248 9.98238 17.8987 9.98428 18.9752 9.98428Z" fill="#21409A"/>
        <path d="M18.9407 15.1199H15.8938C15.7585 15.1299 15.6223 15.113 15.4944 15.0703C15.3901 15.0304 15.301 14.962 15.2386 14.874C15.1761 14.786 15.1431 14.6825 15.1439 14.5767C15.1447 14.471 15.1793 14.3679 15.2431 14.2808C15.3068 14.1936 15.397 14.1264 15.5018 14.0879C15.6372 14.0332 15.7835 14.0415 15.927 14.0415H21.9923C22.4995 14.0415 22.7608 14.2221 22.7656 14.5724C22.7703 14.9349 22.5076 15.1199 21.9849 15.1206H18.938L18.9407 15.1199Z" fill="#21409A"/>
        <path d="M18.9576 6.96728C17.9194 6.96728 16.879 6.96728 15.8363 6.96728C15.3989 6.96728 15.1423 6.77016 15.1416 6.43886C15.1416 6.12092 15.4124 5.89772 15.837 5.89582C17.1986 5.89073 18.5602 5.89582 19.9225 5.89582C20.6415 5.89582 21.3606 5.892 22.079 5.89582C22.4974 5.90027 22.7412 6.08658 22.7662 6.39117C22.7926 6.72119 22.555 6.96347 22.1806 6.96347C21.106 6.97237 20.0315 6.96728 18.9576 6.96728Z" fill="#21409A"/>
    </g>
    <defs>
        <clipPath id="clip0_2537_46472">
            <rect width="26" height="18.3529" fill="white" transform="translate(0 0.824219)"/>
        </clipPath>
    </defs>
</svg>
