<svg width="26" height="20" viewBox="0 0 26 20" fill="none" xmlns="http://www.w3.org/2000/svg">
    <g clip-path="url(#clip0_2537_51034)">
        <path d="M26.0001 2.94314V17.0598C25.9703 17.159 25.9425 17.2588 25.9107 17.3574C25.5722 18.4181 24.5227 19.1741 23.3588 19.1741C16.4525 19.1771 9.54628 19.1771 2.64003 19.1741C2.32603 19.1751 2.01485 19.1185 1.72393 19.0075C0.776016 18.6476 0.226224 17.978 -0.00195312 17.0566C-0.00195312 12.3511 -0.00195312 7.64551 -0.00195312 2.93996C0.0136198 2.88654 0.0291925 2.83313 0.0454425 2.77972C0.413099 1.54928 1.42872 0.82373 2.79169 0.82373C9.60451 0.82373 16.4173 0.82373 23.2301 0.82373C23.979 0.82373 24.6222 1.0482 25.1686 1.5232C25.6108 1.90919 25.8653 2.39373 26.0001 2.94314ZM12.9832 18.1001C16.3934 18.1001 19.8034 18.1001 23.2132 18.1001C24.2221 18.1001 24.8727 17.4954 24.8734 16.5549C24.877 12.1843 24.877 7.81339 24.8734 3.44231C24.8734 2.51201 24.2241 1.90219 23.2342 1.90156C16.4142 1.89859 9.5939 1.89859 2.77341 1.90156C1.76997 1.90156 1.12607 2.51137 1.12539 3.45821C1.12223 7.82123 1.12223 12.184 1.12539 16.5466C1.11813 16.6974 1.13271 16.8485 1.16872 16.9956C1.37185 17.6811 1.96565 18.0988 2.77815 18.0995C6.17982 18.1033 9.58148 18.1035 12.9832 18.1001Z" fill="#475569"/>
        <path d="M13.017 13.9518C13.017 14.1661 13.0244 14.381 13.017 14.5953C13.0167 14.7268 12.9639 14.8534 12.8689 14.95C12.7739 15.0466 12.6438 15.1062 12.5042 15.1168C12.3647 15.1275 12.226 15.0884 12.1156 15.0075C12.0053 14.9266 11.9314 14.8096 11.9086 14.6799C11.8409 14.3581 11.8612 14.0287 11.8822 13.7057C11.9499 12.7023 11.09 12.0314 10.1278 12.0581C8.76757 12.0957 7.40461 12.0658 6.04299 12.0683C5.04768 12.0683 4.3882 12.6845 4.37601 13.6148C4.37195 13.9404 4.39091 14.2678 4.35909 14.5909C4.31508 15.0296 3.86143 15.2484 3.49445 15.0284C3.35159 14.9425 3.24325 14.8204 3.24258 14.6615C3.24258 14.1146 3.17148 13.5639 3.28929 13.0221C3.53711 11.8807 4.62924 11.0102 5.87101 10.9943C7.37617 10.9759 8.882 10.972 10.3872 10.9943C11.8368 11.0159 13.0095 12.1624 13.0203 13.5213C13.0203 13.6644 13.0203 13.8075 13.0203 13.9505L13.017 13.9518Z" fill="#475569"/>
        <path d="M8.11414 10.0191C7.39081 10.0177 6.69742 9.74772 6.18531 9.26796C5.6732 8.7882 5.38398 8.13767 5.38076 7.45836C5.37467 6.05495 6.63269 4.87984 8.13581 4.88429C9.62539 4.88874 10.8712 6.05877 10.8685 7.45518C10.8674 7.7935 10.7952 8.12828 10.656 8.44035C10.5169 8.75242 10.3136 9.03564 10.0577 9.27381C9.80187 9.51197 9.4985 9.70039 9.16499 9.82827C8.83148 9.95616 8.47438 10.021 8.11414 10.0191ZM8.12227 8.94315C8.54234 8.94672 8.94683 8.79393 9.24728 8.51819C9.54774 8.24245 9.71971 7.8662 9.7256 7.47171C9.73711 6.65714 9.00315 5.96466 8.12769 5.96339C7.70369 5.96572 7.29772 6.12476 6.99765 6.4061C6.69758 6.68743 6.52755 7.06843 6.52435 7.46662C6.529 7.86106 6.69966 8.23774 6.99906 8.5144C7.29845 8.79105 7.70226 8.94519 8.12227 8.94315Z" fill="#475569"/>
        <path d="M18.9752 9.9838C20.041 9.9838 21.1067 9.9838 22.1724 9.9838C22.5347 9.9838 22.7649 10.1911 22.7696 10.5001C22.7763 10.6167 22.7393 10.7319 22.6651 10.8256C22.5909 10.9193 22.4842 10.9857 22.3633 11.0133C22.2404 11.0418 22.1142 11.0555 21.9876 11.054C19.9658 11.0565 17.9443 11.0565 15.9229 11.054C15.8385 11.0557 15.7541 11.0512 15.6704 11.0406C15.3373 10.991 15.1192 10.7526 15.1443 10.4683C15.1707 10.1739 15.4016 9.98062 15.7537 9.97998C16.8248 9.98189 17.8987 9.9838 18.9752 9.9838Z" fill="#475569"/>
        <path d="M18.9407 15.1189H15.8938C15.7585 15.1289 15.6223 15.112 15.4944 15.0693C15.3901 15.0294 15.301 14.961 15.2386 14.873C15.1761 14.785 15.1431 14.6815 15.1439 14.5758C15.1447 14.47 15.1793 14.3669 15.2431 14.2798C15.3068 14.1927 15.397 14.1255 15.5018 14.0869C15.6372 14.0322 15.7835 14.0405 15.927 14.0405H21.9923C22.4995 14.0405 22.7608 14.2211 22.7656 14.5714C22.7703 14.9339 22.5076 15.1189 21.9849 15.1196H18.938L18.9407 15.1189Z" fill="#475569"/>
        <path d="M18.9576 6.9668C17.9194 6.9668 16.879 6.9668 15.8363 6.9668C15.3989 6.9668 15.1423 6.76967 15.1416 6.43837C15.1416 6.12043 15.4124 5.89723 15.837 5.89533C17.1986 5.89024 18.5602 5.89533 19.9225 5.89533C20.6415 5.89533 21.3606 5.89151 22.079 5.89533C22.4974 5.89978 22.7412 6.08609 22.7662 6.39068C22.7926 6.72071 22.555 6.96298 22.1806 6.96298C21.106 6.97188 20.0315 6.9668 18.9576 6.9668Z" fill="#475569"/>
    </g>
    <defs>
        <clipPath id="clip0_2537_51034">
            <rect width="26" height="18.3529" fill="white" transform="translate(0 0.82373)"/>
        </clipPath>
    </defs>
</svg>
