<svg width="20" height="20" viewBox="0 0 20 20" fill="none" xmlns="http://www.w3.org/2000/svg">
<path d="M19.75 10.8519C19.5907 12.7044 18.9056 14.4728 17.7753 15.9492C16.645 17.4255 15.1166 18.5483 13.3699 19.1855C11.6232 19.8227 9.73083 19.9478 7.91544 19.546C6.10005 19.1443 4.43717 18.2324 3.12243 16.9176C1.8077 15.6029 0.895805 13.94 0.494039 12.1246C0.0922726 10.3092 0.217347 8.41685 0.854547 6.67013C1.49175 4.92341 2.61456 3.39501 4.0909 2.26475C5.56723 1.13449 7.33567 0.449382 9.18814 0.290039C9.28663 0.281913 9.38576 0.293267 9.47987 0.323451C9.57397 0.353635 9.66121 0.402058 9.7366 0.465957C9.81199 0.529855 9.87405 0.607977 9.91925 0.695861C9.96445 0.783746 9.99189 0.879673 10 0.978164C10.0081 1.07666 9.99679 1.17578 9.96661 1.26989C9.93642 1.36399 9.888 1.45123 9.8241 1.52662C9.7602 1.60201 9.68208 1.66407 9.5942 1.70927C9.50631 1.75447 9.41039 1.78191 9.31189 1.79004C7.74401 1.92475 6.24721 2.50448 4.99762 3.461C3.74803 4.41753 2.79764 5.71106 2.25826 7.18941C1.71888 8.66775 1.61297 10.2694 1.95297 11.8059C2.29298 13.3424 3.06476 14.7498 4.17751 15.8625C5.29026 16.9753 6.69768 17.7471 8.23417 18.0871C9.77067 18.4271 11.3723 18.3212 12.8506 17.7818C14.329 17.2424 15.6225 16.292 16.5791 15.0424C17.5356 13.7928 18.1153 12.2961 18.25 10.7282C18.2664 10.5293 18.3612 10.345 18.5134 10.216C18.6657 10.0869 18.863 10.0236 19.0619 10.04C19.2608 10.0564 19.4451 10.1512 19.5741 10.3035C19.7031 10.4557 19.7664 10.653 19.75 10.8519ZM9.25002 4.79004V10.04C9.25002 10.239 9.32904 10.4297 9.46969 10.5704C9.61034 10.711 9.80111 10.79 10 10.79H15.25C15.4489 10.79 15.6397 10.711 15.7803 10.5704C15.921 10.4297 16 10.239 16 10.04C16 9.84113 15.921 9.65036 15.7803 9.50971C15.6397 9.36906 15.4489 9.29004 15.25 9.29004H10.75V4.79004C10.75 4.59113 10.671 4.40036 10.5303 4.25971C10.3897 4.11906 10.1989 4.04004 10 4.04004C9.80111 4.04004 9.61034 4.11906 9.46969 4.25971C9.32904 4.40036 9.25002 4.59113 9.25002 4.79004ZM13 2.54004C13.2225 2.54004 13.44 2.47406 13.625 2.35044C13.81 2.22683 13.9542 2.05112 14.0394 1.84556C14.1245 1.63999 14.1468 1.41379 14.1034 1.19556C14.06 0.977334 13.9528 0.776878 13.7955 0.619544C13.6382 0.46221 13.4377 0.355064 13.2195 0.311656C13.0013 0.268247 12.7751 0.290526 12.5695 0.375675C12.3639 0.460823 12.1882 0.605017 12.0646 0.790022C11.941 0.975028 11.875 1.19253 11.875 1.41504C11.875 1.71341 11.9935 1.99956 12.2045 2.21053C12.4155 2.42151 12.7016 2.54004 13 2.54004ZM16.375 4.79004C16.5975 4.79004 16.815 4.72406 17 4.60044C17.185 4.47683 17.3292 4.30112 17.4144 4.09556C17.4995 3.88999 17.5218 3.66379 17.4784 3.44556C17.435 3.22733 17.3278 3.02688 17.1705 2.86954C17.0132 2.71221 16.8127 2.60506 16.5945 2.56166C16.3763 2.51825 16.1501 2.54053 15.9445 2.62567C15.7389 2.71082 15.5632 2.85502 15.4396 3.04002C15.316 3.22503 15.25 3.44253 15.25 3.66504C15.25 3.96341 15.3685 4.24956 15.5795 4.46053C15.7905 4.67151 16.0766 4.79004 16.375 4.79004ZM18.625 8.16504C18.8475 8.16504 19.065 8.09906 19.25 7.97544C19.435 7.85183 19.5792 7.67612 19.6644 7.47056C19.7495 7.26499 19.7718 7.03879 19.7284 6.82056C19.685 6.60233 19.5778 6.40188 19.4205 6.24454C19.2632 6.08721 19.0627 5.98006 18.8445 5.93666C18.6263 5.89325 18.4001 5.91553 18.1945 6.00067C17.9889 6.08582 17.8132 6.23002 17.6896 6.41502C17.566 6.60003 17.5 6.81753 17.5 7.04004C17.5 7.33841 17.6185 7.62456 17.8295 7.83553C18.0405 8.04651 18.3266 8.16504 18.625 8.16504Z" fill="#21409A"/>
</svg>
