<svg width="20" height="18" viewBox="0 0 20 18" fill="none" xmlns="http://www.w3.org/2000/svg">
    <g clip-path="url(#clip0_2535_3754)">
        <path d="M4.64359 4.40239C5.39383 4.19842 6.08116 4.00798 6.76907 3.82824C7.43101 3.65469 8.0335 4.12912 7.98965 4.7816C7.9631 5.18221 7.68032 5.49774 7.22325 5.61888C6.07558 5.92315 4.92734 6.22497 3.77852 6.52435C3.52113 6.59196 3.26489 6.66409 3.00635 6.72888C2.35595 6.89172 1.83483 6.60323 1.66227 5.97217C1.28331 4.58533 0.908962 3.19698 0.53923 1.80714C0.390338 1.24707 0.673119 0.761937 1.21098 0.619947C1.72633 0.484156 2.22033 0.781095 2.37442 1.33046C2.55101 1.96152 2.72068 2.59541 2.89381 3.2276C2.9094 3.28394 2.90074 3.37184 2.97807 3.38198C3.03578 3.38987 3.06464 3.3155 3.10042 3.2738C4.6586 1.46512 6.63518 0.381044 9.03536 0.0773437C13.7463 -0.518224 18.138 2.39763 19.2172 6.89904C20.0159 10.2341 19.1208 13.1533 16.6041 15.5452C15.1382 16.9403 13.34 17.7173 11.2982 17.9427C9.3216 18.1613 7.47083 17.7798 5.73548 16.8406C5.19819 16.5498 5.01987 16.0247 5.29457 15.5396C5.55946 15.0725 6.13829 14.9423 6.66692 15.2364C7.78881 15.8602 9.00362 16.1943 10.2854 16.1661C13.0555 16.1058 15.1971 14.9226 16.6433 12.6023C17.3699 11.4365 17.6965 10.1485 17.6515 8.78942C17.5361 5.30617 15.0067 2.53512 11.7004 1.93166C9.17906 1.47076 6.97971 2.15084 5.11624 3.86599C4.93506 4.02357 4.77612 4.20395 4.64359 4.40239Z" fill="#475569"/>
        <path d="M10.0051 6C11.6723 6.03906 12.9986 7.30204 13 9.00445C13 10.6725 11.7034 11.9717 10.0205 11.9996C8.37524 12.027 6.99675 10.6422 7.00001 8.99933C7.00326 7.35644 8.35941 6.00233 10.0051 6ZM10.0172 7.54152C9.1946 7.53547 8.54656 8.16882 8.54144 8.98306C8.53585 9.80799 9.16527 10.4548 9.97998 10.4613C10.8063 10.4683 11.459 9.83915 11.4651 9.02863C11.4711 8.19347 10.8422 7.5471 10.0172 7.54152Z" fill="#475569"/>
    </g>
    <defs>
        <clipPath id="clip0_2535_3754">
            <rect width="19" height="18" fill="white" transform="translate(0.5)"/>
        </clipPath>
    </defs>
</svg>
