<svg width="20" height="20" viewBox="0 0 20 20" fill="none" xmlns="http://www.w3.org/2000/svg">
<path d="M18.2894 1.75254C17.353 0.816172 16.083 0.290131 14.7588 0.290131C13.4345 0.290131 12.1645 0.816172 11.2281 1.75254L1.7125 11.2672C0.795711 12.2076 0.286333 13.4713 0.294719 14.7846C0.303104 16.0979 0.828578 17.3551 1.7573 18.2837C2.68603 19.2123 3.94322 19.7376 5.25652 19.7458C6.56983 19.754 7.83349 19.2445 8.77375 18.3275L18.2903 8.81285C19.2251 7.87577 19.75 6.60612 19.7498 5.2825C19.7497 3.95887 19.2244 2.68937 18.2894 1.75254ZM7.71344 17.2672C7.0584 17.9224 6.16992 18.2905 5.24346 18.2906C4.317 18.2907 3.42845 17.9227 2.77328 17.2677C2.11812 16.6126 1.75 15.7242 1.74991 14.7977C1.74982 13.8713 2.11777 12.9827 2.77282 12.3275L7 8.10035L11.9406 13.04L7.71344 17.2672ZM17.2291 7.75253L13 11.9797L8.06125 7.04003L12.2894 2.81285C12.947 2.1704 13.8314 1.81312 14.7508 1.81849C15.6701 1.82386 16.5503 2.19145 17.2004 2.84154C17.8505 3.49163 18.2181 4.3718 18.2234 5.29114C18.2288 6.21049 17.8715 7.09489 17.2291 7.75253ZM15.7825 5.75941C15.8522 5.82906 15.9076 5.91178 15.9453 6.00283C15.983 6.09388 16.0025 6.19147 16.0025 6.29004C16.0025 6.3886 15.983 6.48619 15.9453 6.57724C15.9076 6.66829 15.8522 6.75101 15.7825 6.82066L13.5325 9.07066C13.4628 9.14028 13.3801 9.1955 13.2891 9.23315C13.1981 9.27081 13.1005 9.29016 13.002 9.29012C12.9035 9.29008 12.806 9.27063 12.715 9.2329C12.624 9.19516 12.5413 9.13987 12.4717 9.07019C12.4021 9.00051 12.3469 8.9178 12.3092 8.82677C12.2716 8.73575 12.2522 8.63821 12.2523 8.5397C12.2523 8.4412 12.2717 8.34367 12.3095 8.25268C12.3472 8.1617 12.4025 8.07903 12.4722 8.00941L14.7222 5.75941C14.8628 5.61886 15.0535 5.53991 15.2523 5.53991C15.4512 5.53991 15.6419 5.61886 15.7825 5.75941Z" fill="#21409A"/>
</svg>
