<svg width="24" height="24" viewBox="0 0 24 24" fill="none" xmlns="http://www.w3.org/2000/svg">
    <path fill-rule="evenodd" clip-rule="evenodd" d="M17.5002 7.5C17.5002 10.5376 15.0378 13 12.0002 13C8.96268 13 6.50025 10.5376 6.50025 7.5C6.50025 4.46243 8.96268 2 12.0002 2C15.0378 2 17.5002 4.46243 17.5002 7.5ZM15.5002 7.5C15.5002 9.433 13.9332 11 12.0002 11C10.0672 11 8.50025 9.433 8.50025 7.5C8.50025 5.567 10.0672 4 12.0002 4C13.9332 4 15.5002 5.567 15.5002 7.5ZM3.74053 20.6626C3.34562 17.1084 6.12777 14 9.70384 14H14.2967C17.8727 14 20.6549 17.1084 20.26 20.6626L20.0002 23H18.0002L18.348 20.5657C18.6923 18.156 16.8224 16 14.3882 16H9.61228C7.17809 16 5.30824 18.1559 5.65249 20.5657L6.00025 23H4.00025L3.74053 20.6626Z" fill="#21409A"/>
    <mask id="mask0_2535_3698" style="mask-type:luminance" maskUnits="userSpaceOnUse" x="3" y="2" width="18" height="21">
        <path fill-rule="evenodd" clip-rule="evenodd" d="M17.5002 7.5C17.5002 10.5376 15.0378 13 12.0002 13C8.96268 13 6.50025 10.5376 6.50025 7.5C6.50025 4.46243 8.96268 2 12.0002 2C15.0378 2 17.5002 4.46243 17.5002 7.5ZM15.5002 7.5C15.5002 9.433 13.9332 11 12.0002 11C10.0672 11 8.50025 9.433 8.50025 7.5C8.50025 5.567 10.0672 4 12.0002 4C13.9332 4 15.5002 5.567 15.5002 7.5ZM3.74053 20.6626C3.34562 17.1084 6.12777 14 9.70384 14H14.2967C17.8727 14 20.6549 17.1084 20.26 20.6626L20.0002 23H18.0002L18.348 20.5657C18.6923 18.156 16.8224 16 14.3882 16H9.61228C7.17809 16 5.30824 18.1559 5.65249 20.5657L6.00025 23H4.00025L3.74053 20.6626Z" fill="white"/>
    </mask>
    <g mask="url(#mask0_2535_3698)">
        <rect width="24" height="24" fill="#21409A"/>
    </g>
</svg>
