<svg width="18" height="20" viewBox="0 0 18 20" fill="none" xmlns="http://www.w3.org/2000/svg">
<path d="M17.0306 5.75941L11.7806 0.509414C11.7109 0.439789 11.6282 0.384578 11.5371 0.346937C11.4461 0.309296 11.3485 0.289962 11.25 0.290039H2.25C1.85218 0.290039 1.47064 0.448074 1.18934 0.729379C0.908035 1.01068 0.75 1.39221 0.75 1.79004V18.29C0.75 18.6879 0.908035 19.0694 1.18934 19.3507C1.47064 19.632 1.85218 19.79 2.25 19.79H15.75C16.1478 19.79 16.5294 19.632 16.8107 19.3507C17.092 19.0694 17.25 18.6879 17.25 18.29V6.29004C17.2501 6.19152 17.2307 6.09395 17.1931 6.0029C17.1555 5.91186 17.1003 5.82912 17.0306 5.75941ZM12 2.85035L14.6897 5.54004H12V2.85035ZM15.75 18.29H2.25V1.79004H10.5V6.29004C10.5 6.48895 10.579 6.67972 10.7197 6.82037C10.8603 6.96102 11.0511 7.04004 11.25 7.04004H15.75V18.29ZM12.75 10.79C12.75 10.989 12.671 11.1797 12.5303 11.3204C12.3897 11.461 12.1989 11.54 12 11.54H6C5.80109 11.54 5.61032 11.461 5.46967 11.3204C5.32902 11.1797 5.25 10.989 5.25 10.79C5.25 10.5911 5.32902 10.4004 5.46967 10.2597C5.61032 10.1191 5.80109 10.04 6 10.04H12C12.1989 10.04 12.3897 10.1191 12.5303 10.2597C12.671 10.4004 12.75 10.5911 12.75 10.79ZM12.75 13.79C12.75 13.989 12.671 14.1797 12.5303 14.3204C12.3897 14.461 12.1989 14.54 12 14.54H6C5.80109 14.54 5.61032 14.461 5.46967 14.3204C5.32902 14.1797 5.25 13.989 5.25 13.79C5.25 13.5911 5.32902 13.4004 5.46967 13.2597C5.61032 13.1191 5.80109 13.04 6 13.04H12C12.1989 13.04 12.3897 13.1191 12.5303 13.2597C12.671 13.4004 12.75 13.5911 12.75 13.79Z" fill="#475569"/>
</svg>
