<svg width="22" height="16" viewBox="0 0 22 16" fill="none" xmlns="http://www.w3.org/2000/svg">
<path d="M20.2991 5.83504C20.6379 5.7661 20.9425 5.58223 21.1613 5.31453C21.3802 5.04683 21.4998 4.71174 21.5 4.36598V2.04004C21.5 1.64221 21.342 1.26068 21.0607 0.979379C20.7794 0.698074 20.3978 0.540039 20 0.540039H2C1.60218 0.540039 1.22065 0.698074 0.939343 0.979379C0.658038 1.26068 0.500003 1.64221 0.500003 2.04004V4.36598C0.500192 4.71174 0.61983 5.04683 0.838671 5.31453C1.05751 5.58223 1.36212 5.7661 1.70094 5.83504C2.20757 5.9401 2.66251 6.21657 2.98912 6.61786C3.31573 7.01916 3.49406 7.52076 3.49406 8.03816C3.49406 8.55557 3.31573 9.05717 2.98912 9.45847C2.66251 9.85976 2.20757 10.1362 1.70094 10.2413C1.36148 10.3104 1.0564 10.4948 0.837483 10.7633C0.61857 11.0317 0.499327 11.3677 0.500003 11.7141V14.04C0.500003 14.4379 0.658038 14.8194 0.939343 15.1007C1.22065 15.382 1.60218 15.54 2 15.54H20C20.3978 15.54 20.7794 15.382 21.0607 15.1007C21.342 14.8194 21.5 14.4379 21.5 14.04V11.7141C21.4998 11.3683 21.3802 11.0333 21.1613 10.7656C20.9425 10.4979 20.6379 10.314 20.2991 10.245C19.7924 10.14 19.3375 9.86351 19.0109 9.46222C18.6843 9.06092 18.5059 8.55932 18.5059 8.04191C18.5059 7.52451 18.6843 7.02291 19.0109 6.62161C19.3375 6.22032 19.7924 5.94385 20.2991 5.83879V5.83504ZM2 11.715C2.84722 11.5425 3.60876 11.0824 4.15573 10.4128C4.70269 9.74317 5.00146 8.90512 5.00146 8.04051C5.00146 7.1759 4.70269 6.33784 4.15573 5.66822C3.60876 4.99861 2.84722 4.53856 2 4.36598V2.04004H7.25V14.04H2V11.715ZM20 11.715V14.04H8.75V2.04004H20V4.36504C19.1528 4.53763 18.3912 4.99767 17.8443 5.66729C17.2973 6.33691 16.9985 7.17496 16.9985 8.03957C16.9985 8.90418 17.2973 9.74224 17.8443 10.4119C18.3912 11.0815 19.1528 11.5415 20 11.7141V11.715Z" fill="#21409A"/>
</svg>
