<svg width="24" height="20" viewBox="0 0 24 20" fill="none" xmlns="http://www.w3.org/2000/svg">
    <g clip-path="url(#clip0_2535_3739)">
        <path d="M11.9784 11.9237C11.3724 11.9237 10.7663 11.916 10.1603 11.9237C9.21806 11.9384 8.58969 12.5667 8.57247 13.5096C8.56354 13.9798 8.57247 14.4505 8.57247 14.9207C8.57247 15.4208 8.2535 15.75 7.78144 15.75C7.33488 15.7462 7.01209 15.4074 7.0089 14.9258C7.0089 14.4314 7.00316 13.937 7.0089 13.4426C7.02549 12.1425 7.6513 11.222 8.79511 10.6402C8.97564 10.5483 9.00435 10.4992 8.87868 10.3212C7.16583 7.94173 8.64838 4.58876 11.558 4.243C13.8207 3.97443 15.8321 5.75809 15.8474 8.03678C15.8626 8.86429 15.604 9.67364 15.1119 10.3391C14.999 10.4935 15.0098 10.54 15.1821 10.6223C16.1798 11.0989 16.7846 11.8867 16.9683 12.9788C17.0359 13.3801 16.9868 13.7909 16.9932 14.1967C16.997 14.4595 16.9989 14.7229 16.9932 14.9858C16.9933 15.0878 16.9729 15.1887 16.9332 15.2827C16.8934 15.3766 16.8352 15.4615 16.7619 15.5324C16.6886 15.6034 16.6018 15.6588 16.5066 15.6954C16.4114 15.732 16.3098 15.7491 16.2079 15.7455C16.106 15.7468 16.0049 15.7278 15.9105 15.6895C15.8161 15.6512 15.7303 15.5944 15.6581 15.5225C15.5859 15.4506 15.5288 15.365 15.4901 15.2708C15.4514 15.1765 15.4319 15.0755 15.4328 14.9737C15.4264 14.5112 15.4328 14.0487 15.4328 13.5862C15.4277 12.5482 14.7949 11.9224 13.755 11.9192C13.1586 11.9218 12.5685 11.9231 11.9784 11.9237ZM11.9886 10.355C13.3283 10.3085 14.2743 9.32923 14.2635 8.07059C14.252 6.74433 13.2587 5.82061 11.9714 5.80785C10.751 5.79573 9.72458 6.85342 9.72075 8.07569C9.71692 9.29797 10.7682 10.3589 11.9886 10.355Z" fill="#475569"/>
        <path d="M21.8828 11.4447C21.8279 11.7107 21.7935 11.9308 21.7373 12.1464C20.6637 16.2776 18.0616 18.9034 13.8837 19.7665C10.4931 20.4682 7.5006 19.4839 4.98523 17.0872C4.7358 16.8499 4.64585 16.566 4.74218 16.24C4.83404 15.9293 5.06115 15.7501 5.38011 15.6958C5.67356 15.6454 5.90449 15.7724 6.10863 15.9721C6.97048 16.8135 7.95863 17.4731 9.09671 17.861C12.1652 18.9046 14.9765 18.4134 17.4753 16.3408C18.8424 15.2072 19.7036 13.7355 20.1438 12.0169C20.1629 11.941 20.1763 11.8638 20.1974 11.7662C20.0734 11.8228 19.9455 11.8703 19.8146 11.9084C19.6574 11.9431 19.4933 11.9277 19.3452 11.8646C19.1971 11.8015 19.0724 11.6937 18.9885 11.5563C18.9026 11.4157 18.8625 11.2518 18.874 11.0874C18.8854 10.9231 18.9477 10.7663 19.0523 10.639C19.1509 10.5241 19.2555 10.4144 19.3655 10.3104C19.7706 9.90405 20.1731 9.4945 20.5839 9.09324C20.9571 8.72835 21.4241 8.72707 21.796 9.09324C22.28 9.56744 22.7593 10.0467 23.2339 10.5311C23.5835 10.8877 23.5956 11.3936 23.2741 11.7062C22.9526 12.0188 22.4697 11.9933 22.115 11.6584L21.8828 11.4447Z" fill="#475569"/>
        <path d="M2.81321 10.7721C2.57909 10.8002 2.3909 10.7 2.23333 10.5437C1.73575 10.0493 1.24007 9.553 0.750142 9.05095C0.480296 8.77408 0.431176 8.42194 0.59321 8.10489C0.668238 7.96296 0.78458 7.84715 0.926851 7.77277C1.06912 7.69838 1.23062 7.66894 1.38999 7.68832C1.64197 7.7215 1.82506 7.87077 1.99411 8.04684C2.0394 8.09405 2.07959 8.18655 2.16125 8.15019C2.21866 8.12467 2.21292 8.04046 2.22504 7.97794C3.07796 3.90603 6.27208 0.799297 10.4097 0.151158C13.6861 -0.359188 16.5562 0.576021 18.9708 2.86237C19.3535 3.22599 19.379 3.68721 19.0543 4.02659C18.7296 4.36597 18.2422 4.35066 17.8665 3.9896C16.463 2.63973 14.7919 1.85699 12.853 1.64137C8.94438 1.21332 5.17611 3.68275 4.00104 7.44081C3.99147 7.47143 3.98446 7.5046 3.97297 7.53203C3.90918 7.70363 3.91301 7.78146 4.14011 7.71256C4.2993 7.66629 4.46925 7.67336 4.62404 7.73267C4.77884 7.79199 4.90999 7.9003 4.99749 8.0411C5.18504 8.32944 5.18505 8.71284 4.93817 8.97439C4.41315 9.53067 3.86644 10.0659 3.32165 10.603C3.25587 10.6688 3.17567 10.7183 3.08741 10.7476C2.99915 10.777 2.90527 10.7854 2.81321 10.7721Z" fill="#475569"/>
    </g>
    <defs>
        <clipPath id="clip0_2535_3739">
            <rect width="23" height="19.9717" fill="white" transform="translate(0.5 0.0141602)"/>
        </clipPath>
    </defs>
</svg>
