<svg width="24" height="20" viewBox="0 0 24 20" fill="none" xmlns="http://www.w3.org/2000/svg">
    <g clip-path="url(#clip0_2535_6945)">
        <path d="M11.9784 11.9238C11.3724 11.9238 10.7663 11.9162 10.1603 11.9238C9.21806 11.9385 8.58969 12.5669 8.57247 13.5097C8.56354 13.9799 8.57247 14.4507 8.57247 14.9208C8.57247 15.421 8.2535 15.7501 7.78144 15.7501C7.33488 15.7463 7.01209 15.4076 7.0089 14.9259C7.0089 14.4315 7.00316 13.9371 7.0089 13.4427C7.02549 12.1426 7.6513 11.2221 8.79511 10.6403C8.97564 10.5484 9.00435 10.4993 8.87868 10.3213C7.16583 7.94185 8.64838 4.58888 11.558 4.24312C13.8207 3.97455 15.8321 5.75821 15.8474 8.0369C15.8626 8.86441 15.604 9.67376 15.1119 10.3392C14.999 10.4936 15.0098 10.5401 15.1821 10.6224C16.1798 11.099 16.7846 11.8868 16.9683 12.979C17.0359 13.3802 16.9868 13.791 16.9932 14.1968C16.997 14.4596 16.9989 14.7231 16.9932 14.9859C16.9933 15.0879 16.9729 15.1888 16.9332 15.2828C16.8934 15.3767 16.8352 15.4617 16.7619 15.5326C16.6886 15.6035 16.6018 15.6589 16.5066 15.6955C16.4114 15.7321 16.3098 15.7492 16.2079 15.7457C16.106 15.7469 16.0049 15.7279 15.9105 15.6896C15.8161 15.6513 15.7303 15.5945 15.6581 15.5226C15.5859 15.4507 15.5288 15.3652 15.4901 15.2709C15.4514 15.1767 15.4319 15.0756 15.4328 14.9738C15.4264 14.5113 15.4328 14.0488 15.4328 13.5863C15.4277 12.5484 14.7949 11.9225 13.755 11.9194C13.1586 11.9219 12.5685 11.9232 11.9784 11.9238ZM11.9886 10.3551C13.3283 10.3086 14.2743 9.32935 14.2635 8.07071C14.252 6.74445 13.2587 5.82073 11.9714 5.80797C10.751 5.79585 9.72458 6.85354 9.72075 8.07582C9.71692 9.29809 10.7682 10.359 11.9886 10.3551Z" fill="#21409A"/>
        <path d="M21.8828 11.4444C21.8279 11.7104 21.7935 11.9305 21.7373 12.1461C20.6637 16.2774 18.0616 18.9031 13.8837 19.7662C10.4931 20.468 7.5006 19.4836 4.98523 17.0869C4.7358 16.8496 4.64585 16.5657 4.74218 16.2397C4.83404 15.9291 5.06115 15.7498 5.38011 15.6956C5.67356 15.6452 5.90449 15.7721 6.10863 15.9718C6.97048 16.8132 7.95863 17.4729 9.09671 17.8607C12.1652 18.9044 14.9765 18.4132 17.4753 16.3405C18.8424 15.2069 19.7036 13.7352 20.1438 12.0166C20.1629 11.9407 20.1763 11.8635 20.1974 11.7659C20.0734 11.8225 19.9455 11.8701 19.8146 11.9082C19.6574 11.9428 19.4933 11.9275 19.3452 11.8644C19.1971 11.8012 19.0724 11.6934 18.9885 11.5561C18.9026 11.4154 18.8625 11.2516 18.874 11.0872C18.8854 10.9228 18.9477 10.7661 19.0523 10.6387C19.1509 10.5239 19.2555 10.4142 19.3655 10.3102C19.7706 9.90381 20.1731 9.49426 20.5839 9.093C20.9571 8.7281 21.4241 8.72683 21.796 9.093C22.28 9.5672 22.7593 10.0465 23.2339 10.5309C23.5835 10.8875 23.5956 11.3934 23.2741 11.706C22.9526 12.0186 22.4697 11.993 22.115 11.6581L21.8828 11.4444Z" fill="#21409A"/>
        <path d="M2.81321 10.7722C2.57909 10.8003 2.3909 10.7001 2.23333 10.5438C1.73575 10.0494 1.24007 9.55312 0.750142 9.05107C0.480296 8.77421 0.431176 8.42207 0.59321 8.10501C0.668238 7.96308 0.78458 7.84727 0.926851 7.77289C1.06912 7.69851 1.23062 7.66906 1.38999 7.68845C1.64197 7.72162 1.82506 7.87089 1.99411 8.04696C2.0394 8.09417 2.07959 8.18667 2.16125 8.15031C2.21866 8.12479 2.21292 8.04058 2.22504 7.97807C3.07796 3.90615 6.27208 0.799419 10.4097 0.15128C13.6861 -0.359065 16.5562 0.576143 18.9708 2.86249C19.3535 3.22611 19.379 3.68734 19.0543 4.02672C18.7296 4.3661 18.2422 4.35079 17.8665 3.98972C16.463 2.63985 14.7919 1.85711 12.853 1.64149C8.94438 1.21344 5.17611 3.68287 4.00104 7.44093C3.99147 7.47155 3.98446 7.50472 3.97297 7.53215C3.90918 7.70376 3.91301 7.78158 4.14011 7.71269C4.2993 7.66642 4.46925 7.67348 4.62404 7.73279C4.77884 7.79211 4.90999 7.90042 4.99749 8.04122C5.18504 8.32957 5.18505 8.71296 4.93817 8.97452C4.41315 9.53079 3.86644 10.066 3.32165 10.6032C3.25587 10.6689 3.17567 10.7184 3.08741 10.7478C2.99915 10.7771 2.90527 10.7855 2.81321 10.7722Z" fill="#21409A"/>
    </g>
    <defs>
        <clipPath id="clip0_2535_6945">
            <rect width="23" height="19.9717" fill="white" transform="translate(0.5 0.0141602)"/>
        </clipPath>
    </defs>
</svg>
