<svg width="20" height="20" viewBox="0 0 20 20" fill="none" xmlns="http://www.w3.org/2000/svg">
<path d="M16.875 12.29C16.875 12.5125 16.809 12.7301 16.6854 12.9151C16.5618 13.1001 16.3861 13.2443 16.1805 13.3294C15.975 13.4146 15.7488 13.4368 15.5305 13.3934C15.3123 13.35 15.1118 13.2429 14.9545 13.0855C14.7972 12.9282 14.69 12.7277 14.6466 12.5095C14.6032 12.2913 14.6255 12.0651 14.7106 11.8595C14.7958 11.654 14.94 11.4783 15.125 11.3546C15.31 11.231 15.5275 11.165 15.75 11.165C16.0484 11.165 16.3345 11.2836 16.5455 11.4945C16.7565 11.7055 16.875 11.9917 16.875 12.29ZM16.4484 15.9735C16.2837 17.0355 15.7449 18.0037 14.9293 18.7035C14.1136 19.4033 13.0747 19.7887 12 19.79H9.75C8.55691 19.7888 7.41303 19.3143 6.56939 18.4706C5.72575 17.627 5.25124 16.4831 5.25 15.29V11.4922C3.80018 11.3096 2.46686 10.6041 1.50025 9.5082C0.533636 8.4123 0.000183379 7.00132 0 5.54004V1.79004C0 1.39221 0.158035 1.01068 0.43934 0.729379C0.720644 0.448074 1.10218 0.290039 1.5 0.290039H3C3.19891 0.290039 3.38968 0.369057 3.53033 0.509709C3.67098 0.650361 3.75 0.841127 3.75 1.04004C3.75 1.23895 3.67098 1.42972 3.53033 1.57037C3.38968 1.71102 3.19891 1.79004 3 1.79004H1.5V5.54004C1.49995 6.13607 1.6183 6.72617 1.84819 7.27609C2.07808 7.826 2.41492 8.32476 2.83916 8.74342C3.2634 9.16208 3.76658 9.49229 4.31949 9.71487C4.8724 9.93746 5.46402 10.048 6.06 10.04C8.50781 10.0082 10.5 7.9541 10.5 5.46223V1.79004H9C8.80109 1.79004 8.61032 1.71102 8.46967 1.57037C8.32902 1.42972 8.25 1.23895 8.25 1.04004C8.25 0.841127 8.32902 0.650361 8.46967 0.509709C8.61032 0.369057 8.80109 0.290039 9 0.290039H10.5C10.8978 0.290039 11.2794 0.448074 11.5607 0.729379C11.842 1.01068 12 1.39221 12 1.79004V5.46223C12 8.54098 9.70031 11.1144 6.75 11.4913V15.29C6.75 16.0857 7.06607 16.8487 7.62868 17.4114C8.19129 17.974 8.95435 18.29 9.75 18.29H12C12.6813 18.2889 13.3419 18.0564 13.8737 17.6305C14.4055 17.2047 14.7769 16.6108 14.9269 15.9463C14.0211 15.7428 13.223 15.2106 12.687 14.4527C12.1509 13.6947 11.9151 12.7648 12.0252 11.843C12.1352 10.9212 12.5832 10.073 13.2826 9.46247C13.9819 8.85194 14.8829 8.52253 15.8111 8.53798C16.7393 8.55342 17.6288 8.91261 18.3075 9.54606C18.9862 10.1795 19.4057 11.0422 19.485 11.9671C19.5643 12.8921 19.2977 13.8136 18.7368 14.5533C18.1759 15.293 17.3605 15.7984 16.4484 15.9716V15.9735ZM18 12.29C18 11.845 17.868 11.41 17.6208 11.04C17.3736 10.67 17.0222 10.3816 16.611 10.2113C16.1999 10.041 15.7475 9.99646 15.311 10.0833C14.8746 10.1701 14.4737 10.3844 14.159 10.699C13.8443 11.0137 13.63 11.4146 13.5432 11.8511C13.4564 12.2875 13.501 12.7399 13.6713 13.1511C13.8416 13.5622 14.13 13.9136 14.5 14.1608C14.87 14.4081 15.305 14.54 15.75 14.54C16.3467 14.54 16.919 14.303 17.341 13.881C17.7629 13.4591 18 12.8868 18 12.29Z" fill="#475569"/>
</svg>
