<svg width="12" height="13" viewBox="0 0 12 13" fill="none" xmlns="http://www.w3.org/2000/svg">
<path d="M6 0.0400085C4.81331 0.0400085 3.65328 0.391903 2.66658 1.05119C1.67989 1.71048 0.910851 2.64755 0.456725 3.74391C0.00259969 4.84026 -0.11622 6.04666 0.115291 7.21055C0.346802 8.37443 0.918247 9.44353 1.75736 10.2826C2.59648 11.1218 3.66557 11.6932 4.82946 11.9247C5.99335 12.1562 7.19974 12.0374 8.2961 11.5833C9.39246 11.1292 10.3295 10.3601 10.9888 9.37343C11.6481 8.38673 12 7.22669 12 6.04001C12 4.44871 11.3679 2.92258 10.2426 1.79737C9.11742 0.672148 7.5913 0.0400085 6 0.0400085ZM6 9.04001C5.40666 9.04001 4.82664 8.86406 4.33329 8.53441C3.83994 8.20477 3.45543 7.73624 3.22836 7.18806C3.0013 6.63988 2.94189 6.03668 3.05765 5.45474C3.1734 4.87279 3.45913 4.33825 3.87868 3.91869C4.29824 3.49913 4.83279 3.21341 5.41473 3.09765C5.99667 2.9819 6.59987 3.04131 7.14805 3.26837C7.69623 3.49543 8.16477 3.87995 8.49441 4.3733C8.82405 4.86664 9 5.44666 9 6.04001C9 6.83566 8.68393 7.59872 8.12132 8.16133C7.55871 8.72394 6.79565 9.04001 6 9.04001Z" fill="#475569"/>
</svg>
