<svg width="12" height="13" viewBox="0 0 12 13" fill="none" xmlns="http://www.w3.org/2000/svg">
<path d="M12 6.04001C12 7.22669 11.6481 8.38673 10.9888 9.37343C10.3295 10.3601 9.39246 11.1292 8.2961 11.5833C7.19974 12.0374 5.99334 12.1562 4.82946 11.9247C3.66557 11.6932 2.59648 11.1218 1.75736 10.2826C0.918247 9.44353 0.346802 8.37443 0.115291 7.21055C-0.11622 6.04666 0.00259972 4.84026 0.456725 3.74391C0.910851 2.64755 1.67989 1.71048 2.66658 1.05119C3.65327 0.391902 4.81331 0.0400085 6 0.0400085C7.5913 0.0400085 9.11742 0.672149 10.2426 1.79737C11.3679 2.92258 12 4.44871 12 6.04001Z" fill="#21409A"/>
</svg>
