<svg width="14" height="22" viewBox="0 0 14 22" fill="none" xmlns="http://www.w3.org/2000/svg">
<path d="M11.5 0.0400391H2.5C1.90326 0.0400391 1.33097 0.277092 0.90901 0.699049C0.487053 1.12101 0.25 1.6933 0.25 2.29004V18.79C0.25 19.3868 0.487053 19.9591 0.90901 20.381C1.33097 20.803 1.90326 21.04 2.5 21.04H11.5C12.0967 21.04 12.669 20.803 13.091 20.381C13.5129 19.9591 13.75 19.3868 13.75 18.79V2.29004C13.75 1.6933 13.5129 1.12101 13.091 0.699049C12.669 0.277092 12.0967 0.0400391 11.5 0.0400391ZM1.75 4.54004H12.25V16.54H1.75V4.54004ZM2.5 1.54004H11.5C11.6989 1.54004 11.8897 1.61906 12.0303 1.75971C12.171 1.90036 12.25 2.09113 12.25 2.29004V3.04004H1.75V2.29004C1.75 2.09113 1.82902 1.90036 1.96967 1.75971C2.11032 1.61906 2.30109 1.54004 2.5 1.54004ZM11.5 19.54H2.5C2.30109 19.54 2.11032 19.461 1.96967 19.3204C1.82902 19.1797 1.75 18.989 1.75 18.79V18.04H12.25V18.79C12.25 18.989 12.171 19.1797 12.0303 19.3204C11.8897 19.461 11.6989 19.54 11.5 19.54Z" fill="#21409A"/>
</svg>
