<svg width="20" height="20" viewBox="0 0 20 20" fill="none" xmlns="http://www.w3.org/2000/svg">
    <g clip-path="url(#clip0_2535_3727)">
        <path d="M10.5819 0.5C11.1847 0.589791 11.7704 0.735979 12.3119 1.0265C13.8786 1.86949 14.826 3.16033 15.05 4.93314C15.3947 7.66173 13.4815 10.1573 10.7702 10.561C10.339 10.6252 9.90593 10.5981 9.47397 10.6289C7.71174 10.7556 6.15453 11.3824 4.80234 12.5093C3.39766 13.6792 2.49958 15.1663 2.06503 16.945C1.92315 17.5272 2.26745 18.0073 2.90999 18.0044C5.34869 17.9929 7.78739 17.9992 10.2268 18.0006C10.7201 18.0006 11.0529 18.3695 10.9994 18.8566C10.9622 19.1809 10.7498 19.3675 10.4712 19.497H2.37367C2.32093 19.48 2.26856 19.4599 2.21508 19.4466C1.52054 19.2611 1.02247 18.841 0.709744 18.198C0.418927 17.5999 0.463868 16.987 0.635461 16.3711C1.55656 13.1115 3.58634 10.8627 6.75857 9.65197C6.80871 9.63305 6.88337 9.63527 6.89785 9.57553C6.91234 9.5158 6.84103 9.48834 6.80092 9.45346C5.42149 8.25613 4.78414 6.75084 5.00216 4.93314C5.21313 3.17368 6.15763 1.89064 7.70493 1.04431C8.25388 0.744141 8.85223 0.591646 9.46766 0.500371H10.5819V0.5ZM6.47296 5.54609C6.50713 7.50998 8.04403 9.12732 10.1184 9.0828C12.0126 9.04199 13.5595 7.53373 13.5673 5.56278C13.5755 3.56735 12.01 2.00418 10.0233 2.00566C8.03661 2.00715 6.50936 3.56661 6.47296 5.54646V5.54609Z" fill="#21409A"/>
        <path d="M12.9964 19.497C12.6696 19.3441 12.4534 19.1171 12.4635 18.729C12.4739 18.3346 12.787 18.0032 13.1818 18.0025C15.0604 17.9984 16.9394 18.0025 18.8183 17.9999C19.134 17.9999 19.3257 18.1921 19.4965 18.421C19.4965 18.7364 19.4902 19.0518 19.4999 19.3671C19.5032 19.4785 19.4772 19.5003 19.3666 19.5003C17.2431 19.4959 15.1197 19.4948 12.9964 19.497Z" fill="#21409A"/>
        <path d="M19.4964 13.1523C19.2795 13.4885 18.9697 13.5835 18.576 13.5801C16.7884 13.5649 15.0004 13.5742 13.2128 13.5723C13.0475 13.5738 12.8864 13.5204 12.7547 13.4204C12.6231 13.3205 12.5284 13.1797 12.4856 13.0202C12.4412 12.8577 12.4521 12.685 12.5164 12.5293C12.5807 12.3736 12.6949 12.2435 12.841 12.1594C12.9537 12.0941 13.0821 12.0608 13.2124 12.063C15.0744 12.063 16.9365 12.063 18.7985 12.063C19.1223 12.063 19.321 12.2485 19.496 12.4852V13.1531L19.4964 13.1523Z" fill="#21409A"/>
        <path d="M19.4963 16.1206C19.2786 16.4564 18.9674 16.551 18.5752 16.5481C16.7876 16.534 15 16.5429 13.2123 16.5406C13.0437 16.5417 12.8796 16.4859 12.7467 16.3822C12.6137 16.2785 12.5197 16.133 12.4799 15.9692C12.4408 15.8086 12.4549 15.6397 12.5202 15.4878C12.5854 15.3359 12.6982 15.2093 12.8417 15.127C12.9488 15.064 13.071 15.0311 13.1953 15.032C15.0694 15.032 16.9436 15.032 18.8177 15.032C19.1334 15.032 19.3258 15.2231 19.4963 15.4531V16.121V16.1206Z" fill="#21409A"/>
    </g>
    <defs>
        <clipPath id="clip0_2535_3727">
            <rect width="19" height="19" fill="white" transform="translate(0.5 0.5)"/>
        </clipPath>
    </defs>
</svg>
