<svg width="20" height="20" viewBox="0 0 20 20" fill="none" xmlns="http://www.w3.org/2000/svg">
    <g clip-path="url(#clip0_2535_6930)">
        <path d="M10.5819 0.5C11.1847 0.589791 11.7704 0.735979 12.3119 1.0265C13.8786 1.86949 14.826 3.16033 15.05 4.93314C15.3947 7.66173 13.4815 10.1573 10.7702 10.561C10.339 10.6252 9.90593 10.5981 9.47398 10.6289C7.71174 10.7556 6.15453 11.3824 4.80234 12.5093C3.39766 13.6792 2.49958 15.1663 2.06503 16.945C1.92315 17.5272 2.26745 18.0073 2.90999 18.0044C5.34869 17.9929 7.78739 17.9992 10.2268 18.0006C10.7201 18.0006 11.0529 18.3695 10.9994 18.8566C10.9622 19.1809 10.7498 19.3675 10.4712 19.497H2.37367C2.32093 19.48 2.26856 19.4599 2.21508 19.4466C1.52054 19.2611 1.02247 18.841 0.709744 18.198C0.418927 17.5999 0.463868 16.987 0.635461 16.3711C1.55657 13.1115 3.58634 10.8627 6.75857 9.65197C6.80871 9.63305 6.88337 9.63527 6.89785 9.57553C6.91234 9.5158 6.84103 9.48834 6.80092 9.45347C5.42149 8.25613 4.78414 6.75084 5.00216 4.93314C5.21313 3.17368 6.15763 1.89064 7.70493 1.04431C8.25388 0.744141 8.85223 0.591646 9.46766 0.500371H10.5819V0.5ZM6.47296 5.54609C6.50713 7.50998 8.04403 9.12732 10.1184 9.0828C12.0126 9.04199 13.5595 7.53373 13.5673 5.56278C13.5755 3.56735 12.01 2.00418 10.0233 2.00566C8.03661 2.00715 6.50936 3.56661 6.47296 5.54646V5.54609Z" fill="#475569"/>
        <path d="M12.9964 19.4971C12.6696 19.3443 12.4534 19.1172 12.4635 18.7291C12.4739 18.3347 12.787 18.0033 13.1818 18.0026C15.0604 17.9985 16.9394 18.0026 18.8183 18C19.134 18 19.3257 18.1922 19.4965 18.4211C19.4965 18.7365 19.4902 19.0519 19.4999 19.3673C19.5032 19.4786 19.4772 19.5005 19.3666 19.5005C17.2431 19.496 15.1197 19.4949 12.9964 19.4971Z" fill="#475569"/>
        <path d="M19.4964 13.1525C19.2795 13.4886 18.9697 13.5836 18.576 13.5803C16.7884 13.565 15.0004 13.5743 13.2128 13.5725C13.0475 13.5739 12.8864 13.5205 12.7547 13.4206C12.6231 13.3206 12.5284 13.1799 12.4856 13.0204C12.4412 12.8578 12.4521 12.6852 12.5164 12.5294C12.5807 12.3737 12.6949 12.2436 12.841 12.1596C12.9537 12.0942 13.0821 12.0609 13.2124 12.0631C15.0744 12.0631 16.9365 12.0631 18.7985 12.0631C19.1223 12.0631 19.321 12.2486 19.496 12.4853V13.1532L19.4964 13.1525Z" fill="#475569"/>
        <path d="M19.4963 16.1204C19.2786 16.4562 18.9674 16.5508 18.5752 16.5478C16.7876 16.5337 15 16.5426 13.2123 16.5404C13.0437 16.5415 12.8796 16.4856 12.7467 16.3819C12.6137 16.2782 12.5197 16.1327 12.4799 15.969C12.4408 15.8084 12.4549 15.6395 12.5202 15.4876C12.5854 15.3357 12.6982 15.2091 12.8417 15.1267C12.9488 15.0637 13.071 15.0309 13.1953 15.0318C15.0694 15.0318 16.9436 15.0318 18.8177 15.0318C19.1334 15.0318 19.3258 15.2228 19.4963 15.4529V16.1207V16.1204Z" fill="#475569"/>
    </g>
    <defs>
        <clipPath id="clip0_2535_6930">
            <rect width="19" height="19" fill="white" transform="translate(0.5 0.5)"/>
        </clipPath>
    </defs>
</svg>
