<svg width="500" height="500" viewBox="0 0 500 500" fill="none" xmlns="http://www.w3.org/2000/svg">
    <g clip-path="url(#clip0_1381_70708)">
        <mask id="mask0_1381_70708" style="mask-type:luminance" maskUnits="userSpaceOnUse" x="0" y="0" width="500" height="500">
            <path d="M500 0H0V500H500V0Z" fill="white"/>
        </mask>
        <g mask="url(#mask0_1381_70708)">
            <path d="M298.965 246.65C298.965 246.65 368.271 242.842 406.602 276.768L422.959 282.021L447.539 233.613C447.539 233.613 449.404 170.312 298.965 168.076V246.641V246.65Z" fill="#CCCCCC"/>
            <path d="M385.732 288.262V389.102C385.732 389.756 386.357 390.234 386.982 390.059C395.117 387.783 440.43 373.721 447.539 340.869V233.633C447.539 233.633 434.609 266.504 386.328 287.373C385.967 287.529 385.732 287.881 385.732 288.281V288.262Z" fill="#E6E6E6"/>
            <path d="M212.393 249.551C212.393 249.551 143.086 245.742 104.756 279.668L88.3984 284.922L63.8184 236.514C63.8184 236.514 61.9531 173.213 212.393 170.977V249.541V249.551Z" fill="#CCCCCC"/>
            <path d="M125.635 291.855V390.566C125.635 391.943 124.316 392.93 122.998 392.539C112.07 389.297 70.6055 375.059 63.8281 343.75V236.514C63.8281 236.514 76.6406 269.092 124.395 289.971C125.146 290.303 125.635 291.035 125.635 291.855Z" fill="#E6E6E6"/>
            <path d="M229.668 151.464C229.668 151.464 217.422 149.941 212.812 177.392C209.346 198.056 205.098 218.974 205.098 218.974L224.561 225.332L234.629 172.734L229.668 151.464Z" fill="#E6E6E6"/>
            <path d="M265.996 146.416C265.996 146.416 274.502 148.525 288.652 152.705C293.584 154.16 296.064 166.27 298.584 174.609C303.916 192.305 305.547 209.102 307.217 217.979C308.242 223.428 306.289 231.865 300.869 233.027C295.791 234.121 289.131 228.066 287.441 223.164L269.844 171.904L266.006 146.416H265.996Z" fill="#E6E6E6"/>
            <path d="M254.102 471.797C369.111 471.797 462.344 466.056 462.344 458.975C462.344 451.893 369.111 446.152 254.102 446.152C139.093 446.152 45.8594 451.893 45.8594 458.975C45.8594 466.056 139.093 471.797 254.102 471.797Z" fill="#E6E6E6"/>
            <path d="M236.523 102.265C236.367 102.275 236.24 102.402 236.221 102.558C235.908 105.976 232.656 140.429 229.668 143.652C229.189 144.17 228.721 144.629 228.271 145.029C227.187 145.996 227.891 147.793 229.336 147.793H235.156C235.293 147.793 235.41 147.705 235.459 147.578L236.24 145.39C236.367 145.049 236.865 145.136 236.865 145.498V147.861C236.865 148.056 237.041 148.213 237.246 148.183L249.619 146.064C249.766 146.035 249.883 145.908 249.883 145.761L251.67 101.543C251.67 101.347 251.514 101.191 251.328 101.211L236.504 102.275L236.523 102.265Z" fill="#200200"/>
            <path d="M275.225 102.607C275.352 102.607 275.459 102.714 275.469 102.841C275.752 105.957 279.023 140.751 282.022 143.984C282.48 144.482 282.93 144.921 283.359 145.302C284.453 146.298 283.75 148.115 282.266 148.115H276.484C276.367 148.115 276.27 148.046 276.23 147.939L275.322 145.429C275.225 145.146 274.805 145.224 274.805 145.517V148.251C274.805 148.417 274.658 148.544 274.492 148.515L262.012 146.376C261.885 146.357 261.797 146.25 261.787 146.123L260 101.806C260 101.65 260.127 101.513 260.283 101.523L275.215 102.597L275.225 102.607Z" fill="#200200"/>
            <path d="M218.457 448.574L208.076 453.701C206.973 454.248 206.309 455.488 206.65 456.67C206.924 457.598 207.803 458.457 210.107 458.496C215.234 458.584 237.949 455.049 237.949 455.049V457.432L248.486 456.24C248.486 456.24 249.219 444.189 246.016 442.422L218.457 448.574Z" fill="#231109"/>
            <path d="M235.186 436.514L218.457 448.574C218.457 448.574 220.244 453.174 228.174 450.107C236.094 447.041 246.025 442.422 246.025 442.422L244.58 435.215L235.195 436.514H235.186Z" fill="#FFB085"/>
            <path d="M246.025 442.412L248.564 397.734L231.855 399.316L233.34 440.82L246.025 442.412Z" fill="#FFB085"/>
            <path d="M287.07 448.574L297.451 453.701C298.555 454.248 299.219 455.488 298.877 456.67C298.603 457.598 297.725 458.457 295.42 458.496C290.293 458.584 267.578 455.049 267.578 455.049V457.432L257.041 456.24C257.041 456.24 256.309 444.189 259.512 442.422L287.07 448.574Z" fill="#231109"/>
            <path d="M270.342 436.514L287.07 448.574C287.07 448.574 285.283 453.174 277.354 450.107C269.434 447.041 259.502 442.422 259.502 442.422L260.947 435.215L270.332 436.514H270.342Z" fill="#FFB085"/>
            <path d="M259.512 442.412V396.943L276.221 398.525L272.188 440.82L259.512 442.412Z" fill="#FFB085"/>
            <path d="M236.934 213.877C236.934 213.877 221.338 224.365 224.609 272.255C227.881 320.146 230.996 429.707 230.996 429.707H248.877L254.6 254.316L257.373 254.697L257.295 429.716H275.176L286.523 268.691C286.523 268.691 291.397 236.738 275.732 213.886C275.732 213.886 257.598 201.943 236.943 213.886L236.934 213.877Z" fill="#94A3B8"/>
            <path d="M263.086 255.313H263.076L248.145 254.532C248.018 254.532 247.92 254.414 247.93 254.287C247.93 254.161 248.047 254.053 248.174 254.073L263.105 254.854C263.232 254.854 263.33 254.971 263.32 255.098C263.32 255.225 263.213 255.313 263.086 255.313Z" fill="#1F0000"/>
            <path d="M238.877 116.396C238.877 116.396 235.742 113.955 233.447 116.855C229.961 121.25 236.064 129.219 241.367 125.117L238.887 116.396H238.877Z" fill="#FFB085"/>
            <path d="M272.52 116.396C272.52 116.396 275.654 113.955 277.949 116.855C281.436 121.25 275.332 129.219 270.029 125.117L272.51 116.396H272.52Z" fill="#FFB085"/>
            <path d="M255.811 126.26C266.899 126.26 275.889 117.493 275.889 106.68C275.889 95.8659 266.899 87.0996 255.811 87.0996C244.722 87.0996 235.732 95.8659 235.732 106.68C235.732 117.493 244.722 126.26 255.811 126.26Z" fill="#200200"/>
            <path d="M248.965 125.273L247.061 146.006H263.184L260.195 125.049L248.965 125.273Z" fill="#FFB085"/>
            <path d="M251.523 135.547C251.963 135.801 262.666 143.652 262.666 143.652L261.758 133.926L251.523 135.547Z" fill="#F79067"/>
            <path d="M238.096 106.592C238.096 106.592 238.193 136.836 255.117 136.836C275.01 136.836 272.92 106.611 272.92 106.611C272.92 106.611 272.803 92.998 255.732 92.998C240.078 92.998 238.096 106.592 238.096 106.592Z" fill="#FFB085"/>
            <path d="M258.994 108.995C258.994 108.995 258.838 110.274 261.182 109.795C262.969 109.434 265.215 109.336 266.27 109.297C266.875 109.268 267.461 108.956 267.666 108.565C267.832 108.243 267.715 107.93 267.353 107.774C266.621 107.452 264.063 106.895 261.885 107.315C259.092 107.852 258.984 109.004 258.984 109.004L258.994 108.995Z" fill="#200200"/>
            <path d="M251.816 108.681C251.816 108.681 252.07 109.941 249.687 109.648C247.881 109.424 245.635 109.492 244.57 109.521C243.965 109.541 243.359 109.277 243.125 108.886C242.939 108.574 243.027 108.261 243.379 108.066C244.082 107.685 246.602 106.943 248.799 107.207C251.621 107.539 251.807 108.681 251.807 108.681H251.816Z" fill="#200200"/>
            <path d="M247.432 123.613C243.32 123.613 239.971 120.264 239.971 116.152C239.971 112.041 243.32 108.691 247.432 108.691C251.543 108.691 254.893 112.041 254.893 116.152C254.893 120.264 251.543 123.613 247.432 123.613ZM247.432 109.482C243.75 109.482 240.762 112.48 240.762 116.152C240.762 119.824 243.76 122.822 247.432 122.822C251.104 122.822 254.102 119.824 254.102 116.152C254.102 112.48 251.104 109.482 247.432 109.482Z" fill="black"/>
            <path d="M265.088 123.613C260.977 123.613 257.627 120.264 257.627 116.152C257.627 112.041 260.977 108.691 265.088 108.691C269.199 108.691 272.549 112.041 272.549 116.152C272.549 120.264 269.199 123.613 265.088 123.613ZM265.088 109.482C261.406 109.482 258.418 112.48 258.418 116.152C258.418 119.824 261.416 122.822 265.088 122.822C268.76 122.822 271.758 119.824 271.758 116.152C271.758 112.48 268.76 109.482 265.088 109.482Z" fill="black"/>
            <path d="M254.727 116.465L254.248 115.84C254.99 115.273 256.797 114.541 258.271 115.859L257.754 116.445C256.387 115.234 254.785 116.416 254.717 116.465H254.727Z" fill="black"/>
            <path d="M248.584 146.006L227.754 152.705C227.754 152.705 231.016 183.857 234.648 204.346C234.961 206.123 223.818 232.041 224.111 233.613H285.518C285.518 233.613 276.787 207.373 277.607 204.053C280.439 192.607 282.656 153.398 282.656 153.398L264.697 146.006H248.574H248.584Z" fill="#21409A"/>
            <path d="M247.061 146.006L254.883 163.74L263.184 146.006H247.061Z" fill="#FFB085"/>
            <path d="M246.709 146.328L241.23 151.211L254.883 163.74" fill="#A6B3D7"/>
            <path d="M263.574 146.572L268.77 151.211L254.883 163.74" fill="#A6B3D7"/>
            <path d="M238.096 99.8341V109.336C238.096 109.492 238.242 109.609 238.389 109.58L243.066 108.692C243.174 108.672 243.252 108.584 243.262 108.486L244.131 102.412L244.17 107.861C244.17 108.018 244.307 108.125 244.463 108.106L250.615 107.1C250.723 107.08 250.801 107.002 250.82 106.895L251.396 103.301C251.445 103.018 251.855 103.027 251.885 103.311L252.295 106.846C252.305 106.973 252.412 107.07 252.539 107.061L258.74 107.031C258.857 107.031 258.955 106.943 258.984 106.836L259.766 102.93C259.814 102.666 260.186 102.666 260.254 102.93L261.201 106.914C261.221 107.012 261.299 107.08 261.396 107.1L268.467 108.428C268.623 108.457 268.76 108.34 268.76 108.184V105.977C268.76 105.693 269.16 105.635 269.248 105.908L269.98 108.35C270.01 108.447 270.098 108.516 270.195 108.525L273.594 108.799C273.74 108.809 273.857 108.701 273.857 108.555C273.867 107.002 273.682 99.004 268.76 95.1661C263.291 90.8985 254.521 90.2735 250.381 91.836C246.26 93.3888 241.855 94.0528 238.125 99.6974C238.096 99.7364 238.086 99.7853 238.086 99.8341H238.096Z" fill="#200200"/>
            <path d="M248.525 118.799C250.359 118.799 251.846 117.312 251.846 115.479C251.846 113.645 250.359 112.158 248.525 112.158C246.692 112.158 245.205 113.645 245.205 115.479C245.205 117.312 246.692 118.799 248.525 118.799Z" fill="white"/>
            <path d="M245.205 115.479C245.205 113.662 246.699 112.158 248.525 112.158C250.352 112.158 251.846 113.652 251.846 115.479" fill="white"/>
            <path d="M251.846 115.664C251.748 115.664 251.66 115.586 251.66 115.479C251.66 113.75 250.254 112.344 248.525 112.344C246.797 112.344 245.391 113.75 245.391 115.479C245.391 115.576 245.313 115.664 245.205 115.664C245.098 115.664 245.02 115.586 245.02 115.479C245.02 113.545 246.592 111.973 248.525 111.973C250.459 111.973 252.031 113.545 252.031 115.479C252.031 115.576 251.953 115.664 251.846 115.664Z" fill="black"/>
            <path d="M251.025 116.162C251.025 117.158 250.215 117.959 249.219 117.959C248.223 117.959 247.422 117.148 247.422 116.152C247.422 115.156 248.232 114.355 249.229 114.355C250.225 114.355 251.025 115.166 251.025 116.162Z" fill="#1F0000"/>
            <path d="M245.439 114.033C245.029 114.033 244.209 113.789 243.984 112.881C243.955 112.764 244.023 112.656 244.141 112.627C244.258 112.598 244.365 112.666 244.395 112.783C244.59 113.594 245.4 113.613 245.439 113.613C245.557 113.613 245.654 113.711 245.645 113.828C245.645 113.945 245.547 114.033 245.43 114.033H245.439Z" fill="black"/>
            <path d="M244.482 114.814C244.258 114.814 244.014 114.756 243.76 114.619C243.662 114.56 243.623 114.433 243.682 114.336C243.74 114.238 243.867 114.199 243.965 114.258C244.697 114.668 245.254 114.082 245.283 114.053C245.361 113.965 245.498 113.965 245.586 114.043C245.674 114.121 245.674 114.258 245.596 114.346C245.4 114.551 244.99 114.824 244.482 114.824V114.814Z" fill="black"/>
            <path d="M264.111 118.799C265.945 118.799 267.432 117.312 267.432 115.479C267.432 113.645 265.945 112.158 264.111 112.158C262.278 112.158 260.791 113.645 260.791 115.479C260.791 117.312 262.278 118.799 264.111 118.799Z" fill="white"/>
            <path d="M267.432 115.479C267.432 113.662 265.938 112.158 264.111 112.158C262.285 112.158 260.791 113.652 260.791 115.479" fill="white"/>
            <path d="M267.432 115.664C267.334 115.664 267.246 115.586 267.246 115.479C267.246 113.75 265.84 112.344 264.111 112.344C262.383 112.344 260.977 113.75 260.977 115.479C260.977 115.576 260.898 115.664 260.791 115.664C260.684 115.664 260.605 115.586 260.605 115.479C260.605 113.545 262.178 111.973 264.111 111.973C266.045 111.973 267.617 113.545 267.617 115.479C267.617 115.576 267.539 115.664 267.432 115.664Z" fill="black"/>
            <path d="M262.764 116.162C262.764 117.158 263.574 117.959 264.57 117.959C265.566 117.959 266.367 117.148 266.367 116.152C266.367 115.156 265.557 114.355 264.561 114.355C263.564 114.355 262.764 115.166 262.764 116.162Z" fill="#1F0000"/>
            <path d="M267.197 114.033C267.08 114.033 266.982 113.935 266.982 113.828C266.982 113.711 267.07 113.613 267.187 113.613C267.227 113.613 268.037 113.594 268.232 112.783C268.262 112.666 268.369 112.598 268.486 112.627C268.603 112.656 268.672 112.764 268.643 112.881C268.428 113.789 267.598 114.033 267.187 114.033H267.197Z" fill="black"/>
            <path d="M268.154 114.814C267.647 114.814 267.236 114.541 267.041 114.336C266.963 114.248 266.963 114.121 267.051 114.033C267.139 113.945 267.266 113.955 267.354 114.033C267.373 114.062 267.949 114.638 268.672 114.238C268.77 114.18 268.906 114.219 268.955 114.316C269.014 114.414 268.975 114.551 268.877 114.599C268.623 114.736 268.379 114.795 268.154 114.795V114.814Z" fill="black"/>
            <path d="M255.84 129.687C254.062 129.687 252.646 128.711 252.627 128.691C252.539 128.633 252.52 128.506 252.578 128.418C252.637 128.33 252.764 128.31 252.852 128.369C252.969 128.457 255.84 130.42 258.437 128.369C258.525 128.301 258.643 128.32 258.711 128.398C258.779 128.486 258.76 128.603 258.682 128.672C257.734 129.424 256.738 129.668 255.84 129.668V129.687Z" fill="#1F0000"/>
            <path d="M239.893 122.197C239.824 122.197 239.756 122.158 239.717 122.1C237.422 117.881 235.029 118.965 235.01 118.975C234.912 119.023 234.795 118.975 234.746 118.887C234.697 118.789 234.746 118.672 234.834 118.623C234.941 118.574 237.588 117.363 240.059 121.914C240.107 122.012 240.078 122.129 239.98 122.178C239.951 122.197 239.922 122.197 239.883 122.197H239.893Z" fill="#1F0000"/>
            <path d="M239.141 120.996C239.082 120.996 239.014 120.967 238.975 120.908C238.955 120.879 238.408 120.117 236.777 120.518C236.67 120.537 236.562 120.479 236.543 120.371C236.523 120.264 236.582 120.156 236.689 120.137C238.604 119.668 239.277 120.654 239.307 120.693C239.365 120.781 239.346 120.908 239.248 120.967C239.219 120.986 239.18 120.996 239.141 120.996Z" fill="#1F0000"/>
            <path d="M271.396 122.08C271.396 122.08 271.328 122.08 271.299 122.061C271.201 122.012 271.172 121.894 271.221 121.797C273.691 117.246 276.338 118.457 276.445 118.506C276.543 118.555 276.582 118.672 276.533 118.769C276.484 118.867 276.367 118.906 276.27 118.867C276.172 118.818 273.848 117.783 271.562 121.992C271.523 122.061 271.455 122.09 271.387 122.09L271.396 122.08Z" fill="#1F0000"/>
            <path d="M272.148 120.869C272.148 120.869 272.07 120.859 272.041 120.84C271.953 120.781 271.924 120.664 271.982 120.567C272.012 120.527 272.686 119.541 274.6 120.01C274.707 120.039 274.766 120.137 274.746 120.244C274.727 120.352 274.619 120.41 274.512 120.391C272.891 119.99 272.344 120.752 272.314 120.781C272.275 120.84 272.217 120.869 272.148 120.869Z" fill="#1F0000"/>
            <path d="M253.34 137.021C253.34 137.021 253.301 137.021 253.291 137.021C245.342 134.697 243.75 130.381 243.691 130.195C243.662 130.097 243.711 130 243.799 129.961C243.896 129.922 243.994 129.98 244.033 130.068C244.053 130.107 245.645 134.394 253.389 136.66C253.486 136.689 253.545 136.787 253.516 136.884C253.496 136.963 253.418 137.011 253.34 137.011V137.021Z" fill="black"/>
            <path d="M255.635 118.477L254.473 123.32C254.424 123.525 254.561 123.721 254.805 123.789L255.928 124.102C256.104 124.15 256.299 124.141 256.465 124.082L258.047 123.516L255.635 122.471V118.477Z" fill="#CC846A"/>
            <path d="M257.891 123.564C257.891 123.564 257.842 123.564 257.813 123.555L255.566 122.666C255.488 122.637 255.43 122.559 255.439 122.471L255.596 118.477C255.596 118.369 255.693 118.281 255.811 118.281C255.918 118.281 256.006 118.379 256.006 118.496L255.859 122.344L257.969 123.174C258.076 123.213 258.125 123.33 258.086 123.437C258.057 123.516 257.979 123.564 257.9 123.564H257.891Z" fill="#1F0000"/>
            <path d="M243.076 147.432L224.648 152.812L229.395 205.771C229.395 205.771 221.465 239.199 220.313 257.178C219.522 269.473 221.582 326.865 221.582 326.865H248.818L243.086 147.432H243.076Z" fill="#E6E6E6"/>
            <path d="M230.918 261.65C230.674 261.65 230.439 261.543 230.264 261.357L227.891 258.74C227.666 258.486 227.598 258.125 227.725 257.812L238.555 231.24C238.652 231.015 238.828 230.83 239.063 230.752C239.287 230.664 239.551 230.683 239.766 230.791L242.793 232.304C243.203 232.509 243.389 233.008 243.213 233.427L231.719 261.103C231.602 261.386 231.357 261.582 231.055 261.631C231.006 261.631 230.957 261.64 230.908 261.64L230.918 261.65ZM238.926 231.386L228.096 257.959C228.027 258.134 228.057 258.34 228.184 258.486L230.557 261.103C230.674 261.23 230.84 261.289 231.016 261.259C231.182 261.23 231.328 261.123 231.396 260.957L242.891 233.281C242.988 233.037 242.891 232.763 242.656 232.646L239.629 231.132C239.502 231.074 239.365 231.064 239.229 231.113C239.092 231.162 238.994 231.259 238.945 231.396L238.926 231.386Z" fill="black"/>
            <path d="M246.572 224.561C246.348 224.561 246.152 224.414 246.084 224.2L230.576 172.666C230.527 172.5 230.566 172.315 230.674 172.188L235.781 166.241L228.086 161.133C227.959 161.055 227.881 160.918 227.861 160.772C227.842 160.625 227.891 160.479 227.988 160.362L239.756 147.53C239.951 147.325 240.273 147.305 240.478 147.5C240.684 147.696 240.703 148.018 240.508 148.223L229.15 160.616L236.836 165.713C236.963 165.791 237.041 165.928 237.061 166.065C237.08 166.211 237.041 166.358 236.943 166.465L231.641 172.637L247.061 223.907C247.139 224.18 246.992 224.463 246.719 224.541C246.67 224.561 246.621 224.561 246.572 224.561Z" fill="#B3B3B3"/>
            <path d="M265.996 146.416L285.313 151.172L278.975 204.766C278.975 204.766 288.33 232.285 289.688 249.941C290.664 262.559 288.32 325.859 288.32 325.859H262.686L265.986 146.426L265.996 146.416Z" fill="#E6E6E6"/>
            <path d="M264.561 224.561C264.561 224.561 264.463 224.561 264.424 224.541C264.15 224.463 263.994 224.18 264.072 223.907L278.652 172.637L273.35 166.465C273.252 166.358 273.213 166.211 273.232 166.065C273.252 165.918 273.33 165.791 273.457 165.713L281.143 160.616L269.785 148.223C269.59 148.018 269.609 147.696 269.814 147.5C270.02 147.305 270.342 147.325 270.537 147.53L282.305 160.362C282.402 160.469 282.451 160.625 282.432 160.772C282.412 160.918 282.334 161.055 282.207 161.133L274.512 166.241L279.619 172.188C279.727 172.315 279.766 172.5 279.727 172.657L265.068 224.19C265 224.414 264.795 224.561 264.58 224.561H264.561Z" fill="#B3B3B3"/>
            <path d="M284.834 260.635C284.834 260.635 284.805 260.635 284.785 260.635L281.26 260.439C280.928 260.42 280.625 260.205 280.498 259.902L269.492 233.398C269.394 233.174 269.404 232.92 269.502 232.695C269.6 232.471 269.795 232.305 270.029 232.226L273.252 231.172C273.691 231.025 274.17 231.25 274.346 231.68L285.664 259.424C285.781 259.707 285.742 260.019 285.566 260.263C285.4 260.498 285.137 260.635 284.853 260.635H284.834ZM273.516 231.504C273.467 231.504 273.408 231.504 273.359 231.533L270.137 232.588C270 232.637 269.893 232.724 269.834 232.851C269.775 232.978 269.775 233.125 269.834 233.252L280.84 259.756C280.908 259.931 281.084 260.049 281.269 260.058L284.795 260.254C284.971 260.263 285.127 260.185 285.225 260.049C285.322 259.912 285.342 259.726 285.283 259.57L273.965 231.826C273.887 231.631 273.701 231.513 273.506 231.513L273.516 231.504Z" fill="black"/>
            <path d="M264.717 170.361C264.717 170.361 264.639 170.361 264.6 170.352C264.336 170.293 264.18 170.029 264.238 169.766C268.701 151.123 263.447 146.426 263.389 146.387C263.184 146.211 263.154 145.908 263.33 145.703C263.496 145.498 263.799 145.469 264.004 145.635C264.248 145.83 269.814 150.635 265.176 169.99C265.127 170.215 264.922 170.361 264.707 170.361H264.717Z" fill="#1F0000"/>
            <path d="M269.082 171.944C268.848 174.444 266.641 176.27 264.141 176.045C261.641 175.811 259.814 173.604 260.039 171.104C260.264 168.604 262.48 166.777 264.98 167.002C267.48 167.227 269.307 169.443 269.082 171.944Z" fill="#1F0000"/>
            <path d="M267.07 171.758C266.943 173.145 265.713 174.16 264.326 174.033C262.939 173.906 261.924 172.676 262.051 171.289C262.178 169.902 263.408 168.887 264.795 169.014C266.182 169.141 267.197 170.371 267.07 171.758Z" fill="#D0DC00"/>
            <path d="M243.984 168.184C243.77 168.184 243.574 168.047 243.516 167.832C239.619 153.965 245.059 147.246 245.293 146.973C245.469 146.768 245.772 146.738 245.977 146.914C246.182 147.09 246.211 147.393 246.035 147.598C245.986 147.666 240.703 154.238 244.443 167.578C244.512 167.832 244.365 168.106 244.111 168.174C244.072 168.184 244.023 168.194 243.984 168.194V168.184Z" fill="#1F0000"/>
            <path d="M245.957 193.496C246.445 194.639 247.559 195.332 248.74 195.332C249.131 195.332 249.521 195.254 249.902 195.098L250.723 194.756C250.967 194.648 251.084 194.365 250.986 194.121C250.879 193.877 250.596 193.76 250.352 193.857L249.531 194.199C248.496 194.629 247.295 194.141 246.855 193.115C245.967 191.016 244.473 187.451 243.125 184.229C242.832 184.365 242.539 184.492 242.236 184.629C243.584 187.842 245.068 191.396 245.957 193.496Z" fill="#D0DC00"/>
            <path d="M261.377 187.031L257.627 178.066C257.324 178.184 257.022 178.311 256.729 178.428L260.479 187.412C260.693 187.92 260.693 188.477 260.479 188.984C260.273 189.492 259.883 189.883 259.375 190.098L258.018 190.664C257.773 190.771 257.656 191.055 257.754 191.299C257.861 191.543 258.145 191.66 258.389 191.563L259.746 190.996C261.279 190.352 262.012 188.584 261.367 187.051L261.377 187.031Z" fill="#D0DC00"/>
            <path d="M255.029 171.817C254.17 169.756 252.559 168.155 250.488 167.305C248.418 166.455 246.143 166.465 244.082 167.325C239.844 169.102 237.822 173.994 239.58 178.242C240.049 179.375 241.094 181.875 242.246 184.629C242.539 184.492 242.832 184.366 243.135 184.229C241.992 181.494 240.957 179.004 240.488 177.871C238.936 174.112 240.723 169.785 244.473 168.213C246.299 167.451 248.301 167.442 250.137 168.194C251.963 168.946 253.389 170.362 254.15 172.188L256.758 178.418C257.061 178.301 257.363 178.174 257.656 178.057L255.049 171.807L255.029 171.817Z" fill="#1F0000"/>
            <path d="M252.49 193.497C252.842 194.337 252.441 195.294 251.611 195.645C250.781 195.997 249.814 195.596 249.463 194.766C249.111 193.927 249.512 192.97 250.342 192.618C251.182 192.266 252.139 192.667 252.49 193.497Z" fill="#1F0000"/>
            <path d="M258.789 190.87C259.141 191.71 258.74 192.667 257.91 193.018C257.07 193.37 256.113 192.97 255.762 192.139C255.41 191.3 255.811 190.343 256.641 189.991C257.48 189.639 258.437 190.04 258.789 190.87Z" fill="#1F0000"/>
            <path d="M222.803 224.111C222.803 224.111 217.041 229.111 214.404 228.389C211.768 227.666 208.281 225.273 205.84 221.24C203.398 217.207 207.393 211.25 207.393 211.25L256.748 180.566L267.275 190.732L222.813 224.111H222.803Z" fill="#EAE9E8"/>
            <path d="M278.535 209.229L273.926 230.977L302.061 232.998L303.369 209.229H278.535Z" fill="#E6E6E6"/>
            <path d="M258.555 181.992L267.266 172.959L275.117 170.967L281.914 174.258L282.627 177.91L273.242 185.869L267.266 186.719L265.215 188.75L258.555 181.992Z" fill="#FFB085"/>
            <path d="M262.529 200.469L272.334 179.482L312.178 172.09L287.715 211.357L281.484 217.256L271.836 218.975L260.391 209.756L262.529 200.469Z" fill="#00A79D"/>
            <path d="M283.838 213.301L271.348 212.002C271.348 212.002 275.479 201.836 262.529 200.469L263.799 197.588L261.172 197.842C258.721 198.242 256.523 199.59 255.068 201.602L253.057 206.006C252.139 207.275 251.65 208.789 251.65 210.352V212.305C251.65 215.078 253.203 217.627 255.674 218.896L265.684 223.271C265.684 223.271 275.947 227.393 291.016 226.387C291.016 226.387 291.865 216.309 283.828 213.291L283.838 213.301Z" fill="#FFB085"/>
            <path d="M264.111 204.814C263.516 204.814 261.943 204.726 260.303 203.877C259.453 203.437 258.965 202.939 258.838 202.402C258.73 201.914 258.975 201.572 258.984 201.562C259.053 201.474 259.17 201.465 259.248 201.523C259.336 201.582 259.346 201.709 259.287 201.787C259.287 201.797 259.131 202.012 259.209 202.324C259.277 202.617 259.551 203.056 260.479 203.535C262.412 204.531 264.307 204.424 264.326 204.424C264.434 204.404 264.522 204.492 264.531 204.599C264.531 204.707 264.463 204.795 264.356 204.805C264.336 204.805 264.258 204.805 264.111 204.805V204.814Z" fill="black"/>
            <path d="M255.566 206.367C255.566 206.367 255.488 206.357 255.449 206.328C253.496 204.853 253.799 203.916 253.848 203.818C253.887 203.721 254.004 203.672 254.092 203.711C254.189 203.75 254.238 203.857 254.199 203.955C254.199 203.974 253.984 204.736 255.684 206.015C255.772 206.084 255.781 206.201 255.723 206.279C255.684 206.328 255.625 206.357 255.566 206.357V206.367Z" fill="black"/>
            <path d="M280.029 175.489C280.029 175.489 280.01 175.489 279.99 175.489L273.887 174.317C273.779 174.297 273.711 174.2 273.73 174.092C273.75 173.985 273.857 173.916 273.955 173.936L280.059 175.108C280.166 175.127 280.234 175.225 280.215 175.332C280.195 175.42 280.117 175.489 280.029 175.489Z" fill="black"/>
            <path d="M272.93 171.523L270.586 159.804C270.586 159.804 270.986 156.953 272.93 159.111L276.26 171.523L274.551 170.967L272.93 171.523Z" fill="#1F0000"/>
            <path d="M304.863 213.789H304.853L289.922 213.008C289.795 213.008 289.697 212.891 289.707 212.764C289.717 212.637 289.814 212.53 289.951 212.549L304.883 213.33C305.01 213.33 305.107 213.448 305.098 213.575C305.098 213.702 304.99 213.789 304.863 213.789Z" fill="#1F0000"/>
            <path d="M211.338 209.18C211.26 209.18 211.182 209.14 211.143 209.072C211.074 208.965 211.113 208.818 211.221 208.75L223.975 200.937C224.082 200.869 224.229 200.908 224.297 201.015C224.365 201.123 224.326 201.269 224.219 201.338L211.465 209.15C211.465 209.15 211.387 209.189 211.348 209.189L211.338 209.18Z" fill="#1F0000"/>
            <path d="M167.461 83.6818C162.295 83.2618 155.791 86.0157 154.238 90.4298C152.686 86.0157 144.756 83.3009 139.59 83.7208C125.957 84.8341 121.338 100.039 127.119 110.264C130.234 115.772 134.697 120.576 139.58 124.902C143.662 128.526 154.199 136.192 154.238 136.172C154.268 136.201 164.805 128.526 168.896 124.902C173.779 120.586 178.242 115.772 181.357 110.264C187.139 100.039 181.094 84.7853 167.461 83.6818Z" fill="#21409A"/>
            <path d="M178.477 107.236C174.902 107.324 171.338 107.422 167.764 107.51C166.475 102.822 165.176 98.1347 163.887 93.4472C163.701 92.7734 162.695 92.8222 162.48 93.4472C159.717 101.611 156.953 109.766 154.189 117.93C154.033 118.398 153.867 118.877 153.711 119.346C151.836 113.975 149.951 108.603 148.076 103.232C147.773 102.373 147.471 101.514 147.168 100.644C146.982 100.127 146.133 99.9218 145.84 100.478C144.473 103.086 143.105 105.693 141.738 108.31C137.744 108.31 133.75 108.31 129.756 108.31C128.818 108.31 128.818 109.687 129.756 109.687C133.906 109.687 138.047 109.687 142.197 109.687C142.441 109.687 142.715 109.56 142.822 109.346C143.994 107.109 145.166 104.873 146.338 102.637C148.262 108.144 150.195 113.662 152.119 119.17C152.422 120.029 152.725 120.889 153.027 121.758C153.252 122.402 154.209 122.412 154.434 121.758C157.197 113.594 159.961 105.439 162.725 97.2753C162.861 96.8847 162.988 96.4941 163.125 96.1034C164.258 100.205 165.381 104.297 166.514 108.398C166.592 108.682 166.904 108.906 167.217 108.906C170.977 108.809 174.727 108.711 178.486 108.623C179.424 108.603 179.424 107.226 178.486 107.246L178.477 107.236Z" fill="white"/>
            <path d="M370.068 398.262H314.639C310.313 398.262 306.807 401.768 306.807 406.094V442.744C306.807 447.07 310.313 450.576 314.639 450.576H370.068C374.394 450.576 377.9 447.07 377.9 442.744V406.094C377.9 401.768 374.394 398.262 370.068 398.262Z" fill="#21409A"/>
            <path d="M357.92 395.41V385.381C357.92 384.473 357.041 383.701 356.006 383.701H328.32C327.285 383.701 326.406 384.473 326.406 385.381V395.391C324.854 395.439 323.613 396.699 323.613 398.262H333.008C333.008 396.709 331.777 395.449 330.244 395.391V387.061H354.092V395.391H353.896C352.305 395.391 351.025 396.68 351.025 398.262H360.42C360.42 396.807 359.336 395.605 357.93 395.42L357.92 395.41Z" fill="#21409A"/>
            <path d="M358.828 419.15H346.201V406.533C346.201 406.064 345.801 405.664 345.332 405.664H338.154C337.686 405.664 337.285 406.064 337.285 406.533V419.15H324.658C324.189 419.15 323.789 419.551 323.789 420.02V427.188C323.789 427.451 323.887 427.656 324.033 427.793C324.17 427.949 324.375 428.057 324.648 428.057H337.275V440.674C337.275 441.143 337.676 441.543 338.145 441.543H345.322C345.586 441.543 345.791 441.445 345.928 441.299C346.084 441.162 346.191 440.957 346.191 440.684V428.066H358.818C359.287 428.066 359.688 427.666 359.688 427.197V420.029C359.688 419.561 359.287 419.16 358.818 419.16L358.828 419.15Z" fill="white"/>
            <path d="M39.043 163.115H41.0059C41.7676 163.115 42.3926 162.5 42.3926 161.729V159.307C42.3926 158.545 43.0078 157.92 43.7793 157.92H47.7051C48.4668 157.92 49.0918 158.535 49.0918 159.307V161.729C49.0918 162.49 49.707 163.115 50.4785 163.115H52.4414C53.2031 163.115 53.8281 163.73 53.8281 164.502V168.428C53.8281 169.189 53.2129 169.814 52.4414 169.814H50.4785C49.7168 169.814 49.0918 170.43 49.0918 171.201V173.389C49.0918 174.15 48.4766 174.775 47.7051 174.775H43.7793C43.0176 174.775 42.3926 174.16 42.3926 173.389V171.201C42.3926 170.439 41.7773 169.814 41.0059 169.814H39.043C38.2812 169.814 37.6562 169.199 37.6562 168.428V164.502C37.6562 163.74 38.2715 163.115 39.043 163.115Z" fill="#00B6AD"/>
            <path d="M303.193 64.6484H305.156C305.918 64.6484 306.543 64.0332 306.543 63.2617V60.8398C306.543 60.0781 307.158 59.4531 307.93 59.4531H311.855C312.617 59.4531 313.242 60.0684 313.242 60.8398V63.2617C313.242 64.0234 313.857 64.6484 314.629 64.6484H316.592C317.354 64.6484 317.979 65.2637 317.979 66.0352V69.9609C317.979 70.7227 317.363 71.3477 316.592 71.3477H314.629C313.867 71.3477 313.242 71.9629 313.242 72.7344V74.9219C313.242 75.6836 312.627 76.3086 311.855 76.3086H307.93C307.168 76.3086 306.543 75.6934 306.543 74.9219V72.7344C306.543 71.9727 305.928 71.3477 305.156 71.3477H303.193C302.432 71.3477 301.807 70.7324 301.807 69.9609V66.0352C301.807 65.2734 302.422 64.6484 303.193 64.6484Z" fill="#00B6AD"/>
            <path d="M160.791 376.973H162.754C163.516 376.973 164.141 376.357 164.141 375.586V373.164C164.141 372.402 164.756 371.777 165.527 371.777H169.453C170.215 371.777 170.84 372.393 170.84 373.164V375.586C170.84 376.348 171.455 376.973 172.227 376.973H174.189C174.951 376.973 175.576 377.588 175.576 378.359V382.285C175.576 383.047 174.961 383.672 174.189 383.672H172.227C171.465 383.672 170.84 384.287 170.84 385.059V387.246C170.84 388.008 170.225 388.633 169.453 388.633H165.527C164.766 388.633 164.141 388.018 164.141 387.246V385.059C164.141 384.297 163.525 383.672 162.754 383.672H160.791C160.029 383.672 159.404 383.057 159.404 382.285V378.359C159.404 377.598 160.02 376.973 160.791 376.973Z" fill="#00B6AD"/>
            <path d="M406.104 157.842H408.066C408.828 157.842 409.453 157.227 409.453 156.455V154.033C409.453 153.271 410.068 152.646 410.84 152.646H414.766C415.527 152.646 416.152 153.262 416.152 154.033V156.455C416.152 157.217 416.768 157.842 417.539 157.842H419.502C420.264 157.842 420.889 158.457 420.889 159.229V163.154C420.889 163.916 420.273 164.541 419.502 164.541H417.539C416.777 164.541 416.152 165.156 416.152 165.928V168.115C416.152 168.877 415.537 169.502 414.766 169.502H410.84C410.078 169.502 409.453 168.887 409.453 168.115V165.928C409.453 165.166 408.838 164.541 408.066 164.541H406.104C405.342 164.541 404.717 163.926 404.717 163.154V159.229C404.717 158.467 405.332 157.842 406.104 157.842Z" fill="#00B6AD"/>
            <path d="M425.752 183.506C428.481 183.506 430.693 181.294 430.693 178.564C430.693 175.835 428.481 173.623 425.752 173.623C423.023 173.623 420.811 175.835 420.811 178.564C420.811 181.294 423.023 183.506 425.752 183.506Z" fill="#B5EBF7"/>
            <path d="M429.531 287.109C429.443 287.109 429.355 287.06 429.307 286.972C429.238 286.845 429.287 286.699 429.414 286.63C429.531 286.562 441.621 280.009 445.85 270.214C445.908 270.087 446.055 270.029 446.182 270.078C446.309 270.136 446.367 270.283 446.318 270.41C442.021 280.371 429.785 287.011 429.658 287.07C429.619 287.089 429.58 287.099 429.541 287.099L429.531 287.109Z" fill="#D0DC00"/>
            <path d="M430.996 296.27C430.908 296.27 430.82 296.221 430.771 296.133C430.703 296.006 430.752 295.86 430.879 295.791C430.986 295.733 442.002 289.922 445.85 281.231C445.908 281.104 446.055 281.045 446.182 281.104C446.309 281.162 446.367 281.309 446.309 281.436C442.393 290.284 431.221 296.182 431.113 296.241C431.074 296.26 431.035 296.27 430.996 296.27Z" fill="#D0DC00"/>
            <path d="M431.123 305.185C431.025 305.185 430.938 305.127 430.889 305.039C430.83 304.912 430.889 304.756 431.016 304.707C431.133 304.658 442.441 299.453 446.768 290.996C446.836 290.869 446.982 290.82 447.109 290.888C447.236 290.957 447.285 291.103 447.217 291.23C442.813 299.853 431.338 305.127 431.221 305.175C431.191 305.195 431.152 305.195 431.113 305.195L431.123 305.185Z" fill="#D0DC00"/>
            <path d="M399.58 300.957V336.162C399.58 337.119 400.508 337.793 401.426 337.5C406.455 335.85 420.459 330.635 426.328 322.178C426.494 321.934 426.572 321.651 426.572 321.358L426.103 288.086C426.084 286.895 424.688 286.26 423.779 287.041C420.137 290.176 412.207 296.055 400.576 299.61C399.98 299.795 399.57 300.332 399.57 300.957H399.58Z" fill="#21409A"/>
            <path d="M420.428 303.761C420.807 299.799 418.599 296.346 415.496 296.049C412.393 295.752 409.569 298.723 409.19 302.685C408.811 306.647 411.019 310.1 414.122 310.397C417.225 310.695 420.048 307.723 420.428 303.761Z" fill="#E6E6E6"/>
            <path d="M412.754 310.029L404.521 336.406C404.521 336.406 418.096 331.836 424.365 324.58L417.773 309.121L412.754 310.029Z" fill="#E6E6E6"/>
            <path d="M438.535 237.022C438.311 237.022 438.105 236.875 438.047 236.641C432.549 216.025 411.895 211.738 411.689 211.699C411.416 211.641 411.23 211.377 411.289 211.104C411.348 210.83 411.611 210.645 411.885 210.703C412.1 210.742 433.379 215.166 439.033 236.377C439.102 236.65 438.945 236.924 438.672 237.002C438.623 237.012 438.584 237.022 438.545 237.022H438.535Z" fill="#00B6AD"/>
            <path d="M435.449 246.719C435.205 246.719 435 246.553 434.951 246.309C430.537 222.871 410.85 219.18 410.654 219.141C410.381 219.092 410.195 218.828 410.244 218.555C410.293 218.281 410.547 218.096 410.83 218.145C411.035 218.184 431.416 222.002 435.957 246.123C436.006 246.396 435.83 246.66 435.547 246.719C435.518 246.719 435.488 246.719 435.449 246.719Z" fill="#00B6AD"/>
            <path d="M359.688 188.447V236.777C359.688 236.777 380.361 239.678 395.166 249.492V199.385C395.166 199.385 382.705 189.775 359.688 188.447Z" fill="#00A79D"/>
            <path d="M377.432 217.354C380.873 217.354 383.662 213.344 383.662 208.398C383.662 203.453 380.873 199.443 377.432 199.443C373.991 199.443 371.201 203.453 371.201 208.398C371.201 213.344 373.991 217.354 377.432 217.354Z" fill="#CCCCCC"/>
            <path d="M373.252 216.055L365.479 237.871C365.479 237.871 379.678 241.406 388.897 245.879L380.664 216.055H373.262H373.252Z" fill="#CCCCCC"/>
            <path d="M352.871 192.578C352.822 192.578 352.773 192.578 352.715 192.558C333.545 186.543 309.785 188.222 309.551 188.232C309.258 188.252 309.024 188.047 309.004 187.763C308.984 187.48 309.189 187.236 309.473 187.217C309.717 187.197 333.652 185.508 353.018 191.582C353.281 191.67 353.438 191.953 353.35 192.217C353.281 192.431 353.076 192.578 352.861 192.578H352.871Z" fill="#00A79D"/>
            <path d="M352.871 198.135C352.822 198.135 352.773 198.135 352.715 198.115C333.545 192.099 309.785 193.779 309.551 193.789C309.258 193.808 309.024 193.603 309.004 193.32C308.984 193.037 309.189 192.793 309.473 192.773C309.717 192.754 333.652 191.064 353.018 197.138C353.281 197.226 353.438 197.51 353.35 197.773C353.281 197.988 353.076 198.135 352.861 198.135H352.871Z" fill="#00A79D"/>
            <path d="M352.871 203.926C352.822 203.926 352.773 203.926 352.715 203.906C333.545 197.89 309.785 199.57 309.551 199.58C309.258 199.599 309.024 199.394 309.004 199.111C308.984 198.828 309.189 198.584 309.473 198.564C309.717 198.545 333.652 196.855 353.018 202.929C353.281 203.017 353.438 203.301 353.35 203.564C353.281 203.779 353.076 203.926 352.861 203.926H352.871Z" fill="#00A79D"/>
            <path d="M310.049 208.897C313.731 208.545 335.801 206.778 352.481 212.647C352.715 212.735 352.871 212.959 352.871 213.203V230.049C352.871 230.459 352.471 230.742 352.09 230.606C348.272 229.248 330.947 223.672 310.186 226.465C309.834 226.514 309.512 226.24 309.512 225.889V209.492C309.512 209.19 309.736 208.936 310.039 208.906L310.049 208.897Z" fill="#00A79D"/>
            <path d="M148.213 193.818V242.148C148.213 242.148 127.539 245.049 112.734 254.863V204.756C112.734 204.756 125.195 195.146 148.213 193.818Z" fill="#00A79D"/>
            <path d="M130.479 222.715C133.92 222.715 136.709 218.706 136.709 213.76C136.709 208.814 133.92 204.805 130.479 204.805C127.038 204.805 124.248 208.814 124.248 213.76C124.248 218.706 127.038 222.715 130.479 222.715Z" fill="#CCCCCC"/>
            <path d="M134.648 221.426L142.422 243.242C142.422 243.242 128.223 246.777 119.004 251.25L127.236 221.426H134.639H134.648Z" fill="#CCCCCC"/>
            <path d="M155.039 197.949C154.824 197.949 154.619 197.812 154.551 197.588C154.463 197.324 154.619 197.031 154.883 196.953C174.248 190.879 198.184 192.568 198.428 192.588C198.711 192.607 198.916 192.851 198.896 193.135C198.877 193.418 198.633 193.633 198.35 193.603C198.115 193.584 174.355 191.914 155.186 197.929C155.137 197.949 155.088 197.949 155.029 197.949H155.039Z" fill="#00A79D"/>
            <path d="M155.039 203.506C154.824 203.506 154.619 203.369 154.551 203.144C154.463 202.881 154.619 202.588 154.883 202.51C174.248 196.435 198.184 198.125 198.428 198.144C198.711 198.164 198.916 198.408 198.896 198.691C198.877 198.974 198.633 199.179 198.35 199.16C198.115 199.14 174.355 197.47 155.186 203.486C155.137 203.506 155.088 203.506 155.029 203.506H155.039Z" fill="#00A79D"/>
            <path d="M155.039 209.297C154.824 209.297 154.619 209.16 154.551 208.935C154.463 208.672 154.619 208.379 154.883 208.301C174.248 202.226 198.184 203.916 198.428 203.935C198.711 203.955 198.916 204.199 198.896 204.482C198.877 204.765 198.633 204.97 198.35 204.951C198.115 204.931 174.355 203.261 155.186 209.277C155.137 209.297 155.088 209.297 155.029 209.297H155.039Z" fill="#00A79D"/>
            <path d="M197.861 214.258C194.18 213.906 172.109 212.139 155.43 218.008C155.195 218.096 155.039 218.32 155.039 218.565V235.41C155.039 235.82 155.439 236.104 155.82 235.967C159.639 234.61 176.963 229.033 197.725 231.826C198.076 231.875 198.398 231.602 198.398 231.25V214.854C198.398 214.551 198.174 214.297 197.871 214.268L197.861 214.258Z" fill="#00A79D"/>
            <path d="M71.6895 299.121V321.006C71.6895 321.006 75.7715 326.143 81.5527 329.756V351.064C81.5527 351.064 85.4492 358.252 95.166 360.928V336.514C95.166 336.514 101.973 341.553 110.82 345.859V317.344C110.82 317.344 101.67 314.258 96.875 311.299L96.7969 295.938C96.7969 295.938 90.5664 292.393 83.3398 285.205V306.377L71.6992 299.121H71.6895Z" fill="#21409A"/>
        </g>
    </g>
    <defs>
        <clipPath id="clip0_1381_70708">
            <rect width="500" height="500" fill="white"/>
        </clipPath>
    </defs>
</svg>
