<svg width="195" height="175" viewBox="0 0 195 175" fill="none" xmlns="http://www.w3.org/2000/svg">
<path d="M71.2558 174.767C109.076 174.767 139.734 144.109 139.734 106.289C139.734 68.4689 109.076 37.8105 71.2558 37.8105C33.4357 37.8105 2.77734 68.4689 2.77734 106.289C2.77734 144.109 33.4357 174.767 71.2558 174.767Z" fill="#E9EAF1"/>
<path d="M116.116 106.551C145.35 106.551 169.049 82.8534 169.049 53.6198C169.049 24.3862 145.352 0.688965 116.116 0.688965C86.8798 0.688965 63.1826 24.3862 63.1826 53.6198C63.1826 82.8534 86.8798 106.551 116.116 106.551Z" fill="#E9EAF1"/>
<path d="M144.291 147.657C170.126 147.657 191.07 126.713 191.07 100.877C191.07 75.0414 170.126 54.0972 144.291 54.0972C118.455 54.0972 97.5107 75.0414 97.5107 100.877C97.5107 126.713 118.455 147.657 144.291 147.657Z" fill="#E9EAF1"/>
<path d="M102.849 145.321C153.182 145.321 193.986 143.06 193.986 140.272C193.986 137.484 153.182 135.223 102.849 135.223C52.5153 135.223 11.7119 137.484 11.7119 140.272C11.7119 143.06 52.5153 145.321 102.849 145.321Z" fill="#D1D2D3"/>
<path d="M69.4826 141.32C97.7884 141.32 120.735 117.375 120.735 87.836C120.735 58.2974 97.7884 34.3516 69.4826 34.3516C41.1768 34.3516 18.2305 58.2974 18.2305 87.836C18.2305 117.375 41.1768 141.32 69.4826 141.32Z" fill="#078D84"/>
<path d="M61.1524 141.32C90.6911 141.32 114.637 117.375 114.637 87.836C114.637 58.2974 90.6911 34.3516 61.1524 34.3516C31.6138 34.3516 7.66797 58.2974 7.66797 87.836C7.66797 117.375 31.6138 141.32 61.1524 141.32Z" fill="#06A59D"/>
<path d="M77.2 138.87C70.1526 141.597 62.2874 142.321 54.8564 140.952C62.3763 141.341 69.8859 140.658 77.2 138.87Z" fill="#221F1F"/>
<path d="M81.9697 38.5522C95.4932 43.7839 106.454 55.136 111.417 68.7458C113.083 73.2689 114.099 78.0332 114.406 82.8382C112.245 63.6361 99.6023 46.4352 81.9697 38.5522Z" fill="#221F1F"/>
<path d="M94.0076 64.6262C93.1187 63.7983 91.9606 63.3641 90.7467 63.4072C89.5328 63.4504 88.4077 63.9634 87.5798 64.8523L53.3761 101.565L34.1969 86.6219C33.2395 85.8753 32.0458 85.5451 30.8421 85.695C29.6357 85.8448 28.5615 86.4543 27.8148 87.4143C27.0682 88.3717 26.738 89.5654 26.8879 90.7691C27.0377 91.9755 27.6472 93.0497 28.6072 93.7964L51.0727 111.299C51.8803 111.927 52.8454 112.259 53.8663 112.259C55.1259 112.259 56.3399 111.731 57.1957 110.812L94.2387 71.0515C95.9478 69.2153 95.8463 66.3329 94.0101 64.6237L94.0076 64.6262Z" fill="white"/>
<path d="M161.359 139.65C179.56 136.175 191.375 117.96 187.748 98.9674C184.122 79.9744 166.427 67.3947 148.226 70.87C130.025 74.3453 118.21 92.5595 121.837 111.553C125.464 130.546 143.158 143.125 161.359 139.65Z" fill="#078D84"/>
<path d="M149.425 141.313C168.761 141.313 184.437 125.638 184.437 106.302C184.437 86.9656 168.761 71.2905 149.425 71.2905C130.089 71.2905 114.414 86.9656 114.414 106.302C114.414 125.638 130.089 141.313 149.425 141.313Z" fill="#06A59D"/>
<path d="M184.258 109.941C183.616 120.976 176.891 131.314 167.276 136.693C165.79 137.501 164.256 138.204 162.679 138.811C161.879 139.081 161.079 139.34 160.279 139.591C163.431 138.42 166.41 136.843 169.13 134.913C177.32 129.097 182.872 119.896 184.258 109.938V109.941Z" fill="#221F1F"/>
<path d="M121.456 127.376C117.845 123.414 115.546 118.202 115.033 112.867C115.706 115.091 116.44 117.301 117.337 119.442C118.487 122.202 119.907 124.813 121.456 127.378V127.376Z" fill="#221F1F"/>
<path d="M169.021 89.205C168.843 88.4304 168.376 87.7701 167.703 87.346C167.03 86.9219 166.232 86.7873 165.455 86.9625C164.681 87.1377 164.02 87.6076 163.596 88.2806L146.108 116.084L131.942 108.831C131.234 108.468 130.429 108.405 129.672 108.648C128.915 108.892 128.298 109.418 127.935 110.124C127.572 110.832 127.508 111.637 127.752 112.397C127.996 113.154 128.522 113.771 129.23 114.134L145.824 122.632C146.248 122.85 146.708 122.959 147.175 122.959C147.363 122.959 147.551 122.941 147.739 122.906C148.549 122.751 149.265 122.263 149.702 121.565L168.642 91.4525C169.067 90.7795 169.201 89.9821 169.026 89.205H169.021Z" fill="white"/>
<path d="M127.3 36.467H128.115C128.435 36.467 128.689 36.2029 128.689 35.893V34.8899C128.689 34.5699 128.953 34.3159 129.263 34.3159H130.896C131.216 34.3159 131.47 34.58 131.47 34.8899V35.893C131.47 36.213 131.734 36.467 132.044 36.467H132.859C133.179 36.467 133.433 36.7311 133.433 37.0409V38.6739C133.433 38.9939 133.169 39.2479 132.859 39.2479H132.044C131.724 39.2479 131.47 39.512 131.47 39.8218V40.7386C131.47 41.0586 131.206 41.3126 130.896 41.3126H129.263C128.943 41.3126 128.689 41.0485 128.689 40.7386V39.8218C128.689 39.5018 128.425 39.2479 128.115 39.2479H127.3C126.98 39.2479 126.726 38.9837 126.726 38.6739V37.0409C126.716 36.7311 126.98 36.467 127.3 36.467Z" fill="#00B2A9"/>
<path d="M183.99 78.0917H184.328C184.46 78.0917 184.566 77.9825 184.566 77.853V77.4365C184.566 77.3044 184.676 77.1978 184.805 77.1978H185.481C185.613 77.1978 185.719 77.307 185.719 77.4365V77.853C185.719 77.985 185.829 78.0917 185.958 78.0917H186.296C186.428 78.0917 186.535 78.2009 186.535 78.3304V79.006C186.535 79.138 186.425 79.2447 186.296 79.2447H185.958C185.826 79.2447 185.719 79.3539 185.719 79.4834V79.8618C185.719 79.9939 185.61 80.1005 185.481 80.1005H184.805C184.673 80.1005 184.566 79.9913 184.566 79.8618V79.4834C184.566 79.3514 184.457 79.2447 184.328 79.2447H183.99C183.858 79.2447 183.751 79.1355 183.751 79.006V78.3304C183.746 78.2034 183.855 78.0917 183.99 78.0917Z" fill="#00B2A9"/>
<path d="M1.79936 122.39H3.20123C3.74979 122.39 4.1866 121.936 4.1866 121.405V119.681C4.1866 119.132 4.64119 118.695 5.17198 118.695H7.97572C8.52428 118.695 8.96109 119.15 8.96109 119.681V121.405C8.96109 121.954 9.41569 122.39 9.94647 122.39H11.3483C11.8969 122.39 12.3337 122.845 12.3337 123.376V126.18C12.3337 126.728 11.8791 127.165 11.3483 127.165H9.94647C9.39791 127.165 8.96109 127.62 8.96109 128.15V129.722C8.96109 130.271 8.5065 130.708 7.97572 130.708H5.17198C4.62342 130.708 4.1866 130.253 4.1866 129.722V128.15C4.1866 127.602 3.73201 127.165 3.20123 127.165H1.79936C1.2508 127.165 0.813981 126.71 0.813981 126.18V123.376C0.796204 122.845 1.2508 122.39 1.79936 122.39Z" fill="#00B2A9"/>
</svg>
