<svg width="90" height="90" viewBox="0 0 90 90" fill="none" xmlns="http://www.w3.org/2000/svg">
<path d="M84.9224 36.5785H26.2011C24.8031 36.5785 23.6698 37.7118 23.6698 39.1097V53.1981H5.98871C4.59072 53.1981 3.45746 54.3313 3.45746 55.7293V84.832C3.45746 86.23 4.59072 87.3633 5.98871 87.3633H84.9226C86.3206 87.3633 87.4538 86.23 87.4538 84.832V39.1097C87.4537 37.7118 86.3202 36.5785 84.9224 36.5785Z" fill="#A6B3D7"/>
<path d="M87.6686 33.2219H37.7404C37.4048 33.2219 37.0829 33.3553 36.8455 33.5926C36.6082 33.83 36.4748 34.1519 36.4748 34.4875V37.4741C36.4748 37.8706 36.6323 38.2508 36.9127 38.5312C37.1931 38.8116 37.5733 38.9691 37.9698 38.9691H87.4394C87.8359 38.9691 88.2162 38.8116 88.4966 38.5312C88.7769 38.2508 88.9344 37.8706 88.9344 37.4741V34.4875C88.9344 34.1519 88.801 33.83 88.5636 33.5926C88.3263 33.3553 88.0043 33.2219 87.6686 33.2219ZM3.24231 49.2068H53.1707C53.5064 49.2068 53.8283 49.3401 54.0656 49.5775C54.303 49.8148 54.4363 50.1367 54.4363 50.4724V53.4589C54.4363 53.8554 54.2788 54.2357 53.9984 54.5161C53.7181 54.7964 53.3378 54.9539 52.9413 54.9539H3.4717C3.0752 54.9539 2.69494 54.7964 2.41457 54.5161C2.1342 54.2357 1.97668 53.8554 1.97668 53.4589V50.4724C1.97668 50.1367 2.11003 49.8148 2.34738 49.5775C2.58473 49.3401 2.90664 49.2068 3.24231 49.2068Z" fill="#21409A"/>
<path d="M55.6197 5.27393H10.3182C9.58662 5.27393 8.99353 5.976 8.99353 6.84189V85.7953C8.99353 86.6612 9.58662 87.3632 10.3182 87.3632H55.6197C56.3513 87.3632 56.9444 86.6612 56.9444 85.7953V6.84189C56.9444 5.976 56.3513 5.27393 55.6197 5.27393Z" fill="#E9ECF5"/>
<path d="M41.294 19.9578H35.4687V14.1324C35.4687 13.7968 35.3353 13.4749 35.098 13.2375C34.8606 13.0002 34.5387 12.8668 34.203 12.8668H31.7351C31.3994 12.8668 31.0775 13.0002 30.8401 13.2375C30.6028 13.4749 30.4694 13.7968 30.4694 14.1324V19.9578H24.644C24.3084 19.9578 23.9865 20.0912 23.7491 20.3285C23.5118 20.5659 23.3784 20.8878 23.3784 21.2235V23.6914C23.3784 24.0271 23.5118 24.349 23.7491 24.5864C23.9865 24.8237 24.3084 24.9571 24.644 24.9571H30.4694V30.7824C30.4694 31.1181 30.6028 31.44 30.8401 31.6774C31.0775 31.9147 31.3994 32.0481 31.7351 32.0481H34.203C34.5387 32.0481 34.8606 31.9147 35.098 31.6774C35.3353 31.44 35.4687 31.1181 35.4687 30.7824V24.9571H41.294C41.6297 24.9571 41.9516 24.8237 42.189 24.5864C42.4263 24.349 42.5597 24.0271 42.5597 23.6914V21.2235C42.5597 20.8878 42.4263 20.5659 42.189 20.3285C41.9516 20.0912 41.6297 19.9578 41.294 19.9578Z" fill="#FF473E"/>
<path d="M81.5438 64.752H62.95C62.6143 64.752 62.2924 64.6187 62.055 64.3813C61.8177 64.144 61.6843 63.8221 61.6843 63.4864V56.0282C61.6843 55.6925 61.8177 55.3706 62.055 55.1332C62.2924 54.8959 62.6143 54.7625 62.95 54.7625H81.5439C81.8796 54.7625 82.2015 54.8959 82.4389 55.1332C82.6762 55.3706 82.8096 55.6925 82.8096 56.0282V63.4864C82.8095 63.8221 82.6761 64.144 82.4388 64.3813C82.2014 64.6187 81.8794 64.752 81.5438 64.752ZM83.0272 79.1604V71.7022C83.0272 71.3666 82.8938 71.0446 82.6565 70.8073C82.4191 70.5699 82.0972 70.4366 81.7615 70.4366H62.7322C62.3965 70.4366 62.0746 70.5699 61.8372 70.8073C61.5999 71.0446 61.4666 71.3666 61.4666 71.7022V79.1604C61.4666 79.4961 61.5999 79.818 61.8372 80.0554C62.0746 80.2927 62.3965 80.4261 62.7322 80.4261H81.7615C82.0972 80.4261 82.4191 80.2927 82.6565 80.0554C82.8938 79.818 83.0272 79.4961 83.0272 79.1604ZM83.0272 47.3142V44.8506C83.0272 44.5149 82.8938 44.193 82.6565 43.9557C82.4191 43.7183 82.0972 43.585 81.7615 43.585H62.7322C62.3965 43.585 62.0746 43.7183 61.8372 43.9557C61.5999 44.193 61.4666 44.5149 61.4666 44.8506V47.3142C61.4666 47.6498 61.5999 47.9717 61.8372 48.2091C62.0746 48.4464 62.3965 48.5798 62.7322 48.5798H81.7615C82.0972 48.5798 82.4191 48.4464 82.6565 48.2091C82.8938 47.9717 83.0272 47.6498 83.0272 47.3142Z" fill="#E9ECF5"/>
<path d="M17.7263 74.0225H48.2115V87.3632H17.7263V74.0225Z" fill="#64748B"/>
<path d="M36.1475 64.752H29.8703C29.5347 64.752 29.2128 64.6187 28.9754 64.3813C28.7381 64.144 28.6047 63.8221 28.6047 63.4864V55.6003C28.6047 55.2647 28.7381 54.9427 28.9754 54.7054C29.2128 54.468 29.5347 54.3347 29.8703 54.3347H36.1475C36.4832 54.3347 36.8051 54.468 37.0424 54.7054C37.2798 54.9427 37.4131 55.2647 37.4131 55.6003V63.4864C37.4131 63.8221 37.2798 64.144 37.0424 64.3813C36.8051 64.6187 36.4832 64.752 36.1475 64.752ZM51.1172 63.4864V55.6003C51.1172 55.2647 50.9839 54.9427 50.7465 54.7054C50.5092 54.468 50.1872 54.3347 49.8516 54.3347H43.5744C43.2388 54.3347 42.9168 54.468 42.6795 54.7054C42.4421 54.9427 42.3088 55.2647 42.3088 55.6003V63.4864C42.3088 63.8221 42.4421 64.144 42.6795 64.3813C42.9168 64.6187 43.2388 64.752 43.5744 64.752H49.8516C50.1872 64.752 50.5092 64.6187 50.7465 64.3813C50.9839 64.144 51.1172 63.8221 51.1172 63.4864ZM23.7092 63.4864V55.6003C23.7092 55.2647 23.5759 54.9427 23.3385 54.7054C23.1012 54.468 22.7793 54.3347 22.4436 54.3347H16.1664C15.8308 54.3347 15.5089 54.468 15.2715 54.7054C15.0342 54.9427 14.9008 55.2647 14.9008 55.6003V63.4864C14.9008 63.8221 15.0342 64.144 15.2715 64.3813C15.5089 64.6187 15.8308 64.752 16.1664 64.752H22.4436C22.7793 64.752 23.1012 64.6187 23.3385 64.3813C23.5759 64.144 23.7092 63.8221 23.7092 63.4864ZM20.2333 47.3142V39.4281C20.2333 39.2619 20.2006 39.0973 20.137 38.9438C20.0734 38.7902 19.9801 38.6507 19.8626 38.5332C19.7451 38.4156 19.6056 38.3224 19.452 38.2588C19.2985 38.1952 19.1339 38.1625 18.9677 38.1625H16.1664C16.0002 38.1625 15.8357 38.1952 15.6821 38.2588C15.5286 38.3224 15.389 38.4156 15.2715 38.5332C15.154 38.6507 15.0608 38.7902 14.9972 38.9438C14.9336 39.0973 14.9008 39.2619 14.9008 39.4281V47.3142C14.9008 47.4804 14.9336 47.645 14.9972 47.7985C15.0608 47.9521 15.154 48.0916 15.2715 48.2091C15.389 48.3266 15.5286 48.4199 15.6821 48.4835C15.8357 48.5471 16.0002 48.5798 16.1664 48.5798H18.9677C19.3034 48.5798 19.6253 48.4465 19.8626 48.2091C20.1 47.9718 20.2333 47.6498 20.2333 47.3142ZM30.5279 47.3142V39.4281C30.5279 39.0924 30.3946 38.7705 30.1573 38.5332C29.9199 38.2958 29.598 38.1625 29.2623 38.1625H26.4611C26.1254 38.1625 25.8035 38.2958 25.5661 38.5332C25.3288 38.7705 25.1954 39.0924 25.1954 39.4281V47.3142C25.1954 47.6498 25.3288 47.9718 25.5661 48.2091C25.8035 48.4465 26.1254 48.5798 26.4611 48.5798H29.2623C29.598 48.5798 29.9199 48.4465 30.1573 48.2091C30.3946 47.9718 30.5279 47.6498 30.5279 47.3142ZM40.8226 47.3142V39.4281C40.8226 39.0924 40.6892 38.7705 40.4519 38.5332C40.2145 38.2958 39.8926 38.1625 39.557 38.1625H36.7557C36.42 38.1625 36.0981 38.2958 35.8608 38.5332C35.6234 38.7705 35.4901 39.0924 35.4901 39.4281V47.3142C35.4901 47.6498 35.6234 47.9718 35.8608 48.2091C36.0981 48.4465 36.42 48.5798 36.7557 48.5798H39.557C39.8926 48.5798 40.2145 48.4465 40.4519 48.2091C40.6892 47.9718 40.8226 47.6498 40.8226 47.3142ZM51.1172 47.3142V39.4281C51.1172 39.0924 50.9839 38.7705 50.7465 38.5332C50.5092 38.2958 50.1872 38.1625 49.8516 38.1625H47.0503C46.7147 38.1625 46.3928 38.2958 46.1554 38.5332C45.9181 38.7705 45.7847 39.0924 45.7847 39.4281V47.3142C45.7847 47.6498 45.9181 47.9718 46.1554 48.2091C46.3928 48.4465 46.7147 48.5798 47.0503 48.5798H49.8516C50.1872 48.5798 50.5092 48.4465 50.7465 48.2091C50.9839 47.9718 51.1172 47.6498 51.1172 47.3142Z" fill="#A6B3D7"/>
<path d="M48.2115 75.4312H17.7263V73.9863C17.7263 73.0297 18.5019 72.2542 19.4585 72.2542H46.4792C47.4358 72.2542 48.2114 73.0297 48.2114 73.9863L48.2115 75.4312Z" fill="#475569"/>
<path d="M57.9732 3.52649H8.0448C7.70913 3.52649 7.38722 3.65983 7.14987 3.89718C6.91252 4.13453 6.77917 4.45645 6.77917 4.79211V7.77864C6.77917 8.17514 6.93668 8.55541 7.21706 8.83578C7.49743 9.11615 7.87769 9.27366 8.27419 9.27366H57.7438C58.1403 9.27366 58.5205 9.11615 58.8009 8.83578C59.0813 8.55541 59.2388 8.17514 59.2388 7.77864V4.79211C59.2388 4.45645 59.1055 4.13453 58.8681 3.89718C58.6308 3.65983 58.3088 3.52649 57.9732 3.52649Z" fill="#21409A"/>
</svg>
