<svg width="340" height="202" viewBox="0 0 340 202" fill="none" xmlns="http://www.w3.org/2000/svg">
<g clip-path="url(#clip0_9267_105212)">
<g clip-path="url(#clip1_9267_105212)">
<rect width="340" height="202" rx="8" fill="#F2FAFF"/>
<g clip-path="url(#clip2_9267_105212)">
<path d="M348.731 -5.6084H-8.74219V207.609H348.731V-5.6084Z" fill="url(#paint0_linear_9267_105212)"/>
<path d="M-8.74278 187.774C-7.4817 191.192 -6.13656 194.86 -4.6653 198.331C-3.35352 201.677 -1.52132 204.822 0.771336 207.661M-8.74278 174.63C-6.05248 177.546 -4.03476 183.498 -1.87692 189.727C0.393012 196.259 2.8451 203.187 6.53025 207.608M-8.74278 170.816C-3.69848 168.771 -0.727944 174.775 1.94834 182.693C4.84881 191.231 7.55312 201.643 12.2471 207.582M-8.74278 172.875C-7.36344 171.011 -5.5337 169.482 -3.40423 168.414C1.80822 165.92 4.8348 172.611 7.59516 181.255C10.4816 190.281 13.1999 201.366 18.006 207.648M-8.74278 181.624C-6.1926 174.934 -3.138 168.428 2.34067 165.867C7.56713 164.033 10.5517 171.146 13.312 180.239C16.1985 189.766 18.9168 201.208 23.7509 207.608M-8.74278 193.989C-6.1926 189.516 -4.37105 183.115 -2.05908 177.256C0.350976 171.173 3.27947 165.736 8.05755 164.06C13.284 162.37 16.2826 170.038 19.0709 179.592C21.8733 189.371 24.6757 201.142 29.4818 207.648M-8.74278 198.542C-3.62842 196.932 -1.09225 189.146 1.6681 181.07C4.42845 172.994 7.56713 164.376 13.8165 162.384C19.0429 161.196 21.9854 169.114 24.7878 179.104C27.5902 189.093 30.3926 201.05 35.2267 207.608M-8.74278 195.811C-7.34158 197.486 -5.77225 198.45 -3.95069 198.133C1.65409 197.223 4.35839 189.093 7.1748 180.608C10.0753 171.819 13.1019 162.727 19.6174 161.262C24.8299 160.457 27.7864 168.771 30.5888 178.853C33.3912 188.935 36.1935 201.076 40.9996 207.608M46.7025 207.569C41.8684 201.089 39.094 189.212 36.2636 178.919C33.4332 168.626 30.5187 159.995 25.2922 160.536C18.8187 161.579 15.7361 170.75 12.8917 179.486C10.0472 188.222 7.37096 196.721 1.76618 197.46C-0.475729 197.83 -2.38135 196.14 -4.09081 193.501C-5.95758 190.282 -7.51446 186.913 -8.74278 183.432C19.5053 108.528 119.747 81.0003 152.395 75.7612C221.838 64.6497 71.0273 173.324 191.418 159.23C255.116 151.76 233.566 52.6145 295.513 54.1057C331.664 54.9371 332.406 113.952 348.758 111.577M-8.74278 167.227C-6.09452 172.624 -3.76854 180.107 -1.37249 186.177C1.16367 192.591 3.88199 197.539 7.5251 197.051C13.1299 196.325 15.8202 187.668 18.6506 178.813C21.481 169.958 24.5776 160.84 31.0512 160.18C36.2636 160.18 39.1921 168.85 42.0225 179.209C44.8529 189.569 47.6273 201.234 52.4614 207.608M-8.74278 157.395C-4.20291 159.362 -0.952134 169.008 2.06044 178.153C5.33923 188.117 8.44989 197.236 13.27 196.629C18.8748 196.035 21.537 187.167 24.3955 178.325C27.2539 169.483 30.3646 160.43 36.7961 160.404C42.0225 160.628 44.965 169.431 47.8095 179.697C50.6539 189.964 53.4142 201.393 58.2063 207.608M-8.74278 155.508C-8.51859 155.337 -8.30841 155.205 -8.05619 155.033C-1.44255 150.625 2.66295 160.576 6.23599 172.017C10.0192 184.132 13.3961 197.091 19.0009 196.431C24.6057 195.771 27.2399 187.114 30.1264 178.272C33.0128 169.431 36.0534 160.919 42.5269 161.196C47.7394 161.737 50.6399 170.433 53.4983 180.555C56.3007 190.439 59.1031 201.67 63.9372 207.608M-8.74278 158.359C-7.16399 155.6 -4.96419 153.199 -2.29728 151.325C4.31636 147.366 8.40785 158.451 11.9669 170.46C15.7641 183.34 19.141 196.721 24.7598 196.206C30.3786 195.692 33.0128 186.969 35.8713 178.312C38.7297 169.655 41.8123 161.275 48.2859 161.935C53.4983 162.806 56.3988 171.384 59.2572 181.268C62.0596 190.941 64.862 201.762 69.6541 207.569M-8.74278 167.596C-5.66015 159.678 -2.73165 151.84 3.41959 147.986C10.0332 144.753 14.0967 156.709 17.7118 169.563C21.453 182.759 24.8579 196.602 30.4767 196.167C36.0955 195.731 38.7017 187.14 41.5882 178.602C44.4746 170.064 47.5292 162.093 54.0027 163.123C59.2152 164.112 62.1016 172.585 64.9741 182.231C67.7765 191.574 70.5789 202.026 75.413 207.621M-8.74278 177.23C-5.47799 171.951 -3.33417 165.353 -0.910099 159.322C1.59804 153.014 4.41444 147.669 9.17851 145.347C15.7781 142.707 19.8416 155.429 23.4707 168.797C27.2119 182.561 30.6168 196.51 36.2356 196.193C41.8544 195.876 44.4606 187.417 47.3471 179.038C50.2335 170.658 53.2881 163.123 59.7476 164.35C64.9741 165.551 67.8606 173.759 70.733 183.129C73.5354 192.168 76.3378 202.211 81.1719 207.569M-8.74278 181.519C-2.80171 177.19 0.140798 169.035 3.05528 161.183C5.96977 153.331 8.99635 145.624 14.8954 143.235C21.509 141.163 25.5445 154.703 29.1876 168.454C32.9007 182.469 36.3337 196.536 41.9525 196.299C47.5713 196.061 50.1775 187.787 53.0639 179.737C55.8663 171.898 59.033 164.403 65.4785 165.867C70.691 167.187 73.6055 175.105 76.4779 184.145C79.2803 192.841 82.0827 202.475 86.8888 207.608M-7.91607 182.112C0.491096 179.473 4.41444 170.922 7.70725 162.067C11.1402 152.829 13.9986 143.671 20.6403 141.612C27.2539 140.504 31.2473 154.268 34.9465 168.454C38.6456 182.64 42.0365 196.629 47.7114 196.484C53.3862 196.338 55.9084 188.315 58.8509 180.502C61.6533 172.994 64.7919 165.867 71.2514 167.451C76.4779 168.771 79.3504 176.491 82.2368 185.148C85.0392 193.488 87.8416 202.699 92.6757 207.582M-2.15716 180.357C6.25001 178.153 10.1033 169.325 13.4662 160.325C16.829 151.325 19.7575 142.1 26.3992 140.86C33.0128 140.279 36.9922 154.545 40.6634 168.718C44.3345 182.891 47.8515 196.813 53.4563 196.761C59.0611 196.708 61.6673 188.909 64.5818 181.439C67.3842 174.208 70.5088 167.425 76.9823 169.087C82.2088 170.407 85.0813 177.85 87.9537 186.151C90.7561 194.069 93.5585 202.923 98.3646 207.608M3.55971 178.734C11.9669 176.887 15.8342 168.177 19.183 159.15C22.5319 150.124 25.4744 141.19 32.1161 140.451C38.7297 140.609 42.7091 155.099 46.4223 169.365C50.0654 183.393 53.5684 197.077 59.1872 197.077C64.806 197.077 67.3842 189.582 70.2986 182.429C73.101 175.541 76.2397 169.074 82.6992 170.75C87.9257 172.07 90.7981 179.183 93.6846 187.114C96.487 194.742 99.2894 203.161 104.109 207.635M9.31863 177.454C17.7258 176.134 21.5931 167.161 24.942 158.398C28.2908 149.636 31.2333 140.636 37.875 140.794C44.4886 141.546 48.44 155.983 52.1812 170.209C55.8103 184.052 59.3273 197.381 64.9321 197.42C70.5368 197.46 73.1431 190.268 76.0575 183.432C78.8599 176.834 81.9846 170.697 88.4581 172.373C93.6846 173.693 96.543 180.436 99.4295 188.025C102.232 195.283 105.034 203.319 109.868 207.608M15.0355 176.438C23.4427 175.488 27.2399 166.765 30.6588 157.963C33.9516 149.451 36.9502 140.966 43.5919 141.599C50.2055 142.76 54.1709 157.29 57.8981 171.212C61.5272 184.765 65.0442 197.724 70.663 197.803C76.2817 197.882 78.8599 190.981 81.7744 184.435C84.5768 178.167 87.7015 172.321 94.175 173.878C99.4015 175.197 102.316 181.598 105.188 188.829C107.991 195.797 110.793 203.478 115.585 207.582M20.7944 175.673C29.2016 175.197 33.0409 166.633 36.4177 158.174C39.7946 149.715 42.7091 141.652 49.3508 142.721C55.9644 144.489 59.9018 158.755 63.657 172.426C67.258 185.623 70.8031 198.093 76.4079 198.199C82.0126 198.305 84.6189 191.706 87.5333 185.478C90.3357 179.473 93.4604 173.878 99.9339 175.435C105.146 176.557 108.019 182.746 110.905 189.674C113.708 196.272 116.51 203.662 121.344 207.608M26.5393 175.316C34.9465 175.224 38.7577 166.818 42.1626 158.623C45.4695 150.705 48.454 142.787 55.1097 144.449C61.7233 146.455 65.6186 160.43 69.3738 173.693C72.9749 186.441 76.548 198.476 82.1668 198.595C87.7856 198.714 90.3357 192.406 93.2502 186.441C96.0526 180.714 99.2193 175.422 105.651 176.794C110.877 177.929 113.792 183.762 116.664 190.347C119.467 196.734 122.269 203.821 127.061 207.608M32.2282 175.131C40.6353 175.435 44.4186 167.372 47.8375 159.441C51.1303 151.813 54.1288 144.397 60.7845 146.337C67.3982 148.58 71.3215 162.172 75.0767 175.065C78.6778 187.325 82.2368 198.819 87.8416 198.991C93.4464 199.162 96.0526 193.079 98.9671 187.404C101.882 181.73 104.894 176.768 111.368 178.167C116.58 179.077 119.467 184.699 122.339 191.047C125.141 197.17 127.944 203.966 132.778 207.635M38.0151 175.29C46.4223 175.963 50.2335 168.137 53.6384 160.615C56.9452 153.304 59.9298 146.218 66.5855 148.474C73.2411 150.731 77.0664 164.086 80.8777 176.438C84.4787 188.196 88.0238 199.255 93.6426 199.374C99.2613 199.492 101.854 193.712 104.754 188.262C107.556 182.983 110.695 178.127 117.169 179.262C122.381 180.159 125.282 185.53 128.14 191.561C130.998 197.592 133.745 204.058 138.579 207.608M43.746 175.686C52.1532 176.662 55.9224 169.167 59.3553 161.935C62.6341 155.046 65.6467 148.329 72.3023 150.744C78.958 153.159 82.8253 165.947 86.5945 177.81C90.1816 189.067 93.7546 199.624 99.3594 199.743C104.964 199.862 107.584 194.319 110.485 189.107C113.385 183.894 116.412 179.236 122.885 180.357C128.098 181.057 131.04 186.203 133.899 192.063C136.757 197.922 139.504 204.164 144.296 207.608M49.4909 176.24C57.8981 177.494 61.6813 170.368 65.1142 163.505C68.407 156.907 71.4056 150.573 78.0613 153.08C84.7169 155.587 88.5842 167.807 92.3535 179.117C95.9405 189.898 99.4995 199.994 105.118 200.073C110.737 200.152 113.329 194.874 116.23 189.819C119.13 184.765 122.171 180.344 128.644 181.228C133.857 181.875 136.757 186.863 139.616 192.498C142.474 198.133 145.221 204.23 150.055 207.608M55.2498 177.071C63.657 178.51 67.3982 171.661 70.8311 165.194C74.1239 158.966 77.1225 152.935 83.7781 155.455C90.4338 157.976 94.2871 169.589 98.0703 180.436C101.657 190.717 105.23 200.35 110.835 200.456C116.44 200.561 119.102 195.309 121.905 190.505C124.707 185.702 127.888 181.268 134.319 182.033C139.532 182.601 142.474 187.312 145.333 192.788C148.191 198.265 150.937 204.296 155.73 207.608M60.9667 177.995C69.3738 179.552 73.1571 173.073 76.59 166.87C79.8688 160.958 82.8814 155.244 89.537 157.738C96.1927 160.233 100.06 171.265 103.829 181.571C107.43 191.403 110.975 200.627 116.594 200.68C122.213 200.733 124.819 195.824 127.706 191.073C130.592 186.322 133.647 182.046 140.106 182.733C145.333 183.089 148.233 187.734 151.092 193.105C153.95 198.476 156.696 204.335 161.53 207.621M66.7256 179.024C75.1328 180.687 78.902 174.498 82.3489 168.612C85.6277 162.991 88.6403 157.567 95.2819 159.955C101.924 162.344 105.777 172.809 109.546 182.706C113.133 192.089 116.734 200.891 122.353 200.957C127.972 201.023 130.564 196.167 133.465 191.588C136.365 187.008 139.392 182.786 145.865 183.234C151.092 183.59 154.006 188.091 156.836 193.264C159.667 198.437 162.441 204.362 167.275 207.608M72.4425 180.133C80.8496 181.809 84.6469 175.936 88.0658 170.354C91.4847 164.772 94.3572 159.797 101.013 162.067C107.612 164.165 111.55 174.326 115.305 183.683C118.906 192.67 122.451 201.155 128.07 201.168C133.689 201.182 136.309 196.55 139.181 192.049C142.054 187.549 145.122 183.274 151.582 183.722C156.808 183.881 159.765 188.222 162.595 193.369C165.426 198.516 168.2 204.388 173.006 207.608M78.2014 181.255C86.6085 182.957 90.3778 177.296 93.8247 172.017C97.1035 166.91 100.116 161.961 106.758 164.099C113.399 166.237 117.295 175.659 121.064 184.686C124.665 193.33 128.21 201.445 133.815 201.445C139.42 201.445 142.054 196.879 144.94 192.445C147.827 188.011 150.867 183.854 157.341 184.066C162.567 184.132 165.482 188.447 168.312 193.554C171.143 198.661 173.917 204.454 178.751 207.687M83.9603 182.403C92.3675 184.039 96.1367 178.695 99.5416 173.587C102.946 168.48 105.833 163.862 112.475 165.854C119.102 167.596 123.026 176.834 126.781 185.398C130.396 193.673 133.927 201.551 139.546 201.551C145.164 201.551 147.771 197.011 150.657 192.67C153.544 188.328 156.626 184.079 163.058 184.145C168.284 184.211 171.255 188.434 174.071 193.382C176.888 198.331 179.676 204.309 184.482 207.555M89.6772 183.511C98.0843 185.095 101.868 179.948 105.3 175.026C108.579 170.315 111.592 165.788 118.234 167.451C124.875 169.114 128.799 177.797 132.54 186.085C136.155 194.108 139.686 201.736 145.291 201.67C150.895 201.604 153.544 197.223 156.416 192.868C159.289 188.513 162.343 184.237 168.817 184.316C174.043 184.145 176.972 188.275 179.788 193.33C182.604 198.384 185.393 204.335 190.227 207.608M95.4361 184.58C103.843 186.071 107.669 181.162 111.045 176.464C114.422 171.766 117.337 167.332 123.992 169.021C130.606 170.236 134.487 178.721 138.257 186.744C141.858 194.425 145.445 201.841 151.05 201.789C156.654 201.736 159.303 197.302 162.175 192.96C165.047 188.618 168.102 184.395 174.576 184.224C179.788 184 182.717 188.183 185.547 193.25C188.377 198.318 191.152 204.27 195.944 207.608M101.153 185.596C109.56 186.995 113.343 182.231 116.776 177.678C120.209 173.126 123.068 168.969 129.709 170.236C136.351 171.502 140.288 179.473 144.016 187.219C147.743 194.966 151.162 202.013 156.766 201.907C162.371 201.802 165.033 197.434 167.892 193.118C170.75 188.803 173.819 184.395 180.292 184.118C185.505 183.894 188.503 188.077 191.306 193.052C194.108 198.027 196.911 204.269 201.703 207.661M106.898 186.547C115.305 187.866 119.144 183.221 122.521 178.813C125.898 174.406 128.813 170.13 135.468 171.344C142.082 172.241 146.047 180.041 149.76 187.576C153.474 195.111 156.935 202.026 162.539 201.907C168.144 201.789 170.806 197.434 173.665 193.052C176.523 188.671 179.592 184.211 186.065 183.92C191.278 183.459 194.234 187.602 197.037 192.736C199.839 197.869 202.642 204.164 207.476 207.621M112.657 187.391C121.064 188.539 124.847 184.092 128.252 179.697C131.657 175.303 134.543 171.238 141.185 172.215C147.799 172.901 151.764 180.568 155.491 187.84C159.218 195.111 162.637 202.026 168.242 201.894C173.847 201.762 176.509 197.315 179.368 192.907C182.226 188.5 185.337 184 191.768 183.445C196.981 182.944 199.965 187.18 202.782 192.379C205.598 197.579 208.386 203.992 213.179 207.569M118.374 188.196C126.781 189.239 130.592 184.831 133.997 180.595C137.402 176.359 140.288 172.268 146.944 172.967C153.6 173.667 157.551 180.885 161.236 188.011C164.921 195.137 168.382 202.105 174.001 201.921C179.62 201.736 182.282 197.302 185.113 192.854C187.943 188.407 191.054 183.617 197.527 183.023C202.74 182.482 205.71 186.678 208.499 191.957C211.287 197.236 214.103 203.94 218.937 207.608M124.133 188.961C132.54 189.806 136.393 185.57 139.756 181.347C143.119 177.124 146.047 172.98 152.703 173.667C159.303 173.865 163.254 181.07 166.953 188.183C170.652 195.296 174.141 202.118 179.76 201.907C185.379 201.696 188.027 197.236 190.871 192.67C193.716 188.104 196.813 183.261 203.272 182.548C208.499 181.769 211.455 186.098 214.257 191.548C217.06 196.998 219.862 203.86 224.654 207.661M129.849 189.516C138.257 190.347 142.082 186.058 145.473 181.875C148.864 177.692 151.764 173.68 158.42 173.957C165.075 174.234 169.041 181.255 172.712 188.17C176.383 195.085 179.858 202.066 185.477 201.855C191.096 201.643 193.758 197.011 196.588 192.34C199.419 187.668 202.529 182.733 209.003 181.783C214.215 180.991 217.186 185.412 219.974 190.954C222.763 196.497 225.579 203.702 230.413 207.648M135.608 190.03C144.016 190.637 147.869 186.467 151.232 182.35C154.595 178.233 157.523 173.97 164.165 174.129C170.806 174.287 174.8 181.07 178.471 187.985C182.142 194.9 185.617 201.973 191.236 201.696C196.855 201.419 199.531 196.761 202.347 191.97C205.164 187.18 208.288 181.901 214.748 180.925C219.974 179.935 222.945 184.461 225.733 190.242C228.522 196.022 231.338 203.438 236.172 207.555M141.367 190.519C149.774 191.033 153.586 186.929 156.949 182.693C160.311 178.457 163.24 174.26 169.896 174.419C176.509 174.049 180.517 181.017 184.188 187.906C187.859 194.794 191.334 201.921 196.953 201.643C202.571 201.366 205.234 196.536 208.064 191.561C210.895 186.586 214.033 181.189 220.479 180.001C225.691 178.945 228.704 183.643 231.478 189.582C234.365 195.745 237.083 203.319 241.889 207.608M147.126 190.862C155.533 191.284 159.373 187.074 162.749 182.865C166.126 178.655 169.041 174.485 175.683 174.195C182.324 173.904 186.346 180.793 189.989 187.629C193.632 194.464 197.135 201.815 202.754 201.525C208.372 201.234 211.049 196.246 213.865 191.086C216.682 185.926 219.806 180.252 226.266 178.958C231.492 177.797 234.477 182.601 237.251 188.816C240.124 195.243 242.856 203.135 247.676 207.608M152.843 191.192C161.25 191.39 165.132 187.233 168.466 183.036C171.801 178.84 174.758 174.353 181.399 173.97C188.041 173.587 192.02 180.265 195.664 187.246C199.307 194.227 202.852 201.762 208.456 201.327C214.061 200.891 216.766 195.85 219.582 190.492C222.398 185.134 225.509 179.222 231.983 177.784C237.209 176.464 240.194 181.558 242.954 187.985C245.84 194.676 248.559 202.937 253.365 207.608M158.56 191.35C166.967 191.522 170.82 187.391 174.183 182.97C177.546 178.549 180.475 174.142 187.116 173.733C193.73 172.875 197.751 179.763 201.422 186.929C205.094 194.095 208.569 201.577 214.187 201.208C219.806 200.838 222.482 195.467 225.299 189.912C228.115 184.356 231.226 178.153 237.699 176.583C242.926 175.263 245.91 180.436 248.671 187.14C251.557 194.148 254.276 202.752 259.11 207.635M164.319 191.442C172.726 191.522 176.579 187.193 179.942 182.799C183.305 178.404 186.234 173.904 192.875 173.073C199.517 172.241 203.552 179.117 207.181 186.269C210.923 193.646 214.327 201.353 219.932 200.931C225.537 200.508 228.241 194.966 231.058 189.146C233.874 183.327 236.985 176.821 243.458 175.158C248.671 173.706 251.669 179.183 254.43 186.203C257.316 193.527 260.034 202.528 264.869 207.621M170.064 191.548C178.471 191.403 182.338 187.088 185.659 182.64C188.98 178.193 191.95 173.297 198.592 172.413C205.206 171.291 209.269 178.259 212.898 185.61C216.625 193.184 220.044 201.089 225.649 200.64C231.254 200.192 233.958 194.385 236.775 188.328C239.591 182.271 242.744 175.461 249.175 173.68C254.402 172.175 257.414 177.876 260.189 185.24C263.061 192.894 265.793 202.29 270.585 207.595M175.795 191.442C184.202 191.297 188.069 186.863 191.404 182.205C194.739 177.546 197.695 172.637 204.351 171.648C210.965 170.328 215.042 177.467 218.643 184.95C222.398 192.709 225.803 200.931 231.408 200.442C237.013 199.954 239.717 193.844 242.534 187.576C245.434 180.978 248.461 174.102 254.934 172.228C260.147 170.697 263.131 176.675 265.905 184.369C268.708 192.366 271.51 202.145 276.344 207.674M181.54 191.35C189.947 191.086 193.828 186.481 197.163 181.743C200.498 177.005 203.454 171.885 210.11 170.513C216.766 169.14 220.759 176.293 224.374 184.026C228.129 192.102 231.548 200.601 237.167 200.086C242.786 199.572 245.434 193.224 248.25 186.626C251.165 179.777 254.22 172.545 260.651 170.631C265.877 169.087 268.89 175.343 271.664 183.379C274.537 191.733 277.269 201.855 282.061 207.621M187.27 191.205C195.678 190.756 199.587 186.098 202.88 181.189C206.173 176.28 209.171 170.79 215.827 169.417C222.44 167.57 226.518 175.092 230.119 183.102C233.874 191.429 237.279 200.258 242.884 199.743C248.489 199.228 251.193 192.577 254.009 185.676C256.91 178.51 259.936 170.988 266.41 169.074C271.622 167.517 274.607 174.129 277.381 182.508C280.184 191.165 282.986 201.696 287.82 207.582M193.015 190.888C201.422 190.439 205.318 185.53 208.639 180.331C211.959 175.131 214.93 169.655 221.586 167.873C228.241 166.092 232.291 173.693 235.878 181.98C239.647 190.677 243.024 199.915 248.643 199.334C254.262 198.753 256.952 191.852 259.754 184.646C262.669 177.19 265.695 169.391 272.169 167.491C277.381 166.052 280.352 172.941 283.14 181.677C285.943 190.677 288.745 201.472 293.579 207.582M198.732 190.585C207.139 189.938 211.063 184.871 214.355 179.592C217.788 174.102 220.647 168.309 227.303 166.395C233.916 164.231 237.994 172.241 241.595 180.912C245.364 189.938 248.755 199.585 254.36 198.978C259.964 198.371 262.669 191.179 265.471 183.696C268.386 175.95 271.412 167.86 277.886 166.065C283.098 164.746 286.111 171.938 288.899 180.964C291.701 190.202 294.504 201.379 299.296 207.569M204.491 190.162C212.898 189.41 216.808 184.171 220.114 178.563C223.421 172.954 226.406 166.831 233.061 164.719C239.717 162.608 243.767 170.75 247.354 179.724C251.137 189.199 254.5 199.268 260.119 198.648C265.737 198.028 268.414 190.532 271.23 182.812C274.13 174.828 277.171 166.527 283.631 164.851C288.857 163.65 291.814 171.172 294.616 180.529C297.418 189.885 300.221 201.379 305.055 207.661M210.25 189.635C218.657 188.79 222.567 183.261 225.873 177.467C229.18 171.674 232.165 165.155 238.806 162.951C245.42 160.483 249.483 169.18 253.071 178.563C256.854 188.434 260.259 198.964 265.877 198.357C271.496 197.75 274.13 189.978 276.947 181.967C279.847 173.719 282.916 165.234 289.361 163.743C294.574 162.819 297.572 170.565 300.361 180.159C303.149 189.753 305.966 201.379 310.772 207.701M215.967 189.12C224.374 188.077 228.297 182.363 231.59 176.253C235.009 169.919 237.882 163.347 244.523 160.892C251.165 158.438 255.242 167.385 258.829 177.203C262.613 187.549 265.976 198.529 271.594 197.882C277.213 197.236 279.875 189.252 282.706 181.03C285.536 172.809 288.647 163.994 295.106 162.819C300.333 162.04 303.275 170.13 306.092 179.895C308.908 189.661 311.697 201.287 316.531 207.608M221.726 188.394C230.133 187.312 234.042 181.268 237.349 174.907C240.768 168.309 243.641 161.381 250.282 158.82C256.924 156.26 260.987 165.617 264.588 175.976C268.358 186.784 271.734 198.239 277.339 197.605C282.944 196.972 285.634 188.79 288.465 180.384C291.295 171.977 294.392 163.228 300.865 162.238C306.092 161.829 309.006 170.024 311.837 180.014C314.667 190.004 317.441 201.406 322.276 207.727M227.443 187.681C235.85 186.441 239.773 180.159 243.066 173.495C246.499 166.54 249.357 159.322 255.999 156.63C262.641 153.938 266.718 163.875 270.305 174.617C274.074 185.913 277.451 197.83 283.07 197.223C288.689 196.615 291.351 188.249 294.182 179.763C297.012 171.278 300.123 162.423 306.582 161.895C311.809 161.829 314.779 170.209 317.596 180.133C320.412 190.057 323.2 201.459 328.006 207.608M233.202 186.837C241.609 185.517 245.518 178.919 248.825 171.951C252.244 164.719 255.116 157.158 261.758 154.413C268.4 151.668 272.463 162.146 276.064 173.403C279.819 185.161 283.21 197.513 288.815 196.932C294.42 196.352 297.068 187.893 299.941 179.302C302.813 170.711 305.868 162.146 312.341 162.027C317.568 162.146 320.468 170.724 323.312 180.687C326.157 190.651 328.917 201.617 333.751 207.608M238.96 185.953C247.368 184.527 251.249 177.639 254.542 170.368C257.961 162.793 260.833 154.941 267.475 152.196C274.116 149.451 278.18 160.549 281.781 172.255C285.55 184.514 288.927 197.249 294.546 196.721C300.165 196.193 302.799 187.695 305.657 179.13C308.516 170.565 311.626 162.199 318.072 162.318C323.298 163.017 326.241 171.45 329.085 181.321C331.93 191.192 334.69 201.775 339.482 207.555M244.677 184.989C253.085 183.511 256.994 176.293 260.301 168.718C263.72 160.866 266.592 152.737 273.234 150.045C279.875 147.353 283.925 159.084 287.54 171.278C291.281 183.934 294.686 197.051 300.291 196.563C305.896 196.074 308.544 187.576 311.416 179.156C314.289 170.737 317.343 162.516 323.817 163.321C329.029 164.192 331.916 172.69 334.788 182.337C337.591 191.667 340.393 202.132 345.227 207.608M250.422 183.986C258.829 182.442 262.753 174.92 266.046 167.082C269.465 158.939 272.337 150.546 278.993 148.013C285.606 145.769 289.614 157.778 293.257 170.447C296.984 183.485 300.445 196.84 306.05 196.457C311.654 196.074 314.275 187.668 317.161 179.302C319.964 171.172 323.102 163.347 329.576 164.442C334.368 165.643 337.17 172.664 339.833 181.136C342.397 189.305 344.877 198.582 348.73 204.705M256.153 182.931C264.56 181.373 268.456 173.574 271.762 165.445C275.167 157.118 278.068 148.54 284.71 146.231C291.323 144.212 295.387 156.788 299.002 169.853C302.743 183.261 306.162 196.813 311.767 196.51C317.371 196.206 320.006 187.959 322.892 179.895C325.779 171.832 328.819 164.482 335.293 166.092C338.613 167.016 341.01 170.869 343.083 175.857C345.157 180.846 346.839 186.612 348.688 192.287M261.898 181.835C270.305 180.291 274.215 172.268 277.521 163.954C280.94 155.363 283.813 146.693 290.468 144.595C297.082 143.103 301.089 156.155 304.761 169.589C308.432 183.023 311.907 196.84 317.526 196.589C323.144 196.338 325.723 188.354 328.637 180.568C331.439 173.112 334.578 166.052 341.052 168.058C344.33 169.259 346.656 172.822 348.73 177.428M267.629 180.793C276.036 179.315 279.889 171.067 283.21 162.595C286.531 154.123 289.502 145.083 296.157 143.526C302.771 142.457 306.778 155.878 310.449 169.563C314.121 183.247 317.61 196.932 323.214 196.827C328.819 196.721 331.425 189.001 334.34 181.585C337.142 174.432 340.309 167.992 346.74 170.315C347.439 170.586 348.099 170.941 348.702 171.37M273.374 179.737C281.781 178.338 285.648 169.972 288.997 161.341C292.346 152.711 295.289 143.882 301.944 142.721C308.558 142.061 312.551 156.023 316.236 169.8C319.922 183.577 323.383 197.13 329.001 197.077C333.976 197.077 336.582 191.192 339.188 184.963C341.654 179.064 344.162 172.901 348.73 172.057M279.133 178.761C287.54 177.546 291.421 169.035 294.756 160.444C298.091 151.853 301.047 142.998 307.689 142.325C314.303 142.51 318.226 156.445 321.953 170.447C325.596 184.105 329.141 197.394 334.76 197.46C338.403 197.552 340.799 194.504 342.831 190.571C344.863 186.639 346.558 182.099 348.73 178.695M284.85 177.89C293.257 176.887 297.096 168.335 300.473 159.731C303.85 151.127 306.764 142.576 313.42 142.668C320.034 143.301 324.013 157.501 327.712 171.252C331.411 185.003 334.886 197.777 340.491 197.948C344.246 198.12 346.67 195.164 348.744 191.35M290.609 177.111C299.016 176.359 302.855 167.873 306.232 159.441C309.609 151.008 312.523 142.813 319.165 143.315C325.779 144.634 329.702 158.886 333.471 172.585C337.072 185.715 340.617 198.225 346.236 198.476C347.086 198.516 347.935 198.39 348.73 198.107M296.367 176.557C304.775 176.134 308.572 167.689 311.949 159.494C315.326 151.298 318.24 143.275 324.896 144.621C330.823 146.363 334.606 157.897 338.039 169.84C341.402 181.519 344.4 193.369 348.73 197.552M302.084 176.134C310.491 176.029 314.247 167.86 317.708 159.744C320.972 152.077 323.999 144.542 330.641 146.389C335.082 148.013 338.277 154.835 341.08 163.255C343.784 171.331 346.166 180.568 348.73 187.747M307.843 175.897C316.25 176.2 320.062 168.309 323.467 160.655C326.872 153.001 329.758 146.139 336.4 148.58C339.118 149.794 341.416 153.08 343.406 157.237C345.499 161.827 347.277 166.539 348.73 171.344M313.56 176.016C321.967 176.689 325.722 169.035 329.183 161.79C332.434 154.954 335.475 148.329 342.116 151.47C344.653 152.79 346.796 155.64 348.73 159.269M319.319 176.319C327.726 177.322 331.495 170.236 334.928 163.426C338.207 156.96 341.22 151.101 347.875 154.624C348.156 154.782 348.45 154.98 348.73 155.152M325.078 176.966C332.308 178.206 336.007 173.337 339.202 168.032C342.159 163.123 344.597 157.554 348.744 156.735M330.781 177.876C335.965 178.906 339.356 176.887 341.99 173.917C344.625 170.948 346.572 167.319 348.674 164.231M336.54 178.998C342.299 180.476 345.942 178.246 348.73 174.96M-8.74278 14.2256C-7.4817 10.8077 -6.13656 7.13906 -4.6653 3.66836C-3.34535 0.341858 -1.51357 -2.78392 0.771336 -5.60883M-8.74278 27.3694C-6.05248 24.453 -4.03476 18.4749 -1.87692 12.2725C0.393012 5.74022 2.80307 -1.18798 6.53025 -5.60883M-8.74278 31.1832C-3.69848 33.2287 -0.727944 27.2242 1.94834 19.3063C4.84881 10.7417 7.49707 0.329624 12.2471 -5.60883M-8.74298 29.1243C-7.36364 30.9883 -5.5339 32.5171 -3.40443 33.5847C1.80802 36.0921 4.8346 29.3882 7.59496 20.7445C10.4814 11.718 13.1997 0.632882 18.0058 -5.64869M-8.74278 20.3884C-6.1926 27.0659 -3.138 33.585 2.34067 36.1319C7.56713 37.9663 10.5517 30.8533 13.312 21.7609C16.1985 12.2461 18.8888 0.791504 23.821 -5.60883M-8.74298 8.0362C-6.1928 12.5098 -4.37125 18.9102 -2.05928 24.7695C0.350777 30.8531 3.27927 36.2901 8.05735 37.966C13.2838 39.6552 16.2824 31.988 19.0707 22.4337C21.8731 12.655 24.6755 0.883656 29.4816 -5.62226M-8.74298 3.45706C-3.62862 5.06705 -1.09245 12.853 1.6679 20.9293C4.42826 29.0056 7.56693 37.623 13.8163 39.5893C19.0427 40.777 21.9852 32.859 24.7876 22.8692C27.59 12.8794 30.3924 0.923322 35.2265 -5.63538M-8.74278 6.1889C-7.34158 4.51294 -5.77225 3.54959 -3.95069 3.86631C1.65409 4.77687 4.35839 12.906 7.1748 21.3914C10.0753 30.1803 13.1018 39.2727 19.6174 40.7375C24.8299 41.5425 27.7864 33.2419 30.5888 23.1465C33.3912 13.0511 36.1235 0.923469 40.9576 -5.60883M-8.74298 18.4749C-7.51155 15.0126 -5.95473 11.6606 -4.09101 8.45872C-2.38155 5.8194 -0.475928 4.13024 1.76598 4.49974C7.34274 5.27834 10.047 13.7242 12.8915 22.4339C15.7359 31.1436 18.8185 40.3285 25.292 41.371C30.5185 41.912 33.433 33.2815 36.2634 22.9881C39.0938 12.6948 41.8682 0.817899 46.7023 -5.66162M-8.74278 34.7727C-6.09452 29.3753 -3.76854 21.8928 -1.40052 15.8356C1.16367 9.40887 3.88199 4.47335 7.5251 4.96162C13.1299 5.67424 15.8202 14.3312 18.6506 23.1861C21.481 32.041 24.5776 41.1598 31.0512 41.8329C36.2636 41.8329 39.1921 33.1495 42.0225 22.7902C44.8529 12.4309 47.6413 0.765111 52.4614 -5.60883M-8.74278 44.6041C-4.20291 42.6378 -0.952134 32.9911 2.06044 23.8459C5.33923 13.8825 8.44989 4.76367 13.27 5.37072C18.8748 5.96456 21.537 14.8327 24.3955 23.6744C27.2539 32.5161 30.3646 41.5689 36.7961 41.5953C42.0225 41.371 44.965 32.5689 47.8095 22.3019C50.6539 12.035 53.4142 0.606752 58.2063 -5.60883M-8.74278 46.4912C-8.51859 46.6628 -8.30841 46.808 -8.05619 46.9663C-1.40052 51.374 2.66295 41.4238 6.23599 29.9823C10.0192 17.8679 13.3961 4.98802 19.0009 5.56867C24.6057 6.14931 27.2399 14.8854 30.1264 23.7535C33.0128 32.6216 36.0534 41.107 42.5269 40.8299C47.7394 40.2889 50.6399 31.5923 53.4983 21.4837C56.3007 11.5995 59.1031 0.369214 63.9372 -5.58244M-8.74278 43.5484C-7.16399 46.3072 -4.96419 48.7078 -2.29728 50.5822C4.31636 54.6467 8.40785 43.5484 11.9669 31.4999C15.7641 18.6201 19.141 5.27834 24.7598 5.75342C30.3786 6.2285 33.0128 14.991 35.8713 23.648C38.7297 32.3049 41.8123 40.6848 48.2859 40.0249C53.4983 39.154 56.3988 30.5762 59.2572 20.6919C62.0596 11.0189 64.862 0.197659 69.6541 -5.60883M-8.74278 34.4164C-5.66015 42.3343 -2.73165 50.2523 3.41959 54.0265C10.0332 57.2597 14.0967 45.3036 17.7118 32.4501C21.453 19.2535 24.8579 5.41031 30.4767 5.84579C36.0955 6.28128 38.7017 14.8723 41.5882 23.4104C44.4746 31.9486 47.5292 39.9194 54.0027 38.89C59.2152 37.9135 62.1016 29.4281 64.9741 19.7814C67.7765 10.4382 70.5789 -0.0134866 75.413 -5.60883M-8.74278 24.7697C-5.47799 30.0483 -3.33417 36.6466 -0.910099 42.6774C1.59804 48.9854 4.41444 54.33 9.17851 56.6526C15.7781 59.2919 19.8416 46.5704 23.4707 33.2023C27.2119 19.4383 30.6168 5.48949 36.2356 5.8062C41.8544 6.12292 44.4606 14.5819 47.3471 22.9618C50.2335 31.3416 53.2461 38.8372 59.7476 37.61C64.9741 36.4091 67.8606 28.2008 70.733 18.8444C73.5354 9.79157 76.3378 -0.237828 81.1719 -5.60883M-8.74278 20.4808C-2.80171 24.8225 0.140798 32.9911 3.05528 40.8167C5.96977 48.6423 8.99635 56.3755 14.8954 58.7641C21.509 60.8359 25.5445 47.2962 29.1876 33.5454C32.9007 19.5438 36.3337 5.46309 41.9525 5.70063C47.5713 5.93817 50.1775 14.2124 53.0639 22.2623C55.8663 30.1011 59.033 37.5967 65.4785 36.1319C70.691 34.8123 73.6055 26.8943 76.4779 17.8547C79.2803 9.15813 82.0827 -0.475367 86.8888 -5.60883M-7.91607 19.8738C0.491096 22.5131 4.41444 31.0513 7.70725 39.9062C11.1402 49.1438 13.9986 58.3022 20.6403 60.3608C27.2539 61.4694 31.2473 47.7185 34.9465 33.519C38.6456 19.3195 42.0365 5.37072 47.7114 5.51588C53.3862 5.66104 55.9084 13.6978 58.8509 21.4969C61.6533 29.0058 64.7919 36.1319 71.2514 34.5483C76.4779 33.2287 79.3504 25.5087 82.2368 16.8517C85.0392 8.5115 87.8416 -0.699709 92.6757 -5.58244M-2.15716 21.6421C6.25001 23.8459 10.1033 32.6744 13.4662 41.6745C16.829 50.6746 19.7575 59.899 26.3992 61.1395C33.0128 61.7201 36.9922 47.5074 40.6353 33.2815C44.2784 19.0556 47.8515 5.18596 53.4563 5.27834C59.0611 5.37072 61.6533 13.0907 64.5818 20.56C67.3842 27.7917 70.5088 34.5747 76.9823 32.912C82.2088 31.5923 85.0813 24.1494 87.9537 15.8488C90.7561 7.93085 93.5585 -0.924051 98.3646 -5.60883M3.55971 23.2785C11.9669 25.1128 15.8342 33.8357 19.183 42.849C22.5319 51.8622 25.4744 60.8095 32.1161 61.5485C38.7297 61.3902 42.7091 46.9003 46.4223 32.6348C50.0654 18.6069 53.5684 4.92203 59.1872 4.92203C64.806 4.92203 67.3842 12.4177 70.2986 19.5834C73.101 26.4588 76.2397 32.9252 82.6992 31.2492C87.9257 29.9295 90.7981 22.8166 93.6846 14.8854C96.487 7.25782 99.2894 -1.16159 104.109 -5.63523M9.31863 24.5453C17.7258 25.865 21.5931 34.8387 24.942 43.6012C28.2908 52.3637 31.2333 61.3638 37.833 61.2054C44.4466 60.4532 48.398 46.0162 52.1392 31.7903C55.7682 17.9602 59.2852 4.61851 64.89 4.57892C70.4948 4.53933 73.101 11.7315 76.0155 18.5805C78.8179 25.1788 81.9426 31.302 88.4161 29.626C93.6426 28.3064 96.501 21.5629 99.3875 13.9749C102.19 6.71677 104.992 -1.31995 109.826 -5.60883M15.0355 25.5615C23.4427 26.5116 27.2399 35.2346 30.6588 44.0367C33.9516 52.5485 36.9502 61.0339 43.5919 60.4136C50.2055 59.2391 54.1709 44.7097 57.8981 30.7873C61.5272 17.2344 65.0442 4.2754 70.663 4.20942C76.2817 4.14343 78.8599 11.0188 81.7744 17.5644C84.5768 23.8327 87.7015 29.6788 94.175 28.1216C99.4015 26.802 102.316 20.4016 105.188 13.1699C107.991 6.2021 110.793 -1.47831 115.585 -5.58244M20.7944 26.3929C29.2016 26.8679 33.0409 35.4325 36.4177 43.8915C39.7946 52.3505 42.7091 60.4136 49.3508 59.3447C55.9644 57.5764 59.9018 43.3109 63.657 29.6392C67.258 16.4295 70.8031 3.95868 76.4079 3.80033C82.0126 3.64197 84.6189 10.293 87.5333 16.5218C90.3357 22.5263 93.4604 28.1216 99.9339 26.5644C105.146 25.4427 108.019 19.2535 110.905 12.3253C113.708 5.72703 116.51 -1.66306 121.344 -5.60883M26.5393 26.6964C34.9465 26.7756 38.7577 35.1818 42.1626 43.3769C45.4695 51.2948 48.454 59.2127 55.1097 57.55C61.7233 55.5441 65.6186 41.5689 69.3738 28.3064C72.9749 15.5585 76.548 3.52319 82.1668 3.40443C87.7856 3.28566 90.3357 9.59362 93.2502 15.5585C96.0526 21.2858 99.2193 26.5776 105.651 25.2052C110.877 24.0703 113.792 18.2374 116.664 11.6523C119.467 5.26514 122.269 -1.82142 127.061 -5.60883M32.2282 26.8679C40.6353 26.5644 44.4186 34.6275 47.8375 42.5587C51.1303 50.1863 54.1288 57.6028 60.7845 55.6629C67.3982 53.4195 71.3215 39.827 75.0767 26.9339C78.6778 14.6743 82.2368 3.18009 87.8416 3.00853C93.4464 2.83697 96.0526 8.92059 98.9671 14.5951C101.882 20.2696 104.894 25.2316 111.368 23.8327C116.58 22.9222 119.467 17.3004 122.339 10.9529C125.141 4.82966 127.944 -1.96658 132.778 -5.63523M38.0151 26.7096C46.4223 26.0366 50.2335 33.8621 53.6384 41.3842C56.9452 48.6951 59.9298 55.7816 66.5855 53.525C73.2411 51.2684 77.0664 37.9135 80.8777 25.5615C84.4787 13.8033 88.0238 2.7446 93.6426 2.63903C99.2613 2.53345 101.854 8.30036 104.754 13.7505C107.655 19.2007 110.695 23.8855 117.169 22.7638C122.381 21.8532 125.282 16.4822 128.14 10.4514C130.998 4.42056 133.745 -2.04576 138.579 -5.59564M43.746 26.3137C52.1532 25.3371 55.9224 32.8328 59.3553 40.0645C62.6341 46.9531 65.6467 53.6702 72.3023 51.2552C78.958 48.8402 82.8253 36.0528 86.5945 24.189C90.1816 12.9324 93.7546 2.37509 99.3594 2.25632C104.964 2.13756 107.584 7.68012 110.485 12.8928C113.385 18.1054 116.412 22.7638 122.885 21.6421C128.098 20.9427 131.04 15.796 133.899 9.94993C136.757 4.10385 139.504 -2.16453 144.296 -5.60883M49.4909 25.7594C57.8981 24.5058 61.6813 31.6319 65.1142 38.4941C68.407 45.0924 71.4056 51.4268 78.0613 48.9194C84.7169 46.4121 88.5842 34.192 92.3535 22.8826C95.9405 12.101 99.4855 2.00559 105.09 1.92641C110.695 1.84723 113.329 7.12586 116.3 12.1801C119.27 17.2344 122.241 21.6553 128.714 20.7711C133.927 20.1245 136.827 15.1362 139.686 9.50125C142.544 3.86631 145.291 -2.23051 150.125 -5.60883M55.2498 24.928C63.657 23.4896 67.3982 30.3386 70.8311 36.805C74.1239 43.0337 77.1225 49.0514 83.7781 46.5308C90.4338 44.0103 94.2871 32.4501 98.0843 21.6025C101.657 11.3224 105.23 1.68887 110.835 1.5965C116.44 1.50412 119.102 6.598 121.905 11.4939C124.707 16.3899 127.888 20.7315 134.319 19.9661C139.532 19.3987 142.474 14.6875 145.333 9.21092C148.191 3.73434 150.937 -2.29649 155.73 -5.60883M60.9667 24.0043C69.3738 22.4471 73.1571 28.9266 76.59 35.129C79.8688 41.0411 82.8814 46.7552 89.537 44.261C96.1927 41.7669 100.06 30.7345 103.829 20.428C107.43 10.557 110.975 1.31937 116.594 1.31937C122.213 1.31937 124.819 6.17571 127.706 10.9265C130.592 15.6772 133.647 19.9529 140.106 19.2667C145.333 18.9104 148.233 14.2652 151.092 8.9074C153.95 3.54959 156.696 -2.33608 161.53 -5.60883M66.7256 22.9749C75.1328 21.3122 78.902 27.5014 82.3489 33.387C85.6277 39.0088 88.6403 44.4326 95.2819 42.044C101.924 39.6554 105.777 29.1905 109.546 19.2931C113.133 9.92353 116.734 1.10822 122.353 1.05544C127.972 1.00265 130.564 5.83259 133.465 10.4118C136.365 14.991 139.392 19.2139 145.865 18.7652C151.092 18.4089 154.006 13.9089 156.836 8.73584C159.667 3.56279 162.441 -2.36248 167.275 -5.60883M72.4425 21.8664C80.8496 20.1905 84.6469 26.063 88.0658 31.6583C91.3586 37.0425 94.3572 42.2156 101.013 39.9326C107.669 37.6495 111.55 27.7125 115.305 18.3166C118.906 9.32969 122.451 0.844291 128.07 0.831095C133.689 0.817898 136.309 5.46309 139.181 9.94993C142.054 14.4368 145.122 18.7257 151.582 18.277C156.808 18.1186 159.765 13.7769 162.595 8.63027C165.426 3.48361 168.2 -2.38887 173.006 -5.60883M78.2014 20.7447C86.6085 19.0424 90.3778 24.7037 93.8247 29.9823C97.1035 35.0894 100.116 40.0381 106.758 37.9003C113.399 35.7624 117.295 26.3929 121.064 17.3928C124.707 8.76224 128.21 0.633146 133.815 0.633146C139.42 0.633146 142.054 5.19916 144.94 9.63321C147.827 14.0673 150.867 18.2242 157.341 18.013C162.567 17.9471 165.482 13.6318 168.312 8.5247C171.143 3.41762 173.917 -2.37567 178.751 -5.60883M83.9603 19.6098C92.3675 17.9602 96.1367 23.3049 99.5416 28.4119C102.946 33.519 105.833 38.1378 112.475 36.1451C119.102 34.456 123.026 25.1788 126.781 16.601C130.396 8.32675 133.927 0.448393 139.546 0.448393C145.164 0.448393 147.771 4.98802 150.657 9.32969C153.544 13.6714 156.626 17.9207 163.058 17.8547C168.284 17.8547 171.255 13.5658 174.071 8.61707C176.888 3.66836 179.676 -2.29649 184.482 -5.55605M89.6772 18.4749C98.0843 16.8913 101.868 22.038 105.3 26.9603C108.579 31.6715 111.592 36.1979 118.234 34.5352C124.875 32.8724 128.799 24.189 132.54 15.9016C136.155 7.91766 139.686 0.276839 145.291 0.329625C150.895 0.382411 153.544 4.77687 156.416 9.14494C159.289 13.513 162.343 17.7755 168.817 17.6831C174.043 17.8547 176.972 13.7242 179.788 8.66986C182.604 3.61557 185.393 -2.32289 190.227 -5.60883M95.4361 17.4192C103.843 15.9412 107.669 20.8371 111.045 25.5351C114.422 30.2331 117.337 34.6671 123.992 32.978C130.606 31.7639 134.487 23.2785 138.257 15.255C141.858 7.57454 145.445 0.158068 151.05 0.210855C156.654 0.263641 159.303 4.69769 162.175 9.03936C165.047 13.381 168.102 17.6039 174.576 17.7887C179.788 17.9998 182.717 13.8297 185.547 8.74904C188.377 3.66836 191.152 -2.2701 195.944 -5.60883M101.153 16.4031C109.56 15.0042 113.343 19.7682 116.776 24.321C120.209 28.8738 123.068 33.0307 129.709 31.7639C136.351 30.497 140.288 22.5263 144.016 14.7799C147.743 7.03349 151.162 -0.000289679 156.766 0.144873C162.371 0.290035 165.033 4.61851 167.892 8.93379C170.75 13.2491 173.819 17.6567 180.292 17.9339C185.505 18.1582 188.503 13.9749 191.306 8.99977C194.108 4.02467 196.911 -2.21731 201.703 -5.60883M106.898 15.4529C115.305 14.1332 119.144 18.7784 122.521 23.1861C125.898 27.5938 128.813 31.8694 135.468 30.6554C142.082 29.758 146.047 21.9588 149.76 14.4236C153.474 6.88832 156.935 -0.000289828 162.539 0.105283C168.144 0.210855 170.806 4.57892 173.665 8.96019C176.523 13.3414 179.592 17.8019 186.065 18.0922C191.278 18.5541 194.234 14.4104 197.037 9.27691C199.839 4.14344 202.642 -2.15133 207.476 -5.60883M112.657 14.5159C121.064 13.3678 124.847 17.8151 128.252 22.2095C131.657 26.604 134.543 30.6685 141.185 29.692C147.799 29.0058 151.764 21.3386 155.491 14.0673C159.218 6.79594 162.637 -0.000290446 168.242 0.0656924C173.847 0.131675 176.551 4.6449 179.354 9.05256C182.156 13.4602 185.323 17.9602 191.754 18.5145C196.967 19.016 199.951 14.7799 202.768 9.58042C205.584 4.38097 208.372 -2.03256 213.165 -5.60883M118.374 13.8033C126.781 12.7608 130.592 17.1685 133.997 21.4046C137.402 25.6407 140.288 29.7316 146.944 29.0454C153.6 28.3592 157.551 21.1274 161.236 13.9881C164.921 6.84873 168.382 -0.105863 174.001 0.0788894C179.62 0.263641 182.282 4.69769 185.113 9.15814C187.943 13.6186 191.054 18.3957 197.527 18.9764C202.74 19.5174 205.71 15.3209 208.499 10.0423C211.287 4.76368 214.103 -1.94019 218.937 -5.60883M124.133 13.0379C132.54 12.1933 136.393 16.4294 139.756 20.6524C143.119 24.8753 146.047 29.0322 152.731 28.3328C159.331 28.1348 163.282 20.9295 166.981 13.8165C170.68 6.70357 174.141 -0.092666 179.76 0.118479C185.379 0.329624 188.027 4.80326 190.871 9.35608C193.716 13.9089 196.813 18.7652 203.272 19.4779C208.499 20.2565 211.455 15.928 214.257 10.4778C217.06 5.02761 219.862 -1.82142 224.654 -5.63523M129.849 12.4837C138.257 11.6523 142.082 15.9412 145.473 20.1377C148.864 24.3342 151.764 28.3196 158.42 28.0556C165.075 27.7917 169.041 20.7579 172.712 13.8429C176.383 6.92791 179.858 -0.000291184 185.477 0.158068C191.096 0.316427 193.758 5.00121 196.588 9.6728C199.419 14.3444 202.529 19.2799 209.003 20.2301C214.215 21.1142 217.186 16.6274 219.988 11.0848C222.791 5.54227 225.593 -1.66306 230.427 -5.60883M135.608 11.8766C144.016 11.2696 147.869 15.4397 151.232 19.5702C154.595 23.7008 157.523 27.9369 164.165 27.7785C170.806 27.6201 174.8 20.8371 178.471 13.9221C182.142 7.00709 185.617 -0.00029099 191.236 0.250444C196.855 0.501179 199.531 5.18596 202.347 9.97632C205.164 14.7667 208.288 20.0453 214.748 21.0219C219.974 22.0116 222.945 17.4852 225.733 11.7051C228.522 5.92497 231.338 -1.4915 236.172 -5.60883M141.367 11.4807C149.774 10.9661 153.586 15.0702 156.949 19.3063C160.311 23.5424 163.24 27.7389 169.896 27.5806C176.509 27.9501 180.517 21.0483 184.188 14.0937C187.859 7.13906 191.334 0.0788895 196.953 0.356018C202.571 0.633146 205.234 5.46309 208.064 10.4514C210.895 15.4397 214.033 20.8107 220.479 21.9984C225.691 23.0541 228.704 18.3561 231.478 12.4177C234.365 6.25489 237.083 -1.31995 241.889 -5.60883M147.126 11.1376C155.533 10.7153 159.373 14.9382 162.75 19.1347C166.126 23.3313 169.041 27.5146 175.683 27.8049C182.324 28.0952 186.346 21.2066 189.989 14.3708C193.632 7.53495 197.093 0.184461 202.712 0.474786C208.33 0.76511 211.007 5.75342 213.823 10.9133C216.639 16.0731 219.764 21.7477 226.224 23.0409C231.45 24.2022 234.435 19.3987 237.209 13.1831C240.081 6.75635 242.814 -1.1352 247.634 -5.60883M152.843 10.8077C161.25 10.6098 165.132 14.7667 168.466 18.9632C171.801 23.1597 174.758 27.6465 181.399 28.0292C188.041 28.4119 192.02 21.7345 195.664 14.7535C199.307 7.77249 202.852 0.303231 208.456 0.672735C214.061 1.04224 216.766 6.14931 219.582 11.5071C222.398 16.8649 225.509 22.777 231.983 24.2154C237.209 25.5351 240.194 20.4412 242.954 14.0145C245.84 7.32381 248.559 -0.937248 253.365 -5.60883M158.56 10.6625C166.967 10.491 170.82 14.6215 174.183 19.0424C177.546 23.4632 180.475 27.8709 187.116 28.28C193.73 29.1377 197.751 22.2491 201.422 15.0834C205.094 7.91765 208.569 0.487983 214.187 0.857487C219.806 1.22699 222.482 6.598 225.299 12.1538C228.115 17.7095 231.226 23.9119 237.699 25.4823C242.926 26.802 245.91 21.6289 248.671 14.925C251.557 7.91766 254.276 -0.686512 259.11 -5.56924M164.319 10.557C172.726 10.557 176.579 14.8063 179.942 19.2007C183.305 23.5952 186.234 28.0952 192.875 28.9266C199.517 29.758 203.552 22.8826 207.181 15.73C210.923 8.37954 214.384 0.659539 219.988 1.08183C225.593 1.50412 228.297 7.04668 231.114 12.8664C233.93 18.6861 237.041 25.192 243.514 26.8547C248.727 28.3064 251.725 22.8298 254.486 15.8092C257.372 8.48511 260.091 -0.50176 264.925 -5.60883M170.064 10.4514C178.471 10.5966 182.338 14.9118 185.659 19.3723C188.98 23.8327 191.95 28.7023 198.592 29.5864C205.206 30.7081 209.269 23.7403 212.898 16.3899C216.625 8.80183 219.988 0.897077 225.593 1.31937C231.198 1.74166 234 7.60094 236.803 13.6582C239.605 19.7154 242.772 26.5248 249.203 28.3064C254.43 29.8108 257.442 24.1099 260.217 16.7594C263.089 9.09215 265.821 -0.303812 270.613 -5.60883M175.795 10.557C184.202 10.7021 188.069 15.1362 191.404 19.7946C194.739 24.453 197.695 29.3621 204.351 30.4178C210.965 31.7375 215.042 24.5981 218.643 17.1157C222.398 9.35608 225.803 1.13462 231.408 1.62289C237.013 2.11116 239.717 8.22118 242.534 14.4895C245.434 21.0878 248.461 27.9765 254.934 29.8372C260.147 31.3812 263.131 25.3899 265.905 17.6963C268.708 9.69919 271.51 -0.0794699 276.344 -5.60883M181.54 10.6625C189.947 10.9265 193.828 15.5321 197.163 20.2697C200.498 25.0072 203.454 30.1275 210.11 31.4999C216.766 32.8724 220.759 25.733 224.374 17.9866C228.129 9.91034 231.548 1.41174 237.167 1.92641C242.786 2.44108 245.434 8.78863 248.25 15.3869C251.165 22.2359 254.22 29.4677 260.651 31.3812C265.877 32.9252 268.89 26.67 271.664 18.6333C274.537 10.2798 277.269 0.158069 282.061 -5.60883M187.27 10.7945C195.678 11.2432 199.587 15.9016 202.88 20.8107C206.173 25.7198 209.171 31.2096 215.827 32.5821C222.44 34.4296 226.518 26.9075 230.119 18.8972C233.874 10.5702 237.279 1.74166 242.884 2.25633C248.489 2.77099 251.193 9.42207 254.009 16.3239C256.91 23.4896 259.936 31.0117 266.41 32.9384C271.622 34.4824 274.607 27.8709 277.381 19.4911C280.184 10.8341 282.986 0.303232 287.82 -5.58244M193.015 11.1112C201.422 11.5599 205.318 16.469 208.639 21.6685C211.959 26.8679 214.93 32.3445 221.586 34.1261C228.241 35.9076 232.291 28.3064 235.878 20.0189C239.605 11.2696 243.024 2.03198 248.643 2.63902C254.262 3.24607 256.952 10.1347 259.754 17.3268C262.669 24.7829 265.695 32.5821 272.169 34.4824C277.381 35.9208 280.352 29.0322 283.14 20.296C285.943 11.296 288.745 0.501179 293.579 -5.60883M198.732 11.4147C207.139 12.0614 211.063 17.1289 214.355 22.4075C217.788 27.8973 220.647 33.6906 227.303 35.6041C233.916 37.7551 237.994 29.7448 241.595 21.0878C245.364 12.0614 248.755 2.41468 254.36 3.02173C259.964 3.62877 262.669 10.8209 265.471 18.3034C268.386 26.0498 271.412 34.1393 277.886 35.934C283.098 37.2536 286.111 30.0615 288.899 21.0351C291.701 11.7974 294.504 0.61995 299.296 -5.56924M204.491 11.8766C212.898 12.6288 216.808 17.8679 220.114 23.4764C223.421 29.085 226.406 35.2082 233.061 37.3196C239.717 39.4311 243.767 31.2888 247.354 22.3151C251.137 12.8532 254.5 2.77099 260.119 3.39123C265.737 4.01147 268.414 11.5071 271.23 19.2271C274.13 27.1451 277.171 35.5117 283.631 37.1877C288.857 38.3886 291.814 30.8797 294.616 21.5101C297.418 12.1406 300.221 0.659539 305.055 -5.62203M210.25 12.3649C218.657 13.2095 222.567 18.7388 225.873 24.5321C229.18 30.3254 232.165 36.8577 238.806 39.1144C245.42 41.5821 249.483 32.8856 253.071 23.5028C256.854 13.6318 260.259 3.1009 265.877 3.70795C271.496 4.31499 274.13 12.0878 276.947 20.0981C279.847 28.346 282.916 36.8314 289.361 38.3226C294.574 39.2463 297.572 31.4999 300.361 21.906C303.149 12.3121 305.966 0.685931 310.772 -5.63523M215.967 12.8796C224.374 13.9221 228.297 19.6362 231.59 25.7462C235.009 32.0806 237.882 38.6525 244.523 41.107C251.165 43.5616 255.242 34.6143 258.829 24.7961C262.613 14.4632 265.976 3.47041 271.594 4.11704C277.213 4.76367 279.875 12.7476 282.706 20.9691C285.536 29.1905 288.647 38.0058 295.106 39.1803C300.333 39.9589 303.275 31.8694 306.092 22.104C308.908 12.3385 311.697 0.712324 316.531 -5.60883M221.726 13.6054C230.133 14.6875 234.042 20.7315 237.349 27.0923C240.768 33.6906 243.641 40.6188 250.282 43.1789C256.924 45.739 260.987 36.3827 264.588 26.0893C268.358 15.2813 271.734 3.82672 277.339 4.46015C282.944 5.09359 285.634 13.2755 288.465 21.6817C291.295 30.0879 294.392 38.8372 300.865 39.827C306.092 40.2493 309.006 32.041 311.837 22.0512C314.667 12.0614 317.441 0.659539 322.276 -5.66162M227.443 14.318C235.85 15.5585 239.773 21.84 243.066 28.5175C246.499 35.4721 249.357 42.6774 255.999 45.3695C262.641 48.0616 266.718 38.1246 270.305 27.3826C274.074 16.0863 277.437 4.16983 283.042 4.77687C288.647 5.38391 291.323 13.7505 294.154 22.2491C296.984 30.7477 300.123 39.5894 306.582 40.1041C311.809 40.1701 314.779 31.7903 317.596 21.8664C320.412 11.9426 323.2 0.54077 328.006 -5.60883M233.202 15.1626C241.609 16.4822 245.518 23.0805 248.825 30.0615C252.244 37.28 255.116 44.8417 261.758 47.5998C268.4 50.3578 272.463 39.8534 276.064 28.5967C279.819 16.8385 283.21 4.48655 288.815 5.0672C294.42 5.64785 297.068 14.1069 299.941 22.6978C302.813 31.2888 305.868 39.8534 312.341 39.9721C317.568 39.8534 320.468 31.2756 323.312 21.3122C326.157 11.3488 328.917 0.382411 333.751 -5.60883M238.96 16.0466C247.368 17.4718 251.249 24.3604 254.542 31.6449C257.961 39.2066 260.833 47.0585 267.475 49.8034C274.116 52.5483 278.18 41.4632 281.781 29.7446C285.55 17.485 288.927 4.75029 294.546 5.27815C300.165 5.80601 302.799 14.3046 305.657 22.8692C308.516 31.4338 311.626 39.8004 318.072 39.5892C323.298 38.8898 326.241 30.4572 329.085 20.5994C331.93 10.7415 334.69 0.131486 339.482 -5.64861M244.677 17.0101C253.085 18.4881 256.994 25.7066 260.301 33.2815C263.72 41.1994 266.592 49.2625 273.234 51.9546C279.875 54.6467 283.925 42.915 287.54 30.7213C291.281 18.0658 294.686 4.96162 300.291 5.4367C305.896 5.91178 308.544 14.4236 311.416 22.843C314.289 31.2624 317.343 39.4971 323.817 38.6789C329.029 37.7947 331.916 29.2961 334.788 19.6494C337.591 10.3194 340.393 -0.145452 345.227 -5.62203M250.422 18.0262C258.829 19.557 262.753 27.0791 266.046 34.9179C269.465 43.0601 272.337 51.4532 278.993 53.9869C285.606 56.2303 289.614 44.2214 293.257 31.5527C296.984 18.5145 300.445 5.15957 306.05 5.55547C311.654 5.95137 314.275 14.3312 317.161 22.711C319.964 30.8401 323.102 38.6657 329.576 37.5704C334.368 36.3695 337.17 29.3489 339.833 20.8767C342.397 12.708 344.877 3.43082 348.73 -2.69239M256.153 19.082C264.56 20.6392 268.456 28.4251 271.762 36.5542C275.069 44.6833 278.068 53.459 284.71 55.7684C291.323 57.7875 295.387 45.2112 299.002 32.1598C302.743 18.7388 306.162 5.18596 311.767 5.48948C317.371 5.79301 320.006 14.0541 322.892 22.104C325.779 30.1539 328.819 37.5176 335.293 35.9076C338.613 34.9838 341.01 31.1304 343.083 26.1421C345.157 21.1538 346.839 15.3869 348.688 9.71239M261.898 20.1641C270.305 21.7081 274.215 29.7316 277.521 38.0454C280.94 46.6364 283.813 55.3066 290.468 57.4048C297.082 58.896 301.089 45.8446 304.761 32.4105C308.432 18.9764 311.907 5.15957 317.526 5.41031C323.144 5.66104 325.723 13.645 328.637 21.4441C331.439 28.887 334.578 35.9604 341.052 33.9413C344.33 32.7404 346.656 29.1773 348.73 24.5717M267.629 21.233C276.036 22.711 279.889 30.9589 283.21 39.4311C286.531 47.9033 289.502 56.9429 296.157 58.5001C302.771 59.5691 306.778 46.1481 310.449 32.4633C314.121 18.7784 317.61 5.09359 323.214 5.19916C328.819 5.30473 331.425 13.0247 334.34 20.4412C337.142 27.5937 340.309 34.0337 346.74 31.7111C347.439 31.4395 348.099 31.0847 348.702 30.6554M273.374 22.2623C281.781 23.6612 285.648 32.041 288.997 40.6584C292.346 49.2757 295.289 58.1174 301.944 59.2787C308.558 59.9386 312.551 45.9766 316.236 32.1994C319.922 18.4221 323.383 4.86925 329.001 4.92203C333.976 4.92203 336.582 10.8077 339.188 17.0365C341.654 22.9354 344.162 29.0982 348.73 29.9427M279.133 23.2389C287.54 24.453 291.421 32.9648 294.756 41.5689C298.091 50.1731 301.047 59.0016 307.689 59.6746C314.303 59.4899 318.226 45.5543 321.953 31.5527C325.596 17.8943 329.141 4.60531 334.76 4.53933C338.403 4.46015 340.799 7.49536 342.831 11.4279C344.863 15.3605 346.558 19.9001 348.73 23.3049M284.85 24.1099C293.257 25.1128 297.096 33.6642 300.473 42.2683C303.85 50.8725 306.764 59.4239 313.42 59.3447C320.034 58.6981 324.013 44.4986 327.712 30.7477C331.411 16.9969 334.886 4.22262 340.491 4.06426C344.246 3.8927 346.67 6.84873 348.744 10.6625M290.609 24.8885C299.016 25.6539 302.855 34.1261 306.232 42.5587C309.609 50.9913 312.523 59.1864 319.165 58.6849C325.779 57.3652 329.702 43.1129 333.471 29.4149C337.072 16.2843 340.617 3.77393 346.236 3.5232C347.086 3.48338 347.935 3.60918 348.73 3.8927M296.367 25.4427C304.775 25.8782 308.572 34.324 311.949 42.5059C315.326 50.6878 318.24 58.7245 324.896 57.3784C330.823 55.6365 334.606 44.1027 338.039 32.1598C341.402 20.494 344.4 8.64347 348.73 4.44696M302.084 25.865C310.491 25.9706 314.247 34.1393 317.708 42.2551C320.972 49.9224 323.999 57.4576 330.641 55.6101C335.082 53.9869 338.277 47.1643 341.08 38.7449C343.784 30.6686 346.166 21.4441 348.73 14.252M307.843 26.1025C316.25 25.799 320.062 33.6906 323.467 41.3446C326.872 48.9986 329.758 55.8608 336.4 53.4194C339.118 52.2054 341.416 48.9194 343.406 44.7625C345.499 40.1721 347.277 35.4601 348.73 30.6554M313.56 25.9838C321.967 25.3107 325.722 32.9648 329.183 40.2097C332.434 47.0455 335.475 53.6702 342.116 50.5294C344.653 49.2097 346.796 46.3593 348.73 42.7302M319.319 25.6802C327.726 24.6773 331.495 31.7639 334.928 38.5733C338.207 45.0396 341.22 50.8989 347.875 47.3754C348.156 47.2171 348.45 47.0191 348.73 46.8475M325.078 25.0732C332.308 23.8459 336.007 28.7155 339.202 34.0205C342.159 38.9164 344.597 44.4854 348.744 45.3036M330.781 24.1231C335.965 23.0937 339.356 25.1128 341.99 28.082C344.625 31.0513 346.572 34.6803 348.674 37.7683M336.54 23.0013C342.299 21.5233 345.942 23.7536 348.73 27.0395M-8.65871 45.132C46.9828 81.8977 43.9281 56.811 70.719 51.4664C110.415 43.5484 88.4021 109.861 152.269 58.0647C172.824 41.3974 198.116 43.8651 226.532 77.1469C298.567 161.605 300.389 32.4105 348.758 48.2068M-8.65871 49.5924C46.1 82.7554 46.3662 57.5896 73.3532 52.2318C113.988 44.3138 87.8416 111.893 153.53 61.3242C175.472 44.9604 199.265 44.1687 228.732 76.4079C299.604 158.227 301.398 35.0366 348.73 50.2391M-8.65871 54.1057C45.2172 83.666 48.7903 58.421 75.9875 53.1027C117.617 45.0132 87.2811 114.031 154.791 64.6893C178.135 48.5631 200.372 44.4722 230.96 75.6953C300.683 154.756 302.421 37.7023 348.66 52.3241M-8.67272 58.5133C44.3205 84.4578 51.2564 59.1468 78.6357 53.8417C121.204 45.6467 86.7206 116.024 156.066 67.8961C180.783 52.0602 201.549 44.7493 233.132 74.9563C301.692 151.312 303.415 40.3285 348.674 54.3696M-8.67272 62.9738C43.4377 85.3288 53.7085 59.9254 81.27 54.6203C124.805 46.3197 86.1602 118.069 157.327 71.1556C183.445 55.6761 202.684 45.0264 235.415 74.2041C302.813 147.867 304.494 42.9546 348.73 56.4019M-8.67272 67.4342C42.555 86.1865 56.1466 60.704 83.9043 55.4253C128.392 47.0191 85.5997 120.089 158.588 74.4416C186.093 59.2523 203.833 45.4091 237.629 73.4914C303.878 144.449 305.531 45.6071 348.73 58.4737M-8.67272 71.8947C41.6722 87.0443 58.5847 61.4826 86.6086 56.1775C132.063 47.6789 85.1093 122.16 159.919 77.6748C188.826 62.789 205.052 45.5939 239.927 72.7128C305.027 140.979 306.638 48.2068 348.8 60.4928M-8.67272 76.3551C40.7755 87.9021 61.0508 62.2612 89.1728 56.9693C135.594 48.352 84.4787 124.272 161.124 80.9343C191.404 66.4181 206.117 45.871 242.085 71.9606C306.022 137.534 307.605 50.8461 348.73 62.5251M-8.68673 80.8155C39.8927 88.7335 63.4888 63.0397 91.807 57.7479C139.181 49.025 83.9323 126.251 162.385 84.1411C194.066 69.9416 207.265 46.1877 244.313 71.2612C307.087 134.13 308.628 53.5118 348.73 64.6629M-8.68673 85.2628C38.9539 89.6177 65.9409 63.8184 94.4412 58.5265C142.782 49.7112 83.3718 128.297 163.646 87.4534C196.714 73.4651 208.4 46.4385 246.541 70.4694C308.194 130.646 309.665 56.0984 348.73 66.616M-8.68673 89.7364C38.1272 90.4886 68.379 64.6629 97.0895 59.3843C146.37 50.4634 82.8113 130.421 164.907 90.7922C199.363 77.1073 209.549 46.7948 248.769 69.8096C309.23 127.281 310.702 58.8037 348.73 68.7275M-8.68673 94.1837C37.2304 91.3332 70.8311 65.3755 99.7237 60.0837C149.929 51.0573 82.2508 132.388 166.182 93.9725C202.025 80.578 210.698 46.9927 250.997 68.9782C310.295 123.757 311.739 61.3506 348.73 70.6938M-8.68673 98.6441C36.3477 92.191 73.2692 66.1541 102.358 60.8755C153.558 51.7435 81.6904 134.433 167.443 97.2321C204.673 84.1411 211.833 47.283 253.225 68.1996C311.36 120.286 312.761 63.9503 348.73 72.7128M-8.68673 103.105C35.4649 93.0488 75.6652 66.9328 104.992 61.6541C157.159 52.4165 81.1719 136.479 168.705 100.492C207.378 87.691 212.982 47.5074 255.439 67.487C312.467 116.869 313.868 66.6028 348.73 74.7715M-8.70074 107.565C34.5682 93.9066 78.1734 67.7113 107.598 62.4327C160.76 53.0895 80.5694 138.564 169.966 103.751C209.984 91.254 214.117 47.8373 257.666 66.7348C313.504 113.424 314.835 69.229 348.744 76.817M-8.70074 112.025C33.6854 94.7643 80.6114 68.4768 110.261 63.1981C164.347 53.7626 80.0089 140.556 171.227 107.011C212.646 94.8039 215.266 48.1144 259.894 65.9826C314.541 109.967 315.942 71.8419 348.73 78.8361M-8.70074 116.486C32.8027 95.6221 83.0635 69.2817 112.895 64.0031C167.948 54.4488 79.4485 142.602 172.502 110.283C215.294 98.4066 216.415 48.4047 262.178 65.2436C315.69 106.536 316.951 74.4812 348.786 80.8947M-8.70074 120.946C31.9199 96.4799 85.4736 70.0603 115.543 64.7817C171.591 55.1218 78.888 144.647 173.763 113.609C217.957 101.996 217.55 48.7479 264.35 64.5574C316.699 103.157 317.932 77.1733 348.73 83.0326M-8.70074 125.367C31.0231 97.2981 87.9817 70.7993 118.177 65.5207C175.136 55.7684 78.3415 146.653 175.024 116.763C220.605 105.44 218.699 48.9194 266.578 63.7128C317.778 99.6075 318.969 79.6938 348.73 84.9329M-8.70074 129.867C30.1404 98.1954 90.3918 71.6175 120.812 66.3389C178.737 56.4811 77.781 148.738 176.285 120.089C223.253 109.069 219.834 49.2757 268.764 63.0266C318.801 96.2291 319.964 82.3859 348.632 87.0443M-8.71476 134.328C29.2576 99.0532 92.8439 72.3961 123.446 67.1307C182.296 57.1541 77.2065 150.784 177.56 123.322C225.915 112.606 220.997 49.5265 271.02 62.2612C319.908 92.7584 321.029 84.9989 348.73 89.0634M-8.71476 138.788C28.3749 99.911 95.282 73.1747 126.108 67.9093C185.953 57.8403 76.6881 152.829 178.849 126.581C228.564 116.13 222.132 49.8036 273.234 61.509C320.972 89.3141 322.065 87.625 348.73 91.0561M-8.71476 143.249C27.4781 100.769 97.7761 73.9533 128.714 68.6879C189.512 58.5133 76.0996 154.875 180.082 129.841C231.198 119.719 223.267 50.1467 275.476 60.7699C322.051 85.8434 323.116 90.2511 348.73 93.1411M-8.71476 147.709C26.6234 101.613 100.172 74.7319 131.349 69.4665C193.113 59.1864 75.5391 156.92 181.343 133.1C233.874 123.269 224.416 50.371 277.704 60.0177C323.116 82.4519 324.139 92.8772 348.73 95.1866M-8.71476 152.169C25.7126 102.484 102.624 75.5105 133.983 70.2583C196.7 59.8726 74.9786 158.966 182.604 136.36C236.536 126.832 225.551 50.6482 279.931 59.2655C324.181 78.9812 325.162 95.5033 348.73 97.2189M-8.72877 156.63C24.8158 103.342 105.09 76.2891 136.631 71.0369C200.302 60.5456 74.4181 161.011 183.88 139.659C239.185 130.421 226.7 50.9649 282.159 58.5661C325.246 75.5765 326.199 98.1558 348.73 99.3039M-8.72877 161.09C23.9331 104.253 107.514 77.0677 139.265 71.8155C203.903 61.2582 73.8577 163.057 185.141 142.879C241.847 133.945 227.849 51.2156 284.443 57.7743C326.381 72.0926 327.292 100.756 348.786 101.323M-8.72877 165.551C23.0503 105.058 109.966 77.8595 141.9 72.5809C207.49 61.8917 73.2411 165.089 186.402 146.139C244.495 137.495 228.984 51.4796 286.615 57.0221C327.39 68.6351 328.273 103.369 348.73 103.329M-8.72877 170.011C22.1676 105.915 112.405 78.6249 144.534 73.3727C211.091 62.5779 72.7507 167.148 187.663 149.411C247.143 141.071 230.133 51.7567 288.829 56.2831C328.455 65.204 329.296 106.008 348.73 105.388M-8.72877 174.472C21.2708 106.773 114.857 79.4563 147.168 74.1777C214.678 63.2641 72.1902 169.193 188.938 152.684C249.806 144.634 231.268 52.0734 291.057 55.5441C329.52 61.7729 330.29 108.647 348.73 107.446M-8.72877 178.932C20.3881 107.671 117.295 80.1821 149.802 74.9431C218.279 63.9371 71.6298 171.278 190.199 155.93C252.454 148.184 232.417 52.3373 293.285 54.7919C330.599 58.3154 331.369 111.26 348.73 109.465M348.66 156.867C293.005 120.089 296.073 145.162 269.268 150.507C229.572 158.425 251.599 92.1118 187.733 143.908C167.177 160.576 141.886 158.108 113.469 124.826C41.434 40.368 39.6125 169.563 -8.75679 153.766M348.66 152.407C293.901 119.244 293.621 144.41 266.634 149.768C225.999 157.752 252.16 90.1059 186.458 140.675C164.515 157.039 140.737 157.831 111.27 125.592C40.3831 43.7991 38.5896 166.923 -8.74278 151.76M348.66 147.947C294.784 118.386 291.211 143.631 264 148.949C222.384 157.039 252.79 88.0209 185.197 137.376C161.867 153.436 139.588 157.527 109.042 126.304C39.3182 47.2435 37.5807 164.297 -8.74278 149.675M348.66 143.486C295.667 117.528 288.731 142.853 261.366 148.158C218.783 156.366 253.281 85.9754 183.936 134.117C159.204 149.952 138.453 157.25 106.87 127.043C38.2533 50.6878 36.5298 161.671 -8.74278 147.63M348.66 139.026C296.55 116.671 286.293 142.074 258.731 147.379C215.196 155.68 253.827 83.9299 182.675 130.844C156.556 146.323 137.318 157.039 104.586 127.795C37.1744 54.1057 35.493 159.045 -8.74278 145.598M348.674 134.605C297.446 115.852 283.841 141.335 256.097 146.64C211.595 155.046 254.388 81.9768 181.399 127.624C153.894 142.813 136.169 156.656 102.358 128.587C36.1095 57.5764 34.4561 156.419 -8.74278 143.552M348.674 130.118C298.329 114.955 281.417 140.517 253.393 145.822C207.938 154.334 254.878 79.839 180.068 124.325C151.176 139.21 134.95 156.406 100.06 129.287C35.0306 61.0207 33.4332 153.793 -8.74278 141.52M348.674 125.658C299.212 114.097 278.951 139.738 250.815 145.043C204.407 153.647 255.509 77.7407 178.877 121.065C148.583 135.647 133.871 156.128 97.9022 130.039C33.9797 64.465 32.3963 151.153 -8.74278 139.474M348.674 121.197C300.095 113.279 276.499 138.96 248.18 144.251C200.806 152.974 256.069 75.7481 177.616 117.858C145.935 132.15 132.778 155.904 95.6743 130.831C32.9007 67.9621 31.3594 148.593 -8.74278 137.429M348.674 116.737C301.033 112.382 274.06 138.181 245.546 143.473C197.219 152.301 256.63 73.7026 176.341 114.546C143.287 128.534 131.587 155.561 93.4604 131.53C31.8078 71.3536 30.3225 145.901 -8.74278 135.397M348.674 112.276C301.874 111.524 271.608 137.35 242.912 142.628C193.618 151.549 257.19 71.5911 175.08 111.22C140.625 124.919 130.452 155.218 91.2325 132.216C30.7709 74.7319 29.2997 143.209 -8.74278 133.285M348.688 107.816C302.757 110.666 269.17 136.624 240.278 141.916C190.031 150.942 257.751 69.6117 173.819 108.027C137.976 121.408 129.303 155.007 89.0046 133.021C29.706 78.2422 28.2628 140.649 -8.74278 131.306M348.688 103.355C303.654 109.808 266.718 135.845 237.643 141.124C186.43 150.269 258.311 67.5662 172.558 104.767C135.314 117.858 128.154 154.716 86.7767 133.8C28.6271 81.6865 27.2259 138.023 -8.74278 129.326M348.688 98.8949C304.536 108.951 264.28 135.067 235.009 140.345C182.829 149.583 258.829 65.5207 171.297 101.508C132.666 114.308 127.019 154.439 84.5488 134.499C27.5622 85.1176 26.189 135.383 -8.74278 127.215M348.688 94.4344C305.419 108.093 261.814 134.288 232.389 139.567C179.27 148.91 259.446 63.4884 170.05 98.2482C130.032 110.745 125.898 154.162 82.3489 135.265C26.5253 88.5751 25.1942 132.77 -8.72877 125.182M348.688 89.974C306.302 107.235 259.39 133.523 229.727 138.801C175.641 148.25 259.978 61.4562 168.761 95.0019C127.355 107.195 124.707 153.885 80.093 136.004C25.4464 92.0194 24.1293 130.144 -8.74278 123.15M348.702 85.5135C307.199 106.377 256.938 132.731 227.092 137.996C172.053 147.551 260.539 59.3843 167.5 91.7159C124.693 103.593 123.586 153.595 77.8231 136.756C24.2974 95.4637 23.0363 127.518 -8.79883 121.105M348.702 81.0531C308.081 105.572 254.486 131.965 224.458 137.244C168.41 146.904 261.099 57.3784 166.238 88.4828C122.045 100.069 122.437 153.318 75.6652 137.508C23.2885 98.974 22.0555 124.892 -8.74278 119.059M348.702 76.5398C308.964 104.609 252.02 131.121 221.824 136.386C164.865 146.139 261.66 55.2538 164.963 85.144C119.397 96.5195 121.302 153.08 73.4233 138.247C22.2236 102.352 21.0186 122.266 -8.74278 117.027M348.702 72.1322C309.847 103.804 249.596 130.395 219.19 135.661C161.264 145.518 262.22 53.2611 163.702 81.9372C116.734 92.9564 120.153 152.75 71.2234 138.999C21.1867 105.797 20.0238 119.64 -8.6447 114.981M348.702 67.6717C310.744 102.933 247.158 129.616 216.555 134.869C157.705 144.845 262.795 51.2156 162.441 78.6777C114.086 89.3933 119.004 152.473 68.9675 139.738C20.0798 109.241 18.9588 117.014 -8.74278 112.936M348.702 63.2113C311.626 102.088 244.705 128.838 213.921 134.09C154.132 144.159 263.341 49.1702 161.138 75.4182C111.382 85.8434 117.827 152.196 66.6976 140.49C19.0149 112.685 17.922 114.374 -8.74278 110.851M348.716 58.7509C312.467 101.231 242.267 128.006 211.273 133.285C150.475 143.46 263.902 47.0983 159.919 72.1322C108.775 82.2804 116.72 151.919 64.4557 141.203C17.8939 116.13 16.815 111.709 -8.79883 108.819M348.716 54.2904C313.406 100.373 239.815 127.267 208.597 132.533C146.846 142.813 264.42 45.0792 158.602 68.899C106.071 78.7305 115.543 151.628 62.2418 141.982C16.843 119.547 15.8202 109.122 -8.78482 106.813M348.716 49.83C314.289 99.5151 237.377 126.489 205.976 131.754C143.259 142.127 264.981 43.0337 157.355 65.6395C103.465 75.2202 114.436 151.351 60.0699 142.734C15.8202 123.018 14.8253 106.496 -8.74278 104.781M348.716 45.3695C315.172 98.6573 234.925 125.71 203.37 130.963C139.7 141.52 265.569 40.9883 156.122 62.3403C100.803 71.5779 113.287 151.035 57.842 143.433C14.7412 126.462 13.7884 103.87 -8.74278 102.735M348.716 40.9091C316.054 97.7995 232.417 124.932 200.736 130.184C136.099 140.741 266.13 38.9428 154.861 59.1204C98.1544 68.0545 112.096 150.784 55.6141 144.225C13.6763 129.907 12.7656 101.244 -8.74278 100.69M348.716 36.4487C316.951 96.9418 230.035 124.153 198.102 129.405C132.498 140.095 266.76 36.8973 153.586 55.8608C95.5061 64.4914 111.003 150.507 53.3862 144.964C12.6114 133.351 11.7287 98.6177 -8.74278 98.6573M348.73 31.9882C317.904 96.084 227.583 123.375 195.467 128.627C128.911 139.422 267.251 34.8519 152.325 52.5881C92.8439 60.9415 109.868 150.243 51.1583 145.716C11.5465 136.795 10.6918 95.9916 -8.74278 96.6118M348.73 27.5278C318.717 95.2262 225.145 122.543 192.819 127.822C125.31 138.735 267.811 32.8064 151.064 49.3153C90.1956 57.3784 108.719 149.952 48.9304 146.482C10.4676 140.253 9.69695 93.3787 -8.74278 94.5796M348.73 23.0673C319.613 94.3288 222.693 121.817 190.185 127.056C121.723 138.062 268.372 30.7213 149.802 46.069C87.5333 53.8154 107.57 149.662 46.7025 147.208C9.40269 143.684 8.63204 90.7394 -8.74278 92.5341M348.73 18.6069C320.496 93.5106 220.255 121.039 187.593 126.278C118.121 137.389 268.932 28.7155 148.527 42.8094C84.8851 50.2655 106.492 149.385 44.4886 147.96C8.40784 147.128 7.59516 88.1132 -8.74278 90.4886" stroke="url(#paint1_linear_9267_105212)" stroke-width="0.15" stroke-miterlimit="2.61"/>
<path d="M109.1 64H53.9C50.0946 64 47 67.1395 47 71V113C47 116.861 50.0946 120 53.9 120H109.1C112.905 120 116 116.861 116 113V71C116 67.1395 112.905 64 109.1 64ZM70.1667 78C74.1377 78 77.0668 80.9715 77.0668 85C77.0668 89.0285 74.1377 92 70.1667 92C66.1958 92 63.2668 89.0285 63.2668 85C63.2668 80.9715 66.1924 78 70.1667 78ZM82.9835 106H57.35V104.372C57.35 99.567 63.1322 94.625 70.1667 94.625C77.2013 94.625 82.9835 99.567 82.9835 104.372V106ZM105.65 102.5H91.85V95.5H105.65V102.5ZM105.65 88.5H88.4V81.5H105.65V88.5Z" fill="url(#paint2_linear_9267_105212)"/>
<path d="M150.48 70.2V70.296L143.016 78.336L151.104 86.808V87H147.192L140.16 79.56V87H136.992V70.2H140.16V77.304L146.544 70.2H150.48ZM167.856 86.784V87H164.232L159.36 81.384H156.144V87H152.976V70.176C155.64 70.176 158.304 70.2 160.968 70.2C164.928 70.224 167.016 72.864 167.016 75.768C167.016 78.072 165.96 80.4 162.768 81.048L167.856 86.784ZM160.968 73.152H156.144V78.528H160.968C162.984 78.528 163.848 77.184 163.848 75.84C163.848 74.496 162.96 73.152 160.968 73.152ZM182.965 72.96L180.445 74.256C179.869 73.296 178.285 72.384 176.461 72.384C174.109 72.384 172.981 73.368 172.981 74.616C172.981 76.08 174.709 76.488 176.725 76.728C180.229 77.16 183.493 78.072 183.493 82.08C183.493 85.824 180.181 87.432 176.437 87.432C173.005 87.432 170.365 86.376 169.117 83.304L171.757 81.936C172.501 83.784 174.445 84.6 176.485 84.6C178.477 84.6 180.349 83.904 180.349 82.08C180.349 80.496 178.693 79.848 176.461 79.608C173.029 79.2 169.861 78.288 169.861 74.52C169.861 71.064 173.269 69.648 176.365 69.624C178.981 69.624 181.693 70.368 182.965 72.96ZM195.307 79.728V84.048H200.155C201.451 84.048 203.299 83.616 203.299 82.032C203.299 80.52 201.451 79.728 200.155 79.728H195.307ZM195.307 73.08V76.944H200.155C202.147 76.944 202.795 76.104 202.795 75.144C202.795 74.376 202.171 73.08 200.155 73.08H195.307ZM200.155 70.2C203.467 70.2 205.939 71.688 205.939 75.072C205.939 76.368 205.315 77.616 203.755 78.312C205.723 78.912 206.443 81 206.443 82.056C206.443 85.8 203.635 87 200.155 87C197.491 87 194.851 87 192.187 87V70.2C194.827 70.2 197.491 70.2 200.155 70.2ZM220.55 82.128H211.31C211.502 83.592 212.774 84.648 214.838 84.648C215.918 84.648 217.334 84.24 218.006 83.544L219.878 85.392C218.63 86.688 216.59 87.312 214.79 87.312C210.71 87.312 208.286 84.792 208.286 81C208.286 77.4 210.734 74.808 214.574 74.808C218.534 74.808 221.006 77.256 220.55 82.128ZM211.358 79.704H217.742C217.55 78.168 216.35 77.4 214.67 77.4C213.086 77.4 211.79 78.168 211.358 79.704ZM223 70.224H225.904V87H223V70.224ZM228.947 75.168H231.875V81.36C231.875 83.16 232.859 84.528 234.731 84.528C236.531 84.528 237.755 83.016 237.755 81.216V75.168H240.659V87.024H238.043L237.851 85.416C236.627 86.616 235.499 87.192 233.843 87.192C231.011 87.192 228.947 85.056 228.947 81.384V75.168ZM254.634 87H251.706V80.664C251.706 79.104 250.89 77.688 249.282 77.688C247.698 77.688 246.762 79.104 246.762 80.664V87H243.834V75.144H246.546L246.762 76.584C247.386 75.384 248.754 74.952 249.882 74.952C251.298 74.952 252.714 75.528 253.386 77.16C254.442 75.48 255.81 75 257.346 75C260.706 75 262.362 77.064 262.362 80.616V87H259.434V80.616C259.434 79.056 258.786 77.736 257.202 77.736C255.618 77.736 254.634 79.104 254.634 80.664V87ZM142.176 106.616C140.304 106.616 138.816 107.936 138.816 110.072C138.816 112.136 140.304 113.552 142.176 113.552C144.024 113.552 145.608 112.208 145.608 110.072C145.608 108.008 144.024 106.616 142.176 106.616ZM145.8 99.224H148.728V116H145.992L145.8 114.368C144.888 115.784 143.424 116.264 141.984 116.264C138.504 116.264 135.888 113.96 135.888 110.072C135.888 105.992 138.456 103.88 141.912 103.88C143.16 103.88 145.104 104.552 145.8 105.776V99.224ZM154.817 104.12V116H151.889V104.12H154.817ZM151.625 100.832C151.625 103.112 155.081 103.112 155.081 100.832C155.081 98.552 151.625 98.552 151.625 100.832ZM167.267 116V102.08H161.939V99.2C166.787 99.2 170.891 99.2 175.763 99.2V102.08H170.435V116H167.267ZM184.449 105.8L184.545 104.168H187.353V116H184.593L184.449 114.272C183.777 115.664 181.929 116.336 180.609 116.36C177.105 116.384 174.513 114.224 174.513 110.072C174.513 105.992 177.225 103.856 180.681 103.88C182.265 103.88 183.777 104.624 184.449 105.8ZM180.945 106.496C179.001 106.496 177.441 107.816 177.441 110.072C177.441 112.328 179.001 113.672 180.945 113.672C185.553 113.672 185.553 106.496 180.945 106.496ZM201.314 116H198.386V109.664C198.386 108.104 197.57 106.688 195.962 106.688C194.378 106.688 193.442 108.104 193.442 109.664V116H190.514V104.144H193.226L193.442 105.584C194.066 104.384 195.434 103.952 196.562 103.952C197.978 103.952 199.394 104.528 200.066 106.16C201.122 104.48 202.49 104 204.026 104C207.386 104 209.042 106.064 209.042 109.616V116H206.114V109.616C206.114 108.056 205.466 106.736 203.882 106.736C202.298 106.736 201.314 108.104 201.314 109.664V116ZM218.605 106.616C216.757 106.616 215.173 108.008 215.173 110.072C215.173 112.208 216.757 113.552 218.605 113.552C220.477 113.552 221.965 112.136 221.965 110.072C221.965 107.936 220.477 106.616 218.605 106.616ZM212.053 99.224H214.981V105.776C215.677 104.552 217.621 103.88 218.869 103.88C222.325 103.88 224.893 105.992 224.893 110.072C224.893 113.96 222.277 116.264 218.797 116.264C217.357 116.264 215.893 115.784 214.981 114.368L214.789 116H212.053V99.224ZM236.597 105.8L236.693 104.168H239.501V116H236.741L236.597 114.272C235.925 115.664 234.077 116.336 232.757 116.36C229.253 116.384 226.661 114.224 226.661 110.072C226.661 105.992 229.373 103.856 232.829 103.88C234.413 103.88 235.925 104.624 236.597 105.8ZM233.093 106.496C231.149 106.496 229.589 107.816 229.589 110.072C229.589 112.328 231.149 113.672 233.093 113.672C237.701 113.672 237.701 106.496 233.093 106.496ZM242.662 99.2H245.59V105.776C246.646 104.408 247.942 104 249.286 104C252.646 104 254.134 106.28 254.134 109.76V116H251.206V109.784C251.206 107.624 250.078 106.712 248.518 106.712C246.79 106.712 245.59 108.176 245.59 109.952V116H242.662V99.2ZM257.123 99.224H260.051V108.92L264.035 104.168H267.539V104.336L262.715 109.736L268.211 115.784V116H264.683L260.051 110.648V116H257.123V99.224ZM278.363 105.8L278.459 104.168H281.267V116H278.507L278.363 114.272C277.691 115.664 275.843 116.336 274.523 116.36C271.019 116.384 268.427 114.224 268.427 110.072C268.427 105.992 271.139 103.856 274.595 103.88C276.179 103.88 277.691 104.624 278.363 105.8ZM274.859 106.496C272.915 106.496 271.355 107.816 271.355 110.072C271.355 112.328 272.915 113.672 274.859 113.672C279.467 113.672 279.467 106.496 274.859 106.496ZM296.14 116H293.212V109.808C293.212 108.008 292.228 106.64 290.356 106.64C288.556 106.64 287.332 108.152 287.332 109.952V116H284.428V104.144H287.044L287.236 105.752C288.436 104.576 289.636 103.976 291.124 103.976C293.908 103.976 296.14 106.064 296.14 109.784V116Z" fill="#64748B"/>
</g>
</g>
<rect x="340" y="202" width="340" height="5.99998" transform="rotate(-180 340 202)" fill="url(#paint3_linear_9267_105212)"/>
<rect x="340" y="196" width="340" height="5.99998" transform="rotate(-180 340 196)" fill="url(#paint4_linear_9267_105212)"/>
</g>
<defs>
<linearGradient id="paint0_linear_9267_105212" x1="-13.4988" y1="-20.4998" x2="343.501" y2="208.001" gradientUnits="userSpaceOnUse">
<stop stop-color="#A6B3D7"/>
<stop offset="0.262458" stop-color="#E6F6F5"/>
<stop offset="0.505034" stop-color="#E9ECF5"/>
<stop offset="0.760679" stop-color="#E9ECF5"/>
<stop offset="1" stop-color="#B3E5E2" stop-opacity="0.5"/>
</linearGradient>
<linearGradient id="paint1_linear_9267_105212" x1="170.001" y1="227.5" x2="170.001" y2="-6" gradientUnits="userSpaceOnUse">
<stop stop-color="#A6B3D7"/>
<stop offset="0.409238" stop-color="#21409A" stop-opacity="0.05"/>
<stop offset="0.569703" stop-color="#21409A" stop-opacity="0"/>
<stop offset="0.671684" stop-color="#21409A" stop-opacity="0.05"/>
<stop offset="1" stop-color="#00A79D"/>
</linearGradient>
<linearGradient id="paint2_linear_9267_105212" x1="81.592" y1="81.9112" x2="81.592" y2="124.752" gradientUnits="userSpaceOnUse">
<stop stop-color="#21409A"/>
<stop offset="1" stop-color="#00A79D"/>
</linearGradient>
<linearGradient id="paint3_linear_9267_105212" x1="382" y1="204.727" x2="671.5" y2="204.727" gradientUnits="userSpaceOnUse">
<stop stop-color="#21409A"/>
<stop offset="1" stop-color="#00A79D"/>
</linearGradient>
<linearGradient id="paint4_linear_9267_105212" x1="680" y1="198.727" x2="426.5" y2="198.727" gradientUnits="userSpaceOnUse">
<stop stop-color="#21409A"/>
<stop offset="0.754166" stop-color="#00A79D"/>
<stop offset="1" stop-color="#00A79D"/>
</linearGradient>
<clipPath id="clip0_9267_105212">
<rect width="340" height="202" rx="8" fill="white"/>
</clipPath>
<clipPath id="clip1_9267_105212">
<rect width="340" height="202" rx="8" fill="white"/>
</clipPath>
<clipPath id="clip2_9267_105212">
<rect width="340" height="202" fill="white"/>
</clipPath>
</defs>
</svg>
