<svg width="44" height="45" viewBox="0 0 44 45" xmlns="http://www.w3.org/2000/svg">
    <defs>
        <filter x="-1.4%" y="-1.7%" width="102.9%" height="103.4%" filterUnits="objectBoundingBox" id="a">
            <feOffset dy="2" in="SourceAlpha" result="shadowOffsetOuter1"/>
            <feGaussianBlur stdDeviation="2.5" in="shadowOffsetOuter1" result="shadowBlurOuter1"/>
            <feColorMatrix values="0 0 0 0 0.71372549 0 0 0 0 0.71372549 0 0 0 0 0.71372549 0 0 0 0.2 0" in="shadowBlurOuter1" result="shadowMatrixOuter1"/>
            <feMerge>
                <feMergeNode in="shadowMatrixOuter1"/>
                <feMergeNode in="SourceGraphic"/>
            </feMerge>
        </filter>
    </defs>
    <g filter="url(#a)" transform="translate(-743 -107)" fill="#F6F6F6" fill-rule="evenodd">
        <path d="M771 129h-12c-3.311 0-6-2.689-6-6s2.689-6 6-6h12.039a6.003 6.003 0 0 1 5.961 6c0 3.311-2.688 6-6 6zm0-10h-12c-2.208 0-4 1.792-4 4s1.792 4 4 4h12c2.208 0 4-1.792 4-4a4.002 4.002 0 0 0-3.974-4H771zm-12 1a3.001 3.001 0 0 1 0 6 3.001 3.001 0 0 1 0-6zM759 142h12c3.311 0 6-2.689 6-6s-2.689-6-6-6h-12.039a6.003 6.003 0 0 0-5.961 6c0 3.311 2.688 6 6 6zm0-10h12c2.208 0 4 1.792 4 4s-1.792 4-4 4h-12c-2.208 0-4-1.792-4-4a4.002 4.002 0 0 1 3.974-4H759zm12 1a3.001 3.001 0 0 0 0 6 3.001 3.001 0 0 0 0-6z"/>
    </g>
</svg>
