<svg width="100" height="100" viewBox="0 0 100 100" fill="none" xmlns="http://www.w3.org/2000/svg">
    <rect x="0.5" y="0.5" width="99" height="99" rx="7.5" fill="#E9ECF5"/>
    <path fill-rule="evenodd" clip-rule="evenodd" d="M37.5 31.375C37.5 30.8227 37.9477 30.375 38.5 30.375H42.1301C42.3688 30.375 42.5996 30.2896 42.7809 30.1343L46.5941 26.8657C46.7754 26.7104 47.0062 26.625 47.2449 26.625H50H52.7551C52.9938 26.625 53.2246 26.7104 53.4059 26.8657L57.2191 30.1343C57.4004 30.2896 57.6312 30.375 57.8699 30.375H61.5C62.0523 30.375 62.5 30.8227 62.5 31.375V49.375C62.5 49.9273 62.0523 50.375 61.5 50.375H38.5C37.9477 50.375 37.5 49.9273 37.5 49.375V31.375ZM43.75 40.375C43.75 36.9232 46.5482 34.125 50 34.125C53.4518 34.125 56.25 36.9232 56.25 40.375C56.25 43.8268 53.4518 46.625 50 46.625C46.5482 46.625 43.75 43.8268 43.75 40.375ZM53.75 40.375C53.75 38.3039 52.0711 36.625 50 36.625C47.9289 36.625 46.25 38.3039 46.25 40.375C46.25 42.4461 47.9289 44.125 50 44.125C52.0711 44.125 53.75 42.4461 53.75 40.375ZM60 32.875H56.25V35.375H60V32.875Z" fill="#D8D8D8"/>
    <mask id="mask0_1812_147256" style="mask-type:luminance" maskUnits="userSpaceOnUse" x="37" y="26" width="26" height="25">
        <path fill-rule="evenodd" clip-rule="evenodd" d="M37.5 31.375C37.5 30.8227 37.9477 30.375 38.5 30.375H42.1301C42.3688 30.375 42.5996 30.2896 42.7809 30.1343L46.5941 26.8657C46.7754 26.7104 47.0062 26.625 47.2449 26.625H50H52.7551C52.9938 26.625 53.2246 26.7104 53.4059 26.8657L57.2191 30.1343C57.4004 30.2896 57.6312 30.375 57.8699 30.375H61.5C62.0523 30.375 62.5 30.8227 62.5 31.375V49.375C62.5 49.9273 62.0523 50.375 61.5 50.375H38.5C37.9477 50.375 37.5 49.9273 37.5 49.375V31.375ZM43.75 40.375C43.75 36.9232 46.5482 34.125 50 34.125C53.4518 34.125 56.25 36.9232 56.25 40.375C56.25 43.8268 53.4518 46.625 50 46.625C46.5482 46.625 43.75 43.8268 43.75 40.375ZM53.75 40.375C53.75 38.3039 52.0711 36.625 50 36.625C47.9289 36.625 46.25 38.3039 46.25 40.375C46.25 42.4461 47.9289 44.125 50 44.125C52.0711 44.125 53.75 42.4461 53.75 40.375ZM60 32.875H56.25V35.375H60V32.875Z" fill="white"/>
    </mask>
    <g mask="url(#mask0_1812_147256)">
        <rect x="35" y="23.5" width="30" height="30" fill="#334155"/>
    </g>
    <path d="M11.6229 73.5V64.799H8.26988V63.42H16.4389V64.799H13.0859V73.5H11.6229ZM18.7097 73.71C18.1497 73.71 17.6807 73.6073 17.3027 73.402C16.9247 73.192 16.6377 72.9167 16.4417 72.576C16.2504 72.2307 16.1547 71.8527 16.1547 71.442C16.1547 71.0593 16.2224 70.7233 16.3577 70.434C16.4931 70.1447 16.6937 69.8997 16.9597 69.699C17.2257 69.4937 17.5524 69.328 17.9397 69.202C18.2757 69.104 18.6561 69.0177 19.0807 68.943C19.5054 68.8683 19.9511 68.7983 20.4177 68.733C20.8891 68.6677 21.3557 68.6023 21.8177 68.537L21.2857 68.831C21.2951 68.2383 21.1691 67.7997 20.9077 67.515C20.6511 67.2257 20.2077 67.081 19.5777 67.081C19.1811 67.081 18.8171 67.1743 18.4857 67.361C18.1544 67.543 17.9234 67.8463 17.7927 68.271L16.4277 67.851C16.6144 67.2023 16.9691 66.6867 17.4917 66.304C18.0191 65.9213 18.7191 65.73 19.5917 65.73C20.2684 65.73 20.8564 65.8467 21.3557 66.08C21.8597 66.3087 22.2284 66.6727 22.4617 67.172C22.5831 67.4193 22.6577 67.6807 22.6857 67.956C22.7137 68.2313 22.7277 68.5277 22.7277 68.845V73.5H21.4327V71.771L21.6847 71.995C21.3721 72.5737 20.9731 73.0053 20.4877 73.29C20.0071 73.57 19.4144 73.71 18.7097 73.71ZM18.9687 72.513C19.3841 72.513 19.7411 72.4407 20.0397 72.296C20.3384 72.1467 20.5787 71.9577 20.7607 71.729C20.9427 71.5003 21.0617 71.2623 21.1177 71.015C21.1971 70.791 21.2414 70.539 21.2507 70.259C21.2647 69.979 21.2717 69.755 21.2717 69.587L21.7477 69.762C21.2857 69.832 20.8657 69.895 20.4877 69.951C20.1097 70.007 19.7667 70.063 19.4587 70.119C19.1554 70.1703 18.8847 70.2333 18.6467 70.308C18.4461 70.378 18.2664 70.462 18.1077 70.56C17.9537 70.658 17.8301 70.777 17.7367 70.917C17.6481 71.057 17.6037 71.2273 17.6037 71.428C17.6037 71.624 17.6527 71.806 17.7507 71.974C17.8487 72.1373 17.9981 72.268 18.1987 72.366C18.3994 72.464 18.6561 72.513 18.9687 72.513ZM33.6034 73.5L33.6104 68.789C33.6104 68.243 33.4704 67.8183 33.1904 67.515C32.9104 67.207 32.5418 67.053 32.0844 67.053C31.8044 67.053 31.5478 67.1183 31.3144 67.249C31.0858 67.375 30.8991 67.5663 30.7544 67.823C30.6144 68.075 30.5444 68.3923 30.5444 68.775L29.8374 68.418C29.8281 67.886 29.9401 67.4193 30.1734 67.018C30.4114 66.6167 30.7334 66.3063 31.1394 66.087C31.5454 65.863 32.0004 65.751 32.5044 65.751C33.3211 65.751 33.9534 65.996 34.4014 66.486C34.8494 66.976 35.0734 67.627 35.0734 68.439L35.0664 73.5H33.6034ZM24.5384 73.5V65.94H25.8404V68.124H26.0084V73.5H24.5384ZM29.0744 73.5L29.0814 68.817C29.0814 68.2663 28.9414 67.8347 28.6614 67.522C28.3861 67.2093 28.0151 67.053 27.5484 67.053C27.0864 67.053 26.7131 67.2117 26.4284 67.529C26.1484 67.8463 26.0084 68.2617 26.0084 68.775L25.3084 68.327C25.3084 67.8323 25.4274 67.3913 25.6654 67.004C25.9034 66.6167 26.2254 66.311 26.6314 66.087C27.0374 65.863 27.4971 65.751 28.0104 65.751C28.5471 65.751 29.0044 65.8653 29.3824 66.094C29.7604 66.318 30.0474 66.633 30.2434 67.039C30.4441 67.445 30.5444 67.9163 30.5444 68.453L30.5374 73.5H29.0744ZM40.4401 73.71C39.7168 73.71 39.1101 73.535 38.6201 73.185C38.1301 72.8303 37.7591 72.352 37.5071 71.75C37.2551 71.148 37.1291 70.469 37.1291 69.713C37.1291 68.957 37.2528 68.278 37.5001 67.676C37.7521 67.074 38.1208 66.6003 38.6061 66.255C39.0961 65.905 39.6981 65.73 40.4121 65.73C41.1215 65.73 41.7328 65.905 42.2461 66.255C42.7641 66.6003 43.1631 67.074 43.4431 67.676C43.7231 68.2733 43.8631 68.9523 43.8631 69.713C43.8631 70.469 43.7231 71.1503 43.4431 71.757C43.1678 72.359 42.7735 72.835 42.2601 73.185C41.7515 73.535 41.1448 73.71 40.4401 73.71ZM36.8841 73.5V63.42H38.3541V68.061H38.1861V73.5H36.8841ZM40.2371 72.387C40.7038 72.387 41.0888 72.268 41.3921 72.03C41.7001 71.792 41.9288 71.4723 42.0781 71.071C42.2321 70.665 42.3091 70.2123 42.3091 69.713C42.3091 69.2183 42.2321 68.7703 42.0781 68.369C41.9288 67.9677 41.6978 67.648 41.3851 67.41C41.0725 67.172 40.6735 67.053 40.1881 67.053C39.7308 67.053 39.3528 67.165 39.0541 67.389C38.7601 67.613 38.5408 67.9257 38.3961 68.327C38.2561 68.7283 38.1861 69.1903 38.1861 69.713C38.1861 70.2357 38.2561 70.6977 38.3961 71.099C38.5361 71.5003 38.7578 71.8153 39.0611 72.044C39.3645 72.2727 39.7565 72.387 40.2371 72.387ZM47.5437 73.71C46.9837 73.71 46.5147 73.6073 46.1367 73.402C45.7587 73.192 45.4717 72.9167 45.2757 72.576C45.0844 72.2307 44.9887 71.8527 44.9887 71.442C44.9887 71.0593 45.0564 70.7233 45.1917 70.434C45.327 70.1447 45.5277 69.8997 45.7937 69.699C46.0597 69.4937 46.3864 69.328 46.7737 69.202C47.1097 69.104 47.49 69.0177 47.9147 68.943C48.3394 68.8683 48.785 68.7983 49.2517 68.733C49.723 68.6677 50.1897 68.6023 50.6517 68.537L50.1197 68.831C50.129 68.2383 50.003 67.7997 49.7417 67.515C49.485 67.2257 49.0417 67.081 48.4117 67.081C48.015 67.081 47.651 67.1743 47.3197 67.361C46.9884 67.543 46.7574 67.8463 46.6267 68.271L45.2617 67.851C45.4484 67.2023 45.803 66.6867 46.3257 66.304C46.853 65.9213 47.553 65.73 48.4257 65.73C49.1024 65.73 49.6904 65.8467 50.1897 66.08C50.6937 66.3087 51.0624 66.6727 51.2957 67.172C51.417 67.4193 51.4917 67.6807 51.5197 67.956C51.5477 68.2313 51.5617 68.5277 51.5617 68.845V73.5H50.2667V71.771L50.5187 71.995C50.206 72.5737 49.807 73.0053 49.3217 73.29C48.841 73.57 48.2484 73.71 47.5437 73.71ZM47.8027 72.513C48.218 72.513 48.575 72.4407 48.8737 72.296C49.1724 72.1467 49.4127 71.9577 49.5947 71.729C49.7767 71.5003 49.8957 71.2623 49.9517 71.015C50.031 70.791 50.0754 70.539 50.0847 70.259C50.0987 69.979 50.1057 69.755 50.1057 69.587L50.5817 69.762C50.1197 69.832 49.6997 69.895 49.3217 69.951C48.9437 70.007 48.6007 70.063 48.2927 70.119C47.9894 70.1703 47.7187 70.2333 47.4807 70.308C47.28 70.378 47.1004 70.462 46.9417 70.56C46.7877 70.658 46.664 70.777 46.5707 70.917C46.482 71.057 46.4377 71.2273 46.4377 71.428C46.4377 71.624 46.4867 71.806 46.5847 71.974C46.6827 72.1373 46.832 72.268 47.0327 72.366C47.2334 72.464 47.49 72.513 47.8027 72.513ZM58.6854 73.5V69.783C58.6854 69.489 58.6597 69.188 58.6084 68.88C58.5617 68.5673 58.4684 68.278 58.3284 68.012C58.1931 67.746 57.9994 67.5313 57.7474 67.368C57.5001 67.2047 57.1757 67.123 56.7744 67.123C56.5131 67.123 56.2657 67.1673 56.0324 67.256C55.7991 67.34 55.5937 67.4777 55.4164 67.669C55.2437 67.8603 55.1061 68.1123 55.0034 68.425C54.9054 68.7377 54.8564 69.118 54.8564 69.566L53.9464 69.223C53.9464 68.537 54.0747 67.9327 54.3314 67.41C54.5881 66.8827 54.9567 66.472 55.4374 66.178C55.9181 65.884 56.4991 65.737 57.1804 65.737C57.7031 65.737 58.1417 65.821 58.4964 65.989C58.8511 66.157 59.1381 66.3787 59.3574 66.654C59.5814 66.9247 59.7517 67.221 59.8684 67.543C59.9851 67.865 60.0644 68.18 60.1064 68.488C60.1484 68.796 60.1694 69.0667 60.1694 69.3V73.5H58.6854ZM53.3724 73.5V63.42H54.6814V68.859H54.8564V73.5H53.3724ZM64.9354 73.5V63.42H66.3984V73.5H64.9354ZM68.4935 73.5L68.5005 63.42H69.9845V69.58L72.9525 65.94H74.8145L71.6785 69.72L75.1365 73.5H73.1485L69.9845 69.86V73.5H68.4935ZM78.9886 73.71C78.2326 73.71 77.5769 73.5397 77.0216 73.199C76.4663 72.8583 76.0369 72.3893 75.7336 71.792C75.4349 71.19 75.2856 70.497 75.2856 69.713C75.2856 68.9243 75.4396 68.2313 75.7476 67.634C76.0556 67.032 76.4873 66.5653 77.0426 66.234C77.5979 65.898 78.2466 65.73 78.9886 65.73C79.7446 65.73 80.4003 65.9003 80.9556 66.241C81.5109 66.5817 81.9403 67.0507 82.2436 67.648C82.5469 68.2453 82.6986 68.9337 82.6986 69.713C82.6986 70.5017 82.5446 71.197 82.2366 71.799C81.9333 72.3963 81.5039 72.8653 80.9486 73.206C80.3933 73.542 79.7399 73.71 78.9886 73.71ZM78.9886 72.331C79.7119 72.331 80.2509 72.0883 80.6056 71.603C80.9649 71.113 81.1446 70.483 81.1446 69.713C81.1446 68.9243 80.9626 68.2943 80.5986 67.823C80.2393 67.347 79.7026 67.109 78.9886 67.109C78.4986 67.109 78.0949 67.221 77.7776 67.445C77.4603 67.6643 77.2246 67.97 77.0706 68.362C76.9166 68.7493 76.8396 69.1997 76.8396 69.713C76.8396 70.5063 77.0216 71.141 77.3856 71.617C77.7496 72.093 78.2839 72.331 78.9886 72.331ZM89.5428 73.5V69.783C89.5428 69.489 89.5172 69.188 89.4658 68.88C89.4192 68.5673 89.3258 68.278 89.1858 68.012C89.0505 67.746 88.8568 67.5313 88.6048 67.368C88.3575 67.2047 88.0332 67.123 87.6318 67.123C87.3705 67.123 87.1232 67.1673 86.8898 67.256C86.6565 67.34 86.4512 67.4777 86.2738 67.669C86.1012 67.8603 85.9635 68.1123 85.8608 68.425C85.7628 68.7377 85.7138 69.118 85.7138 69.566L84.8038 69.223C84.8038 68.537 84.9322 67.9327 85.1888 67.41C85.4455 66.8827 85.8142 66.472 86.2948 66.178C86.7755 65.884 87.3565 65.737 88.0378 65.737C88.5605 65.737 88.9992 65.821 89.3538 65.989C89.7085 66.157 89.9955 66.3787 90.2148 66.654C90.4388 66.9247 90.6092 67.221 90.7258 67.543C90.8425 67.865 90.9218 68.18 90.9638 68.488C91.0058 68.796 91.0268 69.0667 91.0268 69.3V73.5H89.5428ZM84.2298 73.5V65.94H85.5388V68.124H85.7138V73.5H84.2298Z" fill="#64748B"/>
    <rect x="0.5" y="0.5" width="99" height="99" rx="7.5" stroke="#CBD5E1" stroke-dasharray="6 6"/>
</svg>
