<svg width="25" height="19" viewBox="0 0 25 19" xmlns="http://www.w3.org/2000/svg">
    <g stroke="#3f4144" fill="none" fill-rule="evenodd">
        <path d="M19.822 4.825c-.157 2.16-1.774 3.825-3.536 3.825s-3.381-1.664-3.536-3.825C12.59 2.577 14.163 1 16.286 1s3.696 1.618 3.536 3.825z" stroke-width="1.714" stroke-linecap="round" stroke-linejoin="round"/>
        <path d="M10 8.5a4.501 4.501 0 0 0-9 0 4.501 4.501 0 0 0 9 0z" stroke-width="1.15"/>
        <path stroke-linecap="round" stroke-linejoin="round" d="m7.75 6.625-3.15 3.75-1.35-1.5"/>
        <path d="M16.286 12.05c-3.491 0-6.848 1.72-7.69 5.069-.11.443.17.881.628.881h14.124c.46 0 .738-.438.628-.881-.841-3.403-4.198-5.069-7.69-5.069z" stroke-width="1.714"/>
    </g>
</svg>
