<svg width="25" height="19" viewBox="0 0 25 19" fill="none" xmlns="http://www.w3.org/2000/svg">
    <g clip-path="url(#clip0_12_2)">
        <path fill-rule="evenodd" clip-rule="evenodd" d="M19.822 4.825C19.665 6.985 18.048 8.65 16.286 8.65C14.524 8.65 12.905 6.986 12.75 4.825C12.59 2.577 14.163 1 16.286 1C18.409 1 19.982 2.618 19.822 4.825Z" stroke="#21409A" stroke-width="1.714" stroke-linecap="round" stroke-linejoin="round"/>
        <path fill-rule="evenodd" clip-rule="evenodd" d="M10 8.5C9.97518 7.32295 9.49018 6.20248 8.64897 5.37882C7.80775 4.55515 6.67731 4.09387 5.5 4.09387C4.32269 4.09387 3.19224 4.55515 2.35103 5.37882C1.50982 6.20248 1.02482 7.32295 1 8.5C1.02482 9.67705 1.50982 10.7975 2.35103 11.6212C3.19224 12.4448 4.32269 12.9061 5.5 12.9061C6.67731 12.9061 7.80775 12.4448 8.64897 11.6212C9.49018 10.7975 9.97518 9.67705 10 8.5Z" stroke="#21409A" stroke-width="1.15"/>
        <path d="M7.75 6.625L4.6 10.375L3.25 8.875" stroke="#21409A" stroke-linecap="round" stroke-linejoin="round"/>
        <path fill-rule="evenodd" clip-rule="evenodd" d="M16.286 12.05C12.795 12.05 9.43801 13.77 8.59601 17.119C8.48601 17.562 8.76601 18 9.22401 18H23.348C23.808 18 24.086 17.562 23.976 17.119C23.135 13.716 19.778 12.05 16.286 12.05Z" stroke="#21409A" stroke-width="1.714"/>
    </g>
    <defs>
        <clipPath id="clip0_12_2">
            <rect width="25" height="19" fill="white"/>
        </clipPath>
    </defs>
</svg>
