<svg width="24" height="24" viewBox="0 0 24 24" xmlns="http://www.w3.org/2000/svg" xmlns:xlink="http://www.w3.org/1999/xlink">
    <defs>
        <path d="M12.296 14a6 6 0 0 1 5.964 6.663L18 23h-2l.348-2.434a4 4 0 0 0-3.76-4.561l-.2-.005H7.612a4 4 0 0 0-3.983 4.367l.023.199L4 23H2l-.26-2.337A6 6 0 0 1 7.704 14h4.592zM19 9a3 3 0 1 1 0 6 3 3 0 0 1 0-6zm0 1a2 2 0 1 0 0 4 2 2 0 0 0 0-4zm-9-8a5.5 5.5 0 1 1 0 11 5.5 5.5 0 0 1 0-11zm10.157 9.014c.077.086.112.275.035.361l-1.397 1.56a.187.187 0 0 1-.14.065h-.005a.189.189 0 0 1-.14-.073l-.71-.88c-.072-.09-.022-.282.059-.363.08-.081.25-.118.323-.028.048.06.209.25.481.568l1.147-1.242c.076-.086.27-.054.347.032zM10 4a3.5 3.5 0 1 0 0 7 3.5 3.5 0 0 0 0-7z" id="00z25dn5ea"/>
    </defs>
    <g fill="none" fill-rule="evenodd">
        <mask id="hw2fkijvtb" fill="#fff">
            <use xlink:href="#00z25dn5ea"/>
        </mask>
        <use fill="#000" xlink:href="#00z25dn5ea"/>
        <g mask="url(#hw2fkijvtb)" fill="#4E4751">
            <path d="M-2 0h24v24H-2z"/>
        </g>
    </g>
</svg>
