<svg width="16" height="14" viewBox="0 0 16 14" fill="none" xmlns="http://www.w3.org/2000/svg">
    <path d="M8 1.16699C6.76387 1.16699 5.5555 1.50911 4.52769 2.15009C3.49988 2.79106 2.6988 3.7021 2.22576 4.76801C1.75271 5.83391 1.62894 7.0068 1.87009 8.13835C2.11125 9.26991 2.70651 10.3093 3.58059 11.1251C4.45466 11.9409 5.56831 12.4965 6.78069 12.7216C7.99307 12.9467 9.24974 12.8311 10.3918 12.3896C11.5338 11.9481 12.5099 11.2004 13.1967 10.2412C13.8834 9.28186 14.25 8.15405 14.25 7.00033C14.25 6.23428 14.0883 5.47574 13.7743 4.76801C13.4602 4.06027 12.9998 3.41721 12.4194 2.87554C11.8391 2.33386 11.1501 1.90418 10.3918 1.61103C9.63349 1.31788 8.82076 1.16699 8 1.16699V1.16699ZM8 11.667C7.0111 11.667 6.0444 11.3933 5.22215 10.8805C4.39991 10.3677 3.75904 9.6389 3.38061 8.78618C3.00217 7.93346 2.90315 6.99515 3.09608 6.0899C3.289 5.18466 3.76521 4.35314 4.46447 3.70049C5.16373 3.04785 6.05465 2.60339 7.02455 2.42333C7.99446 2.24326 8.99979 2.33568 9.91342 2.68889C10.8271 3.0421 11.6079 3.64023 12.1574 4.40766C12.7068 5.17509 13 6.07735 13 7.00033C13 8.238 12.4732 9.42499 11.5355 10.3002C10.5979 11.1753 9.32609 11.667 8 11.667V11.667Z" fill="#21409A"/>
    <path d="M8 4.08301C7.38193 4.08301 6.77775 4.25407 6.26384 4.57455C5.74994 4.89504 5.3494 5.35056 5.11288 5.88351C4.87635 6.41647 4.81447 7.00291 4.93505 7.56869C5.05563 8.13447 5.35325 8.65417 5.79029 9.06207C6.22733 9.46997 6.78415 9.74776 7.39034 9.8603C7.99653 9.97284 8.62487 9.91508 9.19589 9.69432C9.76691 9.47357 10.255 9.09973 10.5983 8.62009C10.9417 8.14044 11.125 7.57654 11.125 6.99967C11.125 6.22613 10.7958 5.48426 10.2097 4.93728C9.62366 4.3903 8.8288 4.08301 8 4.08301V4.08301Z" fill="#21409A"/>
</svg>
