<svg width="46" height="46" viewBox="0 0 46 46" fill="none" xmlns="http://www.w3.org/2000/svg">
    <path d="M44.4998 23.25C44.4998 34.9813 34.9565 44.5 23.1737 44.5C11.3909 44.5 1.84766 34.9813 1.84766 23.25C1.84766 11.5187 11.3909 2 23.1737 2C34.9565 2 44.4998 11.5187 44.4998 23.25Z" fill="#21409A" stroke="white" stroke-width="3"/>
    <path fill-rule="evenodd" clip-rule="evenodd" d="M27.2503 15.6667H20.7286L19.5824 17.266C19.2799 17.6884 18.7712 17.9417 18.2258 17.9417H14.9133C14.0729 17.9417 13.3916 18.623 13.3916 19.4634V29.3116C13.3916 30.152 14.0729 30.8334 14.9133 30.8334H31.4351C32.2755 30.8334 32.9568 30.152 32.9568 29.3116V19.4634C32.9568 18.623 32.2755 17.9417 31.4351 17.9417H29.753C29.2076 17.9417 28.6989 17.6884 28.3965 17.266L27.2503 15.6667ZM17.0885 17.1834C17.2979 17.1834 17.4677 17.0136 17.4677 16.8042C17.4677 16.5948 17.2979 16.425 17.0885 16.425H15.4012C15.1918 16.425 15.022 16.5948 15.022 16.8042C15.022 17.0136 15.1918 17.1834 15.4012 17.1834H17.0885ZM27.04 18.1078L26.378 17.1834H21.6008L20.9389 18.1078C20.3332 18.9533 19.319 19.4584 18.2258 19.4584H15.022V29.3167H31.3264V19.4584H29.753C28.6598 19.4584 27.6457 18.9533 27.04 18.1078ZM17.4677 20.975C17.9185 20.975 18.2829 21.3148 18.2829 21.7334C18.2829 22.152 17.9185 22.4917 17.4677 22.4917C17.0169 22.4917 16.6525 22.152 16.6525 21.7334C16.6525 21.3148 17.0169 20.975 17.4677 20.975ZM23.9894 21.7334C25.3378 21.7334 26.4351 22.7541 26.4351 24.0084C26.4351 25.2626 25.3378 26.2834 23.9894 26.2834C22.6411 26.2834 21.5438 25.2626 21.5438 24.0084C21.5438 22.7541 22.6411 21.7334 23.9894 21.7334ZM19.9133 24.0084C19.9133 21.9146 21.7386 20.2167 23.9894 20.2167C26.2402 20.2167 28.0655 21.9146 28.0655 24.0084C28.0655 26.1021 26.2402 27.8 23.9894 27.8C21.7386 27.8 19.9133 26.1021 19.9133 24.0084Z" fill="#F8FAFC"/>
</svg>
