<svg width="127" height="127" viewBox="0 0 127 127" fill="none" xmlns="http://www.w3.org/2000/svg">
    <path d="M63.5 108C88.0767 108 108 88.0767 108 63.5C108 38.9233 88.0767 19 63.5 19C38.9233 19 19 38.9233 19 63.5C19 88.0767 38.9233 108 63.5 108Z" stroke="#00A79D" stroke-width="5" stroke-miterlimit="10"/>
    <path d="M63.5002 103.188C85.4197 103.188 103.189 85.4187 103.189 63.4992C103.189 41.5798 85.4197 23.8105 63.5002 23.8105C41.5808 23.8105 23.8115 41.5798 23.8115 63.4992C23.8115 85.4187 41.5808 103.188 63.5002 103.188Z" fill="#00A79D"/>
    <path d="M57.8577 77.6874C56.7598 77.6874 55.6672 77.252 54.8543 76.3942L44.1153 65.0244C42.5502 63.367 42.6241 60.7541 44.2815 59.1864C45.939 57.6214 48.5518 57.6953 50.1195 59.3527L58.0688 67.7692L77.0898 50.3952C78.7736 48.8565 81.3864 48.9753 82.9225 50.6591C84.4611 52.3429 84.3424 54.9558 82.6585 56.4918L60.6368 76.6053C59.8451 77.3285 58.8474 77.6848 57.8524 77.6848L57.8577 77.6874Z" fill="white"/>
</svg>
