<svg width="10" height="24" viewBox="0 0 10 24" fill="none" xmlns="http://www.w3.org/2000/svg">
    <path fill-rule="evenodd" clip-rule="evenodd" d="M2 4C0.9 4 0 4.9 0 6C0 7.1 0.9 8 2 8C3.1 8 4 7.1 4 6C4 4.9 3.1 4 2 4ZM0 12C0 10.9 0.9 10 2 10C3.1 10 4 10.9 4 12C4 13.1 3.1 14 2 14C0.9 14 0 13.1 0 12ZM2 20C3.1 20 4 19.1 4 18C4 16.9 3.1 16 2 16C0.9 16 0 16.9 0 18C0 19.1 0.9 20 2 20ZM10 6C10 7.1 9.1 8 8 8C6.9 8 6 7.1 6 6C6 4.9 6.9 4 8 4C9.1 4 10 4.9 10 6ZM8 10C6.9 10 6 10.9 6 12C6 13.1 6.9 14 8 14C9.1 14 10 13.1 10 12C10 10.9 9.1 10 8 10ZM6 18C6 16.9 6.9 16 8 16C9.1 16 10 16.9 10 18C10 19.1 9.1 20 8 20C6.9 20 6 19.1 6 18Z" fill="white"/>
    <mask id="mask0_1761_93621" style="mask-type:luminance" maskUnits="userSpaceOnUse" x="0" y="4" width="10" height="16">
        <path fill-rule="evenodd" clip-rule="evenodd" d="M2 4C0.9 4 0 4.9 0 6C0 7.1 0.9 8 2 8C3.1 8 4 7.1 4 6C4 4.9 3.1 4 2 4ZM0 12C0 10.9 0.9 10 2 10C3.1 10 4 10.9 4 12C4 13.1 3.1 14 2 14C0.9 14 0 13.1 0 12ZM2 20C3.1 20 4 19.1 4 18C4 16.9 3.1 16 2 16C0.9 16 0 16.9 0 18C0 19.1 0.9 20 2 20ZM10 6C10 7.1 9.1 8 8 8C6.9 8 6 7.1 6 6C6 4.9 6.9 4 8 4C9.1 4 10 4.9 10 6ZM8 10C6.9 10 6 10.9 6 12C6 13.1 6.9 14 8 14C9.1 14 10 13.1 10 12C10 10.9 9.1 10 8 10ZM6 18C6 16.9 6.9 16 8 16C9.1 16 10 16.9 10 18C10 19.1 9.1 20 8 20C6.9 20 6 19.1 6 18Z" fill="white"/>
    </mask>
    <g mask="url(#mask0_1761_93621)">
        <rect x="-7" width="24" height="24" fill="#4E4751"/>
    </g>
</svg>
