<svg width="46" height="45" viewBox="0 0 46 45" fill="none" xmlns="http://www.w3.org/2000/svg">
<circle cx="22.8334" cy="22.5" r="22.5" fill="#E9ECF5"/>
<path d="M9.75426 13.2499C9.75376 11.8745 9.76122 10.4985 9.74629 9.12305C9.74281 8.82437 9.83192 8.74223 10.1276 8.74372C12.0407 8.75268 13.9538 8.74372 15.8669 8.74023C20.2054 8.74073 24.5438 8.74123 28.8818 8.74223C29.5165 8.74521 30.1512 8.7487 30.7854 8.75168C30.7874 13.8891 30.7894 19.0266 30.7914 24.1635C30.3882 24.4712 29.9934 24.7908 29.5797 25.0835C28.7812 25.648 28.0275 26.2747 27.1907 26.786C25.6057 26.786 24.0211 26.7865 22.4361 26.787C22.3933 26.787 22.3505 26.787 22.3076 26.787C20.7231 26.787 19.1386 26.786 17.554 26.7855C17.4983 26.7596 17.4365 26.7422 17.3877 26.7069C15.4423 25.2876 13.4928 23.8738 11.5563 22.4426C10.9465 21.9921 10.2929 21.5973 9.74231 21.0681C9.74629 18.4625 9.75027 15.8565 9.75426 13.2509V13.2499ZM18.591 18.8991C18.6084 18.932 18.6213 18.9688 18.6442 18.9972C20.6619 21.4917 24.5473 21.32 26.3499 18.6567C27.7955 16.5206 27.2728 13.4695 25.2293 12.1189C24.0535 11.18 22.7069 10.9431 21.2797 11.2736C18.8702 11.8317 17.3166 14.0395 17.5789 16.4927C17.674 17.3838 17.9742 18.2141 18.591 18.8986V18.8991ZM20.5852 22.572H16.533C15.7594 22.572 15.7803 22.573 15.7524 23.3347C15.739 23.709 15.8684 23.7837 16.2189 23.7822C18.9952 23.7683 21.772 23.7742 24.5483 23.7742C25.3836 23.7742 25.3677 23.7742 25.3841 22.9553C25.3906 22.6293 25.2746 22.5635 24.9749 22.566C23.5119 22.58 22.0483 22.572 20.5852 22.572ZM27.7906 23.7737C28.1027 23.7737 28.4183 23.8031 28.726 23.7673C29.2432 23.7065 28.9121 23.2968 28.9649 23.0559C29.0007 22.8936 29.1297 22.5695 28.723 22.572C28.0863 22.576 27.4461 22.5302 26.8144 22.5869C26.3215 22.6312 26.6496 23.0633 26.5928 23.3098C26.5575 23.4631 26.4395 23.7717 26.8168 23.7737C27.1414 23.7752 27.466 23.7737 27.7906 23.7742V23.7737Z" fill="white"/>
<path d="M22.3067 26.7862C22.3495 26.7862 22.3923 26.7862 22.4351 26.7862C22.81 27.1749 23.2834 27.4373 23.71 27.7584C24.0744 28.0327 24.4115 28.3587 24.854 28.519C24.9197 28.5937 24.9745 28.6828 25.0526 28.7401C26.0443 29.4714 27.0389 30.1977 28.033 30.9255C30.0308 32.3895 32.0285 33.8531 34.0257 35.3177C35.8423 36.6498 37.6613 37.979 39.4723 39.3181C39.7461 39.5202 40.0811 39.6576 40.2529 39.9817C40.1284 39.9877 40.004 39.9996 39.879 39.9996C28.2063 40.0006 16.534 40.0006 4.86129 39.9996C4.73683 39.9996 4.61238 39.9882 4.48743 39.9817C4.49888 39.8682 4.5835 39.8209 4.66714 39.7597C7.10145 37.982 9.53328 36.2018 11.9651 34.4206C14.2356 32.7569 16.5106 31.0992 18.7702 29.4206C19.153 29.1363 19.5926 28.9128 19.8878 28.5166C20.7645 28.0377 21.5286 27.4024 22.3062 26.7852L22.3067 26.7862Z" fill="#3756B1"/>
<path d="M19.8885 28.5171C19.5933 28.9134 19.1538 29.1369 18.7709 29.4212C16.5114 31.0998 14.2363 32.7575 11.9658 34.4212C9.53449 36.2024 7.10217 37.9826 4.66786 39.7603C4.58423 39.8215 4.5001 39.8688 4.48815 39.9823C4.42294 39.9863 4.35623 39.9823 4.35025 39.8997C4.34179 39.7877 4.34328 39.6746 4.34328 39.5621C4.34328 32.2333 4.34279 24.9045 4.34577 17.5757C4.34577 17.4313 4.294 17.275 4.40203 17.1426C4.45281 17.2471 4.53793 17.3163 4.63052 17.384C5.80736 18.2408 6.97573 19.1104 8.16152 19.9547C8.68572 20.3281 9.17308 20.7552 9.74059 21.0673C10.2912 21.5965 10.9448 21.9913 11.5546 22.4418C13.4911 23.873 15.4406 25.2868 17.386 26.7061C17.4348 26.7414 17.4965 26.7589 17.5523 26.7847C18.3309 27.3622 19.109 27.9397 19.8875 28.5171H19.8885Z" fill="#21409A"/>
<path d="M40.2537 39.9824C40.0815 39.6583 39.7465 39.5209 39.4732 39.3188C37.6621 37.9796 35.8431 36.6505 34.0266 35.3183C32.0294 33.8538 30.0316 32.3902 28.0339 30.9261C27.0403 30.1978 26.0451 29.4715 25.0535 28.7407C24.9753 28.683 24.9206 28.5939 24.8549 28.5192C25.6334 27.9412 26.412 27.3638 27.1906 26.7858C28.0269 26.275 28.7811 25.6483 29.5796 25.0833C29.9933 24.7906 30.3881 24.471 30.7913 24.1633C31.3981 23.7277 32.0129 23.3026 32.6103 22.8546C33.4058 22.2577 34.2411 21.7136 34.9998 21.0674C35.0466 21.053 35.1019 21.05 35.1397 21.0226C36.4385 20.0763 37.7458 19.1419 39.0266 18.1726C39.4702 17.8366 39.9824 17.5822 40.3429 17.1396C40.4414 17.2611 40.3971 17.4045 40.3971 17.5374C40.3996 24.8916 40.4001 32.2458 40.3921 39.6C40.3921 39.725 40.5315 39.942 40.2542 39.9834L40.2537 39.9824Z" fill="#21409A"/>
<path d="M34.9988 21.0671C34.2401 21.7133 33.4048 22.2574 32.6093 22.8543C32.0119 23.3023 31.3971 23.7274 30.7903 24.163C30.7883 19.0256 30.7863 13.8886 30.7843 8.75119C32.0687 8.75119 33.3525 8.75815 34.6364 8.74422C34.9172 8.74123 34.9983 8.82636 34.9953 9.10513C34.9819 10.3392 34.9893 11.5738 34.9898 12.8084C34.9898 12.9567 34.9674 13.1095 35.0675 13.24C34.961 13.3072 34.9908 13.4157 34.9908 13.5108C34.9923 16.0297 34.9953 18.5487 34.9983 21.0676L34.9988 21.0671Z" fill="#F1F1F1"/>
<path d="M28.8808 8.74149C24.5424 8.74099 20.2039 8.7405 15.866 8.7395C17.2106 7.74337 18.5542 6.74625 19.8998 5.75162C20.6435 5.20203 21.3932 4.65991 22.1344 4.10684C22.2913 3.98985 22.4013 3.94953 22.586 4.08593C24.6653 5.62418 26.7532 7.15147 28.838 8.68275C28.8564 8.69619 28.8669 8.72158 28.8808 8.74099V8.74149Z" fill="#172D6C"/>
<path d="M34.9991 21.0669C34.9961 18.5479 34.9926 16.029 34.9916 13.5101C34.9916 13.415 34.9618 13.3065 35.0683 13.2393C36.739 14.4689 38.4096 15.698 40.0803 16.9286C40.1704 16.9948 40.255 17.0684 40.3427 17.1386C39.9817 17.5812 39.47 17.8356 39.0264 18.1716C37.7456 19.1413 36.4383 20.0757 35.1395 21.0216C35.1022 21.049 35.0469 21.052 34.9996 21.0664L34.9991 21.0669Z" fill="#172D6C"/>
<path d="M9.74176 21.0672C9.17425 20.755 8.68689 20.3284 8.16269 19.9546C6.9769 19.1098 5.80902 18.2406 4.63169 17.3839C4.5391 17.3161 4.45398 17.247 4.4032 17.1424C5.88917 16.0452 7.37316 14.9456 8.86361 13.8538C9.15235 13.6423 9.41121 13.3824 9.7542 13.25C9.75022 15.8556 9.74624 18.4616 9.74226 21.0672H9.74176Z" fill="#172D6C"/>
<path d="M20.5851 22.5715C22.0481 22.5715 23.5117 22.579 24.9748 22.5655C25.274 22.5625 25.3905 22.6287 25.384 22.9548C25.3676 23.7732 25.384 23.7737 24.5482 23.7737C21.7718 23.7737 18.995 23.7672 16.2187 23.7817C15.8688 23.7837 15.7388 23.7085 15.7523 23.3341C15.7797 22.5725 15.7593 22.5715 16.5329 22.5715C17.8834 22.5715 19.2345 22.5715 20.5851 22.5715Z" fill="#C7CCEC"/>
<path d="M27.1898 26.7852C26.4112 27.3631 25.6326 27.9406 24.8541 28.5185C24.4115 28.3587 24.0745 28.0322 23.7101 27.7579C23.2835 27.4368 22.81 27.1744 22.4352 26.7857C24.0202 26.7857 25.6048 26.7857 27.1898 26.7852Z" fill="#E0E5F5"/>
<path d="M19.8883 28.5175C19.1098 27.9401 18.3317 27.3626 17.5531 26.7852C19.1376 26.7852 20.7222 26.7862 22.3067 26.7866C21.5291 27.4034 20.765 28.0392 19.8883 28.518V28.5175Z" fill="#E0E5F5"/>
<path d="M27.7907 23.774C27.4662 23.774 27.1416 23.7755 26.817 23.774C26.4397 23.772 26.5576 23.4639 26.593 23.3101C26.6497 23.0641 26.3222 22.6315 26.8145 22.5872C27.4457 22.5305 28.0864 22.5763 28.7231 22.5723C29.1299 22.5698 29.0009 22.8939 28.9651 23.0562C28.9118 23.2971 29.2434 23.7068 28.7261 23.7676C28.4185 23.8039 28.1029 23.774 27.7907 23.774Z" fill="#C7CCEC"/>
<path d="M19.8872 19.8528C18.644 19.1621 17.8832 18.085 17.5221 16.7429C16.5455 13.1102 19.4947 9.65308 23.2356 10.0279C23.6707 10.0716 24.114 10.1339 24.5082 10.3575C24.5518 10.3785 24.5954 10.4 24.6396 10.421C24.7191 10.4144 24.7941 10.421 24.8444 10.495C24.8356 10.7274 25.0354 10.8196 25.1613 10.9577C26.558 12.4897 27.0246 14.2624 26.4255 16.2494C25.731 18.5537 23.6546 20.0195 21.2796 20.0179C20.8026 20.0179 20.3593 19.8324 19.8872 19.8522V19.8528ZM21.3469 18.0094C21.6053 18.0066 21.7792 17.8526 21.9487 17.6826C23.006 16.6231 24.0648 15.5659 25.1232 14.5081C25.8276 13.8042 25.8172 13.8141 25.1221 13.1091C24.9024 12.8866 24.7897 12.938 24.6009 13.1312C23.7871 13.9632 22.9607 14.7825 22.1348 15.6034C21.8808 15.8557 21.6268 16.2797 21.353 16.2963C21.0334 16.3156 20.8042 15.8513 20.5409 15.5929C19.7696 14.836 19.7801 14.8366 19.053 15.6189C18.9001 15.784 18.9145 15.8723 19.0635 16.0186C19.6581 16.5994 20.2422 17.1912 20.8307 17.7786C20.9732 17.9205 21.1394 18.0116 21.3469 18.0099V18.0094Z" fill="#00A79D"/>
<path d="M19.8876 19.8533C20.3596 19.8329 20.8029 20.0184 21.2799 20.019C23.655 20.0201 25.7308 18.5543 26.4259 16.2504C27.0249 14.2635 26.5584 12.4908 25.1616 10.9587C25.0357 10.8207 24.8359 10.7285 24.8447 10.4961C27.8585 11.6742 28.9671 15.6807 27.0337 18.4063C25.4774 20.6003 22.6237 21.3036 20.2304 20.0808C20.109 20.019 20.0013 19.9301 19.8876 19.8533Z" fill="#00A79D"/>
<path d="M21.3467 18.0088C21.1391 18.0105 20.973 17.9194 20.8305 17.7775C20.242 17.1901 19.6585 16.5982 19.0633 16.0174C18.9137 15.8711 18.8993 15.7828 19.0528 15.6177C19.7799 14.8349 19.7694 14.8343 20.5407 15.5918C20.804 15.8502 21.0331 16.3145 21.3528 16.2951C21.6266 16.2786 21.8806 15.8546 22.1345 15.6023C22.9599 14.7819 23.7869 13.962 24.6007 13.1301C24.7895 12.9368 24.9021 12.8855 25.1219 13.108C25.8169 13.8135 25.8274 13.803 25.123 14.5069C24.0646 15.5647 23.0057 16.6225 21.9485 17.6814C21.779 17.8515 21.6051 18.0055 21.3462 18.0082L21.3467 18.0088Z" fill="#EDEFEC"/>
</svg>
