<svg width="45" height="45" viewBox="0 0 45 45" fill="none" xmlns="http://www.w3.org/2000/svg">
<circle cx="22.5" cy="22.5" r="22.5" fill="#E9ECF5"/>
<path d="M18.3534 26.3426C16.6249 25.0908 15.1971 23.614 14.638 21.4667C14.5689 21.1971 14.4977 20.9387 14.5088 20.6603C14.3751 20.2371 14.3351 19.8072 14.3373 19.3617C14.3462 18.014 14.3328 16.6642 14.3284 15.3165C14.3662 13.9711 14.3685 13.9801 15.7139 13.8197C16.5937 13.715 17.4736 13.6036 18.3445 13.4477C19.1865 13.2984 20.0552 13.2606 20.8549 12.9086C22.6436 12.1201 23.5056 10.6722 23.7328 8.70312C25.6284 10.2267 27.406 11.7281 29.2704 13.1158C30.0656 13.7083 30.5155 14.3231 30.3596 15.3143C30.3552 15.7821 30.3641 16.2499 30.3418 16.7176C30.2772 18.0319 30.5111 19.3572 30.1792 20.6581C29.9008 22.87 28.6935 24.5116 26.985 25.8437C26.7689 26.0107 26.5506 26.1756 26.3345 26.3404C25.0092 26.8616 23.6972 27.3762 22.2204 27.3495C20.8349 27.325 19.6053 26.8215 18.3557 26.3404L18.3534 26.3426Z" fill="#FAE0C9"/>
<path d="M30.357 15.3166C30.5129 14.3254 30.0652 13.7084 29.2677 13.1181C27.4033 11.7326 25.6258 10.229 23.7302 8.70542C23.503 10.6745 22.6409 12.1224 20.8523 12.9109C20.0526 13.2629 19.1839 13.3007 18.3419 13.45C17.4709 13.6037 16.5911 13.7173 15.7112 13.822C14.3658 13.9823 14.3658 13.9712 14.3257 15.3188C13.8802 15.3233 13.4369 15.3277 12.9915 15.3344C12.4123 12.8552 11.6572 10.4094 11.6661 7.82333C11.6705 6.67172 11.8309 5.55352 12.1962 4.46873C13.0293 1.99844 15.8716 1.21213 17.863 2.89166C18.3062 3.26588 18.7451 3.66238 19.1148 4.10787C19.5225 4.59792 19.812 4.55114 20.2442 4.12792C21.7455 2.66223 23.572 1.96948 25.6703 2.00512C29.564 2.06972 32.7983 5.32631 33.03 9.21774C33.1525 11.2448 32.4308 13.0178 31.8405 14.8555C31.7893 15.0137 31.7425 15.1718 31.6935 15.3322C31.248 15.3277 30.8025 15.3233 30.357 15.3188V15.3166Z" fill="#101010"/>
<path d="M35.6761 41.9782C30.3591 41.9871 25.042 41.9983 19.725 42.0005C16.1521 42.0005 12.5792 41.9871 9.00854 41.9782C9.01745 40.6551 9.02636 39.332 9.0375 38.0088C14.9136 38.0088 20.792 38.0088 26.6681 37.9999C28.8444 37.9977 30.3457 36.6345 30.7021 34.4961C30.9493 33.0037 30.76 31.5113 30.8513 30.0233C33.4374 29.9119 35.0969 31.0167 35.587 33.1975C35.6649 33.5427 35.6738 33.9103 35.6738 34.2667C35.6805 36.8372 35.6783 39.4077 35.6783 41.9782H35.6761Z" fill="#21409A"/>
<path d="M30.8471 30.0248C30.758 31.5128 30.9452 33.0052 30.6979 34.4976C30.3437 36.636 28.8402 37.9993 26.6639 38.0015C20.7878 38.0082 14.9094 38.0082 9.03331 38.0104C9.0244 36.518 8.97317 35.0256 9.01772 33.5354C9.07118 31.7489 10.8799 30.0293 12.6842 30.0093C14.5642 29.987 16.442 30.0048 18.322 30.0048C18.4846 32.3058 20.1596 33.9898 22.3003 34.0031C24.5188 34.0165 26.1872 32.3726 26.3565 30.0048C27.8534 30.0115 29.348 30.0182 30.8449 30.0271L30.8471 30.0248Z" fill="#21409A"/>
<path d="M26.3607 30.0016C26.1914 32.3694 24.5208 34.0133 22.3045 33.9999C20.1639 33.9865 18.4888 32.3026 18.3262 30.0016C18.3351 28.7809 18.344 27.5625 18.3529 26.3418C19.6025 26.8207 20.8321 27.3241 22.2198 27.3509C23.6967 27.3776 25.0086 26.863 26.334 26.3418C26.3429 27.5625 26.3518 28.7809 26.3607 30.0016Z" fill="#F1B8A0"/>
<path d="M12.9966 15.332C13.4421 15.3275 13.8854 15.3231 14.3309 15.3164C14.3353 16.664 14.3487 18.0139 14.3398 19.3615C14.3376 19.807 14.3777 20.2369 14.5113 20.6602C13.598 20.6624 12.6826 20.6735 11.7693 20.6646C10.1722 20.649 8.99605 19.493 9.01387 17.9671C9.02946 16.4769 10.1922 15.3587 11.7515 15.3342C12.1658 15.3275 12.5823 15.332 12.9989 15.3298L12.9966 15.332Z" fill="#F1B8A0"/>
<path d="M30.3577 15.3164C30.8032 15.3209 31.2487 15.3253 31.6942 15.3298C32.1931 15.3298 32.6921 15.3097 33.1888 15.3387C34.61 15.4233 35.6992 16.6217 35.6747 18.0518C35.6502 19.4395 34.5587 20.6022 33.1665 20.6557C32.1709 20.6936 31.1729 20.6602 30.1772 20.6602C30.5091 19.3571 30.2753 18.0317 30.3399 16.7197C30.3621 16.252 30.3532 15.7842 30.3577 15.3164Z" fill="#F1B8A0"/>
</svg>
