<svg width="55" height="55" viewBox="0 0 55 55" fill="none" xmlns="http://www.w3.org/2000/svg">
<circle cx="27.5" cy="27.5" r="22.5" fill="#E9ECF5"/>
<path d="M24.514 17.0166C25.9753 18.4936 27.468 19.9419 28.8915 21.4554C31.6393 24.3793 33.1815 27.8604 33.5703 31.8582C33.629 32.4636 33.6251 33.0677 33.6669 33.6718C33.6042 35.0548 33.4464 36.4248 33.1149 37.7726C32.8383 38.8999 32.3856 39.9646 31.9681 41.0423C31.4527 41.9178 30.9373 42.792 30.4232 43.6675C29.8805 44.3394 29.3416 45.0127 28.6514 45.5502C27.6272 46.3474 26.4424 46.7415 25.1938 46.9881C22.2646 46.992 19.3355 47.0024 16.4063 46.9972C13.9716 46.9933 12.0145 46.0082 10.5558 44.0615C7.99587 40.6457 6.79811 36.7862 7.02774 32.534C7.25738 28.2649 8.84787 24.5281 11.7992 21.4123C13.2175 19.9158 14.6945 18.4753 16.1453 17.0088C16.6725 17.0088 17.1983 17.0101 17.7241 17.0114C18.3452 17.0114 18.9675 17.0114 19.5886 17.0101C20.0792 17.0101 20.5698 17.0101 21.0603 17.0101C21.6814 17.0101 22.3038 17.0101 22.9248 17.0114C23.4546 17.0127 23.9843 17.0153 24.514 17.0166ZM24.2713 25.4584C23.9804 25.3161 23.7012 25.1374 23.3958 25.0369C20.0361 23.9305 16.9412 24.4746 14.2822 26.7866C10.6367 29.9571 10.1096 35.2375 12.9552 39.1113C13.7381 40.1773 14.6592 41.1128 15.9366 41.6034C15.9627 41.7417 16.071 41.7964 16.1819 41.8499C18.0229 42.7333 19.9474 43.0647 21.9671 42.6811C24.2087 42.2557 26.0654 41.1715 27.4797 39.3709C29.1824 37.2024 29.8022 34.7482 29.3364 32.0304C29.0493 30.3551 28.3095 28.8807 27.2018 27.6086C26.3929 26.6796 25.4404 25.9111 24.2713 25.4571V25.4584Z" fill="#21409A"/>
<path d="M24.5141 17.0166C23.9844 17.0153 23.4547 17.0127 22.9249 17.0114C23.8317 15.1782 24.2988 13.225 24.4841 11.2C24.5611 10.3519 24.5441 10.3506 23.6804 10.3506C23.5238 10.3506 23.3672 10.3623 23.212 10.348C22.9197 10.3232 22.8284 10.4458 22.8153 10.7368C22.7905 11.3031 22.7475 11.8732 22.6601 12.433C22.4069 14.0548 21.8355 15.5683 21.0604 17.01C20.5698 17.01 20.0793 17.01 19.5887 17.01C18.5188 15.0373 17.8847 12.9405 17.8286 10.6859C17.8168 10.2006 17.4463 10.3115 17.2362 10.3676C16.8787 10.4641 16.3177 9.98788 16.1715 10.6794C16.0972 11.0317 16.225 11.3983 16.2511 11.7571C16.3907 13.6099 16.9544 15.3374 17.7242 17.01C17.1984 17.01 16.6712 17.0087 16.1454 17.0074C14.6189 15.4691 13.0688 13.953 11.5736 12.3847C10.2962 11.0434 9.67648 9.39161 9.50034 7.55713C9.45858 7.12265 9.58123 7.00522 10.0235 7.00652C14.3592 7.02348 18.6949 7.01696 23.0319 7.01566C23.2394 7.01566 23.4481 7.00522 23.6556 7C25.9441 7.00522 28.2327 7.01174 30.5212 7.01696C31.2153 7.01827 31.2166 7.02218 31.1318 7.76458C30.8983 9.78695 30.041 11.4975 28.5928 12.9275C27.2241 14.2805 25.8737 15.6518 24.5141 17.0153V17.0166Z" fill="#21409A"/>
<path d="M27.8073 32.3423C27.6951 30.3643 27.0231 28.5741 25.7288 27.0384C25.3491 26.587 24.9707 26.1421 24.4867 25.7989C24.3745 25.7193 24.2805 25.611 24.2714 25.4584C23.9804 25.3162 23.6999 25.1387 23.3959 25.0383C20.0362 23.9318 16.9413 24.4759 14.2822 26.7879C10.6367 29.9585 10.1096 35.2388 12.9553 39.1126C13.7381 40.1786 14.6593 41.1141 15.9366 41.6047C16.9256 41.8474 17.9199 42.0535 18.948 42C21.902 41.8448 24.291 40.6222 26.0602 38.2332C27.3571 36.4822 27.9299 34.4977 27.8073 32.3423Z" fill="#A6B3D7"/>
<path d="M15.9363 41.6043C16.9253 41.847 17.9195 42.0531 18.9476 41.9996C21.9016 41.8444 24.2906 40.6218 26.0598 38.2328C27.3568 36.4819 27.9296 34.4973 27.8069 32.3419C27.6947 30.3639 27.0228 28.5738 25.7284 27.0381C25.3488 26.5866 24.9704 26.1417 24.4863 25.7986C24.3741 25.719 24.2802 25.6107 24.271 25.458C25.4401 25.9134 26.3926 26.6819 27.2015 27.6095C28.3092 28.8817 29.049 30.356 29.3361 32.0313C29.8019 34.7491 29.1821 37.2034 27.4794 39.3719C26.0651 41.1724 24.2084 42.258 21.9668 42.682C19.9471 43.0643 18.0226 42.7342 16.1816 41.8509C16.072 41.7974 15.9624 41.7426 15.9363 41.6043Z" fill="#8E9DC1"/>
<path d="M17.7254 17.0104C16.9543 15.3377 16.392 13.6102 16.2524 11.7574C16.225 11.3986 16.0984 11.032 16.1728 10.6797C16.3189 9.9882 16.8799 10.4644 17.2374 10.3679C17.4475 10.3105 17.8181 10.2009 17.8298 10.6862C17.8859 12.9409 18.52 15.0363 19.5899 17.0104C18.9688 17.0104 18.3465 17.0104 17.7254 17.0117V17.0104Z" fill="#172D6C"/>
<path d="M21.0601 17.0089C21.8351 15.5685 22.4066 14.0537 22.6597 12.4319C22.7471 11.8721 22.7902 11.3019 22.8149 10.7357C22.828 10.4447 22.9193 10.3221 23.2116 10.3469C23.3669 10.3599 23.5234 10.3495 23.68 10.3495C24.5437 10.3495 24.5607 10.3508 24.4837 11.1989C24.2985 13.2238 23.8314 15.177 22.9245 17.0102C22.3035 17.0102 21.6811 17.0102 21.0601 17.0089Z" fill="#172D6C"/>
<path d="M20.3152 35.7803H18.9739L17.1708 33.7018H15.9808V35.7803H14.8079V29.5527C15.7943 29.5527 16.7806 29.5619 17.7657 29.5619C19.231 29.571 20.0047 30.5483 20.0047 31.6234C20.0047 32.4767 19.6133 33.3378 18.4325 33.5779L20.3165 35.7007V35.7803H20.3152ZM15.9795 30.6539V32.6437H17.7657C18.5121 32.6437 18.8317 32.1466 18.8317 31.6482C18.8317 31.1497 18.5029 30.6526 17.7657 30.6526H15.9795V30.6539Z" fill="#21409A"/>
<path d="M21.0611 37.7877V31.3996H22.0736L22.1441 32.0037C22.482 31.5144 23.0678 31.3018 23.5649 31.3018C24.9154 31.3018 25.813 32.3051 25.813 33.5942C25.813 34.8833 25.0041 35.8866 23.6015 35.8866C23.1396 35.8866 22.4559 35.7444 22.1441 35.2643V37.7877H21.0598H21.0611ZM24.7301 33.5942C24.7301 32.9105 24.2682 32.3508 23.4867 32.3508C22.7051 32.3508 22.2432 32.9105 22.2432 33.5942C22.2432 34.2779 22.7495 34.8376 23.4867 34.8376C24.2238 34.8376 24.7301 34.2779 24.7301 33.5942Z" fill="#21409A"/>
<path d="M37.8694 25.7215C40.7135 25.7215 43.5566 25.7214 46.4007 25.7236C47.4971 25.7236 48.2929 26.5215 48.2929 27.619C48.2929 32.9179 48.2929 38.2157 48.2929 43.5146C48.2929 43.6312 48.2854 43.7489 48.2811 43.8655C44.0251 43.8655 39.7701 43.8655 35.5141 43.8655C34.9771 43.2365 34.3193 42.7135 33.8722 42.0054C34.3942 41.9968 34.9151 41.9883 35.4371 41.9797C35.6585 42.0257 35.7676 41.9733 35.7601 41.7102C35.7419 41.063 35.7451 40.4138 35.759 39.7667C35.7633 39.5378 35.6788 39.4821 35.4649 39.4864C34.7514 39.5003 34.0369 39.4982 33.3224 39.5025C33.178 39.5934 33.2529 39.7367 33.2497 39.8544C33.2358 40.2544 33.2379 40.6555 33.2337 41.0556C32.0357 39.2425 31.3297 37.2424 30.9757 35.1106C30.8816 34.5426 30.8227 33.9682 30.7468 33.3971C30.7436 31.6001 30.7714 29.8031 30.7243 28.0072C30.7029 27.1622 30.9201 26.4798 31.5982 25.9621C32.0902 25.7161 32.6176 25.7172 33.1524 25.7204C34.7236 25.73 36.296 25.7225 37.8683 25.7225L37.8694 25.7215ZM38.339 39.5003C38.3186 39.5153 38.2812 39.5292 38.2812 39.5442C38.2737 40.2993 38.2705 41.0545 38.263 41.8096C38.2609 42.0171 38.4063 41.9904 38.5336 41.9893C39.1733 41.9872 39.8129 41.9818 40.4525 41.9776C40.6739 42.0236 40.783 41.9711 40.7756 41.708C40.7574 41.0609 40.7606 40.4116 40.7745 39.7645C40.7788 39.5356 40.6943 39.48 40.4803 39.4843C39.7669 39.4982 39.0524 39.496 38.3379 39.5003H38.339ZM38.339 34.4945C38.3186 34.5095 38.2812 34.5234 38.2812 34.5383C38.2737 35.2935 38.2705 36.0487 38.263 36.8038C38.2609 37.0113 38.4063 36.9846 38.5336 36.9835C39.1733 36.9814 39.8129 36.976 40.4525 36.9717C40.6739 37.0177 40.783 36.9653 40.7756 36.7022C40.7574 36.0551 40.7606 35.4058 40.7745 34.7587C40.7788 34.5298 40.6943 34.4742 40.4803 34.4785C39.7669 34.4924 39.0524 34.4902 38.3379 34.4945H38.339ZM35.4371 36.9728C35.6585 37.0188 35.7676 36.9664 35.7601 36.7033C35.7419 36.0561 35.7451 35.4069 35.759 34.7598C35.7633 34.5309 35.6788 34.4752 35.4649 34.4795C34.7514 34.4934 34.0369 34.4913 33.3224 34.4956C33.3021 34.5105 33.2647 34.5244 33.2647 34.5394C33.2572 35.2946 33.254 36.0497 33.2465 36.8049C33.2444 37.0124 33.3898 36.9856 33.5171 36.9846C34.1567 36.9824 34.7964 36.9771 35.436 36.9728H35.4371ZM43.2828 35.6561C43.2806 37.6477 43.286 39.6394 43.271 41.6321C43.2689 41.9369 43.3758 42.0054 43.6561 41.9968C44.255 41.9786 44.8562 41.9936 45.4562 41.9893C45.5675 41.9893 45.6948 42.0311 45.7803 41.9113C45.7814 40.9486 45.7846 39.987 45.7846 39.0243C45.7846 37.6328 45.7771 36.2412 45.791 34.8496C45.7942 34.5576 45.7097 34.4656 45.4167 34.4763C44.8177 34.4977 44.2176 34.4966 43.6186 34.4763C43.3352 34.4667 43.2539 34.5715 43.2731 34.8368C43.2924 35.1085 43.2806 35.3823 43.2828 35.6561ZM33.2583 28.542C33.254 29.5946 33.2561 30.6481 33.2411 31.7006C33.2379 31.9285 33.3214 31.9841 33.5353 31.983C36.05 31.9734 38.5647 31.9713 41.0783 31.967C42.5533 31.9713 44.0283 31.9713 45.5033 31.9841C45.7311 31.9862 45.7889 31.9081 45.7878 31.6921C45.7793 30.6364 45.776 29.5817 45.7889 28.526C45.7921 28.28 45.7119 28.2212 45.4766 28.2212C41.4943 28.2276 37.5121 28.2286 33.5299 28.2212C33.2668 28.2212 33.2091 28.3185 33.2572 28.5431L33.2583 28.542Z" fill="#00A79D"/>
<path d="M30.7363 44.4953C30.7331 44.3937 30.731 44.291 30.7278 44.1894C30.7321 44.0835 30.7363 43.9766 30.7406 43.8707C32.3322 43.8685 33.9227 43.8664 35.5143 43.8643C39.7704 43.8643 44.0253 43.8643 48.2814 43.8643C48.2814 44.2835 48.2814 44.7028 48.2814 45.1221C44.6265 45.1232 40.9716 45.1253 37.3156 45.1264C35.1271 45.1253 32.9387 45.1243 30.7502 45.1232C30.7449 44.9136 30.7406 44.7039 30.7353 44.4943L30.7363 44.4953Z" fill="#00A79D"/>
<path d="M37.3159 45.1273C40.9708 45.1263 44.6257 45.1241 48.2817 45.123C48.3202 46.0739 47.5501 46.9735 46.6227 46.9895C45.2183 47.012 43.8139 46.9895 42.4095 46.9842C42.3763 46.9649 42.3442 46.9296 42.31 46.9286C40.9227 46.8665 39.6349 46.4376 38.4016 45.8397C38.0165 45.6536 37.5769 45.5177 37.3159 45.1284V45.1273Z" fill="#00A79D"/>
<path d="M37.3166 45.1273C37.5776 45.5167 38.0172 45.6525 38.4022 45.8386C39.6355 46.4365 40.9233 46.8665 42.3106 46.9275C42.3449 46.9286 42.3769 46.9639 42.4101 46.9831C39.1146 46.9863 35.818 47.0013 32.5225 46.9863C31.5299 46.9821 30.7566 46.1264 30.7512 45.123C32.9397 45.1241 35.1281 45.1252 37.3166 45.1263V45.1273Z" fill="#00756E"/>
<path d="M33.2595 28.5427C33.2124 28.318 33.2702 28.2207 33.5323 28.2207C37.5145 28.2282 41.4967 28.2282 45.4789 28.2207C45.7142 28.2207 45.7944 28.2795 45.7912 28.5255C45.7784 29.5813 45.7805 30.6359 45.7901 31.6916C45.7923 31.9077 45.7334 31.9858 45.5056 31.9836C44.0306 31.9708 42.5556 31.9708 41.0806 31.9665C40.7372 31.8296 40.3661 31.8702 40.0131 31.8392C38.2354 31.6799 36.5411 31.2509 34.9623 30.4102C34.1762 29.9909 33.5269 29.4369 33.2595 28.5427Z" fill="#EAF6FD"/>
<path d="M30.7295 36.9819C30.7359 35.7861 30.7413 34.5913 30.7477 33.3955C30.8225 33.9667 30.8824 34.5411 30.9766 35.109C31.3306 37.2408 32.0366 39.241 33.2345 41.054C33.2388 41.1438 33.2463 41.2337 33.2463 41.3235C33.2499 41.7557 33.4585 41.9824 33.872 42.0038C34.3202 42.7119 34.977 43.235 35.5139 43.8639C33.9223 43.866 32.3307 43.8682 30.7402 43.8703C30.7391 41.7311 30.737 39.5918 30.7359 37.4526C30.7338 37.2954 30.7316 37.1392 30.7295 36.9819Z" fill="#00756E"/>
<path d="M43.2838 35.6562C43.2817 35.3835 43.2945 35.1086 43.2742 34.8369C43.2549 34.5716 43.3362 34.4679 43.6197 34.4764C44.2186 34.4957 44.8187 34.4967 45.4177 34.4764C45.7108 34.4657 45.7953 34.5577 45.7921 34.8497C45.7782 36.2413 45.7867 37.6329 45.7856 39.0244C45.7856 39.9871 45.7824 40.9487 45.7814 41.9114C45.3546 41.8226 45.0775 41.5306 44.8422 41.1979C43.9341 39.9154 43.6678 38.4233 43.4271 36.9173C43.3597 36.4969 43.4218 36.0659 43.2827 35.6562H43.2838Z" fill="#F8D08E"/>
<path d="M33.2593 28.5431C33.5278 29.4373 34.176 29.9924 34.9621 30.4106C36.5409 31.2513 38.2352 31.6813 40.0129 31.8396C40.3659 31.8717 40.737 31.8311 41.0804 31.9669C38.5657 31.9712 36.051 31.9733 33.5374 31.983C33.3235 31.983 33.24 31.9295 33.2433 31.7006C33.2572 30.6481 33.2561 29.5945 33.2604 28.542L33.2593 28.5431Z" fill="#C7E1FA"/>
<path d="M33.323 34.4948C34.0375 34.4905 34.7509 34.4926 35.4654 34.4787C35.6783 34.4745 35.7639 34.5301 35.7596 34.759C35.7457 35.4072 35.7425 36.0554 35.7606 36.7025C35.7681 36.9667 35.659 37.018 35.4376 36.972C35.382 36.9036 35.2986 36.9164 35.2237 36.8982C34.2974 36.6725 33.2203 35.6029 33.323 34.4948Z" fill="#EAF6FD"/>
<path d="M38.3393 34.4948C39.0538 34.4905 39.7673 34.4926 40.4818 34.4787C40.6946 34.4745 40.7802 34.5301 40.7759 34.759C40.762 35.4072 40.7588 36.0554 40.777 36.7025C40.7845 36.9667 40.6754 37.018 40.454 36.972C40.3984 36.9036 40.3149 36.9164 40.2401 36.8982C39.3138 36.6725 38.2367 35.6029 38.3393 34.4948Z" fill="#EAF6FD"/>
<path d="M33.323 39.5006C34.0375 39.4964 34.7509 39.4985 35.4654 39.4846C35.6783 39.4803 35.7639 39.5359 35.7596 39.7648C35.7457 40.413 35.7425 41.0612 35.7606 41.7083C35.7681 41.9725 35.659 42.0239 35.4376 41.9779C35.382 41.9094 35.2986 41.9223 35.2237 41.9041C34.2974 41.6784 33.2203 40.6088 33.323 39.5006Z" fill="#EAF6FD"/>
<path d="M38.3393 39.5006C39.0538 39.4964 39.7673 39.4985 40.4818 39.4846C40.6946 39.4803 40.7802 39.5359 40.7759 39.7648C40.762 40.413 40.7588 41.0612 40.777 41.7083C40.7845 41.9725 40.6754 42.0239 40.454 41.9779C40.3984 41.9094 40.3149 41.9223 40.2401 41.9041C39.3138 41.6784 38.2367 40.6088 38.3393 39.5006Z" fill="#EAF6FD"/>
<path d="M43.2839 35.6562C43.4219 36.0659 43.3609 36.497 43.4283 36.9173C43.669 38.4223 43.9353 39.9155 44.8434 41.198C45.0788 41.5306 45.3558 41.8237 45.7826 41.9114C45.697 42.0301 45.5697 41.9884 45.4585 41.9895C44.8584 41.9927 44.2583 41.9788 43.6583 41.997C43.377 42.0055 43.2711 41.9371 43.2732 41.6322C43.2882 39.6406 43.2839 37.649 43.285 35.6562H43.2839Z" fill="#F4B85B"/>
<path d="M33.3229 34.4941C33.2203 35.6033 34.2974 36.6719 35.2237 36.8976C35.2975 36.9158 35.3809 36.9029 35.4376 36.9714C34.798 36.9757 34.1583 36.981 33.5187 36.9832C33.3914 36.9832 33.2459 37.0099 33.2481 36.8035C33.2556 36.0483 33.2588 35.2932 33.2663 34.538C33.2663 34.523 33.3037 34.5091 33.324 34.4941H33.3229Z" fill="#C7E1FA"/>
<path d="M38.3383 34.4941C38.2356 35.6033 39.3128 36.6719 40.239 36.8976C40.3128 36.9158 40.3963 36.9029 40.453 36.9714C39.8133 36.9757 39.1737 36.981 38.5341 36.9832C38.4068 36.9832 38.2613 37.0099 38.2635 36.8035C38.2709 36.0483 38.2741 35.2932 38.2816 34.538C38.2816 34.523 38.3191 34.5091 38.3394 34.4941H38.3383Z" fill="#C7E1FA"/>
<path d="M33.3234 39.5C33.2208 40.6092 34.2979 41.6777 35.2242 41.9034C35.298 41.9216 35.3814 41.9088 35.4381 41.9772C34.9161 41.9858 34.3952 41.9944 33.8732 42.0029C33.4589 41.9815 33.2504 41.7548 33.2475 41.3226C33.2475 41.2328 33.24 41.1429 33.2357 41.0531C33.24 40.653 33.2379 40.2519 33.2518 39.8519C33.2561 39.7342 33.1801 39.592 33.3245 39.5H33.3234Z" fill="#C7E1FA"/>
<path d="M38.3383 39.5C38.2356 40.6092 39.3128 41.6777 40.239 41.9034C40.3128 41.9216 40.3963 41.9088 40.453 41.9772C39.8133 41.9815 39.1737 41.9869 38.5341 41.989C38.4068 41.989 38.2613 42.0157 38.2635 41.8093C38.2709 41.0542 38.2741 40.299 38.2816 39.5439C38.2816 39.5289 38.3191 39.515 38.3394 39.5H38.3383Z" fill="#C7E1FA"/>
</svg>
