<svg width="55" height="55" viewBox="0 0 55 55" fill="none" xmlns="http://www.w3.org/2000/svg">
<circle cx="27.5" cy="27.5" r="22.5" fill="#E9ECF5"/>
<path d="M21.3203 8.4988C21.3181 8.13472 21.3905 8 21.7935 8C29.6352 8.01336 37.478 8.01002 45.3196 8.01113C45.3185 10.9015 45.3163 13.7919 45.3152 16.6834H40.0978C40.0744 16.7235 40.0499 16.7636 40.0265 16.8025C40.3717 17.1187 40.7068 17.445 41.0642 17.7478C41.2947 17.9426 41.2613 18.0729 41.0587 18.2722C39.8918 19.4212 38.7328 20.5792 37.5849 21.7471C37.3789 21.9564 37.262 21.9542 37.0604 21.746C36.3468 21.0078 35.6075 20.2941 34.8904 19.5582C34.7167 19.38 34.6199 19.36 34.4317 19.5493C32.3586 21.6369 30.2776 23.7167 28.1911 25.7921C28.0196 25.9625 28.0297 26.0571 28.1956 26.2196C28.9304 26.9378 29.663 27.6582 30.3711 28.4008C30.6038 28.6457 30.7263 28.6201 30.949 28.3941C32.3129 27.0102 33.6958 25.6451 35.0608 24.2623C35.2679 24.053 35.3859 24.0574 35.5863 24.2656C36.271 24.9738 36.9881 25.6518 37.665 26.3666C37.9122 26.6283 38.0413 26.6405 38.3041 26.3733C40.0867 24.564 41.8937 22.7792 43.6796 20.9722C43.9245 20.7239 44.0604 20.7273 44.2975 20.9755C44.6182 21.3118 44.9066 21.6915 45.3185 21.932C45.3174 24.4037 45.3152 26.8754 45.3141 29.3472C44.6494 29.3483 43.9847 29.3505 43.32 29.3516C42.7789 29.3472 42.2366 29.3617 41.6977 29.3305C41.3771 29.3116 41.3103 29.4207 41.3114 29.7257C41.3225 32.7085 41.317 35.6924 41.3192 38.6752C41.3192 40.2295 41.3281 41.7827 41.3326 43.337C41.3314 44.0017 41.3292 44.6664 41.3281 45.3311C40.434 45.3311 39.5389 45.3311 38.6448 45.3311C38.6481 44.1944 38.6526 43.0587 38.6526 41.9219C38.6537 39.635 38.647 37.3481 38.6593 35.0611C38.6604 34.7616 38.6025 34.6436 38.2763 34.6637C37.7374 34.6959 37.1963 34.6804 36.6563 34.6848C36.0884 34.6804 35.5195 34.6848 34.9517 34.667C34.7089 34.6592 34.6488 34.7494 34.6499 34.9788C34.6611 37.7656 34.6633 40.5524 34.6678 43.3393C34.6666 44.004 34.6644 44.6687 34.6633 45.3334C33.7692 45.3334 32.8752 45.3334 31.98 45.3334C31.9822 42.7714 31.9833 40.2095 31.9923 37.6487C31.9923 37.4238 31.9422 37.3258 31.695 37.3336C31.1283 37.3525 30.5604 37.347 29.9926 37.3514C29.7733 37.347 29.5539 37.3425 29.3357 37.338C29.3023 36.8548 29.3056 36.3716 29.2577 35.8873C28.9471 32.6885 27.7124 29.9028 25.5134 27.5635C24.3755 26.3521 23.1797 25.1942 22.0106 24.0118C20.9998 16 21.3813 19.8998 21.3203 8.4988ZM27.3071 11.3424C28.347 11.3424 29.3869 11.3424 30.4268 11.3424C31.3287 11.3424 31.3075 11.3424 31.3331 10.455C31.3443 10.0698 31.2084 9.99966 30.8577 10.0019C28.6665 10.0164 26.4765 10.0097 24.2853 10.0097C23.2922 10.0097 23.3033 10.0097 23.32 11.0017C23.3244 11.2856 23.4291 11.3491 23.6885 11.3469C24.8943 11.3369 26.1013 11.3424 27.3071 11.3424ZM27.3483 12.6752C26.3084 12.6752 25.2684 12.6752 24.2285 12.6752C23.3167 12.6752 23.3322 12.6752 23.3189 13.5993C23.3133 13.9378 23.4258 14.0168 23.7464 14.0146C25.9654 14.0023 28.1833 14.0079 30.4023 14.0079C31.3409 14.0079 31.3276 14.0079 31.3331 13.0626C31.3354 12.7453 31.2318 12.664 30.9278 12.6685C29.7354 12.6841 28.5429 12.6752 27.3505 12.6752H27.3483ZM33.2994 11.3424C34.0431 11.3324 33.9919 11.4404 33.9875 10.7935C33.983 9.91616 34.0977 10.0119 33.4096 10.013C32.5645 10.013 32.6581 9.9028 32.6592 10.6221C32.6592 11.4382 32.5512 11.3335 33.2994 11.3435V11.3424ZM33.3306 14.0079C34.0431 13.999 33.9919 14.0947 33.9875 13.469C33.9819 12.5861 34.0988 12.6763 33.4196 12.6774C32.569 12.6796 32.657 12.5649 32.6592 13.2764C32.6614 14.1126 32.5445 13.9956 33.3306 14.0079Z" fill="white"/>
<path d="M22.5574 47.9904C23.5572 47.7933 24.5047 47.4771 25.3242 46.8402C25.8775 46.4105 26.3084 45.8716 26.7426 45.3338C27.1624 45.3338 27.581 45.3327 28.0008 45.3316C29.3279 45.3316 30.6551 45.3316 31.9823 45.3316C32.8763 45.3316 33.7704 45.3316 34.6656 45.3316C35.9927 45.3316 37.3199 45.3316 38.6471 45.3316C39.5412 45.3316 40.4363 45.3316 41.3304 45.3316C42.5362 45.3316 43.742 45.326 44.9478 45.3405C45.2239 45.3438 45.3275 45.2915 45.3264 44.9842C45.3152 39.7724 45.3175 34.5595 45.3163 29.3476C45.3175 26.8759 45.3197 24.4042 45.3208 21.9324C45.3186 20.1833 45.3175 18.433 45.3152 16.6839C45.3163 13.7935 45.3186 10.9031 45.3197 8.01159C46.0968 8.01159 46.874 8.01827 47.6511 8.00603C47.9028 8.00157 48.0141 8.08508 47.9852 8.34005C47.9763 8.42244 47.984 8.50594 47.984 8.58945C47.984 21.5271 47.984 34.4659 47.984 47.4036C47.984 48.0705 48.0486 47.9982 47.3761 47.9982C39.2416 47.9993 31.1072 47.9982 22.9738 47.9982C22.8346 47.9982 22.6965 47.9926 22.5574 47.9893V47.9904Z" fill="white"/>
<path d="M45.3165 16.6826C45.3187 18.4318 45.3198 20.182 45.3221 21.9312C44.909 21.6907 44.6217 21.311 44.3011 20.9748C44.0639 20.7265 43.9281 20.7231 43.6831 20.9714C41.8984 22.7785 40.0902 24.5632 38.3076 26.3725C38.0449 26.6397 37.9157 26.6275 37.6686 26.3658C36.9916 25.651 36.2746 24.973 35.5898 24.2649C35.3883 24.0567 35.2714 24.0522 35.0643 24.2615C33.6993 25.6444 32.3165 27.0094 30.9525 28.3933C30.7299 28.6194 30.6074 28.645 30.3747 28.4C29.6666 27.6563 28.9328 26.937 28.1991 26.2189C28.0332 26.0563 28.0232 25.9617 28.1947 25.7913C30.2812 23.716 32.3621 21.6361 34.4352 19.5485C34.6234 19.3592 34.7192 19.3782 34.894 19.5574C35.6099 20.2934 36.3503 21.0071 37.064 21.7452C37.2666 21.9546 37.3835 21.9557 37.5884 21.7464C38.7363 20.5784 39.8954 19.4205 41.0622 18.2714C41.2648 18.0721 41.2982 17.9419 41.0678 17.747C40.7115 17.4453 40.3752 17.118 40.0301 16.8018C40.0535 16.7617 40.078 16.7216 40.1013 16.6826H45.3187H45.3165Z" fill="#00A79D"/>
<path d="M45.3165 29.3457C45.3165 34.5575 45.3165 39.7705 45.3266 44.9823C45.3266 45.2896 45.223 45.3419 44.948 45.3386C43.7422 45.3241 42.5364 45.3308 41.3306 45.3296C41.3317 44.665 41.3339 44.0003 41.335 43.3356C41.6958 43.3356 42.0565 43.3333 42.4172 43.3333C43.1309 43.3333 43.3202 43.1407 43.3213 42.4192C43.3213 38.0636 43.3224 33.7069 43.3236 29.3513C43.9883 29.3502 44.653 29.3479 45.3176 29.3468L45.3165 29.3457Z" fill="#21409A"/>
<path d="M43.3222 29.3503C43.3222 33.7059 43.3211 38.0626 43.32 42.4183C43.32 43.1409 43.1307 43.3312 42.4159 43.3324C42.0551 43.3324 41.6944 43.3335 41.3337 43.3346C41.3292 41.7803 41.3214 40.2271 41.3203 38.6728C41.3181 35.69 41.3248 32.7061 41.3125 29.7233C41.3114 29.4182 41.3782 29.3102 41.6989 29.328C42.2377 29.3592 42.78 29.3447 43.3211 29.3492L43.3222 29.3503Z" fill="#172D6C"/>
<path d="M38.6463 45.3299C37.3191 45.3299 35.992 45.3299 34.6648 45.3299C34.6659 44.6652 34.6681 44.0005 34.6692 43.3358C35.0433 43.3358 35.4175 43.3336 35.7927 43.3336C36.4507 43.3314 36.6544 43.1265 36.6555 42.4618C36.6567 39.8687 36.6578 37.2756 36.6589 34.6825C37.1989 34.678 37.7411 34.6936 38.2789 34.6613C38.6051 34.6413 38.663 34.7604 38.6619 35.0588C38.6496 37.3457 38.6563 39.6327 38.6552 41.9196C38.6552 43.0564 38.6496 44.192 38.6474 45.3288L38.6463 45.3299Z" fill="#21409A"/>
<path d="M31.982 45.3304C30.6548 45.3304 29.3277 45.3304 28.0005 45.3304C28.0016 44.6657 28.0027 44.001 28.0038 43.3363C28.3924 43.3363 28.7799 43.3363 29.1684 43.333C29.7719 43.3296 29.9901 43.1125 29.9912 42.5057C29.9935 40.7866 29.9946 39.0675 29.9957 37.3484C30.5635 37.344 31.1314 37.3507 31.6981 37.3306C31.9453 37.3217 31.9965 37.4208 31.9954 37.6457C31.9865 40.2077 31.9865 42.7696 31.9831 45.3304H31.982Z" fill="#21409A"/>
<path d="M36.6583 34.6825C36.6583 37.2756 36.6572 39.8687 36.655 42.4618C36.655 43.1265 36.4501 43.3314 35.7921 43.3336C35.418 43.3336 35.0439 43.3358 34.6687 43.3358C34.6642 40.549 34.662 37.7621 34.6509 34.9753C34.6509 34.7459 34.7099 34.6558 34.9526 34.6635C35.5204 34.6825 36.0894 34.6769 36.6572 34.6814L36.6583 34.6825Z" fill="#172D6C"/>
<path d="M27.3088 11.3416C26.1018 11.3416 24.896 11.336 23.6902 11.346C23.4308 11.3482 23.3261 11.2848 23.3217 11.0009C23.305 10.0088 23.2938 10.0088 24.287 10.0088C26.4782 10.0088 28.6693 10.0166 30.8594 10.001C31.2101 9.9988 31.3459 10.0678 31.3348 10.4542C31.3092 11.3416 31.3304 11.3416 30.4285 11.3416C29.3886 11.3416 28.3487 11.3416 27.3088 11.3416Z" fill="#C7CCEC"/>
<path d="M27.3484 12.6758C28.5408 12.6758 29.7333 12.6847 30.9257 12.6691C31.2308 12.6647 31.3332 12.7459 31.331 13.0633C31.3254 14.0085 31.3399 14.0085 30.4002 14.0085C28.1812 14.0085 25.9633 14.003 23.7443 14.0152C23.4248 14.0174 23.3123 13.9384 23.3168 13.5999C23.3301 12.6758 23.3146 12.6758 24.2264 12.6758C25.2663 12.6758 26.3062 12.6758 27.3462 12.6758H27.3484Z" fill="#C7CCEC"/>
<path d="M29.9953 37.3483C29.9941 39.0674 29.9941 40.7865 29.9908 42.5056C29.9908 43.1124 29.7726 43.3306 29.168 43.3328C28.7794 43.3351 28.392 43.3351 28.0034 43.3362C27.9945 43.3017 27.9867 43.2671 27.9778 43.2326C28.3118 42.3697 28.6737 41.518 28.8952 40.6161C29.1602 39.5373 29.286 38.4417 29.3361 37.335C29.5555 37.3394 29.7748 37.3439 29.993 37.3483H29.9953Z" fill="#172D6C"/>
<path d="M33.2997 11.343C32.5515 11.3329 32.6606 11.4376 32.6595 10.6215C32.6595 9.90222 32.5638 10.0136 33.4099 10.0124C34.0991 10.0124 33.9833 9.91558 33.9878 10.7929C33.9911 11.4398 34.0435 11.3318 33.2997 11.3418V11.343Z" fill="#C7CCEC"/>
<path d="M33.3309 14.0078C32.5448 13.9956 32.6617 14.1125 32.6595 13.2763C32.6573 12.566 32.5693 12.6795 33.4199 12.6773C34.0991 12.6762 33.9822 12.586 33.9878 13.4689C33.9911 14.0947 34.0434 13.9989 33.3309 14.0078Z" fill="#C7CCEC"/>
<path d="M27.9788 43.2324C27.9877 43.2669 27.9955 43.3015 28.0044 43.336C28.0033 44.0007 28.0022 44.6654 28.0011 45.3301C27.5813 45.3301 27.1627 45.3312 26.7429 45.3323C27.1549 44.632 27.5668 43.9316 27.9799 43.2324H27.9788Z" fill="#F1F1F1"/>
<path d="M22.5148 17.0185C23.9759 18.4963 25.469 19.9435 26.8925 21.4574C29.6408 24.381 31.184 27.8626 31.5722 31.8604C31.6306 32.4657 31.6265 33.0696 31.6682 33.6735C31.6056 35.0567 31.4483 36.4259 31.1172 37.7743C30.8403 38.9028 30.388 39.9673 29.9706 41.0444C29.4557 41.9196 28.9408 42.7949 28.4246 43.6687C27.8819 44.3408 27.3434 45.0143 26.6518 45.5515C25.6277 46.3488 24.4435 46.7426 23.1939 46.9889C20.2648 46.9931 17.3356 47.0028 14.4065 46.9986C11.9728 46.9945 10.0149 46.0093 8.5566 44.0625C5.99622 40.6478 4.79813 36.7877 5.02773 32.5353C5.25733 28.2661 6.84782 24.5285 9.79922 21.4129C11.2172 19.9157 12.695 18.4754 14.1463 17.0088C14.6723 17.0088 15.1997 17.0102 15.7257 17.0116C16.3477 17.0116 16.9683 17.0116 17.5903 17.0102C18.0801 17.0102 18.5713 17.0102 19.0611 17.0102C19.6831 17.0102 20.3037 17.0102 20.9257 17.0116C21.4559 17.013 21.9847 17.0157 22.5148 17.0171V17.0185ZM22.2727 25.4608C21.9819 25.3189 21.7022 25.1408 21.3975 25.0406C18.037 23.9343 14.9422 24.4784 12.2831 26.7911C8.63731 29.9624 8.10992 35.2418 10.9556 39.1171C11.739 40.183 12.6588 41.1195 13.9376 41.6093C13.9626 41.7471 14.0725 41.8027 14.1825 41.8556C16.0234 42.7392 17.9479 43.0704 19.9684 42.6863C22.2101 42.2619 24.0664 41.1765 25.4815 39.3759C27.1848 37.2066 27.804 34.7533 27.3392 32.0343C27.0526 30.3589 26.3123 28.8853 25.2046 27.6135C24.3962 26.6854 23.443 25.9158 22.2741 25.4608H22.2727Z" fill="#21409A"/>
<path d="M22.515 17.0189C21.9848 17.0175 21.456 17.0147 20.9259 17.0133C21.8331 15.1793 22.2993 13.227 22.4844 11.201C22.5623 10.3535 22.5442 10.3508 21.6801 10.3508C21.5242 10.3508 21.367 10.3619 21.2125 10.348C20.9203 10.3229 20.8285 10.4454 20.816 10.7362C20.7909 11.3026 20.7478 11.8731 20.6601 12.4325C20.4068 14.0536 19.8363 15.5689 19.0613 17.0091C18.5714 17.0091 18.0802 17.0091 17.5904 17.0091C16.5204 15.036 15.8858 12.939 15.8302 10.6847C15.8176 10.2005 15.4475 10.3104 15.2374 10.3661C14.8798 10.4635 14.319 9.98618 14.1729 10.6778C14.0991 11.0298 14.2258 11.3972 14.2522 11.7562C14.3913 13.6083 14.9549 15.3365 15.7258 17.0091C15.1998 17.0091 14.6724 17.0077 14.1464 17.0064C12.62 15.4673 11.0698 13.952 9.57394 12.3838C8.29653 11.0423 7.67731 9.39062 7.50059 7.5566C7.45884 7.12245 7.58129 7.00417 8.02379 7.00696C12.3597 7.02366 16.6957 7.01809 21.033 7.0167C21.2404 7.0167 21.4491 7.00557 21.6564 7C23.9455 7.00557 26.2331 7.01113 28.5221 7.0167C29.2165 7.01809 29.2179 7.02226 29.1316 7.76533C28.8978 9.78859 28.0407 11.4988 26.5935 12.9292C25.2243 14.2818 23.8731 15.6538 22.515 17.0175V17.0189Z" fill="#21409A"/>
<path d="M25.8089 32.3465C25.6961 30.3691 25.0254 28.5783 23.7313 27.042C23.3514 26.5912 22.9743 26.1459 22.4887 25.8022C22.376 25.7229 22.2828 25.6143 22.2744 25.4613C21.9836 25.3193 21.7039 25.1412 21.3978 25.041C18.0373 23.9348 14.9425 24.4789 12.2834 26.7916C8.63761 29.9628 8.11022 35.2422 10.9559 39.1176C11.7393 40.1835 12.6591 41.1199 13.9379 41.6098C14.9272 41.8519 15.9208 42.0592 16.9491 42.0049C19.9033 41.8505 22.2925 40.6273 24.0625 38.2381C25.3594 36.4876 25.9313 34.5033 25.8089 32.3479V32.3465Z" fill="#A6B3D7"/>
<path d="M13.9358 41.61C14.9252 41.8521 15.9187 42.0594 16.947 42.0052C19.9012 41.8507 22.2904 40.6276 24.0604 38.2383C25.3573 36.4878 25.9292 34.5035 25.8068 32.3481C25.6941 30.3707 25.0233 28.5799 23.7292 27.0436C23.3494 26.5928 22.9723 26.1475 22.4866 25.8038C22.3739 25.7245 22.2807 25.616 22.2723 25.4629C23.4412 25.9179 24.3944 26.686 25.2029 27.6156C26.3105 28.8874 27.0508 30.3624 27.3374 32.0364C27.8022 34.754 27.183 37.2086 25.4798 39.378C24.066 41.1786 22.2083 42.264 19.9666 42.6884C17.9461 43.0711 16.0217 42.7413 14.1807 41.8577C14.0708 41.8048 13.9608 41.7491 13.9358 41.6114V41.61Z" fill="#8E9DC1"/>
<path d="M15.7257 17.0127C14.9548 15.3401 14.3912 13.6119 14.2521 11.7598C14.2256 11.4008 14.0976 11.0334 14.1728 10.6814C14.3189 9.98978 14.8796 10.4671 15.2373 10.3697C15.4474 10.3126 15.8175 10.2027 15.83 10.6883C15.8857 12.9426 16.5202 15.0396 17.5903 17.0127C16.9683 17.0127 16.3477 17.0127 15.7257 17.0127Z" fill="#172D6C"/>
<path d="M19.0613 17.011C19.8364 15.5694 20.4083 14.0555 20.6601 12.4343C20.7478 11.8736 20.7909 11.3044 20.816 10.7381C20.8285 10.4473 20.9203 10.3248 21.2126 10.3499C21.367 10.3638 21.5243 10.3526 21.6801 10.3526C22.5442 10.3526 22.5609 10.354 22.4844 11.2029C22.2993 13.2289 21.8318 15.1812 20.9259 17.0152C20.3039 17.0152 19.6833 17.0152 19.0613 17.0138V17.011Z" fill="#172D6C"/>
<path d="M18.3154 35.7831H16.974L15.1706 33.7042H13.9794V35.7831H12.8064V29.5547C13.793 29.5547 14.7782 29.563 15.7647 29.563C17.2314 29.5714 18.0037 30.5496 18.0037 31.6239C18.0037 32.4769 17.6127 33.3382 16.4313 33.5789L18.3154 35.7024V35.7817V35.7831ZM13.9794 30.6568V32.6466H15.7647C16.5106 32.6466 16.8306 32.1485 16.8306 31.6517C16.8306 31.1549 16.5022 30.6568 15.7647 30.6568H13.9794Z" fill="#21409A"/>
<path d="M19.0615 37.7905V31.4021H20.0745L20.1455 32.006C20.4836 31.5176 21.0695 31.3047 21.5676 31.3047C22.9174 31.3047 23.8149 32.308 23.8149 33.5965C23.8149 34.885 23.0065 35.8883 21.6024 35.8883C21.1404 35.8883 20.4558 35.7464 20.1455 35.2663V37.7891H19.0615V37.7905ZM22.7309 33.5965C22.7309 32.9119 22.269 32.3525 21.4869 32.3525C20.7049 32.3525 20.2429 32.9119 20.2429 33.5965C20.2429 34.2811 20.7494 34.8405 21.4869 34.8405C22.2244 34.8405 22.7309 34.2811 22.7309 33.5965Z" fill="#21409A"/>
</svg>
