<svg width="45" height="45" viewBox="0 0 45 45" fill="none" xmlns="http://www.w3.org/2000/svg">
<circle cx="22.5" cy="22.5" r="22.5" fill="#E9ECF5"/>
<path d="M13.3171 28.5233C11.3356 26.5395 9.36069 24.549 7.36356 22.5808C6.96502 22.1867 6.83589 21.9485 7.27673 21.4431C8.77513 19.7243 9.44307 17.6804 9.46088 15.4027C9.51432 8.89922 13.8314 3.62696 20.1947 2.27328C27.5331 0.710299 35.034 6.04045 35.978 13.4434C36.1294 14.6301 36.0315 15.8235 36.2363 17.0058C36.5324 18.7224 37.1981 20.2497 38.367 21.5277C38.7656 21.9619 38.6587 22.1689 38.3047 22.5185C36.4456 24.3486 34.6065 26.2011 32.7652 28.0512C32.5738 28.2427 32.3177 28.3874 32.2487 28.6836C31.7567 28.688 31.2646 28.6902 30.7726 28.6947C29.4434 28.688 28.1164 28.6813 26.7872 28.6747C26.7805 27.4546 26.7716 26.2322 26.7649 25.0121C26.8251 24.9565 26.8807 24.8941 26.9497 24.8496C29.0292 23.4848 30.3562 21.619 30.6702 19.1187C30.9262 17.0748 30.7258 15.0198 30.7748 12.9692C30.7792 12.7532 30.659 12.6063 30.5032 12.4816C28.4125 10.8051 26.3219 9.12632 24.2023 7.42531C23.6323 10.2752 22.3142 11.6378 19.8117 11.9985C18.4691 12.1922 17.1266 12.3814 15.7818 12.5328C15.0894 12.6107 14.6886 12.8067 14.7688 13.6371C14.8556 14.5455 14.7866 15.4673 14.7888 16.3824C14.791 17.627 14.7398 18.8715 15.0671 20.0983C15.6438 22.2535 17.0086 23.792 18.8031 25.0099C18.7942 26.2322 18.7853 27.4523 18.7786 28.6747C17.5296 28.6791 16.2805 28.6991 15.0337 28.6769C14.4615 28.668 13.867 28.8216 13.3171 28.5277V28.5233Z" fill="#101010"/>
<path d="M26.7897 28.6697C28.1189 28.6764 29.4459 28.683 30.7751 28.6897C30.7751 30.4063 30.7818 32.1229 30.7796 33.8395C30.7796 36.2641 29.0273 38.0075 26.5938 38.0097C20.8896 38.0141 15.1854 38.0186 9.48124 38.0208C9.47233 36.086 9.43225 34.1512 9.46788 32.2164C9.49682 30.58 11.0264 28.997 12.7898 28.6853C12.9746 28.6519 13.1838 28.7187 13.3152 28.5205C13.8651 28.8166 14.4596 28.6608 15.0318 28.6697C16.2808 28.6919 17.5277 28.6697 18.7767 28.6675C18.8502 30.9095 20.618 32.6773 22.7866 32.6773C24.964 32.6773 26.714 30.9229 26.7875 28.6675L26.7897 28.6697Z" fill="#00A79D"/>
<path d="M9.48289 38.0219C15.1871 38.0175 20.8913 38.0152 26.5955 38.0108C29.029 38.0108 30.779 36.2652 30.7812 33.8406C30.7812 32.124 30.779 30.4074 30.7768 28.6908C31.2688 28.6886 31.7609 28.6841 32.2529 28.6797C34.604 28.8979 36.1025 30.5098 36.1114 32.8521C36.1247 35.9001 36.1247 38.9481 36.1292 41.9961C27.2345 41.9961 18.3398 41.9984 9.44727 42.0006C9.46062 40.6736 9.47176 39.3489 9.48512 38.0219H9.48289Z" fill="#00A79D"/>
<path d="M18.8055 25.0055C17.0109 23.7854 15.6439 22.2491 15.0695 20.0939C14.7422 18.8671 14.7934 17.6225 14.7912 16.378C14.7889 15.4629 14.8579 14.5411 14.7711 13.6327C14.691 12.8 15.0917 12.6063 15.7842 12.5284C17.1312 12.377 18.4737 12.1878 19.8141 11.994C22.3144 11.6334 23.6347 10.2708 24.2046 7.4209C26.3242 9.12191 28.4149 10.7984 30.5055 12.4772C30.6614 12.6019 30.7838 12.7488 30.7771 12.9648C30.7282 15.0154 30.9285 17.0704 30.6725 19.1143C30.3586 21.6146 29.0338 23.4804 26.9521 24.8452C26.8853 24.8897 26.8296 24.9543 26.7673 25.0077C25.5672 25.5064 24.3738 25.9829 23.0357 26.0274C21.5173 26.0786 20.1547 25.5933 18.8032 25.0055H18.8055Z" fill="#FAE0C9"/>
<path d="M18.8055 25.0049C20.157 25.5927 21.5196 26.078 23.038 26.0268C24.3761 25.9823 25.5695 25.5058 26.7695 25.0071C26.7762 26.2272 26.7851 27.4495 26.7918 28.6696C26.7161 30.925 24.9661 32.6773 22.7909 32.6795C20.6245 32.6795 18.8567 30.9117 18.781 28.6696C18.7899 27.4473 18.7966 26.2272 18.8055 25.0049Z" fill="#F1B8A0"/>
</svg>
