<svg width="49" height="45" viewBox="0 0 49 45" fill="none" xmlns="http://www.w3.org/2000/svg">
<circle cx="22.5" cy="22.5" r="22.5" fill="#E9ECF5"/>
<path d="M18.3536 26.3426C16.625 25.0908 15.1972 23.614 14.6381 21.4667C14.5691 21.1971 14.4978 20.9387 14.5089 20.6603C14.3753 20.2371 14.3352 19.8072 14.3374 19.3617C14.3463 18.014 14.3329 16.6642 14.3285 15.3165C14.3664 13.9711 14.3686 13.9801 15.714 13.8197C16.5939 13.715 17.4737 13.6036 18.3447 13.4477C19.1866 13.2984 20.0554 13.2606 20.855 12.9086C22.6437 12.1201 23.5058 10.6722 23.733 8.70312C25.6286 10.2267 27.4061 11.7281 29.2705 13.1158C30.0657 13.7083 30.5157 14.3231 30.3597 15.3143C30.3553 15.7821 30.3642 16.2499 30.3419 16.7176C30.2773 18.0319 30.5112 19.3572 30.1793 20.6581C29.9009 22.87 28.6936 24.5116 26.9851 25.8437C26.769 26.0107 26.5507 26.1756 26.3347 26.3404C25.0093 26.8616 23.6973 27.3762 22.2205 27.3495C20.835 27.325 19.6054 26.8215 18.3558 26.3404L18.3536 26.3426Z" fill="#FAE0C9"/>
<path d="M30.3571 15.3166C30.513 14.3254 30.0653 13.7084 29.2679 13.1181C27.4034 11.7326 25.6259 10.229 23.7303 8.70542C23.5031 10.6745 22.6411 12.1224 20.8524 12.9109C20.0527 13.2629 19.184 13.3007 18.342 13.45C17.4711 13.6037 16.5912 13.7173 15.7113 13.822C14.3659 13.9823 14.3659 13.9712 14.3258 15.3188C13.8803 15.3233 13.4371 15.3277 12.9916 15.3344C12.4124 12.8552 11.6573 10.4094 11.6662 7.82333C11.6707 6.67172 11.8311 5.55352 12.1964 4.46873C13.0294 1.99844 15.8717 1.21213 17.8631 2.89166C18.3064 3.26588 18.7452 3.66238 19.1149 4.10787C19.5226 4.59792 19.8122 4.55114 20.2443 4.12792C21.7456 2.66223 23.5722 1.96948 25.6705 2.00512C29.5641 2.06972 32.7984 5.32631 33.0301 9.21774C33.1526 11.2448 32.4309 13.0178 31.8406 14.8555C31.7894 15.0137 31.7426 15.1718 31.6936 15.3322C31.2481 15.3277 30.8026 15.3233 30.3571 15.3188V15.3166Z" fill="#101010"/>
<path d="M35.6761 41.9782C30.3591 41.9871 25.042 41.9983 19.725 42.0005C16.1521 42.0005 12.5792 41.9871 9.00854 41.9782C9.01745 40.6551 9.02636 39.332 9.0375 38.0088C14.9136 38.0088 20.792 38.0088 26.6681 37.9999C28.8444 37.9977 30.3457 36.6345 30.7021 34.4961C30.9493 33.0037 30.76 31.5113 30.8513 30.0233C33.4374 29.9119 35.0969 31.0167 35.587 33.1975C35.6649 33.5427 35.6738 33.9103 35.6738 34.2667C35.6805 36.8372 35.6783 39.4077 35.6783 41.9782H35.6761Z" fill="#172D6C"/>
<path d="M30.8473 30.0248C30.7582 31.5128 30.9453 33.0052 30.698 34.4976C30.3438 36.636 28.8403 37.9993 26.664 38.0015C20.7879 38.0082 14.9096 38.0082 9.03344 38.0104C9.02453 36.518 8.97329 35.0256 9.01784 33.5354C9.0713 31.7489 10.88 30.0293 12.6843 30.0093C14.5643 29.987 16.4421 30.0048 18.3221 30.0048C18.4847 32.3058 20.1598 33.9898 22.3004 34.0031C24.519 34.0165 26.1874 32.3726 26.3566 30.0048C27.8535 30.0115 29.3482 30.0182 30.845 30.0271L30.8473 30.0248Z" fill="#21409A"/>
<path d="M26.3609 30.0016C26.1916 32.3694 24.5209 34.0133 22.3046 33.9999C20.164 33.9865 18.4889 32.3026 18.3263 30.0016C18.3352 28.7809 18.3441 27.5625 18.353 26.3418C19.6026 26.8207 20.8322 27.3241 22.2199 27.3509C23.6968 27.3776 25.0088 26.863 26.3341 26.3418C26.343 27.5625 26.3519 28.7809 26.3609 30.0016Z" fill="#F1B8A0"/>
<path d="M12.9967 15.332C13.4422 15.3275 13.8855 15.3231 14.331 15.3164C14.3355 16.664 14.3488 18.0139 14.3399 19.3615C14.3377 19.807 14.3778 20.2369 14.5114 20.6602C13.5982 20.6624 12.6827 20.6735 11.7694 20.6646C10.1723 20.649 8.99617 19.493 9.01399 17.9671C9.02959 16.4769 10.1923 15.3587 11.7516 15.3342C12.1659 15.3275 12.5824 15.332 12.999 15.3298L12.9967 15.332Z" fill="#F1B8A0"/>
<path d="M30.3578 15.3164C30.8033 15.3209 31.2488 15.3253 31.6943 15.3298C32.1932 15.3298 32.6922 15.3097 33.1889 15.3387C34.6101 15.4233 35.6993 16.6217 35.6748 18.0518C35.6503 19.4395 34.5588 20.6022 33.1667 20.6557C32.171 20.6936 31.1731 20.6602 30.1774 20.6602C30.5093 19.3571 30.2754 18.0317 30.34 16.7197C30.3623 16.252 30.3533 15.7842 30.3578 15.3164Z" fill="#F1B8A0"/>
<path d="M40.5539 30.8528C39.3106 30.1621 38.5498 29.085 38.1887 27.7429C37.2121 24.1102 40.1613 20.6531 43.9022 21.0279C44.3373 21.0716 44.7806 21.1339 45.1748 21.3575C45.2184 21.3785 45.262 21.4 45.3062 21.421C45.3857 21.4144 45.4608 21.421 45.511 21.495C45.5022 21.7274 45.702 21.8196 45.8279 21.9577C47.2247 23.4897 47.6912 25.2624 47.0922 27.2494C46.3977 29.5537 44.3213 31.0195 41.9462 31.0179C41.4692 31.0179 41.0259 30.8324 40.5539 30.8522V30.8528ZM42.0136 29.0094C42.2719 29.0066 42.4459 28.8526 42.6153 28.6826C43.6726 27.6231 44.7315 26.5659 45.7898 25.5081C46.4943 24.8042 46.4838 24.8141 45.7887 24.1091C45.569 23.8866 45.4564 23.938 45.2675 24.1312C44.4538 24.9632 43.6273 25.7825 42.8014 26.6034C42.5474 26.8557 42.2935 27.2797 42.0196 27.2963C41.7 27.3156 41.4709 26.8513 41.2075 26.5929C40.4363 25.836 40.4468 25.8366 39.7197 26.6189C39.5667 26.784 39.5811 26.8723 39.7302 27.0186C40.3248 27.5994 40.9089 28.1912 41.4974 28.7786C41.6398 28.9205 41.806 29.0116 42.0136 29.0099V29.0094Z" fill="#00A79D"/>
<path d="M40.5542 30.8533C41.0262 30.8329 41.4696 31.0184 41.9465 31.019C44.3216 31.0201 46.3974 29.5543 47.0925 27.2504C47.6915 25.2635 47.225 23.4908 45.8282 21.9587C45.7024 21.8207 45.5025 21.7285 45.5113 21.4961C48.5252 22.6742 49.6337 26.6807 47.7003 29.4063C46.144 31.6003 43.2903 32.3036 40.897 31.0808C40.7756 31.019 40.6679 30.9301 40.5542 30.8533Z" fill="#00A79D"/>
<path d="M42.0133 29.0088C41.8058 29.0105 41.6396 28.9194 41.4971 28.7775C40.9086 28.1901 40.3251 27.5982 39.7299 27.0174C39.5803 26.8711 39.566 26.7828 39.7194 26.6177C40.4465 25.8349 40.436 25.8343 41.2073 26.5918C41.4706 26.8502 41.6998 27.3145 42.0194 27.2951C42.2933 27.2786 42.5472 26.8546 42.8012 26.6023C43.6265 25.7819 44.4535 24.962 45.2673 24.1301C45.4561 23.9368 45.5687 23.8855 45.7885 24.108C46.4835 24.8135 46.494 24.803 45.7896 25.5069C44.7312 26.5647 43.6723 27.6225 42.6151 28.6814C42.4456 28.8515 42.2717 29.0055 42.0128 29.0082L42.0133 29.0088Z" fill="#EDEFEC"/>
</svg>
