<svg width="45" height="45" viewBox="0 0 45 45" fill="none" xmlns="http://www.w3.org/2000/svg">
<circle cx="22.5" cy="22.5" r="22.5" fill="#E9ECF5"/>
<path d="M42.7901 23.123C44.1198 23.2278 45.0221 24.1885 44.9648 25.4366C44.9113 26.6238 43.9286 27.4968 42.6391 27.5041C41.9572 27.5078 41.2753 27.5139 40.5935 27.5188C37.1926 27.5188 33.7917 27.5188 30.392 27.5188C29.1817 27.5151 27.9713 27.5115 26.761 27.509C25.7856 27.509 24.8091 27.509 23.8337 27.509C22.3677 27.5102 20.9004 27.5115 19.4344 27.5127C18.2277 27.5151 17.021 27.5175 15.8143 27.52C12.4134 27.52 9.01252 27.52 5.61285 27.52C4.8579 27.5151 4.10174 27.5224 3.3468 27.5005C2.17055 27.4664 1.25001 26.4984 1.25245 25.3197C14.7099 25.3197 28.1661 25.3185 41.6236 25.3173C41.7454 25.3173 41.8659 25.3197 41.9877 25.3173C42.5076 25.3039 42.7706 25.0494 42.7804 24.5343C42.7901 24.0643 42.7877 23.5943 42.7901 23.123Z" fill="#C08E59"/>
<path d="M42.79 23.1235C42.7876 23.5935 42.79 24.0648 42.7803 24.5348C42.7693 25.0498 42.5075 25.3043 41.9876 25.3177C41.8658 25.3214 41.7453 25.3177 41.6235 25.3177C28.166 25.3177 14.7098 25.3189 1.25234 25.3202C1.19754 24.1147 2.112 23.1868 3.4234 23.1174C5.37651 23.1223 7.32962 23.1296 9.28151 23.1296C12.188 23.1296 15.0946 23.1223 18.0011 23.1174C18.9716 23.1174 19.942 23.1174 20.9137 23.1162C22.3737 23.1162 23.8324 23.1162 25.2924 23.1162C26.2616 23.1199 27.2297 23.1235 28.1989 23.126C33.0634 23.126 37.9279 23.1247 42.7912 23.1235H42.79Z" fill="#CD9A6E"/>
<path d="M23.8334 27.5073C24.8087 27.5073 25.7853 27.5073 26.7606 27.5073C27.971 31.8775 29.1813 36.2464 30.3916 40.6153V40.6518C30.1968 40.6421 30.0008 40.6238 29.8047 40.6238C25.1387 40.6202 20.4715 40.6202 15.8054 40.6177C16.0843 39.6473 16.3643 38.678 16.6432 37.7076C18.2943 37.7076 19.9466 37.7076 21.5978 37.7063C22.8532 37.7051 23.8297 36.7225 23.8309 35.461C23.8322 32.809 23.8322 30.1569 23.8334 27.5049V27.5073Z" fill="#976947"/>
<path d="M23.833 27.5068C23.833 30.1589 23.833 32.8109 23.8306 35.463C23.8306 36.7244 22.8528 37.7071 21.5974 37.7083C19.9463 37.7095 18.294 37.7083 16.6428 37.7095C16.9168 36.3957 17.3344 35.1208 17.6851 33.8289C18.2562 31.7199 18.8492 29.617 19.4337 27.5105C20.8997 27.5093 22.367 27.5081 23.833 27.5068Z" fill="#A77654"/>
<path d="M30.393 40.6172C31.7373 40.7243 32.6311 41.6692 32.5751 42.9234C32.5203 44.1398 31.5486 44.9971 30.2141 44.9983C25.4518 44.9995 20.6896 45.0007 15.9262 44.9983C14.5953 44.9983 13.6443 44.0802 13.6431 42.8138C13.8549 42.8138 14.068 42.8126 14.2799 42.8126C19.1188 42.8126 23.9566 42.8126 28.7955 42.8126C29.8293 42.8126 30.3894 42.2452 30.3918 41.2017C30.3918 41.0202 30.3943 40.8376 30.3943 40.6562L30.393 40.6196V40.6172Z" fill="#674025"/>
<path d="M30.3945 40.6544C30.3945 40.8359 30.3921 41.0185 30.3921 41.2C30.3897 42.2423 29.8296 42.8109 28.7958 42.8109C23.9568 42.8109 19.1191 42.8109 14.2802 42.8109C14.0683 42.8109 13.8552 42.8109 13.6433 42.8121C13.5922 41.6103 14.5347 40.6545 15.8059 40.6191C20.4719 40.6204 25.1392 40.6216 29.8052 40.6252C30.0012 40.6252 30.1973 40.6435 30.3933 40.6532L30.3945 40.6544Z" fill="#774D30"/>
<path d="M5.61132 27.5195C9.01222 27.5195 12.4131 27.5195 15.8128 27.5195C15.3306 28.3561 15.0128 29.279 14.4174 30.0595C12.9732 31.9542 10.2067 32.4413 8.20005 31.153C7.38179 30.6282 6.80584 29.9207 6.38575 29.0611C6.1337 28.5436 5.86947 28.0334 5.61011 27.5195H5.61132Z" fill="#A6B3D7"/>
<path d="M30.3918 27.5195C33.7927 27.5195 37.1936 27.5195 40.5933 27.5195C40.1111 28.3561 39.7933 29.279 39.1979 30.0595C37.7537 31.9542 34.9872 32.4413 32.9806 31.153C32.1623 30.6282 31.5864 29.9207 31.1663 29.0611C30.9142 28.5436 30.65 28.0334 30.3906 27.5195H30.3918Z" fill="#A6B3D7"/>
<path d="M25.2922 23.116C23.8323 23.116 22.3735 23.116 20.9136 23.116C20.9136 22.4037 20.9136 21.6914 20.916 20.9791C20.9197 19.748 21.912 18.7508 23.1273 18.7569C24.312 18.7617 25.2862 19.7626 25.2886 20.9791C25.291 21.6914 25.291 22.4037 25.291 23.116H25.2922Z" fill="#E1E6F5"/>
<path d="M8.53159 14.5703C7.58669 13.886 6.80618 13.0787 6.50055 11.9049C6.4628 11.7575 6.42384 11.6163 6.42993 11.4641C6.35687 11.2327 6.33495 10.9977 6.33617 10.7542C6.34104 10.0175 6.33373 9.27961 6.3313 8.54293C6.352 7.80747 6.35322 7.81235 7.08868 7.72467C7.56965 7.66744 8.05062 7.60656 8.52672 7.52133C8.98699 7.43974 9.46187 7.41904 9.89901 7.22666C10.8768 6.79561 11.348 6.00414 11.4722 4.92773C12.5084 5.76061 13.4801 6.5813 14.4993 7.3399C14.934 7.66379 15.18 7.99986 15.0947 8.54172C15.0923 8.79742 15.0972 9.05313 15.085 9.30884C15.0497 10.0272 15.1775 10.7517 14.9961 11.4629C14.8439 12.672 14.1839 13.5694 13.25 14.2975C13.1319 14.3889 13.0125 14.479 12.8944 14.5691C12.1699 14.854 11.4527 15.1353 10.6454 15.1207C9.88805 15.1073 9.21591 14.8321 8.53281 14.5691L8.53159 14.5703Z" fill="#FAE0C9"/>
<path d="M15.0933 8.54314C15.1785 8.00129 14.9338 7.664 14.4979 7.34132C13.4787 6.58394 12.507 5.76203 11.4708 4.92916C11.3466 6.00556 10.8754 6.79703 9.8976 7.22808C9.46047 7.42047 8.98558 7.44117 8.52531 7.52275C8.04921 7.60677 7.56824 7.66887 7.08727 7.7261C6.35181 7.81377 6.35181 7.80768 6.32989 8.54436C6.08636 8.54679 5.84405 8.54923 5.60052 8.55288C5.28393 7.19764 4.87115 5.86066 4.87602 4.44697C4.87845 3.81745 4.96613 3.20619 5.16582 2.61319C5.62122 1.26282 7.17494 0.832989 8.26352 1.7511C8.50583 1.95566 8.74571 2.1724 8.94784 2.41593C9.17067 2.68381 9.32896 2.65824 9.56519 2.42689C10.3859 1.62568 11.3844 1.24699 12.5314 1.26647C14.6598 1.30178 16.4279 3.08199 16.5545 5.20922C16.6215 6.31728 16.2269 7.28653 15.9043 8.29109C15.8763 8.37754 15.8507 8.46399 15.8239 8.55166C15.5804 8.54923 15.3368 8.54679 15.0933 8.54436V8.54314Z" fill="#101010"/>
<path d="M18.001 23.1174C15.0945 23.1223 12.188 23.1284 9.28145 23.1296C7.32834 23.1296 5.37523 23.1223 3.42334 23.1174C3.42821 22.3942 3.43308 21.6709 3.43917 20.9476C6.65133 20.9476 9.8647 20.9476 13.0769 20.9427C14.2665 20.9415 15.0872 20.1963 15.282 19.0274C15.4172 18.2115 15.3137 17.3957 15.3636 16.5823C16.7773 16.5214 17.6844 17.1254 17.9523 18.3175C17.9949 18.5062 17.9998 18.7071 17.9998 18.9019C18.0035 20.3071 18.0023 21.7123 18.0023 23.1174H18.001Z" fill="#21409A"/>
<path d="M15.3612 16.583C15.3125 17.3964 15.4148 18.2122 15.2797 19.028C15.0861 20.197 14.2641 20.9422 13.0745 20.9434C9.86234 20.9471 6.64896 20.9471 3.4368 20.9483C3.43193 20.1325 3.40392 19.3166 3.42828 18.502C3.4575 17.5255 4.44623 16.5854 5.43253 16.5745C6.46022 16.5623 7.4867 16.572 8.5144 16.572C8.60329 17.8299 9.51896 18.7504 10.6891 18.7577C11.9019 18.765 12.8139 17.8664 12.9065 16.572C13.7247 16.5757 14.5418 16.5794 15.36 16.5842L15.3612 16.583Z" fill="#21409A"/>
<path d="M12.9092 16.5709C12.8166 17.8653 11.9034 18.7639 10.6918 18.7566C9.52165 18.7493 8.60598 17.8287 8.51709 16.5709C8.52196 15.9036 8.52683 15.2376 8.5317 14.5703C9.2148 14.8321 9.88695 15.1073 10.6455 15.1219C11.4528 15.1365 12.17 14.8552 12.8945 14.5703C12.8994 15.2376 12.9043 15.9036 12.9092 16.5709Z" fill="#F1B8A0"/>
<path d="M5.60305 8.55149C5.84658 8.54906 6.08889 8.54662 6.33242 8.54297C6.33485 9.27965 6.34216 10.0175 6.33729 10.7542C6.33607 10.9977 6.35799 11.2328 6.43105 11.4641C5.93181 11.4653 5.43136 11.4714 4.93212 11.4665C4.05907 11.458 3.41615 10.8261 3.42589 9.99197C3.43441 9.17736 4.07003 8.5661 4.92238 8.55271C5.14886 8.54906 5.37656 8.55149 5.60426 8.55027L5.60305 8.55149Z" fill="#F1B8A0"/>
<path d="M15.0935 8.54297C15.337 8.5454 15.5806 8.54784 15.8241 8.55027C16.0968 8.55027 16.3696 8.53932 16.6411 8.55515C17.418 8.60142 18.0134 9.25651 18 10.0382C17.9866 10.7968 17.39 11.4324 16.629 11.4617C16.0847 11.4824 15.5392 11.4641 14.9949 11.4641C15.1763 10.7518 15.0485 10.0273 15.0838 9.31009C15.0959 9.05438 15.0911 8.79868 15.0935 8.54297Z" fill="#F1B8A0"/>
<path d="M30.3148 15.7555C29.2311 14.6706 28.151 13.582 27.0588 12.5056C26.8408 12.2901 26.7702 12.1598 27.0113 11.8834C27.8308 10.9434 28.1961 9.82559 28.2058 8.57993C28.2351 5.02318 30.5961 2.13978 34.0761 1.39945C38.0895 0.544664 42.1917 3.45972 42.708 7.5084C42.7908 8.15741 42.7373 8.81007 42.8493 9.45664C43.0112 10.3954 43.3753 11.2308 44.0146 11.9297C44.2325 12.1671 44.1741 12.2804 43.9805 12.4715C42.9637 13.4724 41.958 14.4855 40.951 15.4974C40.8462 15.6021 40.7062 15.6813 40.6685 15.8432C40.3994 15.8456 40.1303 15.8469 39.8612 15.8493C39.1342 15.8456 38.4085 15.842 37.6816 15.8383C37.6779 15.1711 37.673 14.5026 37.6694 13.8353C37.7023 13.8049 37.7327 13.7708 37.7705 13.7464C38.9077 13 39.6335 11.9796 39.8052 10.6122C39.9452 9.49439 39.8356 8.37049 39.8624 7.24904C39.8648 7.13093 39.7991 7.05056 39.7138 6.98238C38.5705 6.06549 37.4271 5.14738 36.2679 4.21709C35.9562 5.77568 35.2353 6.52089 33.8667 6.71814C33.1324 6.82408 32.3982 6.92758 31.6627 7.01038C31.284 7.053 31.0649 7.16015 31.1087 7.61433C31.1562 8.11114 31.1184 8.61524 31.1197 9.1157C31.1209 9.79636 31.0929 10.477 31.2719 11.148C31.5872 12.3266 32.3337 13.168 33.3151 13.8341C33.3102 14.5026 33.3053 15.1698 33.3017 15.8383C32.6186 15.8408 31.9355 15.8517 31.2536 15.8396C30.9407 15.8347 30.6156 15.9187 30.3148 15.758V15.7555Z" fill="#101010"/>
<path d="M37.6827 15.8355C38.4096 15.8391 39.1353 15.8428 39.8622 15.8464C39.8622 16.7853 39.8659 17.7241 39.8647 18.6629C39.8647 19.9889 38.9064 20.9423 37.5755 20.9435C34.4559 20.946 31.3363 20.9484 28.2167 20.9496C28.2118 19.8915 28.1899 18.8333 28.2094 17.7752C28.2252 16.8802 29.0617 16.0145 30.0261 15.844C30.1271 15.8257 30.2416 15.8623 30.3134 15.7539C30.6142 15.9159 30.9393 15.8306 31.2523 15.8355C31.9354 15.8477 32.6172 15.8355 33.3003 15.8343C33.3405 17.0604 34.3073 18.0273 35.4933 18.0273C36.6842 18.0273 37.6413 17.0677 37.6814 15.8343L37.6827 15.8355Z" fill="#00A79D"/>
<path d="M28.2182 20.9501C31.3378 20.9476 34.4574 20.9464 37.5771 20.944C38.908 20.944 39.865 19.9893 39.8662 18.6633C39.8662 17.7245 39.865 16.7857 39.8638 15.8469C40.1329 15.8457 40.402 15.8433 40.6711 15.8408C41.9569 15.9601 42.7764 16.8417 42.7813 18.1227C42.7886 19.7897 42.7886 21.4566 42.791 23.1236C37.9265 23.1236 33.062 23.1248 28.1987 23.126C28.206 22.4003 28.2121 21.6758 28.2194 20.9501H28.2182Z" fill="#00A79D"/>
<path d="M33.3167 13.8318C32.3352 13.1646 31.5876 12.3244 31.2734 11.1457C31.0944 10.4748 31.1225 9.79411 31.1212 9.11345C31.12 8.61299 31.1578 8.10889 31.1103 7.61208C31.0664 7.15668 31.2856 7.05075 31.6643 7.00813C32.401 6.92533 33.1352 6.82183 33.8683 6.71589C35.2357 6.51864 35.9577 5.77343 36.2695 4.21484C37.4287 5.14513 38.572 6.06202 39.7154 6.98012C39.8006 7.04831 39.8676 7.12868 39.864 7.24679C39.8372 8.36824 39.9468 9.49214 39.8067 10.6099C39.635 11.9774 38.9105 12.9977 37.772 13.7442C37.7355 13.7685 37.7051 13.8038 37.671 13.8331C37.0147 14.1058 36.362 14.3664 35.6302 14.3907C34.7998 14.4187 34.0546 14.1533 33.3154 13.8318H33.3167Z" fill="#FAE0C9"/>
<path d="M33.3166 13.8311C34.0557 14.1525 34.8009 14.418 35.6314 14.39C36.3632 14.3656 37.0158 14.105 37.6721 13.8323C37.6758 14.4995 37.6807 15.168 37.6843 15.8353C37.6429 17.0688 36.6859 18.0271 35.4962 18.0283C34.3114 18.0283 33.3446 17.0615 33.3032 15.8353C33.3081 15.1668 33.3117 14.4995 33.3166 13.8311Z" fill="#F1B8A0"/>
</svg>
