<svg width="46" height="45" viewBox="0 0 46 45" fill="none" xmlns="http://www.w3.org/2000/svg">
<circle cx="23.1665" cy="22.5" r="22.5" fill="#E9ECF5"/>
<path d="M16.4644 38.5946C16.4634 37.7986 16.4629 37.0031 16.4619 36.2071C16.6115 36.2032 16.761 36.1952 16.9106 36.1952C21.8943 36.1947 26.8774 36.1952 31.861 36.1947C32.8026 36.1947 33.2577 35.7371 33.2577 34.7911C33.2577 30.1329 33.2577 25.4747 33.2577 20.816C33.2577 20.7534 33.2587 20.6913 33.2577 20.6287C33.2409 19.9077 32.746 19.4148 32.0225 19.4029C31.8357 19.3999 31.6484 19.4098 31.4611 19.4138C31.3115 19.4098 31.1624 19.4024 31.0129 19.4024C26.6364 19.4019 22.2595 19.4024 17.883 19.4014C17.4095 19.4014 16.9359 19.3939 16.4624 19.3895C16.4624 14.7293 16.4644 10.0686 16.4609 5.40843C16.4609 5.15403 16.4724 4.9995 16.8102 5C23.0952 5.01242 29.3801 5.01143 35.6656 5.01391C35.6631 6.90005 35.6656 8.78618 35.6532 10.6723C35.6517 10.9371 35.7367 11.0127 35.9955 11.0107C37.2819 11.0002 38.5688 11.0077 39.8557 11.0082C39.8557 14.0078 39.8557 17.0079 39.8557 20.0076C38.546 20.0056 37.2362 20.0031 35.927 20.0016C35.039 20.0006 35.0475 20.0016 35.0539 20.8821C35.0559 21.1186 35.1121 21.2085 35.3655 21.206C36.8621 21.1936 38.3592 21.1971 39.8557 21.1951V22.4065C38.546 22.4045 37.2362 22.402 35.927 22.4005C35.039 22.3995 35.0475 22.4005 35.0539 23.281C35.0559 23.5175 35.1121 23.6074 35.3655 23.6049C36.8621 23.5925 38.3592 23.596 39.8557 23.594V24.8054C38.546 24.8034 37.2362 24.8009 35.927 24.7994C35.039 24.7984 35.0475 24.7994 35.0539 25.6799C35.0559 25.9164 35.1121 26.0063 35.3655 26.0038C36.8621 25.9914 38.3592 25.9949 39.8557 25.9929V27.2043C38.546 27.2023 37.2362 27.1998 35.927 27.1983C35.039 27.1973 35.0475 27.1983 35.0539 28.0788C35.0559 28.3153 35.1121 28.4052 35.3655 28.4027C36.8621 28.3903 38.3592 28.3938 39.8557 28.3918V29.6032C38.546 29.6012 37.2362 29.5987 35.927 29.5972C35.039 29.5962 35.0475 29.5972 35.0539 30.4777C35.0559 30.7142 35.1121 30.8041 35.3655 30.8017C36.8621 30.7892 38.3592 30.7927 39.8557 30.7907V32.0021C38.546 32.0001 37.2362 31.9976 35.927 31.9961C35.039 31.9951 35.0475 31.9961 35.0539 32.8766C35.0559 33.1131 35.1121 33.203 35.3655 33.2006C36.8621 33.1881 38.3592 33.1916 39.8557 33.1896V34.401C38.546 34.399 37.2362 34.3965 35.927 34.395C35.039 34.3941 35.0475 34.395 35.0539 35.2755C35.0559 35.512 35.1121 35.6019 35.3655 35.5995C36.8621 35.587 38.3592 35.5905 39.8557 35.5885C39.8562 36.4372 39.8334 37.2868 39.8682 38.134C39.8846 38.533 39.7469 38.6011 39.3827 38.6006C31.7438 38.5906 24.1048 38.5936 16.4659 38.5936L16.4644 38.5946ZM30.7113 7.71591C30.3565 7.51418 29.9575 7.45853 29.566 7.41928C26.1992 7.0819 23.5444 10.1933 24.4238 13.4628C24.7488 14.6707 25.4335 15.6401 26.5524 16.2616C26.6548 16.3302 26.7517 16.4102 26.861 16.4664C29.0149 17.5669 31.5833 16.9334 32.984 14.9593C34.724 12.5063 33.7263 8.90046 31.0139 7.84013C30.9687 7.77305 30.9011 7.76759 30.8295 7.77355C30.7903 7.75467 30.751 7.73529 30.7113 7.71641V7.71591Z" fill="#A6B3D7"/>
<path d="M16.4621 19.3887C16.9356 19.3926 17.4091 19.4001 17.8826 19.4006C22.2591 19.4016 26.6361 19.4006 31.0125 19.4016C31.1621 19.4016 31.3111 19.409 31.4607 19.413C31.4582 21.6112 31.4557 23.8089 31.4528 26.007C30.943 26.004 30.4327 25.9996 29.9229 25.9986C29.0399 25.9971 29.0479 25.9986 29.0538 26.878C29.0553 27.1121 29.1075 27.2095 29.3629 27.203C30.059 27.1851 30.7561 27.1921 31.4528 27.1891V28.4059C27.7451 28.403 24.0379 28.4 20.3302 28.3975C19.4418 28.397 19.4503 28.3975 19.4567 29.2779C19.4582 29.515 19.5154 29.6024 19.7688 29.6019C23.6633 29.592 27.5583 29.5915 31.4532 29.5885V30.8053C27.7456 30.8024 24.0384 30.7994 20.3307 30.7969C19.4423 30.7964 19.4508 30.7969 19.4572 31.6774C19.4587 31.9144 19.5159 32.0018 19.7693 32.0013C23.6638 31.9914 27.5588 31.9909 31.4537 31.9879V33.2047C29.1522 33.2018 26.8507 33.2023 24.5492 33.1918C24.3137 33.1908 24.2461 33.2738 24.2585 33.4954C24.2749 33.793 24.2675 34.0922 24.2704 34.3908C24.0955 34.3928 23.9206 34.3957 23.7457 34.3957C17.7236 34.3967 11.702 34.3972 5.67992 34.3982C5.67594 33.8865 5.66849 33.3742 5.66799 32.8624C5.6665 28.8009 5.6665 24.7405 5.6665 20.68C5.6665 19.8756 6.13903 19.4016 6.94148 19.4016C9.96545 19.4016 12.9889 19.4016 16.0129 19.4011C16.1625 19.4011 16.3125 19.3936 16.4621 19.3892V19.3887ZM29.6561 21.8114C28.3851 21.8075 27.1136 21.802 25.8426 21.8005C24.0225 21.7985 22.203 21.8035 20.3829 21.796C20.1529 21.795 20.0371 21.8383 20.0575 22.1001C20.0808 22.3972 20.0694 22.6979 20.0734 22.9965C20.0694 23.2956 20.0798 23.5957 20.058 23.8933C20.0391 24.1482 20.1449 24.2064 20.3814 24.2039C21.4412 24.1934 22.5011 24.1994 23.5609 24.1994C25.8679 24.1994 28.1744 24.2004 30.4814 24.1974C30.6518 24.1974 30.8699 24.2729 30.863 23.952C30.8491 23.3165 30.8525 22.6805 30.8625 22.0445C30.8654 21.8363 30.7715 21.7916 30.5912 21.798C30.2801 21.8094 29.9681 21.8075 29.6566 21.8114H29.6561ZM10.4613 31.3946C12.0638 31.3946 13.6657 31.3946 15.2681 31.3946C15.9677 31.3951 16.6668 31.3882 17.3659 31.4006C17.5885 31.4046 17.6685 31.3474 17.668 31.1094C17.6605 28.0999 17.6615 25.0903 17.6665 22.0807C17.6665 21.8785 17.6203 21.7886 17.3977 21.796C16.8864 21.8134 16.3741 21.8079 15.8623 21.8124C13.3541 21.8084 10.8464 21.8065 8.33819 21.7965C8.12603 21.7955 8.06143 21.8606 8.06243 22.0723C8.07237 24.58 8.07435 27.0882 8.07833 29.5959C8.07435 30.0928 8.08131 30.5897 8.06143 31.0861C8.05199 31.329 8.12752 31.4075 8.37397 31.4021C9.06959 31.3867 9.76521 31.3956 10.4613 31.3951V31.3946ZM23.6598 27.198H27.0659C27.8638 27.198 27.844 27.1975 27.8693 26.3941C27.8802 26.0438 27.7545 25.9901 27.443 25.9916C25.06 26.0036 22.677 25.9981 20.294 25.9981C19.4533 25.9981 19.4697 25.9981 19.4538 26.8393C19.4478 27.1548 19.5651 27.2055 19.8418 27.203C21.1143 27.1911 22.3868 27.1975 23.6593 27.1975L23.6598 27.198Z" fill="#21409A"/>
<path d="M39.8544 22.406C39.8544 22.0021 39.8544 21.5986 39.8544 21.1946C39.8544 20.7986 39.8544 20.4026 39.8544 20.0071C39.8544 17.0075 39.8544 14.0074 39.8544 11.0072C40.1158 11.0062 40.3777 11.0206 40.6375 11.0008C40.9525 10.9769 41.2795 11.0922 41.5836 10.9277C41.7028 11.04 41.6536 11.1866 41.6536 11.3178C41.6561 21.0625 41.6536 30.8076 41.6641 40.5523C41.6641 40.9225 41.5508 41.0005 41.2 41C33.1034 40.9901 25.0074 40.9901 16.9108 41C16.5486 41 16.4393 40.9036 16.4557 40.5424C16.485 39.894 16.4646 39.2436 16.4651 38.5937C24.104 38.5937 31.743 38.5907 39.3819 38.6006C39.7461 38.6006 39.8838 38.5325 39.8674 38.134C39.8326 37.2869 39.8559 36.4372 39.8549 35.5886C39.8549 35.1926 39.8549 34.7965 39.8549 34.401C39.8549 33.9971 39.8549 33.5936 39.8549 33.1897C39.8549 32.7936 39.8549 32.3976 39.8549 32.0021C39.8549 31.5982 39.8549 31.1947 39.8549 30.7908C39.8549 30.3947 39.8549 29.9987 39.8549 29.6032C39.8549 29.1993 39.8549 28.7958 39.8549 28.3918C39.8549 27.9958 39.8549 27.5998 39.8549 27.2043C39.8549 26.8004 39.8549 26.3969 39.8549 25.9929C39.8549 25.5969 39.8549 25.2009 39.8549 24.8054C39.8549 24.4015 39.8549 23.998 39.8549 23.594C39.8549 23.198 39.8549 22.802 39.8549 22.4065L39.8544 22.406Z" fill="#A6B3D7"/>
<path d="M31.4533 33.2041C31.4533 32.7986 31.4533 32.3932 31.4533 31.9872C31.4533 31.5932 31.4533 31.1992 31.4533 30.8047C31.4533 30.3992 31.4533 29.9938 31.4533 29.5878C31.4533 29.1938 31.4533 28.7998 31.4533 28.4053C31.4533 27.9998 31.4533 27.5944 31.4533 27.1884C31.4533 26.7944 31.4533 26.4004 31.4533 26.0059C31.4558 23.8077 31.4583 21.61 31.4613 19.4119C31.6486 19.4079 31.8354 19.398 32.0227 19.4009C32.7467 19.4134 33.2411 19.9058 33.258 20.6267C33.2594 20.6893 33.258 20.7514 33.258 20.814C33.258 25.4722 33.258 30.1304 33.258 34.7891C33.258 35.7352 32.8028 36.1928 31.8612 36.1928C26.8776 36.1928 21.8945 36.1928 16.9108 36.1933C16.7613 36.1933 16.6117 36.2012 16.4621 36.2052C13.8073 36.2012 11.1521 36.1968 8.49726 36.1928C7.98597 36.1918 7.47519 36.1953 6.9639 36.1923C6.1545 36.1873 5.67154 35.6979 5.66756 34.881C5.66657 34.7191 5.67501 34.5576 5.67899 34.3956C11.7011 34.3951 17.7227 34.3941 23.7448 34.3931C23.9197 34.3931 24.0946 34.3896 24.2695 34.3881C25.6314 34.3901 26.9929 34.3921 28.3548 34.3936C29.2919 34.3946 30.229 34.3871 31.1661 34.3986C31.3952 34.4016 31.4772 34.3335 31.4628 34.1019C31.4444 33.8033 31.4553 33.5027 31.4533 33.2026V33.2041Z" fill="#172D6C"/>
<path d="M41.5836 10.9285C41.2795 11.0929 40.953 10.9771 40.6375 11.0015C40.3777 11.0214 40.1158 11.007 39.8544 11.008C38.5675 11.007 37.2811 11 35.9942 11.0104C35.7349 11.0124 35.6499 10.9369 35.6519 10.6721C35.6638 8.78594 35.6618 6.8998 35.6643 5.01367C35.8631 5.20149 36.0658 5.38484 36.2591 5.57762C37.943 7.25904 39.6254 8.94195 41.3073 10.6254C41.4037 10.7218 41.4916 10.8271 41.5831 10.928L41.5836 10.9285Z" fill="#C5D0ED"/>
<path d="M39.8542 20.007C39.8542 20.403 39.8542 20.799 39.8542 21.1945C38.3576 21.1965 36.8605 21.193 35.3639 21.2054C35.1105 21.2074 35.0539 21.118 35.0524 20.8815C35.0459 20.001 35.0375 20.0005 35.9254 20.001C37.2352 20.0025 38.5449 20.005 39.8542 20.007Z" fill="#C7CCEC"/>
<path d="M39.8542 22.4064C39.8542 22.8024 39.8542 23.1984 39.8542 23.5939C38.3576 23.5959 36.8605 23.5924 35.3639 23.6048C35.1105 23.6068 35.0539 23.5174 35.0524 23.2809C35.0459 22.4004 35.0375 22.3999 35.9254 22.4004C37.2352 22.4019 38.5449 22.4044 39.8542 22.4064Z" fill="#C7CCEC"/>
<path d="M39.8542 24.8058C39.8542 25.2018 39.8542 25.5978 39.8542 25.9933C38.3576 25.9953 36.8605 25.9918 35.3639 26.0042C35.1105 26.0062 35.0539 25.9168 35.0524 25.6803C35.0459 24.7998 35.0375 24.7993 35.9254 24.7998C37.2352 24.8013 38.5449 24.8038 39.8542 24.8058Z" fill="#C7CCEC"/>
<path d="M39.8542 27.2042C39.8542 27.6002 39.8542 27.9962 39.8542 28.3918C38.3576 28.3937 36.8605 28.3903 35.3639 28.4027C35.1105 28.4047 35.0539 28.3152 35.0524 28.0787C35.0459 27.1983 35.0375 27.1978 35.9254 27.1983C37.2352 27.1998 38.5449 27.2022 39.8542 27.2042Z" fill="#C7CCEC"/>
<path d="M39.8542 29.6027C39.8542 29.9987 39.8542 30.3947 39.8542 30.7902C38.3576 30.7922 36.8605 30.7887 35.3639 30.8011C35.1105 30.8031 35.0539 30.7137 35.0524 30.4772C35.0459 29.5967 35.0375 29.5962 35.9254 29.5967C37.2352 29.5982 38.5449 29.6007 39.8542 29.6027Z" fill="#C7CCEC"/>
<path d="M39.8542 32.0021C39.8542 32.3981 39.8542 32.7941 39.8542 33.1896C38.3576 33.1916 36.8605 33.1881 35.3639 33.2005C35.1105 33.2025 35.0539 33.1131 35.0524 32.8766C35.0459 31.9961 35.0375 31.9956 35.9254 31.9961C37.2352 31.9976 38.5449 32.0001 39.8542 32.0021Z" fill="#C7CCEC"/>
<path d="M39.8542 34.4015C39.8542 34.7975 39.8542 35.1935 39.8542 35.589C38.3576 35.591 36.8605 35.5875 35.3639 35.6C35.1105 35.6019 35.0539 35.5125 35.0524 35.276C35.0459 34.3955 35.0375 34.395 35.9254 34.3955C37.2352 34.397 38.5449 34.3995 39.8542 34.4015Z" fill="#C7CCEC"/>
<path d="M30.8297 7.77296C30.7904 7.75408 30.7512 7.7347 30.7114 7.71582C30.7507 7.7347 30.7899 7.75408 30.8297 7.77296Z" fill="#4F8D2A"/>
<path d="M8.07792 29.5953C8.07395 27.0876 8.07196 24.5794 8.06202 22.0717C8.06103 21.8595 8.12612 21.7949 8.33779 21.7959C10.846 21.8058 13.3537 21.8078 15.8619 21.8118C15.8619 24.1705 15.8639 26.5286 15.8629 28.8873C15.8629 29.3499 15.7273 29.5089 15.2761 29.5958C15.2165 28.6602 14.8145 27.9333 13.9788 27.4712C14.0061 27.3539 14.1005 27.2869 14.1765 27.2054C14.7713 26.5679 14.8309 25.6293 14.3196 24.9476C13.7786 24.2261 12.8221 23.9901 12.0544 24.3881C11.2693 24.7955 10.8962 25.7133 11.1471 26.542C11.2609 26.9182 11.562 27.1532 11.7488 27.4707C10.9161 27.9343 10.5061 28.6562 10.452 29.5948C9.66047 29.5948 8.86895 29.5948 8.07743 29.5943L8.07792 29.5953Z" fill="#F1F1F1"/>
<path d="M15.276 29.5967C15.7267 29.5098 15.8623 29.3508 15.8628 28.8882C15.8638 26.5295 15.8628 24.1714 15.8618 21.8127C16.3736 21.8087 16.8859 21.8137 17.3972 21.7963C17.6198 21.7889 17.6665 21.8788 17.666 22.081C17.661 25.0906 17.66 28.1002 17.6675 31.1097C17.668 31.3477 17.588 31.4049 17.3654 31.4009C16.6663 31.3885 15.9667 31.3954 15.2676 31.3949C15.2706 30.7957 15.273 30.196 15.276 29.5967Z" fill="#E1E6F5"/>
<path d="M15.2758 29.5963C15.2728 30.1955 15.2703 30.7953 15.2674 31.3945C13.6649 31.3945 12.063 31.3945 10.4606 31.3945C10.4576 30.7948 10.4551 30.1955 10.4521 29.5958C10.5063 28.6567 10.9162 27.9353 11.7485 27.4717C12.4918 27.9129 13.2351 27.9124 13.9785 27.4717C14.8137 27.9338 15.2157 28.6607 15.2758 29.5963Z" fill="#00A79D"/>
<path d="M29.6558 21.8119C29.9674 21.8084 30.2789 21.8099 30.5904 21.7984C30.7713 21.792 30.8652 21.8367 30.8617 22.0449C30.8518 22.6804 30.8483 23.3169 30.8622 23.9524C30.8692 24.2734 30.6516 24.1978 30.4806 24.1978C28.1737 24.2003 25.8672 24.1998 23.5602 24.1998C22.5003 24.1998 21.4405 24.1939 20.3807 24.2043C20.1442 24.2068 20.0388 24.1486 20.0572 23.8938C20.0791 23.5961 20.0691 23.296 20.0726 22.9969C23.1537 22.9979 26.2344 22.9969 29.3155 23.0043C29.5664 23.0048 29.6832 22.9452 29.6628 22.6719C29.6414 22.3867 29.6563 22.0985 29.6548 21.8119H29.6558Z" fill="#C7CCEC"/>
<path d="M31.4532 28.4059C31.4532 28.8 31.4532 29.194 31.4532 29.5885C27.5582 29.5915 23.6637 29.592 19.7687 29.6019C19.5153 29.6024 19.4587 29.515 19.4567 29.2779C19.4502 28.397 19.4423 28.397 20.3302 28.3975C24.0379 28.4 27.745 28.4029 31.4527 28.4059H31.4532Z" fill="#C7CCEC"/>
<path d="M31.4532 30.8053C31.4532 31.1994 31.4532 31.5934 31.4532 31.9879C27.5582 31.9909 23.6637 31.9914 19.7687 32.0013C19.5153 32.0018 19.4587 31.9144 19.4567 31.6774C19.4502 30.7964 19.4423 30.7964 20.3302 30.7969C24.0379 30.7994 27.745 30.8024 31.4527 30.8053H31.4532Z" fill="#C7CCEC"/>
<path d="M29.6562 21.8113C29.6572 22.098 29.6427 22.3862 29.6641 22.6714C29.6845 22.9447 29.5677 23.0043 29.3168 23.0038C26.2357 22.9959 23.1551 22.9974 20.074 22.9964C20.07 22.6972 20.0814 22.3971 20.0581 22.1C20.0372 21.8386 20.1535 21.7949 20.3835 21.7959C22.2031 21.8034 24.0231 21.7989 25.8432 21.8004C27.1142 21.8019 28.3857 21.8073 29.6567 21.8113H29.6562Z" fill="#E1E6F5"/>
<path d="M23.6598 27.1981C22.3873 27.1981 21.1143 27.1912 19.8423 27.2036C19.5656 27.2061 19.4488 27.1554 19.4543 26.8399C19.4697 25.9987 19.4538 25.9987 20.2945 25.9987C22.6775 25.9987 25.0605 26.0041 27.4435 25.9922C27.7551 25.9907 27.8808 26.0439 27.8698 26.3947C27.8445 27.1976 27.8644 27.1986 27.0664 27.1986C25.931 27.1986 24.7957 27.1986 23.6603 27.1986L23.6598 27.1981Z" fill="#C7CCEC"/>
<path d="M31.4535 33.2048C31.4555 33.5044 31.4445 33.8051 31.4629 34.1042C31.4773 34.3357 31.3953 34.4033 31.1663 34.4008C30.2292 34.3894 29.2921 34.3968 28.355 34.3958C26.993 34.3948 25.6316 34.3924 24.2697 34.3904C24.2667 34.0918 24.2742 33.7926 24.2578 33.495C24.2453 33.2739 24.3129 33.1904 24.5484 33.1914C26.8499 33.2018 29.1515 33.2018 31.453 33.2043L31.4535 33.2048Z" fill="#C7CCEC"/>
<path d="M10.4528 29.5962C10.4558 30.1959 10.4583 30.7952 10.4613 31.3949C9.76567 31.3954 9.06955 31.3864 8.37393 31.4018C8.12748 31.4073 8.05146 31.3288 8.06139 31.0858C8.08127 30.5899 8.07431 30.0926 8.07829 29.5957C8.86981 29.5957 9.66133 29.5957 10.4528 29.5962Z" fill="#E1E6F5"/>
<path d="M31.4532 26.0071C31.4532 26.4011 31.4532 26.7951 31.4532 27.1896C30.7566 27.1926 30.0595 27.1852 29.3634 27.2036C29.108 27.21 29.0558 27.1126 29.0543 26.8786C29.0479 25.9986 29.0404 25.9976 29.9234 25.9991C30.4332 26.0001 30.9435 26.0046 31.4532 26.0076V26.0071Z" fill="#C7CCEC"/>
<path d="M26.5526 16.262C25.4337 15.6405 24.749 14.6711 24.424 13.4632C23.5451 10.1937 26.1994 7.08231 29.5662 7.41968C29.9577 7.45894 30.3567 7.51508 30.7115 7.71632C30.7507 7.7352 30.79 7.75458 30.8297 7.77346C30.9013 7.76749 30.9688 7.77346 31.0141 7.84004C31.0061 8.04922 31.186 8.1322 31.2993 8.25642C32.5564 9.63524 32.9762 11.2307 32.4371 13.019C31.812 15.0929 29.9433 16.4121 27.8057 16.4106C27.3764 16.4106 26.9775 16.2437 26.5526 16.2615V16.262ZM27.8664 14.603C28.0989 14.6005 28.2554 14.4619 28.408 14.3088C29.3595 13.3553 30.3125 12.4038 31.265 11.4518C31.899 10.8183 31.8895 10.8272 31.264 10.1927C31.0662 9.99249 30.9649 10.0387 30.7949 10.2126C30.0625 10.9614 29.3187 11.6988 28.5754 12.4376C28.3468 12.6647 28.1183 13.0463 27.8718 13.0612C27.5841 13.0786 27.3779 12.6607 27.1409 12.4282C26.4468 11.747 26.4562 11.7475 25.8019 12.4515C25.6642 12.6001 25.6771 12.6796 25.8113 12.8113C26.3464 13.334 26.8721 13.8666 27.4018 14.3953C27.53 14.523 27.6795 14.605 27.8664 14.6035V14.603Z" fill="#00A79D"/>
<path d="M26.5527 16.2623C26.9776 16.2439 27.3766 16.4109 27.8058 16.4114C29.9434 16.4124 31.8116 15.0932 32.4372 13.0197C32.9763 11.2315 32.5565 9.63602 31.2994 8.2572C31.1861 8.13298 31.0062 8.05 31.0142 7.84082C33.7266 8.90115 34.7243 12.507 32.9843 14.96C31.5836 16.9346 29.0152 17.5676 26.8613 16.467C26.752 16.4114 26.6551 16.3314 26.5527 16.2623Z" fill="#00A79D"/>
<path d="M27.8661 14.6027C27.6793 14.6042 27.5297 14.5223 27.4015 14.3946C26.8719 13.8659 26.3467 13.3332 25.811 12.8105C25.6764 12.6789 25.6635 12.5994 25.8016 12.4508C26.456 11.7462 26.4465 11.7457 27.1407 12.4274C27.3777 12.66 27.5839 13.0778 27.8716 13.0604C28.118 13.0455 28.3466 12.6639 28.5751 12.4369C29.318 11.6985 30.0623 10.9607 30.7947 10.2119C30.9646 10.038 31.066 9.99176 31.2637 10.192C31.8893 10.827 31.8987 10.8176 31.2647 11.4511C30.3122 12.4031 29.3592 13.3551 28.4077 14.3081C28.2552 14.4611 28.0986 14.5998 27.8656 14.6022L27.8661 14.6027Z" fill="#EDEFEC"/>
<path d="M13.979 27.4726C13.2357 27.9133 12.4923 27.9143 11.749 27.4726C11.5627 27.1546 11.2611 26.9196 11.1473 26.5435C10.8964 25.7147 11.2695 24.7965 12.0546 24.3895C12.8223 23.9915 13.7788 24.2275 14.3198 24.949C14.8311 25.6307 14.7715 26.5693 14.1767 27.2068C14.1007 27.2883 14.0063 27.3549 13.979 27.4726Z" fill="#F1B9A1"/>
</svg>
