<svg width="20" height="20" viewBox="0 0 20 20" fill="none" xmlns="http://www.w3.org/2000/svg">
    <path d="M9.06258 18.3334C8.39591 18.2362 7.75008 18.0625 7.12508 17.8125C6.50008 17.5625 5.9098 17.2292 5.35425 16.8125L6.25008 15.8959C6.69453 16.2292 7.15286 16.4896 7.62508 16.6771C8.0973 16.8646 8.57647 17 9.06258 17.0834V18.3334ZM10.9376 18.3334V17.0834C12.4654 16.7917 13.7327 16.073 14.7397 14.9271C15.7466 13.7813 16.2501 12.3959 16.2501 10.7709C16.2501 9.00699 15.6494 7.52435 14.448 6.32296C13.2466 5.12157 11.764 4.52087 10.0001 4.52087H9.58341L11.2292 6.16671L10.3126 7.08337L7.12508 3.89587L10.3126 0.708374L11.2292 1.62504L9.58341 3.27087H10.0001C11.0417 3.27087 12.0174 3.46532 12.9272 3.85421C13.8369 4.2431 14.632 4.77782 15.3126 5.45837C15.9931 6.13893 16.5279 6.93407 16.9167 7.84379C17.3056 8.75351 17.5001 9.72921 17.5001 10.7709C17.5001 12.7153 16.882 14.3889 15.6459 15.7917C14.4098 17.1945 12.8404 18.0417 10.9376 18.3334ZM4.04175 15.5C3.65286 14.9723 3.32994 14.3855 3.073 13.7396C2.81605 13.0938 2.63897 12.4167 2.54175 11.7084H3.81258C3.88203 12.2362 4.0105 12.7431 4.198 13.2292C4.3855 13.7153 4.63897 14.1667 4.95841 14.5834L4.04175 15.5ZM2.54175 9.83337C2.63897 9.13893 2.81258 8.47574 3.06258 7.84379C3.31258 7.21185 3.63897 6.6181 4.04175 6.06254L4.95841 6.95837C4.63897 7.41671 4.3855 7.88893 4.198 8.37504C4.0105 8.86115 3.88203 9.34726 3.81258 9.83337H2.54175Z" fill="white"/>
</svg>
