<svg width="512" height="512" viewBox="0 0 512 512" fill="none" xmlns="http://www.w3.org/2000/svg">
    <g clip-path="url(#clip0_25_60)">
        <path d="M56.1 1.99999C41.5 5.89999 30.5 12.5 20 23.7C12.1 32.1 6.9 40.8 3.2 51.5L0.5 59.5V256V452.5L3.2 460.5C7.2 472.3 12.4 480.5 22 490C31.5 499.6 39.7 504.8 51.5 508.8L59.5 511.5H256H452.5L460.5 508.8C472.3 504.8 480.5 499.6 490 490C499.6 480.5 504.8 472.3 508.8 460.5L511.5 452.5V256V59.5L508.8 51.5C504.8 39.7 499.6 31.5 490 22C480.5 12.4 472.3 7.19999 460.5 3.19999L452.5 0.499992L258 0.299992C68.3 0.0999924 63.3 0.0999924 56.1 1.99999ZM451 22.4C470.8 29 483.7 42.1 489.7 61.6C491.4 67.2 491.5 76 491.5 256C491.5 436 491.4 444.8 489.7 450.4C483.6 470.2 470.2 483.6 450.4 489.7C444.8 491.4 436 491.5 256 491.5C76 491.5 67.2 491.4 61.6 489.7C41.8 483.6 28.4 470.2 22.3 450.4C20.6 444.8 20.5 436 20.5 256C20.5 76 20.6 67.2 22.3 61.6C29.3 38.9 47.1 23.6 69.5 21C72.8 20.6 158.8 20.3 260.5 20.4C437.9 20.5 445.7 20.6 451 22.4Z" fill="black"/>
        <path d="M167 250.6C137.6 337.9 113.4 410.1 113.2 411.1C112.9 412.9 114.2 413 146.7 413H180.6L188.5 387.7C192.8 373.9 197.6 358.3 199.2 353.2L202.1 344H253.5H304.9L310.4 361.2C313.4 370.7 318.3 386.1 321.2 395.5L326.6 412.5L360.8 412.8L394.9 413L350.9 281.8C326.6 209.6 302.4 137.4 297.1 121.5L287.3 92.5L253.9 92.2L220.5 92L167 250.6ZM271.9 237.9C281.3 267.9 288.8 292.5 288.6 292.7C288.5 292.9 272.6 292.9 253.3 292.8L218.3 292.5L235.9 236.8C245.6 206.2 253.8 181.6 254.1 182.3C254.5 183 262.5 208 271.9 237.9Z" fill="black"/>
    </g>
    <defs>
        <clipPath id="clip0_25_60">
            <rect width="512" height="512" fill="white"/>
        </clipPath>
    </defs>
</svg>
