<svg width="512" height="512" viewBox="0 0 512 512" fill="none" xmlns="http://www.w3.org/2000/svg">
    <path fill-rule="evenodd" clip-rule="evenodd" d="M241.5 1.11397C190.895 3.55297 140.896 22.402 98.9995 54.835C87.3115 63.884 67.4185 83.471 57.7025 95.5C26.8645 133.676 7.24652 180.533 2.01852 228.5C0.617523 241.354 0.617523 270.646 2.01852 283.5C8.37552 341.829 35.2375 396.733 77.6385 438.061C98.4655 458.362 118.927 472.94 143.5 484.988C180.351 503.055 215.115 511.135 256 511.135C296.921 511.135 331.388 503.118 368.5 484.966C393.08 472.944 413.269 458.603 433.859 438.542C476.717 396.785 503.616 342.076 509.945 283.789C511.302 271.296 511.302 240.704 509.945 228.211C504.775 180.602 485.059 133.581 454.297 95.5C444.581 83.471 424.688 63.884 413 54.835C363.078 16.189 305.157 -1.95403 241.5 1.11397ZM232.5 32.607C199.793 37.151 177.295 43.996 152.371 56.986C89.6645 89.667 47.5295 147.694 34.3625 219.5C31.7615 233.685 31.7085 278.096 34.2755 292C46.2265 356.727 79.5105 407.978 132.5 443.248C161.533 462.573 195.566 474.955 230.876 479.04C244.632 480.631 280.413 479.795 292.5 477.599C356.258 466.018 408.128 432.263 443.247 379.5C462.572 350.467 474.955 316.434 479.04 281.124C480.631 267.368 479.795 231.587 477.599 219.5C470.496 180.393 454.972 145.618 431.201 115.564C424.027 106.493 405.508 87.972 396.5 80.858C372.074 61.568 341.723 46.249 313.721 39.076C292.581 33.661 285.228 32.765 259.5 32.467C246.3 32.315 234.15 32.377 232.5 32.607ZM240 178.754V261.507L290.499 311.999L340.997 362.49L351.743 351.744L362.49 340.998L317.245 295.745L272 250.492V173.246V96H256H240V178.754Z" fill="black"/>
</svg>
