<svg width="512" height="512" viewBox="0 0 512 512" fill="none" xmlns="http://www.w3.org/2000/svg">
    <path d="M61.5 17.9C44.4 22.9 30.3 34.5 22.5 50.1C15.5 63.8 16 48.9 16 256C16 462.4 15.6 448.3 22.2 461.4C28.5 473.9 38.1 483.5 50.6 489.8C63.7 496.4 49.6 496 256 496C465.3 496 448.2 496.6 463.4 488.7C474 483.2 483.2 474 488.7 463.4C496.6 448.2 496 465.3 496 256C496 46.7 496.6 63.8 488.7 48.6C483.2 38 474 28.8 463.4 23.3C448.2 15.4 465.4 16 255.4 16.1C79.5 16.1 67.1 16.3 61.5 17.9ZM445 51.1C452 54.4 457.6 60 460.9 67L463.5 72.5L463.7 173.5L464 274.5L440.1 250.4C412.6 222.6 410.2 221 396.9 220.2C388.2 219.7 381.2 221.4 374.9 225.5C372.9 226.8 360.5 239.3 347.4 253.2C334.3 267.1 323.3 278.6 323 278.8C322.6 278.9 300.5 255.8 273.8 227.3C247.1 198.8 223.7 174.1 221.9 172.3C220 170.5 215.8 167.9 212.5 166.3C207.4 164 205.2 163.5 198 163.5C190.5 163.5 188.7 163.9 183 166.7C178.6 168.8 155.6 186.2 112.5 220L48.5 270.2L48.2 257.3C48.1 250.3 48.1 205.8 48.2 158.5L48.5 72.5L51.1 67C55.8 57.2 64.5 50.5 74.5 49C77.2 48.6 160.5 48.3 259.5 48.4L439.5 48.5L445 51.1Z" fill="black"/>
    <path d="M313 127.1C305.5 130.1 298 137.8 295.1 145.5C290.6 157.4 293.5 171.5 302.3 180.3C317.9 195.9 345 191.2 354.7 171.2C358.5 163.2 358.6 152 354.8 143.9C351.6 137 346 131.1 339.5 128C332.4 124.6 320.5 124.2 313 127.1Z" fill="black"/>
</svg>
