<svg width="512" height="512" viewBox="0 0 512 512" fill="none" xmlns="http://www.w3.org/2000/svg">
    <path d="M80.7002 8.99999C43.7002 15.3 14.8002 44.3 9.0002 81C7.6002 90 7.6002 422 9.0002 431C14.3002 464.1 37.4002 490.3 70.5002 500.7L79.5002 503.5H256H432.5L441.5 500.7C471 491.4 491.4 471 500.7 441.5L503.5 432.5V256V79.5L500.7 70.5C491.4 41 471 20.6 441.5 11.3L432.5 8.49999L259 8.39999C163.6 8.29999 83.3002 8.59999 80.7002 8.99999ZM434.3 36.2C454.8 43.5 468.6 57.5 475.6 78C477.4 83.3 477.5 90 477.5 256C477.5 422 477.4 428.7 475.6 434C468.6 454.8 454.8 468.6 434 475.6C428.7 477.4 422 477.5 256 477.5C90.0002 477.5 83.3002 477.4 78.0002 475.6C57.2002 468.6 43.4002 454.8 36.4002 434C34.6002 428.7 34.5002 422 34.5002 256C34.5002 90 34.6002 83.3 36.4002 78C41.9002 61.7 52.5002 48.6 65.5002 41.9C72.3002 38.4 79.9002 35.6 85.0002 34.7C86.4002 34.4 164.5 34.3 258.5 34.4C416.4 34.5 429.9 34.7 434.3 36.2Z" fill="black"/>
    <path d="M150.501 143.9C140.801 148 140.801 163.5 150.501 167.6C155.701 169.7 356.301 169.7 361.501 167.6C369.501 164.2 371.401 153 365.101 146.7L362.001 143.5L257.201 143.3C199.601 143.2 151.601 143.5 150.501 143.9Z" fill="black"/>
    <path d="M148.9 245.3C142.9 249.4 141.2 256.6 145 262.7C149 269.4 142.1 269 256.3 269H359.7L363.1 266.7C367.2 264 369 260.7 369 256C369 251.3 367.2 248 363.1 245.3L359.7 243H256H152.3L148.9 245.3Z" fill="black"/>
    <path d="M150.3 344.5C142.5 347.9 140.6 359.1 146.9 365.3L150 368.5H256H362L365.1 365.3C371.4 359 369.5 347.8 361.5 344.4C356.4 342.3 155.2 342.4 150.3 344.5Z" fill="black"/>
</svg>
