<svg width="512" height="512" viewBox="0 0 512 512" fill="none" xmlns="http://www.w3.org/2000/svg">
    <g clip-path="url(#clip0_25_28)">
        <path d="M223.5 1.49998C177.3 7.49998 135 25.2 98.0002 53.8C86.3002 62.9 66.4002 82.5 56.7002 94.5C29.1002 128.7 10.8002 169.1 3.00024 213.1C0.200239 228.7 -0.899761 266.2 0.900239 283.3C5.20024 323.2 19.1002 362.3 40.7002 395.5C50.5002 410.5 59.1002 421.2 72.5002 434.9C114.4 477.9 167.3 503.9 227.5 510.9C240.9 512.5 273.5 512.2 288 510.5C362.8 501.2 429.6 459.3 471.3 395.5C492.3 363.4 505.7 326.5 510.5 288C512.5 271.8 512.5 240.3 510.5 224C501.3 149.8 459.5 82.8 396.5 41.4C363.6 19.8 327 6.39998 288 1.49998C272.8 -0.30002 237.9 -0.30002 223.5 1.49998ZM284.7 25.5C311 29 333.8 35.8 357.5 47.4C410.6 73.4 451.4 117.7 472.5 172.5C483 199.5 488 226.7 488 256C488 317.6 464.2 375.6 421 419.1C401.6 438.7 382.6 452.3 357.7 464.6C323.5 481.4 288.3 488.9 249.7 487.7C145.8 484.6 57.2002 413.4 31.5002 312.6C26.2002 291.7 24.6002 278.3 24.6002 255.5C24.6002 217.2 32.1002 185.7 49.6002 150.8C83.7002 82.8 150.6 35.5 226.5 25.5C240.7 23.7 270.4 23.7 284.7 25.5Z" fill="black"/>
        <path d="M227.8 159.8C213.1 165.2 200.8 169.8 200.5 170.2C199.6 171.1 211.3 212 212.5 212C213.1 212 221.4 209.8 231 207.2L248.5 202.3L248.8 282.2L249 362H273.5H298V256V150L276.3 150.1H254.5L227.8 159.8Z" fill="black"/>
    </g>
    <defs>
        <clipPath id="clip0_25_28">
            <rect width="512" height="512" fill="white"/>
        </clipPath>
    </defs>
</svg>
