<svg width="512" height="512" viewBox="0 0 512 512" fill="none" xmlns="http://www.w3.org/2000/svg">
    <g clip-path="url(#clip0_25_32)">
        <path d="M128 2.29999C125.1 3.79999 122.5 6.29999 120.6 9.29999C117.9 13.7 117.7 14.9 117.2 26.5L116.7 39H103.5C80.8998 39 63.9998 43.3 47.4998 53.4C26.1998 66.2 10.9998 86 3.29978 110.6L0.499776 119.5L0.199776 271C-0.000223823 382.8 0.199776 424.5 1.09978 430C3.79978 447.7 13.0998 466.5 25.7998 480.1C38.8998 494.1 52.9998 502.9 71.4998 508.7L80.4998 511.5H255.5H430.5L438.4 509.2C449.4 506 458.8 501.9 467.3 496.4C477.3 490 492.3 474.4 498.3 464.4C504 454.7 509.4 440.2 510.9 430C511.8 424.5 512 382.8 511.8 271L511.5 119.5L508.7 110.5C497.1 73.5 467.4 47 430.3 40.5C425.6 39.7 415.8 39 408.5 39H395.3L394.8 26.5C394.3 14.9 394.1 13.7 391.4 9.29999C387.2 2.49999 381.5 -0.300008 372.9 0.199992C365.4 0.599992 360.9 2.99999 356.9 8.79999C354.7 12 354.5 13.5 354.2 25.7L353.8 39H256H158.2L157.8 25.7C157.5 13.5 157.3 12 155.1 8.79999C151.1 2.99999 146.6 0.599992 139.1 0.199992C133.6 -0.100008 131.7 0.299992 128 2.29999ZM117 99C117 122.4 117.8 126.7 123.4 132.5C132.8 142.3 149 140.3 155.7 128.5C157.9 124.7 158 123.4 158 102.2V80H256H354V102.2C354 123.4 354.1 124.7 356.3 128.5C363 140.3 379.2 142.3 388.6 132.5C394.2 126.7 395 122.4 395 99V80H407.3C431.2 80 447.2 87.1 459.2 103.1C468 114.9 470.8 123.9 471.7 143.6L472.3 157H256H39.6998L40.2998 143.6C40.8998 129.3 42.6998 120.4 46.4998 113.1C49.9998 106.1 56.2998 98.2 62.0998 93.4C74.1998 83.5 84.8998 80.1 104.3 80.1L117 80V99ZM471.8 310.2C471.5 415.7 471.3 422.8 469.6 428C464.3 444 453.6 457.4 440.5 464.2C426.5 471.5 439.7 471 256 471C72.2998 471 85.4998 471.5 71.4998 464.2C58.3998 457.4 47.6998 444 42.3998 428C40.6998 422.8 40.4998 415.7 40.1998 310.2L39.8998 198H256H472.1L471.8 310.2Z" fill="black"/>
        <path d="M110 257.1C100.1 261 94.9998 275.2 99.8998 284.9C102.5 289.9 108.1 294.7 112.2 295.5C114 295.8 126.8 296 140.7 295.8L165.8 295.5L169.7 292.4C174.7 288.5 178 281.9 178 276C177.9 268 172.5 259.6 165.7 257.1C162.1 255.7 113.5 255.7 110 257.1Z" fill="black"/>
        <path d="M227.5 257.4C223.7 259.1 218.4 264.6 217.1 268.3C215.6 272.2 215.7 280.4 217.3 284.3C219.2 288.7 226.2 294.8 230.2 295.5C232 295.8 244.8 296 258.7 295.8L283.8 295.5L287.7 292.4C298.6 283.7 298.6 268.3 287.7 259.6L283.8 256.5L257.2 256.3C236.3 256.1 229.8 256.3 227.5 257.4Z" fill="black"/>
        <path d="M345.5 257.4C341.5 259.2 337.5 263.6 335.6 268.2C332.1 276.5 334.9 286.5 342.3 292.4L346.2 295.5L371.3 295.8C385.2 296 398 295.8 399.8 295.5C403.9 294.7 409.5 289.8 412.2 284.7C415.3 278.6 414.5 269.4 410.4 264.4C403.8 256.3 405 256.5 375.2 256.3C354.4 256.1 347.8 256.3 345.5 257.4Z" fill="black"/>
        <path d="M112.7 374.4C107.3 375.9 101.5 380.8 99.3995 385.7C97.3995 390.4 97.5995 398.4 99.8995 402.9C102.5 407.9 108.1 412.7 112.2 413.5C114 413.8 126.8 414 140.7 413.8L165.8 413.5L169.7 410.4C174.7 406.5 178 399.9 178 394C177.9 386 172.6 377.8 165.5 374.9C161 373 119 372.6 112.7 374.4Z" fill="black"/>
        <path d="M231.8 373.9C227 374.9 221.9 378.4 218.9 382.8C216.9 385.8 216.5 387.6 216.5 394.1C216.5 401.2 216.7 402.1 219.6 405.6C226.1 413.7 225 413.5 254.5 413.8C279 414.1 281.2 414 284.7 412.1C289.5 409.7 292.5 406.5 294.5 401.8C298.6 391.7 293.5 379 283.5 374.9C280.1 373.4 237.9 372.6 231.8 373.9Z" fill="black"/>
        <path d="M353.5 373.5C353 373.7 350.8 374.1 348.7 374.5C346.6 374.8 343.4 376.5 341.3 378.3C331.3 387.1 331.8 402 342.3 410.4L346.2 413.5H374H401.8L405.7 410.4C413 404.6 416.1 393.8 412.7 385.7C410.5 380.6 404 375.4 398.1 374.1C393.5 373.1 356.1 372.6 353.5 373.5Z" fill="black"/>
    </g>
    <defs>
        <clipPath id="clip0_25_32">
            <rect width="512" height="512" fill="white"/>
        </clipPath>
    </defs>
</svg>
