<svg width="512" height="512" viewBox="0 0 512 512" fill="none" xmlns="http://www.w3.org/2000/svg">
    <path d="M236 6.59999C219.7 8.59999 214.3 9.39999 205.9 11C168.4 18.6 132.2 35.5 100.8 60C90.2 68.3 71.3 87.1 62.6 98C1.09998 174.8 -10 277.9 33.6 366C45.8 390.7 61.2 412.1 80.8 431.6C100.4 451.1 121.3 466.1 146.1 478.4C163.6 487.1 178.9 492.7 198.2 497.4C220.7 502.9 226.6 503.5 257 503.5C280.8 503.5 286.2 503.2 297 501.3C313.4 498.4 332.8 493 347 487.4C359.5 482.4 381.6 471.3 386.7 467.4C393.9 462 397.6 450.5 395.1 441.4C392.2 430.7 383.1 424 371.2 424C365.2 424 363.5 424.4 357.9 427.5C336.4 439.5 316.8 446.9 294.5 451.7C282.4 454.2 279.8 454.4 257 454.5C229.8 454.5 222.1 453.6 201 447.5C163.3 436.7 126 412.1 101.8 382.1C78 352.7 62.7 316.5 58.1 279C56.7 268.1 56.7 243.9 58 233C65.3 174 97.2 122.3 146.6 89.5C178.8 68.1 216.6 56.8 256 56.8C287.9 56.8 315.1 63.1 343.5 77C396.4 102.9 435.2 150.8 449.5 208C458.4 243.4 457 282.4 445.8 317C443.3 324.8 441.9 327.2 436.6 332.8C423.6 346.7 400.9 346.7 387.1 332.9C381.5 327.2 378.2 320.6 377 312.3C376.5 308.3 376 273.7 376 229.5C376 157.6 375.9 153.3 374.1 149.5C370.1 140.9 362.1 136 352 136C339.7 136 330.2 143.6 328.2 155.1L327.5 159L323 155.9C316 151.2 302.3 144.5 293.5 141.6C281.5 137.7 270.1 136 255.2 136C223.2 136 195.8 146.9 173.1 168.5C154.9 185.9 143.6 205.8 137.9 230.7C135 243.4 134.8 267.2 137.4 279.5C142.5 302.9 152.6 322.2 168.5 338.9C186.7 358 208.2 369.6 234.5 374.5C246.9 376.9 273 376.1 284.5 373.1C302.9 368.2 320.7 359.2 332.6 348.8C334.5 347.1 336.2 345.9 336.3 346.1C336.5 346.3 339.2 350.4 342.3 355.1C358 379 382.7 392 412.6 392C436.5 392 457.6 383 473.1 366.2C484.4 354.1 489.6 343.8 495.4 322.7C513.8 255.8 503.4 182 467.6 124.2C428.8 61.7 365.3 19.8 292 8.49999C282 6.89999 243.9 5.69999 236 6.59999ZM270.4 186.1C294.2 190.7 315.2 209.5 323.8 233.9C326.2 240.8 326.5 242.8 326.5 256C326.5 269.2 326.2 271.2 323.8 278.1C322.3 282.3 319.4 288.6 317.4 292.1C312.6 300.3 300.3 312.6 292.1 317.4C251.2 341.2 199.8 319.9 187 273.9C184.6 264.9 184.3 249.5 186.5 240.2C195.4 202.5 232.3 178.7 270.4 186.1Z" fill="black"/>
</svg>
