<svg width="383" height="426" viewBox="0 0 383 426" fill="none" xmlns="http://www.w3.org/2000/svg">
    <path fill-rule="evenodd" clip-rule="evenodd" d="M173.996 1.1495C143.124 8.3855 120.211 29.0755 110.257 58.7045L107.065 68.2045L106.708 100.352C106.369 130.823 106.454 132.7 108.332 136.352C116.779 152.78 138.965 152.694 146.6 136.204C148.237 132.668 148.455 129.421 148.48 108.204C148.511 81.0065 149.208 75.0545 153.409 66.0765C160.985 49.8875 180.002 39.8095 197.622 42.6475C216.131 45.6285 230.506 59.9125 233.52 78.3175C234.051 81.5555 234.487 95.1345 234.49 108.494C234.495 130.426 234.681 133.144 236.404 136.494C244.924 153.058 267.853 152.458 274.943 135.486C276.226 132.413 276.493 126.773 276.479 102.986C276.46 71.4735 275.923 66.9185 270.611 53.1805C266.289 42.0025 260.545 33.5745 250.522 23.7045C240.495 13.8295 231.394 8.2875 217.496 3.5935C208.918 0.696498 206.638 0.3535 193.996 0.0634995C184.433 -0.1555 178.094 0.188498 173.996 1.1495ZM73.6888 170.759C44.7588 174.596 20.0698 192.937 7.58476 219.861C-0.122239 236.484 -0.00523873 235.261 0.000761268 298.704L0.0067656 355.204L2.80977 364.204C11.8418 393.197 33.5138 414.63 62.2108 422.948L69.9958 425.204H191.496H312.996L320.787 422.947C349.556 414.608 371.085 393.312 380.175 364.204L382.985 355.204L382.991 298.704C382.997 235.261 383.114 236.484 375.407 219.861C364.386 196.094 344.964 179.784 318.996 172.49L310.996 170.242L195.496 170.083C131.971 169.995 77.1578 170.299 73.6888 170.759ZM207.813 258.65C215.725 261.708 225.475 270.884 229.5 279.061C237.754 295.827 234.612 314.705 221.359 327.988C204.562 344.823 178.397 344.727 161.429 327.768C145.101 311.449 144.743 285.954 160.605 269.182C166.789 262.644 170.693 260.086 178.332 257.566C186.087 255.009 199.687 255.51 207.813 258.65Z" fill="black"/>
</svg>
