<svg width="512" height="512" viewBox="0 0 512 512" fill="none" xmlns="http://www.w3.org/2000/svg">
    <g clip-path="url(#clip0_25_41)">
        <path d="M231 0.599992C186.3 5.99999 148.5 19.6 114.3 42.6C97.8996 53.6 88.7996 61.1 74.9996 75C61.0996 88.8 53.5996 97.9 42.5996 114.3C22.1996 144.5 8.59961 179.4 2.29961 217.5C-0.300391 233.3 -0.300391 278.7 2.29961 294.5C8.59961 332.6 22.1996 367.5 42.5996 397.7C53.5996 414.1 61.0996 423.2 74.9996 437C88.7996 450.9 97.8996 458.4 114.3 469.4C144.5 489.8 179.4 503.4 217.5 509.7C226.3 511.1 234.1 511.5 256 511.5C277.9 511.5 285.7 511.1 294.5 509.7C332.6 503.4 367.5 489.8 397.7 469.4C414.1 458.4 423.2 450.9 437 437C450.9 423.2 458.4 414.1 469.4 397.7C489.8 367.5 503.4 332.6 509.7 294.5C512.3 278.7 512.3 233.3 509.7 217.5C503.4 179.4 489.8 144.5 469.4 114.3C458.4 97.9 450.9 88.8 437 75C423.2 61.1 414.1 53.6 397.7 42.6C368.2 22.7 334.6 9.39999 297.5 2.79999C289 1.29999 280.6 0.799992 260.5 0.499992C246.2 0.399992 232.9 0.399992 231 0.599992ZM281.7 53.5C342.6 61.5 396.5 96.5 429.8 149.6C470 213.9 470 298.1 429.8 362.4C400.9 408.5 355.2 441.9 304 454.4C235.2 471.1 162.6 450.5 112 400C73.3996 361.3 51.9996 310 51.9996 256C51.9996 185.5 88.4996 120.5 149.6 82.2C172.8 67.7 201.6 57.4 229.1 53.6C243.2 51.7 267.3 51.7 281.7 53.5Z" fill="black"/>
        <path d="M238 128.6C229.3 130.1 215.7 133.6 210.3 135.6C170.2 150.7 141.6 183.3 130.9 226C128.8 234.4 128.5 237.8 128.5 256C128.5 274.2 128.8 277.6 130.9 286C143 334.6 177.4 369 226 381.1C234.4 383.2 237.8 383.5 256 383.5C274.2 383.5 277.6 383.2 286 381.1C334.6 369 369 334.6 381.1 286C383.2 277.6 383.5 274.2 383.5 256C383.5 237.8 383.2 234.4 381.1 226C370.6 184.1 342.8 151.9 303.8 136.4C289.3 130.6 278.9 128.8 259 128.5C248.8 128.3 239.4 128.4 238 128.6Z" fill="black"/>
    </g>
    <defs>
        <clipPath id="clip0_25_41">
            <rect width="512" height="512" fill="white"/>
        </clipPath>
    </defs>
</svg>
