<svg width="512" height="512" viewBox="0 0 512 512" fill="none" xmlns="http://www.w3.org/2000/svg">
    <path d="M95.5 43.1C83 45.2 70.6 51.7 61.2 61.1C53.5 68.8 49.1 75.9 45.3 86.5L42.5 94.5V256V417.5L45.2 425.1C52.8 446.5 67.9 461 89.6 467.7C95.2 469.4 103.2 469.5 256 469.5C408.8 469.5 416.8 469.4 422.5 467.7C444.7 460.9 460.8 444.7 467.7 422.4C469.4 416.8 469.5 408.8 469.5 256C469.5 103.2 469.4 95.2 467.7 89.6C461 68 446.4 52.7 425.5 45.3L417.5 42.5L259 42.4C171.8 42.3 98.3 42.6 95.5 43.1ZM373.2 154.6C381.8 160.6 384.6 171.9 379.8 180.8C376.3 187 216.6 356.5 212.2 358.6C210.1 359.6 206.5 360.5 204 360.7C195.3 361.4 192.6 359.3 161 325.8C145.1 308.9 131.3 293.6 130.3 291.8C127.5 286.4 128 278.2 131.5 272.4C135 266.8 143 262 148.9 262C156.7 262 160.9 265.4 182.2 288C193.3 299.8 202.7 309.5 203.1 309.5C203.5 309.5 236.6 274.7 276.6 232.1C331 174.2 350.3 154.3 353.4 152.9C359.5 150 367.7 150.7 373.2 154.6Z" fill="black"/>
</svg>
