<svg width="512" height="512" viewBox="0 0 512 512" fill="none" xmlns="http://www.w3.org/2000/svg">
    <g clip-path="url(#clip0_25_51)">
        <path d="M127 43.6C107.4 47.8 91.1 63.8 86.5 83.1C85.2 88.6 85 106.4 85 213.2C85 298.7 85.3 338.5 86.1 342.2C89 356.2 100.1 371.1 112.5 377.7C125.5 384.5 111.6 384 298.8 384H468.1L475.7 381.5C493.1 375.6 506 362 510.6 344.5C511.7 340.5 512 315.3 512 213.5C512 75.7 512.2 81.8 506.2 70.6C504.7 67.8 500.6 62.5 497.1 58.7C489.7 50.9 478.8 44.9 468.6 43.1C464.5 42.3 410.8 42 298.1 42.1C160.6 42.1 132.4 42.4 127 43.6ZM464.9 88.6C466.6 90 468.2 92.5 468.5 94.3C468.8 96.1 468.9 130.8 468.8 171.5L468.5 245.4L433.8 205C414.7 182.7 397.5 163.5 395.6 162.2C381 152.3 361.1 153.4 348.4 164.7C346.6 166.2 327.3 189 305.5 215.3L265.7 263.1L251 248.6C234.3 232.1 228.4 228.4 216.9 227.4C209.6 226.7 199.9 228.7 194.1 232.2C192.1 233.3 176.4 248.3 159.3 265.4L128 296.5V197C128 131.9 128.4 96.2 129 93.8C129.6 91.8 131.2 89.2 132.7 88C135.3 86 135.6 86 298.6 86H461.8L464.9 88.6Z" fill="black"/>
        <path d="M183 107.1C170.7 109.5 158.5 119.3 152.8 131.5C150.5 136.6 149.7 139.9 149.3 146.3C148.1 164.7 156.7 179.8 172.8 187.7C180.3 191.4 180.6 191.5 192 191.5C203.4 191.5 203.7 191.4 211.2 187.7C227.3 179.8 235.9 164.7 234.7 146.3C233.1 120.3 209 102 183 107.1Z" fill="black"/>
        <path d="M52.8 191C52.4 191.8 40.5 231 26.4 278C2.10002 358.9 0.700025 364 0.200025 373.2C-0.099975 381.1 0.200025 384.1 1.90003 389.8C5.80003 402.8 15.6 414.2 27.5 419.6C30.3 420.8 107.4 442 199 466.6L365.5 511.4H378.1L390.7 511.5L399.2 507.3C408.7 502.6 416.3 495.4 420.4 487.1C422.6 482.9 443 419.5 443 417.1C443 416.3 397.4 416 289.8 416C203 416 132.4 415.5 126.9 415C97.9 412.2 73.7 395.1 61.6 368.8C54.2 353 54.7 358.3 54 269.5C53.7 225.5 53.2 190.2 52.8 191Z" fill="black"/>
    </g>
    <defs>
        <clipPath id="clip0_25_51">
            <rect width="512" height="512" fill="white"/>
        </clipPath>
    </defs>
</svg>
