<svg width="24" height="24" viewBox="0 0 24 24" fill="none" xmlns="http://www.w3.org/2000/svg">
    <g clip-path="url(#clip0_1640_80104)">
        <path d="M3 22C2.87 22 2.74 21.98 2.62 21.92C2.25 21.77 2 21.4 2 21V5C2 3.35 3.35 2 5 2H19C20.65 2 22 3.35 22 5V15C22 16.65 20.65 18 19 18H7.41L3.7 21.71C3.51 21.9 3.25 22 2.99 22H3ZM5 4C4.45 4 4 4.45 4 5V18.59L6.29 16.3C6.48 16.11 6.73 16.01 7 16.01H19C19.55 16.01 20 15.56 20 15.01V5C20 4.45 19.55 4 19 4H5Z" fill="#64748B"/>
        <path d="M15.7096 12.5298C16.0996 12.9198 16.0996 13.5498 15.7096 13.9398C15.5096 14.1398 15.2596 14.2398 14.9996 14.2398C14.7396 14.2398 14.4896 14.1398 14.2896 13.9398L11.9996 11.6498L9.70957 13.9398C9.50957 14.1398 9.25957 14.2398 8.99957 14.2398C8.73957 14.2398 8.48957 14.1398 8.28957 13.9398C7.89957 13.5498 7.89957 12.9198 8.28957 12.5298L10.5896 10.2398L8.28957 7.9398C7.89957 7.5498 7.89957 6.9198 8.28957 6.5298C8.67957 6.1398 9.31957 6.1398 9.70957 6.5298L11.9996 8.8198L14.2896 6.5298C14.6796 6.1398 15.3196 6.1398 15.7096 6.5298C16.0996 6.9198 16.0996 7.5498 15.7096 7.9398L13.4196 10.2398L15.7096 12.5298Z" fill="#64748B"/>
    </g>
    <defs>
        <clipPath id="clip0_1640_80104">
            <rect width="24" height="24" fill="white"/>
        </clipPath>
    </defs>
</svg>
