<svg width="32" height="32" viewBox="0 0 32 32" fill="none" xmlns="http://www.w3.org/2000/svg">
<path fill-rule="evenodd" clip-rule="evenodd" d="M25.3335 14.6667H9.5135L14.3575 8.85335C14.8295 8.28802 14.7522 7.44669 14.1868 6.97602C13.6202 6.50402 12.7802 6.58135 12.3095 7.14669L5.64283 15.1467C5.59083 15.2094 5.56416 15.2827 5.5255 15.352C5.4935 15.408 5.45483 15.456 5.43083 15.5174C5.37083 15.6707 5.33483 15.832 5.33483 15.9947C5.33483 15.996 5.3335 15.9987 5.3335 16C5.3335 16.0014 5.33483 16.004 5.33483 16.0054C5.33483 16.168 5.37083 16.3294 5.43083 16.4827C5.45483 16.544 5.4935 16.592 5.5255 16.648C5.56416 16.7174 5.59083 16.7907 5.64283 16.8534L12.3095 24.8534C12.5735 25.1694 12.9522 25.3334 13.3335 25.3334C13.6348 25.3334 13.9375 25.232 14.1868 25.024C14.7522 24.5534 14.8295 23.712 14.3575 23.1467L9.5135 17.3334H25.3335C26.0695 17.3334 26.6668 16.736 26.6668 16C26.6668 15.264 26.0695 14.6667 25.3335 14.6667Z" fill="#1E1E1E"/>
</svg>
