<svg width="47" height="46" viewBox="0 0 47 46" fill="none" xmlns="http://www.w3.org/2000/svg">
  <path d="M42.913 22.75C42.913 33.5033 34.1637 42.2391 23.3478 42.2391C12.532 42.2391 3.7826 33.5033 3.7826 22.75C3.7826 11.9967 12.532 3.26087 23.3478 3.26087C34.1637 3.26087 42.913 11.9967 42.913 22.75Z" fill="#C5EBD6" stroke="white" stroke-width="6.52174"/>
  <path fill-rule="evenodd" clip-rule="evenodd" d="M27.4239 14.8333H20.9021L19.7559 16.4326C19.4535 16.855 18.9448 17.1083 18.3994 17.1083H15.0869C14.2465 17.1083 13.5652 17.7896 13.5652 18.63V28.4782C13.5652 29.3186 14.2465 29.9999 15.0869 29.9999H31.6087C32.4491 29.9999 33.1304 29.3186 33.1304 28.4782V18.63C33.1304 17.7896 32.4491 17.1083 31.6087 17.1083H29.9266C29.3812 17.1083 28.8725 16.855 28.5701 16.4326L27.4239 14.8333ZM17.2621 16.3499C17.4715 16.3499 17.6413 16.1802 17.6413 15.9708C17.6413 15.7613 17.4715 15.5916 17.2621 15.5916H15.5748C15.3654 15.5916 15.1956 15.7613 15.1956 15.9708C15.1956 16.1802 15.3654 16.3499 15.5748 16.3499H17.2621ZM27.2136 17.2743L26.5516 16.3499H21.7744L21.1125 17.2743C20.5068 18.1199 19.4926 18.6249 18.3994 18.6249H15.1956V28.4833H31.5V18.6249H29.9266C28.8334 18.6249 27.8193 18.1199 27.2136 17.2743ZM17.6413 20.1416C18.0921 20.1416 18.4565 20.4813 18.4565 20.8999C18.4565 21.3185 18.0921 21.6583 17.6413 21.6583C17.1905 21.6583 16.8261 21.3185 16.8261 20.8999C16.8261 20.4813 17.1905 20.1416 17.6413 20.1416ZM24.163 20.8999C25.5114 20.8999 26.6087 21.9206 26.6087 23.1749C26.6087 24.4292 25.5114 25.4499 24.163 25.4499C22.8146 25.4499 21.7174 24.4292 21.7174 23.1749C21.7174 21.9206 22.8146 20.8999 24.163 20.8999ZM20.0869 23.1749C20.0869 21.0812 21.9122 19.3833 24.163 19.3833C26.4138 19.3833 28.2391 21.0812 28.2391 23.1749C28.2391 25.2687 26.4138 26.9666 24.163 26.9666C21.9122 26.9666 20.0869 25.2687 20.0869 23.1749Z" fill="white"/>
</svg>
