<svg width="24" height="24" viewBox="0 0 24 24" fill="none" xmlns="http://www.w3.org/2000/svg">
  <path fill-rule="evenodd" clip-rule="evenodd" d="M12 22C10.6333 22 9.34167 21.7375 8.125 21.2125C6.90833 20.6875 5.84583 19.9708 4.9375 19.0625C4.02917 18.1542 3.3125 17.0917 2.7875 15.875C2.2625 14.6583 2 13.3667 2 12C2 10.6167 2.2625 9.31667 2.7875 8.1C3.3125 6.88333 4.02917 5.825 4.9375 4.925C5.84583 4.025 6.90833 3.3125 8.125 2.7875C9.34167 2.2625 10.6333 2 12 2C13.3833 2 14.6833 2.2625 15.9 2.7875C17.1167 3.3125 18.175 4.025 19.075 4.925C19.975 5.825 20.6875 6.88333 21.2125 8.1C21.7375 9.31667 22 10.6167 22 12C22 13.3667 21.7375 14.6583 21.2125 15.875C20.6875 17.0917 19.975 18.1542 19.075 19.0625C18.175 19.9708 17.1167 20.6875 15.9 21.2125C14.6833 21.7375 13.3833 22 12 22ZM9.825 16H14.15C14.3833 16 14.5542 15.9208 14.6625 15.7625C14.7708 15.6042 14.825 15.4083 14.825 15.175V13.35H13.325V14.5H10.65V9.5H13.325V10.675H14.825V8.85C14.825 8.61667 14.7708 8.41667 14.6625 8.25C14.5542 8.08333 14.3833 8 14.15 8H9.825C9.59167 8 9.42083 8.08333 9.3125 8.25C9.20417 8.41667 9.15 8.61667 9.15 8.85V15.175C9.15 15.4083 9.20417 15.6042 9.3125 15.7625C9.42083 15.9208 9.59167 16 9.825 16ZM18.025 18.0125C16.375 19.6708 14.3667 20.5 12 20.5C9.65 20.5 7.64583 19.6708 5.9875 18.0125C4.32917 16.3542 3.5 14.35 3.5 12C3.5 9.63333 4.32917 7.625 5.9875 5.975C7.64583 4.325 9.65 3.5 12 3.5C14.3667 3.5 16.375 4.325 18.025 5.975C19.675 7.625 20.5 9.63333 20.5 12C20.5 14.35 19.675 16.3542 18.025 18.0125Z" fill="black"/>
  <mask id="mask0_148_64565" style="mask-type:luminance" maskUnits="userSpaceOnUse" x="2" y="2" width="20" height="20">
    <path fill-rule="evenodd" clip-rule="evenodd" d="M12 22C10.6333 22 9.34167 21.7375 8.125 21.2125C6.90833 20.6875 5.84583 19.9708 4.9375 19.0625C4.02917 18.1542 3.3125 17.0917 2.7875 15.875C2.2625 14.6583 2 13.3667 2 12C2 10.6167 2.2625 9.31667 2.7875 8.1C3.3125 6.88333 4.02917 5.825 4.9375 4.925C5.84583 4.025 6.90833 3.3125 8.125 2.7875C9.34167 2.2625 10.6333 2 12 2C13.3833 2 14.6833 2.2625 15.9 2.7875C17.1167 3.3125 18.175 4.025 19.075 4.925C19.975 5.825 20.6875 6.88333 21.2125 8.1C21.7375 9.31667 22 10.6167 22 12C22 13.3667 21.7375 14.6583 21.2125 15.875C20.6875 17.0917 19.975 18.1542 19.075 19.0625C18.175 19.9708 17.1167 20.6875 15.9 21.2125C14.6833 21.7375 13.3833 22 12 22ZM9.825 16H14.15C14.3833 16 14.5542 15.9208 14.6625 15.7625C14.7708 15.6042 14.825 15.4083 14.825 15.175V13.35H13.325V14.5H10.65V9.5H13.325V10.675H14.825V8.85C14.825 8.61667 14.7708 8.41667 14.6625 8.25C14.5542 8.08333 14.3833 8 14.15 8H9.825C9.59167 8 9.42083 8.08333 9.3125 8.25C9.20417 8.41667 9.15 8.61667 9.15 8.85V15.175C9.15 15.4083 9.20417 15.6042 9.3125 15.7625C9.42083 15.9208 9.59167 16 9.825 16ZM18.025 18.0125C16.375 19.6708 14.3667 20.5 12 20.5C9.65 20.5 7.64583 19.6708 5.9875 18.0125C4.32917 16.3542 3.5 14.35 3.5 12C3.5 9.63333 4.32917 7.625 5.9875 5.975C7.64583 4.325 9.65 3.5 12 3.5C14.3667 3.5 16.375 4.325 18.025 5.975C19.675 7.625 20.5 9.63333 20.5 12C20.5 14.35 19.675 16.3542 18.025 18.0125Z" fill="white"/>
  </mask>
  <g mask="url(#mask0_148_64565)">
    <rect width="24" height="24" fill="#4E4751"/>
  </g>
</svg>
