<svg width="30" height="30" viewBox="0 0 30 30" fill="none" xmlns="http://www.w3.org/2000/svg">
<path fill-rule="evenodd" clip-rule="evenodd" d="M26.6667 24.7233C26.6667 25.7967 25.92 26.6667 25 26.6667H5L17.61 15.305C18.02 14.8967 18.7633 14.8983 19.165 15.3033L26.6667 22.7667V24.7233ZM8.33333 6.66667C9.71333 6.66667 10.8333 7.78667 10.8333 9.16667C10.8333 10.5467 9.71333 11.6667 8.33333 11.6667C6.95333 11.6667 5.83333 10.5467 5.83333 9.16667C5.83333 7.78667 6.95333 6.66667 8.33333 6.66667ZM25 0H5C2.24333 0 0 2.24333 0 5V25C0 27.7567 2.24333 30 5 30H25C27.7567 30 30 27.7567 30 25V5C30 2.24333 27.7567 0 25 0Z" fill="#1E1E1E"/>
</svg>
