<svg width="350" height="208" viewBox="0 0 350 208" fill="none" xmlns="http://www.w3.org/2000/svg">
    <g clip-path="url(#clip0_107_215)">
        <g clip-path="url(#clip1_107_215)">
            <rect width="350" height="207.941" rx="8" fill="white"/>
            <mask id="mask0_107_215" style="mask-type:luminance" maskUnits="userSpaceOnUse" x="0" y="0" width="350" height="208">
                <rect width="350" height="207.941" rx="8" fill="white"/>
            </mask>
            <g mask="url(#mask0_107_215)">
                <path d="M245.451 125.135C290.983 100.815 329.171 105.606 349 108.185L382 264.42L-31.7815 274C-58.3419 220.202 -89.8718 123.44 -3.50745 166.773C104.448 220.939 199.919 149.455 245.451 125.135Z" fill="#21409A"/>
                <path d="M226 127C222.999 128.598 219.683 130.474 216.075 132.551C122.173 183.403 50.4564 174.913 14 165.542C95.4178 206.27 174.8 156.31 216.075 132.551C219.357 130.774 222.665 128.924 226 127Z" fill="#00A79D"/>
                <path fill-rule="evenodd" clip-rule="evenodd" d="M347.425 133.865C386.371 133.865 417.942 165.694 417.942 204.958C417.942 244.219 386.371 276.044 347.425 276.044C308.483 276.044 276.912 244.219 276.912 204.958C276.912 165.694 308.483 133.865 347.425 133.865Z" stroke="white" stroke-opacity="0.1" stroke-width="0.567"/>
                <path fill-rule="evenodd" clip-rule="evenodd" d="M347.425 137.43C384.416 137.43 414.403 167.663 414.403 204.956C414.403 242.252 384.416 272.481 347.425 272.481C310.434 272.481 280.45 242.252 280.45 204.956C280.45 167.663 310.434 137.43 347.425 137.43Z" stroke="white" stroke-opacity="0.1" stroke-width="0.567"/>
                <path fill-rule="evenodd" clip-rule="evenodd" d="M347.425 140.998C382.464 140.998 410.868 169.631 410.868 204.957C410.868 240.279 382.464 268.915 347.425 268.915C312.389 268.915 283.985 240.279 283.985 204.957C283.985 169.631 312.389 140.998 347.425 140.998Z" stroke="white" stroke-opacity="0.1" stroke-width="0.567"/>
                <path fill-rule="evenodd" clip-rule="evenodd" d="M347.425 144.563C380.51 144.563 407.33 171.602 407.33 204.957C407.33 238.312 380.51 265.348 347.425 265.348C314.344 265.348 287.523 238.312 287.523 204.957C287.523 171.602 314.344 144.563 347.425 144.563Z" stroke="white" stroke-opacity="0.1" stroke-width="0.567"/>
                <path fill-rule="evenodd" clip-rule="evenodd" d="M347.425 148.128C378.558 148.128 403.795 173.571 403.795 204.958C403.795 236.343 378.558 261.783 347.425 261.783C316.296 261.783 291.059 236.343 291.059 204.958C291.059 173.571 316.296 148.128 347.425 148.128Z" stroke="white" stroke-opacity="0.1" stroke-width="0.567"/>
                <path fill-rule="evenodd" clip-rule="evenodd" d="M347.425 151.696C376.603 151.696 400.257 175.539 400.257 204.956C400.257 234.373 376.603 258.219 347.425 258.219C318.25 258.219 294.597 234.373 294.597 204.956C294.597 175.539 318.25 151.696 347.425 151.696Z" stroke="white" stroke-opacity="0.1" stroke-width="0.567"/>
                <path fill-rule="evenodd" clip-rule="evenodd" d="M347.426 155.26C374.652 155.26 396.719 177.51 396.719 204.956C396.719 232.402 374.652 254.649 347.426 254.649C320.202 254.649 298.135 232.402 298.135 204.956C298.135 177.51 320.202 155.26 347.426 155.26Z" stroke="white" stroke-opacity="0.1" stroke-width="0.567"/>
                <path fill-rule="evenodd" clip-rule="evenodd" d="M347.425 158.825C372.697 158.825 393.184 179.479 393.184 204.957C393.184 230.433 372.697 251.087 347.425 251.087C322.157 251.087 301.67 230.433 301.67 204.957C301.67 179.479 322.157 158.825 347.425 158.825Z" stroke="white" stroke-opacity="0.1" stroke-width="0.567"/>
                <path fill-rule="evenodd" clip-rule="evenodd" d="M347.425 162.39C370.746 162.39 389.646 181.448 389.646 204.959C389.646 228.463 370.746 247.521 347.425 247.521C324.108 247.521 305.205 228.463 305.205 204.959C305.205 181.448 324.108 162.39 347.425 162.39Z" stroke="white" stroke-opacity="0.1" stroke-width="0.567"/>
                <path fill-rule="evenodd" clip-rule="evenodd" d="M347.425 165.958C368.791 165.958 386.111 183.419 386.111 204.956C386.111 226.496 368.791 243.957 347.425 243.957C326.063 243.957 308.743 226.496 308.743 204.956C308.743 183.419 326.063 165.958 347.425 165.958Z" stroke="white" stroke-opacity="0.1" stroke-width="0.567"/>
                <path fill-rule="evenodd" clip-rule="evenodd" d="M347.425 169.522C366.836 169.522 382.572 185.387 382.572 204.956C382.572 224.526 366.836 240.387 347.425 240.387C328.014 240.387 312.281 224.526 312.281 204.956C312.281 185.387 328.014 169.522 347.425 169.522Z" stroke="white" stroke-opacity="0.1" stroke-width="0.567"/>
                <path fill-rule="evenodd" clip-rule="evenodd" d="M347.425 173.089C364.881 173.089 379.037 187.355 379.037 204.957C379.037 222.555 364.881 236.824 347.425 236.824C329.969 236.824 315.816 222.555 315.816 204.957C315.816 187.355 329.969 173.089 347.425 173.089Z" stroke="white" stroke-opacity="0.1" stroke-width="0.567"/>
                <path fill-rule="evenodd" clip-rule="evenodd" d="M347.426 176.655C362.931 176.655 375.5 189.324 375.5 204.958C375.5 220.586 362.931 233.258 347.426 233.258C331.921 233.258 319.352 220.586 319.352 204.958C319.352 189.324 331.921 176.655 347.426 176.655Z" stroke="white" stroke-opacity="0.1" stroke-width="0.567"/>
                <path fill-rule="evenodd" clip-rule="evenodd" d="M347.425 180.219C360.978 180.219 371.961 191.295 371.961 204.956C371.961 218.619 360.978 229.692 347.425 229.692C333.875 229.692 322.893 218.619 322.893 204.956C322.893 191.295 333.875 180.219 347.425 180.219Z" stroke="white" stroke-opacity="0.1" stroke-width="0.567"/>
                <path fill-rule="evenodd" clip-rule="evenodd" d="M347.425 183.784C359.024 183.784 368.426 193.263 368.426 204.957C368.426 216.646 359.024 226.126 347.425 226.126C335.83 226.126 326.428 216.646 326.428 204.957C326.428 193.263 335.83 183.784 347.425 183.784Z" stroke="white" stroke-opacity="0.1" stroke-width="0.567"/>
                <path fill-rule="evenodd" clip-rule="evenodd" d="M347.425 187.349C357.072 187.349 364.888 195.235 364.888 204.957C364.888 214.68 357.072 222.562 347.425 222.562C337.782 222.562 329.966 214.68 329.966 204.957C329.966 195.235 337.782 187.349 347.425 187.349Z" stroke="white" stroke-opacity="0.1" stroke-width="0.567"/>
                <path fill-rule="evenodd" clip-rule="evenodd" d="M347.425 190.917C355.117 190.917 361.353 197.203 361.353 204.958C361.353 212.71 355.117 218.993 347.425 218.993C339.736 218.993 333.501 212.71 333.501 204.958C333.501 197.203 339.736 190.917 347.425 190.917Z" stroke="white" stroke-opacity="0.1" stroke-width="0.567"/>
                <path fill-rule="evenodd" clip-rule="evenodd" d="M347.426 194.481C353.166 194.481 357.815 199.171 357.815 204.956C357.815 210.74 353.166 215.43 347.426 215.43C341.688 215.43 337.04 210.74 337.04 204.956C337.04 199.171 341.688 194.481 347.426 194.481Z" stroke="white" stroke-opacity="0.1" stroke-width="0.567"/>
                <path fill-rule="evenodd" clip-rule="evenodd" d="M347.427 211.865C351.2 211.865 354.278 208.761 354.278 204.958C354.278 201.151 351.2 198.051 347.427 198.051C343.654 198.051 340.573 201.151 340.573 204.958C340.573 208.761 343.654 211.865 347.427 211.865Z" stroke="white" stroke-opacity="0.1" stroke-width="0.567"/>
            </g>
        </g>
        <g opacity="0.1">
            <path d="M286.176 24.1912C286.176 59.7242 314.982 88.5294 350.515 88.5294C350.515 52.9964 321.709 24.1912 286.176 24.1912Z" fill="#00A79D"/>
            <path d="M286.176 24.1912C286.176 -11.3419 314.982 -40.1471 350.515 -40.1471C350.515 -4.61402 321.709 24.1912 286.176 24.1912Z" fill="#21409A"/>
        </g>
        <path d="M29.66 19.2H26.342C25.516 20.236 24.606 21.384 23.766 22.42V19.2H20.994V29H23.766V25.738L26.566 29H29.996V28.832C28.638 27.278 27.056 25.514 25.684 24.002L29.66 19.368V19.2ZM38.2438 29H41.2118L36.8298 19.2H34.0298L29.6337 29H32.5738L33.2178 27.39H37.5998L38.2438 29ZM36.6618 25.066H34.1558L35.4158 21.944L36.6618 25.066ZM51.066 28.832L48.518 25.528C50.17 24.8 50.59 23.778 50.59 22.574C50.59 20.81 49.288 19.2 46.782 19.2H41.994V29H44.766V25.822H45.732L48.014 29H51.066V28.832ZM46.782 21.412C47.51 21.412 47.86 22.014 47.86 22.63C47.86 23.218 47.538 23.764 46.81 23.764H44.766V21.412H46.782ZM54.2379 29H56.9959V21.482H59.8659V19.2H51.3819V21.482H54.2379V29ZM67.4083 19.214V24.688C67.4083 26.172 66.6663 26.844 65.5463 26.844C64.4263 26.844 63.6843 26.2 63.6843 24.66V19.214H60.9263V24.66C60.9263 27.656 62.6763 29.21 65.5463 29.21C68.4163 29.21 70.1803 27.586 70.1663 24.688V19.214H67.4083ZM84.2613 28.832L81.7133 25.528C83.3653 24.8 83.7853 23.778 83.7853 22.574C83.7853 20.81 82.4833 19.2 79.9773 19.2H75.1893V29H77.9613V25.822H78.9273L81.2093 29H84.2613V28.832ZM79.9773 21.412C80.7053 21.412 81.0553 22.014 81.0553 22.63C81.0553 23.218 80.7333 23.764 80.0053 23.764H77.9613V21.412H79.9773ZM91.8536 19.214V24.688C91.8536 26.172 91.1116 26.844 89.9916 26.844C88.8716 26.844 88.1296 26.2 88.1296 24.66V19.214H85.3716V24.66C85.3716 27.656 87.1216 29.21 89.9916 29.21C92.8616 29.21 94.6256 27.586 94.6116 24.688V19.214H91.8536ZM104.653 29H107.397V19.2H104.513L101.937 22.518L99.3608 19.2H96.4628V29H99.2068V23.176L101.657 26.13H102.147L104.653 23.162V29ZM116.789 29H119.757L115.375 19.2H112.575L108.179 29H111.119L111.763 27.39H116.145L116.789 29ZM115.207 25.066H112.701L113.961 21.944L115.207 25.066ZM129.583 29.014V19.214H126.839V22.938H123.311V19.214H120.539V29.014H123.311V25.304H126.839V29.014H129.583ZM142.15 20.166C141.1 19.34 139.952 19.004 138.482 19.004C136.41 19.004 134.38 19.9 134.38 21.972C134.38 24.408 136.228 24.954 138.37 25.15C139.448 25.248 140.008 25.556 140.008 26.046C140.008 26.592 139.378 26.914 138.468 26.914C137.642 26.914 136.564 26.746 135.598 25.808L134.072 27.558C135.43 28.986 136.69 29.294 138.454 29.28C140.652 29.266 142.752 28.314 142.752 26.088C142.752 23.834 140.722 23.05 138.776 22.84C137.81 22.742 137.152 22.644 137.152 21.972C137.152 21.454 137.81 21.244 138.482 21.244C139.336 21.244 140.106 21.412 140.778 21.916L142.15 20.166ZM151.365 29H154.333L149.951 19.2H147.151L142.755 29H145.695L146.339 27.39H150.721L151.365 29ZM149.783 25.066H147.277L148.537 21.944L149.783 25.066ZM163.781 19.2H160.463C159.637 20.236 158.727 21.384 157.887 22.42V19.2H155.115V29H157.887V25.738L160.687 29H164.117V28.832C162.759 27.278 161.177 25.514 159.805 24.002L163.781 19.368V19.2ZM167.717 29V19.2H164.959V29H167.717ZM171.775 29H174.533V21.482H177.403V19.2H168.919V21.482H171.775V29Z" fill="#00A79D"/>
        <path d="M25.68 43H26.78L24.47 40.41C25.91 40.29 26.49 39.3 26.48 38.24C26.48 37.1 25.69 36 24.11 36H20.93V43H21.8V40.48H23.5L25.68 43ZM24.07 39.7H21.8V36.78H24.11C25.12 36.78 25.62 37.56 25.61 38.26C25.61 39.05 25.12 39.7 24.07 39.7ZM31.5722 43H32.3322V38.06H31.5122V40.71C31.5122 41.6 30.8922 42.31 29.9922 42.32C29.0522 42.32 28.4922 41.73 28.4922 40.78V38.06H27.6722V40.79C27.6722 42.23 28.5622 43.08 29.8222 43.08C30.5122 43.07 31.1022 42.81 31.5422 42.21L31.5822 43H31.5722ZM33.8359 38.06V43H34.6559V40.2C34.6559 39.39 35.1859 38.75 35.9959 38.75C36.8159 38.75 37.3259 39.39 37.3259 40.2V43H38.1459V40.2C38.1459 39.39 38.6859 38.75 39.4959 38.75C40.3059 38.75 40.7759 39.37 40.7759 40.18V43H41.5959V40.18C41.5959 38.83 40.8159 37.98 39.5159 37.98C38.8159 37.98 38.1359 38.3 37.7759 39.06C37.4959 38.27 36.7959 37.98 36.1159 37.98C35.5559 37.98 34.9559 38.21 34.6559 38.79L34.6059 38.07H33.8459L33.8359 38.06ZM47.1152 43H47.9052V38.06H47.1052L47.0952 38.96C46.7352 38.32 46.0052 37.98 45.2652 37.98C43.8552 37.97 42.7252 38.93 42.7252 40.53C42.7252 42.14 43.8352 43.12 45.2552 43.12C45.9352 43.12 46.6852 42.8 47.0752 42.12L47.0952 43.02L47.1152 43ZM45.3052 38.75C47.6752 38.75 47.6752 42.37 45.2952 42.37C44.3152 42.37 43.5252 41.66 43.5252 40.56C43.5252 39.46 44.3152 38.76 45.2952 38.76L45.3052 38.75ZM50.2123 36H49.4023V43H50.2223V40.38C50.2223 39.48 50.8823 38.77 51.7823 38.77C52.6823 38.77 53.1823 39.32 53.1823 40.29V43H53.9923V40.28C53.9923 38.92 53.3123 38 51.9223 38C51.2923 38.01 50.6323 38.23 50.2123 38.88V36.01V36ZM62.5466 37.53L63.2066 37.12C62.5866 36.06 61.5966 35.85 60.5566 35.85C59.3466 35.85 57.8566 36.35 57.8766 37.81C57.8766 39.23 59.1866 39.54 60.5366 39.75C61.5866 39.91 62.5666 40.16 62.5566 41.03C62.5566 42.06 61.4266 42.33 60.5766 42.33C59.7166 42.33 58.7766 41.93 58.3266 41.1L57.6066 41.52C58.1466 42.69 59.3266 43.14 60.5666 43.14C61.9066 43.14 63.4066 42.63 63.4166 41.06C63.4166 39.48 62.0366 39.2 60.6366 38.98C59.6066 38.81 58.7366 38.59 58.7366 37.83C58.7366 36.98 59.6866 36.63 60.5766 36.63C61.3566 36.64 62.1666 36.92 62.5466 37.53ZM68.6972 43H69.4872V38.06H68.6872L68.6772 38.96C68.3172 38.32 67.5872 37.98 66.8472 37.98C65.4372 37.97 64.3072 38.93 64.3072 40.53C64.3072 42.14 65.4172 43.12 66.8372 43.12C67.5172 43.12 68.2672 42.8 68.6572 42.12L68.6772 43.02L68.6972 43ZM66.8872 38.75C69.2572 38.75 69.2572 42.37 66.8772 42.37C65.8972 42.37 65.1072 41.66 65.1072 40.56C65.1072 39.46 65.8972 38.76 66.8772 38.76L66.8872 38.75ZM71.7944 36H70.9844V43H71.7944V40.67L74.1244 43H75.1244V42.94L72.5644 40.39L74.8444 38.11V38.06H73.8244L71.7944 40.14V36ZM75.8253 36.55C75.8253 37.27 76.9053 37.27 76.9053 36.56C76.9053 35.84 75.8253 35.84 75.8253 36.55ZM75.9453 38.04H76.7653V43H75.9453V38.04ZM79.6595 36.62L78.8395 36.71V38.07H77.8495V38.77H78.8395V41.38C78.8395 42.47 79.3395 43.09 80.3995 43.07C80.7295 43.06 81.0295 42.98 81.3595 42.83L81.1195 42.15C80.8995 42.26 80.6495 42.33 80.4295 42.33C79.8395 42.33 79.6495 41.96 79.6495 41.38V38.77H81.1895V38.07H79.6595V36.62Z" fill="#64748B"/>
        <path d="M22.436 78.2H21.232V88H22.814V81.084L28.372 88H29.562V78.2H27.994V85.172L22.436 78.2ZM37.1187 82.19C36.6847 81.406 35.7467 80.944 34.7667 80.944C32.7787 80.944 31.1967 82.232 31.1967 84.542C31.1967 86.894 32.7227 88.196 34.7387 88.182C35.5927 88.182 36.6567 87.762 37.1187 86.88L37.1887 88H38.5607C38.5607 85.704 38.5607 83.394 38.5607 81.098H37.1607L37.1187 82.19ZM34.8787 82.26C37.8607 82.26 37.8607 86.838 34.8787 86.838C33.6467 86.838 32.6387 85.97 32.6387 84.542C32.6387 83.128 33.6467 82.26 34.8787 82.26ZM46.6911 88V84.206C46.6911 83.184 47.3491 82.344 48.3711 82.344C49.3931 82.344 49.8971 83.156 49.8971 84.178V88H51.3531V84.178C51.3531 82.19 50.3311 80.986 48.4271 80.986C47.4891 80.986 46.6211 81.336 46.0611 82.358C45.6691 81.336 44.7731 80.972 43.8911 80.972C43.1631 80.972 42.3511 81.252 41.9591 82.008L41.8611 81.084H40.5171V88H41.9591V84.206C41.9591 83.184 42.6031 82.33 43.6251 82.33C44.6471 82.33 45.2351 83.184 45.2351 84.206V88H46.6911ZM58.7203 82.19C58.2863 81.406 57.3483 80.944 56.3683 80.944C54.3803 80.944 52.7983 82.232 52.7983 84.542C52.7983 86.894 54.3243 88.196 56.3403 88.182C57.1943 88.182 58.2583 87.762 58.7203 86.88L58.7903 88H60.1623C60.1623 85.704 60.1623 83.394 60.1623 81.098H58.7623L58.7203 82.19ZM56.4803 82.26C59.4623 82.26 59.4623 86.838 56.4803 86.838C55.2483 86.838 54.2403 85.97 54.2403 84.542C54.2403 83.128 55.2483 82.26 56.4803 82.26ZM67.425 79.628H70.393C72.969 79.628 72.983 83.548 70.393 83.548H67.425V79.628ZM70.393 84.99C75.083 84.962 75.069 78.186 70.393 78.186C68.895 78.186 67.355 78.2 65.857 78.2V88H67.425V84.99H70.393ZM80.609 82.19C80.175 81.406 79.237 80.944 78.257 80.944C76.269 80.944 74.687 82.232 74.687 84.542C74.687 86.894 76.213 88.196 78.229 88.182C79.083 88.182 80.147 87.762 80.609 86.88L80.679 88H82.051C82.051 85.704 82.051 83.394 82.051 81.098H80.651L80.609 82.19ZM78.369 82.26C81.351 82.26 81.351 86.838 78.369 86.838C77.137 86.838 76.129 85.97 76.129 84.542C76.129 83.128 77.137 82.26 78.369 82.26ZM89.2293 81.84C88.4593 81.154 87.6333 80.916 86.5693 80.916C85.2813 80.916 83.6993 81.49 83.6993 83.016C83.7133 84.542 85.2113 84.962 86.5133 85.088C87.5353 85.186 88.1233 85.424 88.1093 86.04C88.0953 86.684 87.3253 86.936 86.6393 86.936C85.8273 86.922 84.8613 86.628 84.2173 85.914L83.4613 86.936C84.3713 87.958 85.4913 88.21 86.6113 88.21C88.4033 88.21 89.5373 87.314 89.5513 86.026C89.5653 84.248 87.8993 83.968 86.6253 83.856C85.7433 83.772 85.1413 83.548 85.1273 82.974C85.1273 82.428 85.7153 82.134 86.5973 82.148C87.2833 82.148 87.8713 82.288 88.4173 82.792L89.2293 81.84ZM92.4357 81.07V88H90.9937V81.07H92.4357ZM90.8257 79.068C90.8257 80.258 92.6177 80.258 92.6177 79.068C92.6177 77.892 90.8257 77.892 90.8257 79.068ZM101.076 85.088C101.342 82.274 99.83 80.916 97.604 80.916C95.448 80.916 93.978 82.414 93.978 84.514C93.978 86.726 95.434 88.168 97.702 88.168C98.766 88.168 99.956 87.776 100.67 86.992L99.732 86.082C99.312 86.558 98.43 86.824 97.73 86.824C96.47 86.824 95.602 86.138 95.476 85.088H101.076ZM95.504 83.87C95.728 82.778 96.596 82.204 97.646 82.204C98.808 82.204 99.606 82.778 99.69 83.87H95.504ZM109.238 88V84.29C109.238 82.176 107.95 80.986 106.27 80.986C105.374 80.986 104.604 81.35 103.946 82.092L103.862 81.084H102.546V88H103.988V84.388C103.988 83.254 104.772 82.316 105.92 82.316C107.11 82.316 107.782 83.114 107.782 84.304V88H109.238Z" fill="#111111"/>
        <path d="M21.116 94.6V103H22.148V96.592L27.308 103H28.028V94.6H26.996V101.032L21.848 94.6H21.116ZM30.2566 103H31.3006V94.6H30.2566V103ZM33.5379 103H34.5699V99.052L38.6619 103H39.9579V102.928L35.5659 98.644L39.5979 94.66V94.6H38.2899L34.5699 98.308V94.6H33.5379V103ZM45.0113 100.288H47.7953C51.6593 100.276 51.6593 94.6 47.7953 94.6H43.9793V103H45.0113V100.288ZM47.7953 99.316H45.0113V95.572H47.7953C50.2673 95.572 50.2673 99.316 47.7953 99.316ZM56.7101 103H57.6581V97.072H56.6981L56.6861 98.152C56.2541 97.384 55.3781 96.976 54.4901 96.976C52.7981 96.964 51.4421 98.116 51.4421 100.036C51.4421 101.968 52.7741 103.144 54.4781 103.144C55.2941 103.144 56.1941 102.76 56.6621 101.944L56.6861 103.024L56.7101 103ZM54.5381 97.9C57.3821 97.9 57.3821 102.244 54.5261 102.244C53.3501 102.244 52.4021 101.392 52.4021 100.072C52.4021 98.752 53.3501 97.912 54.5261 97.912L54.5381 97.9ZM63.2707 98.38L63.8347 97.732C63.1987 97.156 62.4667 96.94 61.5787 96.94C60.4387 96.928 59.1667 97.42 59.1787 98.68C59.1787 99.94 60.4027 100.24 61.5427 100.384C62.4547 100.492 63.1507 100.684 63.1387 101.332C63.1147 102.052 62.2867 102.256 61.6387 102.256C60.9067 102.256 60.0547 101.992 59.5267 101.344L58.9627 102.028C59.6347 102.868 60.6187 103.144 61.6147 103.144C62.9467 103.144 64.0747 102.556 64.0987 101.368C64.1227 99.904 62.6827 99.688 61.6027 99.556C60.8587 99.472 60.1387 99.292 60.1267 98.68C60.1147 98.092 60.7747 97.804 61.5907 97.816C62.2027 97.816 62.7427 97.924 63.2587 98.392L63.2707 98.38ZM65.299 95.26C65.299 96.124 66.595 96.124 66.595 95.272C66.595 94.408 65.299 94.408 65.299 95.26ZM65.443 97.048H66.427V103H65.443V97.048ZM73.548 102.052L72.888 101.452C72.492 101.932 71.676 102.196 71.004 102.196C69.864 102.196 68.964 101.512 68.856 100.42H73.896C74.124 98.056 72.744 96.94 70.932 96.94C69.144 96.94 67.86 98.224 67.86 100.012C67.86 101.896 69.144 103.108 70.98 103.108C71.904 103.108 72.936 102.76 73.536 102.052H73.548ZM72.96 99.592H68.856C69.024 98.452 69.924 97.828 70.956 97.828C72.12 97.828 72.912 98.452 72.96 99.604V99.592ZM75.2633 97.072V103H76.2353V99.82C76.2353 98.752 76.9793 97.9 78.0593 97.888C79.1873 97.888 79.8593 98.596 79.8593 99.736V103H80.8433V99.724C80.8433 97.984 79.7393 96.976 78.2393 96.976C77.4473 96.976 76.7273 97.3 76.2113 98.008L76.1633 97.06H75.2633V97.072Z" fill="#111111"/>
        <rect width="350" height="208" rx="16" fill="black" fill-opacity="0.7"/>
        <path d="M95.6 88.5H92.125L85 96.05V88.5H82.2V106H85V98.025L92.8 106H96.3V105.825L87.575 96.95L95.6 88.6V88.5ZM113.211 105.5L107.986 99.675C111.436 99.175 112.736 96.725 112.736 94.225C112.736 91.275 110.611 88.5 106.561 88.5C103.836 88.5 101.136 88.475 98.4109 88.475V106H101.211V99.95H104.911L110.236 106H113.511L113.211 105.5ZM106.561 91.05C108.861 91.05 109.886 92.7 109.886 94.275C109.886 95.925 108.861 97.4 106.536 97.4H101.211V91.05H106.561ZM129.004 90.95C127.529 88.6 125.004 88 122.479 88C119.329 88 115.704 89.4 115.729 93.025C115.729 96.775 119.029 97.65 122.504 98.125C124.954 98.45 126.979 99.1 126.979 101C126.979 103.2 124.654 103.9 122.554 103.9C120.529 103.9 118.354 103.15 117.104 101.025L115.004 102.425C116.604 105.375 119.179 106.4 122.529 106.4C126.179 106.4 129.754 104.925 129.779 101C129.779 97.075 126.354 96.075 122.754 95.575C120.454 95.25 118.504 94.775 118.504 93.075C118.504 91.4 120.204 90.425 122.554 90.425C124.379 90.45 126.054 91.175 126.879 92.375L129.004 90.95ZM141.933 98.25C143.708 98.25 145.433 98.25 147.208 98.25C148.808 98.25 150.883 99.1 150.883 100.975C150.883 102.9 148.733 103.4 147.183 103.4H141.933V98.25ZM141.933 91.025H147.183C149.283 91.025 150.358 92.325 150.358 93.55C150.358 94.925 149.308 95.75 147.208 95.75H141.933V91.025ZM139.158 88.5V106C141.883 106 144.458 106 147.183 106C150.633 106 153.683 104.825 153.683 101C153.683 99.675 152.808 97.6 150.708 96.975C152.358 96.3 153.133 94.975 153.133 93.5C153.133 90.025 150.508 88.5 147.183 88.5H139.158ZM168.406 100.8C168.881 95.775 166.181 93.35 162.206 93.35C158.356 93.35 155.731 96.025 155.731 99.775C155.731 103.725 158.331 106.3 162.381 106.3C164.281 106.3 166.406 105.6 167.681 104.2L166.006 102.575C165.256 103.425 163.681 103.9 162.431 103.9C160.181 103.9 158.631 102.675 158.406 100.8H168.406ZM158.456 98.625C158.856 96.675 160.406 95.65 162.281 95.65C164.356 95.65 165.781 96.675 165.931 98.625H158.456ZM171.132 88.525V106H173.707V88.525H171.132ZM177.107 93.675V100.3C177.107 104.025 179.282 106.2 182.307 106.2C184.032 106.2 185.357 105.575 186.557 104.2L186.707 106.025H189.032V93.675H186.457V100.1C186.457 102.15 185.057 103.825 183.032 103.825C180.882 103.825 179.682 102.375 179.682 100.275V93.675H177.107ZM203.566 106V99.225C203.566 97.4 204.741 95.9 206.566 95.9C208.391 95.9 209.291 97.35 209.291 99.175V106H211.891V99.175C211.891 95.625 210.066 93.475 206.666 93.475C204.991 93.475 203.441 94.1 202.441 95.925C201.741 94.1 200.141 93.45 198.566 93.45C197.266 93.45 195.816 93.95 195.116 95.3L194.941 93.65H192.541V106H195.116V99.225C195.116 97.4 196.266 95.875 198.091 95.875C199.916 95.875 200.966 97.4 200.966 99.225V106H203.566ZM234.916 106H237.891L230.041 88.5H226.991L219.141 106H222.116L223.766 102.325H233.241L234.916 106ZM232.216 99.775H224.816L228.516 91.45L232.216 99.775ZM245.165 95.825C247.315 95.825 249.09 97.45 249.09 99.825C249.09 102.25 247.315 103.85 245.165 103.85C242.99 103.85 241.265 102.3 241.265 99.825C241.265 97.3 242.99 95.825 245.165 95.825ZM249.265 88.525V95.6C248.465 94.15 246.44 93.4 244.94 93.4C241.365 93.4 238.69 95.625 238.69 99.825C238.69 103.9 241.415 106.25 244.99 106.25C246.64 106.25 248.29 105.625 249.265 104.05L249.415 106H251.84V88.525H249.265ZM265.159 95.625C264.384 94.225 262.709 93.4 260.959 93.4C257.409 93.4 254.584 95.7 254.584 99.825C254.584 104.025 257.309 106.35 260.909 106.325C262.434 106.325 264.334 105.575 265.159 104L265.284 106H267.734C267.734 101.9 267.734 97.775 267.734 93.675H265.234L265.159 95.625ZM261.159 95.75C266.484 95.75 266.484 103.925 261.159 103.925C258.959 103.925 257.159 102.375 257.159 99.825C257.159 97.3 258.959 95.75 261.159 95.75Z" fill="#FEFEFE"/>
    </g>
    <rect x="0.5" y="0.5" width="349" height="206.941" rx="15.5" stroke="#E2E8F0"/>
    <defs>
        <clipPath id="clip0_107_215">
            <rect width="350" height="207.941" rx="16" fill="white"/>
        </clipPath>
        <clipPath id="clip1_107_215">
            <rect width="350" height="207.941" fill="white"/>
        </clipPath>
    </defs>
</svg>
