<svg width="400" height="300" viewBox="0 0 400 300" fill="none" xmlns="http://www.w3.org/2000/svg">
    <rect width="400" height="300" rx="10" fill="#E9ECF5"/>
    <rect x="117.422" y="63.4531" width="156.537" height="196.88" rx="5.84" fill="url(#paint0_linear_1761_89426)"/>
    <rect x="122.919" y="57.7949" width="156.537" height="196.88" rx="5.84" fill="#F8FAFC"/>
    <path d="M248.608 102.01H223.719C222.059 102.01 220.706 100.618 220.706 98.9094C220.706 97.2006 222.059 95.8086 223.719 95.8086H248.608C250.268 95.8086 251.62 97.2006 251.62 98.9094C251.62 100.618 250.268 102.01 248.608 102.01Z" fill="#CBD5E1"/>
    <path d="M263.856 115.852H223.719C222.059 115.852 220.706 114.46 220.706 112.751C220.706 111.042 222.059 109.65 223.719 109.65H263.856C265.516 109.65 266.868 111.042 266.868 112.751C266.868 114.46 265.516 115.852 263.856 115.852Z" fill="#CBD5E1"/>
    <path d="M248.146 173.737H223.257C221.597 173.737 220.245 172.345 220.245 170.636C220.245 168.927 221.597 167.535 223.257 167.535H248.146C249.806 167.535 251.158 168.927 251.158 170.636C251.158 172.345 249.806 173.737 248.146 173.737Z" fill="#CBD5E1"/>
    <path d="M263.394 187.567H223.257C221.597 187.567 220.245 186.175 220.245 184.466C220.245 182.757 221.597 181.365 223.257 181.365H263.394C265.054 181.365 266.407 182.757 266.407 184.466C266.407 186.175 265.054 187.567 263.394 187.567Z" fill="#CBD5E1"/>
    <path d="M248.608 248.35H223.719C222.059 248.35 220.706 246.958 220.706 245.249C220.706 243.54 222.059 242.148 223.719 242.148H248.608C250.268 242.148 251.62 243.54 251.62 245.249C251.62 246.958 250.268 248.35 248.608 248.35Z" fill="#CBD5E1"/>
    <path d="M206.931 90.8965C210.963 90.8965 214.231 94.1648 214.231 98.1965V133.391C214.231 137.423 210.963 140.691 206.931 140.691H146.061C142.029 140.691 138.761 137.423 138.761 133.391V98.1965C138.761 94.1648 142.029 90.8965 146.061 90.8965H206.931Z" fill="url(#paint1_linear_1761_89426)"/>
    <rect x="140.365" y="90.8965" width="72.2605" height="46.4899" rx="5.84" fill="#21409A"/>
    <rect x="183.317" y="100.518" width="14.2806" height="14.7007" fill="#E9ECF5"/>
    <path fill-rule="evenodd" clip-rule="evenodd" d="M170.444 111.042L157.362 116.927L158.186 100.518L170.444 111.042Z" fill="#E9ECF5"/>
    <rect x="168.179" y="115.082" width="14.2806" height="14.7007" rx="6.49" fill="#E9ECF5"/>
    <path d="M206.931 162.613C210.963 162.613 214.231 165.882 214.231 169.913V205.108C214.231 209.139 210.963 212.408 206.931 212.408H146.061C142.029 212.408 138.761 209.139 138.761 205.108V169.913C138.761 165.882 142.029 162.613 146.061 162.613H206.931Z" fill="url(#paint2_linear_1761_89426)"/>
    <rect x="140.365" y="162.613" width="72.2605" height="46.4899" rx="5.84" fill="#21409A"/>
    <rect x="183.317" y="172.244" width="14.2806" height="14.7007" fill="#E9ECF5"/>
    <path fill-rule="evenodd" clip-rule="evenodd" d="M170.444 182.769L157.362 188.654L158.186 172.244L170.444 182.769Z" fill="#E9ECF5"/>
    <rect x="168.179" y="186.809" width="14.2806" height="14.7007" rx="6.49" fill="#E9ECF5"/>
    <path d="M206.92 234.34C210.952 234.34 214.22 237.608 214.22 241.64V276.834C214.22 280.866 210.952 284.134 206.92 284.134H146.05C142.018 284.134 138.75 280.866 138.75 276.834V241.64C138.75 237.608 142.018 234.34 146.05 234.34H206.92Z" fill="url(#paint3_linear_1761_89426)"/>
    <rect x="140.365" y="234.34" width="72.2605" height="46.4899" rx="5.84" fill="#21409A"/>
    <rect x="183.317" y="243.959" width="14.2806" height="14.7007" fill="#E9ECF5"/>
    <path fill-rule="evenodd" clip-rule="evenodd" d="M170.444 254.495L157.362 260.38L158.186 243.959L170.444 254.495Z" fill="#E9ECF5"/>
    <rect x="168.179" y="258.535" width="14.2806" height="14.7007" rx="6.49" fill="#E9ECF5"/>
    <path d="M206.206 19.1602C210.237 19.1602 213.506 22.4285 213.506 26.4602V61.6546C213.506 65.6863 210.237 68.9546 206.206 68.9546H145.335C141.303 68.9546 138.035 65.6862 138.035 61.6546V26.4602C138.035 22.4285 141.303 19.1602 145.335 19.1602L206.206 19.1602Z" fill="url(#paint4_linear_1761_89426)"/>
    <rect x="140.365" y="19.1699" width="72.2605" height="46.4899" rx="5.84" fill="#21409A"/>
    <rect x="183.317" y="28.791" width="14.2806" height="14.7007" fill="#E9ECF5"/>
    <path fill-rule="evenodd" clip-rule="evenodd" d="M170.444 39.3157L157.362 45.2005L158.186 28.791L170.444 39.3157Z" fill="#E9ECF5"/>
    <rect x="168.179" y="43.3555" width="14.2806" height="14.7007" rx="6.49" fill="#E9ECF5"/>
    <path d="M294.856 192.195C293.132 192.195 291.736 190.798 291.736 189.075V188.254C291.736 186.53 293.132 185.134 294.856 185.134H295.476C297.199 185.134 298.596 186.53 298.596 188.254V189.075C298.596 190.798 297.199 192.195 295.476 192.195H294.856Z" fill="#CBD5E1"/>
    <path d="M294.856 140.658C293.132 140.658 291.736 139.261 291.736 137.538V136.716C291.736 134.993 293.132 133.596 294.856 133.596H295.476C297.199 133.596 298.596 134.993 298.596 136.716V137.538C298.596 139.261 297.199 140.658 295.476 140.658H294.856Z" fill="#CBD5E1"/>
    <path d="M294.856 127.338C293.132 127.338 291.736 125.941 291.736 124.218V123.396C291.736 121.673 293.132 120.276 294.856 120.276H295.476C297.199 120.276 298.596 121.673 298.596 123.396V124.218C298.596 125.941 297.199 127.338 295.476 127.338H294.856Z" fill="#CBD5E1"/>
    <path d="M294.856 178.875C293.132 178.875 291.736 177.478 291.736 175.755V150.036C291.736 148.313 293.132 146.916 294.856 146.916H295.476C297.199 146.916 298.596 148.313 298.596 150.036V175.755C298.596 177.478 297.199 178.875 295.476 178.875H294.856Z" fill="#21409A"/>
    <defs>
        <linearGradient id="paint0_linear_1761_89426" x1="23.3472" y1="133.329" x2="22.7907" y2="566.891" gradientUnits="userSpaceOnUse">
            <stop offset="0.22" stop-color="#010101" stop-opacity="0.01"/>
            <stop offset="1" stop-color="#010101"/>
        </linearGradient>
        <linearGradient id="paint1_linear_1761_89426" x1="112.16" y1="107.634" x2="112.16" y2="192.522" gradientUnits="userSpaceOnUse">
            <stop offset="0.22" stop-color="#010101" stop-opacity="0.01"/>
            <stop offset="1" stop-color="#010101"/>
        </linearGradient>
        <linearGradient id="paint2_linear_1761_89426" x1="112.16" y1="179.362" x2="112.16" y2="264.25" gradientUnits="userSpaceOnUse">
            <stop offset="0.22" stop-color="#010101" stop-opacity="0.01"/>
            <stop offset="1" stop-color="#010101"/>
        </linearGradient>
        <linearGradient id="paint3_linear_1761_89426" x1="112.16" y1="251.089" x2="112.16" y2="335.977" gradientUnits="userSpaceOnUse">
            <stop offset="0.22" stop-color="#010101" stop-opacity="0.01"/>
            <stop offset="1" stop-color="#010101"/>
        </linearGradient>
        <linearGradient id="paint4_linear_1761_89426" x1="111.435" y1="35.9092" x2="111.435" y2="120.797" gradientUnits="userSpaceOnUse">
            <stop offset="0.22" stop-color="#010101" stop-opacity="0.01"/>
            <stop offset="1" stop-color="#010101"/>
        </linearGradient>
    </defs>
</svg>
