<svg width="400" height="300" viewBox="0 0 400 300" fill="none" xmlns="http://www.w3.org/2000/svg">
    <mask id="mask0_1761_89803" style="mask-type:luminance" maskUnits="userSpaceOnUse" x="0" y="0" width="400" height="300">
        <rect width="400" height="300" rx="8" fill="white"/>
    </mask>
    <g mask="url(#mask0_1761_89803)">
        <rect width="400" height="300" rx="10" fill="#E9ECF5"/>
        <path d="M284.247 69.6777C287.472 69.6777 290.087 72.2924 290.087 75.5177V224.979C290.087 228.205 287.472 230.819 284.247 230.819H104.672C101.447 230.819 98.8319 228.205 98.8319 224.979V75.5177C98.8319 72.2924 101.447 69.6777 104.672 69.6777H284.247Z" fill="url(#paint0_linear_1761_89803)"/>
        <path d="M289.743 64.0195C292.969 64.0195 295.583 66.6342 295.583 69.8595V219.321C295.583 222.546 292.969 225.161 289.743 225.161H110.169C106.943 225.161 104.329 222.546 104.329 219.321V69.8595C104.329 66.6342 106.943 64.0195 110.169 64.0195H289.743Z" fill="#F8FAFC"/>
        <path d="M124.117 121.34C128.148 121.34 131.417 124.608 131.417 128.64V163.834C131.417 167.866 128.148 171.134 124.117 171.134H63.2461C59.2144 171.134 55.9461 167.866 55.9461 163.834V128.64C55.9461 124.608 59.2144 121.34 63.2461 121.34L124.117 121.34Z" fill="url(#paint1_linear_1761_89803)"/>
        <rect x="140.849" y="113.588" width="96.3254" height="61.9714" rx="5.84" fill="#21409A"/>
        <path d="M314.789 121.328C318.82 121.328 322.089 124.596 322.089 128.628V163.823C322.089 167.854 318.82 171.123 314.789 171.123H253.918C249.886 171.123 246.618 167.854 246.618 163.823V128.628C246.618 124.596 249.886 121.328 253.918 121.328H314.789Z" fill="url(#paint2_linear_1761_89803)"/>
        <rect x="251.433" y="121.34" width="72.2605" height="46.4899" rx="5.84" fill="#21409A"/>
        <rect x="54.3411" y="121.34" width="72.2605" height="46.4899" rx="5.84" fill="#21409A"/>
        <path d="M248.124 91.8814H151.799C150.139 91.8814 148.787 90.4894 148.787 88.7805C148.787 87.0717 150.139 85.6797 151.799 85.6797H248.124C249.784 85.6797 251.136 87.0717 251.136 88.7805C251.136 90.4894 249.784 91.8814 248.124 91.8814Z" fill="#CBD5E1"/>
        <path d="M177.821 195.545H129.658C127.998 195.545 126.646 194.153 126.646 192.445C126.646 190.736 127.998 189.344 129.658 189.344H177.821C179.481 189.344 180.833 190.736 180.833 192.445C180.833 194.153 179.481 195.545 177.821 195.545Z" fill="#CBD5E1"/>
        <path d="M201.907 207.1H129.658C127.998 207.1 126.646 205.708 126.646 203.999C126.646 202.29 127.998 200.898 129.658 200.898H201.907C203.567 200.898 204.92 202.29 204.92 203.999C204.92 205.708 203.567 207.1 201.907 207.1Z" fill="#CBD5E1"/>
        <rect x="165.024" y="234.373" width="6.85997" height="7.06175" rx="3.12" fill="#CBD5E1"/>
        <rect x="215.1" y="234.373" width="6.85997" height="7.06175" rx="3.12" fill="#CBD5E1"/>
        <rect x="228.039" y="234.373" width="6.85997" height="7.06175" rx="3.12" fill="#CBD5E1"/>
        <rect x="177.963" y="234.373" width="31.0458" height="7.06175" rx="3.12" fill="#21409A"/>
        <rect x="200.764" y="124.18" width="19.4476" height="20.0196" fill="#E9ECF5"/>
        <path fill-rule="evenodd" clip-rule="evenodd" d="M198.741 165.543H179.283L189.012 145.523L198.741 165.543Z" fill="#E9ECF5"/>
        <rect x="160.22" y="132.566" width="19.4476" height="20.0196" rx="8.845" fill="#E9ECF5"/>
        <path fill-rule="evenodd" clip-rule="evenodd" d="M306.819 160.69H287.371L297.089 140.67L306.819 160.69Z" fill="#E9ECF5"/>
        <rect x="268.297" y="127.711" width="19.4476" height="20.0196" rx="8.845" fill="#E9ECF5"/>
        <rect x="97.2928" y="130.959" width="14.2806" height="14.7007" fill="#E9ECF5"/>
        <path fill-rule="evenodd" clip-rule="evenodd" d="M84.4084 141.484L71.326 147.369L72.1506 130.959L84.4084 141.484Z" fill="#E9ECF5"/>
        <rect x="82.1548" y="145.523" width="14.2806" height="14.7007" rx="6.49" fill="#E9ECF5"/>
    </g>
    <defs>
        <linearGradient id="paint0_linear_1761_89803" x1="-76.378" y1="99.4939" x2="-87.486" y2="558.538" gradientUnits="userSpaceOnUse">
            <stop offset="0.22" stop-color="#010101" stop-opacity="0.01"/>
            <stop offset="1" stop-color="#010101"/>
        </linearGradient>
        <linearGradient id="paint1_linear_1761_89803" x1="93.8188" y1="171.134" x2="169.289" y2="171.134" gradientUnits="userSpaceOnUse">
            <stop offset="0.36" stop-color="#010101" stop-opacity="0.01"/>
            <stop offset="1" stop-color="#010101"/>
        </linearGradient>
        <linearGradient id="paint2_linear_1761_89803" x1="308.385" y1="102.545" x2="176.888" y2="106.028" gradientUnits="userSpaceOnUse">
            <stop offset="0.36" stop-color="#010101" stop-opacity="0.01"/>
            <stop offset="1" stop-color="#010101"/>
        </linearGradient>
    </defs>
</svg>
