<svg width="242" height="242" viewBox="0 0 242 242" fill="none" xmlns="http://www.w3.org/2000/svg">
  <path fill-rule="evenodd" clip-rule="evenodd" d="M160 156C162.209 156 164 157.791 164 160C164 162.209 162.209 164 160 164C157.791 164 156 162.209 156 160C156 157.791 157.791 156 160 156Z" fill="#E6F1EB"/>
  <path fill-rule="evenodd" clip-rule="evenodd" d="M186 182C188.209 182 190 183.791 190 186C190 188.209 188.209 190 186 190C183.791 190 182 188.209 182 186C182 183.791 183.791 182 186 182Z" fill="#E6F1EB"/>
  <path fill-rule="evenodd" clip-rule="evenodd" d="M186 156C188.209 156 190 157.791 190 160C190 162.209 188.209 164 186 164C183.791 164 182 162.209 182 160C182 157.791 183.791 156 186 156Z" fill="#E6F1EB"/>
  <path fill-rule="evenodd" clip-rule="evenodd" d="M212 182C214.209 182 216 183.791 216 186C216 188.209 214.209 190 212 190C209.791 190 208 188.209 208 186C208 183.791 209.791 182 212 182Z" fill="#E6F1EB"/>
  <path fill-rule="evenodd" clip-rule="evenodd" d="M212 156C214.209 156 216 157.791 216 160C216 162.209 214.209 164 212 164C209.791 164 208 162.209 208 160C208 157.791 209.791 156 212 156Z" fill="#E6F1EB"/>
  <path fill-rule="evenodd" clip-rule="evenodd" d="M238 182C240.209 182 242 183.791 242 186C242 188.209 240.209 190 238 190C235.791 190 234 188.209 234 186C234 183.791 235.791 182 238 182Z" fill="#E6F1EB"/>
  <path fill-rule="evenodd" clip-rule="evenodd" d="M212 208C214.209 208 216 209.791 216 212C216 214.209 214.209 216 212 216C209.791 216 208 214.209 208 212C208 209.791 209.791 208 212 208Z" fill="#E6F1EB"/>
  <path fill-rule="evenodd" clip-rule="evenodd" d="M238 208C240.209 208 242 209.791 242 212C242 214.209 240.209 216 238 216C235.791 216 234 214.209 234 212C234 209.791 235.791 208 238 208Z" fill="#E6F1EB"/>
  <path fill-rule="evenodd" clip-rule="evenodd" d="M238 234C240.209 234 242 235.791 242 238C242 240.209 240.209 242 238 242C235.791 242 234 240.209 234 238C234 235.791 235.791 234 238 234Z" fill="#E6F1EB"/>
  <path fill-rule="evenodd" clip-rule="evenodd" d="M238 156C240.209 156 242 157.791 242 160C242 162.209 240.209 164 238 164C235.791 164 234 162.209 234 160C234 157.791 235.791 156 238 156Z" fill="#E6F1EB"/>
  <path fill-rule="evenodd" clip-rule="evenodd" d="M134 104C136.209 104 138 105.791 138 108C138 110.209 136.209 112 134 112C131.791 112 130 110.209 130 108C130 105.791 131.791 104 134 104Z" fill="#E6F1EB"/>
  <path fill-rule="evenodd" clip-rule="evenodd" d="M134 78C136.209 78 138 79.7909 138 82C138 84.2091 136.209 86 134 86C131.791 86 130 84.2091 130 82C130 79.7909 131.791 78 134 78Z" fill="#E6F1EB"/>
  <path fill-rule="evenodd" clip-rule="evenodd" d="M160 104C162.209 104 164 105.791 164 108C164 110.209 162.209 112 160 112C157.791 112 156 110.209 156 108C156 105.791 157.791 104 160 104Z" fill="#E6F1EB"/>
  <path fill-rule="evenodd" clip-rule="evenodd" d="M160 78C162.209 78 164 79.7909 164 82C164 84.2091 162.209 86 160 86C157.791 86 156 84.2091 156 82C156 79.7909 157.791 78 160 78Z" fill="#E6F1EB"/>
  <path fill-rule="evenodd" clip-rule="evenodd" d="M186 104C188.209 104 190 105.791 190 108C190 110.209 188.209 112 186 112C183.791 112 182 110.209 182 108C182 105.791 183.791 104 186 104Z" fill="#E6F1EB"/>
  <path fill-rule="evenodd" clip-rule="evenodd" d="M186 78C188.209 78 190 79.7909 190 82C190 84.2091 188.209 86 186 86C183.791 86 182 84.2091 182 82C182 79.7909 183.791 78 186 78Z" fill="#E6F1EB"/>
  <path fill-rule="evenodd" clip-rule="evenodd" d="M212 104C214.209 104 216 105.791 216 108C216 110.209 214.209 112 212 112C209.791 112 208 110.209 208 108C208 105.791 209.791 104 212 104Z" fill="#E6F1EB"/>
  <path fill-rule="evenodd" clip-rule="evenodd" d="M212 78C214.209 78 216 79.7909 216 82C216 84.2091 214.209 86 212 86C209.791 86 208 84.2091 208 82C208 79.7909 209.791 78 212 78Z" fill="#E6F1EB"/>
  <path fill-rule="evenodd" clip-rule="evenodd" d="M238 104C240.209 104 242 105.791 242 108C242 110.209 240.209 112 238 112C235.791 112 234 110.209 234 108C234 105.791 235.791 104 238 104Z" fill="#E6F1EB"/>
  <path fill-rule="evenodd" clip-rule="evenodd" d="M134 130C136.209 130 138 131.791 138 134C138 136.209 136.209 138 134 138C131.791 138 130 136.209 130 134C130 131.791 131.791 130 134 130Z" fill="#E6F1EB"/>
  <path fill-rule="evenodd" clip-rule="evenodd" d="M160 130C162.209 130 164 131.791 164 134C164 136.209 162.209 138 160 138C157.791 138 156 136.209 156 134C156 131.791 157.791 130 160 130Z" fill="#E6F1EB"/>
  <path fill-rule="evenodd" clip-rule="evenodd" d="M186 130C188.209 130 190 131.791 190 134C190 136.209 188.209 138 186 138C183.791 138 182 136.209 182 134C182 131.791 183.791 130 186 130Z" fill="#E6F1EB"/>
  <path fill-rule="evenodd" clip-rule="evenodd" d="M212 130C214.209 130 216 131.791 216 134C216 136.209 214.209 138 212 138C209.791 138 208 136.209 208 134C208 131.791 209.791 130 212 130Z" fill="#E6F1EB"/>
  <path fill-rule="evenodd" clip-rule="evenodd" d="M238 130C240.209 130 242 131.791 242 134C242 136.209 240.209 138 238 138C235.791 138 234 136.209 234 134C234 131.791 235.791 130 238 130Z" fill="#E6F1EB"/>
  <path fill-rule="evenodd" clip-rule="evenodd" d="M238 78C240.209 78 242 79.7909 242 82C242 84.2091 240.209 86 238 86C235.791 86 234 84.2091 234 82C234 79.7909 235.791 78 238 78Z" fill="#E6F1EB"/>
  <path fill-rule="evenodd" clip-rule="evenodd" d="M82 78C84.2091 78 86 79.7909 86 82C86 84.2091 84.2091 86 82 86C79.7909 86 78 84.2091 78 82C78 79.7909 79.7909 78 82 78Z" fill="#E6F1EB"/>
  <path fill-rule="evenodd" clip-rule="evenodd" d="M108 104C110.209 104 112 105.791 112 108C112 110.209 110.209 112 108 112C105.791 112 104 110.209 104 108C104 105.791 105.791 104 108 104Z" fill="#E6F1EB"/>
  <path fill-rule="evenodd" clip-rule="evenodd" d="M108 78C110.209 78 112 79.7909 112 82C112 84.2091 110.209 86 108 86C105.791 86 104 84.2091 104 82C104 79.7909 105.791 78 108 78Z" fill="#E6F1EB"/>
  <path fill-rule="evenodd" clip-rule="evenodd" d="M4 0C6.20914 0 8 1.79086 8 4C8 6.20914 6.20914 8 4 8C1.79086 8 0 6.20914 0 4C0 1.79086 1.79086 0 4 0Z" fill="#E6F1EB"/>
  <path fill-rule="evenodd" clip-rule="evenodd" d="M30 26C32.2091 26 34 27.7909 34 30C34 32.2091 32.2091 34 30 34C27.7909 34 26 32.2091 26 30C26 27.7909 27.7909 26 30 26Z" fill="#E6F1EB"/>
  <path fill-rule="evenodd" clip-rule="evenodd" d="M30 0C32.2091 0 34 1.79086 34 4C34 6.20914 32.2091 8 30 8C27.7909 8 26 6.20914 26 4C26 1.79086 27.7909 0 30 0Z" fill="#E6F1EB"/>
  <path fill-rule="evenodd" clip-rule="evenodd" d="M56 26C58.2091 26 60 27.7909 60 30C60 32.2091 58.2091 34 56 34C53.7909 34 52 32.2091 52 30C52 27.7909 53.7909 26 56 26Z" fill="#E6F1EB"/>
  <path fill-rule="evenodd" clip-rule="evenodd" d="M56 0C58.2091 0 60 1.79086 60 4C60 6.20914 58.2091 8 56 8C53.7909 8 52 6.20914 52 4C52 1.79086 53.7909 0 56 0Z" fill="#E6F1EB"/>
  <path fill-rule="evenodd" clip-rule="evenodd" d="M82 26C84.2091 26 86 27.7909 86 30C86 32.2091 84.2091 34 82 34C79.7909 34 78 32.2091 78 30C78 27.7909 79.7909 26 82 26Z" fill="#E6F1EB"/>
  <path fill-rule="evenodd" clip-rule="evenodd" d="M82 0C84.2091 0 86 1.79086 86 4C86 6.20914 84.2091 8 82 8C79.7909 8 78 6.20914 78 4C78 1.79086 79.7909 0 82 0Z" fill="#E6F1EB"/>
  <path fill-rule="evenodd" clip-rule="evenodd" d="M108 26C110.209 26 112 27.7909 112 30C112 32.2091 110.209 34 108 34C105.791 34 104 32.2091 104 30C104 27.7909 105.791 26 108 26Z" fill="#E6F1EB"/>
  <path fill-rule="evenodd" clip-rule="evenodd" d="M56 52C58.2091 52 60 53.7909 60 56C60 58.2091 58.2091 60 56 60C53.7909 60 52 58.2091 52 56C52 53.7909 53.7909 52 56 52Z" fill="#E6F1EB"/>
  <path fill-rule="evenodd" clip-rule="evenodd" d="M82 52C84.2091 52 86 53.7909 86 56C86 58.2091 84.2091 60 82 60C79.7909 60 78 58.2091 78 56C78 53.7909 79.7909 52 82 52Z" fill="#E6F1EB"/>
  <path fill-rule="evenodd" clip-rule="evenodd" d="M108 52C110.209 52 112 53.7909 112 56C112 58.2091 110.209 60 108 60C105.791 60 104 58.2091 104 56C104 53.7909 105.791 52 108 52Z" fill="#E6F1EB"/>
  <path fill-rule="evenodd" clip-rule="evenodd" d="M108 0C110.209 0 112 1.79086 112 4C112 6.20914 110.209 8 108 8C105.791 8 104 6.20914 104 4C104 1.79086 105.791 0 108 0Z" fill="#E6F1EB"/>
  <path fill-rule="evenodd" clip-rule="evenodd" d="M134 26C136.209 26 138 27.7909 138 30C138 32.2091 136.209 34 134 34C131.791 34 130 32.2091 130 30C130 27.7909 131.791 26 134 26Z" fill="#E6F1EB"/>
  <path fill-rule="evenodd" clip-rule="evenodd" d="M134 0C136.209 0 138 1.79086 138 4C138 6.20914 136.209 8 134 8C131.791 8 130 6.20914 130 4C130 1.79086 131.791 0 134 0Z" fill="#E6F1EB"/>
  <path fill-rule="evenodd" clip-rule="evenodd" d="M160 26C162.209 26 164 27.7909 164 30C164 32.2091 162.209 34 160 34C157.791 34 156 32.2091 156 30C156 27.7909 157.791 26 160 26Z" fill="#E6F1EB"/>
  <path fill-rule="evenodd" clip-rule="evenodd" d="M160 0C162.209 0 164 1.79086 164 4C164 6.20914 162.209 8 160 8C157.791 8 156 6.20914 156 4C156 1.79086 157.791 0 160 0Z" fill="#E6F1EB"/>
  <path fill-rule="evenodd" clip-rule="evenodd" d="M186 26C188.209 26 190 27.7909 190 30C190 32.2091 188.209 34 186 34C183.791 34 182 32.2091 182 30C182 27.7909 183.791 26 186 26Z" fill="#E6F1EB"/>
  <path fill-rule="evenodd" clip-rule="evenodd" d="M186 0C188.209 0 190 1.79086 190 4C190 6.20914 188.209 8 186 8C183.791 8 182 6.20914 182 4C182 1.79086 183.791 0 186 0Z" fill="#E6F1EB"/>
  <path fill-rule="evenodd" clip-rule="evenodd" d="M212 26C214.209 26 216 27.7909 216 30C216 32.2091 214.209 34 212 34C209.791 34 208 32.2091 208 30C208 27.7909 209.791 26 212 26Z" fill="#E6F1EB"/>
  <path fill-rule="evenodd" clip-rule="evenodd" d="M212 0C214.209 0 216 1.79086 216 4C216 6.20914 214.209 8 212 8C209.791 8 208 6.20914 208 4C208 1.79086 209.791 0 212 0Z" fill="#E6F1EB"/>
  <path fill-rule="evenodd" clip-rule="evenodd" d="M238 26C240.209 26 242 27.7909 242 30C242 32.2091 240.209 34 238 34C235.791 34 234 32.2091 234 30C234 27.7909 235.791 26 238 26Z" fill="#E6F1EB"/>
  <path fill-rule="evenodd" clip-rule="evenodd" d="M134 52C136.209 52 138 53.7909 138 56C138 58.2091 136.209 60 134 60C131.791 60 130 58.2091 130 56C130 53.7909 131.791 52 134 52Z" fill="#E6F1EB"/>
  <path fill-rule="evenodd" clip-rule="evenodd" d="M160 52C162.209 52 164 53.7909 164 56C164 58.2091 162.209 60 160 60C157.791 60 156 58.2091 156 56C156 53.7909 157.791 52 160 52Z" fill="#E6F1EB"/>
  <path fill-rule="evenodd" clip-rule="evenodd" d="M186 52C188.209 52 190 53.7909 190 56C190 58.2091 188.209 60 186 60C183.791 60 182 58.2091 182 56C182 53.7909 183.791 52 186 52Z" fill="#E6F1EB"/>
  <path fill-rule="evenodd" clip-rule="evenodd" d="M212 52C214.209 52 216 53.7909 216 56C216 58.2091 214.209 60 212 60C209.791 60 208 58.2091 208 56C208 53.7909 209.791 52 212 52Z" fill="#E6F1EB"/>
  <path fill-rule="evenodd" clip-rule="evenodd" d="M238 52C240.209 52 242 53.7909 242 56C242 58.2091 240.209 60 238 60C235.791 60 234 58.2091 234 56C234 53.7909 235.791 52 238 52Z" fill="#E6F1EB"/>
  <path fill-rule="evenodd" clip-rule="evenodd" d="M238 0C240.209 0 242 1.79086 242 4C242 6.20914 240.209 8 238 8C235.791 8 234 6.20914 234 4C234 1.79086 235.791 0 238 0Z" fill="#E6F1EB"/>
</svg>
