<svg width="48" height="48" viewBox="0 0 48 48" fill="none" xmlns="http://www.w3.org/2000/svg">
<circle cx="24" cy="24" r="24" fill="#ECF9F2"/>
<path d="M32.1498 12.5039H16.2243C15.7586 12.5044 15.3121 12.6896 14.9828 13.019C14.6535 13.3483 14.4683 13.7948 14.4678 14.2605V33.6201C14.4685 34.0857 14.6538 34.532 14.9831 34.8611C15.3124 35.1903 15.7587 35.3754 16.2243 35.3759H32.1498C32.6155 35.3754 33.062 35.1902 33.3913 34.8609C33.7206 34.5316 33.9058 34.0851 33.9063 33.6193V14.2605C33.9058 13.7948 33.7206 13.3483 33.3913 13.019C33.062 12.6896 32.6155 12.5044 32.1498 12.5039ZM32.8263 33.6201C32.826 33.7993 32.7545 33.9711 32.6277 34.0978C32.5009 34.2245 32.329 34.2957 32.1498 34.2959H16.2243C16.045 34.2957 15.873 34.2244 15.7461 34.0975C15.6193 33.9707 15.548 33.7987 15.5478 33.6193V14.2605C15.548 14.0811 15.6194 13.9092 15.7462 13.7823C15.873 13.6555 16.045 13.5842 16.2243 13.5839H32.1498C32.3291 13.5842 32.5011 13.6555 32.6279 13.7823C32.7547 13.9092 32.8261 14.0811 32.8263 14.2605V33.6201Z" fill="#21409A"/>
<path d="M18.0029 17.5014H30.3699C30.5131 17.5014 30.6504 17.4445 30.7517 17.3432C30.853 17.242 30.9099 17.1046 30.9099 16.9614C30.9099 16.8182 30.853 16.6808 30.7517 16.5795C30.6504 16.4783 30.5131 16.4214 30.3699 16.4214H18.0029C17.8597 16.4214 17.7223 16.4783 17.6211 16.5795C17.5198 16.6808 17.4629 16.8182 17.4629 16.9614C17.4629 17.1046 17.5198 17.242 17.6211 17.3432C17.7223 17.4445 17.8597 17.5014 18.0029 17.5014Z" fill="#21409A"/>
<path d="M18.0029 21.0155H30.3699C30.5131 21.0155 30.6504 20.9587 30.7517 20.8574C30.853 20.7561 30.9099 20.6188 30.9099 20.4755C30.9099 20.3323 30.853 20.195 30.7517 20.0937C30.6504 19.9924 30.5131 19.9355 30.3699 19.9355H18.0029C17.8597 19.9355 17.7223 19.9924 17.6211 20.0937C17.5198 20.195 17.4629 20.3323 17.4629 20.4755C17.4629 20.6188 17.5198 20.7561 17.6211 20.8574C17.7223 20.9587 17.8597 21.0155 18.0029 21.0155Z" fill="#21409A"/>
<path d="M30.9099 23.9897C30.9099 23.8465 30.853 23.7091 30.7517 23.6079C30.6504 23.5066 30.5131 23.4497 30.3699 23.4497H18.0029C17.932 23.4497 17.8618 23.4637 17.7962 23.4908C17.7307 23.518 17.6712 23.5577 17.6211 23.6079C17.5709 23.658 17.5311 23.7175 17.504 23.7831C17.4769 23.8486 17.4629 23.9188 17.4629 23.9897C17.4629 24.0606 17.4769 24.1308 17.504 24.1964C17.5311 24.2619 17.5709 24.3214 17.6211 24.3715C17.6712 24.4217 17.7307 24.4615 17.7962 24.4886C17.8618 24.5157 17.932 24.5297 18.0029 24.5297H30.3699C30.513 24.5296 30.6504 24.4727 30.7516 24.3715C30.8529 24.2702 30.9098 24.1329 30.9099 23.9897Z" fill="#21409A"/>
<path d="M30.6511 27.8759L27.1044 31.4227L24.8803 29.9399C24.7611 29.8604 24.6152 29.8314 24.4747 29.8594C24.3342 29.8874 24.2106 29.9701 24.131 30.0892C24.0514 30.2084 24.0225 30.3543 24.0505 30.4948C24.0784 30.6353 24.1611 30.7589 24.2803 30.8385L26.8723 32.5665C26.9762 32.6356 27.1008 32.6667 27.225 32.6543C27.3492 32.642 27.4653 32.587 27.5536 32.4988L31.4148 28.6396C31.516 28.5383 31.5729 28.401 31.5729 28.2578C31.5729 28.1146 31.516 27.9772 31.4148 27.8759C31.3135 27.7747 31.1761 27.7178 31.0329 27.7178C30.8897 27.7178 30.7523 27.7747 30.6511 27.8759Z" fill="#21409A"/>
</svg>
