<svg width="48" height="48" viewBox="0 0 48 48" fill="none" xmlns="http://www.w3.org/2000/svg">
<circle cx="24" cy="24" r="24" fill="#ECF9F2"/>
<path d="M29.7963 16.998C29.7966 17.4922 29.7227 17.9837 29.577 18.456C29.3838 19.0782 29.0695 19.656 28.6522 20.1563H21.0699C20.5623 19.5473 20.2089 18.825 20.0396 18.0505C19.8703 17.2761 19.8901 16.4722 20.0972 15.707C20.3044 14.9418 20.6928 14.2377 21.2297 13.6544C21.7665 13.0711 22.436 12.6257 23.1815 12.3559C23.9269 12.0861 24.7264 11.9999 25.5122 12.1045C26.298 12.2091 27.0471 12.5015 27.696 12.9568C28.3449 13.4122 28.8746 14.0172 29.2402 14.7207C29.6057 15.4241 29.7965 16.2052 29.7963 16.998Z" fill="#21409A"/>
<path d="M35.3111 19.6257V32.1947C35.3112 32.4963 35.2518 32.795 35.1364 33.0737C35.021 33.3524 34.8518 33.6056 34.6385 33.8189C34.4252 34.0322 34.172 34.2014 33.8933 34.3168C33.6147 34.4322 33.316 34.4915 33.0143 34.4915H16.7063C16.4047 34.4915 16.106 34.4322 15.8273 34.3168C15.5486 34.2014 15.2953 34.0322 15.082 33.8189C14.8687 33.6056 14.6995 33.3524 14.584 33.0737C14.4686 32.795 14.4092 32.4963 14.4092 32.1947V19.6257C14.4093 19.0165 14.6513 18.4323 15.0821 18.0016C15.5129 17.5708 16.0972 17.3289 16.7063 17.3289H19.2328C19.2933 17.9505 19.4572 18.5576 19.7177 19.1253C19.5231 19.185 19.3564 19.3126 19.2479 19.4848C19.1393 19.6571 19.0962 19.8626 19.1263 20.0639C19.1564 20.2653 19.2578 20.4491 19.412 20.5821C19.5661 20.715 19.7629 20.7883 19.9665 20.7885H29.7538C29.9574 20.7884 30.1543 20.7152 30.3085 20.5823C30.4628 20.4493 30.5642 20.2655 30.5943 20.0641C30.6245 19.8627 30.5814 19.6572 30.4729 19.4849C30.3643 19.3126 30.1976 19.185 30.0029 19.1253C30.2635 18.5576 30.4274 17.9505 30.4879 17.3289H33.0143C33.6235 17.3289 34.2077 17.5708 34.6384 18.0016C35.0692 18.4323 35.3111 19.0165 35.3111 19.6257Z" fill="#21409A"/>
<path d="M22.3721 17.7425V14.4787H23.4488C23.7143 14.4787 23.9281 14.5169 24.0903 14.5932C24.243 14.6601 24.3695 14.7753 24.4503 14.9211C24.5299 15.077 24.5693 15.2502 24.5648 15.4251C24.5648 15.7249 24.4797 15.9567 24.3096 16.1207C24.1394 16.2846 23.8968 16.3759 23.5817 16.3946C23.5097 16.3977 23.4362 16.3993 23.3614 16.3993H22.9761V17.7432L22.3721 17.7425ZM22.9761 15.8553H23.388C23.4836 15.856 23.5789 15.8439 23.6713 15.8193C23.752 15.7992 23.8246 15.7552 23.8797 15.693C23.9325 15.6323 23.9591 15.5456 23.9593 15.4331C23.9595 15.3205 23.933 15.2331 23.8797 15.171C23.8245 15.1103 23.7516 15.0685 23.6713 15.0515C23.5783 15.0305 23.4833 15.0204 23.388 15.0212H22.9761V15.8553ZM24.1469 17.7425L23.3271 16.3284L23.9453 16.2535L24.8453 17.7425H24.1469Z" fill="white"/>
<path d="M25.1582 19.0597V15.796H26.2353C26.6037 15.796 26.8815 15.8747 27.0687 16.0321C27.2559 16.1896 27.3496 16.4261 27.3499 16.7417C27.3499 17.057 27.2546 17.297 27.064 17.4617C26.8735 17.6263 26.5975 17.7091 26.236 17.7101H25.7576V19.0586L25.1582 19.0597ZM25.7576 17.1726H26.1745C26.3554 17.1726 26.496 17.1406 26.596 17.0765C26.6961 17.0124 26.746 16.9024 26.7458 16.7464C26.7458 16.5966 26.6978 16.4912 26.6018 16.4303C26.5058 16.3693 26.363 16.3388 26.1734 16.3388H25.7576V17.1726Z" fill="white"/>
</svg>
