<svg width="61" height="55" viewBox="0 0 61 55" fill="none" xmlns="http://www.w3.org/2000/svg">
  <path d="M58.8681 27.5C58.8681 41.9258 46.207 53.7778 30.3869 53.7778C14.5668 53.7778 1.90582 41.9258 1.90582 27.5C1.90582 13.0742 14.5668 1.22222 30.3869 1.22222C46.207 1.22222 58.8681 13.0742 58.8681 27.5Z" stroke="#21409A" stroke-width="2.44444"/>
  <ellipse cx="30.057" cy="27.1945" rx="24.7528" ry="22.9167" fill="#21409A"/>
  <path d="M29.725 31.5561L15.833 21.3286C15.4633 21.0564 14.9412 21.3204 14.9412 21.7794V34.5907C14.9412 36.446 16.4452 37.95 18.3004 37.95H41.1495C43.0047 37.95 44.5087 36.446 44.5087 34.5907V21.7794C44.5087 21.3204 43.9866 21.0564 43.6169 21.3286L29.725 31.5561Z" fill="white"/>
  <path d="M29.725 29.0207L16.3326 19.1608C15.8973 18.8403 16.124 18.15 16.6645 18.15H42.7855C43.3261 18.15 43.5528 18.8403 43.1175 19.1608L29.725 29.0207Z" fill="white"/>
  <path d="M39.0234 36.6391L39.4687 36.1352L39.0235 36.6391C39.3333 36.9129 39.8003 36.9072 40.1033 36.6258L39.6458 36.133L40.1033 36.6258L48.1009 29.1999C49.0558 28.3132 49.0488 26.7996 48.0855 25.9218C47.2278 25.1402 45.9135 25.1483 45.0654 25.9404L39.5407 31.1006L37.7605 29.5628C36.9048 28.8235 35.6315 28.8406 34.7959 29.6025C33.8142 30.4976 33.8263 32.0466 34.8218 32.9262L39.0234 36.6391Z" fill="white" stroke="#21409A" stroke-width="1.34488"/>
</svg>
