<svg width="49" height="48" viewBox="0 0 49 48" fill="none" xmlns="http://www.w3.org/2000/svg">
<circle cx="24.6671" cy="24" r="24" fill="#ECF9F2"/>
<path d="M24.6487 27.4738L15.5897 19.7566C15.2262 19.4469 14.6667 19.7052 14.6667 20.1828V29.1099C14.6667 30.9652 16.1707 32.4692 18.026 32.4692H31.2713C33.1266 32.4692 34.6306 30.9652 34.6306 29.1099V20.1828C34.6306 19.7052 34.0712 19.4469 33.7076 19.7566L24.6487 27.4738Z" fill="#21409A"/>
<path d="M24.6486 25.4929L15.8367 17.986C15.4404 17.6484 15.6791 16.9999 16.1998 16.9999H33.0975C33.6182 16.9999 33.8569 17.6484 33.4606 17.986L24.6486 25.4929Z" fill="#21409A"/>
<path d="M35.9369 23.5799C35.4879 23.1065 34.7323 23.1111 34.2891 23.5901L30.3716 27.824L28.9803 26.4332C28.5271 25.9802 27.7895 25.9902 27.3487 26.4553C26.9276 26.8995 26.9331 27.5972 27.3611 28.0348L30.2911 31.0308C30.3349 31.0756 30.4073 31.0747 30.45 31.0289L35.9442 25.1259C36.3504 24.6895 36.3472 24.0125 35.9369 23.5799Z" fill="white" stroke="#017632" stroke-width="1.34488"/>
</svg>
