<svg width="48" height="48" viewBox="0 0 48 48" fill="none" xmlns="http://www.w3.org/2000/svg">
<circle cx="24" cy="24" r="24" fill="#ECF9F2"/>
<path d="M35.0679 23.991C34.7273 23.5774 34.2447 23.3056 33.7145 23.2285C33.1842 23.1514 32.6443 23.2746 32.1999 23.5741L32.1944 23.5779L31.394 24.1287C31.274 22.8782 30.8392 21.6785 30.1303 20.6414C29.4214 19.6043 28.4615 18.7636 27.3399 18.1976L28.1346 16.1245C28.1872 15.9871 28.2057 15.839 28.1883 15.6929C28.171 15.5467 28.1184 15.407 28.0351 15.2858C27.9518 15.1645 27.8402 15.0653 27.7101 14.9967C27.5799 14.9281 27.435 14.8922 27.2879 14.8921H20.6783C20.5311 14.8921 20.3861 14.9279 20.2558 14.9965C20.1256 15.065 20.0139 15.1642 19.9305 15.2855C19.8471 15.4068 19.7945 15.5465 19.7771 15.6927C19.7597 15.8388 19.7782 15.987 19.8308 16.1245L20.6286 18.206C19.4029 18.8273 18.3734 19.7762 17.6545 20.9473C16.9355 22.1183 16.5551 23.4657 16.5555 24.8398C16.5555 24.9071 16.5567 24.9745 16.5584 25.0417L15.5732 25.1137C15.1708 25.1427 14.7834 25.2788 14.4512 25.5078C13.9691 25.8407 13.3031 26.4231 12.8672 27.3078C12.3392 28.3839 12.2912 29.6024 12.7292 30.9298C12.8535 31.3033 13.0725 31.638 13.365 31.9014C13.6574 32.1648 14.0131 32.3478 14.3975 32.4325L21.2927 33.9419C22.0187 34.1009 22.7751 34.0484 23.4721 33.7904L28.2263 32.031C28.6177 31.8865 28.9832 31.6797 29.3087 31.4187L34.7545 27.0565C34.9783 26.8772 35.1643 26.6551 35.3014 26.4032C35.4386 26.1514 35.5243 25.8747 35.5534 25.5894C35.5826 25.3041 35.5547 25.0158 35.4714 24.7414C35.388 24.467 35.2509 24.2119 35.0679 23.991ZM34.479 25.479C34.4649 25.6219 34.4224 25.7605 34.3538 25.8866C34.2853 26.0128 34.1921 26.1239 34.0799 26.2134L28.6335 30.5758C28.3984 30.7642 28.1345 30.9135 27.8519 31.0179L23.0984 32.7752C22.5951 32.9617 22.0488 32.9996 21.5245 32.8846L14.6293 31.3753C14.4282 31.331 14.2421 31.2354 14.089 31.0977C13.9359 30.9601 13.8212 30.785 13.7559 30.5898C12.9879 28.2567 14.246 26.9598 15.0649 26.3946C15.2386 26.2751 15.441 26.2041 15.6512 26.1891L19.9712 25.8771L20.0034 25.8755L20.0274 25.8742H20.0653H20.0783C20.1333 25.8749 20.1883 25.8787 20.2429 25.8858L20.2746 25.8901C20.2863 25.8918 20.2986 25.8939 20.3099 25.8961L20.3495 25.9038L20.3792 25.9105C20.3951 25.9143 20.4107 25.9182 20.4272 25.9225L20.4495 25.9287C20.4704 25.9347 20.4913 25.9415 20.5122 25.9484L20.5182 25.9506C20.5422 25.959 20.5662 25.9683 20.5902 25.9784L20.6142 25.9882L24.5329 27.2055L24.974 27.3656L25.6731 27.6193C25.7857 27.6598 25.8901 27.7202 25.9813 27.7976L25.9844 27.8002C25.994 27.8084 26.0034 27.8173 26.0125 27.8259C26.0159 27.8288 26.0195 27.8319 26.0226 27.835L26.0447 27.8571C26.0492 27.8619 26.0543 27.8667 26.0588 27.8718L26.0766 27.8914C26.0821 27.8977 26.0876 27.9037 26.0929 27.9102C26.0982 27.9166 26.103 27.9227 26.108 27.9289C26.1131 27.9351 26.1195 27.943 26.1251 27.9505C26.1306 27.9579 26.1339 27.9627 26.1385 27.969L26.1551 27.993C26.1594 27.9994 26.1635 28.0064 26.1678 28.0129C26.1721 28.0194 26.1779 28.0285 26.1827 28.0369L26.1956 28.0597C26.1997 28.0669 26.204 28.0741 26.2079 28.0815C26.2117 28.089 26.217 28.0995 26.2215 28.1087C26.2261 28.1178 26.228 28.1211 26.2309 28.1276C26.2359 28.1384 26.2407 28.1494 26.2455 28.1605C26.2477 28.1658 26.2501 28.1711 26.2525 28.1766C26.2549 28.1821 26.2556 28.185 26.2575 28.1893C26.3254 28.3618 26.3435 28.5499 26.3099 28.7321C26.2762 28.9144 26.1921 29.0836 26.0672 29.2205C25.9422 29.3574 25.7814 29.4566 25.6029 29.5067C25.4244 29.5568 25.2355 29.5559 25.0575 29.504L20.2172 28.0921C20.0805 28.0546 19.9346 28.0724 19.8109 28.1416C19.6872 28.2108 19.5956 28.3258 19.556 28.4619C19.5163 28.598 19.5318 28.7442 19.599 28.869C19.6663 28.9938 19.7799 29.0871 19.9153 29.1289L24.7537 30.5382C25.0904 30.6363 25.4466 30.6472 25.7887 30.5701C26.1308 30.4929 26.4478 30.3302 26.7098 30.097C26.9718 29.8639 27.1704 29.5681 27.2869 29.2373C27.4033 28.9064 27.4339 28.5515 27.3757 28.2056L29.4157 26.8018L32.8047 24.4695C32.9754 24.3559 33.1748 24.2931 33.3798 24.2885C33.5848 24.2838 33.7868 24.3376 33.9624 24.4435C34.138 24.5493 34.2798 24.7029 34.3714 24.8864C34.463 25.0698 34.5006 25.2755 34.4797 25.4795L34.479 25.479Z" fill="#21409A"/>
</svg>
