<svg width="48" height="48" viewBox="0 0 48 48" fill="none" xmlns="http://www.w3.org/2000/svg">
<circle cx="24.0005" cy="24" r="24" fill="#ECF9F2"/>
<path d="M29.0739 20.3755C28.9638 20.3755 28.857 20.3375 28.7715 20.268L27.3572 19.1204C27.305 19.0818 27.2612 19.033 27.2284 18.977C27.1956 18.921 27.1745 18.8589 27.1663 18.7945C27.1581 18.7301 27.1631 18.6647 27.1808 18.6022C27.1986 18.5398 27.2288 18.4816 27.2696 18.4311C27.3105 18.3807 27.3611 18.339 27.4185 18.3086C27.4759 18.2782 27.5388 18.2598 27.6035 18.2544C27.6682 18.249 27.7333 18.2567 27.7949 18.2771C27.8565 18.2975 27.9134 18.3302 27.9621 18.3732L29.0409 19.2488L31.5973 16.7167C31.688 16.6268 31.8106 16.5767 31.9383 16.5773C32.0659 16.5779 32.1881 16.6291 32.2779 16.7198C32.3678 16.8105 32.4179 16.9331 32.4173 17.0608C32.4167 17.1884 32.3654 17.3106 32.2748 17.4004L29.4127 20.2359C29.3226 20.3253 29.2008 20.3755 29.0739 20.3755Z" fill="#4DBA7B"/>
<path fill-rule="evenodd" clip-rule="evenodd" d="M29.7977 14C32.2669 14 34.274 16.0079 34.274 18.4763C34.2737 19.2649 34.0651 20.0395 33.6694 20.7217C33.2738 21.4039 32.705 21.9696 32.0206 22.3615C32.473 24.4663 32.206 26.662 31.2626 28.5972C30.3191 30.5323 28.7536 32.095 26.8167 33.0349C24.8799 33.9749 22.6836 34.2378 20.5796 33.7816C18.4756 33.3254 16.5855 32.1764 15.2119 30.5187C13.8383 28.8609 13.0606 26.7902 13.0034 24.6381C12.9462 22.4859 13.6126 20.3768 14.8962 18.6484C16.1797 16.92 18.0061 15.6722 20.0828 15.1047C22.1596 14.5373 24.3667 14.6831 26.3508 15.5188C26.3726 15.5274 26.3943 15.5365 26.416 15.5463C26.8356 15.0608 27.3548 14.6715 27.9383 14.4046C28.5219 14.1378 29.1561 13.9998 29.7977 14ZM29.5904 21.8454C30.3435 21.8919 31.0905 21.6848 31.7121 21.257C32.1641 20.9479 32.5337 20.5329 32.7885 20.0482C33.0434 19.5636 33.1758 19.0239 33.1742 18.4763C33.1743 17.7217 32.9215 16.9889 32.4563 16.3948C31.9911 15.8008 31.3403 15.3797 30.6077 15.1988C29.8752 15.0179 29.1031 15.0877 28.4149 15.397C27.7266 15.7063 27.1618 16.2372 26.8107 16.9051C26.4595 17.5729 26.3422 18.3392 26.4776 19.0815C26.6129 19.8238 26.993 20.4994 27.5572 21.0004C28.1215 21.5013 28.8373 21.7988 29.5904 21.8454ZM17.8079 20.3756V26.7795H18.9932V24.142H19.7462L19.7617 24.142L21.2897 26.7795H22.6584L20.9709 23.9813C21.2212 23.8911 21.433 23.7624 21.6064 23.5954C21.9402 23.2739 22.1071 22.8192 22.1071 22.2314C22.1069 21.8518 22.032 21.5226 21.8822 21.2438C21.7325 20.9652 21.4982 20.7509 21.1795 20.6007C20.8607 20.4506 20.4412 20.3756 19.9208 20.3756H17.8079ZM19.8015 23.0771H18.9932V21.441H19.8015C19.9884 21.4394 20.1748 21.4594 20.3571 21.5006C20.5147 21.5345 20.6577 21.617 20.766 21.7365C20.8701 21.8531 20.9221 22.0246 20.9221 22.2509C20.9219 22.4712 20.8699 22.6413 20.766 22.7609C20.6577 22.8827 20.5152 22.9689 20.3571 23.0084C20.1758 23.0559 19.9889 23.079 19.8015 23.0771ZM23.2737 22.9594V29.3639H24.4496V26.7168H25.3866C26.097 26.7166 26.639 26.5543 27.0126 26.2299C27.3861 25.9054 27.5729 25.4339 27.5729 24.8153C27.5729 24.1969 27.3892 23.7329 27.0217 23.4235C26.6542 23.1141 26.1091 22.9594 25.3866 22.9594H23.2737ZM25.2675 25.6605H24.4496V24.0251H25.2675C25.6411 24.0246 25.9213 24.0843 26.108 24.2044C26.2948 24.3244 26.3882 24.5311 26.3882 24.8244C26.3884 25.1306 26.2904 25.3466 26.0943 25.4721C25.8982 25.5977 25.6226 25.6605 25.2675 25.6605Z" fill="#4DBA7B"/>
</svg>
