<svg width="48" height="48" viewBox="0 0 48 48" fill="none" xmlns="http://www.w3.org/2000/svg">
<circle cx="24" cy="24" r="24" fill="#ECF9F2"/>
<path d="M33.3159 18.3092H30.6082V16.4895C30.6079 15.8853 30.3677 15.306 29.9404 14.8787C29.5132 14.4515 28.9339 14.2113 28.3297 14.2109H19.7458C19.1416 14.2113 18.5623 14.4515 18.1351 14.8787C17.7078 15.306 17.4677 15.8853 17.4673 16.4895V18.3092H14.7596C14.2543 18.3097 13.7698 18.5106 13.4124 18.8679C13.0551 19.2252 12.8541 19.7097 12.8535 20.215V31.9592C12.854 32.4645 13.055 32.9491 13.4124 33.3064C13.7697 33.6638 14.2542 33.8647 14.7596 33.8653H33.3159C33.8213 33.8647 34.3058 33.6637 34.6632 33.3064C35.0205 32.949 35.2216 32.4645 35.2222 31.9592V20.215C35.2216 19.7097 35.0205 19.2252 34.6632 18.8679C34.3058 18.5106 33.8213 18.3097 33.3159 18.3092ZM18.5473 16.4895C18.5477 16.1717 18.6741 15.8671 18.8987 15.6424C19.1234 15.4177 19.4281 15.2913 19.7458 15.2909H28.3297C28.6474 15.2913 28.9521 15.4177 29.1768 15.6424C29.4015 15.8671 29.5279 16.1717 29.5282 16.4895V19.5409C29.5282 19.5649 29.5282 19.5889 29.5258 19.6129C29.5258 19.6215 29.5258 19.6301 29.5239 19.6385C29.5239 19.6534 29.5215 19.6681 29.5198 19.6827C29.5198 19.6865 29.5198 19.6901 29.5182 19.6937H18.5571L18.5557 19.6832C18.554 19.6685 18.5528 19.6537 18.5516 19.6388C18.5516 19.6301 18.5499 19.6215 18.5494 19.6129C18.548 19.5889 18.5473 19.5649 18.5473 19.5409V16.4895Z" fill="#21409A"/>
<path d="M24.0379 19.3013C24.905 19.3013 25.6079 18.5983 25.6079 17.7312C25.6079 16.8641 24.905 16.1611 24.0379 16.1611C23.1707 16.1611 22.4678 16.8641 22.4678 17.7312C22.4678 18.5983 23.1707 19.3013 24.0379 19.3013Z" fill="#21409A"/>
</svg>
