<svg width="48" height="48" viewBox="0 0 48 48" fill="none" xmlns="http://www.w3.org/2000/svg">
<circle cx="24" cy="24" r="24" fill="#ECF9F2"/>
<path d="M27.7263 27.3639L27.7208 27.3675L27.301 27.6555C27.1784 26.754 26.8432 25.8946 26.3229 25.1483C25.8027 24.4019 25.1123 23.79 24.3089 23.3631L24.8638 21.9137C24.9114 21.79 24.9282 21.6566 24.9126 21.525C24.8971 21.3934 24.8497 21.2675 24.7746 21.1583C24.6995 21.0491 24.5989 20.9598 24.4816 20.8982C24.3642 20.8366 24.2336 20.8045 24.1011 20.8047H19.1261C18.9936 20.8045 18.863 20.8366 18.7457 20.8982C18.6283 20.9598 18.5277 21.0491 18.4526 21.1583C18.3775 21.2675 18.3302 21.3934 18.3146 21.525C18.2991 21.6566 18.3158 21.79 18.3634 21.9137L18.9214 23.3696C18.0041 23.8575 17.237 24.586 16.7025 25.4771C16.168 26.3681 15.8864 27.3878 15.8878 28.4268C15.8878 28.436 15.8878 28.4453 15.8878 28.4547L15.2715 28.4993C14.9453 28.5232 14.6314 28.6336 14.3621 28.8192C13.986 29.0789 13.4662 29.5335 13.1264 30.2252C12.7121 31.0678 12.6749 32.0192 13.0155 33.0528C13.1166 33.3557 13.2945 33.6273 13.5318 33.8409C13.7691 34.0546 14.0578 34.2031 14.3696 34.272L19.5598 35.4089C20.1314 35.5341 20.7269 35.4924 21.2756 35.2889L24.8542 33.9658C25.1623 33.852 25.4501 33.6893 25.7064 33.4839L29.8078 30.2004C30.162 29.9165 30.3929 29.5068 30.4522 29.0568C30.5115 28.6067 30.3948 28.1512 30.1262 27.7852C29.8577 27.4192 29.4582 27.171 29.0111 27.0925C28.564 27.014 28.1039 27.1112 27.7268 27.3639H27.7263ZM29.3837 28.896C29.3748 28.986 29.348 29.0732 29.3048 29.1525C29.2616 29.2319 29.2029 29.3018 29.1322 29.358L25.0318 32.642C24.8658 32.775 24.6794 32.8804 24.4798 32.954L20.9021 34.2768C20.5471 34.4083 20.1617 34.435 19.7919 34.3539L14.6004 33.2177C14.4716 33.1893 14.3523 33.1279 14.2543 33.0396C14.1563 32.9512 14.0829 32.839 14.0412 32.7137C13.4892 31.0397 14.39 30.1112 14.9758 29.7068C15.087 29.6303 15.2166 29.5849 15.3512 29.5752L18.6024 29.3398C18.6236 29.3381 18.6444 29.3374 18.6656 29.3374H18.6682C18.7067 29.3376 18.7452 29.3403 18.7834 29.3456C18.7892 29.3456 18.7949 29.3468 18.8004 29.3477C18.806 29.3487 18.8172 29.3506 18.8244 29.352L18.8484 29.3568L18.8691 29.3614L18.8988 29.3688L18.914 29.3732C18.9276 29.3772 18.9411 29.3813 18.9543 29.3859L18.9586 29.3873C18.9747 29.3931 18.9905 29.3991 19.0066 29.4056L19.0306 29.4154L21.9838 30.3341L22.3438 30.4649L22.8384 30.6444C22.9078 30.6695 22.9722 30.7067 23.0285 30.7544L23.03 30.7556C23.0364 30.7611 23.0424 30.7666 23.0484 30.7724L23.0537 30.7769L23.0686 30.792L23.076 30.7997C23.0804 30.804 23.0844 30.8088 23.0885 30.8134L23.0974 30.8232C23.101 30.8276 23.1044 30.8321 23.108 30.8367C23.1116 30.8412 23.1142 30.8441 23.1171 30.8482C23.12 30.8523 23.1236 30.8568 23.1267 30.8614C23.1298 30.866 23.1327 30.8696 23.1356 30.8739C23.1384 30.8782 23.1418 30.8832 23.1447 30.888L23.1526 30.9005C23.1557 30.9056 23.1586 30.9108 23.1617 30.9161L23.1682 30.9279C23.1713 30.9339 23.1744 30.9399 23.1773 30.9459C23.1802 30.9519 23.1809 30.9526 23.1826 30.9562L23.192 30.9773L23.1956 30.986L23.2006 30.9984C23.2417 31.1016 23.2537 31.214 23.2351 31.3235C23.2165 31.4329 23.1681 31.5351 23.0952 31.6188C23.0186 31.7084 22.9177 31.774 22.8047 31.8078C22.6917 31.8416 22.5713 31.842 22.458 31.8092L18.8158 30.7481C18.6791 30.7106 18.5332 30.7284 18.4094 30.7976C18.2857 30.8668 18.1942 30.9818 18.1546 31.1179C18.1149 31.254 18.1304 31.4002 18.1976 31.525C18.2648 31.6498 18.3784 31.7432 18.5139 31.7849L22.1566 32.846C22.4248 32.9241 22.7082 32.9346 22.9815 32.8766C23.2548 32.8186 23.5095 32.6938 23.7229 32.5135C23.9362 32.3332 24.1017 32.1029 24.2045 31.8431C24.3072 31.5833 24.3441 31.3021 24.3118 31.0246L25.6659 30.0924L28.3299 28.2593C28.4374 28.1879 28.563 28.1485 28.692 28.1457C28.821 28.1429 28.9482 28.1768 29.0587 28.2436C29.1691 28.3103 29.2584 28.4071 29.3159 28.5226C29.3735 28.6382 29.397 28.7677 29.3837 28.896Z" fill="#21409A"/>
<path d="M34.1455 14.5636C33.7628 14.0875 33.2297 13.7554 32.6335 13.6219L27.8448 12.5522C27.6089 12.4996 27.3631 12.5117 27.1335 12.5872L22.9416 13.9665C22.7933 14.0152 22.6546 14.0896 22.5319 14.1861L18.5211 17.3375C18.2036 17.5871 17.9913 17.9467 17.9263 18.3452C17.8613 18.7438 17.9482 19.1522 18.1699 19.4897C18.3916 19.8272 18.732 20.0692 19.1235 20.1678C19.5151 20.2664 19.9295 20.2145 20.2846 20.0222L24.3166 17.8382C24.365 17.8119 24.4206 17.8016 24.4752 17.8089C24.493 17.8113 24.5108 17.8127 24.5287 17.8132L26.3002 17.8713L25.5235 18.46C25.2458 18.6163 25.0327 18.8663 24.9225 19.1653C24.8122 19.4643 24.8119 19.7928 24.9216 20.092C25.0077 20.3256 25.1408 20.5389 25.3128 20.7188C25.4848 20.8987 25.692 21.0413 25.9215 21.1378C26.1509 21.2342 26.3978 21.2824 26.6466 21.2794C26.8955 21.2763 27.1411 21.2222 27.3682 21.1202L31.8665 19.0977C31.8776 19.0927 31.8891 19.0884 31.9008 19.085L32.7987 18.8241C33.3572 18.6616 33.8479 18.3223 34.1972 17.8571C34.5465 17.392 34.7354 16.826 34.7357 16.2443C34.7351 15.6334 34.527 15.0408 34.1455 14.5636ZM32.4963 17.7866L31.5996 18.0482C31.5396 18.0656 31.4808 18.0872 31.4237 18.1127L26.9254 20.1347C26.8336 20.176 26.7343 20.1979 26.6336 20.1991C26.533 20.2003 26.4332 20.1808 26.3405 20.1417C26.2477 20.1027 26.1639 20.0451 26.0944 19.9723C26.0249 19.8995 25.9711 19.8133 25.9363 19.7188C25.9143 19.6589 25.9151 19.593 25.9384 19.5335C25.9617 19.4741 26.0059 19.4253 26.0628 19.3963C26.0911 19.3817 26.1181 19.3647 26.1434 19.3454L28.1674 17.8115C28.2563 17.7441 28.3222 17.6508 28.3559 17.5445C28.3897 17.4381 28.3896 17.3239 28.3558 17.2176C28.322 17.1112 28.2561 17.018 28.1671 16.9506C28.0782 16.8833 27.9705 16.8451 27.859 16.8415L24.5885 16.7342C24.3172 16.7038 24.043 16.7575 23.8032 16.888L19.7712 19.072C19.654 19.1356 19.5172 19.1529 19.3879 19.1204C19.2586 19.0879 19.1463 19.008 19.073 18.8966C18.9998 18.7852 18.9712 18.6503 18.9927 18.5188C19.0142 18.3872 19.0843 18.2685 19.1892 18.1862L23.1991 15.0352C23.2231 15.0164 23.2501 15.0019 23.2791 14.9925L27.4711 13.6135C27.5158 13.5988 27.5637 13.5965 27.6096 13.6067L32.4003 14.6757C32.7576 14.7537 33.0773 14.952 33.306 15.2374C33.5348 15.5229 33.6586 15.8781 33.6569 16.2439C33.6554 16.5917 33.5416 16.9298 33.3325 17.2078C33.1234 17.4858 32.8301 17.6888 32.4963 17.7866Z" fill="#21409A"/>
</svg>
