<svg width="48" height="48" viewBox="0 0 48 48" fill="none" xmlns="http://www.w3.org/2000/svg">
<circle cx="24" cy="24" r="24" fill="#ECF9F2"/>
<path d="M23.9996 19.2039C25.7668 19.2039 27.2044 17.7663 27.2044 15.9992C27.2044 14.232 25.7668 12.7944 23.9996 12.7944C22.2325 12.7944 20.7949 14.2318 20.7949 15.9992C20.7949 17.7665 22.2325 19.2039 23.9996 19.2039ZM23.9996 13.8744C24.4199 13.8744 24.8307 13.999 25.1801 14.2325C25.5295 14.466 25.8018 14.7978 25.9626 15.1861C26.1234 15.5743 26.1655 16.0015 26.0835 16.4137C26.0016 16.8258 25.7992 17.2044 25.502 17.5016C25.2049 17.7987 24.8263 18.0011 24.4142 18.083C24.002 18.165 23.5748 18.123 23.1865 17.9621C22.7983 17.8013 22.4665 17.529 22.233 17.1796C21.9995 16.8302 21.8749 16.4194 21.8749 15.9992C21.8755 15.4358 22.0995 14.8957 22.4979 14.4974C22.8962 14.099 23.4363 13.875 23.9996 13.8744Z" fill="#21409A"/>
<path d="M23.9996 27.2049C25.7696 27.2049 27.2044 25.77 27.2044 24.0001C27.2044 22.2302 25.7696 20.7954 23.9996 20.7954C22.2297 20.7954 20.7949 22.2302 20.7949 24.0001C20.7949 25.77 22.2297 27.2049 23.9996 27.2049Z" fill="#21409A"/>
<path d="M23.9996 35.2053C25.7696 35.2053 27.2044 33.7705 27.2044 32.0006C27.2044 30.2307 25.7696 28.7959 23.9996 28.7959C22.2297 28.7959 20.7949 30.2307 20.7949 32.0006C20.7949 33.7705 22.2297 35.2053 23.9996 35.2053Z" fill="#21409A"/>
</svg>
