<svg width="48" height="48" viewBox="0 0 48 48" fill="none" xmlns="http://www.w3.org/2000/svg">
<circle cx="24" cy="24" r="24" fill="#ECF9F2"/>
<path d="M29.1586 12.4016H18.8417C17.5506 12.4016 16.5039 13.4482 16.5039 14.7394V33.6405C16.5039 34.9316 17.5506 35.9783 18.8417 35.9783H29.1586C30.4498 35.9783 31.4965 34.9316 31.4965 33.6405V14.7394C31.4965 13.4482 30.4498 12.4016 29.1586 12.4016Z" fill="#21409A"/>
<path d="M29.1233 13.8725H18.877C18.2535 13.8725 17.748 14.378 17.748 15.0015V31.5539C17.748 32.1774 18.2535 32.6829 18.877 32.6829H29.1233C29.7468 32.6829 30.2523 32.1774 30.2523 31.5539V15.0015C30.2523 14.378 29.7468 13.8725 29.1233 13.8725Z" fill="white"/>
<path d="M28.8385 24.0788C32.4595 24.0788 35.3949 21.1435 35.3949 17.5225C35.3949 13.9016 32.4595 10.9662 28.8385 10.9662C25.2176 10.9662 22.2822 13.9016 22.2822 17.5225C22.2822 21.1435 25.2176 24.0788 28.8385 24.0788Z" fill="#21409A"/>
<path d="M25.5322 18.816V14.4794H26.9629C27.3154 14.4794 27.5996 14.5302 27.8153 14.6317C28.0173 14.721 28.1845 14.874 28.2913 15.0673C28.3971 15.2741 28.4494 15.504 28.4435 15.7362C28.4435 16.1344 28.3305 16.4423 28.1044 16.66C27.8783 16.8776 27.5559 16.999 27.1371 17.0239C27.0417 17.0279 26.9445 17.03 26.8448 17.03H26.3347V18.816H25.5322ZM26.3347 16.3086H26.8822C27.0091 16.3098 27.1356 16.2942 27.2584 16.2622C27.3655 16.2352 27.462 16.1766 27.5353 16.094C27.6058 16.0134 27.6411 15.8983 27.6411 15.7488C27.6411 15.5954 27.6058 15.4794 27.5353 15.4007C27.4618 15.3201 27.365 15.2646 27.2584 15.2419C27.135 15.2139 27.0088 15.2004 26.8822 15.2016H26.3347V16.3086ZM27.8899 18.816L26.8012 16.9368L27.6224 16.836L28.8169 18.816H27.8899Z" fill="white"/>
<path d="M29.2334 20.5652V16.2294H30.664C31.1534 16.2294 31.5225 16.334 31.7714 16.5433C32.0203 16.7526 32.1447 17.0667 32.1447 17.4858C32.1447 17.9048 32.0182 18.2241 31.7653 18.4437C31.5123 18.6633 31.1452 18.7733 30.664 18.7735H30.0297V20.5652H29.2334ZM30.0297 18.06H30.5834C30.8234 18.06 31.01 18.0175 31.1432 17.9325C31.2764 17.8476 31.3432 17.7008 31.3437 17.4923C31.3437 17.2931 31.2805 17.153 31.154 17.0721C31.0275 16.9913 30.8378 16.9508 30.5848 16.9508H30.0297V18.06Z" fill="white"/>
<path d="M24.0001 35.2968C24.5206 35.2968 24.9426 34.8749 24.9426 34.3543C24.9426 33.8338 24.5206 33.4119 24.0001 33.4119C23.4796 33.4119 23.0576 33.8338 23.0576 34.3543C23.0576 34.8749 23.4796 35.2968 24.0001 35.2968Z" fill="white"/>
</svg>
