<svg width="48" height="48" viewBox="0 0 48 48" fill="none" xmlns="http://www.w3.org/2000/svg">
<circle cx="24.0005" cy="24" r="24" fill="#FCECEC"/>
<path d="M31.2344 20.5259C31.2926 20.5497 31.355 20.5619 31.4179 20.5617C31.5133 20.5617 31.6065 20.5333 31.6857 20.4803C31.7649 20.4272 31.8266 20.3518 31.8629 20.2637C31.8992 20.1755 31.9084 20.0785 31.8895 19.9851C31.8706 19.8916 31.8243 19.8059 31.7566 19.7388L30.4823 18.4766L31.7558 17.2149C31.8465 17.1251 31.8978 17.003 31.8984 16.8754C31.899 16.7478 31.8489 16.6252 31.7591 16.5345C31.6693 16.4438 31.5472 16.3925 31.4196 16.3919C31.292 16.3913 31.1693 16.4414 31.0787 16.5312L29.7986 17.7994L28.5182 16.5312C28.4276 16.4414 28.3049 16.3913 28.1773 16.3919C28.0497 16.3925 27.9276 16.4438 27.8378 16.5345C27.748 16.6252 27.6979 16.7478 27.6985 16.8754C27.6991 17.003 27.7504 17.1251 27.8411 17.2149L29.1148 18.4769L27.8411 19.7388C27.7734 19.8059 27.7271 19.8916 27.7082 19.985C27.6893 20.0784 27.6985 20.1754 27.7348 20.2635C27.771 20.3517 27.8327 20.4271 27.9119 20.4802C27.991 20.5333 28.0842 20.5616 28.1795 20.5617C28.3064 20.5619 28.4282 20.5119 28.5182 20.4225L29.7984 19.1542L31.0786 20.4225C31.1233 20.4669 31.1762 20.502 31.2344 20.5259Z" fill="#E04040"/>
<path fill-rule="evenodd" clip-rule="evenodd" d="M29.7989 13.9999C32.268 13.9999 34.275 16.0077 34.275 18.476C34.2746 19.2647 34.066 20.0393 33.6702 20.7214C33.2745 21.4036 32.7056 21.9692 32.0211 22.361C32.4735 24.466 32.2066 26.6618 31.2631 28.597C30.3195 30.5322 28.7539 32.0949 26.817 33.0349C24.88 33.9748 22.6837 34.2377 20.5796 33.7814C18.4755 33.3251 16.5854 32.176 15.2118 30.5181C13.8382 28.8602 13.0606 26.7894 13.0035 24.6372C12.9464 22.4849 13.613 20.3758 14.8968 18.6474C16.1805 16.9189 18.007 15.6712 20.0839 15.104C22.1608 14.5367 24.368 14.6827 26.3521 15.5186L26.4172 15.5461C26.8368 15.0607 27.3561 14.6713 27.9396 14.4045C28.5231 14.1377 29.1573 13.9997 29.7989 13.9999ZM29.5913 21.845C30.3444 21.8916 31.0913 21.6846 31.7129 21.2569C32.165 20.9478 32.5345 20.5327 32.7894 20.048C33.0443 19.5633 33.1768 19.0236 33.1753 18.476C33.1753 17.7215 32.9226 16.9887 32.4574 16.3947C31.9922 15.8007 31.3414 15.3796 30.6089 15.1987C29.8764 15.0179 29.1044 15.0876 28.4162 15.3969C27.728 15.7061 27.1632 16.237 26.812 16.9048C26.4609 17.5726 26.3435 18.3388 26.4788 19.0811C26.6141 19.8234 26.9941 20.4989 27.5583 20.9999C28.1225 21.5009 28.8382 21.7985 29.5913 21.845ZM17.9684 20.3752V26.7789H19.1536V24.1415H19.9069L19.9221 24.1415L21.4498 26.7789H22.8187L21.1302 23.9813C21.3811 23.891 21.5934 23.7623 21.7671 23.5949C22.1008 23.2734 22.2677 22.8188 22.2677 22.231C22.2677 21.8514 22.1927 21.5222 22.0426 21.2435C21.8926 20.9649 21.6584 20.7505 21.3398 20.6004C21.0213 20.4503 20.6018 20.3752 20.0815 20.3752H17.9684ZM19.9619 23.0767H19.1533V21.4406H19.9619C20.1488 21.439 20.3352 21.459 20.5175 21.5002C20.6751 21.5342 20.8181 21.6167 20.9263 21.7361C21.0305 21.8527 21.0825 22.0242 21.0825 22.2505C21.0823 22.4708 21.0303 22.6408 20.9263 22.7605C20.818 22.8822 20.6755 22.9684 20.5175 23.008C20.3362 23.0555 20.1493 23.0786 19.9619 23.0767ZM23.434 22.959V29.3632H24.6099V26.7162H25.5454C26.2559 26.716 26.7978 26.5537 27.1714 26.2293C27.5449 25.9049 27.7317 25.4334 27.7317 24.8148C27.7326 24.1964 27.5493 23.7325 27.1818 23.4231C26.8143 23.1137 26.2693 22.959 25.5468 22.959H23.434ZM25.4272 25.6599H24.6099V24.0246H25.4272C25.8009 24.0241 26.0812 24.0838 26.268 24.2039C26.4547 24.324 26.5481 24.5306 26.5481 24.8239C26.5483 25.1301 26.4503 25.3461 26.2542 25.4716C26.0581 25.5972 25.7824 25.6599 25.4272 25.6599Z" fill="#E04040"/>
</svg>
