<svg width="49" height="48" viewBox="0 0 49 48" fill="none" xmlns="http://www.w3.org/2000/svg">
<circle cx="24.3339" cy="24" r="24" fill="#ECF9F2"/>
<path fill-rule="evenodd" clip-rule="evenodd" d="M16.0237 15.9999C14.5379 15.9999 13.3335 17.2044 13.3335 18.6901V29.3097C13.3335 30.7955 14.5379 31.9999 16.0237 31.9999H32.6433C34.129 31.9999 35.3335 30.7955 35.3335 29.3097V18.6901C35.3335 17.2044 34.129 15.9999 32.6433 15.9999H16.0237ZM16.0835 28.4444V28.0737C16.0799 27.0852 16.1239 26.5208 17.2972 26.2577L17.3791 26.2394C18.6363 25.9584 19.839 25.6896 19.2424 24.6212C17.4338 21.3884 18.7263 19.5555 20.6669 19.5555C22.5708 19.5555 23.8945 21.3199 22.0932 24.6212C21.5079 25.6915 22.6922 25.9566 23.986 26.2462L24.0375 26.2577C25.2145 26.5217 25.2548 27.0897 25.2502 28.0861V28.4444H16.0835ZM27.0835 28.4444H32.5835V26.6666H27.0835V28.4444ZM32.5835 24.8888H27.0835V23.111H32.5835V24.8888ZM27.0835 21.3332H32.5835V19.5555H27.0835V21.3332Z" fill="#21409A"/>
<path d="M23.6686 25.1902L23.4744 25.4086L23.6686 25.1902C23.3037 24.8656 22.7526 24.869 22.3916 25.1981L20.0079 27.3711L19.2321 26.7169C18.8686 26.4104 18.3351 26.4175 17.9799 26.7337C17.548 27.118 17.5533 27.7947 17.991 28.1723L19.7862 29.7205C19.9199 29.8359 20.1187 29.8335 20.2496 29.7148L23.6752 26.6103C24.0958 26.2292 24.0927 25.5674 23.6686 25.1902Z" fill="white" stroke="#017632" stroke-width="0.590124"/>
</svg>
