<svg width="60" height="55" viewBox="0 0 60 55" fill="none" xmlns="http://www.w3.org/2000/svg">
  <path d="M58.6287 27.5C58.6287 41.9258 45.9677 53.7778 30.1476 53.7778C14.3275 53.7778 1.66644 41.9258 1.66644 27.5C1.66644 13.0742 14.3275 1.22222 30.1476 1.22222C45.9677 1.22222 58.6287 13.0742 58.6287 27.5Z" stroke="#21409A" stroke-width="2.44444"/>
  <ellipse cx="29.8175" cy="27.1945" rx="24.7528" ry="22.9167" fill="#21409A"/>
  <path fill-rule="evenodd" clip-rule="evenodd" d="M18.7495 16.5C16.8421 16.5 15.2959 18.0462 15.2959 19.9536V33.9464C15.2959 35.8538 16.8421 37.4 18.7495 37.4H41.5456C43.453 37.4 44.9992 35.8538 44.9992 33.9464V19.9536C44.9992 18.0462 43.453 16.5 41.5456 16.5H18.7495ZM19.0088 32.7556V32.2714C19.0039 30.9802 19.0633 30.2429 20.6475 29.8992L20.758 29.8753C22.4555 29.5083 24.0793 29.1572 23.2737 27.7616C20.8319 23.5387 22.5769 21.1444 25.197 21.1444C27.7676 21.1444 29.5547 23.4493 27.1228 27.7616C26.3325 29.1597 27.9315 29.5059 29.6783 29.8842L29.7478 29.8992C31.3369 30.2441 31.3914 30.986 31.3852 32.2876V32.7556H19.0088ZM33.8605 32.7556H41.2863V30.4333H33.8605V32.7556ZM41.2863 28.1111H33.8605V25.7889H41.2863V28.1111ZM33.8605 23.4667H41.2863V21.1444H33.8605V23.4667Z" fill="white"/>
  <path d="M24.0286 34.4242L24.2713 34.1333L24.0286 34.4242C24.1985 34.5659 24.4464 34.5629 24.6128 34.417L29.2192 30.3782C29.7917 29.8762 29.7876 28.9836 29.2104 28.4869L28.9633 28.7741L29.2104 28.4869C28.7363 28.079 28.0339 28.0833 27.5649 28.497L24.3081 31.3694L23.22 30.4818C22.7486 30.0973 22.0694 30.1064 21.6085 30.5032C21.0213 31.0088 21.0283 31.9206 21.6233 32.4171L24.0286 34.4242Z" fill="white" stroke="#21409A" stroke-width="0.75759"/>
</svg>
