<svg width="48" height="48" viewBox="0 0 48 48" fill="none" xmlns="http://www.w3.org/2000/svg">
<circle cx="24" cy="24" r="24" fill="#ECF9F2"/>
<path d="M28.8309 18.165C28.8311 18.5768 28.7695 18.9864 28.6482 19.38C28.4871 19.8984 28.2252 20.38 27.8775 20.7969H21.5589C21.1359 20.2894 20.8414 19.6875 20.7003 19.0421C20.5593 18.3967 20.5757 17.7268 20.7484 17.0891C20.921 16.4515 21.2447 15.8647 21.6921 15.3787C22.1394 14.8926 22.6973 14.5214 23.3185 14.2966C23.9397 14.0717 24.606 13.9999 25.2608 14.087C25.9157 14.1742 26.5399 14.4178 27.0806 14.7973C27.6214 15.1768 28.0628 15.681 28.3674 16.2672C28.6721 16.8534 28.8311 17.5043 28.8309 18.165Z" fill="#4DBA7B"/>
<path d="M33.4261 20.3547V30.8289C33.4262 31.0802 33.3767 31.3291 33.2805 31.5614C33.1843 31.7936 33.0433 32.0046 32.8656 32.1824C32.6879 32.3601 32.4769 32.5011 32.2446 32.5973C32.0124 32.6934 31.7635 32.7429 31.5121 32.7429H17.9221C17.6707 32.7429 17.4218 32.6934 17.1896 32.5973C16.9573 32.5011 16.7463 32.3601 16.5685 32.1824C16.3908 32.0046 16.2497 31.7936 16.1535 31.5614C16.0573 31.3292 16.0078 31.0803 16.0078 30.8289V20.3547C16.0079 19.847 16.2096 19.3602 16.5686 19.0013C16.9276 18.6423 17.4145 18.4407 17.9221 18.4407H20.0275C20.0779 18.9587 20.2145 19.4647 20.4316 19.9377C20.2694 19.9875 20.1305 20.0938 20.04 20.2373C19.9496 20.3809 19.9137 20.5521 19.9388 20.7199C19.9639 20.8877 20.0483 21.0409 20.1768 21.1517C20.3053 21.2625 20.4693 21.3235 20.6389 21.3237H28.795C28.9647 21.3236 29.1287 21.2626 29.2573 21.1518C29.3858 21.0411 29.4703 20.8879 29.4954 20.72C29.5206 20.5522 29.4847 20.381 29.3942 20.2374C29.3038 20.0938 29.1648 19.9875 29.0026 19.9377C29.2197 19.4647 29.3563 18.9587 29.4067 18.4407H31.5121C32.0197 18.4407 32.5066 18.6423 32.8655 19.0013C33.2245 19.3602 33.4261 19.847 33.4261 20.3547Z" fill="#4DBA7B"/>
<path d="M22.6426 18.7854V16.0656H23.5399C23.7611 16.0656 23.9393 16.0974 24.0745 16.161C24.2017 16.2168 24.3071 16.3128 24.3745 16.4343C24.4408 16.5642 24.4736 16.7085 24.4699 16.8543C24.4699 17.1041 24.399 17.2973 24.2572 17.4339C24.1154 17.5705 23.9132 17.6466 23.6506 17.6622C23.5906 17.6648 23.5294 17.6661 23.467 17.6661H23.146V18.786L22.6426 18.7854ZM23.146 17.2128H23.4892C23.5689 17.2134 23.6483 17.2033 23.7253 17.1828C23.7925 17.1661 23.853 17.1293 23.899 17.0775C23.943 17.0269 23.9651 16.9547 23.9653 16.8609C23.9655 16.7671 23.9434 16.6943 23.899 16.6425C23.8529 16.592 23.7922 16.5571 23.7253 16.5429C23.6478 16.5255 23.5686 16.517 23.4892 16.5177H23.146V17.2128ZM24.1216 18.7854L23.4385 17.607L23.9536 17.5446L24.7036 18.7854H24.1216Z" fill="white"/>
<path d="M24.9648 19.8831V17.1633H25.8624C26.1694 17.1633 26.4009 17.2289 26.5569 17.3601C26.7129 17.4913 26.791 17.6884 26.7912 17.9514C26.7912 18.2142 26.7118 18.4142 26.553 18.5514C26.3942 18.6886 26.1642 18.7576 25.863 18.7584H25.4643V19.8822L24.9648 19.8831ZM25.4643 18.3105H25.8117C25.9625 18.3105 26.0796 18.2838 26.163 18.2304C26.2464 18.177 26.288 18.0853 26.2878 17.9553C26.2878 17.8305 26.2478 17.7427 26.1678 17.6919C26.0878 17.6411 25.9688 17.6157 25.8108 17.6157H25.4643V18.3105Z" fill="white"/>
</svg>
