<svg width="48" height="48" viewBox="0 0 48 48" fill="none" xmlns="http://www.w3.org/2000/svg">
<circle cx="24.0005" cy="24" r="24" fill="#ECF9F2"/>
<path fill-rule="evenodd" clip-rule="evenodd" d="M30.9404 13.9999C33.4645 13.9999 35.5178 16.0545 35.5178 18.5773C35.5177 19.2674 35.3614 19.9485 35.0606 20.5696C34.7598 21.1907 34.3224 21.7356 33.781 22.1635C33.9496 22.7224 34.0351 23.3031 34.0348 23.8868C34.0348 24.9685 33.7456 26.0145 33.175 26.9971C32.6351 27.9295 31.8645 28.7636 30.8863 29.4762C28.9108 30.9152 26.2941 31.7077 23.5183 31.7077C22.5832 31.7087 21.6503 31.6162 20.7336 31.4317L15.6956 33.8695C15.4647 33.9813 15.206 34.0226 14.9518 33.988C14.6977 33.9535 14.4593 33.8447 14.2667 33.6753C14.074 33.5059 13.9357 33.2835 13.8689 33.0358C13.8022 32.7881 13.81 32.5262 13.8914 32.283L15.1219 28.6073C14.4997 27.9958 14.0048 27.323 13.648 26.6026C13.2181 25.735 13.0001 24.8213 13.0001 23.8868C13.0001 22.8054 13.2901 21.7594 13.8599 20.7765C14.4012 19.8444 15.1718 19.0103 16.1502 18.2977C18.1255 16.8587 20.7422 16.0662 23.5183 16.0662C24.6502 16.064 25.7782 16.1998 26.8772 16.4707C27.2636 15.7265 27.8467 15.1026 28.5632 14.6669C29.2796 14.2312 30.1019 14.0005 30.9404 13.9999ZM30.9404 22.1147C31.8465 22.1153 32.718 21.767 33.374 21.142C33.7227 20.8121 34.0005 20.4145 34.1902 19.9736C34.38 19.5326 34.4777 19.0576 34.4775 18.5776C34.4775 16.627 32.891 15.0405 30.9404 15.0405C30.0025 15.0411 29.1032 15.414 28.44 16.0772C27.7768 16.7404 27.404 17.6397 27.4033 18.5776C27.4033 20.5282 28.9898 22.1147 30.9404 22.1147ZM18.8726 25.375C19.5782 25.375 20.1501 24.8031 20.1501 24.0975C20.1501 23.392 19.5782 22.82 18.8726 22.82C18.1671 22.82 17.5951 23.392 17.5951 24.0975C17.5951 24.8031 18.1671 25.375 18.8726 25.375ZM23.5179 25.375C24.2235 25.375 24.7954 24.8031 24.7954 24.0975C24.7954 23.392 24.2235 22.82 23.5179 22.82C22.8124 22.82 22.2404 23.392 22.2404 24.0975C22.2404 24.8031 22.8124 25.375 23.5179 25.375ZM29.4407 24.0975C29.4407 24.8031 28.8687 25.375 28.1632 25.375C27.4576 25.375 26.8857 24.8031 26.8857 24.0975C26.8857 23.392 27.4576 22.82 28.1632 22.82C28.8687 22.82 29.4407 23.392 29.4407 24.0975Z" fill="#4DBA7B"/>
<path fill-rule="evenodd" clip-rule="evenodd" d="M29.0912 16.6449V19.3987L29.6007 19.3976V18.2637H29.9247C29.927 18.2637 29.9293 18.2637 29.9316 18.2637L30.589 19.3984H31.1778L30.451 18.1946C30.5588 18.1558 30.6501 18.1005 30.7247 18.0286C30.8683 17.8904 30.9401 17.6949 30.9401 17.4421C30.9436 17.295 30.9103 17.1494 30.8433 17.0184C30.7756 16.8955 30.6695 16.7983 30.5411 16.7417C30.404 16.6772 30.2236 16.6449 29.9999 16.6449H29.0912ZM29.9484 17.8062H29.6007V17.104H29.9484C30.0288 17.1033 30.109 17.1121 30.1874 17.13C30.2549 17.144 30.3164 17.1787 30.3632 17.2293C30.408 17.2795 30.4306 17.3557 30.4306 17.4507C30.4306 17.5456 30.408 17.6179 30.3632 17.6699C30.3168 17.7224 30.2555 17.7596 30.1874 17.7765C30.1094 17.797 30.029 17.807 29.9484 17.8062Z" fill="#4DBA7B"/>
<path fill-rule="evenodd" clip-rule="evenodd" d="M31.4417 17.7562V20.511H31.9476V19.3706H32.3494C32.6549 19.3714 32.888 19.3021 33.0488 19.1625C33.2095 19.0229 33.2899 18.8201 33.2899 18.5539C33.289 18.2881 33.2099 18.0887 33.0527 17.9557C32.8954 17.8227 32.6613 17.7562 32.3504 17.7562H31.4417ZM32.2992 18.9188H31.9476V18.2145H32.2992C32.4599 18.215 32.5804 18.241 32.6607 18.2925C32.741 18.344 32.7811 18.433 32.7811 18.5594C32.7813 18.6911 32.7392 18.784 32.6547 18.8379C32.5703 18.8918 32.4518 18.9188 32.2992 18.9188Z" fill="#4DBA7B"/>
</svg>
