<svg width="49" height="48" viewBox="0 0 49 48" fill="none" xmlns="http://www.w3.org/2000/svg">
<circle cx="24.667" cy="24" r="24" fill="#ECF9F2"/>
<path d="M34.2051 16.5793H15.128C13.7537 16.5793 12.6396 17.6934 12.6396 19.0677V32.0068C12.6396 33.381 13.7537 34.4951 15.128 34.4951H34.2051C35.5793 34.4951 36.6934 33.381 36.6934 32.0068V19.0677C36.6934 17.6934 35.5793 16.5793 34.2051 16.5793Z" fill="#21409A"/>
<path d="M24.632 21.9206C27.5408 21.9206 29.8988 19.5626 29.8988 16.6538C29.8988 13.7451 27.5408 11.387 24.632 11.387C21.7233 11.387 19.3652 13.7451 19.3652 16.6538C19.3652 19.5626 21.7233 21.9206 24.632 21.9206Z" fill="#21409A"/>
<path d="M24.6309 22.3706C21.4787 22.3706 18.9141 19.8063 18.9141 16.6538C18.9141 13.5013 21.4787 10.937 24.6309 10.937C27.783 10.937 30.3477 13.5017 30.3477 16.6538C30.3477 19.806 27.7841 22.3706 24.6309 22.3706ZM24.6309 11.837C21.9748 11.837 19.8141 13.997 19.8141 16.6538C19.8141 19.3106 21.9741 21.4706 24.6309 21.4706C27.2877 21.4706 29.4477 19.3106 29.4477 16.6538C29.4477 13.997 27.288 11.837 24.6309 11.837Z" fill="white"/>
<path d="M21.9756 17.6928V14.208H23.1251C23.408 14.208 23.636 14.2488 23.8091 14.3304C23.9713 14.4021 24.1056 14.525 24.1914 14.6803C24.2763 14.8464 24.3183 15.031 24.3138 15.2174C24.3138 15.5376 24.2229 15.785 24.0413 15.9598C23.8596 16.1345 23.6005 16.2319 23.264 16.2521C23.1875 16.2554 23.1092 16.2571 23.0293 16.2571H22.6203V17.6928H21.9756ZM22.6203 15.6786H23.0599C23.1619 15.6802 23.2636 15.6681 23.3623 15.6426C23.4483 15.6211 23.5259 15.5742 23.5848 15.508C23.6412 15.4429 23.6695 15.3504 23.6697 15.2304C23.67 15.1104 23.6423 15.0167 23.5866 14.9492C23.5276 14.8845 23.4498 14.84 23.3641 14.8218C23.2649 14.7992 23.1634 14.7883 23.0617 14.789H22.6203V15.6786ZM23.8695 17.6928L22.9951 16.1837L23.6546 16.1034L24.6144 17.6928H23.8695Z" fill="white"/>
<path d="M24.9492 19.0986V15.6152H26.0987C26.4918 15.6152 26.7883 15.6992 26.9883 15.8672C27.1882 16.0352 27.2881 16.2872 27.2881 16.6232C27.2881 16.9592 27.1865 17.2158 26.9832 17.3929C26.7799 17.57 26.4851 17.6584 26.0987 17.6579H25.5889V19.0979L24.9492 19.0986ZM25.5889 17.0826H26.035C26.2284 17.0826 26.3783 17.0485 26.4846 16.9804C26.5909 16.9122 26.6442 16.7947 26.6445 16.6279C26.6445 16.4681 26.5937 16.3556 26.4922 16.2906C26.3907 16.2256 26.2383 16.1936 26.035 16.1948H25.5889V17.0826Z" fill="white"/>
<path d="M14.978 31.0887C14.874 31.0888 14.7725 31.0567 14.6874 30.9968C14.6024 30.9369 14.538 30.8522 14.503 30.7542C14.468 30.6563 14.4642 30.5499 14.4921 30.4497C14.5199 30.3495 14.5781 30.2603 14.6587 30.1945L19.7707 26.0081C19.8259 25.9627 19.8902 25.9296 19.9592 25.911C20.0282 25.8924 20.1004 25.8886 20.171 25.9001L26.4742 26.9264L32.9028 21.5711C33.0055 21.4855 33.138 21.4443 33.2711 21.4564C33.4043 21.4686 33.5271 21.5331 33.6127 21.6359C33.6982 21.7386 33.7395 21.8711 33.7273 22.0042C33.7152 22.1374 33.6506 22.2602 33.5479 22.3458L26.9437 27.8487C26.8881 27.8953 26.8232 27.9294 26.7533 27.9486C26.6834 27.9678 26.6102 27.9717 26.5387 27.96L20.2344 26.9322L15.297 30.9746C15.2071 31.0485 15.0943 31.0888 14.978 31.0887Z" fill="white"/>
<path d="M20.1001 27.6299C20.7244 27.6299 21.2305 27.1238 21.2305 26.4995C21.2305 25.8752 20.7244 25.3691 20.1001 25.3691C19.4758 25.3691 18.9697 25.8752 18.9697 26.4995C18.9697 27.1238 19.4758 27.6299 20.1001 27.6299Z" fill="white"/>
<path d="M26.5279 28.5324C27.1522 28.5324 27.6583 28.0263 27.6583 27.402C27.6583 26.7777 27.1522 26.2716 26.5279 26.2716C25.9036 26.2716 25.3975 26.7777 25.3975 27.402C25.3975 28.0263 25.9036 28.5324 26.5279 28.5324Z" fill="white"/>
<path d="M33.2261 23.0889C33.8504 23.0889 34.3565 22.5828 34.3565 21.9585C34.3565 21.3342 33.8504 20.8281 33.2261 20.8281C32.6018 20.8281 32.0957 21.3342 32.0957 21.9585C32.0957 22.5828 32.6018 23.0889 33.2261 23.0889Z" fill="white"/>
</svg>
