<svg width="47" height="45" viewBox="0 0 47 45" fill="none" xmlns="http://www.w3.org/2000/svg">
<path d="M22.6294 2.96582e-07H18.2963C17.325 -0.000317472 16.3707 0.254722 15.5291 0.739548C14.6874 1.22437 13.988 1.92195 13.501 2.76232C12.2195 3.00707 11.0634 3.69079 10.2316 4.69583C9.39984 5.70088 8.94432 6.96441 8.94348 8.26902V16.5717H12.7582V17.0609H31.8319V9.207C31.8319 6.76694 30.8626 4.42681 29.1373 2.70143C27.4119 0.976043 25.0717 0.00673235 22.6317 0.00673235" fill="#A56A43"/>
<path d="M29.8637 30.6303H26.4978C26.5584 30.8681 26.5965 31.0095 26.5965 31.0095C26.5965 31.0095 25.1492 32.2639 24.3974 32.5264C22.2605 33.3536 19.9124 33.4623 17.7082 32.8361C16.115 32.3738 14.3647 30.9152 14.3624 30.9152C14.3602 30.9152 14.4073 30.812 14.4746 30.628H10.725C8.14146 30.628 5.66378 31.6543 3.83698 33.4811C2.01017 35.3079 0.983887 37.7856 0.983887 40.3691V43.9123C0.983887 44.167 1.08507 44.4113 1.26519 44.5914C1.4453 44.7715 1.68959 44.8727 1.94431 44.8727H38.6444C38.8979 44.8709 39.1405 44.769 39.3192 44.589C39.4978 44.4091 39.5981 44.1659 39.5981 43.9123V40.3668C39.5981 37.7833 38.5718 35.3057 36.745 33.4789C34.9182 31.6521 32.4405 30.6258 29.857 30.6258" fill="#B0D3F0"/>
<path d="M17.6989 32.8382C19.903 33.4644 22.2512 33.3557 24.3881 32.5285C25.1399 32.2637 26.5872 31.0116 26.5872 31.0116C26.5872 31.0116 26.5491 30.868 26.4885 30.6324C26.2369 29.6662 26.0421 28.6862 25.905 27.6973C25.7188 26.1444 25.9522 25.4533 26.0195 24.8923L23.1023 27.4572C22.7091 27.8049 22.2 27.993 21.6752 27.9845L19.0901 27.9396C18.5714 27.9303 18.0743 27.7297 17.6944 27.3764L14.748 24.614C14.9772 25.1092 15.117 25.641 15.1609 26.1848C15.3472 28.0316 14.7301 29.9322 14.4675 30.6369C14.4002 30.8209 14.3553 30.9241 14.3553 30.9241C14.3553 30.9241 16.1079 32.3804 17.7011 32.8449" fill="#F5B283"/>
<path d="M19.0996 27.9373L21.6846 27.9822C22.2095 27.9908 22.7186 27.8027 23.1118 27.4549L26.0289 24.89L28.1181 23.0477C28.3476 22.8449 28.5308 22.5951 28.6551 22.3151C28.7794 22.0351 28.8419 21.7317 28.8384 21.4254L28.7935 17.2202L28.7576 13.8811V13.843C28.7263 11.6044 27.8088 9.46946 26.2063 7.90604C24.6037 6.34262 22.4468 5.47819 20.2081 5.50216C19.0952 5.513 17.9954 5.74332 16.9717 6.17992C15.948 6.61652 15.0205 7.25082 14.2423 8.04649C13.4642 8.84215 12.8506 9.78354 12.4369 10.8167C12.0232 11.8499 11.8174 12.9545 11.8314 14.0674L11.8673 17.4064L11.8515 20.9968C11.8495 21.2908 11.9082 21.5822 12.024 21.8525C12.1399 22.1228 12.3103 22.3662 12.5247 22.5675L14.7373 24.6275L17.6926 27.3764C18.0725 27.7297 18.5696 27.9303 19.0883 27.9396" fill="#FCC9A1"/>
<path d="M12.1361 12.7367C11.4815 12.7367 10.8416 12.9308 10.2973 13.2945C9.75299 13.6582 9.32876 14.1752 9.07824 14.78C8.82773 15.3847 8.76218 16.0502 8.88989 16.6923C9.0176 17.3343 9.33284 17.9241 9.79573 18.387C10.2586 18.8499 10.8484 19.1651 11.4904 19.2928C12.1325 19.4205 12.798 19.355 13.4028 19.1045C14.0076 18.854 14.5245 18.4297 14.8882 17.8854C15.2519 17.3411 15.446 16.7012 15.446 16.0466C15.446 15.1687 15.0973 14.3269 14.4766 13.7062C13.8558 13.0854 13.014 12.7367 12.1361 12.7367Z" fill="#FCC9A1"/>
<path d="M28.7109 12.7367C28.0562 12.7367 27.4163 12.9308 26.872 13.2945C26.3277 13.6582 25.9035 14.1752 25.653 14.78C25.4024 15.3847 25.3369 16.0502 25.4646 16.6923C25.5923 17.3343 25.9075 17.9241 26.3704 18.387C26.8333 18.8499 27.4231 19.1651 28.0651 19.2928C28.7072 19.4205 29.3727 19.355 29.9775 19.1045C30.5823 18.854 31.0992 18.4297 31.4629 17.8854C31.8266 17.3411 32.0207 16.7012 32.0207 16.0466C32.0207 15.1687 31.672 14.3269 31.0513 13.7062C30.4306 13.0854 29.5887 12.7367 28.7109 12.7367Z" fill="#FCC9A1"/>
<path d="M25.91 12.187H22.7101C22.5048 12.187 22.3078 12.2685 22.1627 12.4137C22.0175 12.5589 21.9359 12.7558 21.9359 12.9611C21.9359 13.1664 22.0175 13.3634 22.1627 13.5085C22.3078 13.6537 22.5048 13.7353 22.7101 13.7353H25.91C26.1153 13.7353 26.3122 13.6537 26.4574 13.5085C26.6026 13.3634 26.6841 13.1664 26.6841 12.9611C26.6841 12.7558 26.6026 12.5589 26.4574 12.4137C26.3122 12.2685 26.1153 12.187 25.91 12.187Z" fill="#A56A44"/>
<path d="M18.9246 12.9611C18.9246 12.7558 18.8431 12.5589 18.6979 12.4137C18.5527 12.2685 18.3558 12.187 18.1505 12.187H14.9438C14.7385 12.187 14.5416 12.2685 14.3964 12.4137C14.2512 12.5589 14.1697 12.7558 14.1697 12.9611C14.1697 13.1664 14.2512 13.3634 14.3964 13.5085C14.5416 13.6537 14.7385 13.7353 14.9438 13.7353H18.1482C18.3536 13.7353 18.5505 13.6537 18.6957 13.5085C18.8408 13.3634 18.9224 13.1664 18.9224 12.9611" fill="#A56A44"/>
<path d="M24.3054 14.386C24.1042 14.386 23.9113 14.466 23.769 14.6082C23.6268 14.7504 23.5469 14.9434 23.5469 15.1445V16.0421C23.5413 16.145 23.5567 16.248 23.5923 16.3448C23.6278 16.4415 23.6827 16.53 23.7535 16.6049C23.8244 16.6797 23.9098 16.7393 24.0045 16.7801C24.0992 16.8208 24.2012 16.8418 24.3042 16.8418C24.4073 16.8418 24.5093 16.8208 24.604 16.7801C24.6987 16.7393 24.7841 16.6797 24.8549 16.6049C24.9258 16.53 24.9807 16.4415 25.0162 16.3448C25.0517 16.248 25.0672 16.145 25.0616 16.0421V15.1445C25.0616 14.9434 24.9817 14.7504 24.8394 14.6082C24.6972 14.466 24.5043 14.386 24.3031 14.386" fill="#334155"/>
<path d="M16.5461 14.4937C16.3449 14.4937 16.152 14.5736 16.0098 14.7159C15.8675 14.8581 15.7876 15.051 15.7876 15.2522V16.1498C15.782 16.2527 15.7974 16.3557 15.833 16.4524C15.8685 16.5492 15.9234 16.6377 15.9943 16.7125C16.0651 16.7874 16.1505 16.847 16.2452 16.8877C16.3399 16.9285 16.4419 16.9495 16.545 16.9495C16.648 16.9495 16.75 16.9285 16.8447 16.8877C16.9394 16.847 17.0248 16.7874 17.0957 16.7125C17.1665 16.6377 17.2214 16.5492 17.2569 16.4524C17.2925 16.3557 17.3079 16.2527 17.3023 16.1498V15.2522C17.3023 15.051 17.2224 14.8581 17.0802 14.7159C16.9379 14.5736 16.745 14.4937 16.5438 14.4937" fill="#334155"/>
<path d="M18.8239 19.1546C18.8239 19.3682 18.9087 19.5731 19.0598 19.7242C19.2109 19.8753 19.4158 19.9602 19.6294 19.9602H21.1307C21.3443 19.9602 21.5492 19.8753 21.7003 19.7242C21.8514 19.5731 21.9362 19.3682 21.9362 19.1546C21.9362 18.9409 21.8514 18.736 21.7003 18.5849C21.5492 18.4339 21.3443 18.349 21.1307 18.349H19.6272C19.4139 18.3496 19.2096 18.4347 19.059 18.5857C18.9084 18.7368 18.8239 18.9413 18.8239 19.1546Z" fill="#F09372"/>
<path d="M21.8889 21.4926H18.7608C18.655 21.4926 18.5502 21.5135 18.4525 21.554C18.3548 21.5945 18.266 21.6538 18.1911 21.7286C18.1163 21.8034 18.057 21.8922 18.0165 21.9899C17.976 22.0877 17.9552 22.1924 17.9552 22.2982C17.9552 22.404 17.976 22.5088 18.0165 22.6065C18.057 22.7043 18.1163 22.7931 18.1911 22.8679C18.266 22.9427 18.3548 23.002 18.4525 23.0425C18.5502 23.083 18.655 23.1038 18.7608 23.1038H21.8889C21.9947 23.1038 22.0994 23.083 22.1972 23.0425C22.2949 23.002 22.3837 22.9427 22.4585 22.8679C22.5333 22.7931 22.5927 22.7043 22.6331 22.6065C22.6736 22.5088 22.6945 22.404 22.6945 22.2982C22.6945 22.1924 22.6736 22.0877 22.6331 21.9899C22.5927 21.8922 22.5333 21.8034 22.4585 21.7286C22.3837 21.6538 22.2949 21.5945 22.1972 21.554C22.0994 21.5135 21.9947 21.4926 21.8889 21.4926Z" fill="#F09372"/>
<path d="M28.9661 7.30868C28.8954 7.30901 28.8251 7.31959 28.7574 7.3401C28.7479 7.19372 28.7238 7.04865 28.6856 6.90701C28.0439 4.54187 23.4796 4.01454 19.9521 3.60838C16.4246 3.20222 14.2165 2.98007 12.4034 4.41845C11.0032 5.54043 9.81162 7.66098 10.4758 8.87946C10.5116 8.94443 10.5521 9.00668 10.597 9.06571C10.597 9.11507 10.597 9.16444 10.615 9.21157C10.6935 9.56858 10.8602 9.90028 11.0997 10.1765V15.4139C11.0997 15.607 11.1764 15.7922 11.3129 15.9288C11.4495 16.0653 11.6347 16.1421 11.8278 16.1421C12.0209 16.1421 12.2062 16.0653 12.3427 15.9288C12.4793 15.7922 12.556 15.607 12.556 15.4139V10.5512C13.0227 9.13078 14.6743 8.2332 14.8426 8.15466C15.251 7.93026 16.088 7.50166 17.0866 7.64976L17.1718 7.66547C17.6767 7.85621 18.2624 8.12548 19.0209 8.46432C20.9754 9.33498 21.9537 9.76807 22.5057 9.92739C23.9015 10.3313 26.3003 11.0224 27.7095 9.78827C27.9122 9.60719 28.0896 9.39963 28.2368 9.17117V15.4139C28.2368 15.607 28.3135 15.7922 28.4501 15.9288C28.5867 16.0653 28.7719 16.1421 28.965 16.1421C29.1581 16.1421 29.3433 16.0653 29.4799 15.9288C29.6165 15.7922 29.6932 15.607 29.6932 15.4139V8.03797C29.6932 7.84515 29.6166 7.66022 29.4802 7.52387C29.3439 7.38752 29.1589 7.31092 28.9661 7.31092" fill="#A56A43"/>
<path d="M28.8273 35.4613C28.2179 35.4613 27.6223 35.642 27.1156 35.9805C26.609 36.3191 26.2141 36.8003 25.9809 37.3632C25.7477 37.9262 25.6867 38.5457 25.8055 39.1433C25.9244 39.741 26.2179 40.29 26.6487 40.7208C27.0796 41.1517 27.6286 41.4452 28.2262 41.564C28.8239 41.6829 29.4434 41.6219 30.0063 41.3887C30.5693 41.1555 31.0505 40.7606 31.389 40.254C31.7276 39.7473 31.9083 39.1516 31.9083 38.5423C31.9083 37.7252 31.5837 36.9415 31.0059 36.3637C30.4281 35.7859 29.6444 35.4613 28.8273 35.4613Z" fill="#547581"/>
<path d="M11.2816 34.0388C11.2761 33.848 11.2941 33.6574 11.3354 33.4711C11.4435 33.0203 11.6652 32.6046 11.9795 32.2638C12.3093 31.9205 12.527 31.9137 12.7177 31.539C12.8173 31.365 12.8582 31.1636 12.8344 30.9646C12.8205 30.8657 12.7872 30.7706 12.7363 30.6847C12.6855 30.5989 12.6182 30.5239 12.5382 30.4641C12.4446 30.4084 12.3408 30.3719 12.2329 30.3569C12.125 30.3419 12.0152 30.3486 11.9099 30.3766C11.3444 30.4866 11.0123 30.9937 10.6219 31.5614C10.3622 31.9557 10.1463 32.3771 9.97784 32.8181C9.72202 33.4352 9.57617 33.7919 9.6188 34.0276C9.72202 34.0096 9.82749 33.9939 9.9352 33.9827C10.3843 33.9377 10.8375 33.9559 11.2816 34.0365" fill="#547581"/>
<path d="M14.9956 37.2004C14.7084 35.8922 13.1174 34.8263 13.1174 34.8263C12.7421 34.5574 12.3303 34.3435 11.8944 34.1913C11.6943 34.1247 11.4895 34.073 11.2818 34.0365C10.8377 33.9558 10.3845 33.9377 9.93544 33.9826C9.82549 33.9826 9.71105 34.0095 9.61904 34.0275C8.73036 34.1814 7.89991 34.573 7.21575 35.1607C6.68693 35.6103 6.26396 36.1712 5.97708 36.8033L5.75269 37.3328V40.9456C5.75269 41.3706 5.92149 41.7781 6.22196 42.0785C6.52243 42.379 6.92995 42.5478 7.35488 42.5478H8.02807C8.24053 42.5478 8.4443 42.4634 8.59453 42.3132C8.74477 42.163 8.82916 41.9592 8.82916 41.7467C8.82916 41.5343 8.74477 41.3305 8.59453 41.1803C8.4443 41.03 8.24053 40.9456 8.02807 40.9456H7.20005V38.2349C7.22529 38.1144 7.24105 37.9921 7.24717 37.8692C7.33693 36.9536 8.25247 36.2782 8.42301 36.1503C8.98084 35.7509 9.64884 35.5345 10.3349 35.5309C10.9149 35.5134 11.4876 35.6638 11.9842 35.964C12.8548 36.5183 13.4024 37.5999 13.5707 38.0868V40.9501H12.7337C12.6285 40.9501 12.5243 40.9708 12.4271 41.0111C12.3299 41.0514 12.2416 41.1104 12.1672 41.1848C12.0928 41.2591 12.0338 41.3475 11.9936 41.4446C11.9533 41.5418 11.9326 41.646 11.9326 41.7512C11.9326 41.8564 11.9533 41.9606 11.9936 42.0578C12.0338 42.155 12.0928 42.2433 12.1672 42.3177C12.2416 42.3921 12.3299 42.4511 12.4271 42.4913C12.5243 42.5316 12.6285 42.5523 12.7337 42.5523H13.4069C13.8318 42.5523 14.2393 42.3835 14.5398 42.083C14.8403 41.7826 15.0091 41.375 15.0091 40.9501V37.3373C15.0096 37.2905 15.0044 37.2437 14.9933 37.1982" fill="#4382C4"/>
<path d="M29.0518 42.5657C29.0518 43.1448 29.2818 43.7001 29.6913 44.1096C30.1007 44.519 30.6561 44.7491 31.2351 44.7491H43.8395C44.4174 44.7473 44.971 44.5165 45.379 44.1072C45.787 43.6979 46.0162 43.1436 46.0162 42.5657V32.396H29.0518V42.5657Z" fill="#EDF0F1"/>
<path d="M43.5837 26.858H31.4663C30.8252 26.8621 30.2118 27.1194 29.7596 27.5737C29.3073 28.0281 29.0529 28.6427 29.0518 29.2837V32.3961H46.0162V29.2837C46.0144 28.6398 45.7573 28.0228 45.3013 27.5681C44.8453 27.1134 44.2277 26.858 43.5837 26.858Z" fill="#F37C7B"/>
<path d="M33.6117 24.614C33.1951 24.614 32.7956 24.7795 32.501 25.0741C32.2064 25.3687 32.0409 25.7682 32.0409 26.1848V28.0563C32.0207 28.2739 32.0461 28.4933 32.1155 28.7005C32.1849 28.9077 32.2968 29.0982 32.444 29.2597C32.5912 29.4212 32.7705 29.5502 32.9704 29.6385C33.1703 29.7267 33.3864 29.7723 33.605 29.7723C33.8235 29.7723 34.0396 29.7267 34.2395 29.6385C34.4394 29.5502 34.6187 29.4212 34.7659 29.2597C34.9131 29.0982 35.025 28.9077 35.0944 28.7005C35.1638 28.4933 35.1892 28.2739 35.169 28.0563V26.1848C35.169 25.7682 35.0035 25.3687 34.7089 25.0741C34.4144 24.7795 34.0148 24.614 33.5982 24.614" fill="#00A79D"/>
<path d="M41.4633 24.614C41.0467 24.614 40.6471 24.7795 40.3525 25.0741C40.058 25.3687 39.8925 25.7682 39.8925 26.1848V28.0563C39.8723 28.2739 39.8977 28.4933 39.9671 28.7005C40.0365 28.9077 40.1484 29.0982 40.2956 29.2597C40.4428 29.4212 40.6221 29.5502 40.822 29.6385C41.0219 29.7267 41.238 29.7723 41.4565 29.7723C41.675 29.7723 41.8912 29.7267 42.0911 29.6385C42.291 29.5502 42.4702 29.4212 42.6175 29.2597C42.7647 29.0982 42.8765 28.9077 42.9459 28.7005C43.0154 28.4933 43.0408 28.2739 43.0206 28.0563V26.1848C43.0206 25.7682 42.8551 25.3687 42.5605 25.0741C42.2659 24.7795 41.8664 24.614 41.4498 24.614" fill="#00A79D"/>
<path d="M37.5289 35.5848H33.7276C33.5122 35.5848 33.3055 35.6704 33.1532 35.8227C33.0009 35.9751 32.9153 36.1817 32.9153 36.3971V38.6411H37.5311V35.5848H37.5289Z" fill="#D1D4D1"/>
<path d="M37.5292 41.7176H41.3305C41.5459 41.7176 41.7525 41.632 41.9049 41.4797C42.0572 41.3274 42.1428 41.1208 42.1428 40.9053V38.6613H37.5292V41.7266V41.7176Z" fill="#D1D4D1"/>
<path d="M41.3305 35.5848H37.5292V38.6501H42.1428V36.4061C42.1428 36.1907 42.0572 35.984 41.9049 35.8317C41.7525 35.6794 41.5459 35.5938 41.3305 35.5938" fill="#A5A5A4"/>
<path d="M32.9153 38.6524V40.8963C32.9153 41.1118 33.0009 41.3184 33.1532 41.4707C33.3055 41.6231 33.5122 41.7087 33.7276 41.7087H37.5289V38.6524H32.9153Z" fill="#A5A5A4"/>
</svg>
