<svg width="37" height="45" viewBox="0 0 37 45" fill="none" xmlns="http://www.w3.org/2000/svg">
<path d="M3.56215 27.2905V43.3192C3.56215 43.6069 3.44784 43.8829 3.24437 44.0864C3.0409 44.2898 2.76493 44.4041 2.47717 44.4041H3.39615C3.78925 44.4041 4.16626 44.248 4.44423 43.97C4.7222 43.692 4.87836 43.315 4.87836 42.9219V25.752C4.87823 26.1253 4.74411 26.4863 4.5004 26.7692C4.25669 27.0521 3.91955 27.2381 3.55029 27.2935" fill="#D83130"/>
<path d="M2.05619 0.0237114C1.66308 0.0237114 1.28608 0.179876 1.00811 0.457845C0.730137 0.735814 0.573975 1.11282 0.573975 1.50593C0.573975 1.10653 0.732635 0.723489 1.01505 0.441073C1.29747 0.158656 1.68051 0 2.0799 0" fill="#D83130"/>
<path d="M3.39603 0.0237122H3.33081C3.53558 0.0237122 3.73834 0.0640435 3.92753 0.142405C4.11671 0.220767 4.2886 0.335624 4.4334 0.480418C4.57819 0.625211 4.69304 0.79711 4.77141 0.986292C4.84977 1.17547 4.8901 1.37824 4.8901 1.583V1.51779C4.8901 1.12468 4.73394 0.747675 4.45597 0.469706C4.178 0.191737 3.80099 0.0355724 3.40789 0.0355724" fill="#D83130"/>
<path d="M3.33112 0.0237122H2.08606C2.48106 0.0291664 2.85804 0.189918 3.13543 0.47119C3.41281 0.752461 3.56831 1.13164 3.56827 1.52668V14.8666C3.57109 14.9189 3.57109 14.9714 3.56827 15.0237C3.571 15.0672 3.571 15.1107 3.56827 15.1542V27.2905C3.93753 27.2351 4.27466 27.0491 4.51838 26.7662C4.76209 26.4834 4.89621 26.1224 4.89634 25.749V1.583C4.89634 1.37824 4.85601 1.17547 4.77764 0.986292C4.69928 0.79711 4.58442 0.625211 4.43963 0.480418C4.29484 0.335624 4.12294 0.220767 3.93376 0.142405C3.74458 0.0640435 3.54182 0.0237122 3.33705 0.0237122" fill="#EE6161"/>
<path d="M0.553257 14.8726V15.169C0.550663 15.1256 0.550663 15.082 0.553257 15.0386C0.550607 14.9862 0.550607 14.9338 0.553257 14.8815" fill="#EE6161"/>
<path d="M3.56229 43.3191V15.1571C3.56487 15.1136 3.56487 15.0701 3.56229 15.0266C3.52202 15.3956 3.34695 15.7366 3.07067 15.9844C2.79439 16.2321 2.43636 16.3691 2.06526 16.3691C1.69415 16.3691 1.33612 16.2321 1.05984 15.9844C0.783558 15.7366 0.608491 15.3956 0.56822 15.0266C0.565639 15.0701 0.565639 15.1136 0.56822 15.1571V43.3191C0.56822 43.6069 0.68253 43.8829 0.886004 44.0863C1.08948 44.2898 1.36545 44.4041 1.6532 44.4041H2.4951C2.78285 44.4041 3.05882 44.2898 3.2623 44.0863C3.46577 43.8829 3.58008 43.6069 3.58008 43.3191" fill="#E84343"/>
<path d="M2.05627 16.3785C2.42532 16.3747 2.78016 16.2356 3.05341 15.9875C3.32665 15.7394 3.49927 15.3996 3.53848 15.0326C3.54115 14.9803 3.54115 14.9278 3.53848 14.8755V1.53556C3.53852 1.14052 3.38302 0.761342 3.10564 0.480071C2.82825 0.198799 2.45127 0.038047 2.05627 0.0325928C1.65687 0.0325928 1.27383 0.191258 0.991414 0.473674C0.708997 0.756091 0.550339 1.13913 0.550339 1.53853V14.8785C0.547673 14.9308 0.547673 14.9832 0.550339 15.0356C0.589553 15.4026 0.76217 15.7424 1.03541 15.9905C1.30866 16.2386 1.6635 16.3777 2.03255 16.3814" fill="#F37C7B"/>
<path d="M30.3397 1.84387H27.7073C28.0624 1.84778 28.4017 1.9916 28.6515 2.24413C28.9012 2.49666 29.0413 2.83751 29.0413 3.19268V4.63933C29.0413 4.9945 28.9012 5.33535 28.6515 5.58788C28.4017 5.84041 28.0624 5.98423 27.7073 5.98814H30.3397C30.6974 5.98814 31.0405 5.84604 31.2934 5.59309C31.5464 5.34013 31.6885 4.99705 31.6885 4.63933V3.19268C31.6885 2.83496 31.5464 2.49188 31.2934 2.23892C31.0405 1.98597 30.6974 1.84387 30.3397 1.84387Z" fill="#7498CF"/>
<path d="M29.0413 4.64226V3.19562C29.0414 2.84045 28.9013 2.49959 28.6515 2.24706C28.4018 1.99453 28.0625 1.8507 27.7073 1.8468H25.0601H24.0226C22.072 1.8468 21.8882 1.8468 21.6214 1.86755C20.8982 1.93314 20.1832 2.07017 19.487 2.27665C18.116 2.71066 16.8529 3.43113 15.7814 4.39029C14.7363 5.33817 13.8864 6.48112 13.2795 7.75491C12.9396 8.46668 12.6811 9.21448 12.5087 9.98416C12.5087 9.98416 12.1026 11.8014 12.5265 13.2984C12.5489 13.3752 12.5787 13.4497 12.6154 13.5207C12.7252 13.7043 12.8765 13.8597 13.0571 13.9743C13.5759 14.3033 16.1046 14.7184 16.4662 13.8201C16.5374 13.6452 16.4662 13.5711 16.4099 13.0672C16.3681 12.5219 16.379 11.9739 16.4425 11.4308C16.573 10.2006 17.4 8.70945 18.5354 7.64522C19.0911 7.08023 19.7627 6.64233 20.5038 6.36163C21.0967 6.14819 21.568 6.10965 22.6293 6.06519C23.3111 6.03554 24.1322 6.00589 25.072 5.98811H27.7192C28.0744 5.98421 28.4136 5.84038 28.6634 5.58785C28.9131 5.33532 29.0532 4.99447 29.0532 4.6393" fill="#8AA9D9"/>
<path d="M35.6433 17.751H33.0909C33.3182 17.751 33.5361 17.8413 33.6967 18.0019C33.8574 18.1626 33.9477 18.3805 33.9477 18.6077V20.1878C33.9477 20.415 33.8574 20.6329 33.6967 20.7936C33.5361 20.9542 33.3182 21.0445 33.0909 21.0445H35.6433C35.8705 21.0445 36.0884 20.9542 36.2491 20.7936C36.4098 20.6329 36.5 20.415 36.5 20.1878V18.6048C36.5 18.3775 36.4098 18.1596 36.2491 17.999C36.0884 17.8383 35.8705 17.748 35.6433 17.748" fill="#D83130"/>
<path d="M33.9475 20.1848V18.6048C33.9475 18.3775 33.8572 18.1596 33.6966 17.999C33.5359 17.8383 33.318 17.748 33.0908 17.748H26.7617V21.0386H33.0908C33.318 21.0386 33.5359 20.9483 33.6966 20.7876C33.8572 20.627 33.9475 20.4091 33.9475 20.1818" fill="#E84343"/>
<path d="M34.582 23.2026H32.0297C32.2569 23.2026 32.4748 23.2929 32.6355 23.4535C32.7961 23.6142 32.8864 23.8321 32.8864 24.0593V25.6305C32.8864 25.8577 32.7961 26.0756 32.6355 26.2362C32.4748 26.3969 32.2569 26.4872 32.0297 26.4872H34.582C34.8093 26.4872 35.0272 26.3969 35.1878 26.2362C35.3485 26.0756 35.4388 25.8577 35.4388 25.6305V24.0504C35.4388 23.8232 35.3485 23.6053 35.1878 23.4446C35.0272 23.284 34.8093 23.1937 34.582 23.1937" fill="#7498CF"/>
<path d="M32.8866 25.6304V24.0533C32.8866 23.8261 32.7963 23.6082 32.6357 23.4476C32.475 23.2869 32.2571 23.1966 32.0299 23.1966H25.7008V26.4871H32.0299C32.2571 26.4871 32.475 26.3969 32.6357 26.2362C32.7963 26.0755 32.8866 25.8576 32.8866 25.6304Z" fill="#8AA9D9"/>
<path d="M32.7201 31.6482C32.3466 27.8537 32.4445 28.3014 32.3644 27.8626C31.9133 25.1952 30.9031 22.6534 29.4 20.4041C27.9921 18.2271 26.1178 16.3903 23.9128 15.0267C22.1627 13.9712 20.2462 13.2204 18.2448 12.8063C16.9252 12.5475 15.5846 12.4096 14.2399 12.3942C13.4276 12.3942 10.3654 12.3794 9.67468 12.3616L10.9553 12.3942C12.2636 12.4114 13.5676 12.5494 14.8506 12.8063C17.0797 13.269 19.191 14.1814 21.0555 15.4877C22.92 16.7941 24.4985 18.467 25.6945 20.4041C27.1605 22.6645 28.1425 25.204 28.5788 27.8626C28.6559 28.2984 28.564 27.8626 28.9257 31.6482C29.2873 35.4338 29.4445 36.9101 28.9701 38.9526C28.8039 39.8187 28.443 40.6357 27.9148 41.3419C27.6035 41.7421 26.729 42.9605 25.4603 43.2036C26.3496 43.2036 27.2182 43.2213 28.6203 43.245H28.7241C30.2656 43.245 31.3269 41.7836 31.6885 41.3419C32.2329 40.6407 32.6074 39.8229 32.7824 38.9526C33.2715 36.913 33.1055 35.3952 32.7379 31.6482" fill="#EE6161"/>
<path d="M5.93064 12.2905L8.11839 15.584L7.40693 22.4022C7.39405 22.5246 7.36309 22.6445 7.31503 22.7579L6.4257 24.833C6.36413 24.9778 6.2756 25.1096 6.16483 25.2213L4.83677 26.5672C4.7277 26.6904 4.66953 26.8506 4.67402 27.0151C4.67852 27.1796 4.74534 27.3363 4.86097 27.4534C4.9766 27.5706 5.13241 27.6394 5.29687 27.646C5.46133 27.6527 5.62217 27.5966 5.74685 27.4891L6.52946 26.7332L7.07491 30.5128C7.08741 30.5995 7.11729 30.6827 7.16277 30.7574C7.20825 30.8322 7.26837 30.8971 7.33954 30.948C7.41071 30.999 7.49144 31.035 7.57689 31.0539C7.66234 31.0729 7.75073 31.0744 7.83677 31.0583H7.86938C8.0334 31.0278 8.17941 30.9354 8.27711 30.8002C8.3748 30.6649 8.41669 30.4973 8.39408 30.332L7.69744 25.2925C7.69136 25.2035 7.71201 25.1147 7.75673 25.0375L8.57195 23.1047C8.588 23.0678 8.59897 23.0289 8.60456 22.9891L9.30416 17.496L13.6856 24.0415L16.7389 26.3211L18.7251 31.7579C18.7813 31.9128 18.8968 32.039 19.046 32.1088C19.1953 32.1785 19.3662 32.1861 19.5211 32.1299C19.6759 32.0737 19.8022 31.9583 19.8719 31.809C19.9417 31.6597 19.9493 31.4889 19.8931 31.334L18.3368 26.9614L21.7874 27.7441C21.8699 27.763 21.9554 27.7648 22.0387 27.7494C22.122 27.734 22.2012 27.7017 22.2715 27.6544C22.3417 27.6072 22.4016 27.5461 22.4473 27.4748C22.4931 27.4035 22.5237 27.3237 22.5374 27.2401C22.5622 27.0868 22.5289 26.9297 22.4439 26.7997C22.3589 26.6697 22.2283 26.5762 22.0779 26.5375L18.1826 25.5504L16.7271 24.7411L14.8714 23.2203L13.653 21.6047L19.5818 21.9427C19.6667 21.9475 19.7517 21.9351 19.8317 21.9063C19.9116 21.8774 19.9849 21.8327 20.0472 21.7749C20.1095 21.717 20.1595 21.6472 20.1941 21.5696C20.2288 21.4919 20.2474 21.4081 20.2488 21.3231V21.2697C20.2514 21.1072 20.1912 20.95 20.0808 20.8307C19.9704 20.7114 19.8182 20.6393 19.6559 20.6294L17.4623 20.5435L19.2913 19.1324C19.417 19.029 19.4978 18.881 19.517 18.7194C19.5363 18.5578 19.4924 18.3951 19.3945 18.2651C19.2966 18.1351 19.1523 18.0479 18.9917 18.0217C18.8311 17.9955 18.6665 18.0323 18.5324 18.1245L15.568 20.3004L12.8022 20.2114L7.59665 12.3142H7.6678C7.31799 12.1986 5.57194 11.5938 4.97017 9.94266C4.84765 9.60487 4.78058 9.2495 4.77155 8.89029C4.56404 8.17586 4.45436 7.80234 4.401 7.62744C4.41631 7.6951 4.40902 7.76591 4.38024 7.82903C4.23499 8.12547 3.58874 8.00985 3.58281 8.00689C3.58281 9.32902 3.5591 10.5059 3.54724 11.5464C3.9729 11.8477 4.45319 12.0632 4.96127 12.1808C5.27761 12.257 5.60233 12.2929 5.92768 12.2875" fill="#EE6161"/>
<path d="M4.41015 7.63629C4.401 7.59146 4.38709 7.54774 4.36865 7.50586L4.41015 7.63629Z" fill="#EE6161"/>
<path d="M27.915 41.3419C28.4455 40.6363 28.8085 39.8192 28.9763 38.9526C29.4506 36.913 29.2905 35.3952 28.9318 31.6482C28.5731 27.9012 28.665 28.3014 28.585 27.8626C28.1489 25.204 27.1668 22.6645 25.7006 20.4041C24.5046 18.467 22.9261 16.7941 21.0616 15.4877C19.1971 14.1814 17.0858 13.269 14.8567 12.8063C13.5738 12.5494 12.2698 12.4114 10.9615 12.3942L9.68083 12.3616H9.34289L8.49803 12.3409L7.68874 12.3231H7.61759L12.7964 20.2114L15.5623 20.3004L18.5267 18.1245C18.6608 18.0323 18.8253 17.9955 18.9859 18.0217C19.1465 18.0479 19.2908 18.1351 19.3887 18.2651C19.4866 18.3951 19.5305 18.5578 19.5113 18.7194C19.4921 18.881 19.4112 19.029 19.2856 19.1324L17.4565 20.5435L19.6502 20.6294C19.8125 20.6393 19.9646 20.7114 20.0751 20.8307C20.1855 20.95 20.2457 21.1072 20.2431 21.2697V21.3231C20.2416 21.4081 20.223 21.4919 20.1884 21.5696C20.1537 21.6472 20.1038 21.717 20.0415 21.7749C19.9792 21.8327 19.9059 21.8774 19.8259 21.9063C19.7459 21.9351 19.661 21.9475 19.5761 21.9427L13.6472 21.6047L14.8656 23.2203L16.7243 24.7263L18.1858 25.5445L22.084 26.5197C22.2348 26.5578 22.3657 26.6512 22.4509 26.7813C22.536 26.9115 22.5691 27.0689 22.5435 27.2223C22.5298 27.3059 22.4992 27.3858 22.4535 27.457C22.4077 27.5283 22.3479 27.5894 22.2776 27.6367C22.2073 27.6839 22.1281 27.7162 22.0448 27.7316C21.9616 27.747 21.876 27.7452 21.7935 27.7263L18.3429 26.9437L19.9111 31.3369C19.9636 31.4837 19.9589 31.6448 19.8979 31.7882C19.8369 31.9316 19.7241 32.0467 19.582 32.1107C19.5046 32.1456 19.4207 32.1643 19.3357 32.1655C19.2507 32.1666 19.1664 32.1503 19.088 32.1175C19.0096 32.0847 18.9388 32.0361 18.8799 31.9747C18.8211 31.9134 18.7755 31.8406 18.7461 31.7609L16.7421 26.3211L13.6858 24.0415L9.30435 17.4901L8.60475 22.9832C8.59902 23.023 8.58805 23.0619 8.57214 23.0988L7.75692 25.0375C7.72626 25.1115 7.71603 25.1924 7.72728 25.2717L8.42392 30.3112C8.44653 30.4765 8.40464 30.6442 8.30694 30.7794C8.20924 30.9146 8.06324 31.0071 7.89922 31.0375H7.86661C7.78057 31.0536 7.69217 31.0521 7.60672 31.0332C7.52128 31.0142 7.44054 30.9782 7.36938 30.9273C7.29821 30.8763 7.23808 30.8115 7.19261 30.7367C7.14713 30.6619 7.11725 30.5787 7.10475 30.4921L6.55929 26.7124L5.77668 27.4684C5.65301 27.5822 5.49004 27.6435 5.32204 27.6396C5.15403 27.6357 4.99408 27.5668 4.87583 27.4474C4.75758 27.328 4.69023 27.1674 4.68796 26.9994C4.68569 26.8314 4.74866 26.669 4.86364 26.5464L6.1917 25.2006C6.30242 25.0888 6.39094 24.957 6.45257 24.8122L7.3419 22.7371C7.38996 22.6238 7.42093 22.5039 7.4338 22.3814L8.14526 15.5632L5.93083 12.2905C5.60548 12.2959 5.28077 12.26 4.96443 12.1838C4.45637 12.0661 3.97609 11.8506 3.5504 11.5494C3.29134 11.3632 3.06153 11.1394 2.86858 10.8854C2.50461 10.3676 2.24577 9.78342 2.10672 9.16598C2.09797 9.1188 2.08608 9.07226 2.07115 9.02665C1.81028 8.27072 0.588934 8.00986 0.588934 8.00986C0.508894 16.162 0.5 18.7203 0.5 18.7203C0.5 22.6897 0.5 27.0415 0.5 27.0415C0.84722 28.8525 1.35109 30.6299 2.00593 32.3537C2.80998 34.2182 3.95624 35.9154 5.38538 37.3577C6.88797 38.9928 8.66595 40.3513 10.6383 41.3715C12.325 42.2244 14.1393 42.7971 16.0099 43.0672C16.5287 43.1354 18.2451 43.1561 21.6749 43.2006C22.5968 43.2006 23.4743 43.2184 24.9358 43.245H25.0366C25.1779 43.2439 25.3187 43.2301 25.4575 43.2036C26.7293 42.9634 27.6008 41.7421 27.9121 41.3419" fill="#F37C7B"/>
</svg>
