<svg width="45" height="44" viewBox="0 0 45 44" fill="none" xmlns="http://www.w3.org/2000/svg">
<path d="M44.396 23.756C44.396 23.78 44.396 23.78 44.42 23.804C44.42 23.828 44.444 23.876 44.444 23.9C44.468 23.948 44.468 23.996 44.468 24.068C44.444 23.804 44.348 23.588 44.204 23.372C44.204 23.396 44.228 23.42 44.252 23.444C44.324 23.516 44.372 23.636 44.396 23.756Z" fill="#F47C7C"/>
<path d="M4.91597 40.34H42.644V25.604C41.18 26.036 39.308 26.228 39.164 26.228C38.612 26.276 33.668 26.756 31.844 26.108C31.676 26.06 31.028 25.796 30.26 25.964C30.116 25.988 29.828 26.06 29.54 26.276C29.012 26.684 28.844 27.284 28.796 27.572C28.58 28.484 28.844 29.228 28.988 29.78C29.42 31.436 29.156 32.996 28.94 33.716C28.82 34.148 28.1 36.548 25.82 37.316C25.556 37.412 24.02 37.892 22.532 37.076C20.684 36.044 20.348 33.716 20.252 33.044C20.012 31.412 20.588 31.028 20.3 28.628C20.108 27.116 19.796 26.492 19.268 26.18C18.764 25.892 18.212 25.988 17.732 26.06C17.732 26.06 14.684 26.54 11.924 26.396C11.636 26.372 11.348 26.348 11.348 26.348C10.7 26.276 10.22 26.204 10.076 26.18C8.65997 25.94 7.72397 25.964 6.21197 25.532C5.34797 25.292 5.03597 25.1 4.89197 24.788V40.484C4.89197 40.604 4.91597 40.724 4.91597 40.844C4.91597 40.796 4.91597 40.748 4.91597 40.676V40.34ZM41.348 31.964C41.708 31.964 41.972 32.252 41.972 32.588C41.972 32.948 41.684 33.212 41.348 33.212C41.012 33.212 40.724 32.924 40.724 32.588C40.724 32.228 41.012 31.964 41.348 31.964ZM37.148 36.524C37.508 36.524 37.796 36.812 37.796 37.172C37.796 37.532 37.508 37.82 37.148 37.82C36.788 37.82 36.5 37.532 36.5 37.172C36.5 36.812 36.788 36.524 37.148 36.524ZM34.892 34.292C35.324 34.292 35.684 34.652 35.684 35.084C35.684 35.516 35.324 35.876 34.892 35.876C34.46 35.876 34.1 35.516 34.1 35.084C34.1 34.628 34.46 34.292 34.892 34.292ZM12.188 30.572C12.644 30.572 13.004 30.932 13.004 31.388C13.004 31.844 12.644 32.204 12.188 32.204C11.732 32.204 11.372 31.844 11.372 31.388C11.372 30.932 11.732 30.572 12.188 30.572ZM9.90797 28.892C10.292 28.892 10.604 29.204 10.604 29.588C10.604 29.972 10.292 30.284 9.90797 30.284C9.52397 30.284 9.21197 29.972 9.21197 29.588C9.23597 29.204 9.52397 28.892 9.90797 28.892Z" fill="#F47C7C"/>
<path d="M16.5079 23.876C16.1719 23.948 15.8599 23.996 15.5959 24.02C15.9559 23.972 16.2439 23.924 16.5079 23.876Z" fill="#F47C7C"/>
<path d="M11.9239 24.092C11.5879 24.044 11.2519 23.972 10.9639 23.924C11.3239 23.996 11.6359 24.044 11.9239 24.092Z" fill="#F47C7C"/>
<path d="M44.42 24.62V40.34H44.492C44.492 40.316 44.492 40.292 44.492 40.268V24.452C44.492 24.5 44.468 24.548 44.444 24.596C44.42 24.596 44.42 24.62 44.42 24.62Z" fill="#F47C7C"/>
<path d="M36.38 24.044C36.428 24.044 36.452 24.044 36.5 24.044V21.188C36.5 20.9 36.26 20.636 35.948 20.636H35.78C35.492 20.636 35.228 20.876 35.228 21.188V24.044C35.612 24.068 35.972 24.068 36.38 24.044Z" fill="#64748B"/>
<path d="M13.0279 24.164C13.4119 24.188 13.7959 24.188 14.1319 24.164L14.3479 16.844L14.4199 16.58L15.1879 15.38L18.4999 11.108C18.6679 10.868 18.6439 10.556 18.4039 10.364C18.0679 10.1 17.5639 10.148 17.2999 10.508L13.4119 15.62C13.3399 15.692 13.2679 15.764 13.2199 15.86C13.1719 15.932 13.1479 16.004 13.0999 16.076C13.0279 16.244 13.0039 16.412 12.9799 16.58L11.8999 24.068C12.3799 24.14 12.7639 24.164 13.0279 24.164Z" fill="#64748B"/>
<path d="M42.8839 25.532C42.7639 25.556 42.7399 25.58 42.6679 25.604H42.6439V40.34H44.3959V24.644C44.3479 24.764 44.2759 24.836 44.2039 24.884C43.7959 25.244 42.9799 25.508 42.8839 25.532Z" fill="#D35151"/>
<path d="M44.4921 24.212C44.4921 24.284 44.4921 24.332 44.4921 24.404C44.4921 24.452 44.4681 24.524 44.4441 24.596C44.4681 24.548 44.4921 24.5 44.4921 24.452C44.4921 24.404 44.4921 24.308 44.4921 24.212Z" fill="#F3C5B3"/>
<path d="M44.396 23.756C44.372 23.636 44.3 23.54 44.252 23.42C44.3 23.492 44.348 23.612 44.396 23.756Z" fill="#F3C5B3"/>
<path d="M6.23591 25.532C7.74791 25.964 8.68391 25.94 10.0999 26.18C10.2439 26.204 10.7239 26.276 11.3719 26.348C11.3719 26.348 11.6599 26.396 11.9479 26.396C14.7079 26.54 17.7559 26.06 17.7559 26.06C18.2599 25.988 18.7879 25.892 19.2919 26.18C19.7959 26.492 20.1319 27.116 20.3239 28.628C20.6119 31.028 20.0599 31.412 20.2759 33.044C20.3719 33.716 20.7079 36.044 22.5559 37.076C24.0199 37.892 25.5799 37.388 25.8439 37.316C28.1239 36.572 28.8439 34.148 28.9639 33.716C29.1559 32.996 29.4199 31.436 29.0119 29.78C28.8679 29.204 28.6039 28.484 28.8199 27.572C28.8919 27.284 29.0359 26.66 29.5639 26.276C29.8519 26.06 30.1399 26.012 30.2839 25.964C31.0519 25.796 31.6999 26.036 31.8679 26.108C33.6919 26.756 38.6599 26.3 39.1879 26.228C39.3319 26.204 41.1799 26.036 42.6679 25.604H42.6919C42.7399 25.58 42.4759 23.444 42.2119 23.156C42.1639 23.108 42.0199 22.988 41.9239 22.988H41.8759C41.8759 22.988 41.8759 22.988 41.8999 22.988C40.4359 23.276 38.4199 23.9 36.5239 24.068C36.4759 24.068 36.4519 24.068 36.4039 24.068C35.9959 24.092 35.6359 24.092 35.2759 24.092C34.4599 24.068 33.7159 23.948 32.8999 23.828C30.8119 23.492 29.9959 23.012 27.6199 22.628C27.0439 22.532 26.5159 22.436 25.9879 22.388L26.8999 32.54C26.8999 32.612 26.9239 32.66 26.9239 32.732C26.9239 32.78 26.9239 32.828 26.9239 32.852C26.9239 34.172 25.9399 35.228 24.7159 35.228C24.3319 35.228 23.9479 35.108 23.6359 34.916C23.6359 34.916 23.6119 34.892 23.5639 34.868C23.5399 34.844 23.4919 34.82 23.4439 34.772C23.4199 34.748 23.4199 34.748 23.3959 34.724C23.3719 34.7 23.3239 34.676 23.2999 34.652L23.2759 34.628C23.0839 34.436 22.9159 34.196 22.7719 33.956C22.7719 33.932 22.7479 33.908 22.7479 33.908C22.7479 33.908 22.7479 33.908 22.7479 33.884C22.7239 33.812 22.6999 33.764 22.6759 33.692C22.6039 33.452 22.5319 33.188 22.5319 32.924C22.5079 32.684 22.5079 32.372 22.4839 32.012L22.6519 22.46C21.2839 22.724 19.9399 23.276 16.5559 23.924C16.2919 23.972 16.0039 24.02 15.6439 24.068C15.2119 24.14 14.7319 24.188 14.2039 24.212C13.8679 24.236 13.4839 24.236 13.0999 24.212C12.8359 24.212 12.4519 24.188 11.9719 24.116C11.6839 24.092 11.3719 24.02 11.0119 23.948C9.61991 23.66 8.68391 23.204 7.00391 22.916C6.81191 22.892 6.54791 22.844 6.23591 22.868C6.21191 22.868 6.18791 22.868 6.18791 22.868C6.13991 22.868 6.11591 22.868 6.06791 22.892C5.94791 22.916 5.82791 22.94 5.70791 23.012C5.70791 23.012 5.68391 23.012 5.68391 23.036C5.63591 23.06 5.56391 23.108 5.51591 23.132C5.27591 23.3 5.15591 23.516 5.10791 23.588C4.91591 23.924 4.79591 24.452 4.96391 24.812V24.836C5.03591 25.124 5.37191 25.292 6.23591 25.532Z" fill="#FDD7AD"/>
<path d="M42.668 40.844V40.364H4.91602V40.724C4.91602 40.772 4.91602 40.844 4.91602 40.892C4.98802 42.116 6.02002 43.076 7.24402 43.076H42.116C42.38 43.076 42.62 43.028 42.86 42.956H42.644V40.844H42.668Z" fill="#FDD7AD"/>
<path d="M42.6681 40.34V40.844V42.932H42.8841H42.9081C43.7721 42.932 44.4921 42.236 44.4921 41.348V40.7V40.34H44.4201H42.6681Z" fill="#F9C795"/>
<path d="M41.9239 22.964C41.9959 22.964 42.1639 23.084 42.2119 23.132C42.4759 23.42 42.7639 25.556 42.6919 25.58C42.7639 25.556 42.7879 25.556 42.9079 25.508C43.0039 25.484 43.8199 25.22 44.2279 24.86C44.2759 24.812 44.3719 24.74 44.4199 24.62C44.4199 24.62 44.4199 24.596 44.4439 24.596V24.572C44.4679 24.476 44.4919 24.404 44.4919 24.38C44.4919 24.308 44.4919 24.26 44.4919 24.188C44.4919 24.14 44.4919 24.068 44.4679 24.02C44.4679 23.972 44.4439 23.9 44.4439 23.852C44.4439 23.828 44.4199 23.78 44.4199 23.756C44.4199 23.732 44.4199 23.732 44.3959 23.708C44.3479 23.564 44.2999 23.468 44.2519 23.372C44.2279 23.348 44.2279 23.324 44.2039 23.3C44.2039 23.3 44.2039 23.276 44.1799 23.276C44.1559 23.252 44.1319 23.228 44.1319 23.228C44.0599 23.132 43.9159 22.964 43.6759 22.844C43.5559 22.772 43.4359 22.772 43.2679 22.748C43.2199 22.748 43.1719 22.748 43.0999 22.748C43.0759 22.748 43.0519 22.748 43.0279 22.748C42.4279 22.772 41.9719 22.916 41.9239 22.964C41.8999 22.94 41.8999 22.94 41.8999 22.94H41.8759C41.8519 22.964 41.8999 22.964 41.9239 22.964Z" fill="#F9C795"/>
<path d="M25.3641 12.596L23.8041 16.196C23.7081 16.46 23.6121 16.796 23.5401 17.18C23.4201 18.02 23.5641 18.596 23.5401 18.74L24.8601 32.516C24.8841 32.996 24.6681 33.644 24.4041 34.052C24.1641 34.412 23.7321 34.916 23.6121 34.868C23.9241 35.06 24.3081 35.18 24.6921 35.18C25.9161 35.18 26.9001 34.124 26.9001 32.804C26.9001 32.756 26.9001 32.708 26.9001 32.684C26.9001 32.612 26.9001 32.564 26.8761 32.492L25.9641 22.34L25.4841 17.132L25.5561 16.604L28.1001 11.396L29.4921 8.56399L28.8921 8.01199L28.4841 8.51599L24.3321 13.796L25.4121 12.452L25.3641 12.596Z" fill="#64748B"/>
<path d="M22.628 33.62C22.556 33.404 22.508 33.164 22.484 32.852C22.508 33.14 22.556 33.38 22.628 33.62Z" fill="#B97E73"/>
<path d="M23.348 34.676C23.324 34.652 23.276 34.628 23.252 34.604C23.3 34.628 23.324 34.652 23.348 34.676Z" fill="#B97E73"/>
<path d="M23.2281 34.58C22.9641 34.316 22.7961 34.004 22.7241 33.908C22.8681 34.148 23.0361 34.388 23.2281 34.58Z" fill="#B97E73"/>
<path d="M22.7239 33.836C22.6999 33.764 22.6759 33.692 22.6519 33.644C22.6519 33.692 22.6759 33.764 22.7239 33.836Z" fill="#B97E73"/>
<path d="M22.436 31.964C22.46 32.324 22.46 32.612 22.484 32.876C22.508 33.164 22.556 33.404 22.628 33.644C22.652 33.716 22.676 33.788 22.7 33.836C22.7 33.836 22.7 33.836 22.7 33.86C22.7 33.86 22.7 33.884 22.724 33.908C22.772 34.004 22.94 34.316 23.228 34.58L23.252 34.604C23.276 34.628 23.3 34.652 23.348 34.676C23.372 34.7 23.372 34.7 23.396 34.724C23.444 34.748 23.492 34.796 23.516 34.82C23.564 34.844 23.588 34.868 23.588 34.868C23.684 34.916 24.14 34.436 24.38 34.052C24.644 33.644 24.86 32.996 24.836 32.516L23.54 18.716C23.564 18.572 23.42 18.02 23.54 17.156C23.588 16.772 23.708 16.436 23.804 16.172L25.364 12.572L25.436 12.404L24.356 13.748L23.564 14.756C23.276 14.972 23.012 15.332 22.868 15.764C22.724 16.172 22.676 16.556 22.7 16.892L22.604 22.34L22.436 31.964Z" fill="#101010"/>
<path d="M9.90791 30.26C10.2919 30.26 10.6039 29.948 10.6039 29.564C10.6039 29.18 10.2919 28.868 9.90791 28.868C9.52391 28.868 9.21191 29.18 9.21191 29.564C9.23591 29.948 9.52391 30.26 9.90791 30.26Z" fill="#D35151"/>
<path d="M12.1881 32.204C12.6441 32.204 13.0041 31.844 13.0041 31.388C13.0041 30.932 12.6441 30.572 12.1881 30.572C11.7321 30.572 11.3721 30.932 11.3721 31.388C11.3721 31.844 11.7321 32.204 12.1881 32.204Z" fill="#D35151"/>
<path d="M34.8921 35.876C35.3295 35.876 35.6841 35.5214 35.6841 35.084C35.6841 34.6466 35.3295 34.292 34.8921 34.292C34.4547 34.292 34.1001 34.6466 34.1001 35.084C34.1001 35.5214 34.4547 35.876 34.8921 35.876Z" fill="#D35151"/>
<path d="M41.3481 33.212C41.7081 33.212 41.9721 32.924 41.9721 32.588C41.9721 32.228 41.6841 31.964 41.3481 31.964C41.0121 31.964 40.7241 32.252 40.7241 32.588C40.7241 32.948 41.0121 33.212 41.3481 33.212Z" fill="#D35151"/>
<path d="M37.148 37.844C37.508 37.844 37.796 37.556 37.796 37.196C37.796 36.836 37.508 36.548 37.148 36.548C36.788 36.548 36.5 36.836 36.5 37.196C36.5 37.556 36.788 37.844 37.148 37.844Z" fill="#D35151"/>
<path d="M29.516 8.53996L28.124 11.372C28.316 15.476 31.724 18.74 35.876 18.74C40.148 18.74 43.628 15.26 43.628 10.988C43.628 6.71596 40.148 3.23596 35.876 3.23596C32.468 3.23596 29.564 5.44396 28.532 8.51596L28.94 8.01196L29.516 8.53996ZM30.86 9.81196C30.86 9.45196 31.172 9.13996 31.532 9.13996H34.028V6.88396C34.028 6.35596 34.46 5.94796 34.964 5.94796H36.74C37.268 5.94796 37.676 6.37996 37.676 6.88396V9.13996H40.196C40.556 9.13996 40.868 9.45196 40.868 9.81196V12.212C40.868 12.572 40.556 12.884 40.196 12.884H37.676V15.212C37.676 15.74 37.244 16.148 36.74 16.148H34.964C34.436 16.148 34.028 15.716 34.028 15.212V12.884H31.532C31.172 12.884 30.86 12.572 30.86 12.212V9.81196Z" fill="#E9ECF5"/>
<path d="M31.532 12.884H34.028V15.212C34.028 15.74 34.46 16.148 34.964 16.148H36.74C37.268 16.148 37.676 15.716 37.676 15.212V12.884H40.196C40.556 12.884 40.868 12.572 40.868 12.212V9.81203C40.868 9.45203 40.556 9.14003 40.196 9.14003H37.676V6.88403C37.676 6.35603 37.244 5.94803 36.74 5.94803H34.964C34.436 5.94803 34.028 6.38003 34.028 6.88403V9.14003H31.532C31.172 9.14003 30.86 9.45203 30.86 9.81203V12.212C30.86 12.596 31.148 12.884 31.532 12.884Z" fill="#A6B3D7"/>
</svg>
