<svg width="39" height="37" viewBox="0 0 39 37" fill="none" xmlns="http://www.w3.org/2000/svg">
<path d="M34.0509 30.011C33.8287 30.3496 33.5245 30.6265 33.1665 30.8158C33.0328 30.8803 32.8874 30.9166 32.7391 30.9226C32.7043 30.9256 32.6693 30.9256 32.6345 30.9226L32.5618 30.909L32.514 30.8954H32.4959H32.4731C32.4383 30.8836 32.4041 30.8699 32.3708 30.8544L32.3481 30.8431L32.3185 30.8272C32.023 30.6504 31.7755 30.4037 31.5979 30.1088C31.4299 29.8801 31.2859 29.6348 31.1682 29.3767C31.0409 29.0835 30.9863 28.847 30.7408 28.6629C30.6399 28.5831 30.5186 28.5334 30.3907 28.5197C30.1931 28.5163 30.0021 28.5906 29.8587 28.7265C29.7105 28.8578 29.5952 29.0221 29.5223 29.2062C29.3589 29.5857 29.1546 29.9463 28.913 30.2815C28.7629 30.4702 28.3992 30.9295 27.9013 30.9295C27.679 30.9215 27.4653 30.8417 27.2921 30.7021C26.61 30.2156 26.3122 29.4427 26.1781 29.0698C25.8179 28.089 25.5277 27.084 25.3097 26.0621C25.0823 24.8527 24.955 24.232 24.9982 23.3909C24.9982 23.3341 24.9982 23.2795 24.9982 23.2227H24.8982C24.9755 24.0434 24.7868 24.9322 24.4571 26.4441C24.2662 27.2628 24.0325 28.071 23.7569 28.8652C23.6116 29.3574 23.3989 29.8271 23.1249 30.2611C22.9027 30.5996 22.5985 30.8764 22.2406 31.0659C22.1069 31.1303 21.9614 31.1666 21.8132 31.1727C21.7784 31.1755 21.7434 31.1755 21.7086 31.1727L21.6359 31.1591L21.5858 31.1477H21.5677H21.5449C21.5101 31.1359 21.476 31.1222 21.4426 31.1068L21.4199 31.0954L21.3903 31.0795C21.0948 30.9028 20.8473 30.6561 20.6697 30.3611C20.505 30.1372 20.3633 29.8973 20.2468 29.645C20.1195 29.3517 20.065 29.1153 19.8194 28.9311C19.7186 28.8513 19.5972 28.8017 19.4693 28.7879C19.2717 28.7846 19.0808 28.8589 18.9373 28.9948C18.789 29.126 18.6738 29.2904 18.6009 29.4745C18.4375 29.854 18.2332 30.2146 17.9916 30.5498C17.8416 30.7385 17.4756 31.1977 16.98 31.1977C16.7577 31.1897 16.5439 31.11 16.3707 30.9704C15.6887 30.4839 15.3931 29.7109 15.2567 29.3381C14.8964 28.3573 14.6062 27.3522 14.3883 26.3304C14.161 25.1209 14.0336 24.5003 14.0768 23.6592C14.0768 23.5205 14.0905 23.3818 14.1018 23.2454H14.0723C14.095 24.0024 13.9131 24.8572 13.6176 26.2213C13.4256 27.027 13.1918 27.8222 12.9174 28.6038C12.7719 29.0959 12.5592 29.5656 12.2854 29.9996C12.0633 30.3383 11.759 30.6151 11.4011 30.8044C11.2674 30.8688 11.1219 30.9052 10.9737 30.9113C10.9389 30.9142 10.9039 30.9142 10.8691 30.9113L10.7963 30.8976L10.7486 30.884H10.7304H10.7077C10.6729 30.8722 10.6387 30.8586 10.6054 30.8431L10.5826 30.8317L10.5531 30.8158C10.2576 30.6391 10.0101 30.3924 9.83242 30.0974C9.66775 29.8735 9.52607 29.6336 9.40956 29.3813C9.28225 29.088 9.22768 28.8516 8.98216 28.6674C8.8813 28.5876 8.75993 28.538 8.63206 28.5242C8.43449 28.5209 8.2435 28.5952 8.1001 28.7311C7.95173 28.8623 7.83643 29.0266 7.76362 29.2108C7.60023 29.5903 7.39593 29.9509 7.15436 30.2861C7.00431 30.4748 6.64057 30.934 6.14269 30.934C5.92038 30.926 5.70663 30.8463 5.53343 30.7067C4.85141 30.2202 4.5536 29.4472 4.41947 29.0744C4.05929 28.0936 3.76908 27.0885 3.55104 26.0667C3.3237 24.8572 3.19639 24.2366 3.23958 23.3954C3.23958 23.3454 3.23958 23.2954 3.23958 23.2477C2.35065 23.3409 1.52771 23.76 0.929504 24.4241C0.331294 25.0883 0.00017772 25.9504 0 26.8442V34.5146C0 34.7212 0.0406871 34.9258 0.119747 35.1166C0.198807 35.3075 0.314686 35.4809 0.46077 35.627C0.606854 35.7731 0.780277 35.889 0.971145 35.968C1.16201 36.0471 1.36659 36.0878 1.57318 36.0878H34.6829V28.6151C34.5374 29.1073 34.3247 29.577 34.0509 30.011Z" fill="#F37C7B"/>
<path d="M35.8399 23.2385C35.8581 23.9887 35.6785 24.8435 35.3852 26.1939C35.1933 27.0089 34.9588 27.8133 34.6827 28.6037V36.0809H37.6563C38.0121 36.0809 38.3532 35.9396 38.6048 35.688C38.8563 35.4365 38.9976 35.0953 38.9976 34.7396V26.7577C38.9976 25.8853 38.6752 25.0436 38.0924 24.3944C37.5095 23.7453 36.7073 23.3344 35.8399 23.2408" fill="#EE6161"/>
<path d="M33.3398 19.8079C33.5116 19.8461 33.6803 19.897 33.8445 19.9602C33.681 19.895 33.5121 19.8441 33.3398 19.8079Z" fill="#F7F6F7"/>
<path d="M25.3097 26.0576C25.528 27.0771 25.8182 28.0799 26.1781 29.0585C26.3145 29.4336 26.6078 30.1952 27.2921 30.6908C27.4653 30.8304 27.679 30.9101 27.9013 30.9181C28.3969 30.9181 28.7629 30.4634 28.913 30.2702C29.1546 29.935 29.3589 29.5744 29.5223 29.1949C29.5951 29.0107 29.7103 28.8463 29.8587 28.7152C30.0021 28.5792 30.1931 28.505 30.3907 28.5083C30.5186 28.5221 30.6399 28.5717 30.7408 28.6515C30.9863 28.8334 31.0409 29.0721 31.1682 29.3654C31.2847 29.6177 31.4264 29.8576 31.591 30.0815C31.5524 30.0201 31.5319 29.9815 31.5319 29.9815L31.6092 29.7996C32.5436 27.6194 32.7959 26.901 32.7959 26.901C33.1304 25.9344 33.3591 24.9343 33.4779 23.9183C33.6394 22.6884 33.578 22.0655 33.4916 21.6108C33.2779 20.4923 32.8096 19.8626 32.4663 19.7921C32.4204 19.7873 32.3757 19.7742 32.3344 19.7535C31.8455 19.8064 31.3719 19.9555 30.9408 20.1922C30.7228 20.3697 30.4569 20.4781 30.177 20.5037C29.9928 20.5037 29.8519 20.4514 29.3858 20.2309C28.6697 19.8899 28.6902 19.8649 28.5174 19.8035C28.0153 19.6603 27.4788 19.6973 27.0011 19.9081C26.424 20.1344 25.9337 20.5379 25.6007 21.0607C25.1187 21.7722 25.0414 22.4884 25.0005 23.2136C25.0005 23.2697 25.0005 23.3257 25.0005 23.3818C24.9573 24.223 25.0755 24.8436 25.3119 26.053" fill="#F7F6F7"/>
<path d="M34.0503 30.011C34.3242 29.577 34.5369 29.1073 34.6823 28.6151C34.5202 29.1009 34.3084 29.5687 34.0503 30.011Z" fill="#F7F6F7"/>
<path d="M32.6348 30.9204C32.6696 30.9234 32.7045 30.9234 32.7393 30.9204C32.6798 30.9219 32.6203 30.9165 32.562 30.9045L32.6348 30.9159" fill="#F7F6F7"/>
<path d="M32.803 19.7373H32.7803C32.8689 19.7373 32.9599 19.7373 33.0485 19.7533C32.969 19.7533 32.8871 19.7373 32.8053 19.7373" fill="#F7F6F7"/>
<path d="M32.4663 19.8056C32.8073 19.8761 33.2756 20.5058 33.4893 21.6243C33.5757 22.079 33.6394 22.7019 33.4757 23.9318C33.3568 24.9477 33.1281 25.9478 32.7937 26.9145C32.7937 26.9145 32.5413 27.6329 31.607 29.8108L31.5297 29.9927C31.5297 29.9927 31.5501 30.0313 31.5888 30.0927C31.7664 30.3876 32.0139 30.6344 32.3094 30.8111L32.339 30.827L32.3617 30.8384C32.3951 30.8538 32.4292 30.8675 32.464 30.8793H32.4868H32.5049L32.5527 30.8929C32.611 30.9048 32.6705 30.9102 32.73 30.9088C32.8783 30.9028 33.0237 30.8664 33.1574 30.802C33.5153 30.6126 33.8196 30.3358 34.0418 29.9972C34.3 29.5549 34.5118 29.0872 34.6738 28.6013C34.9494 27.8079 35.1832 27.0005 35.374 26.1825C35.6672 24.8321 35.8491 23.9795 35.8286 23.227C35.8231 22.9846 35.7942 22.7432 35.7422 22.5064C35.6104 21.9062 35.374 20.9468 34.5374 20.3285C34.3211 20.1713 34.0848 20.0436 33.8349 19.9488C33.6707 19.8856 33.502 19.8347 33.3302 19.7965L33.2506 19.7806L33.1642 19.7647H33.1529H33.1165H33.0392C32.9528 19.7647 32.8596 19.751 32.7709 19.7487C32.6191 19.7321 32.4656 19.7398 32.3162 19.7715C32.3575 19.7921 32.4022 19.8052 32.4481 19.8101" fill="#E1E1E1"/>
<path d="M22.4224 20.0536C22.5941 20.0918 22.7628 20.1427 22.927 20.2059C22.7635 20.1407 22.5947 20.0897 22.4224 20.0536Z" fill="#F7F6F7"/>
<path d="M14.3931 26.3029C14.6089 27.3253 14.8968 28.3311 15.2548 29.3128C15.3912 29.6879 15.6844 30.4495 16.3687 30.9451C16.5419 31.0847 16.7557 31.1645 16.978 31.1725C17.4736 31.1725 17.8396 30.7178 17.9896 30.5246C18.2312 30.1893 18.4355 29.8288 18.5989 29.4492C18.6717 29.2651 18.787 29.1007 18.9354 28.9695C19.0788 28.8336 19.2698 28.7593 19.4674 28.7627C19.5952 28.7765 19.7166 28.8261 19.8174 28.9059C20.063 29.0878 20.1175 29.3265 20.2448 29.6197C20.3613 29.8721 20.503 30.112 20.6677 30.3359C20.629 30.2745 20.6086 30.2358 20.6086 30.2358L20.6859 30.054C21.6202 27.8738 21.8726 27.1554 21.8726 27.1554C22.2071 26.1887 22.4358 25.1887 22.5546 24.1727C22.716 22.9428 22.6546 22.3199 22.5682 21.8652C22.3545 20.7467 21.8862 20.117 21.5429 20.0465C21.497 20.0417 21.4524 20.0286 21.4111 20.0078C20.9259 20.0591 20.4555 20.2051 20.0266 20.4375C19.8086 20.6149 19.5427 20.7234 19.2627 20.749C19.0786 20.749 18.9376 20.6967 18.4716 20.4762C17.7555 20.1352 17.7759 20.1101 17.6032 20.0488C17.101 19.9056 16.5646 19.9426 16.0868 20.1533C15.5098 20.3796 15.0194 20.7832 14.6864 21.3059C14.3199 21.875 14.1177 22.5343 14.1021 23.2111C14.1021 23.3497 14.084 23.4861 14.0771 23.6248C14.0339 24.466 14.1522 25.0866 14.3886 26.296" fill="#F7F6F7"/>
<path d="M23.7685 28.8606C23.6065 29.3464 23.3947 29.8142 23.1365 30.2564C23.4104 29.8224 23.6231 29.3527 23.7685 28.8606Z" fill="#F7F6F7"/>
<path d="M21.7173 31.1657C21.7521 31.1687 21.7871 31.1687 21.8219 31.1657C21.7623 31.1672 21.7028 31.1619 21.6445 31.1498L21.7173 31.1612" fill="#F7F6F7"/>
<path d="M21.8881 19.9897H21.8654C21.954 19.9897 22.045 19.9897 22.1336 20.0056C22.054 20.0056 21.9722 19.9897 21.8904 19.9897" fill="#F7F6F7"/>
<path d="M21.5499 20.0511C21.8909 20.1216 22.3592 20.7513 22.5729 21.8698C22.6593 22.3245 22.723 22.9474 22.5593 24.1773C22.4404 25.1933 22.2117 26.1934 21.8773 27.16C21.8773 27.16 21.6249 27.8784 20.6906 30.0563L20.6133 30.2382C20.6133 30.2382 20.6337 30.2768 20.6724 30.3382C20.85 30.6332 21.0975 30.8799 21.3931 31.0566L21.4226 31.0725L21.4453 31.0839C21.4787 31.0994 21.5128 31.113 21.5476 31.1248H21.5704H21.5886L21.6363 31.1385C21.6946 31.1504 21.7541 31.1557 21.8136 31.1544C21.9619 31.1483 22.1073 31.1119 22.241 31.0475C22.599 30.8581 22.9032 30.5813 23.1254 30.2427C23.3835 29.8004 23.5953 29.3327 23.7574 28.8469C24.0331 28.0534 24.2668 27.246 24.4576 26.428C24.7872 24.9162 24.9736 24.0273 24.8986 23.2066C24.8845 23.0537 24.8609 22.9019 24.8281 22.7519C24.6963 22.1517 24.4599 21.1924 23.6232 20.574C23.407 20.4169 23.1707 20.2892 22.9208 20.1944C22.7566 20.1311 22.5879 20.0802 22.4161 20.042L22.3365 20.0261L22.2501 20.0102H22.2387H22.2024H22.1251C22.0387 20.0102 21.9455 19.9966 21.8568 19.9943C21.705 19.9776 21.5515 19.9853 21.4021 20.017C21.4434 20.0378 21.4881 20.0509 21.534 20.0557" fill="#E1E1E1"/>
<path d="M11.574 19.808C11.7435 19.848 11.9099 19.9005 12.0718 19.9649C11.9083 19.8997 11.7394 19.8487 11.5671 19.8126" fill="#F7F6F7"/>
<path d="M3.54214 26.0575C3.76124 27.0771 4.05221 28.0799 4.41285 29.0584C4.54926 29.4335 4.84253 30.1951 5.52682 30.6907C5.70003 30.8303 5.91378 30.9101 6.13609 30.918C6.63169 30.918 6.99771 30.4634 7.14775 30.2701C7.38932 29.9349 7.59362 29.5743 7.75702 29.1948C7.82983 29.0106 7.94511 28.8463 8.09347 28.7151C8.23688 28.5792 8.42789 28.5049 8.62545 28.5082C8.75333 28.522 8.87469 28.5717 8.97555 28.6515C9.22108 28.8333 9.27564 29.072 9.40295 29.3653C9.51945 29.6176 9.66112 29.8576 9.8258 30.0814C9.78715 30.0201 9.76669 29.9814 9.76669 29.9814L9.84399 29.7995C10.7784 27.6194 11.0307 26.901 11.0307 26.901C11.3652 25.9343 11.5939 24.9342 11.7127 23.9183C11.8741 22.6884 11.8127 22.0655 11.7263 21.6108C11.5127 20.4923 11.0443 19.8625 10.701 19.7921C10.6551 19.7873 10.6105 19.7742 10.5692 19.7534C10.084 19.8047 9.61364 19.9507 9.1847 20.1831C8.96669 20.3605 8.70076 20.4689 8.42084 20.4945C8.2367 20.4945 8.09575 20.4423 7.62971 20.2217C6.91359 19.8807 6.93405 19.8557 6.76127 19.7943C6.25911 19.6511 5.72266 19.6881 5.24491 19.8989C4.66788 20.1252 4.17755 20.5288 3.84451 21.0515C3.358 21.7699 3.28297 22.4906 3.24205 23.2226V23.3727C3.19886 24.2138 3.31709 24.8344 3.55352 26.0439" fill="#F7F6F7"/>
<path d="M12.9169 28.6037C12.7549 29.0895 12.5432 29.5573 12.2849 29.9995C12.5588 29.5656 12.7715 29.0958 12.9169 28.6037Z" fill="#F7F6F7"/>
<path d="M10.8694 30.9204C10.9042 30.9234 10.9392 30.9234 10.9739 30.9204C10.9144 30.9219 10.8549 30.9165 10.7966 30.9045L10.8694 30.9159" fill="#F7F6F7"/>
<path d="M11.0376 19.7373H11.0149C11.1036 19.7373 11.1945 19.7373 11.2832 19.7533C11.2036 19.7533 11.1218 19.7373 11.0399 19.7373" fill="#F7F6F7"/>
<path d="M10.7079 19.8057C11.0489 19.8762 11.5172 20.5059 11.7309 21.6244C11.8173 22.0791 11.8809 22.702 11.7173 23.9319C11.5984 24.9479 11.3697 25.9479 11.0352 26.9146C11.0352 26.9146 10.7829 27.633 9.84853 29.8109L9.77124 29.9928C9.77124 29.9928 9.7917 30.0314 9.83035 30.0928C10.008 30.3877 10.2555 30.6345 10.551 30.8112L10.5806 30.8271L10.6033 30.8385C10.6366 30.8539 10.6708 30.8676 10.7056 30.8794H10.7283H10.7465L10.7943 30.893C10.8526 30.9049 10.9121 30.9103 10.9716 30.9089C11.1199 30.9029 11.2653 30.8665 11.399 30.8021C11.7569 30.6127 12.0611 30.3359 12.2833 29.9973C12.5415 29.555 12.7533 29.0872 12.9153 28.6014C13.191 27.808 13.4247 27.0006 13.6155 26.1826C13.9134 24.8185 14.093 23.9637 14.0702 23.2067C14.0634 22.9711 14.0345 22.7367 13.9838 22.5065C13.852 21.9063 13.6155 20.9469 12.7789 20.3286C12.5604 20.1766 12.3226 20.0543 12.0719 19.9648C11.9077 19.9016 11.739 19.8507 11.5672 19.8125L11.4876 19.7966L11.4013 19.7807H11.3899H11.3535H11.2762C11.1898 19.7807 11.0966 19.767 11.008 19.7648C10.8562 19.7481 10.7027 19.7558 10.5533 19.7875C10.5946 19.8082 10.6392 19.8213 10.6851 19.8262" fill="#E1E1E1"/>
<path d="M34.0509 6.58132C33.8287 6.2427 33.5245 5.96584 33.1665 5.77654C33.0328 5.71205 32.8874 5.67569 32.7391 5.66969C32.7043 5.66674 32.6693 5.66674 32.6345 5.66969L32.5618 5.68333L32.514 5.69697H32.4959H32.4731C32.4383 5.70875 32.4041 5.72241 32.3708 5.7379L32.3481 5.74926L32.3185 5.76518C32.023 5.94188 31.7755 6.1886 31.5979 6.48357C31.4332 6.70745 31.2915 6.94737 31.175 7.19969C31.0477 7.49295 30.9931 7.72938 30.7476 7.91353C30.6468 7.99332 30.5254 8.04298 30.3975 8.05675C30.1999 8.06009 30.009 7.98581 29.8655 7.84987C29.7173 7.71859 29.602 7.55427 29.5291 7.37019C29.3657 6.99067 29.1614 6.6301 28.9198 6.29487C28.7698 6.10618 28.406 5.64696 27.9081 5.64696C27.6858 5.65494 27.4721 5.7347 27.2989 5.87429C26.6169 6.3608 26.3191 7.13376 26.1849 7.50659C25.8247 8.48738 25.5345 9.49246 25.3165 10.5143C25.0891 11.7237 24.9618 12.3444 25.005 13.1855C25.005 13.2416 25.005 13.2977 25.005 13.3538H24.905C24.9823 12.5331 24.7936 11.6442 24.464 10.1324C24.273 9.31362 24.0393 8.50546 23.7638 7.7112C23.6183 7.21907 23.4056 6.74935 23.1318 6.31533C22.9095 5.97684 22.6053 5.70002 22.2474 5.51056C22.1137 5.44613 21.9683 5.40977 21.82 5.40371C21.7852 5.40087 21.7502 5.40087 21.7154 5.40371L21.6427 5.41735L21.5927 5.42871H21.5745H21.5518C21.5169 5.44053 21.4828 5.45419 21.4494 5.46963L21.4267 5.481L21.3972 5.49691C21.1016 5.67362 20.8541 5.92034 20.6765 6.2153C20.5117 6.43912 20.37 6.67905 20.2536 6.93143C20.1263 7.22469 20.0718 7.46112 19.8262 7.64527C19.7254 7.72506 19.604 7.77472 19.4761 7.78849C19.2786 7.79183 19.0876 7.71755 18.9442 7.58161C18.7959 7.45039 18.6806 7.28605 18.6077 7.10193C18.4443 6.72241 18.24 6.36184 17.9984 6.02661C17.8484 5.83792 17.4824 5.3787 16.9868 5.3787C16.7645 5.38668 16.5507 5.46644 16.3775 5.60604C15.6955 6.09254 15.3999 6.86549 15.2635 7.23833C14.9032 8.21907 14.613 9.22417 14.3951 10.246C14.1678 11.4555 14.0405 12.0761 14.0836 12.9173C14.0836 13.0559 14.0973 13.1946 14.1087 13.331H14.0723C14.095 12.574 13.9131 11.7192 13.6176 10.3552C13.4269 9.53637 13.1931 8.7282 12.9174 7.93399C12.7719 7.44186 12.5592 6.97215 12.2854 6.53813C12.0633 6.19951 11.759 5.92264 11.4011 5.73335C11.2674 5.66892 11.1219 5.63256 10.9737 5.6265C10.9389 5.62354 10.9039 5.62354 10.8691 5.6265L10.7963 5.64014L10.7486 5.65377H10.7304H10.7077C10.6729 5.66555 10.6387 5.67922 10.6054 5.6947L10.5826 5.70607L10.5531 5.72198C10.2576 5.89869 10.0101 6.14541 9.83242 6.44037C9.66775 6.66426 9.52607 6.90417 9.40956 7.15649C9.28225 7.44976 9.22768 7.68619 8.98216 7.87033C8.8813 7.95013 8.75993 7.99978 8.63206 8.01356C8.43449 8.01689 8.2435 7.94261 8.1001 7.80668C7.95173 7.67551 7.83643 7.51116 7.76362 7.32699C7.60023 6.94747 7.39593 6.5869 7.15436 6.25168C7.00431 6.06299 6.64057 5.60376 6.14269 5.60376C5.92038 5.61175 5.70663 5.6915 5.53343 5.8311C4.85141 6.31761 4.5536 7.09056 4.41947 7.4634C4.05929 8.44419 3.76908 9.44927 3.55104 10.4711C3.3237 11.6805 3.19639 12.3012 3.23958 13.1423C3.23958 13.1923 3.23958 13.2424 3.23958 13.2901C2.36145 13.1981 1.54729 12.7881 0.950554 12.1374C0.353819 11.4866 0.015729 10.64 0 9.75725V2.07318C0 1.65595 0.16574 1.25581 0.46077 0.960777C0.7558 0.665747 1.15595 0.5 1.57318 0.5H34.6829V7.97718C34.5374 7.48503 34.3247 7.01531 34.0509 6.58132Z" fill="#F37C7B"/>
<path d="M35.8402 13.3538C35.8584 12.6035 35.6788 11.7487 35.3855 10.3983C35.1947 9.57958 34.961 8.77141 34.6853 7.97718V0.5H37.6589C38.0146 0.5 38.3558 0.641312 38.6073 0.892855C38.8589 1.1444 39.0002 1.48556 39.0002 1.8413V9.83682C39.0002 10.7093 38.6778 11.5509 38.0949 12.2001C37.5121 12.8492 36.7099 13.2601 35.8425 13.3538" fill="#EE6161"/>
<path d="M33.3398 16.7821C33.5116 16.7439 33.6803 16.693 33.8445 16.6298C33.681 16.695 33.5121 16.7459 33.3398 16.7821Z" fill="#F7F6F7"/>
<path d="M25.3101 10.5348C25.5281 9.513 25.8183 8.50792 26.1785 7.52713C26.3149 7.15202 26.6082 6.39043 27.2925 5.89256C27.4657 5.75297 27.6794 5.67321 27.9018 5.66522C28.3974 5.66522 28.7634 6.1199 28.9134 6.31314C29.155 6.64837 29.3593 7.00893 29.5227 7.38845C29.5955 7.57261 29.7108 7.73698 29.8591 7.86814C30.0026 8.00408 30.1936 8.07835 30.3911 8.07502C30.519 8.06124 30.6404 8.01159 30.7412 7.93179C30.9867 7.74992 31.0413 7.51121 31.1686 7.21795C31.2851 6.96562 31.4268 6.7257 31.5915 6.50183C31.5528 6.56321 31.5324 6.60186 31.5324 6.60186L31.6097 6.78373C32.544 8.96391 32.7964 9.6823 32.7964 9.6823C33.1309 10.649 33.3595 11.649 33.4784 12.665C33.6398 13.8949 33.5784 14.5178 33.492 14.9725C33.2783 16.091 32.81 16.7207 32.4667 16.7912C32.4208 16.7959 32.3761 16.809 32.3349 16.8298C31.8497 16.7786 31.3793 16.6326 30.9504 16.4002C30.7324 16.2227 30.4664 16.1143 30.1865 16.0887C30.0024 16.0887 29.8614 16.141 29.3954 16.3615C28.6793 16.7025 28.6997 16.7275 28.5269 16.7889C28.0248 16.9321 27.4883 16.8951 27.0106 16.6844C26.4336 16.458 25.9432 16.0545 25.6102 15.5317C25.1282 14.8202 25.0509 14.104 25.01 13.3788C25.01 13.3228 25.01 13.2667 25.01 13.2106C24.9668 12.3695 25.085 11.7488 25.3215 10.5394" fill="#F7F6F7"/>
<path d="M34.0503 6.5813C34.3242 7.01529 34.5369 7.48501 34.6823 7.97716C34.5202 7.49138 34.3084 7.02362 34.0503 6.5813Z" fill="#F7F6F7"/>
<path d="M32.6348 5.67202C32.6696 5.66906 32.7045 5.66906 32.7393 5.67202C32.6798 5.67056 32.6203 5.6759 32.562 5.68794L32.6348 5.6743" fill="#F7F6F7"/>
<path d="M32.803 16.848H32.7803C32.8689 16.848 32.9599 16.848 33.0485 16.8321C32.969 16.8321 32.8871 16.848 32.8053 16.848" fill="#F7F6F7"/>
<path d="M32.4663 16.7821C32.8073 16.7116 33.2756 16.0819 33.4893 14.9634C33.5757 14.5087 33.6394 13.8858 33.4757 12.6559C33.3568 11.64 33.1281 10.6399 32.7937 9.67323C32.7937 9.67323 32.5413 8.95484 31.607 6.77465L31.5297 6.59278C31.5297 6.59278 31.5501 6.55413 31.5888 6.49275C31.7664 6.19778 32.0139 5.95107 32.3094 5.77436L32.339 5.75845L32.3617 5.74708C32.3951 5.73159 32.4292 5.71793 32.464 5.70616H32.4868H32.5049L32.5527 5.69479C32.611 5.68289 32.6705 5.67755 32.73 5.67888C32.8783 5.68494 33.0237 5.7213 33.1574 5.78573C33.5153 5.97511 33.8196 6.25196 34.0418 6.59051C34.3 7.03276 34.5118 7.50054 34.6738 7.98637C34.9494 8.77982 35.1832 9.58724 35.374 10.4053C35.6672 11.7557 35.8491 12.6082 35.8286 13.3607C35.8231 13.6031 35.7942 13.8445 35.7422 14.0813C35.6104 14.6815 35.374 15.6409 34.5374 16.2592C34.3211 16.4164 34.0848 16.5441 33.8349 16.6389C33.6707 16.7021 33.502 16.7531 33.3302 16.7912L33.2506 16.8071L33.1642 16.823H33.1529H33.1165H33.0392C32.9528 16.823 32.8596 16.8367 32.7709 16.839C32.6191 16.8556 32.4656 16.848 32.3162 16.8162C32.3575 16.7954 32.4022 16.7823 32.4481 16.7776" fill="#E1E1E1"/>
<path d="M22.4224 16.5387C22.5941 16.5005 22.7628 16.4496 22.927 16.3864C22.7635 16.4516 22.5947 16.5026 22.4224 16.5387Z" fill="#F7F6F7"/>
<path d="M14.3926 10.2871C14.6084 9.26543 14.8963 8.26035 15.2542 7.27939C15.3906 6.90428 15.6839 6.14269 16.3682 5.64482C16.5414 5.50522 16.7551 5.42547 16.9775 5.41748C17.473 5.41748 17.8391 5.87215 17.9891 6.06539C18.2307 6.40062 18.435 6.76119 18.5984 7.14071C18.6712 7.32487 18.7865 7.48923 18.9348 7.6204C19.0782 7.75633 19.2692 7.8306 19.4668 7.82727C19.5947 7.81349 19.7161 7.76385 19.8169 7.68405C20.0624 7.50218 20.117 7.26347 20.2443 6.9702C20.3608 6.71788 20.5025 6.47796 20.6672 6.25409C20.6285 6.31547 20.608 6.35412 20.608 6.35412L20.6854 6.53599C21.6197 8.71617 21.8721 9.43456 21.8721 9.43456C22.2066 10.4012 22.4352 11.4013 22.5541 12.4172C22.7155 13.6472 22.6541 14.2701 22.5677 14.7247C22.354 15.8433 21.8857 16.473 21.5424 16.5435C21.4965 16.5482 21.4518 16.5613 21.4106 16.5821C20.9254 16.5308 20.455 16.3849 20.0261 16.1524C19.8081 15.975 19.5421 15.8666 19.2622 15.841C19.0781 15.841 18.9371 15.8933 18.4711 16.1138C17.755 16.4548 17.7754 16.4798 17.6026 16.5412C17.1005 16.6844 16.564 16.6474 16.0863 16.4366C15.5092 16.2103 15.0189 15.8067 14.6859 15.284C14.3237 14.7113 14.127 14.0496 14.1175 13.3721C14.1175 13.2334 14.0993 13.097 14.0925 12.9583C14.0493 12.1172 14.1675 11.4965 14.404 10.2871" fill="#F7F6F7"/>
<path d="M23.7685 7.73171C23.6065 7.24587 23.3947 6.77809 23.1365 6.33585C23.4104 6.76982 23.6231 7.23955 23.7685 7.73171Z" fill="#F7F6F7"/>
<path d="M21.7173 5.41513C21.7521 5.41216 21.7871 5.41216 21.8219 5.41513C21.7623 5.41366 21.7028 5.419 21.6445 5.43104L21.7173 5.4174" fill="#F7F6F7"/>
<path d="M21.8881 16.6025H21.8654C21.954 16.6025 22.045 16.6025 22.1336 16.5865C22.054 16.5865 21.9722 16.6025 21.8904 16.6025" fill="#F7F6F7"/>
<path d="M21.5499 16.5412C21.8909 16.4707 22.3592 15.841 22.5729 14.7224C22.6593 14.2678 22.723 13.6449 22.5593 12.415C22.4404 11.399 22.2117 10.3989 21.8773 9.43226C21.8773 9.43226 21.6249 8.71387 20.6906 6.53369L20.6133 6.35181C20.6133 6.35181 20.6337 6.31316 20.6724 6.25178C20.85 5.95682 21.0975 5.7101 21.3931 5.53339L21.4226 5.51748L21.4453 5.50611C21.4787 5.49063 21.5128 5.47697 21.5476 5.46519H21.5704H21.5886L21.6363 5.45383C21.6946 5.44192 21.7541 5.43659 21.8136 5.43791C21.9619 5.44397 22.1073 5.48034 22.241 5.54476C22.599 5.73414 22.9032 6.01098 23.1254 6.34954C23.3835 6.79184 23.5953 7.25961 23.7574 7.7454C24.0331 8.53886 24.2668 9.34627 24.4576 10.1643C24.7872 11.6761 24.9736 12.565 24.8986 13.3857C24.8845 13.5385 24.8609 13.6904 24.8281 13.8404C24.6963 14.4405 24.4599 15.3999 23.6232 16.0183C23.407 16.1754 23.1707 16.3031 22.9208 16.3979C22.7566 16.4612 22.5879 16.5121 22.4161 16.5503L22.3365 16.5662L22.2501 16.5821H22.2387H22.2024H22.1251C22.0387 16.5821 21.9455 16.5957 21.8568 16.598C21.705 16.6147 21.5515 16.607 21.4021 16.5753C21.4434 16.5546 21.4881 16.5415 21.534 16.5366" fill="#E1E1E1"/>
<path d="M11.5741 16.7821C11.7459 16.7439 11.9146 16.693 12.0788 16.6298C11.9153 16.695 11.7464 16.7459 11.5741 16.7821Z" fill="#F7F6F7"/>
<path d="M3.54221 10.5348C3.76025 9.513 4.05046 8.50792 4.41064 7.52713C4.54705 7.15202 4.84032 6.39043 5.52461 5.89256C5.69782 5.75297 5.91156 5.67321 6.13388 5.66522C6.62948 5.66522 6.9955 6.1199 7.14554 6.31314C7.38711 6.64837 7.59141 7.00893 7.75481 7.38845C7.82762 7.57261 7.9429 7.73698 8.09126 7.86814C8.23467 8.00408 8.42568 8.07835 8.62324 8.07502C8.75111 8.06124 8.87248 8.01159 8.97334 7.93179C9.21887 7.74992 9.27343 7.51121 9.40074 7.21795C9.51724 6.96562 9.65891 6.7257 9.82359 6.50183C9.78494 6.56321 9.76448 6.60186 9.76448 6.60186L9.84178 6.78373C10.7761 8.96391 11.0285 9.6823 11.0285 9.6823C11.363 10.649 11.5917 11.649 11.7105 12.665C11.8719 13.8949 11.8105 14.5178 11.7241 14.9725C11.5104 16.091 11.0421 16.7207 10.6989 16.7912C10.6529 16.7959 10.6082 16.809 10.567 16.8298C10.0818 16.7786 9.61143 16.6326 9.18249 16.4002C8.96448 16.2227 8.69855 16.1143 8.41863 16.0887C8.23449 16.0887 8.09354 16.141 7.6275 16.3615C6.91138 16.7025 6.93184 16.7275 6.75906 16.7889C6.2569 16.9321 5.72047 16.8951 5.24271 16.6844C4.66568 16.458 4.17534 16.0545 3.8423 15.5317C3.35579 14.8133 3.28078 14.0927 3.23985 13.3607C3.23985 13.3106 3.23985 13.2606 3.23985 13.2129C3.19666 12.3717 3.31488 11.7511 3.55131 10.5416" fill="#F7F6F7"/>
<path d="M12.9169 7.97716C12.7549 7.49132 12.5432 7.02355 12.2849 6.5813C12.5588 7.01528 12.7715 7.485 12.9169 7.97716Z" fill="#F7F6F7"/>
<path d="M10.8694 5.67202C10.9042 5.66906 10.9392 5.66906 10.9739 5.67202C10.9144 5.67056 10.8549 5.6759 10.7966 5.68794L10.8694 5.6743" fill="#F7F6F7"/>
<path d="M11.0376 16.848H11.0149C11.1036 16.848 11.1945 16.848 11.2832 16.8321C11.2036 16.8321 11.1218 16.848 11.0399 16.848" fill="#F7F6F7"/>
<path d="M10.7079 16.7821C11.0489 16.7116 11.5172 16.0819 11.7309 14.9634C11.8173 14.5087 11.8809 13.8858 11.7173 12.6559C11.5984 11.64 11.3697 10.6399 11.0352 9.67323C11.0352 9.67323 10.7829 8.95484 9.84853 6.77465L9.77124 6.59278C9.77124 6.59278 9.7917 6.55413 9.83035 6.49275C10.008 6.19778 10.2555 5.95107 10.551 5.77436L10.5806 5.75845L10.6033 5.74708C10.6366 5.73159 10.6708 5.71793 10.7056 5.70616H10.7283H10.7465L10.7943 5.69479C10.8526 5.68289 10.9121 5.67755 10.9716 5.67888C11.1199 5.68494 11.2653 5.7213 11.399 5.78573C11.7569 5.97511 12.0611 6.25196 12.2833 6.59051C12.5415 7.03281 12.7533 7.50057 12.9153 7.98637C13.191 8.77982 13.4247 9.58724 13.6155 10.4053C13.9134 11.7693 14.093 12.6241 14.0702 13.3811C14.0634 13.6167 14.0345 13.8512 13.9838 14.0813C13.852 14.6815 13.6155 15.6409 12.7789 16.2592C12.5626 16.4164 12.3264 16.5441 12.0765 16.6389C11.9122 16.7021 11.7435 16.7531 11.5718 16.7912L11.4922 16.8071L11.4058 16.823H11.3899H11.3535H11.2762C11.1898 16.823 11.0966 16.8367 11.008 16.839C10.8562 16.8556 10.7027 16.848 10.5533 16.8162C10.6018 16.7941 10.6545 16.7825 10.7079 16.7821Z" fill="#E1E1E1"/>
</svg>
