<svg id="Layer_1" data-name="Layer 1" xmlns="http://www.w3.org/2000/svg" viewBox="0 0 1000 1000"><defs><style>.cls-1{fill:#231f20;}.cls-2{fill:#fff;}</style></defs><path class="cls-1" d="M724.91,573.8c-87.85,0-159.33-71.48-159.33-159.34s71.48-159.33,159.33-159.33S884.25,326.6,884.25,414.46,812.77,573.8,724.91,573.8Zm0-258.67a99.34,99.34,0,1,0,99.34,99.33A99.44,99.44,0,0,0,724.91,315.13Z"/><path class="cls-1" d="M166.47,272.93H298.84a0,0,0,0,1,0,0V556a0,0,0,0,1,0,0H166.47a43.15,43.15,0,0,1-43.15-43.15V316.09A43.15,43.15,0,0,1,166.47,272.93Z"/><path class="cls-1" d="M328.84,586H166.47a73.24,73.24,0,0,1-73.16-73.16V316.09a73.24,73.24,0,0,1,73.16-73.16H328.84ZM166.47,302.93a13.17,13.17,0,0,0-13.16,13.16V512.83A13.17,13.17,0,0,0,166.47,526H268.84V302.93Z"/><path class="cls-1" d="M753.61,212.09V616.84c0,27.34-20.74,47.79-42.86,42.25L298.84,556v-283l411.91-103.1C732.87,164.29,753.61,184.74,753.61,212.09Z"/><path class="cls-1" d="M718,690a59.72,59.72,0,0,1-14.5-1.79L268.84,579.4V249.51L703.47,140.73a60.58,60.58,0,0,1,52.24,11.42c17.47,13.63,27.9,36,27.9,59.94V616.84c0,23.89-10.43,46.3-27.9,59.94A61.31,61.31,0,0,1,718,690ZM328.84,532.57,718,630c1.65-.58,5.61-5.23,5.61-13.14V212.09c0-7.91-4-12.56-5.6-13.15l-389.17,97.4Z"/><path class="cls-1" d="M428.9,469.26l-72.84,385a25,25,0,0,1-24.53,20.33h-113A25,25,0,0,1,194,844.9l67.77-348a25,25,0,0,1,15.75-18.61l140.42-52.62"/><path class="cls-1" d="M331.53,904.64h-113a55,55,0,0,1-53.95-65.47l67.77-348a55.29,55.29,0,0,1,34.66-41L407.4,397.58l21.05,56.18L401.13,464l57.25,10.83L385.54,859.89A55,55,0,0,1,331.53,904.64Zm-106.92-60H327.36l71.87-379.92L290.67,505.4Z"/><path class="cls-2" d="M298.84,539.28a30,30,0,0,1-30-30V319.64a30,30,0,0,1,60,0V509.28A30,30,0,0,1,298.84,539.28Z"/></svg>