<svg id="Layer_1" data-name="Layer 1" xmlns="http://www.w3.org/2000/svg" viewBox="0 0 1000 1000"><defs><style>.cls-1{fill:#231f20;}</style></defs><path class="cls-1" d="M348.87,586H186.5a73.24,73.24,0,0,1-73.16-73.16V316.09a73.24,73.24,0,0,1,73.16-73.16H348.87ZM186.5,302.93a13.17,13.17,0,0,0-13.16,13.16V512.83A13.17,13.17,0,0,0,186.5,526H288.87V302.93Z"/><path class="cls-1" d="M738,690a59.72,59.72,0,0,1-14.5-1.79L288.87,579.4V249.51L723.49,140.73a60.6,60.6,0,0,1,52.25,11.42c17.47,13.63,27.9,36,27.9,59.94V616.84c0,23.89-10.43,46.3-27.9,59.94A61.31,61.31,0,0,1,738,690ZM348.87,532.57,738,630c1.65-.58,5.61-5.22,5.61-13.14V212.09c0-7.91-3.95-12.56-5.6-13.15l-389.17,97.4Z"/><path class="cls-1" d="M773.62,295.29a129.4,129.4,0,0,1,0,238.34"/><path class="cls-1" d="M785.33,561.25,762,506a99.39,99.39,0,0,0,0-183.08l23.38-55.26a159.39,159.39,0,0,1,0,293.59Z"/><path class="cls-1" d="M351.56,904.64h-113a55,55,0,0,1-54-65.47l56.27-288.92,58.89,11.47-55.1,282.92H347.39l50.52-267.07,58.95,11.15-51.3,271.17A55,55,0,0,1,351.56,904.64Z"/></svg>