<svg width="20" height="20" viewBox="0 0 20 20" fill="none" xmlns="http://www.w3.org/2000/svg">
<path fill-rule="evenodd" clip-rule="evenodd" d="M9.37499 18H10.626V17.233C10.626 16.298 11.201 15.458 12.09 15.091C13.01 14.708 14.015 14.896 14.677 15.562L15.216 16.103L16.104 15.215L15.559 14.671C14.896 14.009 14.709 13.005 15.082 12.114L15.083 12.112L15.094 12.084C15.458 11.201 16.299 10.625 17.234 10.625H18V9.375H17.234C16.299 9.375 15.458 8.8 15.092 7.911C14.707 6.991 14.896 5.986 15.562 5.323L16.103 4.784L15.216 3.897L14.671 4.442C14.009 5.104 13.006 5.291 12.115 4.919C11.202 4.542 10.626 3.702 10.626 2.767V2H9.37499V2.767C9.37499 3.702 8.79999 4.542 7.911 4.909C6.992 5.294 5.987 5.105 5.324 4.438L4.785 3.897L3.897 4.785L4.442 5.329C5.104 5.991 5.292 6.995 4.919 7.886C4.543 8.799 3.702 9.375 2.767 9.375H2V10.625H2.767C3.702 10.625 4.543 11.2 4.909 12.089C5.294 13.009 5.105 14.014 4.439 14.677L3.898 15.216L4.785 16.103L5.33 15.558C5.992 14.896 6.995 14.709 7.886 15.081C8.79899 15.458 9.37499 16.298 9.37499 17.233V18ZM10.943 20H9.05099C8.12699 20 7.375 19.248 7.375 18.324V17.233C7.375 17.086 7.258 16.985 7.148 16.94C7.004 16.881 6.85 16.869 6.744 16.972L5.974 17.743C5.318 18.397 4.252 18.399 3.597 17.743L2.257 16.403C1.939 16.085 1.765 15.663 1.765 15.213C1.766 14.764 1.941 14.342 2.26 14.024L3.028 13.259C3.133 13.154 3.122 13 3.075 12.889C3.015 12.742 2.915 12.625 2.767 12.625H1.683C0.755 12.625 0 11.871 0 10.943V9.051C0 8.126 0.752 7.375 1.677 7.375H2.767C2.914 7.375 3.015 7.257 3.06 7.147C3.12 7.003 3.132 6.848 3.028 6.744L2.257 5.974C1.603 5.317 1.603 4.251 2.257 3.597L3.597 2.257C3.915 1.939 4.336 1.765 4.785 1.765H4.787C5.236 1.765 5.659 1.94 5.976 2.259L6.741 3.028C6.846 3.134 7.001 3.122 7.112 3.075C7.258 3.014 7.375 2.914 7.375 2.767V1.683C7.375 0.755 8.12999 0 9.05799 0H10.95C11.874 0 12.626 0.752 12.626 1.676V2.767C12.626 2.914 12.743 3.015 12.853 3.06C12.998 3.12 13.152 3.133 13.257 3.028L14.027 2.257C14.683 1.603 15.749 1.601 16.404 2.257L17.745 3.598C18.063 3.915 18.237 4.337 18.236 4.787C18.236 5.235 18.061 5.658 17.742 5.975L16.973 6.741C16.868 6.846 16.879 7 16.926 7.111C16.986 7.258 17.086 7.375 17.234 7.375H18.318C19.246 7.375 20 8.129 20 9.057V10.949C20 11.874 19.249 12.625 18.324 12.625H17.234C17.087 12.625 16.986 12.743 16.941 12.853C16.941 12.853 16.928 12.884 16.927 12.886C16.881 12.997 16.869 13.152 16.973 13.256L17.744 14.026C18.398 14.683 18.398 15.749 17.744 16.403L16.404 17.743C16.086 18.061 15.665 18.235 15.216 18.235H15.214C14.765 18.235 14.342 18.06 14.025 17.741L13.26 16.972C13.155 16.867 12.999 16.879 12.889 16.925C12.743 16.986 12.626 17.086 12.626 17.233V18.317C12.626 19.245 11.871 20 10.943 20ZM10.0005 8.5C9.17349 8.5 8.50049 9.173 8.50049 10C8.50049 10.827 9.17349 11.5 10.0005 11.5C10.8275 11.5 11.5005 10.827 11.5005 10C11.5005 9.173 10.8275 8.5 10.0005 8.5ZM10.0005 13.5C8.07049 13.5 6.5005 11.93 6.5005 10C6.5005 8.07 8.07049 6.5 10.0005 6.5C11.9305 6.5 13.5005 8.07 13.5005 10C13.5005 11.93 11.9305 13.5 10.0005 13.5Z" fill="#44BE7D"/>
</svg>
