<svg width="96" height="128" viewBox="0 0 96 128" fill="none" xmlns="http://www.w3.org/2000/svg">
    <mask id="mask0_3947_156892" style="mask-type:luminance" maskUnits="userSpaceOnUse" x="19" y="19" width="20" height="20">
        <path d="M38.5525 19.072H19.498V38.1439H38.5525V19.072Z" fill="white"/>
    </mask>
    <g mask="url(#mask0_3947_156892)">
        <path d="M29.0286 9.55123L9.96875 28.6111L29.0286 47.6709L48.0885 28.6111L29.0286 9.55123Z" fill="url(#paint0_linear_3947_156892)"/>
    </g>
    <mask id="mask1_3947_156892" style="mask-type:luminance" maskUnits="userSpaceOnUse" x="0" y="38" width="58" height="58">
        <path d="M0.442871 38.1438V76.2702H19.4974V95.3421H57.6237V76.2702H38.5693V57.2157H19.4974V38.1438H0.442871Z" fill="white"/>
    </mask>
    <g mask="url(#mask1_3947_156892)">
        <path d="M29.0401 9.53752L-28.1641 66.7417L29.0401 123.946L86.2443 66.7417L29.0401 9.53752Z" fill="url(#paint1_linear_3947_156892)"/>
    </g>
    <mask id="mask2_3947_156892" style="mask-type:luminance" maskUnits="userSpaceOnUse" x="57" y="57" width="20" height="20">
        <path d="M76.695 57.2156H57.623V76.2875H76.695V57.2156Z" fill="white"/>
    </mask>
    <g mask="url(#mask2_3947_156892)">
        <path d="M67.1703 47.6773L48.0981 66.7495L67.1703 85.8217L86.2425 66.7495L67.1703 47.6773Z" fill="url(#paint2_linear_3947_156892)"/>
    </g>
    <mask id="mask3_3947_156892" style="mask-type:luminance" maskUnits="userSpaceOnUse" x="38" y="0" width="58" height="58">
        <path d="M38.5698 0.017334V19.0718H57.6243V38.1437H76.6962V57.2156H95.7681V19.0718H76.6962V0.017334H38.5698Z" fill="white"/>
    </mask>
    <g mask="url(#mask3_3947_156892)">
        <path d="M67.1671 -28.598L9.96289 28.6062L67.1671 85.8104L124.371 28.6062L67.1671 -28.598Z" fill="url(#paint3_linear_3947_156892)"/>
    </g>
    <mask id="mask4_3947_156892" style="mask-type:luminance" maskUnits="userSpaceOnUse" x="0" y="0" width="20" height="20">
        <path d="M19.5148 0H0.442871V19.0719H19.5148V0Z" fill="white"/>
    </mask>
    <g mask="url(#mask4_3947_156892)">
        <path d="M9.99355 -9.53286L-9.07861 9.53931L9.99355 28.6115L29.0657 9.53931L9.99355 -9.53286Z" fill="url(#paint4_linear_3947_156892)"/>
    </g>
    <mask id="mask5_3947_156892" style="mask-type:luminance" maskUnits="userSpaceOnUse" x="76" y="76" width="20" height="20">
        <path d="M95.7672 76.2703H76.6953V95.3422H95.7672V76.2703Z" fill="white"/>
    </mask>
    <g mask="url(#mask5_3947_156892)">
        <path d="M86.2426 66.7496L67.1704 85.8218L86.2426 104.894L105.315 85.8218L86.2426 66.7496Z" fill="url(#paint5_linear_3947_156892)"/>
    </g>
    <path d="M12.6948 127.413V120.522H4.32473V127.413H1.10547V110.359H4.32473V117.546H12.6948V110.359H15.8966V127.413H12.6948Z" fill="#21409A"/>
    <path d="M21.2222 122.436C21.379 123.24 21.8381 123.953 22.5049 124.429C23.1717 124.905 23.9955 125.107 24.8068 124.994C25.9777 125.015 27.1182 124.62 28.0261 123.88L29.9228 125.76C28.5044 127.067 26.6304 127.766 24.7024 127.709C23.0179 127.739 21.3905 127.098 20.1781 125.928C18.9658 124.758 18.2678 123.155 18.2378 121.47C18.2078 119.786 18.8482 118.158 20.0182 116.946C21.1881 115.734 22.7917 115.036 24.4762 115.006C28.4959 115.006 31.0017 117.494 30.5493 122.436H21.17H21.2222ZM27.7477 119.965C27.6965 119.607 27.5753 119.263 27.391 118.952C27.2067 118.641 26.9629 118.37 26.6736 118.153C26.3843 117.937 26.0552 117.779 25.705 117.69C25.3548 117.601 24.9905 117.582 24.6328 117.633C23.8902 117.576 23.1506 117.777 22.5388 118.202C21.927 118.626 21.4804 119.249 21.2744 119.965H27.7651H27.7477Z" fill="#21409A"/>
    <path d="M42.4347 115.371H45.2886V127.378H42.4869L42.3477 125.638C41.9327 126.294 41.3567 126.834 40.6746 127.206C39.9924 127.577 39.2266 127.768 38.4498 127.761C36.7699 127.761 35.1588 127.093 33.9709 125.906C32.7831 124.718 32.1157 123.107 32.1157 121.427C32.1157 119.747 32.7831 118.136 33.9709 116.948C35.1588 115.76 36.7699 115.093 38.4498 115.093C39.201 115.065 39.9468 115.23 40.6167 115.571C41.2866 115.912 41.8584 116.418 42.2781 117.041L42.4347 115.371ZM35.2132 121.374C35.1896 121.846 35.2621 122.317 35.4264 122.76C35.5907 123.202 35.8433 123.607 36.1689 123.949C36.4944 124.29 36.8861 124.563 37.3201 124.748C37.7542 124.934 38.2214 125.029 38.6934 125.029C43.3744 125.029 43.3744 117.738 38.6934 117.738C38.2229 117.737 37.7572 117.832 37.3244 118.017C36.8916 118.201 36.5007 118.472 36.1754 118.812C35.8501 119.152 35.5971 119.554 35.4317 119.994C35.2663 120.435 35.192 120.904 35.2132 121.374Z" fill="#21409A"/>
    <path d="M50.7348 110.359H47.7939V127.395H50.7348V110.359Z" fill="#21409A"/>
    <path d="M57.5384 111.995V115.475H60.8447V117.894H57.5037V123.115C57.4666 123.336 57.4801 123.564 57.5431 123.78C57.606 123.996 57.7169 124.195 57.8674 124.362C58.0179 124.529 58.2042 124.66 58.4123 124.746C58.6205 124.831 58.8452 124.868 59.0698 124.855C59.5719 124.839 60.0647 124.714 60.5141 124.489L61.3493 127.03C60.5709 127.352 59.7382 127.523 58.8957 127.535C58.3056 127.607 57.7067 127.543 57.1454 127.347C56.584 127.151 56.0752 126.828 55.6581 126.405C55.2411 125.981 54.927 125.467 54.7401 124.903C54.5532 124.338 54.4985 123.738 54.5802 123.149V117.929H52.3354V115.371H54.5802V112.274L57.5384 111.995Z" fill="#21409A"/>
    <path d="M66.0303 110.324V117.007C66.4681 116.433 67.0392 115.974 67.6942 115.671C68.3492 115.368 69.0682 115.229 69.789 115.266C73.2693 115.266 74.7136 117.581 74.7136 121.113V127.447H71.738V121.131C71.8092 120.739 71.791 120.336 71.6847 119.952C71.5784 119.568 71.3868 119.213 71.1241 118.914C70.8614 118.614 70.5345 118.378 70.1677 118.222C69.801 118.067 69.4038 117.996 69.0059 118.016C68.5921 118.029 68.1852 118.125 67.8095 118.299C67.4338 118.473 67.0969 118.721 66.8192 119.028C66.5414 119.335 66.3284 119.695 66.1929 120.086C66.0573 120.477 66.002 120.892 66.0303 121.305V127.447H63.0547V110.394H66.0303V110.324Z" fill="#21409A"/>
    <path d="M80.2647 113.057H77.585V127.395H80.2647V113.057Z" fill="#00A79D"/>
    <path d="M95.4207 120.105C95.4944 121.07 95.3605 122.041 95.028 122.951C94.6955 123.86 94.1721 124.689 93.4929 125.379C92.8137 126.07 91.9946 126.607 91.0905 126.955C90.1864 127.303 89.2183 127.453 88.2513 127.396H82.6133V113.057H88.2513C89.1897 113.001 90.1294 113.141 91.0107 113.468C91.8919 113.795 92.6954 114.303 93.3699 114.957C94.0443 115.612 94.575 116.4 94.9281 117.271C95.2812 118.143 95.449 119.078 95.4207 120.017M85.2931 124.855H88.2339C89.4012 124.783 90.4971 124.269 91.2982 123.417C92.0993 122.565 92.5453 121.439 92.5453 120.27C92.5453 119.1 92.0993 117.975 91.2982 117.123C90.4971 116.271 89.4012 115.756 88.2339 115.685H85.2931V124.855Z" fill="#00A79D"/>
    <defs>
        <linearGradient id="paint0_linear_3947_156892" x1="-13.7218" y1="68.9291" x2="60.2781" y2="-5.07083" gradientUnits="userSpaceOnUse">
            <stop stop-color="#21409A"/>
            <stop offset="1" stop-color="#00A79D"/>
        </linearGradient>
        <linearGradient id="paint1_linear_3947_156892" x1="5.33724" y1="87.9876" x2="79.3372" y2="13.9876" gradientUnits="userSpaceOnUse">
            <stop stop-color="#21409A"/>
            <stop offset="1" stop-color="#00A79D"/>
        </linearGradient>
        <linearGradient id="paint2_linear_3947_156892" x1="24.4076" y1="107.043" x2="98.4076" y2="33.043" gradientUnits="userSpaceOnUse">
            <stop stop-color="#21409A"/>
            <stop offset="1" stop-color="#00A79D"/>
        </linearGradient>
        <linearGradient id="paint3_linear_3947_156892" x1="5.33217" y1="87.9841" x2="79.3322" y2="13.9841" gradientUnits="userSpaceOnUse">
            <stop stop-color="#21409A"/>
            <stop offset="1" stop-color="#00A79D"/>
        </linearGradient>
        <linearGradient id="paint4_linear_3947_156892" x1="-32.8061" y1="49.8697" x2="41.1939" y2="-24.1303" gradientUnits="userSpaceOnUse">
            <stop stop-color="#21409A"/>
            <stop offset="1" stop-color="#00A79D"/>
        </linearGradient>
        <linearGradient id="paint5_linear_3947_156892" x1="43.4798" y1="126.115" x2="117.48" y2="52.1152" gradientUnits="userSpaceOnUse">
            <stop stop-color="#21409A"/>
            <stop offset="1" stop-color="#00A79D"/>
        </linearGradient>
    </defs>
</svg>
